<?xml version="1.0" encoding="utf-8"?>
<!-- Generator: Adobe Illustrator 23.0.1, SVG Export Plug-In . SVG Version: 6.00 Build 0)  -->
<svg version="1.1" id="Layer_1" xmlns="http://www.w3.org/2000/svg" xmlns:xlink="http://www.w3.org/1999/xlink" x="0px" y="0px"
	 viewBox="0 0 70 70" style="enable-background:new 0 0 70 70;" xml:space="preserve">
<style type="text/css">
	.st0{display:none;}
	.st1{display:inline;}
	.st2{fill:#254092;}
	.st3{fill:#A4CD39;}
	.st4{fill:#E80E8A;}
	.st5{fill:#273E93;}
	.st6{fill:#EA088B;}
</style>
<g class="st0">
	<g class="st1">
		<path class="st2" d="M76.091,0.794c0.003-1.498-0.072-3.06-0.072-4.735c-5.339,0-10.518,0-15.811,0c0,4.924,0,9.757,0,14.77
			c5.189,0,10.363,0,15.808,0c0-1.524,0.005-3.06,0.074-4.558l2.967,0.046c0.004,1.821-0.011,3.681,0.093,5.517
			c0.106,1.87-0.777,2.613-2.501,2.42c-2.282-0.255-3.592,0.196-3.304,2.984c0.236,2.279-1.602,3.277-3.595,4.084
			c0,8.864,0.081,17.771-0.021,26.676c-0.119,10.433-3.876,19.375-11.527,26.544C42.264,89.475,17.167,87.044,4.285,69.351
			c-4.753-6.528-6.877-13.905-6.935-21.92c-0.032-4.412-0.006-8.825-0.006-13.201c-2.953-0.738-2.953-0.738-3.236-5.483
			c-3.207-0.385-3.72-2.585-3.533-5.393c0.156-2.347-0.085-4.72,0.059-7.069c0.217-3.534,0.461-7.083,1.046-10.567
			c0.146-0.872,1.585-2.085,2.514-2.165c3.145-0.271,6.327-0.13,9.495-0.093c1.69,0.02,2.581,1.095,2.719,2.641
			c0.399,4.485,0.708,8.978,1.004,13.471c0.087,1.32,0.014,2.651,0.013,3.978c-0.002,3.758-0.194,4.041-3.6,5.31
			c-0.449,4.723-0.449,4.723-3.346,5.295c0.256,9.889-1.371,20.044,3.876,29.3c1.428,2.519,3.158,4.868,5.052,7.16
			c-3.246-7.268-4.021-14.59-1.296-22.102c1.885-5.194,5.079-9.472,9.611-12.623c9.785-6.803,22.432-6.569,31.711,0.571
			c5.541,4.263,8.979,9.917,10.059,16.82c1.052,6.724-0.199,13.107-3.773,19.011c5.99-5.312,9.49-11.891,10.533-19.749
			c0.222-1.674,0.35-3.374,0.357-5.062c0.035-8.69,0.016-17.379,0.016-26.024c-3.328-1.364-3.356-1.413-4.135-7.207
			c-1.18,0-2.473,0.236-3.609-0.084c-0.747-0.211-1.79-1.212-1.807-1.88c-0.142-5.817-0.083-11.638-0.08-17.459
			c0.001-1.324,0.586-2.087,1.999-2.05c0.659,0.017,1.318,0.003,2.376,0.003c0-1.837-0.14-3.58,0.064-5.282
			c0.091-0.758,0.874-1.433,1.344-2.145c0.565,0.705,1.5,1.353,1.619,2.126c0.251,1.641,0.077,3.348,0.077,5.185
			c2.552,0,4.736,0,7.235,0c0-1.77-0.171-3.464,0.073-5.096c0.12-0.799,1.013-1.482,1.557-2.217
			c0.508,0.752,1.337,1.456,1.457,2.266c0.233,1.575,0.068,3.209,0.068,4.669c0.317,0.237,0.423,0.384,0.542,0.395
			c3.723,0.348,3.724,0.346,3.723,4.167c0,1.326-0.048,2.689-0.076,3.966 M56.667,57.74c0.159-12.81-10.333-23.519-23.242-23.723
			C20.809,33.818,9.809,44.33,9.654,56.734c-0.166,13.415,9.994,24.312,22.867,24.522C45.696,81.471,56.504,70.945,56.667,57.74z
			 M4.175,15.606c-3.546,0-6.939,0-10.301,0c0,3.301,0,6.427,0,9.561c3.493,0,6.835,0,10.301,0
			C4.175,21.957,4.175,18.9,4.175,15.606z M3.202,6.696c-2.974,0-5.727,0-8.461,0c0,1.907,0,3.644,0,5.464c2.856,0,5.602,0,8.461,0
			C3.202,10.297,3.202,8.563,3.202,6.696z M70.514,14.464c-1.88,0-3.225,0-4.996,0c0.371,1.321,0.356,2.778,1.05,3.311
			c0.689,0.529,2.441,0.551,3.086,0.019C70.324,17.242,70.227,15.759,70.514,14.464z M-3.029,28.675
			c0.437,0.916,0.575,1.788,1.022,1.997c0.583,0.272,1.549,0.241,2.087-0.089c0.369-0.227,0.289-1.184,0.428-1.907
			C-0.689,28.675-1.547,28.675-3.029,28.675z"/>
		<path class="st3" d="M69.789,21.322c0,8.864,0.081,17.771-0.021,26.676c-0.119,10.433-3.875,19.376-11.527,26.545
			C42.303,89.476,17.206,87.045,4.324,69.352c-4.753-6.528-6.877-13.905-6.935-21.92c-0.032-4.412-0.006-8.825-0.006-13.201
			l3.134-0.077c0.256,9.889-1.371,20.044,3.876,29.3c1.428,2.519,3.158,4.868,5.052,7.16c-3.246-7.268-4.021-14.59-1.296-22.102
			c1.885-5.194,5.079-9.472,9.611-12.623c9.785-6.803,22.432-6.569,31.711,0.571c5.541,4.263,8.979,9.917,10.059,16.82
			c1.052,6.724-0.199,13.107-3.773,19.011c5.99-5.312,9.49-11.891,10.533-19.749c0.222-1.674,0.35-3.374,0.357-5.062
			c0.035-8.69,0.016-17.379,0.016-26.024 M56.708,57.74c0.159-12.81-10.333-23.519-23.242-23.723
			C20.85,33.818,9.85,44.33,9.695,56.734c-0.167,13.415,9.994,24.312,22.866,24.522C45.736,81.471,56.544,70.945,56.708,57.74z"/>
		<path class="st4" d="M1.434,10.42h-4.808c-0.65,0-1.177-0.527-1.177-1.177s0.527-1.177,1.177-1.177h4.808
			c0.65,0,1.177,0.527,1.177,1.177S2.084,10.42,1.434,10.42z"/>
		<path class="st4" d="M72.668,0.556h-9.229c-0.651,0-1.177-0.527-1.177-1.177s0.527-1.177,1.177-1.177h9.229
			c0.651,0,1.177,0.527,1.177,1.177S73.319,0.556,72.668,0.556z"/>
		<path class="st4" d="M72.668,4.618h-9.229c-0.651,0-1.177-0.527-1.177-1.177s0.527-1.177,1.177-1.177h9.229
			c0.651,0,1.177,0.527,1.177,1.177C73.846,4.091,73.319,4.618,72.668,4.618z"/>
		<path class="st4" d="M72.668,8.68h-9.229c-0.651,0-1.177-0.527-1.177-1.177s0.527-1.177,1.177-1.177h9.229
			c0.651,0,1.177,0.527,1.177,1.177C73.846,8.152,73.319,8.68,72.668,8.68z"/>
		<circle class="st2" cx="77.565" cy="0.859" r="1.48"/>
		<circle class="st2" cx="77.565" cy="6.312" r="1.48"/>
	</g>
</g>
<g class="st0">
	<g class="st1">
		<path class="st5" d="M54.989,71.392c0,3.431,0,6.578,0,9.835c2.179,0,4.226,0,6.444,0c0.036-0.684,0.071-1.322,0.103-1.96
			c0.111-2.198,1.344-3.789,3.331-4.206c1.751-0.367,2.999-1.129,4.308-2.248c2.498-2.134,6.249-1.727,8.69,0.569
			c0.683,0.642,1.624,1.177,2.532,1.381c2.608,0.586,4.384,2.606,4.274,5.147c-0.108,2.496-2.104,4.514-4.716,4.739
			c-0.589,0.051-1.185,0.019-1.777,0.019c-21.037,0.001-42.075,0.001-63.112,0c-3.311,0-3.366-0.05-3.366-3.366
			c-0.002-25.482-0.003-50.964,0.001-76.446c0-3.074,0.203-3.274,3.294-3.275c15.482-0.004,30.964-0.004,46.445,0
			c3.069,0.001,3.272,0.209,3.273,3.292c0.003,21.112,0.003,42.223,0,63.335c0,3.149-0.036,3.177-3.292,3.183
			C59.356,71.395,57.291,71.392,54.989,71.392z M54.939,68.024c2.273,0,4.294,0,6.42,0c0-3.336,0-6.528,0-9.797
			c-2.222,0-4.3,0-6.42,0C54.939,61.552,54.939,64.702,54.939,68.024z M35.004,68c2.219,0,4.309,0,6.373,0c0-3.38,0-6.589,0-9.819
			c-2.21,0-4.246,0-6.373,0C35.004,61.52,35.004,64.73,35.004,68z M15.051,58.136c0,3.388,0,6.586,0,9.862c2.222,0,4.304,0,6.354,0
			c0-3.376,0-6.58,0-9.862C19.269,58.136,17.294,58.136,15.051,58.136z M51.222,68.052c0-3.371,0-6.624,0-9.884
			c-2.172,0-4.14,0-6.207,0c0,3.37,0,6.622,0,9.884C47.205,68.052,49.175,68.052,51.222,68.052z M25.125,58.16
			c0,3.381,0,6.58,0,9.864c2.168,0,4.184,0,6.302,0c0-3.35,0-6.554,0-9.864C29.309,58.16,27.344,58.16,25.125,58.16z M41.389,81.226
			c0-3.418,0-6.54,0-9.651c-2.247,0-4.33,0-6.367,0c0,3.323,0,6.461,0,9.651C37.203,81.226,39.241,81.226,41.389,81.226z
			 M21.437,71.58c-2.217,0-4.302,0-6.333,0c0,3.319,0,6.448,0,9.603c2.218,0,4.245,0,6.333,0
			C21.437,77.889,21.437,74.753,21.437,71.58z M61.497,54.705c0-2.966,0.059-5.688-0.055-8.402c-0.02-0.485-0.724-1.303-1.169-1.344
			c-1.727-0.158-3.477-0.064-5.294-0.064c0,3.424,0,6.556,0,9.811C57.127,54.705,59.153,54.705,61.497,54.705z M41.468,45.069
			c-2.29,0-4.368,0-6.447,0c0,3.315,0,6.441,0,9.586c2.229,0,4.313,0,6.447,0C41.468,51.409,41.468,48.337,41.468,45.069z
			 M21.437,54.752c0-3.368,0-6.51,0-9.656c-2.213,0-4.291,0-6.332,0c0,3.345,0,6.471,0,9.656
			C17.272,54.752,19.249,54.752,21.437,54.752z M54.93,41.368c2.138,0,4.272,0,6.43,0c0-3.281,0-6.415,0-9.632
			c-2.216,0-4.288,0-6.43,0C54.93,35.014,54.93,38.099,54.93,41.368z M15.092,5.09c0,3.248,0,6.438,0,9.65c2.198,0,4.286,0,6.307,0
			c0-3.323,0-6.463,0-9.65C19.245,5.09,17.257,5.09,15.092,5.09z M25.152,5.125c0,3.384,0,6.522,0,9.62c2.205,0,4.228,0,6.242,0
			c0-3.312,0-6.445,0-9.62C29.23,5.125,27.253,5.125,25.152,5.125z M34.95,14.759c2.28,0,4.365,0,6.463,0c0-3.29,0-6.419,0-9.571
			c-2.224,0-4.309,0-6.463,0C34.95,8.422,34.95,11.497,34.95,14.759z M51.286,14.84c0-3.36,0-6.487,0-9.696
			c-2.167,0-4.193,0-6.292,0c0,3.293,0,6.467,0,9.696C47.162,14.84,49.132,14.84,51.286,14.84z M54.98,5.098
			c0,3.339,0,6.474,0,9.639c2.208,0,4.289,0,6.345,0c0-3.316,0-6.447,0-9.639C59.168,5.098,57.185,5.098,54.98,5.098z M21.417,28.1
			c0-3.319,0-6.452,0-9.612c-2.185,0-4.22,0-6.377,0c0,3.246,0,6.373,0,9.612C17.192,28.1,19.228,28.1,21.417,28.1z M31.436,28.118
			c0-3.295,0-6.436,0-9.614c-2.182,0-4.217,0-6.317,0c0,3.266,0,6.394,0,9.614C27.239,28.118,29.214,28.118,31.436,28.118z
			 M41.446,18.501c-2.297,0-4.34,0-6.433,0c0,3.271,0,6.408,0,9.544c2.233,0,4.328,0,6.433,0
			C41.446,24.794,41.446,21.712,41.446,18.501z M44.936,28.102c2.175,0,4.212,0,6.362,0c0-3.244,0-6.378,0-9.619
			c-2.162,0-4.196,0-6.362,0C44.936,21.737,44.936,24.875,44.936,28.102z M61.405,18.492c-2.272,0-4.304,0-6.433,0
			c0,3.25,0,6.376,0,9.559c2.199,0,4.28,0,6.433,0C61.405,24.824,61.405,21.757,61.405,18.492z M14.996,41.381
			c2.297,0,4.388,0,6.442,0c0-3.321,0-6.471,0-9.627c-2.212,0-4.289,0-6.442,0C14.996,35.048,14.996,38.128,14.996,41.381z
			 M31.45,31.69c-2.154,0-4.178,0-6.32,0c0,3.307,0,6.5,0,9.725c2.187,0,4.213,0,6.32,0C31.45,38.132,31.45,34.985,31.45,31.69z
			 M41.464,31.661c-2.258,0-4.302,0-6.441,0c0,3.328,0,6.536,0,9.712c2.246,0,4.341,0,6.441,0
			C41.464,38.1,41.464,35.007,41.464,31.661z M51.349,31.554c-1.898,0-3.592-0.079-5.27,0.053c-0.449,0.035-1.197,0.703-1.212,1.102
			c-0.105,2.866-0.056,5.737-0.056,8.677c2.324,0,4.414,0,6.538,0C51.349,38.125,51.349,35.03,51.349,31.554z M51.325,44.889
			c-1.858,0-3.487-0.077-5.1,0.046c-0.491,0.038-1.332,0.613-1.345,0.967c-0.109,2.927-0.062,5.86-0.062,8.751
			c2.401,0,4.434,0,6.507,0C51.325,51.39,51.325,48.302,51.325,44.889z M25.075,54.666c2.244,0,4.259,0,6.493,0
			c0-2.951,0.049-5.748-0.053-8.539c-0.015-0.424-0.708-1.143-1.129-1.176c-1.731-0.134-3.479-0.056-5.312-0.056
			C25.075,48.307,25.075,51.388,25.075,54.666z M25.174,71.52c0,3.317,0,6.503,0,9.685c2.176,0,4.149,0,6.191,0
			c0-3.322,0-6.506,0-9.685C29.179,71.52,27.211,71.52,25.174,71.52z M51.319,71.545c-2.219,0-4.242,0-6.511,0
			c0,2.942-0.05,5.74,0.052,8.532c0.016,0.429,0.703,1.158,1.123,1.19c1.737,0.136,3.491,0.057,5.335,0.057
			C51.319,77.936,51.319,74.848,51.319,71.545z M72.935,81.328c0-0.003,0-0.006,0-0.008c2.143,0,4.286,0.031,6.427-0.012
			c1.184-0.024,2.075-0.538,1.836-1.9c-0.231-1.317-1.056-1.425-2.316-1.202c-0.783,0.139-2.195-0.28-2.472-0.858
			c-0.706-1.471-1.515-2.607-3.204-2.584c-1.594,0.022-2.628,0.909-3.391,2.409c-0.327,0.644-1.71,1.276-2.404,1.098
			c-1.361-0.349-2.301-0.21-2.546,1.15c-0.263,1.457,0.846,1.886,2.084,1.901C68.945,81.347,70.94,81.328,72.935,81.328z"/>
		<path class="st3" d="M68.178-1.64c-1.281,0-2.236,0-3.191,0c-12.226,0-24.453,0-36.679-0.001c-0.593,0-1.301,0.184-1.749-0.075
			c-0.607-0.35-1.385-1.038-1.398-1.596c-0.012-0.513,0.809-1.222,1.421-1.518c0.546-0.263,1.308-0.09,1.974-0.09
			c7.854-0.003,15.709-0.002,23.563-0.002c0.801,0,1.601,0,2.559,0c0-1.157,0-2.081,0-3.341c-3.19,0-6.419,0.002-9.649-0.001
			c-3.171-0.003-3.206-0.034-3.684-3.182c-2.018,0-4.061,0-6.11,0c-0.926,3.183-0.926,3.183-4.501,3.183c-2.95,0-5.9,0-9.135,0
			c0,1.484-0.046,2.795,0.011,4.102c0.079,1.786-0.702,2.573-2.505,2.535c-2.815-0.058-5.631-0.021-8.447-0.01
			C9.937-1.633,9.217-1.573,8.26-1.529c0,1.007,0,1.876,0,2.744c0,26.675,0.001,53.351-0.001,80.026
			c0,3.363-0.062,3.425-3.329,3.427c-5.706,0.002-11.411-0.01-17.117,0.009c-1.258,0.004-2.592-0.05-2.649-1.625
			c-0.06-1.656,1.358-1.676,2.568-1.702c1.252-0.027,2.505-0.006,3.891-0.006c0-2.294,0-4.418,0-6.732
			c-5.507-1.667-7.184-5.852-6.435-11.178c0.625-4.442,1.601-8.839,2.556-13.226c0.226-1.038,0.889-2.031,1.523-2.922
			c2.296-3.228,6.357-3.387,8.177,0.089c1.677,3.204,2.705,6.833,3.489,10.391c0.629,2.855,0.568,5.883,0.628,8.837
			c0.066,3.269-1.53,5.785-4.451,7.075c-1.798,0.794-2.201,1.836-2.043,3.552c0.113,1.237,0.022,2.492,0.022,3.924
			c3.333,0,6.471,0,9.947,0c0-0.964,0-1.897,0-2.83c0-26.601-0.001-53.203,0.001-79.804c0-3.4,0.04-3.436,3.517-3.441
			c3.173-0.004,6.347-0.001,9.822-0.001c0-1.546,0.08-2.861-0.019-4.162c-0.14-1.84,0.668-2.547,2.454-2.52
			c3.468,0.051,6.938,0.015,10.677,0.015c-0.365-3.259,1.555-3.496,3.897-3.354c1.92,0.116,3.86,0.133,5.776-0.004
			c2.341-0.168,4.095,0.204,3.748,3.356c3.414,0,6.584-0.005,9.755,0.001c3.29,0.007,3.391,0.112,3.398,3.336
			c0.002,1.017,0,2.034,0,3.333c3.654,0,7.042-0.014,10.429,0.005c2.646,0.015,2.905,0.274,2.906,2.967
			c0.006,22.6,0.005,45.2-0.005,67.8c0,0.659,0.067,1.427-0.238,1.945c-0.272,0.462-1.037,0.918-1.544,0.876
			c-0.488-0.04-1.146-0.639-1.328-1.139c-0.24-0.659-0.104-1.46-0.104-2.201c-0.003-21.34-0.002-42.681-0.002-64.021
			C68.178,0.435,68.178-0.44,68.178-1.64z M-1.406,65.163c0.117-0.061,0.234-0.122,0.35-0.184
			c-1.081-4.803-2.068-9.631-3.323-14.388c-0.245-0.928-1.528-1.582-2.333-2.363c-0.732,0.775-1.762,1.425-2.147,2.346
			c-2.202,5.272-2.863,10.84-2.58,16.502c0.11,2.203,1.898,3.893,3.934,4.236c2.118,0.357,4.321-0.625,5.193-2.566
			C-1.813,67.64-1.695,66.363-1.406,65.163z"/>
		<path class="st4" d="M1.262,81.242c0,3.363-0.062,3.425-3.329,3.427c-5.706,0.002-4.411-0.01-10.117,0.009
			c-1.258,0.004-2.592-0.05-2.649-1.625c-0.06-1.656,1.358-1.676,2.568-1.702c1.252-0.027,2.505-0.006,3.891-0.006
			c0-2.294,0-4.418,0-6.732c-5.507-1.667-7.184-5.852-6.435-11.178c0.625-4.442,1.601-8.839,2.556-13.226
			c0.226-1.038,0.889-2.031,1.523-2.922c2.296-3.228,6.357-3.387,8.177,0.089c1.677,3.204,2.705,6.833,3.489,10.391
			c0.629,2.855,0.568,5.883,0.628,8.837c0.066,3.269-1.53,5.785-4.451,7.075c-1.798,0.794-2.201,1.836-2.043,3.552
			c0.113,1.237,0.022,2.492,0.022,3.924c3.333,0-0.529,0,2.947,0L1.262,81.242z M-1.406,65.163c0.117-0.061,0.234-0.122,0.35-0.184
			c-1.081-4.803-2.068-9.631-3.323-14.388c-0.245-0.928-1.528-1.582-2.333-2.363c-0.732,0.775-1.762,1.425-2.147,2.346
			c-2.202,5.272-2.863,10.84-2.58,16.502c0.11,2.203,1.898,3.893,3.934,4.236c2.118,0.357,4.321-0.625,5.193-2.566
			C-1.813,67.64-1.695,66.363-1.406,65.163z"/>
	</g>
</g>
<path class="st6" d="M58.988,10.287l-8.98-8.98c-0.861-0.86-2.006-1.335-3.223-1.335H13.937c-2.513,0-4.557,2.045-4.557,4.558v1.877
	c0,0.76,0.616,1.375,1.376,1.375c0.759,0,1.375-0.615,1.375-1.375V4.529c0-0.996,0.81-1.807,1.806-1.807h32.847
	c0.482,0,0.936,0.189,1.277,0.53l8.981,8.98c0.341,0.341,0.529,0.795,0.529,1.278v51.66c0,0.996-0.81,1.807-1.807,1.807H13.937
	c-0.996,0-1.806-0.811-1.806-1.807V17.388c0-0.761-0.616-1.376-1.375-1.376c-0.761,0-1.376,0.615-1.376,1.376v47.781
	c0,2.513,2.045,4.558,4.557,4.558h41.827c2.513,0,4.558-2.045,4.558-4.558V13.51C60.322,12.292,59.849,11.147,58.988,10.287
	L58.988,10.287z"/>
<path class="st6" d="M52.425,24.461c0-0.76-0.615-1.375-1.376-1.375H19.23c-0.759,0-1.376,0.615-1.376,1.375v6.031
	c0,0.76,0.617,1.375,1.376,1.375h31.819c0.761,0,1.376-0.615,1.376-1.375V24.461z M49.673,29.116H20.606v-3.28h29.068L49.673,29.116
	L49.673,29.116z"/>
<path class="st6" d="M17.854,61.592c0,0.76,0.617,1.375,1.376,1.375h31.819c0.761,0,1.376-0.615,1.376-1.375v-6.031
	c0-0.759-0.615-1.375-1.376-1.375H40.653c-0.759,0-1.375,0.616-1.375,1.375s0.616,1.375,1.375,1.375h9.02v3.28H20.606v-3.28h9.319
	c0.759,0,1.375-0.616,1.375-1.375s-0.615-1.375-1.375-1.375H19.23c-0.759,0-1.376,0.616-1.376,1.375V61.592z"/>
<path class="st6" d="M52.425,35.041c0-0.759-0.615-1.375-1.376-1.375h-5.787c-0.76,0-1.375,0.616-1.375,1.375v6.032
	c0,0.759,0.615,1.375,1.375,1.375h5.787c0.761,0,1.376-0.615,1.376-1.375V35.041z M49.673,39.697h-3.036v-3.28h3.036V39.697z"/>
<path class="st6" d="M51.049,43.604h-5.787c-0.76,0-1.375,0.615-1.375,1.375v6.031c0,0.76,0.615,1.375,1.375,1.375h5.787
	c0.761,0,1.376-0.615,1.376-1.375v-6.03C52.425,44.22,51.809,43.604,51.049,43.604L51.049,43.604z M49.673,49.636h-3.036v-3.28
	h3.036V49.636z"/>
<path class="st6" d="M17.854,41.073c0,0.759,0.617,1.375,1.376,1.375h5.787c0.76,0,1.375-0.615,1.375-1.375v-6.032
	c0-0.759-0.616-1.375-1.375-1.375H19.23c-0.759,0-1.376,0.616-1.376,1.375V41.073z M20.606,36.416h3.035v3.28h-3.035V36.416z"/>
<path class="st6" d="M17.854,51.011c0,0.76,0.617,1.375,1.376,1.375h5.787c0.76,0,1.375-0.615,1.375-1.375V44.98
	c0-0.76-0.616-1.375-1.375-1.375H19.23c-0.759,0-1.376,0.615-1.376,1.375V51.011z M20.606,46.356h3.035v3.28h-3.035V46.356z"/>
<path class="st6" d="M42.167,51.011v-15.97c0-0.759-0.616-1.375-1.376-1.375H29.487c-0.76,0-1.375,0.616-1.375,1.375v15.97
	c0,0.76,0.615,1.375,1.375,1.375h11.304C41.551,52.387,42.167,51.771,42.167,51.011L42.167,51.011z M39.416,49.636h-8.553v-13.22
	h8.553V49.636z"/>
<path class="st6" d="M34.738,54.276c-0.704,0.285-1.044,1.087-0.758,1.791l0.008,0.021c0.217,0.535,0.732,0.86,1.275,0.86
	c0.172,0,0.347-0.032,0.516-0.1c0.704-0.285,1.044-1.087,0.758-1.792l-0.008-0.021C36.244,54.33,35.442,53.991,34.738,54.276
	L34.738,54.276z"/>
<path class="st6" d="M9.485,12.425c0.216,0.535,0.731,0.86,1.275,0.86c0.172,0,0.347-0.032,0.516-0.101
	c0.705-0.285,1.044-1.086,0.758-1.791l-0.008-0.021c-0.285-0.705-1.087-1.044-1.791-0.758c-0.705,0.285-1.044,1.088-0.758,1.791
	L9.485,12.425z"/>
</svg>
