<?xml version="1.0" encoding="utf-8"?>
<!-- Generator: Adobe Illustrator 23.0.1, SVG Export Plug-In . SVG Version: 6.00 Build 0)  -->
<svg version="1.1" id="Layer_1" xmlns="http://www.w3.org/2000/svg" xmlns:xlink="http://www.w3.org/1999/xlink" x="0px" y="0px"
	 viewBox="0 0 70 70" style="enable-background:new 0 0 70 70;" xml:space="preserve">
<style type="text/css">
	.st0{display:none;}
	.st1{display:inline;}
	.st2{fill:#273E93;}
	.st3{fill:#A4CD39;}
	.st4{fill:#E80E8A;}
	.st5{fill:#293C94;}
	.st6{fill:#EA088B;}
	.st7{fill:none;stroke:#A4CD39;stroke-width:5;stroke-linecap:round;stroke-miterlimit:10;}
	.st8{fill:#00B7F1;}
</style>
<g class="st0">
	<g class="st1">
		<path class="st2" d="M55.14,71.543c0,3.431,0,6.578,0,9.835c2.179,0,4.226,0,6.444,0c0.036-0.684,0.071-1.322,0.103-1.96
			c0.111-2.198,1.344-3.789,3.331-4.206c1.751-0.367,2.999-1.129,4.308-2.248c2.498-2.134,6.249-1.727,8.69,0.569
			c0.683,0.642,1.624,1.177,2.532,1.381c2.608,0.586,4.384,2.606,4.274,5.147c-0.108,2.496-2.104,4.514-4.716,4.739
			c-0.589,0.051-1.185,0.019-1.777,0.019c-21.037,0.001-42.075,0.001-63.112,0c-3.311,0-3.366-0.05-3.366-3.366
			c-0.002-25.482-0.003-50.964,0.001-76.446c0-3.074,0.203-3.274,3.294-3.275c15.482-0.004,30.964-0.004,46.445,0
			c3.069,0.001,3.272,0.209,3.273,3.292c0.003,21.112,0.003,42.223,0,63.335c0,3.149-0.036,3.177-3.292,3.183
			C59.507,71.546,57.442,71.543,55.14,71.543z M55.09,68.175c2.273,0,4.294,0,6.42,0c0-3.336,0-6.528,0-9.797c-2.222,0-4.3,0-6.42,0
			C55.09,61.703,55.09,64.853,55.09,68.175z M35.155,68.151c2.219,0,4.309,0,6.373,0c0-3.38,0-6.589,0-9.819
			c-2.21,0-4.246,0-6.373,0C35.155,61.671,35.155,64.881,35.155,68.151z M15.202,58.287c0,3.388,0,6.586,0,9.862
			c2.222,0,4.304,0,6.354,0c0-3.376,0-6.58,0-9.862C19.42,58.287,17.445,58.287,15.202,58.287z M51.373,68.203
			c0-3.371,0-6.624,0-9.884c-2.172,0-4.14,0-6.207,0c0,3.37,0,6.622,0,9.884C47.356,68.203,49.326,68.203,51.373,68.203z
			 M25.276,58.311c0,3.381,0,6.58,0,9.864c2.168,0,4.184,0,6.302,0c0-3.35,0-6.554,0-9.864
			C29.46,58.311,27.495,58.311,25.276,58.311z M41.54,81.377c0-3.418,0-6.54,0-9.651c-2.247,0-4.33,0-6.367,0
			c0,3.323,0,6.461,0,9.651C37.354,81.377,39.392,81.377,41.54,81.377z M21.588,71.731c-2.217,0-4.302,0-6.333,0
			c0,3.319,0,6.448,0,9.603c2.218,0,4.245,0,6.333,0C21.588,78.04,21.588,74.904,21.588,71.731z M61.648,54.856
			c0-2.966,0.059-5.688-0.055-8.402c-0.02-0.485-0.724-1.303-1.169-1.344c-1.727-0.158-3.477-0.064-5.294-0.064
			c0,3.424,0,6.556,0,9.811C57.278,54.856,59.304,54.856,61.648,54.856z M41.619,45.22c-2.29,0-4.368,0-6.447,0
			c0,3.315,0,6.441,0,9.586c2.229,0,4.313,0,6.447,0C41.619,51.56,41.619,48.488,41.619,45.22z M21.588,54.903
			c0-3.368,0-6.51,0-9.656c-2.213,0-4.291,0-6.332,0c0,3.345,0,6.471,0,9.656C17.423,54.903,19.4,54.903,21.588,54.903z
			 M55.081,41.519c2.138,0,4.272,0,6.43,0c0-3.281,0-6.415,0-9.632c-2.216,0-4.288,0-6.43,0
			C55.081,35.165,55.081,38.25,55.081,41.519z M15.243,5.241c0,3.248,0,6.438,0,9.65c2.198,0,4.286,0,6.307,0
			c0-3.323,0-6.463,0-9.65C19.396,5.241,17.408,5.241,15.243,5.241z M25.303,5.276c0,3.384,0,6.522,0,9.62c2.205,0,4.228,0,6.242,0
			c0-3.312,0-6.445,0-9.62C29.381,5.276,27.404,5.276,25.303,5.276z M35.101,14.91c2.28,0,4.365,0,6.463,0c0-3.29,0-6.419,0-9.571
			c-2.224,0-4.309,0-6.463,0C35.101,8.573,35.101,11.648,35.101,14.91z M51.437,14.991c0-3.36,0-6.487,0-9.696
			c-2.167,0-4.193,0-6.292,0c0,3.293,0,6.467,0,9.696C47.313,14.991,49.283,14.991,51.437,14.991z M55.131,5.249
			c0,3.339,0,6.474,0,9.639c2.208,0,4.289,0,6.345,0c0-3.316,0-6.447,0-9.639C59.319,5.249,57.336,5.249,55.131,5.249z
			 M21.568,28.251c0-3.319,0-6.452,0-9.612c-2.185,0-4.22,0-6.377,0c0,3.246,0,6.373,0,9.612
			C17.343,28.251,19.379,28.251,21.568,28.251z M31.587,28.269c0-3.295,0-6.436,0-9.614c-2.182,0-4.217,0-6.317,0
			c0,3.266,0,6.394,0,9.614C27.39,28.269,29.365,28.269,31.587,28.269z M41.597,18.652c-2.297,0-4.34,0-6.433,0
			c0,3.271,0,6.408,0,9.544c2.233,0,4.328,0,6.433,0C41.597,24.945,41.597,21.863,41.597,18.652z M45.087,28.253
			c2.175,0,4.212,0,6.362,0c0-3.244,0-6.378,0-9.619c-2.162,0-4.196,0-6.362,0C45.087,21.888,45.087,25.026,45.087,28.253z
			 M61.556,18.643c-2.272,0-4.304,0-6.433,0c0,3.25,0,6.376,0,9.559c2.199,0,4.28,0,6.433,0
			C61.556,24.975,61.556,21.908,61.556,18.643z M15.147,41.532c2.297,0,4.388,0,6.442,0c0-3.321,0-6.471,0-9.627
			c-2.212,0-4.289,0-6.442,0C15.147,35.199,15.147,38.279,15.147,41.532z M31.601,31.841c-2.154,0-4.178,0-6.32,0
			c0,3.307,0,6.5,0,9.725c2.187,0,4.213,0,6.32,0C31.601,38.283,31.601,35.136,31.601,31.841z M41.615,31.812
			c-2.258,0-4.302,0-6.441,0c0,3.328,0,6.536,0,9.712c2.246,0,4.341,0,6.441,0C41.615,38.251,41.615,35.158,41.615,31.812z
			 M51.5,31.705c-1.898,0-3.592-0.079-5.27,0.053c-0.449,0.035-1.197,0.703-1.212,1.102c-0.105,2.866-0.056,5.737-0.056,8.677
			c2.324,0,4.414,0,6.538,0C51.5,38.276,51.5,35.181,51.5,31.705z M51.476,45.04c-1.858,0-3.487-0.077-5.1,0.046
			c-0.491,0.038-1.332,0.613-1.345,0.967c-0.109,2.927-0.062,5.86-0.062,8.751c2.401,0,4.434,0,6.507,0
			C51.476,51.541,51.476,48.453,51.476,45.04z M25.226,54.817c2.244,0,4.259,0,6.493,0c0-2.951,0.049-5.748-0.053-8.539
			c-0.015-0.424-0.708-1.143-1.129-1.176c-1.731-0.134-3.479-0.056-5.312-0.056C25.226,48.458,25.226,51.539,25.226,54.817z
			 M25.325,71.671c0,3.317,0,6.503,0,9.685c2.176,0,4.149,0,6.191,0c0-3.322,0-6.506,0-9.685
			C29.33,71.671,27.362,71.671,25.325,71.671z M51.47,71.696c-2.219,0-4.242,0-6.511,0c0,2.942-0.05,5.74,0.052,8.532
			c0.016,0.429,0.703,1.158,1.123,1.19c1.737,0.136,3.491,0.057,5.335,0.057C51.47,78.087,51.47,74.999,51.47,71.696z
			 M73.086,81.479c0-0.003,0-0.006,0-0.008c2.143,0,4.286,0.031,6.427-0.012c1.184-0.024,2.075-0.538,1.836-1.9
			c-0.231-1.317-1.056-1.425-2.316-1.202c-0.783,0.139-2.195-0.28-2.472-0.858c-0.706-1.471-1.515-2.607-3.204-2.584
			c-1.594,0.022-2.628,0.909-3.391,2.409c-0.327,0.644-1.71,1.276-2.404,1.098c-1.361-0.349-2.301-0.21-2.546,1.15
			c-0.263,1.457,0.846,1.886,2.084,1.901C69.096,81.498,71.091,81.479,73.086,81.479z"/>
		<path class="st3" d="M68.329-1.489c-1.281,0-2.236,0-3.191,0c-12.226,0-24.453,0-36.679-0.001c-0.593,0-1.301,0.184-1.749-0.075
			c-0.607-0.35-1.385-1.038-1.398-1.596c-0.012-0.513,0.809-1.222,1.421-1.518c0.546-0.263,1.308-0.09,1.974-0.09
			c7.854-0.003,15.709-0.002,23.563-0.002c0.801,0,1.601,0,2.559,0c0-1.157,0-2.081,0-3.341c-3.19,0-6.419,0.002-9.649-0.001
			c-3.171-0.003-3.206-0.034-3.684-3.182c-2.018,0-4.061,0-6.11,0c-0.926,3.183-0.926,3.183-4.501,3.183c-2.95,0-5.9,0-9.135,0
			c0,1.484-0.046,2.795,0.011,4.102c0.079,1.786-0.702,2.573-2.505,2.535c-2.815-0.058-5.631-0.021-8.447-0.01
			c-0.721,0.003-1.441,0.063-2.398,0.107c0,1.007,0,1.876,0,2.744c0,26.675,0.001,53.351-0.001,80.026
			c0,3.363-0.062,3.425-3.329,3.427c-5.706,0.002-11.411-0.01-17.117,0.009c-1.258,0.004-2.592-0.05-2.649-1.625
			c-0.06-1.656,1.358-1.676,2.568-1.702c1.252-0.027,2.505-0.006,3.891-0.006c0-2.294,0-4.418,0-6.732
			c-5.507-1.667-7.184-5.852-6.435-11.178c0.625-4.442,1.601-8.839,2.556-13.226c0.226-1.038,0.889-2.031,1.523-2.922
			c2.296-3.228,6.357-3.387,8.177,0.089c1.677,3.204,2.705,6.833,3.489,10.391c0.629,2.855,0.568,5.883,0.628,8.837
			c0.066,3.269-1.53,5.785-4.451,7.075c-1.798,0.794-2.201,1.836-2.043,3.552c0.113,1.237,0.022,2.492,0.022,3.924
			c3.333,0,6.471,0,9.947,0c0-0.964,0-1.897,0-2.83c0-26.601-0.001-53.203,0.001-79.804c0-3.4,0.04-3.436,3.517-3.441
			c3.173-0.004,6.347-0.001,9.822-0.001c0-1.546,0.08-2.861-0.019-4.162c-0.14-1.84,0.668-2.547,2.454-2.52
			c3.468,0.051,6.938,0.015,10.677,0.015c-0.365-3.259,1.555-3.496,3.897-3.354c1.92,0.116,3.86,0.133,5.776-0.004
			c2.341-0.168,4.095,0.204,3.748,3.356c3.414,0,6.584-0.005,9.755,0.001c3.29,0.007,3.391,0.112,3.398,3.336
			c0.002,1.017,0,2.034,0,3.333c3.654,0,7.042-0.014,10.429,0.005c2.646,0.015,2.905,0.274,2.906,2.967
			c0.006,22.6,0.005,45.2-0.005,67.8c0,0.659,0.067,1.427-0.238,1.945c-0.272,0.462-1.037,0.918-1.544,0.876
			c-0.488-0.04-1.146-0.639-1.328-1.139c-0.24-0.659-0.104-1.46-0.104-2.201c-0.003-21.34-0.002-42.681-0.002-64.021
			C68.329,0.586,68.329-0.289,68.329-1.489z M-1.255,65.314c0.117-0.061,0.234-0.122,0.35-0.184
			c-1.081-4.803-2.068-9.631-3.323-14.388c-0.245-0.928-1.528-1.582-2.333-2.363c-0.732,0.775-1.762,1.425-2.147,2.346
			c-2.202,5.272-2.863,10.84-2.58,16.502c0.11,2.203,1.898,3.893,3.934,4.236c2.118,0.357,4.321-0.625,5.193-2.566
			C-1.662,67.791-1.544,66.514-1.255,65.314z"/>
		<path class="st4" d="M1.413,81.393c0,3.363-0.062,3.425-3.329,3.427c-5.706,0.002-4.411-0.01-10.117,0.009
			c-1.258,0.004-2.592-0.05-2.649-1.625c-0.06-1.656,1.358-1.676,2.568-1.702c1.252-0.027,2.505-0.006,3.891-0.006
			c0-2.294,0-4.418,0-6.732c-5.507-1.667-7.184-5.852-6.435-11.178c0.625-4.442,1.601-8.839,2.556-13.226
			c0.226-1.038,0.889-2.031,1.523-2.922c2.296-3.228,6.357-3.387,8.177,0.089c1.677,3.204,2.705,6.833,3.489,10.391
			c0.629,2.855,0.568,5.883,0.628,8.837c0.066,3.269-1.53,5.785-4.451,7.075c-1.798,0.794-2.201,1.836-2.043,3.552
			c0.113,1.237,0.022,2.492,0.022,3.924c3.333,0-0.529,0,2.947,0L1.413,81.393z M-1.255,65.314c0.117-0.061,0.234-0.122,0.35-0.184
			c-1.081-4.803-2.068-9.631-3.323-14.388c-0.245-0.928-1.528-1.582-2.333-2.363c-0.732,0.775-1.762,1.425-2.147,2.346
			c-2.202,5.272-2.863,10.84-2.58,16.502c0.11,2.203,1.898,3.893,3.934,4.236c2.118,0.357,4.321-0.625,5.193-2.566
			C-1.662,67.791-1.544,66.514-1.255,65.314z"/>
	</g>
</g>
<g id="Layer_3" class="st0">
	<g class="st1">
		<path class="st3" d="M71.803,41.506c0,11.812,0.006,23.625-0.003,35.437c-0.004,5.575-2.427,8.022-7.914,8.023
			c-19.106,0.003-38.212,0.003-57.318,0c-5.308-0.001-7.798-2.331-7.807-7.603c-0.041-22.039-0.016-44.079-0.02-66.118
			c0-1.5,0.116-3.204,1.995-3.166c1.985,0.041,2.047,1.808,2.046,3.392C2.773,33.114,2.776,54.757,2.777,76.4
			c0,4.276,0.257,4.528,4.631,4.528c18.71,0.001,37.419,0.002,56.129-0.001c3.706-0.001,4.285-0.565,4.286-4.257
			c0.006-23.546-0.012-47.091,0.031-70.637c0.004-1.97-0.592-3.445-2.027-4.814c-3.5-3.336-6.914-6.764-10.274-10.241
			c-1.419-1.469-2.943-2.114-5.025-2.103c-14.429,0.074-28.858,0.038-43.287,0.039c-3.877,0-4.301,0.415-4.471,4.293
			C2.749-6.322,2.831-5.71,2.575-5.416c-0.519,0.597-1.24,1.409-1.873,1.405c-0.605-0.004-1.55-0.824-1.75-1.47
			c-1.567-5.056,1.791-9.456,7.143-9.46c15.142-0.012,30.284,0.018,45.427-0.026c2.372-0.007,4.282,0.732,5.94,2.423
			c3.663,3.736,7.308,7.496,11.125,11.072c2.319,2.173,3.28,4.628,3.255,7.78C71.747,18.039,71.803,29.773,71.803,41.506z"/>
		<path class="st5" d="M35.664,30.721c-7.132,0-14.265,0.008-21.397-0.004c-2.814-0.005-3.315-0.516-3.332-3.307
			c-0.012-1.902-0.006-3.804-0.002-5.706c0.007-3.172,0.383-3.578,3.529-3.582c11.65-0.012,23.299-0.006,34.949-0.005
			c2.774,0,5.547,0.023,8.321,0.001c1.858-0.015,2.769,0.767,2.702,2.72c-0.082,2.375-0.071,4.756-0.004,7.131
			c0.059,2.063-0.906,2.788-2.894,2.773C50.246,30.688,42.955,30.721,35.664,30.721z M56.444,22.308c-13.944,0-27.731,0-41.468,0
			c0,1.591,0,2.971,0,4.383c13.907,0,27.634,0,41.468,0C56.444,25.194,56.444,23.868,56.444,22.308z"/>
		<path class="st5" d="M14.879,71.096c13.927,0,27.672,0,41.505,0c0.065-0.418,0.146-0.716,0.154-1.015
			c0.095-3.423,0.092-3.422-3.43-3.425c-2.933-0.002-5.866,0.022-8.798-0.022c-1.35-0.02-2.645-0.333-2.568-2.075
			c0.074-1.666,1.251-1.964,2.678-1.953c4.359,0.033,8.72,0.048,13.079-0.004c2.132-0.025,3.018,0.919,2.936,3.032
			c-0.086,2.216-0.1,4.442,0.004,6.657c0.104,2.214-0.981,2.991-3.018,2.935c-1.426-0.039-2.853-0.005-4.28-0.005
			c-12.762,0-25.524,0.003-38.286-0.002c-3.697-0.002-3.919-0.229-3.921-3.858c-0.001-2.14-0.004-4.28,0.007-6.421
			c0.008-1.548,0.781-2.327,2.35-2.324c4.756,0.008,9.512-0.003,14.268,0.006c1.448,0.003,2.527,0.529,2.478,2.183
			c-0.048,1.631-1.282,1.825-2.532,1.836c-3.25,0.027-6.51,0.168-9.747-0.036c-2.404-0.152-3.42,0.574-2.966,3.015
			C14.863,70.003,14.841,70.404,14.879,71.096z"/>
		<path class="st6" d="M45.694,46.793c0,3.485-0.057,6.971,0.022,10.454c0.045,1.994-0.744,2.945-2.77,2.933
			c-4.831-0.029-9.662-0.004-14.494-0.013c-1.935-0.004-2.838-0.897-2.82-2.929C25.694,50.19,25.7,43.14,25.63,36.092
			c-0.022-2.186,0.948-2.964,3.013-2.942c4.593,0.05,9.187-0.005,13.781,0.023c2.734,0.017,3.259,0.586,3.268,3.403
			C45.704,39.982,45.695,43.388,45.694,46.793z M41.702,56.084c0-6.384,0-12.516,0-18.707c-4.107,0-8.072,0-12.016,0
			c0,6.354,0,12.482,0,18.707C33.726,56.084,37.588,56.084,41.702,56.084z"/>
		<path class="st6" d="M60.416,39.701c0.009,6.3,0.681,6.252-6.131,6.205c-6.142-0.042-6.098-0.009-6.154-6.254
			c-0.064-7.071,0.034-6.442,6.43-6.51C61.603,33.068,60.338,33.8,60.416,39.701z M56.234,37.325c-1.249,0-2.525,0-3.815,0
			c0,1.594,0,3.018,0,4.423C56.924,42.169,57.152,41.898,56.234,37.325z"/>
		<path class="st6" d="M10.933,39.349c-0.02-6.353-0.601-6.233,6.151-6.192c6.125,0.038,6.091,0.008,6.134,6.124
			c0.05,7.093,0.18,6.611-6.533,6.633C9.95,45.935,10.998,45.836,10.933,39.349z M19.012,37.165c-1.105,0-1.963-0.02-2.82,0.009
			c-0.376,0.013-0.748,0.128-1.085,0.19c-0.899,4.484-0.366,5.067,3.905,4.219C19.012,40.239,19.012,38.867,19.012,37.165z"/>
		<path class="st6" d="M10.933,53.705c-0.018-6.535-0.606-6.306,6.343-6.271c5.933,0.03,5.902,0.006,5.941,5.873
			c0.05,7.522,0.201,6.808-6.8,6.888C9.63,60.273,11.029,59.261,10.933,53.705z M19.053,51.647c-1.518,0-2.793,0-4.078,0
			c0,1.585,0,2.947,0,4.326c1.457,0,2.733,0,4.078,0C19.053,54.452,19.053,53.141,19.053,51.647z"/>
		<path class="st6" d="M60.416,53.819c-0.003,6.523,0.721,6.405-6.251,6.361c-6.022-0.038-5.984-0.008-6.032-6.02
			c-0.059-7.403-0.078-6.657,6.71-6.743C61.672,47.331,60.33,48.312,60.416,53.819z M52.351,55.896
			c4.358,0.757,4.866,0.182,3.865-4.278c-1.26,0-2.536,0-3.865,0C52.351,53.18,52.351,54.552,52.351,55.896z"/>
		<line class="st7" x1="0.659" y1="-7.826" x2="0.659" y2="-0.728"/>
	</g>
</g>
<g>
	<path class="st8" d="M8.557,18.139h2.136c0.61,0,1.105-0.494,1.105-1.105c0-0.61-0.494-1.105-1.105-1.105H8.557
		c-0.61,0-1.105,0.494-1.105,1.105S7.947,18.139,8.557,18.139z"/>
	<path class="st8" d="M8.549,34.327v10.127c0,13.452,10.451,24.507,23.659,25.475c0.532,0.045,1.07,0.07,1.614,0.07
		c0.045,0,0.091-0.001,0.136-0.002c0.045,0,0.091,0.002,0.136,0.002c14.086,0,25.545-11.459,25.545-25.545v-19.1l-2.21,0.003v19.098
		c0,7.268-3.341,13.77-8.566,18.053c2.398-3.164,3.823-7.105,3.823-11.372c0-10.402-8.462-18.864-18.864-18.864
		s-18.864,8.462-18.864,18.864c0,3.712,1.078,7.177,2.937,10.099c-4.397-4.246-7.136-10.198-7.136-16.779V34.327H8.549
		 M17.167,51.135c0-9.183,7.471-16.654,16.654-16.654s16.654,7.471,16.654,16.654c0,9.138-7.397,16.579-16.518,16.652
		c-0.531-0.003-1.058-0.023-1.58-0.062C23.868,66.992,17.167,59.832,17.167,51.135z"/>
	<path class="st8" d="M61.748,10.752h-6.526c-0.46,0-0.832-0.373-0.832-0.832s0.373-0.832,0.832-0.832h6.526
		c0.46,0,0.832,0.373,0.832,0.832S62.208,10.752,61.748,10.752z"/>
	<path class="st8" d="M61.748,13.624h-6.526c-0.46,0-0.832-0.373-0.832-0.832s0.373-0.832,0.832-0.832h6.526
		c0.46,0,0.832,0.373,0.832,0.832C62.58,13.251,62.208,13.624,61.748,13.624z"/>
	<path class="st8" d="M61.748,16.496h-6.526c-0.46,0-0.832-0.373-0.832-0.832c0-0.46,0.373-0.832,0.832-0.832h6.526
		c0.46,0,0.832,0.373,0.832,0.832C62.58,16.123,62.208,16.496,61.748,16.496z"/>
	<path class="st8" d="M7.386,34.327c-0.61,0-1.105-0.494-1.105-1.105v-2.695H5.805c-1.171,0-2.123-0.952-2.123-2.123v-8.196
		c0-0.46,0.281-0.854,0.681-1.02v-4.491c0-1.036,0.843-1.879,1.879-1.879h6.768c1.036,0,1.879,0.843,1.879,1.879v4.491
		c0.4,0.166,0.681,0.56,0.681,1.02v8.196c0,1.171-0.952,2.123-2.123,2.123H12.97v2.695c0,0.61-0.494,1.105-1.105,1.105H7.386
		L7.386,34.327z M6.572,15.027v4.075h6.106v-4.075C12.678,15.027,6.572,15.027,6.572,15.027z M5.892,28.317h1.495h4.478h1.495
		v-7.005H5.892V28.317z M8.491,32.118h2.268v-1.591H8.491V32.118z"/>
	<path class="st8" d="M59.614,25.339c1.493-0.102,2.676-1.346,2.676-2.863v-2.039h2.922c0.61,0,1.105-0.494,1.105-1.105V14.47
		c0-0.61-0.494-1.105-1.105-1.105s-1.105,0.494-1.105,1.105v3.758h-2.922h-5.402h-2.922V7.472h11.246v3.707
		c0,0.61,0.495,1.105,1.105,1.105s1.105-0.494,1.105-1.105V6.367c0-0.61-0.494-1.105-1.105-1.105h-1.94V1.105
		c0-0.61-0.494-1.105-1.105-1.105c-0.61,0-1.105,0.494-1.105,1.105v4.157h-5.157V1.105C55.906,0.495,55.411,0,54.8,0
		s-1.105,0.494-1.105,1.105v4.157h-1.94c-0.61,0-1.105,0.494-1.105,1.105v12.965c0,0.61,0.494,1.105,1.105,1.105h2.922v2.039
		c0,1.534,1.211,2.788,2.726,2.866L59.614,25.339z M60.081,20.438v2.039c0,0.366-0.298,0.663-0.663,0.663h-1.866
		c-0.366,0-0.663-0.298-0.663-0.663v-2.039C56.888,20.438,60.081,20.438,60.081,20.438z"/>
</g>
</svg>
