<?xml version="1.0" encoding="utf-8"?>
<!-- Generator: Adobe Illustrator 23.0.1, SVG Export Plug-In . SVG Version: 6.00 Build 0)  -->
<svg version="1.1" id="Layer_1" xmlns="http://www.w3.org/2000/svg" xmlns:xlink="http://www.w3.org/1999/xlink" x="0px" y="0px"
	 viewBox="0 0 70 70" style="enable-background:new 0 0 70 70;" xml:space="preserve">
<style type="text/css">
	.st0{display:none;}
	.st1{display:inline;}
	.st2{fill:#254092;}
	.st3{fill:#A4CD39;}
	.st4{fill:#E80E8A;}
	.st5{fill:#293C94;}
	.st6{fill:#EA088B;}
	.st7{fill:none;stroke:#A4CD39;stroke-width:5;stroke-linecap:round;stroke-miterlimit:10;}
	.st8{fill:#283896;}
</style>
<g class="st0">
	<g class="st1">
		<path class="st2" d="M76.242,0.945c0.003-1.498-0.072-3.06-0.072-4.735c-5.339,0-10.518,0-15.811,0c0,4.924,0,9.757,0,14.77
			c5.189,0,10.363,0,15.808,0c0-1.524,0.005-3.06,0.074-4.558l2.967,0.046c0.004,1.821-0.011,3.681,0.093,5.517
			c0.106,1.87-0.777,2.613-2.501,2.42c-2.282-0.255-3.592,0.196-3.304,2.984c0.236,2.279-1.602,3.277-3.595,4.084
			c0,8.864,0.081,17.771-0.021,26.676c-0.119,10.433-3.876,19.375-11.527,26.544C42.415,89.626,17.318,87.195,4.436,69.502
			c-4.753-6.528-6.877-13.905-6.935-21.92c-0.032-4.412-0.006-8.825-0.006-13.201c-2.953-0.738-2.953-0.738-3.236-5.483
			c-3.207-0.385-3.72-2.585-3.533-5.393c0.156-2.347-0.085-4.72,0.059-7.069c0.217-3.534,0.461-7.083,1.046-10.567
			c0.146-0.872,1.585-2.085,2.514-2.165c3.145-0.271,6.327-0.13,9.495-0.093c1.69,0.02,2.581,1.095,2.719,2.641
			c0.399,4.485,0.708,8.978,1.004,13.471c0.087,1.32,0.014,2.651,0.013,3.978c-0.002,3.758-0.194,4.041-3.6,5.31
			c-0.449,4.723-0.449,4.723-3.346,5.295c0.256,9.889-1.371,20.044,3.876,29.3c1.428,2.519,3.158,4.868,5.052,7.16
			c-3.246-7.268-4.021-14.59-1.296-22.102c1.885-5.194,5.079-9.472,9.611-12.623c9.785-6.803,22.432-6.569,31.711,0.571
			c5.541,4.263,8.979,9.917,10.059,16.82c1.052,6.724-0.199,13.107-3.773,19.011c5.99-5.312,9.49-11.891,10.533-19.749
			c0.222-1.674,0.35-3.374,0.357-5.062c0.035-8.69,0.016-17.379,0.016-26.024c-3.328-1.364-3.356-1.413-4.135-7.207
			c-1.18,0-2.473,0.236-3.609-0.084c-0.747-0.211-1.79-1.212-1.807-1.88c-0.142-5.817-0.083-11.638-0.08-17.459
			c0.001-1.324,0.586-2.087,1.999-2.05c0.659,0.017,1.318,0.003,2.376,0.003c0-1.837-0.14-3.58,0.064-5.282
			c0.091-0.758,0.874-1.433,1.344-2.145c0.565,0.705,1.5,1.353,1.619,2.126c0.251,1.641,0.077,3.348,0.077,5.185
			c2.552,0,4.736,0,7.235,0c0-1.77-0.171-3.464,0.073-5.096c0.12-0.799,1.013-1.482,1.557-2.217
			c0.508,0.752,1.337,1.456,1.457,2.266c0.233,1.575,0.068,3.209,0.068,4.669c0.317,0.237,0.423,0.384,0.542,0.395
			c3.723,0.348,3.724,0.346,3.723,4.167c0,1.326-0.048,2.689-0.076,3.966 M56.818,57.891c0.159-12.81-10.333-23.519-23.242-23.723
			C20.96,33.969,9.96,44.481,9.805,56.885C9.639,70.3,19.799,81.197,32.672,81.407C45.847,81.622,56.655,71.096,56.818,57.891z
			 M4.326,15.757c-3.546,0-6.939,0-10.301,0c0,3.301,0,6.427,0,9.561c3.493,0,6.835,0,10.301,0
			C4.326,22.108,4.326,19.051,4.326,15.757z M3.353,6.847c-2.974,0-5.727,0-8.461,0c0,1.907,0,3.644,0,5.464
			c2.856,0,5.602,0,8.461,0C3.353,10.448,3.353,8.714,3.353,6.847z M70.665,14.615c-1.88,0-3.225,0-4.996,0
			c0.371,1.321,0.356,2.778,1.05,3.311c0.689,0.529,2.441,0.551,3.086,0.019C70.475,17.393,70.378,15.91,70.665,14.615z
			 M-2.878,28.826c0.437,0.916,0.575,1.788,1.022,1.997c0.583,0.272,1.549,0.241,2.087-0.089C0.6,30.507,0.52,29.55,0.659,28.827
			C-0.538,28.826-1.396,28.826-2.878,28.826z"/>
		<path class="st3" d="M69.94,21.473c0,8.864,0.081,17.771-0.021,26.676C69.8,58.582,66.044,67.525,58.392,74.694
			C42.454,89.627,17.357,87.196,4.475,69.503c-4.753-6.528-6.877-13.905-6.935-21.92c-0.032-4.412-0.006-8.825-0.006-13.201
			l3.134-0.077c0.256,9.889-1.371,20.044,3.876,29.3c1.428,2.519,3.158,4.868,5.052,7.16C6.35,63.497,5.575,56.175,8.3,48.663
			c1.885-5.194,5.079-9.472,9.611-12.623c9.785-6.803,22.432-6.569,31.711,0.571c5.541,4.263,8.979,9.917,10.059,16.82
			c1.052,6.724-0.199,13.107-3.773,19.011c5.99-5.312,9.49-11.891,10.533-19.749c0.222-1.674,0.35-3.374,0.357-5.062
			c0.035-8.69,0.016-17.379,0.016-26.024 M56.859,57.891c0.159-12.81-10.333-23.519-23.242-23.723
			C21.001,33.969,10.001,44.481,9.846,56.885C9.679,70.3,19.84,81.197,32.712,81.407C45.887,81.622,56.695,71.096,56.859,57.891z"/>
		<path class="st4" d="M1.585,10.571h-4.808c-0.65,0-1.177-0.527-1.177-1.177s0.527-1.177,1.177-1.177h4.808
			c0.65,0,1.177,0.527,1.177,1.177S2.235,10.571,1.585,10.571z"/>
		<path class="st4" d="M72.819,0.707H63.59c-0.651,0-1.177-0.527-1.177-1.177s0.527-1.177,1.177-1.177h9.229
			c0.651,0,1.177,0.527,1.177,1.177S73.47,0.707,72.819,0.707z"/>
		<path class="st4" d="M72.819,4.769H63.59c-0.651,0-1.177-0.527-1.177-1.177s0.527-1.177,1.177-1.177h9.229
			c0.651,0,1.177,0.527,1.177,1.177C73.997,4.242,73.47,4.769,72.819,4.769z"/>
		<path class="st4" d="M72.819,8.831H63.59c-0.651,0-1.177-0.527-1.177-1.177s0.527-1.177,1.177-1.177h9.229
			c0.651,0,1.177,0.527,1.177,1.177C73.997,8.303,73.47,8.831,72.819,8.831z"/>
		<circle class="st2" cx="77.716" cy="1.01" r="1.48"/>
		<circle class="st2" cx="77.716" cy="6.463" r="1.48"/>
	</g>
</g>
<g id="Layer_3" class="st0">
	<g class="st1">
		<path class="st3" d="M71.803,41.506c0,11.812,0.006,23.625-0.003,35.437c-0.004,5.575-2.427,8.022-7.914,8.023
			c-19.106,0.003-38.212,0.003-57.318,0c-5.308-0.001-7.798-2.331-7.807-7.603c-0.041-22.039-0.016-44.079-0.02-66.118
			c0-1.5,0.116-3.204,1.995-3.166c1.985,0.041,2.047,1.808,2.046,3.392C2.773,33.114,2.776,54.757,2.777,76.4
			c0,4.276,0.257,4.528,4.631,4.528c18.71,0.001,37.419,0.002,56.129-0.001c3.706-0.001,4.285-0.565,4.286-4.257
			c0.006-23.546-0.012-47.091,0.031-70.637c0.004-1.97-0.592-3.445-2.027-4.814c-3.5-3.336-6.914-6.764-10.274-10.241
			c-1.419-1.469-2.943-2.114-5.025-2.103c-14.429,0.074-28.858,0.038-43.287,0.039c-3.877,0-4.301,0.415-4.471,4.293
			C2.749-6.322,2.831-5.71,2.575-5.416c-0.519,0.597-1.24,1.409-1.873,1.405c-0.605-0.004-1.55-0.824-1.75-1.47
			c-1.567-5.056,1.791-9.456,7.143-9.46c15.142-0.012,30.284,0.018,45.427-0.026c2.372-0.007,4.282,0.732,5.94,2.423
			c3.663,3.736,7.308,7.496,11.125,11.072c2.319,2.173,3.28,4.628,3.255,7.78C71.747,18.039,71.803,29.773,71.803,41.506z"/>
		<path class="st5" d="M35.664,30.721c-7.132,0-14.265,0.008-21.397-0.004c-2.814-0.005-3.315-0.516-3.332-3.307
			c-0.012-1.902-0.006-3.804-0.002-5.706c0.007-3.172,0.383-3.578,3.529-3.582c11.65-0.012,23.299-0.006,34.949-0.005
			c2.774,0,5.547,0.023,8.321,0.001c1.858-0.015,2.769,0.767,2.702,2.72c-0.082,2.375-0.071,4.756-0.004,7.131
			c0.059,2.063-0.906,2.788-2.894,2.773C50.246,30.688,42.955,30.721,35.664,30.721z M56.444,22.308c-13.944,0-27.731,0-41.468,0
			c0,1.591,0,2.971,0,4.383c13.907,0,27.634,0,41.468,0C56.444,25.194,56.444,23.868,56.444,22.308z"/>
		<path class="st5" d="M14.879,71.096c13.927,0,27.672,0,41.505,0c0.065-0.418,0.146-0.716,0.154-1.015
			c0.095-3.423,0.092-3.422-3.43-3.425c-2.933-0.002-5.866,0.022-8.798-0.022c-1.35-0.02-2.645-0.333-2.568-2.075
			c0.074-1.666,1.251-1.964,2.678-1.953c4.359,0.033,8.72,0.048,13.079-0.004c2.132-0.025,3.018,0.919,2.936,3.032
			c-0.086,2.216-0.1,4.442,0.004,6.657c0.104,2.214-0.981,2.991-3.018,2.935c-1.426-0.039-2.853-0.005-4.28-0.005
			c-12.762,0-25.524,0.003-38.286-0.002c-3.697-0.002-3.919-0.229-3.921-3.858c-0.001-2.14-0.004-4.28,0.007-6.421
			c0.008-1.548,0.781-2.327,2.35-2.324c4.756,0.008,9.512-0.003,14.268,0.006c1.448,0.003,2.527,0.529,2.478,2.183
			c-0.048,1.631-1.282,1.825-2.532,1.836c-3.25,0.027-6.51,0.168-9.747-0.036c-2.404-0.152-3.42,0.574-2.966,3.015
			C14.863,70.003,14.841,70.404,14.879,71.096z"/>
		<path class="st6" d="M45.694,46.793c0,3.485-0.057,6.971,0.022,10.454c0.045,1.994-0.744,2.945-2.77,2.933
			c-4.831-0.029-9.662-0.004-14.494-0.013c-1.935-0.004-2.838-0.897-2.82-2.929C25.694,50.19,25.7,43.14,25.63,36.092
			c-0.022-2.186,0.948-2.964,3.013-2.942c4.593,0.05,9.187-0.005,13.781,0.023c2.734,0.017,3.259,0.586,3.268,3.403
			C45.704,39.982,45.695,43.388,45.694,46.793z M41.702,56.084c0-6.384,0-12.516,0-18.707c-4.107,0-8.072,0-12.016,0
			c0,6.354,0,12.482,0,18.707C33.726,56.084,37.588,56.084,41.702,56.084z"/>
		<path class="st6" d="M60.416,39.701c0.009,6.3,0.681,6.252-6.131,6.205c-6.142-0.042-6.098-0.009-6.154-6.254
			c-0.064-7.071,0.034-6.442,6.43-6.51C61.603,33.068,60.338,33.8,60.416,39.701z M56.234,37.325c-1.249,0-2.525,0-3.815,0
			c0,1.594,0,3.018,0,4.423C56.924,42.169,57.152,41.898,56.234,37.325z"/>
		<path class="st6" d="M10.933,39.349c-0.02-6.353-0.601-6.233,6.151-6.192c6.125,0.038,6.091,0.008,6.134,6.124
			c0.05,7.093,0.18,6.611-6.533,6.633C9.95,45.935,10.998,45.836,10.933,39.349z M19.012,37.165c-1.105,0-1.963-0.02-2.82,0.009
			c-0.376,0.013-0.748,0.128-1.085,0.19c-0.899,4.484-0.366,5.067,3.905,4.219C19.012,40.239,19.012,38.867,19.012,37.165z"/>
		<path class="st6" d="M10.933,53.705c-0.018-6.535-0.606-6.306,6.343-6.271c5.933,0.03,5.902,0.006,5.941,5.873
			c0.05,7.522,0.201,6.808-6.8,6.888C9.63,60.273,11.029,59.261,10.933,53.705z M19.053,51.647c-1.518,0-2.793,0-4.078,0
			c0,1.585,0,2.947,0,4.326c1.457,0,2.733,0,4.078,0C19.053,54.452,19.053,53.141,19.053,51.647z"/>
		<path class="st6" d="M60.416,53.819c-0.003,6.523,0.721,6.405-6.251,6.361c-6.022-0.038-5.984-0.008-6.032-6.02
			c-0.059-7.403-0.078-6.657,6.71-6.743C61.672,47.331,60.33,48.312,60.416,53.819z M52.351,55.896
			c4.358,0.757,4.866,0.182,3.865-4.278c-1.26,0-2.536,0-3.865,0C52.351,53.18,52.351,54.552,52.351,55.896z"/>
		<line class="st7" x1="0.659" y1="-7.826" x2="0.659" y2="-0.728"/>
	</g>
</g>
<g>
	<path class="st8" d="M66.609,62.858c-0.201,0-0.4,0.017-0.597,0.052c-0.801-1.442-2.324-2.373-4.046-2.373
		c-1.721,0-3.245,0.93-4.046,2.373c-0.196-0.034-0.396-0.052-0.596-0.052c-1.92,0-3.482,1.562-3.482,3.482
		c0,0.409,0.084,0.795,0.215,1.16h-4.858v-6.964h5.805c0.64,0,1.161-0.52,1.161-1.161V12.944c0-0.641-0.52-1.161-1.161-1.161H20.177
		c-0.641,0-1.161,0.52-1.161,1.161v55.719c0,0.641,0.52,1.162,1.161,1.162h46.432c1.919,0,3.482-1.563,3.482-3.482
		C70.092,64.42,68.528,62.858,66.609,62.858L66.609,62.858z M49.197,14.104h4.643v6.964h-4.643V14.104z M49.197,23.391h4.643v6.964
		h-4.643V23.391z M49.197,32.677h4.643v6.965h-4.643V32.677z M49.197,41.964h4.643v6.964h-4.643V41.964z M49.197,51.25h4.643v6.964
		h-4.643V51.25z M25.981,67.501h-4.643v-6.964h4.643V67.501z M25.981,58.215h-4.643v-6.964h4.643V58.215z M25.981,48.928h-4.643
		v-6.964h4.643V48.928z M25.981,39.642h-4.643v-6.965h4.643V39.642z M25.981,30.355h-4.643v-6.964h4.643V30.355z M25.981,21.069
		h-4.643v-6.964h4.643V21.069z M32.945,67.501h-4.643v-6.964h4.643V67.501z M32.945,58.215h-4.643v-6.964h4.643V58.215z
		 M32.945,48.928h-4.643v-6.964h4.643V48.928z M32.945,39.642h-4.643v-6.965h4.643V39.642z M32.945,30.355h-4.643v-6.964h4.643
		V30.355z M32.945,21.069h-4.643v-6.964h4.643V21.069z M39.91,67.501h-4.643v-6.964h4.643V67.501z M39.91,58.215h-4.643v-6.964
		h4.643V58.215z M39.91,48.928h-4.643v-6.964h4.643V48.928z M39.91,39.642h-4.643v-6.965h4.643V39.642z M39.91,30.355h-4.643v-6.964
		h4.643V30.355z M39.91,21.069h-4.643v-6.964h4.643V21.069z M46.875,67.501h-4.643v-6.964h4.643V67.501z M46.875,58.215h-4.643
		v-6.964h4.643V58.215z M46.875,48.928h-4.643v-6.964h4.643V48.928z M46.875,39.642h-4.643v-6.965h4.643V39.642z M46.875,30.355
		h-4.643v-6.964h4.643V30.355z M46.875,21.069h-4.643v-6.964h4.643V21.069z M66.609,67.501h-9.287c-0.64,0-1.161-0.52-1.161-1.16
		c0-0.64,0.521-1.161,1.161-1.161c0.223,0,0.434,0.064,0.629,0.189c0.318,0.204,0.715,0.242,1.065,0.1
		c0.35-0.141,0.61-0.446,0.694-0.814c0.245-1.058,1.173-1.796,2.254-1.796c1.082,0,2.009,0.739,2.254,1.796
		c0.085,0.368,0.344,0.672,0.694,0.814c0.351,0.142,0.748,0.105,1.066-0.1c0.754-0.487,1.791,0.109,1.789,0.972
		C67.769,66.981,67.249,67.501,66.609,67.501L66.609,67.501z"/>
	<path class="st8" d="M8.081,69.823h7.452c0.641,0,1.161-0.52,1.161-1.162v-59.2h8.125c0.641,0,1.162-0.52,1.162-1.161l0,0V4.817
		h8.125c0.641,0,1.161-0.52,1.161-1.161v-1.16h4.643v1.161c0,0.64,0.52,1.161,1.162,1.161h8.125V7.14H29.462
		c-0.641,0-1.161,0.52-1.161,1.16c0,0.641,0.52,1.161,1.161,1.161h29.021V57.61c0,0.64,0.52,1.161,1.161,1.161s1.16-0.52,1.16-1.161
		V8.3c0-0.64-0.52-1.16-1.16-1.16h-8.126V3.657c0-0.641-0.52-1.161-1.16-1.161h-8.125V1.335c0-0.641-0.52-1.161-1.161-1.161h-6.965
		c-0.64,0-1.161,0.52-1.161,1.161v1.16H24.82c-0.64,0-1.16,0.52-1.16,1.161v3.482h-8.126c-0.64,0-1.16,0.52-1.16,1.16V67.5H8.081
		V69.823z"/>
	<path class="st8" d="M10.713,69.824c0.641,0,1.161-0.52,1.161-1.161s-0.52-1.162-1.161-1.162H6.872V62.74
		c2.645-0.54,4.643-2.883,4.643-5.687c0-0.151-0.066-15.091-5.804-15.091c-5.737,0.001-5.804,14.94-5.804,15.091
		c0,2.803,1.998,5.147,4.643,5.686V67.5H1.068c-0.641,0-1.161,0.52-1.161,1.161s0.52,1.162,1.161,1.162L10.713,69.824L10.713,69.824
		z M2.229,57.055c0-5.784,1.553-12.769,3.482-12.769c1.93,0,3.482,6.985,3.482,12.769c0,1.919-1.562,3.482-3.482,3.482
		S2.229,58.975,2.229,57.055L2.229,57.055z"/>
</g>
</svg>
