<?xml version="1.0" encoding="utf-8"?>
<!-- Generator: Adobe Illustrator 21.1.0, SVG Export Plug-In . SVG Version: 6.00 Build 0)  -->
<svg version="1.1" id="Layer_2" xmlns="http://www.w3.org/2000/svg" xmlns:xlink="http://www.w3.org/1999/xlink" x="0px" y="0px"
	 viewBox="0 0 320 322" style="enable-background:new 0 0 320 322;" xml:space="preserve">
<style type="text/css">
	.st0{enable-background:new    ;}
	.st1{fill:#404041;}
	.st2{fill:none;stroke:#A5CD39;stroke-width:4;}
	.st3{fill:#A5CD39;}
	.st4{fill:none;stroke:#231F20;stroke-width:0.25;stroke-miterlimit:10;}
	.st5{fill:none;stroke:#404041;stroke-width:0.25;stroke-miterlimit:10;}
	.st6{fill:none;stroke:#231F20;stroke-miterlimit:10;}
</style>
<g class="st0">
	<path class="st1" d="M6,9.9H3.4v4.9H1.2V2.6H6c2.4,0,4.1,1.1,4.1,3.7C10.1,8.9,8.5,9.9,6,9.9z M5.9,4.7H3.4v3.1h2.4
		c1.1,0,2-0.2,2-1.6C7.9,5,7,4.7,5.9,4.7z"/>
</g>
<g class="st0">
	<path class="st1" d="M16.4,15c-3.7,0-5-3-5-6.2s1.4-6.2,5-6.2s5,3,5,6.2C21.4,12,20,15,16.4,15z M16.4,4.7c-2.4,0-2.8,2.2-2.8,4.1
		s0.5,4.1,2.8,4.1s2.8-2.2,2.8-4.1S18.8,4.7,16.4,4.7z"/>
</g>
<g class="st0">
	<path class="st1" d="M27.7,15c-2.6,0-4.3-1.2-4.9-3.6l2.1-0.4c0.4,1.4,1.4,1.9,2.8,1.9c1,0,2.3-0.5,2.3-1.7c0-2.5-6.8-0.9-6.8-5.2
		c0-2.3,2.1-3.4,4.1-3.4c2.2,0,3.5,0.8,4.5,2.7l-1.9,0.9c-0.6-1.1-1.3-1.5-2.6-1.5c-0.8,0-1.9,0.3-1.9,1.4c0,2.1,6.8,0.8,6.8,5.2
		C32.2,13.6,29.9,15,27.7,15z"/>
</g>
<g class="st0">
	<path class="st1" d="M42,4.8h-3.5v10h-2.2v-10h-3.5V2.6H42V4.8z"/>
</g>
<g class="st0">
	<path class="st1" d="M48.6,9.9H46v4.9h-2.2V2.6h4.7c2.4,0,4.1,1.1,4.1,3.7C52.7,8.9,51.1,9.9,48.6,9.9z M48.5,4.7H46v3.1h2.4
		c1.1,0,2-0.2,2-1.6C50.5,5,49.6,4.7,48.5,4.7z"/>
</g>
<g class="st0">
	<path class="st1" d="M63.2,14.8h-2.4l-1.2-3.2h-4.3l-1.2,3.2h-2.4l4.7-12.2h2L63.2,14.8z M59,9.7l-1.5-3.9l-1.4,3.9H59z"/>
	<path class="st1" d="M66.7,14.8h-2.2V2.6h2.2V14.8z"/>
	<path class="st1" d="M72.7,14.8h-3.4V2.6h3.4c4.8,0,5.7,1.6,5.7,6.1C78.4,13.2,77.5,14.8,72.7,14.8z M75.8,5.7
		c-0.4-0.7-1.2-0.9-2.6-0.9h-1.7v7.9h1.7c1.5,0,2.3-0.2,2.7-0.9c0.3-0.5,0.4-1.3,0.4-3C76.2,7.1,76.2,6.2,75.8,5.7z"/>
</g>
<g class="st0">
	<path class="st1" d="M7.3,30.5c0.2,0.2,0.4,0.5,0.6,0.8l2.9,4.5H8.2l-2.5-4.1c-0.4-0.6-0.6-0.9-1.4-0.9H3.4v5H1.2V23.6h4.4
		c2.4,0,4.2,1.1,4.2,3.6C9.8,28.8,8.8,30.1,7.3,30.5z M5.7,25.7H3.4v3.1h2.2c1.1,0,2-0.3,2-1.6C7.6,26,6.7,25.7,5.7,25.7z"/>
	<path class="st1" d="M20.4,35.8h-8.2V23.6h8.2v2.2h-6v2.7h5.3v2.1h-5.3v3.1h6V35.8z"/>
	<path class="st1" d="M31.8,23.6l-4.1,12.2h-2.1l-4.1-12.2h2.3l2.8,8.9l2.9-8.9H31.8z"/>
	<path class="st1" d="M41.5,35.8h-8.2V23.6h8.2v2.2h-6v2.7h5.3v2.1h-5.3v3.1h6V35.8z"/>
	<path class="st1" d="M52.4,35.8h-1.8l-4.8-7.6v7.6h-2.2V23.6h1.8l4.8,7.6v-7.6h2.2V35.8z"/>
	<path class="st1" d="M64,30.7c0,3.1-1.3,5.2-4.6,5.2c-3.3,0-4.6-2.1-4.6-5.2v-7.1h2.2v7c0,1.7,0.4,3.2,2.4,3.2
		c2.1,0,2.4-1.4,2.4-3.2v-7H64V30.7z"/>
	<path class="st1" d="M74.5,35.8h-8.2V23.6h8.2v2.2h-6v2.7h5.3v2.1h-5.3v3.1h6V35.8z"/>
</g>
<line class="st2" x1="140.7" y1="9.7" x2="154.6" y2="9.7"/>
<g class="st0">
	<path class="st1" d="M167.2,8.8h-2.8v4.3h-0.9V3.4h3.6c1.9,0,3.2,0.7,3.2,2.7C170.4,8.1,169.1,8.8,167.2,8.8z M167.1,4.3h-2.7V8
		h2.7c1.3,0,2.4-0.3,2.4-1.9C169.5,4.6,168.4,4.3,167.1,4.3z"/>
</g>
<g class="st0">
	<path class="st1" d="M174.4,13.3c-2.2,0-2.9-1.5-2.9-3.5c0-2,0.7-3.5,2.9-3.5c2.2,0,2.9,1.5,2.9,3.5
		C177.3,11.8,176.5,13.3,174.4,13.3z M174.4,7.1c-1.7,0-2.1,1.3-2.1,2.7c0,1.4,0.3,2.7,2.1,2.7c1.7,0,2.1-1.3,2.1-2.7
		C176.4,8.5,176.1,7.1,174.4,7.1z"/>
</g>
<g class="st0">
	<path class="st1" d="M181.5,13.3c-1.3,0-2.4-0.5-2.7-1.7l0.7-0.2c0.3,0.9,1.1,1.1,2,1.1c0.7,0,1.7-0.3,1.7-1.2
		c0-1.9-4.2-0.8-4.2-3.2c0-1.2,1.1-1.8,2.3-1.8c1.1,0,1.9,0.3,2.4,1.2L183,7.9c-0.4-0.6-1-0.8-1.7-0.8c-0.6,0-1.5,0.2-1.5,1
		c0,1.6,4.2,0.6,4.2,3.2C184,12.6,182.8,13.3,181.5,13.3z"/>
</g>
<g class="st0">
	<path class="st1" d="M188.4,7.2h-1.1v4.4c0,0.7,0.3,0.9,0.9,0.9v0.7h-0.3c-1,0-1.5-0.7-1.5-1.6V7.2h-1V6.4h1v-2h0.8v2h1.1V7.2z"/>
	<path class="st1" d="M192.6,13.3c-0.6,0-1.3-0.2-1.8-1v3.9H190V6.4h0.7l0,0.9c0.5-0.8,1.3-1.1,1.9-1.1c2.1,0,2.7,1.7,2.7,3.5
		C195.4,11.7,194.7,13.3,192.6,13.3z M192.6,7.1c-1,0-1.8,0.8-1.8,1.6v2.1c0,0.9,0.8,1.6,1.8,1.6c1.7,0,1.9-1.5,1.9-2.7
		C194.6,8.6,194.3,7.1,192.6,7.1z"/>
	<path class="st1" d="M202,13.1l-0.7,0.2l-0.2-0.8c-0.7,0.6-1.3,0.8-2.1,0.8c-1.3,0-2.4-0.7-2.4-2.1c0-1.2,1-1.9,2.3-2
		c0.1,0,1,0,1,0c0.3,0,0.7,0,1-0.3V8.3c0-0.8-0.8-1.3-1.5-1.3c-0.7,0-1.5,0.3-1.8,1l-0.7-0.3c0.4-1.1,1.3-1.5,2.5-1.5
		c1.1,0,2.3,0.8,2.3,1.9v3.8L202,13.1z M200.9,9.7c-0.4,0.2-0.6,0.3-0.9,0.3h-1.1c-0.8,0-1.6,0.4-1.6,1.3c0,0.9,0.9,1.3,1.6,1.3
		c0.8,0,1.4-0.3,2-0.8V9.7z"/>
	<path class="st1" d="M204.1,4.6c-0.3,0-0.6-0.3-0.6-0.6c0-0.3,0.3-0.6,0.6-0.6c0.4,0,0.7,0.3,0.7,0.6
		C204.8,4.3,204.5,4.6,204.1,4.6z M204.5,13.2h-0.8V6.4h0.8V13.2z"/>
</g>
<g class="st0">
	<path class="st1" d="M212.9,13.3l-0.2-0.9c-0.5,0.7-1.3,0.9-2,0.9c-2.1,0-2.8-1.6-2.8-3.5c0-1.9,0.7-3.5,2.8-3.5
		c0.6,0,1.4,0.2,1.8,0.9V3.4h0.8V12c0,0,0.2,1.1,0.2,1.1L212.9,13.3z M212.6,8.8c0-1-0.8-1.6-1.8-1.6c-1.7,0-1.9,1.4-1.9,2.7
		c0,1.2,0.2,2.7,1.9,2.7c1,0,1.8-0.6,1.8-1.6V8.8z"/>
</g>
<g class="st0">
	<path class="st1" d="M224,8.7c0.3,0.2,0.6,0.6,0.8,0.9l2.2,3.6h-1l-2.1-3.5c-0.3-0.5-0.6-1-1.3-1H221v4.4h-0.9V3.4h3.4
		c1.8,0,3.1,0.8,3.1,2.7C226.6,7.6,225.7,8.5,224,8.7z M223.5,4.3H221V8h2.5c1.3,0,2.3-0.4,2.3-1.9C225.8,4.7,224.7,4.3,223.5,4.3z"
		/>
</g>
<g class="st0">
	<path class="st1" d="M233.9,9.9h-4.7c0,1.5,0.6,2.6,2.2,2.6c0.7,0,1.3-0.2,1.7-0.7l0.6,0.5c-0.6,0.6-1.3,1-2.3,1
		c-2.2,0-3.1-1.5-3.1-3.5c0-2,0.9-3.5,3-3.5c1.8,0,2.6,1.4,2.6,3.1V9.9z M233.1,9.3c0-1.2-0.5-2.3-1.8-2.3c-1.4,0-2,0.9-2.1,2.3
		H233.1z"/>
</g>
<g class="st0">
	<path class="st1" d="M240.9,6.4l-2.6,6.8h-0.8L235,6.4h0.9l2.1,5.7l2.1-5.7H240.9z"/>
</g>
<g class="st0">
	<path class="st1" d="M247.6,9.9h-4.7c0,1.5,0.6,2.6,2.2,2.6c0.7,0,1.3-0.2,1.7-0.7l0.6,0.5c-0.6,0.6-1.3,1-2.3,1
		c-2.2,0-3.1-1.5-3.1-3.5c0-2,0.9-3.5,3-3.5c1.8,0,2.6,1.4,2.6,3.1V9.9z M246.8,9.3c0-1.2-0.5-2.3-1.8-2.3c-1.4,0-2,0.9-2.1,2.3
		H246.8z"/>
	<path class="st1" d="M254.5,13.2h-0.8V9.4c0-1.3-0.4-2.3-1.9-2.3c-1,0-1.8,0.8-1.8,1.6v4.5h-0.8V6.4h0.7l0,0.9c0.5-0.7,1.3-1,1.9-1
		c2,0,2.7,1.2,2.7,3V13.2z"/>
	<path class="st1" d="M261.5,13.2h-0.7l0-0.8c-0.6,0.7-1.3,0.9-1.9,0.9c-1.9,0-2.7-1-2.7-2.9V6.4h0.8v3.9c0,1.3,0.4,2.2,1.9,2.2
		c0.8,0,1.8-0.6,1.8-1.5V6.4h0.8V13.2z"/>
	<path class="st1" d="M268.6,9.9h-4.7c0,1.5,0.6,2.6,2.2,2.6c0.7,0,1.3-0.2,1.7-0.7l0.6,0.5c-0.6,0.6-1.3,1-2.3,1
		c-2.2,0-3.1-1.5-3.1-3.5c0-2,0.9-3.5,3-3.5c1.8,0,2.6,1.4,2.6,3.1V9.9z M267.8,9.3c0-1.2-0.5-2.3-1.8-2.3c-1.4,0-2,0.9-2.1,2.3
		H267.8z"/>
	<path class="st1" d="M276.2,3.4h0.9c-1.5,1.3-2.3,3.2-2.3,4.9c0,1.6,0.7,3.5,2.3,4.9h-0.9c-1.4-1.2-2.2-3.1-2.2-4.9
		S274.8,4.7,276.2,3.4z"/>
	<path class="st1" d="M282.7,8.7c0.3,0.2,0.6,0.6,0.8,0.9l2.2,3.6h-1l-2.1-3.5c-0.3-0.5-0.6-1-1.3-1h-1.5v4.4h-0.9V3.4h3.4
		c1.8,0,3.1,0.8,3.1,2.7C285.4,7.6,284.5,8.5,282.7,8.7z M282.2,4.3h-2.5V8h2.5c1.3,0,2.3-0.4,2.3-1.9
		C284.5,4.7,283.4,4.3,282.2,4.3z"/>
</g>
<g class="st0">
	<path class="st1" d="M298.4,13.2h-0.9V5.6l-2.9,7.6h-0.7l-2.9-7.6v7.6h-0.9V3.4h0.9l3.2,8.6l3.3-8.6h0.9V13.2z"/>
</g>
<g class="st0">
	<path class="st1" d="M313.7,13.2h-0.8V9.4c0-1.1-0.2-2.2-1.7-2.2c-1.4,0-1.6,1.3-1.6,2.3v3.7h-0.8V9.4c0-1.1-0.3-2.2-1.7-2.2
		c-0.8,0-1.6,0.7-1.6,1.5v4.6h-0.8V6.4h0.7l0,0.9c0.4-0.7,1.2-1,1.7-1c0.9,0,1.7,0.4,2.1,1.4c0.4-1,1.1-1.4,2-1.4
		c1.9,0,2.5,1.3,2.5,3V13.2z"/>
</g>
<g class="st0">
	<path class="st1" d="M317.3,13.2h-0.9c1.5-1.4,2.3-3.3,2.3-4.9c0-1.6-0.8-3.6-2.3-4.9h0.9c1.4,1.3,2.1,3.1,2.1,4.9
		S318.7,11.9,317.3,13.2z"/>
</g>
<path class="st1" d="M163.9,116.7c0,2.5-3.1,3.4-5.6,3.4s-5.6-0.9-5.6-3.4s3.1-3.4,5.6-3.4S163.9,114.2,163.9,116.7z M163.9,125
	c0,2.5-3.1,3.4-5.6,3.4s-5.6-0.9-5.6-3.4s3.1-3.4,5.6-3.4S163.9,122.5,163.9,125z M163.8,108.1v2.1c-1.1-1.2-2.4-2.4-4.3-2.9
	c0.4,0.4,0.5,0.8,0.5,1.2c0,1.9-1.6,3-3.6,3c-2.2,0-3.7-1.2-3.7-3.2c0-2.1,1.9-3.2,4.1-3.2C159.5,105.1,162.1,106.1,163.8,108.1z
	 M162,141.5v-2.4h-6.8l0.9,1.5l-1.5,0.9l-1.9-2.8v-1.4h9.2v-2.4h1.8v6.6L162,141.5L162,141.5z M154.6,116.7c0,1.3,2.4,1.5,3.7,1.5
	s3.7-0.2,3.7-1.5s-2.5-1.4-3.7-1.4C157,115.2,154.6,115.4,154.6,116.7z M154.6,125c0,1.3,2.4,1.5,3.7,1.5s3.7-0.2,3.7-1.5
	s-2.5-1.4-3.7-1.4C157,123.6,154.6,123.8,154.6,125z M154.7,108.3c0,0.8,0.8,1.4,1.7,1.4c1,0,1.7-0.6,1.7-1.4s-0.8-1.3-1.8-1.3
	C155.5,107,154.7,107.5,154.7,108.3z M163.8,130.3l2.5,1.5v0.9h-3.6c-0.7,0-1.2-0.6-1.2-1.2c0-0.7,0.5-1.2,1.2-1.2H163.8z"/>
<rect x="155.3" y="208.6" class="st3" width="11.1" height="91.1"/>
<line class="st4" x1="160.5" y1="299.6" x2="160.5" y2="160.3"/>
<circle class="st4" cx="160.5" cy="159.4" r="0.9"/>
<path class="st1" d="M103.3,129.8c0,1.9-1.4,3.2-3.5,3.2c-1.1,0-2.1-0.6-2.7-1.4c-0.4,0.6-1.4,1.1-2.1,1.1c-1.8,0-3-1.4-3-2.9
	c0-1.6,1.2-2.9,3-2.9c0.7,0,1.7,0.4,2.1,1.1c0.6-0.8,1.6-1.4,2.7-1.4C101.9,126.6,103.3,128,103.3,129.8z M103.1,138v2.1
	c-1.1-1.2-2.4-2.4-4.3-2.9c0.4,0.4,0.5,0.8,0.5,1.2c0,1.9-1.6,3-3.6,3c-2.2,0-3.7-1.2-3.7-3.2c0-2.1,1.9-3.2,4.1-3.2
	C98.8,135,101.4,136,103.1,138z M103.2,121.6c0,1.6-1.1,2.6-2.7,3.1l-0.6-1.7c0.8-0.2,1.4-0.7,1.4-1.4c0-1.1-1-1.5-2-1.5
	s-1.9,0.5-1.9,1.5c0,0.5,0.2,0.9,0.7,1.3v1.6h-5.9V119H94v3.9h1.9c-0.3-0.4-0.4-0.8-0.4-1.3c0-2.1,1.6-3.2,3.7-3.2
	C101.6,118.3,103.2,119.4,103.2,121.6z M93.8,129.8c0,0.6,0.5,1.1,1.3,1.1s1.3-0.5,1.3-1.1s-0.6-1.2-1.3-1.2
	C94.3,128.7,93.8,129.2,93.8,129.8z M94,138.2c0,0.8,0.8,1.4,1.7,1.4c1,0,1.7-0.6,1.7-1.4c0-0.8-0.8-1.3-1.8-1.3
	C94.8,136.8,94,137.4,94,138.2z M98,129.8c0,0.8,0.7,1.4,1.7,1.4c0.9,0,1.7-0.7,1.7-1.5s-0.7-1.5-1.7-1.5
	C98.7,128.4,98,129,98,129.8z"/>
<rect x="94.6" y="223" class="st3" width="11.1" height="76.7"/>
<line class="st4" x1="99.8" y1="299.6" x2="99.8" y2="160.3"/>
<circle class="st4" cx="99.8" cy="159.4" r="0.9"/>
<path class="st1" d="M224.5,113.5v6.4h-1.3c-4-0.2-4.6-4.3-6.7-4.3c-0.8,0-1.3,0.7-1.3,1.4c0,0.7,0.7,1.3,1.3,1.6l-1,1.5
	c-1.4-0.7-2.2-1.6-2.2-3.1c0-1.8,1.1-3.2,3.2-3.2c2.8,0,3.4,3.4,6,4.1v-4.2h2V113.5z M224.6,125c0,2.5-3.1,3.4-5.6,3.4
	s-5.6-0.9-5.6-3.4s3.1-3.4,5.6-3.4S224.6,122.5,224.6,125z M224.5,108.5c0,1.6-1.1,2.6-2.7,3.1l-0.6-1.7c0.8-0.2,1.4-0.7,1.4-1.4
	c0-1.1-1-1.5-2-1.5s-1.9,0.5-1.9,1.5c0,0.5,0.2,0.9,0.7,1.3v1.6h-5.9v-5.5h1.9v3.9h1.9c-0.3-0.4-0.4-0.8-0.4-1.3
	c0-2.1,1.6-3.2,3.7-3.2C222.9,105.1,224.5,106.3,224.5,108.5z M222.7,141.5v-2.4h-6.8l0.9,1.5l-1.5,0.9l-1.9-2.8v-1.4h9.2v-2.4h1.8
	v6.6L222.7,141.5L222.7,141.5z M215.3,125c0,1.3,2.4,1.5,3.7,1.5s3.7-0.2,3.7-1.5s-2.5-1.4-3.7-1.4S215.3,123.8,215.3,125z
	 M224.5,130.3l2.5,1.5v0.9h-3.6c-0.7,0-1.2-0.6-1.2-1.2c0-0.7,0.5-1.2,1.2-1.2H224.5z"/>
<rect x="216" y="197.1" class="st3" width="11.1" height="102.6"/>
<line class="st4" x1="221.2" y1="299.6" x2="221.2" y2="160.3"/>
<circle class="st4" cx="221.2" cy="159.4" r="0.9"/>
<path class="st1" d="M285.3,125c0,2.5-3.1,3.4-5.6,3.4s-5.6-0.9-5.6-3.4s3.1-3.4,5.6-3.4C282.2,121.6,285.3,122.5,285.3,125z
	 M285.3,108.3c0,1.6-0.8,2.8-2.5,3.3l-0.8-1.7c0.8-0.2,1.3-0.8,1.3-1.5c0-0.8-0.6-1.5-1.6-1.5c-1.3,0-1.6,1-1.6,2h-1.5
	c0-0.9-0.2-1.8-1.4-1.8c-0.8,0-1.3,0.6-1.3,1.4c0,0.7,0.5,1.2,1.2,1.4l-0.8,1.7c-1.5-0.6-2.3-1.6-2.3-3.1c0-1.8,1.3-3.1,3.2-3.1
	c0.8,0,1.6,0.4,2.1,1c0.5-0.7,1.5-1.3,2.4-1.3C283.9,105.1,285.3,106.5,285.3,108.3z M285.2,116.8c0,1.6-1.1,2.6-2.7,3.1l-0.6-1.7
	c0.8-0.2,1.4-0.7,1.4-1.4c0-1.1-1-1.5-2-1.5s-1.9,0.5-1.9,1.5c0,0.5,0.2,0.9,0.7,1.3v1.6h-5.9v-5.5h1.9v3.9h1.9
	c-0.3-0.4-0.4-0.8-0.4-1.3c0-2.1,1.6-3.2,3.7-3.2C283.6,113.5,285.2,114.6,285.2,116.8z M283.4,141.5v-2.4h-6.8l0.9,1.5l-1.5,0.9
	l-1.9-2.8v-1.4h9.2v-2.4h1.8v6.6L283.4,141.5L283.4,141.5z M275.9,125c0,1.3,2.4,1.5,3.7,1.5c1.3,0,3.7-0.2,3.7-1.5
	s-2.5-1.4-3.7-1.4S275.9,123.8,275.9,125z M285.1,130.3l2.5,1.5v0.9H284c-0.7,0-1.2-0.6-1.2-1.2c0-0.7,0.5-1.2,1.2-1.2H285.1z"/>
<rect x="276.7" y="178" class="st3" width="11.1" height="121.7"/>
<line class="st4" x1="281.9" y1="299.6" x2="281.9" y2="160.3"/>
<circle class="st4" cx="281.9" cy="159.4" r="0.9"/>
<path class="st1" d="M42.4,129.6v2.1c-1.1-1.2-2.4-2.4-4.3-2.9c0.4,0.4,0.5,0.8,0.5,1.2c0,1.9-1.6,3-3.6,3c-2.2,0-3.7-1.2-3.7-3.2
	c0-2.1,1.9-3.2,4.1-3.2C38.1,126.6,40.7,127.6,42.4,129.6z M42.4,138v2.1c-1.1-1.2-2.4-2.4-4.3-2.9c0.4,0.4,0.5,0.8,0.5,1.2
	c0,1.9-1.6,3-3.6,3c-2.2,0-3.7-1.2-3.7-3.2c0-2.1,1.9-3.2,4.1-3.2C38.1,135,40.7,136,42.4,138z M40,118.2v0.6h2.4v1.7H40v4.3h-1.6
	l-6.9-3.6v-1.9l6.7,3.4v-2.2h-3.1l0.2-1.7h2.9v-0.6C38.2,118.2,40,118.2,40,118.2z M33.3,129.8c0,0.8,0.8,1.4,1.7,1.4
	c1,0,1.7-0.6,1.7-1.4c0-0.8-0.8-1.3-1.8-1.3C34.1,128.5,33.3,129,33.3,129.8z M33.3,138.2c0,0.8,0.8,1.4,1.7,1.4
	c1,0,1.7-0.6,1.7-1.4c0-0.8-0.8-1.3-1.8-1.3C34.1,136.8,33.3,137.4,33.3,138.2z"/>
<rect x="34" y="217" class="st3" width="11.1" height="82.7"/>
<line class="st4" x1="39.2" y1="299.6" x2="39.2" y2="160.3"/>
<circle class="st4" cx="39.2" cy="159.4" r="0.9"/>
<g class="st0">
	<path class="st1" d="M149.7,319.7h-6.9v-1.3c0.2-4,4.8-4.9,4.8-6.7c0-0.8-0.8-1.3-1.5-1.3c-0.8,0-1.4,0.7-1.7,1.3l-1.7-1
		c0.7-1.4,1.7-2.2,3.4-2.2c2,0,3.5,1.1,3.5,3.2c0,3-3.9,3.4-4.5,6h4.7V319.7z"/>
	<path class="st1" d="M159.4,317.8l1.4,1.8h-2.4l-0.4-0.5c-0.7,0.5-1.5,0.6-2.3,0.6c-3.2,0-4.5-2.8-4.5-5.6c0-3,1.3-5.6,4.5-5.6
		c3.3,0,4.5,2.8,4.5,5.6C160.3,315.5,160.1,316.7,159.4,317.8z M155.7,310.5c-2.1,0-2.6,1.9-2.6,3.6c0,1.6,0.5,3.6,2.5,3.6
		c0.3,0,0.6-0.1,0.8-0.2c-0.3-0.3-0.6-0.4-1-0.4v-1.5c0.9,0.1,1.6,0.3,2.4,0.9c0.3-0.7,0.4-1.5,0.4-2.2
		C158.3,312.5,157.9,310.5,155.7,310.5z"/>
	<path class="st1" d="M165.7,319.7h-1.9v-8.5l-1.5,0.9l-0.9-1.5l2.8-1.9h1.4V319.7z"/>
	<path class="st1" d="M171.6,319.8c-2.1,0-3.6-1.4-3.6-3.5c0-1.1,0.6-2.1,1.6-2.7c-0.7-0.4-1.2-1.3-1.2-2.1c0-1.8,1.5-3,3.3-3
		c1.7,0,3.3,1.2,3.3,3c0,0.8-0.4,1.7-1.2,2.1c1,0.6,1.6,1.5,1.6,2.7C175.3,318.4,173.7,319.8,171.6,319.8z M171.6,314.5
		c-0.9,0-1.7,0.7-1.7,1.7c0,0.9,0.8,1.6,1.7,1.6c1,0,1.7-0.7,1.7-1.7C173.3,315.3,172.6,314.5,171.6,314.5z M171.6,310.3
		c-0.7,0-1.4,0.5-1.4,1.3c0,0.8,0.6,1.3,1.4,1.3c0.8,0,1.4-0.5,1.4-1.3C173,310.9,172.4,310.3,171.6,310.3z"/>
</g>
<g class="st0">
	<path class="st1" d="M29.6,317.2h-0.8v2.4h-1.8v-2.4H22v-1.6l4.2-6.9h2.1l-4.1,6.7h2.7v-3.1l1.8,0.2v2.9h0.8V317.2z"/>
	<path class="st1" d="M39.1,317.8l1.4,1.8h-2.4l-0.4-0.5c-0.7,0.5-1.5,0.6-2.3,0.6c-3.2,0-4.5-2.8-4.5-5.6c0-3,1.3-5.6,4.5-5.6
		c3.3,0,4.5,2.8,4.5,5.6C40,315.5,39.9,316.7,39.1,317.8z M35.5,310.5c-2.1,0-2.6,1.9-2.6,3.6c0,1.6,0.5,3.6,2.5,3.6
		c0.3,0,0.6-0.1,0.8-0.2c-0.3-0.3-0.6-0.4-1-0.4v-1.5c0.9,0.1,1.6,0.3,2.4,0.9c0.3-0.7,0.4-1.5,0.4-2.2
		C38,312.5,37.6,310.5,35.5,310.5z"/>
	<path class="st1" d="M45.4,319.7h-1.9v-8.5L42,312l-0.9-1.5l2.8-1.9h1.4V319.7z"/>
	<path class="st1" d="M54.5,310.3c-2.2,2.8-3.1,5.5-3.1,9.3h-2c0-3.4,1.1-6.7,3-9.1h-3.1v0.9h-1.7v-2.7h6.9V310.3z"/>
</g>
<g class="st0">
	<path class="st1" d="M88.8,319.7h-1.9v-8.5l-1.5,0.9l-0.9-1.5l2.8-1.9h1.4V319.7z"/>
	<path class="st1" d="M99.3,317.8l1.4,1.8h-2.4l-0.4-0.5c-0.7,0.5-1.5,0.6-2.3,0.6c-3.2,0-4.5-2.8-4.5-5.6c0-3,1.3-5.6,4.5-5.6
		c3.3,0,4.5,2.8,4.5,5.6C100.2,315.5,100,316.7,99.3,317.8z M95.6,310.5c-2.1,0-2.6,1.9-2.6,3.6c0,1.6,0.5,3.6,2.5,3.6
		c0.3,0,0.6-0.1,0.8-0.2c-0.3-0.3-0.6-0.4-1-0.4v-1.5c0.9,0.1,1.6,0.3,2.4,0.9c0.3-0.7,0.4-1.5,0.4-2.2
		C98.2,312.5,97.8,310.5,95.6,310.5z"/>
	<path class="st1" d="M105.6,319.7h-1.9v-8.5l-1.5,0.9l-0.9-1.5l2.8-1.9h1.4V319.7z"/>
	<path class="st1" d="M111.5,319.8c-2.1,0-3.6-1.4-3.6-3.5c0-1.1,0.6-2.1,1.6-2.7c-0.7-0.4-1.2-1.3-1.2-2.1c0-1.8,1.5-3,3.3-3
		c1.7,0,3.3,1.2,3.3,3c0,0.8-0.4,1.7-1.2,2.1c1,0.6,1.6,1.5,1.6,2.7C115.2,318.4,113.6,319.8,111.5,319.8z M111.5,314.5
		c-0.9,0-1.7,0.7-1.7,1.7c0,0.9,0.8,1.6,1.7,1.6c1,0,1.7-0.7,1.7-1.7C113.3,315.3,112.5,314.5,111.5,314.5z M111.5,310.3
		c-0.7,0-1.4,0.5-1.4,1.3c0,0.8,0.6,1.3,1.4,1.3c0.8,0,1.4-0.5,1.4-1.3C112.9,310.9,112.3,310.3,111.5,310.3z"/>
</g>
<g class="st0">
	<path class="st1" d="M275.6,317.2h-0.8v2.4h-1.8v-2.4H268v-1.6l4.2-6.9h2.1l-4.1,6.7h2.7v-3.1l1.8,0.2v2.9h0.8V317.2z"/>
	<path class="st1" d="M285.1,317.8l1.4,1.8h-2.4l-0.4-0.5c-0.7,0.5-1.5,0.6-2.3,0.6c-3.2,0-4.5-2.8-4.5-5.6c0-3,1.3-5.6,4.5-5.6
		c3.3,0,4.5,2.8,4.5,5.6C286,315.5,285.8,316.7,285.1,317.8z M281.4,310.5c-2.1,0-2.6,1.9-2.6,3.6c0,1.6,0.5,3.6,2.5,3.6
		c0.3,0,0.6-0.1,0.8-0.2c-0.3-0.3-0.6-0.4-1-0.4v-1.5c0.9,0.1,1.6,0.3,2.4,0.9c0.3-0.7,0.4-1.5,0.4-2.2
		C284,312.5,283.6,310.5,281.4,310.5z"/>
	<path class="st1" d="M291.4,319.7h-1.9v-8.5L288,312l-0.9-1.5l2.8-1.9h1.4V319.7z"/>
	<path class="st1" d="M297.3,319.8c-2.1,0-3.6-1.4-3.6-3.5c0-1.1,0.6-2.1,1.6-2.7c-0.7-0.4-1.2-1.3-1.2-2.1c0-1.8,1.5-3,3.3-3
		c1.7,0,3.3,1.2,3.3,3c0,0.8-0.4,1.7-1.2,2.1c1,0.6,1.6,1.5,1.6,2.7C301,318.4,299.4,319.8,297.3,319.8z M297.3,314.5
		c-0.9,0-1.7,0.7-1.7,1.7c0,0.9,0.8,1.6,1.7,1.6c1,0,1.7-0.7,1.7-1.7C299,315.3,298.3,314.5,297.3,314.5z M297.3,310.3
		c-0.7,0-1.4,0.5-1.4,1.3c0,0.8,0.6,1.3,1.4,1.3c0.8,0,1.4-0.5,1.4-1.3C298.7,310.9,298,310.3,297.3,310.3z"/>
</g>
<g class="st0">
	<path class="st1" d="M206.8,319.8c-1.8,0-3-0.8-3.6-2.5l1.8-0.7c0.2,0.8,0.9,1.3,1.7,1.3c0.9,0,1.7-0.6,1.7-1.6
		c0-1.3-1.1-1.6-2.2-1.6v-1.5c1,0,2-0.2,2-1.4c0-0.8-0.8-1.3-1.5-1.3c-0.8,0-1.3,0.5-1.6,1.2l-1.7-0.8c0.6-1.5,1.7-2.3,3.4-2.3
		c1.8,0,3.4,1.3,3.4,3.2c0,0.9-0.4,1.7-1.1,2.1c0.8,0.5,1.4,1.4,1.4,2.4C210.3,318.4,208.8,319.8,206.8,319.8z"/>
	<path class="st1" d="M220,317.8l1.4,1.8H219l-0.4-0.5c-0.7,0.5-1.5,0.6-2.3,0.6c-3.2,0-4.5-2.8-4.5-5.6c0-3,1.3-5.6,4.5-5.6
		c3.3,0,4.5,2.8,4.5,5.6C220.8,315.5,220.7,316.7,220,317.8z M216.3,310.5c-2.1,0-2.6,1.9-2.6,3.6c0,1.6,0.5,3.6,2.5,3.6
		c0.3,0,0.6-0.1,0.8-0.2c-0.3-0.3-0.6-0.4-1-0.4v-1.5c0.9,0.1,1.6,0.3,2.4,0.9c0.3-0.7,0.4-1.5,0.4-2.2
		C218.9,312.5,218.4,310.5,216.3,310.5z"/>
	<path class="st1" d="M226.2,319.7h-1.9v-8.5l-1.5,0.9l-0.9-1.5l2.8-1.9h1.4V319.7z"/>
	<path class="st1" d="M232.2,319.8c-2.1,0-3.6-1.4-3.6-3.5c0-1.1,0.6-2.1,1.6-2.7c-0.7-0.4-1.2-1.3-1.2-2.1c0-1.8,1.5-3,3.3-3
		c1.7,0,3.3,1.2,3.3,3c0,0.8-0.4,1.7-1.2,2.1c1,0.6,1.6,1.5,1.6,2.7C235.9,318.4,234.3,319.8,232.2,319.8z M232.2,314.5
		c-0.9,0-1.7,0.7-1.7,1.7c0,0.9,0.8,1.6,1.7,1.6c1,0,1.7-0.7,1.7-1.7C233.9,315.3,233.2,314.5,232.2,314.5z M232.2,310.3
		c-0.7,0-1.4,0.5-1.4,1.3c0,0.8,0.6,1.3,1.4,1.3c0.8,0,1.4-0.5,1.4-1.3C233.6,310.9,232.9,310.3,232.2,310.3z"/>
</g>
<g class="st0">
	<path class="st1" d="M226.9,72.7h-2.6v2.6h-1.7v-2.6h-2.6V71h2.6v-2.6h1.7V71h2.6V72.7z"/>
	<path class="st1" d="M235.6,76.2h-6.9v-1.3c0.2-4,4.8-4.9,4.8-6.7c0-0.8-0.8-1.3-1.5-1.3c-0.8,0-1.4,0.7-1.7,1.3l-1.7-1
		c0.7-1.4,1.7-2.2,3.4-2.2c2,0,3.5,1.1,3.5,3.2c0,3-3.9,3.4-4.5,6h4.7V76.2z"/>
	<path class="st1" d="M238.7,76.3c-0.7,0-1.2-0.5-1.2-1.2c0-0.7,0.6-1.2,1.2-1.2s1.2,0.6,1.2,1.2C240,75.8,239.4,76.3,238.7,76.3z"
		/>
	<path class="st1" d="M245.4,76.3c-2.1,0-3.6-1.4-3.6-3.5c0-1.1,0.6-2.1,1.6-2.7c-0.7-0.4-1.2-1.3-1.2-2.1c0-1.8,1.5-3,3.3-3
		c1.7,0,3.3,1.2,3.3,3c0,0.8-0.4,1.7-1.2,2.1c1,0.6,1.6,1.5,1.6,2.7C249.1,74.9,247.5,76.3,245.4,76.3z M245.4,71
		c-0.9,0-1.7,0.7-1.7,1.7c0,0.9,0.8,1.6,1.7,1.6c1,0,1.7-0.7,1.7-1.7C247.1,71.7,246.4,71,245.4,71z M245.4,66.8
		c-0.7,0-1.4,0.5-1.4,1.3c0,0.8,0.6,1.3,1.4,1.3c0.8,0,1.4-0.5,1.4-1.3C246.8,67.3,246.1,66.8,245.4,66.8z"/>
	<path class="st1" d="M253,71.3c-1.8,0-2.5-1.6-2.5-3.1c0-1.5,0.6-3.1,2.5-3.1c1.8,0,2.4,1.6,2.4,3.1
		C255.5,69.7,254.8,71.3,253,71.3z M253,66.5c-0.8,0-0.9,1-0.9,1.7c0,0.7,0.1,1.7,0.9,1.7c0.8,0,0.9-1,0.9-1.7
		C254,67.5,253.8,66.5,253,66.5z M259.7,65.2l-5,11h-1.8l5-11H259.7z M259.5,76.3c-1.8,0-2.4-1.6-2.4-3.1c0-1.5,0.6-3.1,2.4-3.1
		c1.8,0,2.5,1.6,2.5,3.1C262,74.7,261.4,76.3,259.5,76.3z M259.5,71.5c-0.8,0-0.9,0.9-0.9,1.7c0,0.7,0.1,1.7,0.9,1.7
		c0.8,0,1-1,1-1.7C260.5,72.5,260.4,71.5,259.5,71.5z"/>
</g>
<g class="st0">
	<path class="st1" d="M154.5,53.2h-2.6v2.6h-1.7v-2.6h-2.6v-1.7h2.6V49h1.7v2.6h2.6V53.2z"/>
	<path class="st1" d="M159.7,56.8c-2.3,0-3.6-1.9-3.6-4.1c0-2.8,1.2-5.3,3.4-7h2.3c-1.5,1.2-2.9,2.5-3.5,4.4
		c0.4-0.4,0.9-0.6,1.6-0.6c2.1,0,3.4,1.6,3.4,3.6C163.3,55.3,161.9,56.8,159.7,56.8z M159.6,51.3c-1,0-1.6,0.8-1.6,1.8
		c0,0.9,0.7,1.7,1.6,1.7c1,0,1.7-0.8,1.7-1.7C161.3,52.1,160.7,51.3,159.6,51.3z"/>
	<path class="st1" d="M166.3,56.8c-0.7,0-1.2-0.5-1.2-1.2c0-0.7,0.6-1.2,1.2-1.2s1.2,0.6,1.2,1.2C167.5,56.3,166.9,56.8,166.3,56.8z
		"/>
	<path class="st1" d="M173.4,56.8c-3,0-4-3.1-4-5.6c0-2.5,1-5.6,4-5.6c3,0,4,3.1,4,5.6S176.4,56.8,173.4,56.8z M173.4,47.5
		c-1.8,0-2,2.4-2,3.7c0,1.3,0.2,3.7,2,3.7c1.8,0,2-2.5,2-3.7C175.4,49.9,175.2,47.5,173.4,47.5z"/>
	<path class="st1" d="M181.4,51.8c-1.8,0-2.5-1.6-2.5-3.1c0-1.5,0.6-3.1,2.5-3.1s2.4,1.6,2.4,3.1C183.8,50.2,183.2,51.8,181.4,51.8z
		 M181.4,47c-0.8,0-0.9,1-0.9,1.7c0,0.7,0.1,1.7,0.9,1.7c0.8,0,0.9-1,0.9-1.7C182.4,48,182.2,47,181.4,47z M188.1,45.7l-5,11h-1.8
		l5-11H188.1z M187.9,56.8c-1.8,0-2.4-1.6-2.4-3.1c0-1.5,0.6-3.1,2.4-3.1c1.8,0,2.5,1.6,2.5,3.1C190.4,55.3,189.8,56.8,187.9,56.8z
		 M187.9,52.1c-0.8,0-0.9,0.9-0.9,1.7c0,0.7,0.1,1.7,0.9,1.7c0.8,0,1-1,1-1.7C188.9,53,188.8,52.1,187.9,52.1z"/>
</g>
<line class="st5" x1="212.8" y1="90.2" x2="280.3" y2="77.5"/>
<path class="st1" d="M287.8,76.1l-11-1.8c0,0,3.5,3.2,1.4,7.5L287.8,76.1"/>
<line class="st5" x1="35.3" y1="87.2" x2="280.2" y2="51.5"/>
<path class="st1" d="M287.8,50.4l-10.9-2.3c0,0,3.3,3.4,1.1,7.5L287.8,50.4"/>
<line class="st6" x1="317.8" y1="300.2" x2="0" y2="300.2"/>
</svg>
