<?xml version="1.0" encoding="utf-8"?>
<!-- Generator: Adobe Illustrator 23.0.1, SVG Export Plug-In . SVG Version: 6.00 Build 0)  -->
<svg version="1.1" id="Layer_2" xmlns="http://www.w3.org/2000/svg" xmlns:xlink="http://www.w3.org/1999/xlink" x="0px" y="0px"
	 viewBox="0 0 320 322" style="enable-background:new 0 0 320 322;" xml:space="preserve">
<style type="text/css">
	.st0{fill:#404041;}
	.st1{fill:#EB008B;}
	.st2{display:none;}
	.st3{display:inline;fill:#EB008B;}
	.st4{display:inline;fill:#FFFFFF;}
	.st5{font-family:'AauxNext-Bold';}
	.st6{font-size:12.3106px;}
	.st7{display:inline;fill:none;stroke:#404041;stroke-width:0.25;}
	.st8{fill:#FFFFFF;}
	.st9{fill:#231F20;}
</style>
<g>
	<path class="st0" d="M8.3,9.8H5.7v4.8H3.6v-12h4.6c2.3,0,4,1,4,3.6C12.2,8.8,10.7,9.8,8.3,9.8z M8.1,4.6H5.7v3.1h2.4
		c1.1,0,2-0.2,2-1.5C10.1,4.9,9.2,4.6,8.1,4.6z"/>
	<path class="st0" d="M19.9,9.4c0.2,0.2,0.4,0.5,0.6,0.7l2.8,4.4h-2.5l-2.4-4.1C18,9.9,17.8,9.6,17,9.6h-0.9v5H14v-12h4.3
		c2.3,0,4.1,1.1,4.1,3.6C22.4,7.7,21.4,8.9,19.9,9.4z M18.3,4.7h-2.2v3h2.2c1.1,0,1.9-0.3,1.9-1.5C20.2,4.9,19.3,4.7,18.3,4.7z"/>
	<path class="st0" d="M32.7,14.5h-8.1v-12h8.1v2.1h-5.9v2.7H32v2h-5.2v3h5.9V14.5z"/>
	<path class="st0" d="M39.5,9.8H37v4.8h-2.2v-12h4.6c2.3,0,4,1,4,3.6C43.5,8.8,42,9.8,39.5,9.8z M39.4,4.6H37v3.1h2.4
		c1.1,0,2-0.2,2-1.5C41.3,4.9,40.4,4.6,39.4,4.6z"/>
	<path class="st0" d="M53.8,14.5h-2.3l-1.1-3.1h-4.2L45,14.5h-2.3l4.6-12h1.9L53.8,14.5z M49.6,9.5l-1.4-3.9l-1.4,3.9H49.6z"/>
	<path class="st0" d="M57.3,14.5h-2.2v-12h2.2V14.5z"/>
	<path class="st0" d="M63.1,14.5h-3.4v-12h3.4c4.7,0,5.6,1.5,5.6,6C68.7,13,67.8,14.5,63.1,14.5z M66.2,5.6
		c-0.4-0.7-1.2-0.9-2.6-0.9h-1.7v7.7h1.7c1.4,0,2.2-0.2,2.6-0.9c0.3-0.5,0.4-1.3,0.4-2.9C66.6,6.9,66.5,6.1,66.2,5.6z"/>
</g>
<g>
	<path class="st0" d="M13.5,35.1h-2.3L10.1,32H5.8l-1.1,3.1H2.4l4.6-12h1.9L13.5,35.1z M9.4,30.1L8,26.3l-1.4,3.9H9.4z"/>
	<path class="st0" d="M20.7,29.9c0.2,0.2,0.4,0.5,0.6,0.7l2.8,4.4h-2.5l-2.4-4.1c-0.4-0.6-0.6-0.9-1.3-0.9h-0.9v5h-2.2v-12h4.3
		c2.3,0,4.1,1.1,4.1,3.6C23.2,28.3,22.2,29.5,20.7,29.9z M19.1,25.2h-2.2v3h2.2c1.1,0,1.9-0.3,1.9-1.5C21,25.5,20.2,25.2,19.1,25.2z
		"/>
	<path class="st0" d="M30.2,30.3h-2.5v4.8h-2.2v-12h4.6c2.3,0,4,1,4,3.6C34.2,29.3,32.6,30.3,30.2,30.3z M30,25.2h-2.4v3.1H30
		c1.1,0,2-0.2,2-1.5C32,25.5,31.1,25.2,30,25.2z"/>
	<path class="st0" d="M44.9,30.1c0,3.1-1.3,5.1-4.5,5.1c-3.3,0-4.5-2.1-4.5-5.1v-7H38V30c0,1.7,0.4,3.1,2.4,3.1
		c2.1,0,2.4-1.4,2.4-3.1v-6.9h2.1L44.9,30.1L44.9,30.1z"/>
</g>
<rect x="140.4" y="7.5" class="st1" width="13.7" height="4"/>
<g>
	<path class="st0" d="M168.3,8.7h-2.7v4.3h-0.9V3.4h3.5c1.8,0,3.1,0.7,3.1,2.6C171.4,8,170.2,8.7,168.3,8.7z M168.3,4.2h-2.7v3.7
		h2.7c1.2,0,2.3-0.3,2.3-1.9C170.6,4.5,169.5,4.2,168.3,4.2z"/>
	<path class="st0" d="M176.8,7.2c-0.3-0.1-0.6-0.2-0.9-0.2c-1,0-1.8,0.7-1.8,1.6v4.4h-0.8V6.3h0.7l0,0.9c0.4-0.8,1.2-1,1.9-1
		c0.4,0,0.8,0.1,1.2,0.3L176.8,7.2z"/>
	<path class="st0" d="M183.7,9.8H179c0,1.5,0.6,2.5,2.2,2.5c0.7,0,1.3-0.2,1.7-0.7l0.5,0.5c-0.6,0.6-1.3,0.9-2.2,0.9
		c-2.1,0-3-1.4-3-3.4c0-1.9,0.8-3.4,2.9-3.4c1.7,0,2.5,1.3,2.5,3.1L183.7,9.8L183.7,9.8z M182.9,9.2c0-1.2-0.5-2.2-1.8-2.2
		c-1.3,0-1.9,0.9-2,2.2H182.9z"/>
	<path class="st0" d="M188.2,13.1c-0.6,0-1.3-0.2-1.8-0.9v3.8h-0.8V6.3h0.7l0,0.9c0.5-0.8,1.2-1.1,1.9-1.1c2.1,0,2.7,1.6,2.7,3.5
		C190.9,11.5,190.2,13.1,188.2,13.1z M188.2,7c-0.9,0-1.8,0.8-1.8,1.6v2.1c0,0.8,0.8,1.6,1.8,1.6c1.7,0,1.9-1.4,1.9-2.6
		C190.1,8.4,189.8,7,188.2,7z"/>
	<path class="st0" d="M197.7,12.9L197,13l-0.2-0.7c-0.7,0.6-1.3,0.8-2,0.8c-1.3,0-2.4-0.7-2.4-2c0-1.2,0.9-1.9,2.3-1.9
		c0.1,0,1,0,1,0c0.3,0,0.7,0,1-0.3V8.2c0-0.8-0.8-1.2-1.5-1.2c-0.7,0-1.4,0.3-1.7,1l-0.7-0.2c0.4-1,1.3-1.5,2.5-1.5
		c1.1,0,2.2,0.8,2.2,1.9v3.8L197.7,12.9z M196.7,9.5c-0.4,0.2-0.6,0.3-0.9,0.3h-1.1c-0.8,0-1.5,0.4-1.5,1.3c0,0.9,0.8,1.3,1.6,1.3
		c0.8,0,1.4-0.3,1.9-0.8L196.7,9.5L196.7,9.5z"/>
	<path class="st0" d="M200.3,4.5c-0.3,0-0.6-0.3-0.6-0.6c0-0.3,0.3-0.6,0.6-0.6c0.4,0,0.6,0.3,0.6,0.6
		C200.9,4.2,200.6,4.5,200.3,4.5z M200.7,12.9h-0.8V6.3h0.8V12.9z"/>
	<path class="st0" d="M207.6,13l-0.2-0.9c-0.5,0.7-1.2,0.9-1.9,0.9c-2.1,0-2.7-1.5-2.7-3.4c0-1.8,0.7-3.4,2.7-3.4
		c0.6,0,1.3,0.2,1.8,0.9V3.4h0.8v8.4c0,0,0.2,1,0.2,1.1L207.6,13z M207.3,8.6c0-1-0.8-1.6-1.8-1.6c-1.7,0-1.9,1.4-1.9,2.6
		c0,1.2,0.2,2.6,1.9,2.6c0.9,0,1.8-0.6,1.8-1.6L207.3,8.6L207.3,8.6z"/>
	<path class="st0" d="M218.6,8.5c0.3,0.2,0.5,0.5,0.8,0.9l2.1,3.5h-1l-2-3.4c-0.3-0.5-0.6-0.9-1.3-0.9h-1.5v4.3h-0.9V3.4h3.3
		c1.8,0,3.1,0.8,3.1,2.6C221.1,7.4,220.2,8.3,218.6,8.5z M218.1,4.2h-2.4v3.6h2.4c1.2,0,2.2-0.4,2.2-1.8
		C220.3,4.6,219.3,4.2,218.1,4.2z"/>
	<path class="st0" d="M229.9,7.9v5h-0.8v-1.6c-0.5,1.3-1.4,1.7-2.5,1.7c-2.8,0-3.8-2.4-3.8-4.9c0-2.5,1.1-4.9,3.9-4.9
		c1.3,0,2.1,0.5,2.9,1.5L229,5.3c-0.6-0.8-1.2-1.2-2.3-1.2c-2.4,0-3,2.2-3,4.1c0,1.9,0.6,4.1,3,4.1c2,0,2.4-1.8,2.4-3.5h-2.3V7.9
		H229.9z"/>
	<path class="st0" d="M235.4,13.1c-1.9,0-3.3-0.7-3.7-2.5l0.8-0.1c0.3,1.4,1.6,1.8,2.9,1.8c1.2,0,2.5-0.6,2.5-2
		c0-2.8-5.9-1.2-5.9-4.5c0-1.7,1.5-2.4,3.1-2.4c1.5,0,2.6,0.5,3.3,1.9l-0.8,0.3c-0.5-1-1.4-1.4-2.5-1.4c-0.9,0-2.2,0.4-2.2,1.6
		c0,2.5,5.9,0.9,5.9,4.5C238.8,12.1,237.1,13.1,235.4,13.1z"/>
	<path class="st0" d="M243.3,13c-1.3,0-2.4-0.6-2.8-1.8l0.8-0.3c0.3,0.9,1.1,1.3,2,1.3c1.2,0,2.1-0.8,2.1-2c0-1.4-1-2-2.3-2V7.6
		c1.1,0,2.1-0.5,2.1-1.8c0-1.1-1-1.8-2-1.8c-0.8,0-1.6,0.5-1.9,1.2L240.6,5c0.5-1.1,1.5-1.7,2.7-1.7c1.5,0,2.8,1,2.8,2.6
		c0,1-0.5,1.7-1.4,2.1c1,0.4,1.7,1.2,1.7,2.3C246.3,12,245,13,243.3,13z"/>
	<path class="st0" d="M251.3,13c-2.6,0-3.3-2.7-3.3-4.9c0-2.2,0.7-4.9,3.3-4.9c2.6,0,3.2,2.7,3.2,4.9S253.9,13,251.3,13z M251.3,4.1
		c-2.1,0-2.4,2.6-2.4,4.1c0,1.4,0.3,4.1,2.4,4.1s2.4-2.6,2.4-4.1C253.7,6.7,253.4,4.1,251.3,4.1z"/>
	<path class="st0" d="M263,3.4h0.9c-1.5,1.3-2.2,3.2-2.2,4.8c0,1.6,0.7,3.5,2.2,4.8H263c-1.4-1.2-2.1-3.1-2.1-4.8S261.6,4.6,263,3.4
		z"/>
	<path class="st0" d="M269.8,8.5c0.3,0.2,0.5,0.5,0.8,0.9l2.1,3.5h-1l-2-3.4c-0.3-0.5-0.6-0.9-1.3-0.9h-1.5v4.3H266V3.4h3.3
		c1.8,0,3.1,0.8,3.1,2.6C272.3,7.4,271.5,8.3,269.8,8.5z M269.3,4.2h-2.4v3.6h2.4c1.2,0,2.2-0.4,2.2-1.8
		C271.5,4.6,270.5,4.2,269.3,4.2z"/>
	<path class="st0" d="M282.7,12.9h-0.9V5.5l-2.8,7.5h-0.7l-2.8-7.5v7.5h-0.9V3.4h0.9l3.2,8.4l3.2-8.4h0.9L282.7,12.9L282.7,12.9z"/>
	<path class="st0" d="M289.6,2.3L285.2,14h-0.8l4.4-11.6C288.8,2.3,289.6,2.3,289.6,2.3z"/>
	<path class="st0" d="M299.4,12.9h-0.8V9.2c0-1.1-0.2-2.2-1.7-2.2c-1.4,0-1.6,1.2-1.6,2.3v3.7h-0.8V9.2c0-1.1-0.3-2.2-1.7-2.2
		c-0.8,0-1.6,0.7-1.6,1.4v4.5h-0.8V6.3h0.7l0,0.9c0.4-0.7,1.1-1,1.7-1c0.9,0,1.6,0.4,2.1,1.3c0.4-1,1.1-1.3,2-1.3
		c1.8,0,2.5,1.3,2.5,3L299.4,12.9L299.4,12.9z"/>
	<path class="st0" d="M304,7h-1.1v4.3c0,0.7,0.2,0.9,0.9,0.9v0.7h-0.3c-1,0-1.4-0.7-1.4-1.6V7h-1V6.3h1v-2h0.8v2h1.1V7z"/>
	<path class="st0" d="M311.2,12.9h-0.8V9.2c0-1.2-0.4-2.2-1.9-2.2c-0.8,0-1.8,0.6-1.8,1.5v4.4h-0.8V3.4h0.8v3.8c0.4-0.7,1.2-1,1.9-1
		c1.9,0,2.6,1.2,2.6,3L311.2,12.9L311.2,12.9z"/>
	<path class="st0" d="M314.3,12.9h-0.9c1.5-1.3,2.2-3.2,2.2-4.8c0-1.6-0.7-3.5-2.2-4.8h0.9c1.3,1.2,2.1,3.1,2.1,4.8
		S315.6,11.7,314.3,12.9z"/>
</g>
<g>
	<path class="st0" d="M150.8,321.6h-7v-1.3c0.2-4,4.8-4.9,4.8-6.7c0-0.9-0.8-1.3-1.5-1.3c-0.8,0-1.4,0.7-1.7,1.3l-1.7-1
		c0.7-1.4,1.7-2.3,3.4-2.3c2,0,3.5,1.2,3.5,3.2c0,3-3.9,3.4-4.6,6.1h4.7L150.8,321.6L150.8,321.6z"/>
	<path class="st0" d="M160.5,319.8l1.5,1.8h-2.4l-0.4-0.5c-0.7,0.5-1.5,0.6-2.3,0.6c-3.2,0-4.6-2.8-4.6-5.6c0-3,1.3-5.6,4.6-5.6
		c3.4,0,4.6,2.8,4.6,5.6C161.4,317.4,161.2,318.6,160.5,319.8z M156.8,312.4c-2.2,0-2.6,1.9-2.6,3.6c0,1.6,0.5,3.6,2.5,3.6
		c0.3,0,0.6-0.1,0.8-0.2c-0.3-0.3-0.6-0.4-1-0.4v-1.6c0.9,0.1,1.6,0.3,2.4,0.9c0.3-0.7,0.4-1.5,0.4-2.2
		C159.4,314.4,158.9,312.4,156.8,312.4z"/>
	<path class="st0" d="M166.8,321.6h-1.9V313l-1.5,0.9l-0.9-1.5l2.8-1.9h1.4L166.8,321.6L166.8,321.6z"/>
	<path class="st0" d="M172.8,321.8c-2.1,0-3.7-1.4-3.7-3.5c0-1.1,0.6-2.1,1.6-2.7c-0.7-0.4-1.2-1.3-1.2-2.1c0-1.8,1.6-3,3.3-3
		c1.8,0,3.3,1.2,3.3,3c0,0.8-0.4,1.7-1.2,2.1c1,0.6,1.6,1.5,1.6,2.7C176.5,320.4,174.9,321.8,172.8,321.8z M172.8,316.5
		c-0.9,0-1.7,0.7-1.7,1.7c0,0.9,0.8,1.7,1.7,1.7c1,0,1.7-0.7,1.7-1.7C174.5,317.2,173.8,316.5,172.8,316.5z M172.8,312.2
		c-0.7,0-1.4,0.5-1.4,1.3c0,0.8,0.6,1.3,1.4,1.3c0.8,0,1.4-0.6,1.4-1.3C174.2,312.7,173.5,312.2,172.8,312.2z"/>
</g>
<g>
	<path class="st0" d="M29.8,319.2H29v2.5h-1.8v-2.5h-4.9v-1.6l4.3-6.9h2.1l-4.1,6.8h2.7v-3.1l1.8,0.2v2.9h0.9L29.8,319.2L29.8,319.2
		z"/>
	<path class="st0" d="M39.4,319.8l1.5,1.8h-2.4l-0.4-0.5c-0.7,0.5-1.5,0.6-2.3,0.6c-3.2,0-4.6-2.8-4.6-5.6c0-3,1.3-5.6,4.6-5.6
		c3.4,0,4.6,2.8,4.6,5.6C40.3,317.4,40.2,318.6,39.4,319.8z M35.7,312.4c-2.2,0-2.6,1.9-2.6,3.6c0,1.6,0.5,3.6,2.5,3.6
		c0.3,0,0.6-0.1,0.8-0.2c-0.3-0.3-0.6-0.4-1-0.4v-1.6c1,0.1,1.6,0.3,2.4,0.9c0.3-0.7,0.4-1.5,0.4-2.2
		C38.3,314.4,37.9,312.4,35.7,312.4z"/>
	<path class="st0" d="M45.7,321.6h-1.9V313l-1.5,0.9l-0.9-1.5l2.8-1.9h1.4C45.7,310.6,45.7,321.6,45.7,321.6z"/>
	<path class="st0" d="M54.8,312.2c-2.2,2.8-3.1,5.5-3.1,9.4h-2.1c0-3.4,1.1-6.7,3-9.2h-3.2v0.9h-1.7v-2.8h7L54.8,312.2L54.8,312.2z"
		/>
</g>
<g>
	<path class="st0" d="M89.4,321.6h-1.9V313l-1.5,0.9l-0.9-1.5l2.8-1.9h1.4V321.6z"/>
	<path class="st0" d="M100,319.8l1.5,1.8H99l-0.4-0.5c-0.7,0.5-1.5,0.6-2.3,0.6c-3.2,0-4.6-2.8-4.6-5.6c0-3,1.3-5.6,4.6-5.6
		c3.4,0,4.6,2.8,4.6,5.6C100.9,317.4,100.7,318.6,100,319.8z M96.3,312.4c-2.2,0-2.6,1.9-2.6,3.6c0,1.6,0.5,3.6,2.5,3.6
		c0.3,0,0.6-0.1,0.8-0.2c-0.3-0.3-0.6-0.4-1-0.4v-1.6c0.9,0.1,1.6,0.3,2.4,0.9c0.3-0.7,0.4-1.5,0.4-2.2
		C98.9,314.4,98.4,312.4,96.3,312.4z"/>
	<path class="st0" d="M106.3,321.6h-1.9V313l-1.5,0.9l-0.9-1.5l2.8-1.9h1.4V321.6z"/>
	<path class="st0" d="M112.3,321.8c-2.1,0-3.7-1.4-3.7-3.5c0-1.1,0.6-2.1,1.6-2.7c-0.7-0.4-1.2-1.3-1.2-2.1c0-1.8,1.6-3,3.3-3
		c1.8,0,3.3,1.2,3.3,3c0,0.8-0.4,1.7-1.2,2.1c1,0.6,1.6,1.5,1.6,2.7C116,320.4,114.4,321.8,112.3,321.8z M112.3,316.5
		c-0.9,0-1.7,0.7-1.7,1.7c0,0.9,0.8,1.7,1.7,1.7c1,0,1.7-0.7,1.7-1.7C114,317.2,113.3,316.5,112.3,316.5z M112.3,312.2
		c-0.7,0-1.4,0.5-1.4,1.3c0,0.8,0.6,1.3,1.4,1.3c0.8,0,1.4-0.6,1.4-1.3C113.7,312.7,113,312.2,112.3,312.2z"/>
</g>
<g>
	<path class="st0" d="M277.5,319.2h-0.9v2.5h-1.8v-2.5h-4.9v-1.6l4.3-6.9h2.1l-4.1,6.8h2.7v-3.1l1.8,0.2v2.9h0.9L277.5,319.2
		L277.5,319.2z"/>
	<path class="st0" d="M287,319.8l1.5,1.8h-2.4l-0.4-0.5c-0.7,0.5-1.5,0.6-2.3,0.6c-3.2,0-4.6-2.8-4.6-5.6c0-3,1.3-5.6,4.6-5.6
		c3.4,0,4.6,2.8,4.6,5.6C287.9,317.4,287.8,318.6,287,319.8z M283.4,312.4c-2.2,0-2.6,1.9-2.6,3.6c0,1.6,0.5,3.6,2.5,3.6
		c0.3,0,0.6-0.1,0.8-0.2c-0.3-0.3-0.6-0.4-1-0.4v-1.6c0.9,0.1,1.6,0.3,2.4,0.9c0.3-0.7,0.4-1.5,0.4-2.2
		C285.9,314.4,285.5,312.4,283.4,312.4z"/>
	<path class="st0" d="M293.3,321.6h-1.9V313l-1.5,0.9l-0.9-1.5l2.8-1.9h1.4V321.6z"/>
	<path class="st0" d="M299.3,321.8c-2.1,0-3.7-1.4-3.7-3.5c0-1.1,0.6-2.1,1.6-2.7c-0.7-0.4-1.2-1.3-1.2-2.1c0-1.8,1.6-3,3.3-3
		c1.8,0,3.3,1.2,3.3,3c0,0.8-0.4,1.7-1.2,2.1c1,0.6,1.6,1.5,1.6,2.7C303.1,320.4,301.5,321.8,299.3,321.8z M299.3,316.5
		c-1,0-1.7,0.7-1.7,1.7c0,0.9,0.8,1.7,1.7,1.7c1,0,1.7-0.7,1.7-1.7C301.1,317.2,300.3,316.5,299.3,316.5z M299.3,312.2
		c-0.7,0-1.4,0.5-1.4,1.3c0,0.8,0.6,1.3,1.4,1.3c0.8,0,1.4-0.6,1.4-1.3C300.7,312.7,300.1,312.2,299.3,312.2z"/>
</g>
<g>
	<path class="st0" d="M208.2,321.7c-1.8,0-3-0.8-3.6-2.5l1.8-0.7c0.2,0.8,0.9,1.3,1.7,1.3c0.9,0,1.7-0.6,1.7-1.6
		c0-1.3-1.1-1.6-2.2-1.6v-1.5c1,0,2-0.2,2-1.4c0-0.8-0.8-1.3-1.5-1.3c-0.8,0-1.3,0.5-1.6,1.2l-1.7-0.8c0.6-1.5,1.7-2.3,3.4-2.3
		c1.9,0,3.4,1.3,3.4,3.2c0,0.9-0.4,1.7-1.1,2.2c0.8,0.5,1.4,1.5,1.4,2.5C211.8,320.3,210.2,321.7,208.2,321.7z"/>
	<path class="st0" d="M221.5,319.8l1.5,1.8h-2.4l-0.4-0.5c-0.7,0.5-1.5,0.6-2.3,0.6c-3.2,0-4.6-2.8-4.6-5.6c0-3,1.3-5.6,4.6-5.6
		c3.4,0,4.6,2.8,4.6,5.6C222.4,317.4,222.2,318.6,221.5,319.8z M217.8,312.4c-2.2,0-2.6,1.9-2.6,3.6c0,1.6,0.5,3.6,2.5,3.6
		c0.3,0,0.6-0.1,0.8-0.2c-0.3-0.3-0.6-0.4-1-0.4v-1.6c0.9,0.1,1.6,0.3,2.4,0.9c0.3-0.7,0.4-1.5,0.4-2.2
		C220.4,314.4,219.9,312.4,217.8,312.4z"/>
	<path class="st0" d="M227.8,321.6h-1.9V313l-1.5,0.9l-0.9-1.5l2.8-1.9h1.4L227.8,321.6L227.8,321.6z"/>
	<path class="st0" d="M233.8,321.8c-2.1,0-3.7-1.4-3.7-3.5c0-1.1,0.6-2.1,1.6-2.7c-0.7-0.4-1.2-1.3-1.2-2.1c0-1.8,1.6-3,3.3-3
		c1.8,0,3.3,1.2,3.3,3c0,0.8-0.4,1.7-1.2,2.1c1,0.6,1.6,1.5,1.6,2.7C237.5,320.4,235.9,321.8,233.8,321.8z M233.8,316.5
		c-0.9,0-1.7,0.7-1.7,1.7c0,0.9,0.8,1.7,1.7,1.7c1,0,1.7-0.7,1.7-1.7C235.5,317.2,234.7,316.5,233.8,316.5z M233.8,312.2
		c-0.7,0-1.4,0.5-1.4,1.3c0,0.8,0.6,1.3,1.4,1.3c0.8,0,1.4-0.6,1.4-1.3C235.2,312.7,234.5,312.2,233.8,312.2z"/>
</g>
<polygon class="st0" points="103.7,190.8 38.5,190.8 38.5,189.8 103.5,189.8 159.6,168.1 283.7,168.1 283.7,169.1 159.7,169.1 "/>
<g class="st2">
	<path class="st3" d="M38.5,201.6c6.2,0,11.3-5.1,11.3-11.3S44.8,179,38.5,179s-11.3,5.1-11.3,11.3S32.3,201.6,38.5,201.6"/>
	<text transform="matrix(1 0 0 1 32.1226 194.6182)" class="st4 st5 st6">41</text>
	<circle class="st7" cx="38.5" cy="190.3" r="11.3"/>
	<path class="st3" d="M103.6,201.6c6.2,0,11.3-5.1,11.3-11.3s-5.1-11.3-11.3-11.3c-6.2,0-11.3,5.1-11.3,11.3S97.4,201.6,103.6,201.6
		"/>
	<text transform="matrix(1 0 0 1 97.2231 194.6182)" class="st4 st5 st6">41</text>
	<circle class="st7" cx="103.6" cy="190.3" r="11.3"/>
	<path class="st3" d="M162.3,179.9c6.2,0,11.3-5.1,11.3-11.3s-5.1-11.3-11.3-11.3s-11.3,5.1-11.3,11.3S156.1,179.9,162.3,179.9"/>
	<text transform="matrix(1 0 0 1 155.0034 172.918)" class="st4 st5 st6">42</text>
	<circle class="st7" cx="162.3" cy="168.6" r="11.3"/>
	<path class="st3" d="M221.1,179.9c6.2,0,11.3-5.1,11.3-11.3s-5.1-11.3-11.3-11.3s-11.3,5.1-11.3,11.3S214.8,179.9,221.1,179.9"/>
	<text transform="matrix(1 0 0 1 213.7188 172.918)" class="st4 st5 st6">42</text>
	<circle class="st7" cx="221.1" cy="168.6" r="11.3"/>
	<path class="st3" d="M280.6,179.9c6.2,0,11.3-5.1,11.3-11.3s-5.1-11.3-11.3-11.3s-11.3,5.1-11.3,11.3S274.4,179.9,280.6,179.9"/>
	<text transform="matrix(1 0 0 1 273.2891 172.918)" class="st4 st5 st6">42</text>
	<circle class="st7" cx="280.6" cy="168.6" r="11.3"/>
</g>
<g>
	<path class="st1" d="M38.3,202.5c6.8,0,12.3-5.5,12.3-12.3c0-6.8-5.5-12.3-12.3-12.3c-6.8,0-12.3,5.5-12.3,12.3
		C26,197,31.5,202.5,38.3,202.5"/>
	<g>
		<path class="st8" d="M38.2,192.8h-0.7v2.1H36v-2.1h-4.2v-1.4l3.6-5.9h1.8l-3.5,5.8H36v-2.6l1.6,0.2v2.4h0.7
			C38.2,191.3,38.2,192.8,38.2,192.8z"/>
		<path class="st8" d="M42.8,194.9h-1.6v-7.3l-1.3,0.8l-0.8-1.3l2.4-1.6h1.2V194.9z"/>
	</g>
	<path class="st0" d="M38.3,202.6c-6.9,0-12.4-5.6-12.4-12.4s5.6-12.4,12.4-12.4s12.4,5.6,12.4,12.4S45.2,202.6,38.3,202.6z
		 M38.3,178c-6.7,0-12.2,5.5-12.2,12.2s5.5,12.2,12.2,12.2s12.2-5.5,12.2-12.2S45,178,38.3,178z"/>
	<path class="st1" d="M103.5,202.5c6.8,0,12.3-5.5,12.3-12.3c0-6.8-5.5-12.3-12.3-12.3c-6.8,0-12.3,5.5-12.3,12.3
		C91.2,196.9,96.7,202.5,103.5,202.5"/>
	<g>
		<path class="st8" d="M103.4,192.8h-0.7v2.1h-1.6v-2.1h-4.2v-1.4l3.6-5.9h1.8l-3.5,5.8h2.3v-2.6l1.6,0.2v2.4h0.7V192.8z"/>
		<path class="st8" d="M107.9,194.8h-1.6v-7.3l-1.3,0.8l-0.8-1.3l2.4-1.6h1.2V194.8z"/>
	</g>
	<path class="st0" d="M103.5,202.6c-6.9,0-12.4-5.6-12.4-12.4s5.6-12.4,12.4-12.4s12.4,5.6,12.4,12.4S110.3,202.6,103.5,202.6z
		 M103.5,178c-6.7,0-12.2,5.5-12.2,12.2s5.5,12.2,12.2,12.2c6.7,0,12.2-5.5,12.2-12.2S110.2,178,103.5,178z"/>
	<path class="st1" d="M162.6,180.8c6.8,0,12.3-5.5,12.3-12.3c0-6.8-5.5-12.3-12.3-12.3c-6.8,0-12.3,5.5-12.3,12.3
		C150.3,175.3,155.8,180.8,162.6,180.8"/>
	<g>
		<path class="st8" d="M161.5,171.1h-0.7v2.1h-1.6v-2.1H155v-1.4l3.6-5.9h1.8l-3.5,5.8h2.3v-2.6l1.6,0.2v2.4h0.7V171.1z"/>
		<path class="st8" d="M168.8,173.2h-5.9v-1.1c0.2-3.4,4.1-4.2,4.1-5.7c0-0.7-0.6-1.1-1.3-1.1c-0.7,0-1.2,0.6-1.5,1.1l-1.4-0.8
			c0.6-1.2,1.5-1.9,2.9-1.9c1.7,0,3,1,3,2.7c0,2.6-3.3,2.9-3.9,5.2h4L168.8,173.2L168.8,173.2z"/>
	</g>
	<path class="st0" d="M162.6,180.9c-6.9,0-12.4-5.6-12.4-12.4c0-6.9,5.6-12.4,12.4-12.4s12.4,5.6,12.4,12.4
		C175,175.3,169.4,180.9,162.6,180.9z M162.6,156.3c-6.7,0-12.2,5.5-12.2,12.2c0,6.7,5.5,12.2,12.2,12.2c6.7,0,12.2-5.5,12.2-12.2
		S169.3,156.3,162.6,156.3z"/>
	<path class="st1" d="M220.7,180.8c6.8,0,12.3-5.5,12.3-12.3c0-6.8-5.5-12.3-12.3-12.3c-6.8,0-12.3,5.5-12.3,12.3
		C208.4,175.3,213.9,180.8,220.7,180.8"/>
	<g>
		<path class="st8" d="M219.6,171.1h-0.7v2.1h-1.6v-2.1h-4.2v-1.4l3.6-5.9h1.8l-3.5,5.8h2.3v-2.6l1.6,0.2v2.4h0.7V171.1z"/>
		<path class="st8" d="M226.9,173.2H221v-1.1c0.2-3.4,4.1-4.2,4.1-5.7c0-0.7-0.6-1.1-1.3-1.1c-0.7,0-1.2,0.6-1.5,1.1l-1.4-0.8
			c0.6-1.2,1.5-1.9,2.9-1.9c1.7,0,3,1,3,2.7c0,2.6-3.3,2.9-3.9,5.2h4L226.9,173.2L226.9,173.2z"/>
	</g>
	<path class="st0" d="M220.7,180.9c-6.9,0-12.4-5.6-12.4-12.4c0-6.9,5.6-12.4,12.4-12.4s12.4,5.6,12.4,12.4
		C233.1,175.3,227.5,180.9,220.7,180.9z M220.7,156.3c-6.7,0-12.2,5.5-12.2,12.2c0,6.7,5.5,12.2,12.2,12.2s12.2-5.5,12.2-12.2
		S227.4,156.3,220.7,156.3z"/>
	<path class="st1" d="M281.7,180.8c6.8,0,12.3-5.5,12.3-12.3c0-6.8-5.5-12.3-12.3-12.3c-6.8,0-12.3,5.5-12.3,12.3
		C269.4,175.3,274.9,180.8,281.7,180.8"/>
	<g>
		<path class="st8" d="M280.6,171.1h-0.7v2.1h-1.6v-2.1h-4.2v-1.4l3.6-5.9h1.8l-3.5,5.8h2.3v-2.6l1.6,0.2v2.4h0.7V171.1z"/>
		<path class="st8" d="M287.9,173.2H282v-1.1c0.2-3.4,4.1-4.2,4.1-5.7c0-0.7-0.6-1.1-1.3-1.1c-0.7,0-1.2,0.6-1.5,1.1l-1.4-0.8
			c0.6-1.2,1.5-1.9,2.9-1.9c1.7,0,3,1,3,2.7c0,2.6-3.3,2.9-3.9,5.2h4V173.2z"/>
	</g>
	<path class="st0" d="M281.7,180.9c-6.9,0-12.4-5.6-12.4-12.4c0-6.9,5.6-12.4,12.4-12.4s12.4,5.6,12.4,12.4
		C294.1,175.3,288.5,180.9,281.7,180.9z M281.7,156.3c-6.7,0-12.2,5.5-12.2,12.2c0,6.7,5.5,12.2,12.2,12.2s12.2-5.5,12.2-12.2
		C293.9,161.7,288.4,156.3,281.7,156.3z"/>
</g>
<rect x="0.2" y="300.9" class="st9" width="319.8" height="2"/>
</svg>
