<?xml version="1.0" standalone="no"?>
<!DOCTYPE svg PUBLIC "-//W3C//DTD SVG 1.1//EN" "http://www.w3.org/Graphics/SVG/1.1/DTD/svg11.dtd" >
<svg>
<metadata>
Created by FontForge 20090622 at Wed Mar 13 11:25:28 2019
 By deploy user
Copyright (c) 2008 by Neil Summerour. All rights reserved.
</metadata>
<defs>
<font id="AauxNext-Medium" horiz-adv-x="491" >
  <font-face 
    font-family="Aaux Next Medium"
    font-weight="400"
    font-stretch="normal"
    units-per-em="1000"
    panose-1="2 0 5 6 0 0 0 2 0 3"
    ascent="800"
    descent="-200"
    x-height="485"
    cap-height="698"
    bbox="-108 -273 1050 1030"
    underline-thickness="50"
    underline-position="-50"
    unicode-range="U+0020-U+FB04"
  />
<missing-glyph horiz-adv-x="284" 
 />
    <glyph glyph-name="f_f" unicode="ff" horiz-adv-x="592" 
d="M385 420h-213v-420h-73v420h-49v65h49v43q0 81 42.5 123t139.5 47v-63q-60 -4 -84.5 -32.5t-24.5 -90.5v-27h213v43q0 81 42.5 123t139.5 47v-63q-60 -4 -85 -32.5t-25 -90.5v-27h96v-65h-96v-420h-72v420z" />
    <glyph glyph-name="f_l" unicode="fl" horiz-adv-x="532" 
d="M497 66v-65q-126 3 -126 120v514h-90q-59 0 -84 -30t-25 -93v-27h95v-65h-95v-420h-73v420h-49v65h49v43q0 170 182 170h163v-577q0 -51 53 -55z" />
    <glyph glyph-name="f_f_i" unicode="ffi" horiz-adv-x="822" 
d="M385 420h-213v-420h-73v420h-49v65h49v43q0 81 42.5 123t139.5 47v-63q-60 -4 -84.5 -32.5t-24.5 -90.5v-27h213v43q0 81 42.5 123t139.5 47v-63q-60 -4 -85 -32.5t-25 -90.5v-27h286v-485h-74v420h-212v-420h-72v420zM759 658q0 -21 -15 -36.5t-37 -15.5t-37.5 15.5
t-15.5 36.5q0 22 15.5 37.5t37.5 15.5t37 -15.5t15 -37.5z" />
    <glyph glyph-name="f_f_l" unicode="ffl" horiz-adv-x="818" 
d="M281 698v-63q-60 -4 -84.5 -32.5t-24.5 -90.5v-27h213v43q0 170 182 170h162v-577q0 -51 54 -55v-65q-126 3 -126 120v514h-90q-59 0 -84.5 -30t-25.5 -93v-27h96v-65h-96v-420h-72v420h-213v-420h-73v420h-49v65h49v43q0 81 42.5 123t139.5 47z" />
    <glyph glyph-name="f_b" unicode="fb" horiz-adv-x="805" 
d="M281 698h168v-262q42 58 121 58q54 0 93 -20t60.5 -56.5t31.5 -79.5t10 -95q0 -113 -46.5 -182.5t-152.5 -69.5q-91 0 -126 62l-3 -53h-63v635h-93q-58 0 -83.5 -30t-25.5 -93v-27h95v-65h-95v-420h-73v420h-49v65h49v43q0 170 182 170zM690 242q0 35 -4.5 62.5t-16 56
t-38.5 44.5t-66 16q-49 0 -82.5 -29t-33.5 -77v-145q0 -49 33.5 -77.5t82.5 -28.5q32 0 55.5 11t36.5 28t21 42t10 47t2 50z" />
    <glyph glyph-name="f_f_b" unicode="ffb" horiz-adv-x="1091" 
d="M975 242q0 85 -27 132t-97 47q-47 0 -81.5 -27t-34.5 -79v-145q0 -48 33 -77t83 -29q69 0 96.5 46.5t27.5 131.5zM567 698h168v-262q40 58 121 58q104 0 149 -69.5t45 -181.5q0 -53 -10 -96t-32 -79.5t-62 -56.5t-95 -20q-89 0 -126 62l-2 -53h-64v635h-92
q-55 0 -82.5 -29.5t-27.5 -94.5v-26h96v-65h-96v-420h-72v420h-213v-420h-73v420h-49v65h49v43q0 79 38.5 122t143.5 48v-63q-63 -4 -86 -34t-23 -89v-27h213v43q0 37 7 64.5t25 53t56 39t94 13.5z" />
    <glyph glyph-name="f_h" unicode="fh" horiz-adv-x="818" 
d="M281 698h168v-264q39 61 125 61q97 0 144 -59t47 -161v-275h-75v275q0 145 -125 145q-42 0 -79 -28.5t-37 -71.5v-320h-75v635h-93q-59 0 -84 -30t-25 -93v-27h95v-65h-95v-420h-73v420h-49v65h49v43q0 170 182 170z" />
    <glyph glyph-name="f_f_h" unicode="ffh" horiz-adv-x="1104" 
d="M172 485h213v43q0 170 182 170h168v-264q39 61 124 61q98 0 144.5 -59t46.5 -161v-275h-75v275q0 145 -124 145q-43 0 -79.5 -28.5t-36.5 -71.5v-320h-76v635h-92q-60 0 -85 -30t-25 -93v-27h96v-65h-96v-420h-72v420h-213v-420h-73v420h-49v65h49v43q0 81 42.5 123
t139.5 47v-63q-60 -4 -84.5 -32.5t-24.5 -90.5v-27z" />
    <glyph glyph-name="f_i" unicode="fi" horiz-adv-x="536" 
d="M458 485v-485h-75v420h-211v-420h-73v420h-49v65h49v43q0 81 42.5 123t139.5 47v-63q-60 -4 -84.5 -32.5t-24.5 -90.5v-27h286zM474 658q0 -21 -15.5 -36.5t-37.5 -15.5t-37 15.5t-15 36.5q0 22 15 37.5t37 15.5t37.5 -15.5t15.5 -37.5z" />
    <glyph glyph-name="f_j" unicode="fj" horiz-adv-x="536" 
d="M459 485v-514q0 -82 -40.5 -131t-122.5 -56l-20 66q109 9 109 126v444h-213v-420h-73v420h-49v65h49v43q0 81 42.5 123t139.5 47v-63q-60 -4 -84.5 -32.5t-24.5 -90.5v-27h287zM476 658q0 -21 -15.5 -36.5t-37.5 -15.5t-37.5 15.5t-15.5 36.5q0 22 15.5 37.5t37.5 15.5
t37.5 -15.5t15.5 -37.5z" />
    <glyph glyph-name="f_f_j" unicode="ffj" horiz-adv-x="822" 
d="M567 698v-63q-60 -4 -85 -32.5t-25 -90.5v-27h288v-514q0 -82 -41 -131t-123 -56l-19 66q109 9 109 126v444h-214v-420h-72v420h-213v-420h-73v420h-49v65h49v43q0 81 42.5 123t139.5 47v-63q-60 -4 -84.5 -32.5t-24.5 -90.5v-27h213v43q0 81 42.5 123t139.5 47zM762 658
q0 -21 -16 -36.5t-38 -15.5q-21 0 -36.5 15.5t-15.5 36.5q0 22 15.5 37.5t36.5 15.5q23 0 38.5 -15.5t15.5 -37.5z" />
    <glyph glyph-name="f_k" unicode="fk" horiz-adv-x="755" 
d="M281 698h164v-698h-74v635h-90q-59 0 -84 -30t-25 -93v-27h95v-65h-95v-420h-73v420h-49v65h49v43q0 170 182 170zM531 262l211 -262h-85l-206 261l175 224h81z" />
    <glyph glyph-name="f_f_k" unicode="ffk" horiz-adv-x="1041" 
d="M567 698h163v-698h-73v635h-90q-59 0 -84.5 -30t-25.5 -93v-27h96v-65h-96v-420h-72v420h-213v-420h-73v420h-49v65h49v43q0 81 42.5 123t139.5 47v-63q-60 -4 -84.5 -32.5t-24.5 -90.5v-27h213v43q0 170 182 170zM817 262l211 -262h-85l-207 261l176 224h81z" />
    <glyph glyph-name=".notdef" horiz-adv-x="284" 
 />
    <glyph glyph-name=".null" horiz-adv-x="0" 
 />
    <glyph glyph-name="nonmarkingreturn" horiz-adv-x="333" 
 />
    <glyph glyph-name="space" unicode=" " horiz-adv-x="284" 
 />
    <glyph glyph-name="exclam" unicode="!" horiz-adv-x="302" 
d="M109 698h84v-315l-10 -190h-63l-11 190v315zM207 47q0 -23 -16.5 -39.5t-39.5 -16.5t-39.5 16.5t-16.5 39.5t16.5 39.5t39.5 16.5t39.5 -16.5t16.5 -39.5z" />
    <glyph glyph-name="quotedbl" unicode="&#x22;" horiz-adv-x="377" 
d="M312 697v-160h-80v160q0 16 12 27.5t28 11.5t28 -11.5t12 -27.5zM145 697v-160h-79v160q0 16 11.5 27.5t27.5 11.5t28 -11.5t12 -27.5z" />
    <glyph glyph-name="numbersign" unicode="#" horiz-adv-x="707" 
d="M528 491h124l-14 -65h-124l-34 -154h125l-14 -65h-124l-45 -207h-66l44 207h-155l-45 -207h-66l45 207h-125l15 65h124l32 154h-123l14 65h124l45 207h66l-45 -207h155l45 207h67zM415 272l33 154h-156l-33 -154h156z" />
    <glyph glyph-name="dollar" unicode="$" horiz-adv-x="532" 
d="M484 226q0 -73 -52.5 -119t-127.5 -54v-53h-63v54q-71 7 -121.5 45t-69.5 105l65 16q24 -86 126 -98v217q-82 19 -128 52t-46 101q0 69 51 107t123 43v56h63v-56q101 -11 154 -95l-52 -38q-32 53 -102 66v-183q39 -10 67 -21t56 -30t42.5 -48t14.5 -67zM241 408v167
q-43 -3 -74.5 -23t-31.5 -60q0 -19 8.5 -33.5t25.5 -24t32 -14.5t40 -12zM415 225q0 41 -29.5 62t-81.5 35v-201q47 5 79 32t32 72z" />
    <glyph glyph-name="percent" unicode="%" horiz-adv-x="810" 
d="M756 185q0 -82 -36 -138.5t-112 -56.5t-112 56.5t-36 138.5t36 139t112 57t112 -57t36 -139zM523 698h74l-310 -698h-75zM350 513q0 -83 -36 -139.5t-112 -56.5t-112 56.5t-36 139.5q0 82 36 138.5t112 56.5t112 -56.5t36 -138.5zM694 185q0 135 -86 135q-87 0 -87 -135
t87 -135q86 0 86 135zM288 513q0 135 -86 135t-86 -135q0 -136 86 -136t86 136z" />
    <glyph glyph-name="ampersand" unicode="&#x26;" horiz-adv-x="677" 
d="M606 44l-49 -52q-10 8 -23 19.5l-29.5 26.5l-25.5 23q-79 -71 -206 -71q-94 0 -156.5 51.5t-62.5 142.5q0 70 32 117.5t101 91.5q-35 51 -51.5 85.5t-16.5 75.5q0 68 43.5 109.5t110.5 41.5t109 -41t42 -107q0 -57 -35.5 -99t-100.5 -83q78 -105 184 -206q43 65 45 152
h74q-2 -123 -65 -205l37.5 -34zM349 557q0 34 -21 56.5t-55 22.5q-36 0 -58.5 -23t-22.5 -58q0 -52 56 -127q25 16 38 26t30.5 26.5t25 35.5t7.5 41zM427 115q-108 103 -196 221q-51 -32 -75 -65.5t-24 -84.5q0 -60 44.5 -93t105.5 -33q83 0 145 55z" />
    <glyph glyph-name="quotesingle" unicode="'" horiz-adv-x="221" 
d="M150 697v-160h-80v160q0 16 12 27.5t28 11.5t28 -11.5t12 -27.5z" />
    <glyph glyph-name="parenleft" unicode="(" horiz-adv-x="354" 
d="M67 349q0 95 40 188.5t113 160.5h84q-83 -71 -125 -164t-42 -185q0 -91 41.5 -183t124.5 -166h-83q-74 66 -113.5 159.5t-39.5 189.5z" />
    <glyph glyph-name="parenright" unicode=")" horiz-adv-x="354" 
d="M304 349q0 -96 -40 -189.5t-114 -159.5h-83q83 74 124.5 166t41.5 183q0 92 -42 185t-124 164h83q73 -67 113.5 -160.5t40.5 -188.5z" />
    <glyph glyph-name="asterisk" unicode="*" horiz-adv-x="453" 
d="M385 615l18 -59l-134 -39l86 -111l-50 -36l-79 116l-78 -116l-50 36l85 111l-134 39l19 59l132 -48l-4 140h61l-4 -140z" />
    <glyph glyph-name="plus" unicode="+" horiz-adv-x="514" 
d="M467 309v-70h-175v-175h-70v175h-175v70h175v174h70v-174h175z" />
    <glyph glyph-name="comma" unicode="," horiz-adv-x="214" 
d="M166 49v-49l-74 -132h-34v181q0 23 15.5 39.5t36.5 16.5q24 0 40 -16.5t16 -39.5z" />
    <glyph glyph-name="hyphen" unicode="-" horiz-adv-x="401" 
d="M338 303v-63h-275v63h275z" />
    <glyph glyph-name="period" unicode="." horiz-adv-x="260" 
d="M187 50q0 -24 -16.5 -40.5t-40.5 -16.5q-23 0 -40 16.5t-17 40.5q0 23 17 39.5t40 16.5q24 0 40.5 -16.5t16.5 -39.5z" />
    <glyph glyph-name="slash" unicode="/" horiz-adv-x="425" 
d="M338 774h73l-324 -850h-73z" />
    <glyph glyph-name="zero" unicode="0" horiz-adv-x="584" 
d="M534 350q0 -51 -7 -98.5t-24 -95.5t-43.5 -83.5t-69.5 -57.5t-97 -22q-68 0 -117.5 32.5t-75.5 87t-38 113.5t-12 123q0 65 12 123.5t38 113t75.5 87t117.5 32.5q67 0 116.5 -32.5t75 -86.5t37.5 -112.5t12 -123.5zM454 349q0 35 -3 67.5t-13 73.5t-26.5 70t-47 49.5
t-71.5 20.5q-51 0 -86 -28.5t-50.5 -76t-21.5 -89t-6 -87.5q0 -45 6 -86.5t21.5 -89.5t50.5 -77t86 -29t85.5 29t49.5 77t20.5 89t5.5 87z" />
    <glyph glyph-name="one" unicode="1" horiz-adv-x="378" 
d="M262 698v-698h-78v598l-110 -74l-37 59l164 115h61z" />
    <glyph glyph-name="two" unicode="2" horiz-adv-x="551" 
d="M496 75v-75h-435v54q11 58 35.5 107.5t55 83t65 62.5t67 52.5t59 46.5t42.5 50.5t16 59.5q0 54 -39.5 84.5t-95.5 30.5q-43 0 -79 -24t-58 -64l-67 38q68 125 203 125q95 0 155.5 -50.5t60.5 -140.5q0 -41 -15 -76t-40 -61t-56 -49.5l-64.5 -49t-63.5 -53t-55 -66.5
t-37 -85h346z" />
    <glyph glyph-name="three" unicode="3" horiz-adv-x="528" 
d="M478 200q0 -93 -62.5 -150t-156.5 -57q-160 0 -211 139l71 29q16 -44 53 -68.5t86 -24.5q60 0 101 36.5t41 95.5q0 69 -44.5 100.5t-116.5 32.5v61q64 1 104 29.5t40 90.5q0 50 -40 83.5t-92 33.5q-43 0 -77 -23t-50 -62l-70 30q57 130 200 130q86 0 146 -54t60 -138
q0 -105 -94 -149q52 -21 82 -64.5t30 -100.5z" />
    <glyph glyph-name="four" unicode="4" horiz-adv-x="549" 
d="M504 245v-73h-63v-172h-74v172h-329v70l287 456h83l-283 -453h242v247l74 -10v-237h63z" />
    <glyph glyph-name="five" unicode="5" horiz-adv-x="538" 
d="M492 237q0 -109 -60.5 -175.5t-169.5 -66.5q-76 0 -129 38.5t-78 108.5l73 23q17 -44 52 -69.5t83 -25.5q73 0 112.5 47.5t39.5 119.5q0 70 -39 116.5t-112 46.5q-68 0 -120 -50h-71v348h371v-74h-300v-195q54 42 123 42q106 0 165.5 -64.5t59.5 -169.5z" />
    <glyph glyph-name="six" unicode="6" horiz-adv-x="543" 
d="M497 215q0 -98 -61.5 -160t-159.5 -62q-103 0 -165.5 72t-62.5 177q0 134 63 255t171 201h96q-191 -143 -240 -338q50 81 144 81q96 0 155.5 -64.5t59.5 -161.5zM420 217q0 64 -40.5 107.5t-104.5 43.5q-61 0 -103.5 -44.5t-42.5 -105.5q0 -60 43.5 -103.5t103.5 -43.5
q61 0 102.5 42.5t41.5 103.5z" />
    <glyph glyph-name="seven" unicode="7" horiz-adv-x="498" 
d="M462 698v-67q-107 -135 -164 -284t-55 -347h-84q0 357 216 624h-271v-58h-68v132h426z" />
    <glyph glyph-name="eight" unicode="8" horiz-adv-x="541" 
d="M496 202q0 -95 -64 -152.5t-162 -57.5t-161 57.5t-63 152.5q0 57 29.5 102.5t88.5 70.5q-46 19 -70.5 60.5t-24.5 85.5q0 81 58.5 133t142.5 52t143 -52t59 -133q0 -44 -24 -85t-72 -61q120 -51 120 -173zM395 519q0 50 -37 83t-88 33q-50 0 -87.5 -33t-37.5 -83
q0 -53 35.5 -84.5t89.5 -31.5t89.5 31.5t35.5 84.5zM416 204q0 62 -41.5 98.5t-104.5 36.5t-104 -36.5t-41 -98.5q0 -59 43 -97.5t102 -38.5q61 0 103.5 38t42.5 98z" />
    <glyph glyph-name="nine" unicode="9" horiz-adv-x="533" 
d="M485 456q0 -131 -59 -252.5t-169 -203.5h-100q91 71 152.5 150.5t85.5 186.5q-46 -72 -138 -72q-93 0 -153.5 62t-60.5 154q0 96 61.5 160.5t157.5 64.5q103 0 163 -72.5t60 -177.5zM402 486q0 59 -41.5 102t-101.5 43t-100.5 -43.5t-40.5 -102.5t41 -102t101 -43
q62 0 102 42.5t40 103.5z" />
    <glyph glyph-name="colon" unicode=":" horiz-adv-x="260" 
d="M187 356q0 -23 -16.5 -40t-40.5 -17q-23 0 -40 17t-17 40q0 24 17 41t40 17q24 0 40.5 -17t16.5 -41zM187 48q0 -24 -16.5 -40.5t-40.5 -16.5q-23 0 -40 16.5t-17 40.5q0 23 17 40t40 17q24 0 40.5 -17t16.5 -40z" />
    <glyph glyph-name="semicolon" unicode=";" horiz-adv-x="228" 
d="M166 356q0 -23 -16 -40t-38 -17t-38 17t-16 40q0 24 16 41t38 17t38 -17t16 -41zM166 49v-50l-74 -131h-34v181q0 22 15.5 38.5t36.5 16.5q24 0 40 -16t16 -39z" />
    <glyph glyph-name="less" unicode="&#x3c;" horiz-adv-x="493" 
d="M340 698h96l-287 -349l287 -349h-96l-288 349z" />
    <glyph glyph-name="equal" unicode="=" horiz-adv-x="529" 
d="M472 397v-68h-415v68h415zM472 190v-69h-415v69h415z" />
    <glyph glyph-name="greater" unicode="&#x3e;" horiz-adv-x="493" 
d="M154 698l287 -349l-287 -349h-96l287 349l-287 349h96z" />
    <glyph glyph-name="question" unicode="?" horiz-adv-x="504" 
d="M455 521q0 -54 -24 -84t-65 -53q-45 -25 -64 -49.5t-21 -63.5l-5 -84h-53q-7 70 -7 85q0 45 15 77t30.5 45t43.5 30q1 1 11.5 7t12.5 7t10.5 6.5t10.5 8t9 8t8.5 9t6 10t5.5 12.5t2.5 13.5t1.5 15.5q0 54 -37.5 85t-94.5 31q-54 0 -94 -29t-43 -85h-70q3 87 63 135
t144 48q88 0 146 -50t58 -135zM306 46q0 -23 -16.5 -39t-39.5 -16t-39 16t-16 39q0 22 16 38t39 16t39.5 -16t16.5 -38z" />
    <glyph glyph-name="at" unicode="@" horiz-adv-x="726" 
d="M659 408q0 -25 -9.5 -73t-10.5 -59l-18 -278l-64 4l6 103q-73 -117 -174 -117q-73 0 -112.5 56t-39.5 132q0 66 29.5 137.5t87.5 124t126 52.5t107 -80q3 54 -11 104t-51.5 87t-92.5 37q-65 0 -124.5 -40t-99 -100.5t-62.5 -130.5t-23 -131q0 -126 79 -196l-34 -50
q-54 42 -81 108t-27 140q0 73 28 154t75.5 149.5t118.5 113.5t149 45q110 0 169 -86.5t59 -205.5zM569 295q0 47 -22.5 89.5t-65.5 42.5q-50 0 -92.5 -44t-64 -101t-21.5 -105t20.5 -87t64.5 -39q49 0 92.5 43t66 99t22.5 102z" />
    <glyph glyph-name="A" unicode="A" horiz-adv-x="637" 
d="M360 698l268 -698h-85l-75 200h-299l-75 -200h-85l268 698h83zM195 270h246l-123 326z" />
    <glyph glyph-name="B" unicode="B" horiz-adv-x="617" 
d="M575 198q0 -104 -65.5 -151t-175.5 -47h-261v698h244q105 0 168 -46t63 -145q0 -97 -87 -144q58 -23 86 -67t28 -98zM470 507q0 116 -152 116h-165v-234h168q69 0 109 25.5t40 92.5zM495 197q0 124 -161 124h-181v-245h181q35 0 61 5t50 17t37 37t13 62z" />
    <glyph glyph-name="C" unicode="C" horiz-adv-x="592" 
d="M498 158l57 -53q-52 -62 -100.5 -88t-123.5 -26t-132 29.5t-90.5 80.5t-49.5 113.5t-16 134.5q0 73 16 135t49 113t90 80.5t132 29.5q72 0 123 -26t100 -83l-57 -54q-38 43 -75 63.5t-91 20.5q-59 0 -101 -24.5t-64 -67t-31.5 -88.5t-9.5 -99t9.5 -99t31.5 -88.5t64 -67
t101 -24.5q54 0 92 21.5t76 66.5z" />
    <glyph glyph-name="D" unicode="D" horiz-adv-x="636" 
d="M580 349q0 -80 -5.5 -130.5t-23.5 -96.5t-52 -70t-89.5 -38t-137.5 -14h-199v698h199q82 0 137.5 -14t89.5 -38t52 -70t23.5 -96.5t5.5 -130.5zM500 349q0 58 -0.5 83.5t-6.5 63.5t-19 59q-21 34 -65.5 49.5t-122.5 15.5h-133v-541h133q78 0 122.5 15.5t65.5 50.5
q13 21 19 57.5t6.5 62t0.5 84.5z" />
    <glyph glyph-name="E" unicode="E" horiz-adv-x="577" 
d="M527 78v-78h-454v698h454v-78h-374v-222h327v-75h-327v-245h374z" />
    <glyph glyph-name="F" unicode="F" horiz-adv-x="557" 
d="M517 698v-78h-365v-222h327v-74h-327v-324h-79v698h444z" />
    <glyph glyph-name="G" unicode="G" horiz-adv-x="625" 
d="M328 370h238v-370h-69v102q-49 -111 -175 -111q-74 0 -129.5 30t-87 81.5t-47 113.5t-15.5 133t16 133.5t48.5 114t88.5 81t130 29.5q73 0 123 -27.5t98 -87.5l-57 -51q-37 45 -73.5 66t-90.5 21q-59 0 -101 -24.5t-63 -67t-30 -88t-9 -99.5q0 -42 5 -78.5t18.5 -74.5
t35.5 -65t58.5 -44t83.5 -17q46 0 79.5 19t51 53t25.5 72.5t8 84.5h-160v71z" />
    <glyph glyph-name="H" unicode="H" horiz-adv-x="658" 
d="M585 698v-698h-80v323h-352v-323h-80v698h80v-300h352v300h80z" />
    <glyph glyph-name="I" unicode="I" horiz-adv-x="249" 
d="M164 698v-698h-80v698h80z" />
    <glyph glyph-name="J" unicode="J" horiz-adv-x="542" 
d="M472 698v-484q0 -109 -57 -165t-169 -56q-172 0 -219 160l77 21q31 -103 142 -103q77 0 112 35.5t35 109.5v482h79z" />
    <glyph glyph-name="K" unicode="K" horiz-adv-x="574" 
d="M524 698l-272 -346l298 -352h-98l-290 351l272 347h90zM153 0h-80v698h80v-698z" />
    <glyph glyph-name="L" unicode="L" horiz-adv-x="519" 
d="M486 75v-75h-413v698h79v-623h334z" />
    <glyph glyph-name="M" unicode="M" horiz-adv-x="739" 
d="M670 698v-698h-80v499l-191 -499h-60l-191 498v-498h-80v698h79l222 -580l224 580h77z" />
    <glyph glyph-name="N" unicode="N" horiz-adv-x="635" 
d="M562 698v-698h-72l-337 543v-543h-80v698h73l336 -543v543h80z" />
    <glyph glyph-name="O" unicode="O" horiz-adv-x="649" 
d="M606 349q0 -72 -15 -134t-47 -113.5t-88.5 -81t-131.5 -29.5t-131 29.5t-88 81t-47 113.5t-15 134t15 134t47 113.5t88 81t131 29.5t131.5 -29.5t88.5 -81t47 -113.5t15 -134zM526 349q0 54 -8.5 99t-29.5 88t-62.5 67.5t-101.5 24.5q-48 0 -84.5 -17t-58 -43.5
t-35 -64.5t-18.5 -75t-5 -79t5 -79t18.5 -75t35 -64.5t58 -43.5t84.5 -17q60 0 101.5 24.5t62.5 67.5t29.5 88t8.5 99z" />
    <glyph glyph-name="P" unicode="P" horiz-adv-x="603" 
d="M566 500q0 -197 -229 -197h-184v-303h-80v698h262q107 0 169 -47.5t62 -150.5zM486 500q0 70 -41 95.5t-112 25.5h-180v-244h180q71 0 112 26.5t41 96.5z" />
    <glyph glyph-name="Q" unicode="Q" horiz-adv-x="649" 
d="M606 349q0 -163 -67 -252l78 -97h-98l-35 43q-72 -52 -160 -52q-74 0 -130 30t-88 81.5t-47.5 113.5t-15.5 133q0 73 15.5 135t47.5 113t88 80.5t130 29.5q76 0 132.5 -30t88 -81.5t46.5 -113t15 -133.5zM526 349q0 54 -8.5 99t-29 87.5t-62.5 67t-101 24.5t-101 -24.5
t-63 -66.5t-29.5 -87t-8.5 -99q0 -52 9 -97t30 -87t62 -66.5t99 -24.5q56 0 101 34q-47 48 -100 55v64q89 -12 157 -72q45 69 45 193z" />
    <glyph glyph-name="R" unicode="R" horiz-adv-x="609" 
d="M545 502q0 -76 -45.5 -124t-130.5 -61q25 -18 49 -59l158 -258h-93l-146 246q-19 32 -38.5 48t-52.5 16h-93v-310h-80v698h244q104 0 166 -48.5t62 -147.5zM465 502q0 119 -148 119h-164v-240h164q148 0 148 121z" />
    <glyph glyph-name="S" unicode="S" horiz-adv-x="605" 
d="M564 199q0 -96 -73.5 -152t-175.5 -56q-227 0 -272 187l76 15q32 -127 196 -127q66 0 118 34.5t52 98.5q0 39 -23 65t-60 40t-81.5 24.5t-89 23.5t-81.5 31.5t-60 54t-23 85.5q0 88 66.5 135t160.5 47q88 0 147.5 -33.5t97.5 -107.5l-69 -32q-29 53 -71 75.5t-105 22.5
q-57 0 -102.5 -25.5t-45.5 -81.5q0 -38 31 -63.5t77.5 -36t100.5 -26.5t100.5 -34.5t77.5 -60.5t31 -103z" />
    <glyph glyph-name="T" unicode="T" horiz-adv-x="561" 
d="M537 698v-78h-216v-620h-80v620h-216v78h512z" />
    <glyph glyph-name="U" unicode="U" horiz-adv-x="643" 
d="M578 698v-404q0 -303 -256 -303t-256 303v404h79v-400q0 -49 7 -86.5t25 -71.5t54.5 -52.5t90.5 -18.5t90.5 18t54 52.5t24.5 71.5t7 87v400h80z" />
    <glyph glyph-name="V" unicode="V" horiz-adv-x="585" 
d="M486 698h83l-236 -698h-81l-236 698h83l194 -581z" />
    <glyph glyph-name="W" unicode="W" horiz-adv-x="815" 
d="M711 698h81l-163 -698h-90l-132 547l-132 -547h-89l-163 698h81l129 -566l139 566h70l140 -566z" />
    <glyph glyph-name="X" unicode="X" horiz-adv-x="609" 
d="M350 360l235 -360h-95l-185 291l-187 -291h-94l234 360l-221 338h96l172 -270l171 270h95z" />
    <glyph glyph-name="Y" unicode="Y" horiz-adv-x="587" 
d="M476 698h89l-231 -467v-231h-80v231l-231 467h89l182 -376z" />
    <glyph glyph-name="Z" unicode="Z" horiz-adv-x="585" 
d="M533 79v-79h-490v64l382 556h-351v78h455v-68l-380 -551h384z" />
    <glyph glyph-name="bracketleft" unicode="[" horiz-adv-x="300" 
d="M250 -19v-49h-175v834h175v-49h-105v-736h105z" />
    <glyph glyph-name="backslash" unicode="\" horiz-adv-x="425" 
d="M87 774l324 -850h-73l-324 850h73z" />
    <glyph glyph-name="bracketright" unicode="]" horiz-adv-x="300" 
d="M237 766v-834h-176v49h105v736h-105v49h176z" />
    <glyph glyph-name="asciicircum" unicode="^" horiz-adv-x="537" 
d="M303 702l183 -298l-60 -32l-157 259l-159 -259l-59 32l184 298h68z" />
    <glyph glyph-name="underscore" unicode="_" horiz-adv-x="525" 
d="M502 0v-63h-479v63h479z" />
    <glyph glyph-name="grave" unicode="`" horiz-adv-x="320" 
d="M161 688l85 -153h-61l-110 153h86z" />
    <glyph glyph-name="a" unicode="a" horiz-adv-x="477" 
d="M417 81l17 -73l-65 -16l-13 49q-63 -52 -141 -52q-75 0 -124.5 39.5t-49.5 110.5q0 66 45 104t123 40h75q44 2 62 22v40q0 36 -30.5 58t-68.5 22q-90 0 -118 -65l-65 22q42 111 185 111q65 0 116.5 -40t51.5 -102v-270zM346 107v136q-29 -16 -58 -16h-74
q-43 -1 -73.5 -23t-30.5 -65q0 -42 32.5 -64t74.5 -22q71 0 129 54z" />
    <glyph glyph-name="b" unicode="b" horiz-adv-x="499" 
d="M459 243q0 -113 -46.5 -182.5t-152.5 -69.5q-91 0 -126 62l-3 -53h-63v698h75v-262q43 58 122 58q103 0 148.5 -70t45.5 -181zM384 242q0 35 -4.5 62.5t-16 56t-38.5 44.5t-66 16q-49 0 -82.5 -29t-33.5 -77v-145q0 -48 33.5 -77t82.5 -29q32 0 55.5 11t36.5 28t21 42
t10 47t2 50z" />
    <glyph glyph-name="c" unicode="c" horiz-adv-x="475" 
d="M436 413l-54 -50q-55 60 -118 60q-78 0 -111.5 -51t-33.5 -130q0 -78 33.5 -129t111.5 -51q63 0 118 60l54 -50q-40 -43 -78 -61.5t-94 -18.5q-107 0 -165 70t-58 180t58 181t165 71q55 0 93.5 -19.5t78.5 -61.5z" />
    <glyph glyph-name="d" unicode="d" horiz-adv-x="507" 
d="M451 9l-67 -19l-13 57q-45 -56 -130 -56q-200 0 -200 252q0 73 17.5 126.5t64 89t119.5 35.5q76 0 115 -55v259h76v-612q0 -1 8.5 -38t9.5 -39zM357 170v145q0 48 -33 77t-82 29q-40 0 -66.5 -15.5t-38.5 -44t-16 -55.5t-4 -63t4 -63.5t16 -56t38 -44t66 -15.5
q49 0 82.5 29t33.5 77z" />
    <glyph glyph-name="e" unicode="e" horiz-adv-x="486" 
d="M445 264v-36h-326q5 -167 146 -167q74 0 119 50l49 -46q-71 -74 -168 -74q-111 0 -167.5 69t-56.5 182q0 112 54 181.5t162 69.5q91 0 139.5 -63.5t48.5 -165.5zM119 280h255q-7 143 -120 143q-122 0 -135 -143z" />
    <glyph glyph-name="f" unicode="f" horiz-adv-x="306" 
d="M281 698v-63q-60 -4 -84.5 -32.5t-24.5 -90.5v-27h95v-65h-95v-420h-73v420h-49v65h49v43q0 81 42.5 123t139.5 47z" />
    <glyph glyph-name="g" unicode="g" horiz-adv-x="495" 
d="M415 325q0 -80 -47.5 -122t-131.5 -42q-26 0 -55 7q-46 -29 -46 -67q0 -28 35 -28q29 0 84 13t83 13q53 0 88 -30.5t35 -80.5q0 -80 -69.5 -130.5t-155.5 -50.5q-78 0 -138 34.5t-60 102.5q0 20 6 38l67 -21q-2 -10 -2 -16q0 -34 39 -52.5t82 -18.5q57 0 108 30t51 81
q0 25 -19 38.5t-43 13.5q-26 0 -74.5 -10.5t-73.5 -10.5q-44 0 -74.5 19.5t-30.5 57.5q0 55 53 99q-66 41 -66 134q0 83 46 125t131 42q77 0 120 -33q30 14 33 47h64q-4 -70 -57 -96q18 -41 18 -86zM343 326q0 98 -105 98q-106 0 -106 -98q0 -100 105 -100q106 0 106 100z
" />
    <glyph glyph-name="h" unicode="h" horiz-adv-x="512" 
d="M459 275v-275h-75v275q0 145 -125 145q-42 0 -79 -28.5t-37 -71.5v-320h-75v698h75v-264q20 31 54.5 46t70.5 15q98 0 144.5 -59t46.5 -161z" />
    <glyph glyph-name="i" unicode="i" horiz-adv-x="230" 
d="M168 658q0 -21 -15.5 -36.5t-37.5 -15.5t-37 15.5t-15 36.5q0 22 15 37.5t37 15.5t37.5 -15.5t15.5 -37.5zM152 485v-485h-75v485h75z" />
    <glyph glyph-name="j" unicode="j" horiz-adv-x="230" 
d="M170 658q0 -21 -15.5 -36.5t-37.5 -15.5t-37.5 15.5t-15.5 36.5q0 22 15.5 37.5t37.5 15.5t37.5 -15.5t15.5 -37.5zM153 485v-514q0 -82 -40.5 -131t-122.5 -56l-20 66q109 9 109 126v509h74z" />
    <glyph glyph-name="k" unicode="k" horiz-adv-x="449" 
d="M225 262l211 -262h-85l-206 261l175 224h81zM139 698v-698h-73v698h73z" />
    <glyph glyph-name="l" unicode="l" horiz-adv-x="227" 
d="M191 66l1 -65q-64 2 -95 30.5t-31 89.5v577h72v-577q0 -51 53 -55z" />
    <glyph glyph-name="m" unicode="m" horiz-adv-x="780" 
d="M723 275v-275h-76v275q0 67 -22.5 106t-86.5 39q-106 0 -106 -155v-265h-76v275q0 66 -23 105.5t-87 39.5q-40 0 -71.5 -29t-31.5 -67v-324h-75v485h64l2 -54q20 32 51 48t63 16q101 0 150 -88q42 88 140 88q96 0 140.5 -59.5t44.5 -160.5z" />
    <glyph glyph-name="n" unicode="n" horiz-adv-x="517" 
d="M459 275v-275h-75v273q0 71 -27.5 109t-97.5 38q-48 0 -82 -32.5t-34 -73.5v-314h-75v485h64l2 -54q43 64 128 64q197 0 197 -220z" />
    <glyph glyph-name="o" unicode="o" horiz-adv-x="502" 
d="M462 242q0 -115 -50.5 -183t-160.5 -68t-160 67.5t-50 183.5t50 184t160 68t160.5 -68t50.5 -184zM385 242q0 30 -3 53.5t-11.5 48t-23 40.5t-39 26.5t-57.5 10.5t-57.5 -10.5t-39 -26.5t-23 -40.5t-11.5 -48t-3 -53.5q0 -38 5 -66.5t18.5 -55.5t41.5 -41.5t69 -14.5
q77 0 105.5 49t28.5 129z" />
    <glyph glyph-name="p" unicode="p" horiz-adv-x="499" 
d="M459 241q0 -112 -47 -181t-153 -69q-74 0 -116 58v-269h-75v705h64l2 -57q44 68 126 68q106 0 152.5 -71t46.5 -184zM384 241q0 36 -4.5 63t-16.5 55.5t-38 44t-66 15.5q-46 0 -81 -32t-35 -73v-144q0 -43 34.5 -74.5t81.5 -31.5q40 0 66 15.5t38 44t16.5 55.5t4.5 62z
" />
    <glyph glyph-name="q" unicode="q" horiz-adv-x="500" 
d="M382 492l67 -18l-17 -74v-620h-76v266q-45 -55 -115 -55q-73 0 -119.5 35.5t-64 89t-17.5 126.5q0 54 10 97.5t32 80t62.5 56.5t95.5 20q81 0 130 -61zM356 170v144q0 45 -34 75.5t-81 30.5q-40 0 -66.5 -15.5t-38.5 -44t-16 -56t-4 -63.5t4.5 -63.5t16.5 -55.5
t38.5 -43.5t66.5 -15.5q47 0 80.5 31t33.5 76z" />
    <glyph glyph-name="r" unicode="r" horiz-adv-x="388" 
d="M357 470l-30 -61q-35 14 -64 14q-49 0 -84.5 -31t-35.5 -76v-316h-75v485h64l2 -58q18 32 54 49.5t75 17.5q49 0 94 -24z" />
    <glyph glyph-name="s" unicode="s" horiz-adv-x="457" 
d="M421 139q0 -69 -55 -108.5t-129 -39.5q-166 0 -197 126l67 17q23 -75 129 -75q42 0 76 18.5t34 58.5q0 28 -22 47t-54.5 27.5l-71 19.5t-71 23.5t-54.5 40t-22 67.5q0 65 48.5 99t120.5 34q63 0 104.5 -20.5t72.5 -70.5l-59 -32q-35 55 -112 55q-23 0 -43 -4.5t-38 -20
t-18 -40.5q0 -29 30.5 -45.5t73.5 -26.5t86 -23t73.5 -45t30.5 -82z" />
    <glyph glyph-name="t" unicode="t" horiz-adv-x="298" 
d="M253 485v-65h-78v-294q0 -33 14 -46.5t47 -14.5v-65h-28q-54 0 -81 33t-27 87v300h-68v65h68v141h75v-141h78z" />
    <glyph glyph-name="u" unicode="u" horiz-adv-x="514" 
d="M449 485v-485h-64l-2 51q-54 -59 -127 -59q-198 0 -198 211v282h75v-278q0 -70 26.5 -106t97.5 -36q43 0 80 28t37 72v320h75z" />
    <glyph glyph-name="v" unicode="v" horiz-adv-x="480" 
d="M377 485h82l-185 -485h-69l-184 485h81l136 -384z" />
    <glyph glyph-name="w" unicode="w" horiz-adv-x="749" 
d="M649 485h80l-156 -485h-70l-130 364l-129 -364h-70l-154 485h81l110 -376l131 376h63l130 -377z" />
    <glyph glyph-name="x" unicode="x" horiz-adv-x="474" 
d="M281 249l173 -249h-91l-126 188l-125 -188h-93l174 249l-165 236h93l116 -172l116 172h92z" />
    <glyph glyph-name="y" unicode="y" horiz-adv-x="482" 
d="M381 485h80l-228 -604q-21 -57 -59 -79.5t-99 -22.5h-14v66h13q40 0 60 14t32 45l35 94l-180 487h81l138 -391z" />
    <glyph glyph-name="z" unicode="z" horiz-adv-x="471" 
d="M422 72v-72h-380v66l281 347h-262v72h361v-64l-283 -349h283z" />
    <glyph glyph-name="braceleft" unicode="{" horiz-adv-x="358" 
d="M50 382q26 -1 43 6.5t25.5 17t12 32t3.5 37.5t-1 47.5t-1 49.5q0 99 37.5 146.5t138.5 47.5v-64q-58 0 -82.5 -29.5t-24.5 -103.5q0 -15 1 -45t1.5 -46.5t-2.5 -40.5t-10.5 -38.5t-23.5 -28.5t-39 -21q23 -7 39 -21t23.5 -28.5t10.5 -38.5t2.5 -40.5t-1.5 -46.5t-1 -45
q0 -74 24.5 -103.5t82.5 -29.5v-64q-101 0 -138.5 47.5t-37.5 146.5q0 17 1 49.5t1 47.5t-3.5 37.5t-12 32t-25.5 17t-43 6.5v66z" />
    <glyph glyph-name="bar" unicode="|" horiz-adv-x="263" 
d="M166 774v-850h-69v850h69z" />
    <glyph glyph-name="braceright" unicode="}" horiz-adv-x="358" 
d="M308 382v-66q-26 1 -43 -6.5t-25.5 -17t-12 -32t-3.5 -37.5t1 -47.5t1 -49.5q0 -99 -37.5 -146.5t-138.5 -47.5v64q57 0 81.5 29.5t24.5 103.5q0 14 -1 44.5t-1 47t3 41t10.5 38.5t23 28t38.5 21q-23 7 -38.5 21t-23 28t-10.5 38.5t-3 41t1 47t1 44.5q0 74 -24.5 103.5
t-81.5 29.5v64q101 0 138.5 -47.5t37.5 -146.5q0 -17 -1 -49.5t-1 -47.5t3.5 -37.5t12 -32t25.5 -17t43 -6.5z" />
    <glyph glyph-name="asciitilde" unicode="~" horiz-adv-x="489" 
d="M394 343l47 -40q-28 -34 -53.5 -52t-60.5 -18q-37 0 -84.5 32.5t-79.5 32.5q-36 0 -69 -46l-46 41q49 67 115 67q38 0 84.5 -31.5t77.5 -31.5q41 0 69 46z" />
    <glyph glyph-name="nbspace" unicode="&#xa0;" horiz-adv-x="142" 
 />
    <glyph glyph-name="exclamdown" unicode="&#xa1;" horiz-adv-x="320" 
d="M207 430q0 -24 -16.5 -40.5t-39.5 -16.5t-39.5 16.5t-16.5 40.5q0 23 16.5 39.5t39.5 16.5t39.5 -16.5t16.5 -39.5zM183 284l10 -191v-315h-84v315l10 191h64z" />
    <glyph glyph-name="cent" unicode="&#xa2;" horiz-adv-x="504" 
d="M400 123l54 -50q-41 -42 -79 -61t-93 -19q-24 0 -49 7l-17 -80l-43 8l18 82q-67 29 -99.5 91t-32.5 141q0 110 59.5 180t172.5 70l15 71l43 -8l-14 -71q63 -14 119 -73l-54 -49q-36 38 -80 50l-72 -341q22 -7 44 -7q57 5 108 59zM205 83l72 339q-140 -11 -140 -180
q0 -111 68 -159z" />
    <glyph glyph-name="sterling" unicode="&#xa3;" horiz-adv-x="533" 
d="M483 72v-72h-404v59q57 88 57 162q0 39 -11 91h-81l15 71h51q-18 72 -18 116q0 90 53 147.5t144 57.5q64 0 102 -21t85 -71l-57 -48q-30 35 -58.5 51.5t-71.5 16.5q-60 0 -90.5 -38.5t-30.5 -98.5q0 -27 16 -112h132l-16 -71h-102q12 -55 12 -98q0 -68 -35 -142h308z" />
    <glyph glyph-name="currency" unicode="&#xa4;" horiz-adv-x="651" 
d="M551 138l52 -57q-45 -49 -88.5 -69.5t-111.5 -20.5q-110 0 -182 66.5t-95 179.5h-77l12 58h56q-3 40 -1 87h-67l12 57h63q18 121 88.5 194.5t190.5 73.5q64 0 110 -20.5t88 -65.5l-53 -58q-65 65 -145 65q-83 0 -132 -51.5t-63 -137.5h228l-12 -57h-227q-1 -52 2 -87h237
l-12 -58h-214q19 -78 68.5 -122.5t124.5 -44.5q82 0 148 68z" />
    <glyph glyph-name="yen" unicode="&#xa5;" horiz-adv-x="577" 
d="M480 698h75l-158 -319h87l-13 -59h-103l-36 -74h152l-13 -59h-148v-187h-68v187h-162l13 59h141l-37 74h-117l13 59h75l-158 319h76l190 -389z" />
    <glyph glyph-name="brokenbar" unicode="&#xa6;" horiz-adv-x="320" 
d="M191 774v-381h-59v381h59zM191 306v-380h-59v380h59z" />
    <glyph glyph-name="section" unicode="&#xa7;" horiz-adv-x="553" 
d="M492 227q0 -79 -62 -134q42 -45 42 -110q0 -80 -55 -129.5t-137 -49.5q-132 0 -200 137l63 33q52 -100 137 -100q51 0 84.5 30.5t33.5 78.5q0 20 -7.5 35.5t-17.5 25.5t-30 18.5t-34 12.5l-39 11q-36 9 -61.5 17.5t-54.5 24.5t-47.5 35t-30.5 48.5t-12 66.5q0 81 63 135
q-43 43 -43 109q0 80 55 130t137 50q132 0 200 -137l-63 -33q-51 99 -137 99q-51 0 -84.5 -30.5t-33.5 -78.5q0 -24 9.5 -41.5t30.5 -29t38 -17.5t49 -14q46 -12 77 -24t64 -33.5t49.5 -55.5t16.5 -80zM418 227q0 52 -42.5 80t-111.5 45q-42 9 -77 24q-49 -34 -49 -98
q0 -52 42.5 -80t111.5 -45q44 -9 78 -23q48 33 48 97z" />
    <glyph glyph-name="dieresis" unicode="&#xa8;" horiz-adv-x="482" 
d="M387 592q0 -22 -14.5 -36.5t-35.5 -14.5q-22 0 -37 14.5t-15 36.5q0 21 15 36t37 15q21 0 35.5 -15t14.5 -36zM198 592q0 -22 -15 -36.5t-36 -14.5q-22 0 -36.5 14.5t-14.5 36.5q0 21 14.5 36t36.5 15q21 0 36 -15t15 -36z" />
    <glyph glyph-name="copyright" unicode="&#xa9;" horiz-adv-x="798" 
d="M751 348q0 -145 -103.5 -248t-248.5 -103t-248.5 103t-103.5 248q0 146 103 249t249 103t249 -103t103 -249zM695 348q0 123 -86.5 209.5t-209.5 86.5q-122 0 -209 -86.5t-87 -209.5q0 -122 87 -208.5t209 -86.5q123 0 209.5 86.5t86.5 208.5zM487 248l35 -33
q-28 -32 -53.5 -45.5t-64.5 -13.5q-78 0 -117 55t-39 137q0 83 38.5 138.5t116.5 55.5q69 0 118 -57l-35 -34q-39 42 -83 42q-57 0 -80.5 -43t-23.5 -102q0 -58 23.5 -100.5t80.5 -42.5q48 0 84 43z" />
    <glyph glyph-name="ordfeminine" unicode="&#xaa;" horiz-adv-x="413" 
d="M353 363l14 -40l-57 -17l-12 30q-53 -35 -109 -35q-61 0 -101.5 32t-40.5 90q0 54 36.5 85t100.5 33h57q37 0 50 12v33q0 28 -23.5 45t-52.5 17q-71 0 -94 -53l-57 17q39 95 152 95q52 0 94.5 -33t42.5 -83v-228zM281 245v-51h-146v51h146zM291 403v98q-23 -10 -46 -10
q-52 0 -59 -1q-33 -1 -56.5 -17t-23.5 -47q0 -32 25 -49t59 -17q55 0 101 43z" />
    <glyph glyph-name="guillemotleft" unicode="&#xab;" horiz-adv-x="509" 
d="M52 227v53l209 199v-83l-150 -142l150 -143v-84zM243 227v53l209 199v-83l-151 -142l151 -143v-84z" />
    <glyph glyph-name="logicalnot" unicode="&#xac;" horiz-adv-x="525" 
d="M472 294v-204h-57v145h-367v59h424z" />
    <glyph glyph-name="uni00AD" unicode="&#xad;" horiz-adv-x="401" 
d="M338 303v-63h-275v63h275z" />
    <glyph glyph-name="registered" unicode="&#xae;" horiz-adv-x="798" 
d="M751 348q0 -145 -103.5 -248t-248.5 -103t-248.5 103t-103.5 248q0 146 103 249t249 103t249 -103t103 -249zM695 348q0 123 -86.5 209.5t-209.5 86.5q-122 0 -209 -86.5t-87 -209.5q0 -122 87 -208.5t209 -86.5q123 0 209.5 86.5t86.5 208.5zM549 164h-60l-71 122
q-20 37 -51 37h-43v-159h-48v370h131q57 0 90.5 -27t33.5 -80q0 -38 -22 -66t-64 -34q21 -25 104 -163zM483 426q0 61 -75 61h-84v-123h84q75 0 75 62z" />
    <glyph glyph-name="macron" unicode="&#xaf;" horiz-adv-x="513" 
d="M402 616v-58h-291v58h291z" />
    <glyph glyph-name="degree" unicode="&#xb0;" horiz-adv-x="318" 
d="M259 661q0 -42 -29.5 -71.5t-71.5 -29.5q-41 0 -70.5 29.5t-29.5 71.5q0 41 29.5 70.5t70.5 29.5q42 0 71.5 -29.5t29.5 -70.5zM217 661q0 23 -17.5 40.5t-41.5 17.5q-23 0 -40 -17.5t-17 -40.5q0 -24 17 -41.5t40 -17.5q24 0 41.5 17.5t17.5 41.5z" />
    <glyph glyph-name="plusminus" unicode="&#xb1;" horiz-adv-x="531" 
d="M473 344v-64h-175v-173h-65v173h-175v64h175v174h65v-174h175zM473 63v-63h-415v63h415z" />
    <glyph glyph-name="twosuperior" unicode="&#xb2;" horiz-adv-x="350" 
d="M315 308v-48h-277v35q9 50 35 90t56 64t59 44.5t48 43.5t19 50q0 35 -25.5 54.5t-61.5 19.5q-55 0 -86 -57l-42 25q43 79 128 79q60 0 98.5 -32t38.5 -89q0 -36 -18 -64t-45 -49l-55.5 -42t-54.5 -53t-36 -71h219z" />
    <glyph glyph-name="threesuperior" unicode="&#xb3;" horiz-adv-x="335" 
d="M303 387q0 -59 -39.5 -95t-98.5 -36q-103 0 -135 88l46 18q22 -59 87 -59q38 0 64.5 23.5t26.5 60.5q0 44 -28.5 64t-74.5 20v39q92 2 92 76q0 32 -25.5 53.5t-58.5 21.5q-57 0 -81 -54l-44 19q36 82 128 82q54 0 92 -34t38 -88q0 -66 -59 -94q32 -13 51 -41t19 -64z" />
    <glyph glyph-name="acute" unicode="&#xb4;" horiz-adv-x="309" 
d="M154 688h86l-110 -153h-61z" />
    <glyph glyph-name="mu" unicode="&#xb5;" horiz-adv-x="550" 
d="M468 485v-485h-67v47q-53 -54 -124 -54q-92 0 -132 63v-250h-67v679h67v-274q0 -75 28.5 -114.5t103.5 -39.5q46 0 85 29.5t39 74.5v324h67z" />
    <glyph glyph-name="mu" unicode="&#x3bc;" horiz-adv-x="550" 
d="M468 485v-485h-67v47q-53 -54 -124 -54q-92 0 -132 63v-250h-67v679h67v-274q0 -75 28.5 -114.5t103.5 -39.5q46 0 85 29.5t39 74.5v324h67z" />
    <glyph glyph-name="paragraph" unicode="&#xb6;" horiz-adv-x="528" 
d="M437 698v-848h-69v780h-52v-780h-69v453q-83 5 -137.5 61.5t-54.5 134.5q0 83 59 141t143 58h180z" />
    <glyph glyph-name="periodcentered" unicode="&#xb7;" horiz-adv-x="264" 
d="M195 265q0 -26 -18.5 -44.5t-45.5 -18.5q-26 0 -44 18.5t-18 44.5t18 44.5t44 18.5q27 0 45.5 -18.5t18.5 -44.5z" />
    <glyph glyph-name="periodcentered" unicode="&#x2219;" horiz-adv-x="264" 
d="M195 265q0 -26 -18.5 -44.5t-45.5 -18.5q-26 0 -44 18.5t-18 44.5t18 44.5t44 18.5q27 0 45.5 -18.5t18.5 -44.5z" />
    <glyph glyph-name="cedilla" unicode="&#xb8;" horiz-adv-x="510" 
d="M285 27l37 -96l-70 -129h-78l94 133l-32 75z" />
    <glyph glyph-name="onesuperior" unicode="&#xb9;" horiz-adv-x="240" 
d="M166 703v-443h-49v380l-70 -47l-24 37l104 73h39z" />
    <glyph glyph-name="ordmasculine" unicode="&#xba;" horiz-adv-x="438" 
d="M390 504q0 -203 -171 -203t-171 203q0 93 41 148t130 55t130 -55t41 -148zM293 245v-51h-145v51h145zM325 503q0 30 -4 52.5t-14.5 44t-32.5 33t-55 11.5t-55 -11.5t-32.5 -33t-14.5 -44t-4 -52.5q0 -40 7 -68t31.5 -49.5t67.5 -21.5t67.5 21.5t31.5 49.5t7 68z" />
    <glyph glyph-name="guillemotright" unicode="&#xbb;" horiz-adv-x="509" 
d="M452 280v-53l-209 -200v84l150 143l-150 142v83zM260 280v-53l-208 -200v84l151 143l-151 142v83z" />
    <glyph glyph-name="onequarter" unicode="&#xbc;" horiz-adv-x="769" 
d="M721 163v-57h-28v-105h-58v105h-181v49l166 276h68l-161 -268h123l3 127l40 -8v-119h28zM496 698h60l-310 -697h-60zM199 703v-430h-56v350l-70 -41l-28 48l122 73h32z" />
    <glyph glyph-name="onehalf" unicode="&#xbd;" horiz-adv-x="807" 
d="M749 58v-57h-254v45q30 79 100 149q56 55 76 82t20 46q0 28 -19.5 40.5t-43.5 12.5q-42 0 -75 -58l-51 26q49 88 126 88q48 0 84.5 -29t36.5 -80q0 -34 -23 -67t-83 -92q-39 -37 -77 -106h183zM496 698h60l-309 -697h-61zM200 703v-430h-56v350l-71 -41l-28 48l123 73h32
z" />
    <glyph glyph-name="threequarters" unicode="&#xbe;" horiz-adv-x="840" 
d="M792 163v-57h-28v-105h-58v105h-181v49l166 276h68l-160 -268h122l3 127l40 -8v-119h28zM567 698h61l-311 -697h-60zM310 397q0 -53 -38 -90.5t-92 -37.5q-44 0 -77 25t-49 68l55 18q9 -23 27.5 -38.5t43.5 -15.5q30 0 51.5 21t21.5 50q0 30 -21.5 52t-51.5 22h-23v49h19
q30 0 49.5 20t19.5 47q0 25 -20.5 43.5t-48.5 18.5q-23 0 -40.5 -13.5t-26.5 -35.5l-55 19q15 41 48 63.5t74 22.5q52 0 89.5 -34.5t37.5 -83.5q0 -50 -48 -89q55 -42 55 -101z" />
    <glyph glyph-name="questiondown" unicode="&#xbf;" horiz-adv-x="504" 
d="M44 -44q1 -87 58 -136t146 -50q83 0 143.5 48t63.5 137l-70 -1q-3 -55 -43.5 -85t-93.5 -30q-57 0 -95 31.5t-37 84.5q0 11 2 20.5t3.5 15.5t8 14l9 11t13 10t12 8.5t15.5 9t15 8.5q28 18 43.5 31t30.5 44.5t15 75.5l-6 88h-55l-5 -86q-1 -38 -20 -63t-64 -50
q-27 -15 -43 -28.5t-31 -42t-15 -65.5zM303 431q0 -23 -16 -39t-39 -16t-38.5 16t-15.5 39t15.5 39t38.5 16t39 -16t16 -39z" />
    <glyph glyph-name="Agrave" unicode="&#xc0;" horiz-adv-x="637" 
d="M360 698l268 -698h-85l-75 200h-299l-75 -200h-85l268 698h83zM195 270h246l-123 326zM253 909l84 -153h-60l-110 153h86z" />
    <glyph glyph-name="Aacute" unicode="&#xc1;" horiz-adv-x="637" 
d="M360 698l268 -698h-85l-75 200h-299l-75 -200h-85l268 698h83zM195 270h246l-123 326zM382 909h86l-109 -153h-62z" />
    <glyph glyph-name="Acircumflex" unicode="&#xc2;" horiz-adv-x="637" 
d="M360 698l268 -698h-85l-75 200h-299l-75 -200h-85l268 698h83zM195 270h246l-123 326zM353 906l113 -149h-79l-70 107l-68 -107h-78l111 149h71z" />
    <glyph glyph-name="Atilde" unicode="&#xc3;" horiz-adv-x="637" 
d="M360 698l268 -698h-85l-75 200h-299l-75 -200h-85l268 698h83zM195 270h246l-123 326zM432 853l42 -37q-23 -30 -43 -45t-50 -15q-31 0 -65 26.5t-58 26.5q-29 0 -54 -37l-41 37q20 30 41.5 44.5t52.5 14.5t65 -26.5t57 -26.5q29 0 53 38z" />
    <glyph glyph-name="Adieresis" unicode="&#xc4;" horiz-adv-x="637" 
d="M360 698l268 -698h-85l-75 200h-299l-75 -200h-85l268 698h83zM195 270h246l-123 326zM464 813q0 -21 -15 -36t-35 -15q-22 0 -37 14.5t-15 36.5q0 21 15 36t37 15q20 0 35 -15t15 -36zM275 813q0 -22 -15 -36.5t-36 -14.5q-22 0 -36.5 14.5t-14.5 36.5q0 21 14.5 36
t36.5 15q21 0 36 -15t15 -36z" />
    <glyph glyph-name="Aring" unicode="&#xc5;" horiz-adv-x="637" 
d="M360 698l268 -698h-85l-75 200h-299l-75 -200h-85l268 698h83zM195 270h246l-123 326zM426 864q0 -44 -31.5 -76t-75.5 -32q-45 0 -76.5 32t-31.5 76t31.5 75.5t76.5 31.5q44 0 75.5 -31.5t31.5 -75.5zM370 864q0 22 -15 37t-36 15q-22 0 -37.5 -15t-15.5 -37t15.5 -37
t37.5 -15q21 0 36 15t15 37z" />
    <glyph glyph-name="AE" unicode="&#xc6;" horiz-adv-x="926" 
d="M878 78v-78h-429v200h-237l-110 -200h-90l390 698h476v-78h-349v-220h303v-77h-303v-245h349zM250 270h199v336h-13z" />
    <glyph glyph-name="Ccedilla" unicode="&#xc7;" horiz-adv-x="627" 
d="M515 163l57 -49q-90 -108 -191 -120l29 -69l-66 -124h-79l88 128l-27 63q-71 4 -124 35t-83 82t-44.5 111t-14.5 129q0 73 16.5 135.5t49.5 113.5t89.5 80t131.5 29q72 0 123 -30.5t102 -92.5l-57 -49q-40 48 -76.5 70.5t-91.5 22.5q-48 0 -85.5 -16.5t-60 -43.5
t-36.5 -64.5t-19.5 -74.5t-5.5 -80q0 -54 9.5 -99.5t31 -88t64 -67t102.5 -24.5q55 0 92 23t76 70z" />
    <glyph glyph-name="Egrave" unicode="&#xc8;" horiz-adv-x="577" 
d="M527 78v-78h-454v698h454v-78h-374v-222h327v-75h-327v-245h374zM289 909l85 -153h-61l-110 153h86z" />
    <glyph glyph-name="Eacute" unicode="&#xc9;" horiz-adv-x="577" 
d="M527 78v-78h-454v698h454v-78h-374v-222h327v-75h-327v-245h374zM288 909h86l-110 -153h-61z" />
    <glyph glyph-name="Ecircumflex" unicode="&#xca;" horiz-adv-x="577" 
d="M527 78v-78h-454v698h454v-78h-374v-222h327v-75h-327v-245h374zM336 906l112 -149h-79l-69 107l-69 -107h-78l111 149h72z" />
    <glyph glyph-name="Edieresis" unicode="&#xcb;" horiz-adv-x="577" 
d="M527 78v-78h-454v698h454v-78h-374v-222h327v-75h-327v-245h374zM434 813q0 -22 -15 -36.5t-36 -14.5t-36 14.5t-15 36.5q0 21 15 36t36 15t36 -15t15 -36zM244 813q0 -22 -15 -36.5t-36 -14.5t-36 14.5t-15 36.5q0 21 15 36t36 15t36 -15t15 -36z" />
    <glyph glyph-name="Igrave" unicode="&#xcc;" horiz-adv-x="249" 
d="M164 698v-698h-80v698h80zM61 909l84 -153h-61l-110 153h87z" />
    <glyph glyph-name="Iacute" unicode="&#xcd;" horiz-adv-x="249" 
d="M164 698v-698h-80v698h80zM165 909h86l-109 -153h-62z" />
    <glyph glyph-name="Icircumflex" unicode="&#xce;" horiz-adv-x="249" 
d="M164 698v-698h-80v698h80zM160 906l112 -149h-78l-70 107l-69 -107h-78l112 149h71z" />
    <glyph glyph-name="Idieresis" unicode="&#xcf;" horiz-adv-x="249" 
d="M164 698v-698h-80v698h80zM271 813q0 -22 -15 -36.5t-36 -14.5t-36 14.5t-15 36.5q0 21 15 36t36 15t36 -15t15 -36zM81 813q0 -22 -15 -36.5t-36 -14.5t-36 14.5t-15 36.5q0 21 15 36t36 15t36 -15t15 -36z" />
    <glyph glyph-name="Eth" unicode="&#xd0;" horiz-adv-x="654" 
d="M590 349q0 -103 -8 -156q-7 -49 -25.5 -84.5t-43.5 -56.5t-62 -33t-72 -15.5t-82 -3.5h-213v316h-42v62h42v320h213q47 0 82 -3.5t72 -15.5t62 -32.5t43.5 -56t25.5 -84.5q8 -53 8 -157zM510 349q0 92 -7 140q-5 36 -18.5 61t-30.5 38.5t-45 21t-51.5 9t-60.5 1.5h-134
v-242h149v-62h-149v-237h134q49 0 78 3.5t59 15.5t46.5 39.5t22.5 71.5q7 49 7 140z" />
    <glyph glyph-name="Ntilde" unicode="&#xd1;" horiz-adv-x="635" 
d="M562 698v-698h-72l-337 543v-543h-80v698h73l336 -543v543h80zM431 853l42 -37q-23 -30 -43.5 -45t-50.5 -15t-64.5 26.5t-57.5 26.5q-29 0 -54 -37l-41 37q20 30 41.5 44.5t52.5 14.5t65 -26.5t57 -26.5q29 0 53 38z" />
    <glyph glyph-name="Ograve" unicode="&#xd2;" horiz-adv-x="649" 
d="M606 349q0 -72 -15 -134t-47 -113.5t-88.5 -81t-131.5 -29.5t-131 29.5t-88 81t-47 113.5t-15 134t15 134t47 113.5t88 81t131 29.5t131.5 -29.5t88.5 -81t47 -113.5t15 -134zM526 349q0 54 -8.5 99t-29.5 88t-62.5 67.5t-101.5 24.5q-48 0 -84.5 -17t-58 -43.5
t-35 -64.5t-18.5 -75t-5 -79t5 -79t18.5 -75t35 -64.5t58 -43.5t84.5 -17q60 0 101.5 24.5t62.5 67.5t29.5 88t8.5 99zM325 909l84 -153h-60l-110 153h86z" />
    <glyph glyph-name="Oacute" unicode="&#xd3;" horiz-adv-x="649" 
d="M606 349q0 -72 -15 -134t-47 -113.5t-88.5 -81t-131.5 -29.5t-131 29.5t-88 81t-47 113.5t-15 134t15 134t47 113.5t88 81t131 29.5t131.5 -29.5t88.5 -81t47 -113.5t15 -134zM526 349q0 54 -8.5 99t-29.5 88t-62.5 67.5t-101.5 24.5q-48 0 -84.5 -17t-58 -43.5
t-35 -64.5t-18.5 -75t-5 -79t5 -79t18.5 -75t35 -64.5t58 -43.5t84.5 -17q60 0 101.5 24.5t62.5 67.5t29.5 88t8.5 99zM324 909h85l-109 -153h-61z" />
    <glyph glyph-name="Ocircumflex" unicode="&#xd4;" horiz-adv-x="649" 
d="M606 349q0 -72 -15 -134t-47 -113.5t-88.5 -81t-131.5 -29.5t-131 29.5t-88 81t-47 113.5t-15 134t15 134t47 113.5t88 81t131 29.5t131.5 -29.5t88.5 -81t47 -113.5t15 -134zM526 349q0 54 -8.5 99t-29.5 88t-62.5 67.5t-101.5 24.5q-48 0 -84.5 -17t-58 -43.5
t-35 -64.5t-18.5 -75t-5 -79t5 -79t18.5 -75t35 -64.5t58 -43.5t84.5 -17q60 0 101.5 24.5t62.5 67.5t29.5 88t8.5 99zM359 906l113 -149h-79l-70 107l-68 -107h-78l111 149h71z" />
    <glyph glyph-name="Otilde" unicode="&#xd5;" horiz-adv-x="649" 
d="M606 349q0 -72 -15 -134t-47 -113.5t-88.5 -81t-131.5 -29.5t-131 29.5t-88 81t-47 113.5t-15 134t15 134t47 113.5t88 81t131 29.5t131.5 -29.5t88.5 -81t47 -113.5t15 -134zM526 349q0 54 -8.5 99t-29.5 88t-62.5 67.5t-101.5 24.5q-48 0 -84.5 -17t-58 -43.5
t-35 -64.5t-18.5 -75t-5 -79t5 -79t18.5 -75t35 -64.5t58 -43.5t84.5 -17q60 0 101.5 24.5t62.5 67.5t29.5 88t8.5 99zM438 853l42 -37q-23 -30 -43.5 -45t-50.5 -15t-64 26.5t-58 26.5q-29 0 -54 -37l-41 37q20 30 41.5 44.5t52.5 14.5t65 -26.5t57 -26.5q29 0 53 38z" />
    <glyph glyph-name="Odieresis" unicode="&#xd6;" horiz-adv-x="649" 
d="M606 349q0 -72 -15 -134t-47 -113.5t-88.5 -81t-131.5 -29.5t-131 29.5t-88 81t-47 113.5t-15 134t15 134t47 113.5t88 81t131 29.5t131.5 -29.5t88.5 -81t47 -113.5t15 -134zM526 349q0 54 -8.5 99t-29.5 88t-62.5 67.5t-101.5 24.5q-48 0 -84.5 -17t-58 -43.5
t-35 -64.5t-18.5 -75t-5 -79t5 -79t18.5 -75t35 -64.5t58 -43.5t84.5 -17q60 0 101.5 24.5t62.5 67.5t29.5 88t8.5 99zM470 813q0 -21 -15 -36t-35 -15q-22 0 -37 14.5t-15 36.5q0 21 15 36t37 15q20 0 35 -15t15 -36zM281 813q0 -21 -15 -36t-36 -15q-22 0 -36.5 14.5
t-14.5 36.5q0 21 14.5 36t36.5 15q20 0 35.5 -15t15.5 -36z" />
    <glyph glyph-name="multiply" unicode="&#xd7;" horiz-adv-x="464" 
d="M277 274l125 -126l-44 -44l-127 125l-125 -125l-45 44l126 126l-126 125l45 45l125 -126l127 126l44 -45z" />
    <glyph glyph-name="Oslash" unicode="&#xd8;" horiz-adv-x="649" 
d="M606 349q0 -72 -15 -134t-47 -113.5t-88.5 -81t-131.5 -29.5q-76 0 -140 38l-17 -34h-69l37 69q-92 100 -92 285q0 72 15 134t47 113.5t88 81t131 29.5q74 0 138 -35l16 31h69l-36 -66q95 -99 95 -288zM526 349q0 133 -55 209l-250 -458q46 -30 103 -30q60 0 101.5 24.5
t62.5 67.5t29.5 88t8.5 99zM175 143l250 458q-45 27 -101 27q-201 0 -201 -279q0 -128 52 -206z" />
    <glyph glyph-name="Ugrave" unicode="&#xd9;" horiz-adv-x="643" 
d="M578 698v-404q0 -303 -256 -303t-256 303v404h79v-400q0 -49 7 -86.5t25 -71.5t54.5 -52.5t90.5 -18.5t90.5 18t54 52.5t24.5 71.5t7 87v400h80zM322 909l85 -153h-61l-110 153h86z" />
    <glyph glyph-name="Uacute" unicode="&#xda;" horiz-adv-x="643" 
d="M578 698v-404q0 -303 -256 -303t-256 303v404h79v-400q0 -49 7 -86.5t25 -71.5t54.5 -52.5t90.5 -18.5t90.5 18t54 52.5t24.5 71.5t7 87v400h80zM321 909h86l-110 -153h-61z" />
    <glyph glyph-name="Ucircumflex" unicode="&#xdb;" horiz-adv-x="643" 
d="M578 698v-404q0 -303 -256 -303t-256 303v404h79v-400q0 -49 7 -86.5t25 -71.5t54.5 -52.5t90.5 -18.5t90.5 18t54 52.5t24.5 71.5t7 87v400h80zM357 906l112 -149h-78l-70 107l-69 -107h-78l112 149h71z" />
    <glyph glyph-name="Udieresis" unicode="&#xdc;" horiz-adv-x="643" 
d="M578 698v-404q0 -303 -256 -303t-256 303v404h79v-400q0 -49 7 -86.5t25 -71.5t54.5 -52.5t90.5 -18.5t90.5 18t54 52.5t24.5 71.5t7 87v400h80zM467 813q0 -22 -14.5 -36.5t-35.5 -14.5q-22 0 -37 14.5t-15 36.5q0 21 15 36t37 15q21 0 35.5 -15t14.5 -36zM278 813
q0 -22 -15 -36.5t-36 -14.5q-22 0 -36.5 14.5t-14.5 36.5q0 21 14.5 36t36.5 15q21 0 36 -15t15 -36z" />
    <glyph glyph-name="Yacute" unicode="&#xdd;" horiz-adv-x="587" 
d="M476 698h89l-231 -467v-231h-80v231l-231 467h89l182 -376zM293 909h86l-110 -153h-61z" />
    <glyph glyph-name="Thorn" unicode="&#xde;" horiz-adv-x="627" 
d="M582 360q0 -197 -237 -197h-181v-163h-80v698h80v-140h181q237 0 237 -198zM502 360q0 48 -22.5 75.5t-54.5 35.5t-80 8h-181v-238h181q48 0 80 8t54.5 35.5t22.5 75.5z" />
    <glyph glyph-name="germandbls" unicode="&#xdf;" horiz-adv-x="640" 
d="M605 139q0 -69 -55 -108.5t-129 -39.5q-167 0 -197 126l67 17q23 -75 129 -75q41 0 75.5 18.5t34.5 58.5q0 28 -22 47t-55 27.5t-71 19.5t-71 23.5t-55 40t-22 67.5q0 54 36 85.5t91 39.5q-2 143 -110 143q-111 0 -111 -149v-480h-74v484q0 98 45.5 158.5t139.5 60.5
q91 0 137 -58t48 -153q95 -9 144 -89l-59 -32q-34 55 -112 55q-23 0 -43 -4.5t-38 -20t-18 -40.5q0 -29 30.5 -45.5t74 -26.5t86.5 -23t73.5 -45t30.5 -82z" />
    <glyph glyph-name="agrave" unicode="&#xe0;" horiz-adv-x="477" 
d="M417 81l17 -73l-65 -16l-13 49q-63 -52 -141 -52q-75 0 -124.5 39.5t-49.5 110.5q0 66 45 104t123 40h75q44 2 62 22v40q0 36 -30.5 58t-68.5 22q-90 0 -118 -65l-65 22q42 111 185 111q65 0 116.5 -40t51.5 -102v-270zM346 107v136q-29 -16 -58 -16h-74
q-43 -1 -73.5 -23t-30.5 -65q0 -42 32.5 -64t74.5 -22q71 0 129 54zM239 688l85 -153h-61l-110 153h86z" />
    <glyph glyph-name="aacute" unicode="&#xe1;" horiz-adv-x="477" 
d="M417 81l17 -73l-65 -16l-13 49q-63 -52 -141 -52q-75 0 -124.5 39.5t-49.5 110.5q0 66 45 104t123 40h75q44 2 62 22v40q0 36 -30.5 58t-68.5 22q-90 0 -118 -65l-65 22q42 111 185 111q65 0 116.5 -40t51.5 -102v-270zM346 107v136q-29 -16 -58 -16h-74
q-43 -1 -73.5 -23t-30.5 -65q0 -42 32.5 -64t74.5 -22q71 0 129 54zM238 688h86l-110 -153h-61z" />
    <glyph glyph-name="acircumflex" unicode="&#xe2;" horiz-adv-x="477" 
d="M417 81l17 -73l-65 -16l-13 49q-63 -52 -141 -52q-75 0 -124.5 39.5t-49.5 110.5q0 66 45 104t123 40h75q44 2 62 22v40q0 36 -30.5 58t-68.5 22q-90 0 -118 -65l-65 22q42 111 185 111q65 0 116.5 -40t51.5 -102v-270zM346 107v136q-29 -16 -58 -16h-74
q-43 -1 -73.5 -23t-30.5 -65q0 -42 32.5 -64t74.5 -22q71 0 129 54zM274 685l112 -149h-78l-70 107l-69 -107h-78l112 149h71z" />
    <glyph glyph-name="atilde" unicode="&#xe3;" horiz-adv-x="477" 
d="M417 81l17 -73l-65 -16l-13 49q-63 -52 -141 -52q-75 0 -124.5 39.5t-49.5 110.5q0 66 45 104t123 40h75q44 2 62 22v40q0 36 -30.5 58t-68.5 22q-90 0 -118 -65l-65 22q42 111 185 111q65 0 116.5 -40t51.5 -102v-270zM346 107v136q-29 -16 -58 -16h-74
q-43 -1 -73.5 -23t-30.5 -65q0 -42 32.5 -64t74.5 -22q71 0 129 54zM352 632l43 -37q-22 -30 -43 -45t-51 -15t-64.5 26.5t-58.5 26.5q-29 0 -54 -37l-41 37q20 30 41.5 44.5t53.5 14.5q31 0 65 -26.5t57 -26.5q30 0 52 38z" />
    <glyph glyph-name="adieresis" unicode="&#xe4;" horiz-adv-x="477" 
d="M417 81l17 -73l-65 -16l-13 49q-63 -52 -141 -52q-75 0 -124.5 39.5t-49.5 110.5q0 66 45 104t123 40h75q44 2 62 22v40q0 36 -30.5 58t-68.5 22q-90 0 -118 -65l-65 22q42 111 185 111q65 0 116.5 -40t51.5 -102v-270zM346 107v136q-29 -16 -58 -16h-74
q-43 -1 -73.5 -23t-30.5 -65q0 -42 32.5 -64t74.5 -22q71 0 129 54zM384 592q0 -22 -14.5 -36.5t-35.5 -14.5q-22 0 -37 14.5t-15 36.5q0 21 15 36t37 15q21 0 35.5 -15t14.5 -36zM195 592q0 -22 -15 -36.5t-36 -14.5q-22 0 -36.5 14.5t-14.5 36.5q0 21 14.5 36t36.5 15
q21 0 36 -15t15 -36z" />
    <glyph glyph-name="aring" unicode="&#xe5;" horiz-adv-x="477" 
d="M417 81l17 -73l-65 -16l-13 49q-63 -52 -141 -52q-75 0 -124.5 39.5t-49.5 110.5q0 66 45 104t123 40h75q44 2 62 22v40q0 36 -30.5 58t-68.5 22q-90 0 -118 -65l-65 22q42 111 185 111q65 0 116.5 -40t51.5 -102v-270zM346 107v136q-29 -16 -58 -16h-74
q-43 -1 -73.5 -23t-30.5 -65q0 -42 32.5 -64t74.5 -22q71 0 129 54zM347 643q0 -44 -31.5 -76t-76.5 -32t-76.5 32t-31.5 76t31.5 75.5t76.5 31.5t76.5 -31.5t31.5 -75.5zM291 643q0 22 -15.5 37t-36.5 15q-22 0 -37 -15t-15 -37t15 -37t37 -15q21 0 36.5 15t15.5 37z" />
    <glyph glyph-name="ae" unicode="&#xe6;" horiz-adv-x="769" 
d="M37 139q0 68 46 106t124 38h67q48 0 62 21v38q0 34 -28.5 57.5t-66.5 23.5q-85 0 -116 -66l-66 20q42 114 183 114q92 0 142 -78q56 79 160 79q64 0 107.5 -34.5t61 -85t17.5 -114.5v-31h-322q3 -80 39.5 -122.5t104.5 -42.5q69 0 114 52l52 -49q-65 -74 -166 -74
q-112 0 -164 75q-74 -77 -179 -77q-74 0 -123 38.5t-49 111.5zM349 122q-13 41 -13 120q-25 -16 -55 -16h-73q-41 0 -71.5 -20.5t-30.5 -62.5q0 -39 30 -62t75 -23q71 0 138 64zM408 279h251q-2 65 -30.5 104t-86.5 39q-62 0 -96.5 -39t-37.5 -104z" />
    <glyph glyph-name="ccedilla" unicode="&#xe7;" horiz-adv-x="475" 
d="M382 122l54 -50q-69 -71 -143 -78l27 -69l-67 -124h-79l89 129l-27 63q-95 9 -145 78.5t-50 170.5q0 110 58 181t165 71q55 0 93 -19t79 -62l-54 -50q-55 60 -118 60q-53 0 -87 -27t-46 -65.5t-12 -88.5q0 -78 33.5 -129t111.5 -51q63 0 118 60z" />
    <glyph glyph-name="egrave" unicode="&#xe8;" horiz-adv-x="486" 
d="M445 264v-36h-326q5 -167 146 -167q74 0 119 50l49 -46q-71 -74 -168 -74q-111 0 -167.5 69t-56.5 182q0 112 54 181.5t162 69.5q91 0 139.5 -63.5t48.5 -165.5zM119 280h255q-7 143 -120 143q-122 0 -135 -143zM244 688l84 -153h-60l-111 153h87z" />
    <glyph glyph-name="eacute" unicode="&#xe9;" horiz-adv-x="486" 
d="M445 264v-36h-326q5 -167 146 -167q74 0 119 50l49 -46q-71 -74 -168 -74q-111 0 -167.5 69t-56.5 182q0 112 54 181.5t162 69.5q91 0 139.5 -63.5t48.5 -165.5zM119 280h255q-7 143 -120 143q-122 0 -135 -143zM242 688h86l-110 -153h-61z" />
    <glyph glyph-name="ecircumflex" unicode="&#xea;" horiz-adv-x="486" 
d="M445 264v-36h-326q5 -167 146 -167q74 0 119 50l49 -46q-71 -74 -168 -74q-111 0 -167.5 69t-56.5 182q0 112 54 181.5t162 69.5q91 0 139.5 -63.5t48.5 -165.5zM119 280h255q-7 143 -120 143q-122 0 -135 -143zM279 685l112 -149h-79l-69 107l-69 -107h-78l111 149h72z
" />
    <glyph glyph-name="edieresis" unicode="&#xeb;" horiz-adv-x="486" 
d="M445 264v-36h-326q5 -167 146 -167q74 0 119 50l49 -46q-71 -74 -168 -74q-111 0 -167.5 69t-56.5 182q0 112 54 181.5t162 69.5q91 0 139.5 -63.5t48.5 -165.5zM119 280h255q-7 143 -120 143q-122 0 -135 -143zM389 592q0 -22 -15 -36.5t-36 -14.5t-36 14.5t-15 36.5
q0 21 15 36t36 15t36 -15t15 -36zM199 592q0 -22 -15 -36.5t-36 -14.5t-36 14.5t-15 36.5q0 21 15 36t36 15t36 -15t15 -36z" />
    <glyph glyph-name="igrave" unicode="&#xec;" horiz-adv-x="226" 
d="M150 485v-485h-74v485h74zM53 688l84 -153h-60l-111 153h87z" />
    <glyph glyph-name="iacute" unicode="&#xed;" horiz-adv-x="225" 
d="M149 485v-485h-74v485h74zM172 688h86l-109 -153h-62z" />
    <glyph glyph-name="icircumflex" unicode="&#xee;" horiz-adv-x="225" 
d="M151 485v-485h-74v485h74zM148 685l112 -149h-79l-69 107l-69 -107h-78l112 149h71z" />
    <glyph glyph-name="idieresis" unicode="&#xef;" horiz-adv-x="225" 
d="M151 485v-485h-74v485h74zM258 592q0 -22 -14.5 -36.5t-35.5 -14.5t-36.5 15t-15.5 36t15.5 36t36.5 15t35.5 -15t14.5 -36zM69 592q0 -22 -15 -36.5t-36 -14.5t-36 14.5t-15 36.5q0 21 15 36t36 15t36 -15t15 -36z" />
    <glyph glyph-name="eth" unicode="&#xf0;" horiz-adv-x="548" 
d="M482 241q0 -250 -208 -250q-110 0 -159 68.5t-49 181.5q0 248 208 248q36 0 73 -16l-42 91h-121v60h95l-57 126h69l56 -126h91v-60h-63q59 -124 77 -155q30 -58 30 -168zM415 241q0 40 -5.5 70t-20 57.5t-43.5 42t-72 14.5t-72.5 -15t-43.5 -43t-19.5 -57.5t-5.5 -68.5
q0 -40 5.5 -70t20 -57.5t43.5 -42t71 -14.5q43 0 72.5 15t44 43t20 57.5t5.5 68.5z" />
    <glyph glyph-name="ntilde" unicode="&#xf1;" horiz-adv-x="517" 
d="M459 275v-275h-75v273q0 71 -27.5 109t-97.5 38q-48 0 -82 -32.5t-34 -73.5v-314h-75v485h64l2 -54q43 64 128 64q197 0 197 -220zM371 632l42 -37q-21 -30 -42 -45t-51 -15q-31 0 -65 26.5t-58 26.5q-29 0 -54 -37l-41 37q20 30 41.5 44.5t53.5 14.5q31 0 64.5 -26.5
t56.5 -26.5q31 0 53 38z" />
    <glyph glyph-name="ograve" unicode="&#xf2;" horiz-adv-x="502" 
d="M462 242q0 -115 -50.5 -183t-160.5 -68t-160 67.5t-50 183.5t50 184t160 68t160.5 -68t50.5 -184zM385 242q0 30 -3 53.5t-11.5 48t-23 40.5t-39 26.5t-57.5 10.5t-57.5 -10.5t-39 -26.5t-23 -40.5t-11.5 -48t-3 -53.5q0 -38 5 -66.5t18.5 -55.5t41.5 -41.5t69 -14.5
q77 0 105.5 49t28.5 129zM252 688l84 -153h-60l-110 153h86z" />
    <glyph glyph-name="oacute" unicode="&#xf3;" horiz-adv-x="502" 
d="M462 242q0 -115 -50.5 -183t-160.5 -68t-160 67.5t-50 183.5t50 184t160 68t160.5 -68t50.5 -184zM385 242q0 30 -3 53.5t-11.5 48t-23 40.5t-39 26.5t-57.5 10.5t-57.5 -10.5t-39 -26.5t-23 -40.5t-11.5 -48t-3 -53.5q0 -38 5 -66.5t18.5 -55.5t41.5 -41.5t69 -14.5
q77 0 105.5 49t28.5 129zM251 688h85l-109 -153h-61z" />
    <glyph glyph-name="ocircumflex" unicode="&#xf4;" horiz-adv-x="502" 
d="M462 242q0 -115 -50.5 -183t-160.5 -68t-160 67.5t-50 183.5t50 184t160 68t160.5 -68t50.5 -184zM385 242q0 30 -3 53.5t-11.5 48t-23 40.5t-39 26.5t-57.5 10.5t-57.5 -10.5t-39 -26.5t-23 -40.5t-11.5 -48t-3 -53.5q0 -38 5 -66.5t18.5 -55.5t41.5 -41.5t69 -14.5
q77 0 105.5 49t28.5 129zM287 685l112 -149h-79l-69 107l-69 -107h-78l112 149h71z" />
    <glyph glyph-name="otilde" unicode="&#xf5;" horiz-adv-x="502" 
d="M462 242q0 -115 -50.5 -183t-160.5 -68t-160 67.5t-50 183.5t50 184t160 68t160.5 -68t50.5 -184zM385 242q0 30 -3 53.5t-11.5 48t-23 40.5t-39 26.5t-57.5 10.5t-57.5 -10.5t-39 -26.5t-23 -40.5t-11.5 -48t-3 -53.5q0 -38 5 -66.5t18.5 -55.5t41.5 -41.5t69 -14.5
q77 0 105.5 49t28.5 129zM365 632l42 -37q-23 -30 -43.5 -45t-50.5 -15t-64 26.5t-58 26.5q-29 0 -54 -37l-41 37q20 30 41.5 44.5t52.5 14.5t65 -26.5t57 -26.5q29 0 53 38z" />
    <glyph glyph-name="odieresis" unicode="&#xf6;" horiz-adv-x="502" 
d="M462 242q0 -115 -50.5 -183t-160.5 -68t-160 67.5t-50 183.5t50 184t160 68t160.5 -68t50.5 -184zM385 242q0 30 -3 53.5t-11.5 48t-23 40.5t-39 26.5t-57.5 10.5t-57.5 -10.5t-39 -26.5t-23 -40.5t-11.5 -48t-3 -53.5q0 -38 5 -66.5t18.5 -55.5t41.5 -41.5t69 -14.5
q77 0 105.5 49t28.5 129zM397 592q0 -22 -14.5 -36.5t-35.5 -14.5q-22 0 -37 14.5t-15 36.5q0 21 15 36t37 15q20 0 35 -15t15 -36zM208 592q0 -21 -15 -36t-36 -15q-22 0 -36.5 14.5t-14.5 36.5q0 21 14.5 36t36.5 15q20 0 35.5 -15t15.5 -36z" />
    <glyph glyph-name="divide" unicode="&#xf7;" horiz-adv-x="524" 
d="M309 433q0 -20 -14.5 -34.5t-34.5 -14.5t-34.5 14.5t-14.5 34.5t14.5 34.5t34.5 14.5t34.5 -14.5t14.5 -34.5zM468 304v-60h-412v60h412zM309 115q0 -20 -14.5 -34.5t-34.5 -14.5t-34.5 14.5t-14.5 34.5t14.5 34.5t34.5 14.5t34.5 -14.5t14.5 -34.5z" />
    <glyph glyph-name="oslash" unicode="&#xf8;" horiz-adv-x="529" 
d="M462 241q0 -250 -211 -250q-55 0 -96 20l-12 -20h-58l24 46q-68 68 -68 204q0 116 50 184t160 68q53 0 95 -21l13 23h60l-26 -49q69 -68 69 -205zM385 241q0 78 -31 126l-165 -287q27 -16 62 -16q33 0 57.5 10t39 26t23 40t11.5 48t3 53zM312 404q-27 15 -61 15
q-41 0 -69 -14.5t-41.5 -41.5t-18.5 -56t-5 -66q0 -77 31 -125z" />
    <glyph glyph-name="ugrave" unicode="&#xf9;" horiz-adv-x="514" 
d="M449 485v-485h-64l-2 51q-54 -59 -127 -59q-198 0 -198 211v282h75v-278q0 -70 26.5 -106t97.5 -36q43 0 80 28t37 72v320h75zM257 688l85 -153h-61l-110 153h86z" />
    <glyph glyph-name="uacute" unicode="&#xfa;" horiz-adv-x="514" 
d="M449 485v-485h-64l-2 51q-54 -59 -127 -59q-198 0 -198 211v282h75v-278q0 -70 26.5 -106t97.5 -36q43 0 80 28t37 72v320h75zM256 688h86l-110 -153h-61z" />
    <glyph glyph-name="ucircumflex" unicode="&#xfb;" horiz-adv-x="514" 
d="M449 485v-485h-64l-2 51q-54 -59 -127 -59q-198 0 -198 211v282h75v-278q0 -70 26.5 -106t97.5 -36q43 0 80 28t37 72v320h75zM292 685l112 -149h-78l-70 107l-69 -107h-78l112 149h71z" />
    <glyph glyph-name="udieresis" unicode="&#xfc;" horiz-adv-x="514" 
d="M449 485v-485h-64l-2 51q-54 -59 -127 -59q-198 0 -198 211v282h75v-278q0 -70 26.5 -106t97.5 -36q43 0 80 28t37 72v320h75zM402 592q0 -22 -14.5 -36.5t-35.5 -14.5t-36.5 15t-15.5 36t15.5 36t36.5 15t35.5 -15t14.5 -36zM213 592q0 -22 -15 -36.5t-36 -14.5
t-36 14.5t-15 36.5q0 21 15 36t36 15t36 -15t15 -36z" />
    <glyph glyph-name="yacute" unicode="&#xfd;" horiz-adv-x="482" 
d="M381 485h80l-228 -604q-21 -57 -59 -79.5t-99 -22.5h-14v66h13q40 0 60 14t32 45l35 94l-180 487h81l138 -391zM240 688h86l-109 -153h-62z" />
    <glyph glyph-name="thorn" unicode="&#xfe;" horiz-adv-x="514" 
d="M474 244q0 -73 -18 -127t-64.5 -89.5t-118.5 -35.5q-77 0 -117 48v-254h-77v912h77v-252q41 50 116 50q107 0 154.5 -70t47.5 -182zM397 244q0 36 -4.5 63.5t-17 55t-38.5 42.5t-65 15q-49 0 -82.5 -29t-33.5 -76v-142q0 -48 34 -76t82 -28q40 0 66 15.5t38 43.5
t16.5 54.5t4.5 61.5z" />
    <glyph glyph-name="ydieresis" unicode="&#xff;" horiz-adv-x="482" 
d="M381 485h80l-228 -604q-21 -57 -59 -79.5t-99 -22.5h-14v66h13q40 0 60 14t32 45l35 94l-180 487h81l138 -391zM387 592q0 -22 -15 -36.5t-36 -14.5t-36 14.5t-15 36.5q0 21 15 36t36 15t36 -15t15 -36zM197 592q0 -22 -15 -36.5t-36 -14.5t-36 14.5t-15 36.5q0 21 15 36
t36 15t36 -15t15 -36z" />
    <glyph glyph-name="Amacron" unicode="&#x100;" horiz-adv-x="637" 
d="M360 698l268 -698h-85l-75 200h-299l-75 -200h-85l268 698h83zM195 270h246l-123 326zM463 837v-58h-290v58h290z" />
    <glyph glyph-name="amacron" unicode="&#x101;" horiz-adv-x="477" 
d="M417 81l17 -73l-65 -16l-13 49q-63 -52 -141 -52q-75 0 -124.5 39.5t-49.5 110.5q0 66 45 104t123 40h75q44 2 62 22v40q0 36 -30.5 58t-68.5 22q-90 0 -118 -65l-65 22q42 111 185 111q65 0 116.5 -40t51.5 -102v-270zM346 107v136q-29 -16 -58 -16h-74
q-43 -1 -73.5 -23t-30.5 -65q0 -42 32.5 -64t74.5 -22q71 0 129 54zM384 616v-58h-291v58h291z" />
    <glyph glyph-name="Abreve" unicode="&#x102;" horiz-adv-x="637" 
d="M360 698l268 -698h-85l-75 200h-299l-75 -200h-85l268 698h83zM195 270h246l-123 326zM429 898h57q-54 -135 -168 -135q-112 0 -166 135h56q43 -81 110 -81q68 0 111 81z" />
    <glyph glyph-name="abreve" unicode="&#x103;" horiz-adv-x="477" 
d="M417 81l17 -73l-65 -16l-13 49q-63 -52 -141 -52q-75 0 -124.5 39.5t-49.5 110.5q0 66 45 104t123 40h75q44 2 62 22v40q0 36 -30.5 58t-68.5 22q-90 0 -118 -65l-65 22q42 111 185 111q65 0 116.5 -40t51.5 -102v-270zM346 107v136q-29 -16 -58 -16h-74
q-43 -1 -73.5 -23t-30.5 -65q0 -42 32.5 -64t74.5 -22q71 0 129 54zM350 677h56q-54 -135 -167 -135t-167 135h57q43 -81 110 -81q68 0 111 81z" />
    <glyph glyph-name="Aogonek" unicode="&#x104;" horiz-adv-x="637" 
d="M604 0l128 -198h-79l-110 198l-75 200h-299l-75 -200h-85l268 698h83l268 -698h-24zM195 270h246l-123 326z" />
    <glyph glyph-name="aogonek" unicode="&#x105;" horiz-adv-x="477" 
d="M420 5l133 -203h-80l-104 190l-13 49q-63 -52 -141 -52q-75 0 -124.5 39.5t-49.5 110.5q0 66 45 104t123 40h75q44 2 62 22v40q0 36 -30.5 58t-68.5 22q-90 0 -118 -65l-65 22q42 111 185 111q65 0 116.5 -40t51.5 -102v-270l17 -72zM346 107v136q-29 -16 -58 -16h-74
q-43 -1 -73.5 -23t-30.5 -65q0 -42 32.5 -64t74.5 -22q71 0 129 54z" />
    <glyph glyph-name="Cacute" unicode="&#x106;" horiz-adv-x="592" 
d="M498 158l57 -53q-52 -62 -100.5 -88t-123.5 -26t-132 29.5t-90.5 80.5t-49.5 113.5t-16 134.5q0 73 16 135t49 113t90 80.5t132 29.5q72 0 123 -26t100 -83l-57 -54q-38 43 -75 63.5t-91 20.5q-59 0 -101 -24.5t-64 -67t-31.5 -88.5t-9.5 -99t9.5 -99t31.5 -88.5t64 -67
t101 -24.5q54 0 92 21.5t76 66.5zM343 909h86l-110 -153h-61z" />
    <glyph glyph-name="cacute" unicode="&#x107;" horiz-adv-x="475" 
d="M436 413l-54 -50q-55 60 -118 60q-78 0 -111.5 -51t-33.5 -130q0 -78 33.5 -129t111.5 -51q63 0 118 60l54 -50q-40 -43 -78 -61.5t-94 -18.5q-107 0 -165 70t-58 180t58 181t165 71q55 0 93.5 -19.5t78.5 -61.5zM248 688h86l-110 -153h-61z" />
    <glyph glyph-name="Ccircumflex" unicode="&#x108;" horiz-adv-x="592" 
d="M498 158l57 -53q-52 -62 -100.5 -88t-123.5 -26t-132 29.5t-90.5 80.5t-49.5 113.5t-16 134.5q0 73 16 135t49 113t90 80.5t132 29.5q72 0 123 -26t100 -83l-57 -54q-38 43 -75 63.5t-91 20.5q-59 0 -101 -24.5t-64 -67t-31.5 -88.5t-9.5 -99t9.5 -99t31.5 -88.5t64 -67
t101 -24.5q54 0 92 21.5t76 66.5zM360 906l112 -149h-79l-69 107l-69 -107h-78l112 149h71z" />
    <glyph glyph-name="ccircumflex" unicode="&#x109;" horiz-adv-x="475" 
d="M436 413l-54 -50q-55 60 -118 60q-78 0 -111.5 -51t-33.5 -130q0 -78 33.5 -129t111.5 -51q63 0 118 60l54 -50q-40 -43 -78 -61.5t-94 -18.5q-107 0 -165 70t-58 180t58 181t165 71q55 0 93.5 -19.5t78.5 -61.5zM273 685l112 -149h-79l-69 107l-69 -107h-78l112 149h71z
" />
    <glyph glyph-name="Cdotaccent" unicode="&#x10a;" horiz-adv-x="592" 
d="M498 158l57 -53q-52 -62 -100.5 -88t-123.5 -26t-132 29.5t-90.5 80.5t-49.5 113.5t-16 134.5q0 73 16 135t49 113t90 80.5t132 29.5q72 0 123 -26t100 -83l-57 -54q-38 43 -75 63.5t-91 20.5q-59 0 -101 -24.5t-64 -67t-31.5 -88.5t-9.5 -99t9.5 -99t31.5 -88.5t64 -67
t101 -24.5q54 0 92 21.5t76 66.5zM383 807q0 -21 -15.5 -36.5t-37.5 -15.5t-37.5 15.5t-15.5 36.5q0 22 15.5 38t37.5 16t37.5 -16t15.5 -38z" />
    <glyph glyph-name="cdotaccent" unicode="&#x10b;" horiz-adv-x="475" 
d="M436 413l-54 -50q-55 60 -118 60q-78 0 -111.5 -51t-33.5 -130q0 -78 33.5 -129t111.5 -51q63 0 118 60l54 -50q-40 -43 -78 -61.5t-94 -18.5q-107 0 -165 70t-58 180t58 181t165 71q55 0 93.5 -19.5t78.5 -61.5zM299 586q0 -21 -15.5 -36.5t-37.5 -15.5t-37.5 15.5
t-15.5 36.5q0 22 15.5 38t37.5 16t37.5 -16t15.5 -38z" />
    <glyph glyph-name="Ccaron" unicode="&#x10c;" horiz-adv-x="592" 
d="M555 105l-57 53q-38 -45 -76 -66.5t-92 -21.5q-59 0 -101 24.5t-64 67t-31.5 88.5t-9.5 99t9.5 99t31.5 88.5t64 67t101 24.5q54 0 91 -20.5t75 -63.5l57 54q-49 57 -100 83t-123 26q-75 0 -132 -29.5t-90 -80.5t-49 -113t-16 -135q0 -72 16 -134.5t49.5 -113.5
t90.5 -80.5t132 -29.5t123.5 26t100.5 88zM479 906l-112 -149h-71l-112 149h78l69 -107l70 107h78z" />
    <glyph glyph-name="ccaron" unicode="&#x10d;" horiz-adv-x="475" 
d="M436 413l-54 -50q-55 60 -118 60q-78 0 -111.5 -51t-33.5 -130q0 -78 33.5 -129t111.5 -51q63 0 118 60l54 -50q-40 -43 -78 -61.5t-94 -18.5q-107 0 -165 70t-58 180t58 181t165 71q55 0 93.5 -19.5t78.5 -61.5zM385 685l-112 -149h-71l-112 149h78l69 -107l69 107h79z
" />
    <glyph glyph-name="Dcaron" unicode="&#x10e;" horiz-adv-x="636" 
d="M580 349q0 80 -5.5 130.5t-23.5 96.5t-52 70t-89.5 38t-137.5 14h-199v-698h199q82 0 137.5 14t89.5 38t52 70t23.5 96.5t5.5 130.5zM500 349q0 -59 -0.5 -84.5t-6.5 -62t-19 -57.5q-21 -35 -65.5 -50.5t-122.5 -15.5h-133v541h133q78 0 122.5 -15.5t65.5 -49.5
q13 -21 19 -59t6.5 -63.5t0.5 -83.5zM465 906l-112 -149h-71l-112 149h78l69 -107l70 107h78z" />
    <glyph glyph-name="dcaron" unicode="&#x10f;" horiz-adv-x="507" 
d="M451 9l-67 -19l-13 57q-45 -56 -130 -56q-200 0 -200 252q0 73 17.5 126.5t64 89t119.5 35.5q76 0 115 -55v259h76v-612q0 -1 8.5 -38t9.5 -39zM357 170v145q0 48 -33 77t-82 29q-40 0 -66.5 -15.5t-38.5 -44t-16 -55.5t-4 -63t4 -63.5t16 -56t38 -44t66 -15.5
q49 0 82.5 29t33.5 77zM558 697v-160h-80v160q0 16 11.5 27.5t27.5 11.5q17 0 29 -11.5t12 -27.5z" />
    <glyph glyph-name="Dcroat" unicode="&#x110;" horiz-adv-x="654" 
d="M590 349q0 -103 -8 -156q-7 -49 -25.5 -84.5t-43.5 -56.5t-62 -33t-72 -15.5t-82 -3.5h-213v316h-42v62h42v320h213q47 0 82 -3.5t72 -15.5t62 -32.5t43.5 -56t25.5 -84.5q8 -53 8 -157zM510 349q0 92 -7 140q-5 36 -18.5 61t-30.5 38.5t-45 21t-51.5 9t-60.5 1.5h-134
v-242h149v-62h-149v-237h134q49 0 78 3.5t59 15.5t46.5 39.5t22.5 71.5q7 49 7 140z" />
    <glyph glyph-name="dcroat" unicode="&#x111;" horiz-adv-x="507" 
d="M507 624v-63h-74v-475q0 -1 8.5 -38t9.5 -39l-67 -19l-13 57q-45 -56 -130 -56q-200 0 -200 252q0 73 17.5 126.5t64 89t119.5 35.5q76 0 115 -55v122h-125v63h125v74h76v-74h74zM357 170v145q0 48 -33 77t-82 29q-40 0 -66.5 -15.5t-38.5 -44t-16 -55.5t-4 -63t4 -63.5
t16 -56t38 -44t66 -15.5q49 0 82.5 29t33.5 77z" />
    <glyph glyph-name="Emacron" unicode="&#x112;" horiz-adv-x="577" 
d="M527 78v-78h-454v698h454v-78h-374v-222h327v-75h-327v-245h374zM433 837v-58h-290v58h290z" />
    <glyph glyph-name="emacron" unicode="&#x113;" horiz-adv-x="486" 
d="M445 264v-36h-326q5 -167 146 -167q74 0 119 50l49 -46q-71 -74 -168 -74q-111 0 -167.5 69t-56.5 182q0 112 54 181.5t162 69.5q91 0 139.5 -63.5t48.5 -165.5zM119 280h255q-7 143 -120 143q-122 0 -135 -143zM389 616v-58h-291v58h291z" />
    <glyph glyph-name="Ebreve" unicode="&#x114;" horiz-adv-x="577" 
d="M527 78v-78h-454v698h454v-78h-374v-222h327v-75h-327v-245h374zM399 898h56q-52 -135 -167 -135q-113 0 -167 135h57q43 -81 110 -81q68 0 111 81z" />
    <glyph glyph-name="ebreve" unicode="&#x115;" horiz-adv-x="486" 
d="M445 264v-36h-326q5 -167 146 -167q74 0 119 50l49 -46q-71 -74 -168 -74q-111 0 -167.5 69t-56.5 182q0 112 54 181.5t162 69.5q91 0 139.5 -63.5t48.5 -165.5zM119 280h255q-7 143 -120 143q-122 0 -135 -143zM353 677h57q-54 -135 -167 -135t-167 135h56
q43 -81 111 -81q67 0 110 81z" />
    <glyph glyph-name="Edotaccent" unicode="&#x116;" horiz-adv-x="577" 
d="M527 78v-78h-454v698h454v-78h-374v-222h327v-75h-327v-245h374zM341 807q0 -21 -15.5 -36.5t-37.5 -15.5t-37 15.5t-15 36.5q0 23 15 38.5t37 15.5t37.5 -16t15.5 -38z" />
    <glyph glyph-name="edotaccent" unicode="&#x117;" horiz-adv-x="486" 
d="M445 264v-36h-326q5 -167 146 -167q74 0 119 50l49 -46q-71 -74 -168 -74q-111 0 -167.5 69t-56.5 182q0 112 54 181.5t162 69.5q91 0 139.5 -63.5t48.5 -165.5zM119 280h255q-7 143 -120 143q-122 0 -135 -143zM296 586q0 -21 -15.5 -36.5t-37.5 -15.5t-37.5 15.5
t-15.5 36.5q0 22 15.5 38t37.5 16t37.5 -16t15.5 -38z" />
    <glyph glyph-name="Eogonek" unicode="&#x118;" horiz-adv-x="577" 
d="M527 0l127 -198h-79l-110 198h-392v698h454v-78h-374v-222h327v-75h-327v-245h374v-78z" />
    <glyph glyph-name="eogonek" unicode="&#x119;" horiz-adv-x="486" 
d="M348 6l131 -204h-79l-106 191q-16 -2 -29 -2q-111 0 -167.5 69t-56.5 182q0 112 54 181.5t162 69.5q91 0 139.5 -63.5t48.5 -165.5v-36h-326q5 -167 146 -167q74 0 119 50l49 -46q-41 -44 -85 -59zM119 280h255q-7 143 -120 143q-122 0 -135 -143z" />
    <glyph glyph-name="Ecaron" unicode="&#x11a;" horiz-adv-x="577" 
d="M527 0v78h-374v245h327v75h-327v222h374v78h-454v-698h454zM445 906l-112 -149h-71l-112 149h78l69 -107l69 107h79z" />
    <glyph glyph-name="ecaron" unicode="&#x11b;" horiz-adv-x="486" 
d="M445 228v36q0 102 -48.5 165.5t-139.5 63.5q-108 0 -162 -69.5t-54 -181.5q0 -113 56.5 -182t167.5 -69q97 0 168 74l-49 46q-45 -50 -119 -50q-141 0 -146 167h326zM374 280h-255q13 143 135 143q113 0 120 -143zM391 685l-112 -149h-72l-111 149h78l69 -107l69 107h79z
" />
    <glyph glyph-name="Gcircumflex" unicode="&#x11c;" horiz-adv-x="625" 
d="M328 370h238v-370h-69v102q-49 -111 -175 -111q-74 0 -129.5 30t-87 81.5t-47 113.5t-15.5 133t16 133.5t48.5 114t88.5 81t130 29.5q73 0 123 -27.5t98 -87.5l-57 -51q-37 45 -73.5 66t-90.5 21q-59 0 -101 -24.5t-63 -67t-30 -88t-9 -99.5q0 -42 5 -78.5t18.5 -74.5
t35.5 -65t58.5 -44t83.5 -17q46 0 79.5 19t51 53t25.5 72.5t8 84.5h-160v71zM348 906l112 -149h-79l-69 107l-69 -107h-78l112 149h71z" />
    <glyph glyph-name="gcircumflex" unicode="&#x11d;" horiz-adv-x="495" 
d="M415 325q0 -80 -47.5 -122t-131.5 -42q-26 0 -55 7q-46 -29 -46 -67q0 -28 35 -28q29 0 84 13t83 13q53 0 88 -30.5t35 -80.5q0 -80 -69.5 -130.5t-155.5 -50.5q-78 0 -138 34.5t-60 102.5q0 20 6 38l67 -21q-2 -10 -2 -16q0 -34 39 -52.5t82 -18.5q57 0 108 30t51 81
q0 25 -19 38.5t-43 13.5q-26 0 -74.5 -10.5t-73.5 -10.5q-44 0 -74.5 19.5t-30.5 57.5q0 55 53 99q-66 41 -66 134q0 83 46 125t131 42q77 0 120 -33q30 14 33 47h64q-4 -70 -57 -96q18 -41 18 -86zM343 326q0 98 -105 98q-106 0 -106 -98q0 -100 105 -100q106 0 106 100z
M283 685l112 -149h-79l-69 107l-69 -107h-78l112 149h71z" />
    <glyph glyph-name="Gbreve" unicode="&#x11e;" horiz-adv-x="625" 
d="M328 370h238v-370h-69v102q-49 -111 -175 -111q-74 0 -129.5 30t-87 81.5t-47 113.5t-15.5 133t16 133.5t48.5 114t88.5 81t130 29.5q73 0 123 -27.5t98 -87.5l-57 -51q-37 45 -73.5 66t-90.5 21q-59 0 -101 -24.5t-63 -67t-30 -88t-9 -99.5q0 -42 5 -78.5t18.5 -74.5
t35.5 -65t58.5 -44t83.5 -17q46 0 79.5 19t51 53t25.5 72.5t8 84.5h-160v71zM423 898h56q-52 -135 -167 -135q-111 0 -167 135h57q43 -81 110 -81q68 0 111 81z" />
    <glyph glyph-name="gbreve" unicode="&#x11f;" horiz-adv-x="495" 
d="M415 325q0 -80 -47.5 -122t-131.5 -42q-26 0 -55 7q-46 -29 -46 -67q0 -28 35 -28q29 0 84 13t83 13q53 0 88 -30.5t35 -80.5q0 -80 -69.5 -130.5t-155.5 -50.5q-78 0 -138 34.5t-60 102.5q0 20 6 38l67 -21q-2 -10 -2 -16q0 -34 39 -52.5t82 -18.5q57 0 108 30t51 81
q0 25 -19 38.5t-43 13.5q-26 0 -74.5 -10.5t-73.5 -10.5q-44 0 -74.5 19.5t-30.5 57.5q0 55 53 99q-66 41 -66 134q0 83 46 125t131 42q77 0 120 -33q30 14 33 47h64q-4 -70 -57 -96q18 -41 18 -86zM343 326q0 98 -105 98q-106 0 -106 -98q0 -100 105 -100q106 0 106 100z
M358 677h56q-52 -135 -167 -135q-111 0 -167 135h57q43 -81 110 -81q68 0 111 81z" />
    <glyph glyph-name="Gdotaccent" unicode="&#x120;" horiz-adv-x="625" 
d="M328 370h238v-370h-69v102q-49 -111 -175 -111q-74 0 -129.5 30t-87 81.5t-47 113.5t-15.5 133t16 133.5t48.5 114t88.5 81t130 29.5q73 0 123 -27.5t98 -87.5l-57 -51q-37 45 -73.5 66t-90.5 21q-59 0 -101 -24.5t-63 -67t-30 -88t-9 -99.5q0 -42 5 -78.5t18.5 -74.5
t35.5 -65t58.5 -44t83.5 -17q46 0 79.5 19t51 53t25.5 72.5t8 84.5h-160v71zM365 807q0 -21 -15.5 -36.5t-37.5 -15.5t-37.5 15.5t-15.5 36.5q0 22 15.5 38t37.5 16t37.5 -16t15.5 -38z" />
    <glyph glyph-name="gdotaccent" unicode="&#x121;" horiz-adv-x="495" 
d="M415 325q0 -80 -47.5 -122t-131.5 -42q-26 0 -55 7q-46 -29 -46 -67q0 -28 35 -28q29 0 84 13t83 13q53 0 88 -30.5t35 -80.5q0 -80 -69.5 -130.5t-155.5 -50.5q-78 0 -138 34.5t-60 102.5q0 20 6 38l67 -21q-2 -10 -2 -16q0 -34 39 -52.5t82 -18.5q57 0 108 30t51 81
q0 25 -19 38.5t-43 13.5q-26 0 -74.5 -10.5t-73.5 -10.5q-44 0 -74.5 19.5t-30.5 57.5q0 55 53 99q-66 41 -66 134q0 83 46 125t131 42q77 0 120 -33q30 14 33 47h64q-4 -70 -57 -96q18 -41 18 -86zM343 326q0 98 -105 98q-106 0 -106 -98q0 -100 105 -100q106 0 106 100z
M301 586q0 -21 -16 -36.5t-38 -15.5t-37 15.5t-15 36.5q0 23 15 38.5t37 15.5q23 0 38.5 -16t15.5 -38z" />
    <glyph glyph-name="Gcommaaccent" unicode="&#x122;" horiz-adv-x="625" 
d="M328 370h238v-370h-69v102q-49 -111 -175 -111q-74 0 -129.5 30t-87 81.5t-47 113.5t-15.5 133t16 133.5t48.5 114t88.5 81t130 29.5q73 0 123 -27.5t98 -87.5l-57 -51q-37 45 -73.5 66t-90.5 21q-59 0 -101 -24.5t-63 -67t-30 -88t-9 -99.5q0 -42 5 -78.5t18.5 -74.5
t35.5 -65t58.5 -44t83.5 -17q46 0 79.5 19t51 53t25.5 72.5t8 84.5h-160v71zM372 -121v-41l-70 -111h-25v152q0 19 14 32.5t33 13.5q21 0 34.5 -13.5t13.5 -32.5z" />
    <glyph glyph-name="gcommaaccent" unicode="&#x123;" horiz-adv-x="495" 
d="M415 325q0 -80 -47.5 -122t-131.5 -42q-26 0 -55 7q-46 -29 -46 -67q0 -28 35 -28q29 0 84 13t83 13q53 0 88 -30.5t35 -80.5q0 -80 -69.5 -130.5t-155.5 -50.5q-78 0 -138 34.5t-60 102.5q0 20 6 38l67 -21q-2 -10 -2 -16q0 -34 39 -52.5t82 -18.5q57 0 108 30t51 81
q0 25 -19 38.5t-43 13.5q-26 0 -74.5 -10.5t-73.5 -10.5q-44 0 -74.5 19.5t-30.5 57.5q0 55 53 99q-66 41 -66 134q0 83 46 125t131 42q77 0 120 -33q30 14 33 47h64q-4 -70 -57 -96q18 -41 18 -86zM343 326q0 98 -105 98q-106 0 -106 -98q0 -100 105 -100q106 0 106 100z
M200 581v40l69 112h26v-152q0 -19 -13.5 -32.5t-33.5 -13.5q-21 0 -34.5 13t-13.5 33z" />
    <glyph glyph-name="Hcircumflex" unicode="&#x124;" horiz-adv-x="658" 
d="M585 698v-698h-80v323h-352v-323h-80v698h80v-300h352v300h80zM364 906l112 -149h-78l-70 107l-68 -107h-78l111 149h71z" />
    <glyph glyph-name="hcircumflex" unicode="&#x125;" horiz-adv-x="512" 
d="M459 275v-275h-75v275q0 145 -125 145q-42 0 -79 -28.5t-37 -71.5v-320h-75v698h75v-264q20 31 54.5 46t70.5 15q98 0 144.5 -59t46.5 -161zM141 893l112 -149h-78l-70 106l-68 -106h-79l112 149h71z" />
    <glyph glyph-name="Hbar" unicode="&#x126;" horiz-adv-x="658" 
d="M658 567v-54h-73v-513h-80v323h-352v-323h-80v513h-73v54h73v131h80v-131h352v131h80v-131h73zM153 398h352v115h-352v-115z" />
    <glyph glyph-name="hbar" unicode="&#x127;" horiz-adv-x="512" 
d="M400 631v-54h-257v-143q20 31 54.5 46t70.5 15q98 0 144.5 -59t46.5 -161v-275h-75v275q0 145 -125 145q-42 0 -79 -28.5t-37 -71.5v-320h-75v698h75v-67h257z" />
    <glyph glyph-name="Itilde" unicode="&#x128;" horiz-adv-x="249" 
d="M164 698v-698h-80v698h80zM239 853l42 -37q-22 -30 -43 -45t-51 -15t-64.5 26.5t-58.5 26.5q-29 0 -54 -37l-41 37q39 59 95 59q31 0 65 -26.5t57 -26.5q29 0 53 38z" />
    <glyph glyph-name="itilde" unicode="&#x129;" horiz-adv-x="225" 
d="M151 485v-485h-74v485h74zM226 632l42 -37q-21 -30 -42 -45t-51 -15q-31 0 -65 26.5t-58 26.5q-29 0 -54 -37l-41 37q20 30 41.5 44.5t52.5 14.5t65 -26.5t57 -26.5q31 0 53 38z" />
    <glyph glyph-name="imacron" unicode="&#x12b;" horiz-adv-x="226" 
d="M151 485v-485h-74v485h74zM258 616v-58h-290v58h290z" />
    <glyph glyph-name="Ibreve" unicode="&#x12c;" horiz-adv-x="249" 
d="M164 698v-698h-80v698h80zM235 898h57q-54 -135 -168 -135q-112 0 -166 135h56q43 -81 110 -81q68 0 111 81z" />
    <glyph glyph-name="Iogonek" unicode="&#x12e;" horiz-adv-x="249" 
d="M164 698v-698h-18l127 -198h-79l-110 198v698h80z" />
    <glyph glyph-name="iogonek" unicode="&#x12f;" horiz-adv-x="228" 
d="M138 0l129 -198h-80l-110 198v485h75v-485h-14zM168 658q0 -21 -15.5 -36.5t-37.5 -15.5t-37 15.5t-15 36.5q0 22 15 37.5t37 15.5t37.5 -15.5t15.5 -37.5z" />
    <glyph glyph-name="Idotaccent" unicode="&#x130;" horiz-adv-x="249" 
d="M164 698v-698h-80v698h80zM177 807q0 -21 -15.5 -36.5t-37.5 -15.5t-37 15.5t-15 36.5q0 23 15 38.5t37 15.5t37.5 -16t15.5 -38z" />
    <glyph glyph-name="dotlessi" unicode="&#x131;" horiz-adv-x="224" 
d="M149 485v-485h-75v485h75z" />
    <glyph glyph-name="Jcircumflex" unicode="&#x134;" horiz-adv-x="542" 
d="M472 698v-484q0 -109 -57 -165t-169 -56q-172 0 -219 160l77 21q31 -103 142 -103q77 0 112 35.5t35 109.5v482h79zM469 906l112 -149h-78l-70 107l-69 -107h-78l112 149h71z" />
    <glyph glyph-name="jcircumflex" unicode="&#x135;" horiz-adv-x="235" 
d="M158 485v-514q0 -82 -40.5 -131t-122.5 -56l-20 66q109 9 109 126v509h74zM158 685l112 -149h-79l-69 107l-69 -107h-78l112 149h71z" />
    <glyph glyph-name="Kcommaaccent" unicode="&#x136;" horiz-adv-x="574" 
d="M524 698l-272 -346l298 -352h-98l-290 351l272 347h90zM153 0h-80v698h80v-698zM332 -121v-41l-70 -111h-25v152q0 19 14 32.5t33 13.5q21 0 34.5 -13.5t13.5 -32.5z" />
    <glyph glyph-name="kcommaaccent" unicode="&#x137;" horiz-adv-x="449" 
d="M225 262l211 -262h-85l-206 261l175 224h81zM139 698v-698h-73v698h73zM272 -121v-41l-70 -111h-25v152q0 19 14 32.5t33 13.5q21 0 34.5 -13.5t13.5 -32.5z" />
    <glyph glyph-name="Lacute" unicode="&#x139;" horiz-adv-x="519" 
d="M486 75v-75h-413v698h79v-623h334zM158 909h86l-110 -153h-61z" />
    <glyph glyph-name="lacute" unicode="&#x13a;" horiz-adv-x="227" 
d="M191 66l1 -65q-64 2 -95 30.5t-31 89.5v577h72v-577q0 -51 53 -55zM150 895h86l-109 -154h-61z" />
    <glyph glyph-name="Lcommaaccent" unicode="&#x13b;" horiz-adv-x="519" 
d="M486 75v-75h-413v698h79v-623h334zM320 -121v-41l-70 -111h-25v152q0 19 14 32.5t33 13.5q21 0 34.5 -13.5t13.5 -32.5z" />
    <glyph glyph-name="lcommaaccent" unicode="&#x13c;" horiz-adv-x="227" 
d="M191 66l1 -65q-64 2 -95 30.5t-31 89.5v577h72v-577q0 -51 53 -55zM165 -121v-41l-70 -111h-25v152q0 19 14 32.5t33 13.5q21 0 34.5 -13.5t13.5 -32.5z" />
    <glyph glyph-name="Lcaron" unicode="&#x13d;" horiz-adv-x="519" 
d="M486 75v-75h-413v698h79v-623h334zM477 676l-6 -49l-68 -110h-23l5 159q1 19 14 32.5t32 13.5t33 -14t13 -32z" />
    <glyph glyph-name="lcaron" unicode="&#x13e;" horiz-adv-x="227" 
d="M191 66l1 -65q-64 2 -95 30.5t-31 89.5v577h72v-577q0 -51 53 -55zM302 696l-6 -49l-68 -111l-23 1l5 158q1 19 14 32.5t32 13.5t33 -13.5t13 -31.5z" />
    <glyph glyph-name="Lslash" unicode="&#x141;" horiz-adv-x="525" 
d="M496 78v-78h-415v262l-38 -16v62l38 17v373h81v-338l151 66v-63l-151 -66v-219h334z" />
    <glyph glyph-name="lslash" unicode="&#x142;" horiz-adv-x="278" 
d="M235 404v-63l-70 -31v-189q0 -24 9.5 -38.5t36.5 -16.5v-65q-120 3 -120 120v155l-52 -23v63l52 23v359h74v-325z" />
    <glyph glyph-name="Nacute" unicode="&#x143;" horiz-adv-x="635" 
d="M562 698v-698h-72l-337 543v-543h-80v698h73l336 -543v543h80zM316 909h86l-109 -153h-61z" />
    <glyph glyph-name="nacute" unicode="&#x144;" horiz-adv-x="517" 
d="M459 275v-275h-75v273q0 71 -27.5 109t-97.5 38q-48 0 -82 -32.5t-34 -73.5v-314h-75v485h64l2 -54q43 64 128 64q197 0 197 -220zM258 688h85l-109 -153h-61z" />
    <glyph glyph-name="Ncommaaccent" unicode="&#x145;" horiz-adv-x="635" 
d="M562 698v-698h-72l-337 543v-543h-80v698h73l336 -543v543h80zM351 -121v-41l-70 -111h-25v152q0 19 14 32.5t33 13.5q21 0 34.5 -13.5t13.5 -32.5z" />
    <glyph glyph-name="ncommaaccent" unicode="&#x146;" horiz-adv-x="517" 
d="M459 275v-275h-75v273q0 71 -27.5 109t-97.5 38q-48 0 -82 -32.5t-34 -73.5v-314h-75v485h64l2 -54q43 64 128 64q197 0 197 -220zM305 -121v-41l-69 -111h-26v152q0 19 14 32.5t33 13.5q21 0 34.5 -13.5t13.5 -32.5z" />
    <glyph glyph-name="Ncaron" unicode="&#x147;" horiz-adv-x="635" 
d="M562 0v698h-80v-543l-336 543h-73v-698h80v543l337 -543h72zM465 906l-112 -149h-71l-112 149h78l69 -107l69 107h79z" />
    <glyph glyph-name="ncaron" unicode="&#x148;" horiz-adv-x="517" 
d="M459 0v275q0 220 -197 220q-85 0 -128 -64l-2 54h-64v-485h75v314q0 41 34 73.5t82 32.5q70 0 97.5 -38t27.5 -109v-273h75zM405 685l-112 -149h-71l-111 149h78l68 -107l70 107h78z" />
    <glyph glyph-name="Eng" unicode="&#x14a;" horiz-adv-x="635" 
d="M562 698v-727q0 -82 -41 -131t-123 -56l-19 66q109 9 109 126v26l-335 541v-543h-80v698h73l336 -543v543h80z" />
    <glyph glyph-name="eng" unicode="&#x14b;" horiz-adv-x="517" 
d="M459 275v-304q0 -82 -41 -131t-123 -56l-19 66q108 9 108 126v297q0 71 -27.5 109t-97.5 38q-48 0 -82 -32.5t-34 -73.5v-314h-75v485h64l2 -54q43 64 128 64q197 0 197 -220z" />
    <glyph glyph-name="Omacron" unicode="&#x14c;" horiz-adv-x="649" 
d="M606 349q0 -72 -15 -134t-47 -113.5t-88.5 -81t-131.5 -29.5t-131 29.5t-88 81t-47 113.5t-15 134t15 134t47 113.5t88 81t131 29.5t131.5 -29.5t88.5 -81t47 -113.5t15 -134zM526 349q0 54 -8.5 99t-29.5 88t-62.5 67.5t-101.5 24.5q-48 0 -84.5 -17t-58 -43.5
t-35 -64.5t-18.5 -75t-5 -79t5 -79t18.5 -75t35 -64.5t58 -43.5t84.5 -17q60 0 101.5 24.5t62.5 67.5t29.5 88t8.5 99zM469 837v-58h-290v58h290z" />
    <glyph glyph-name="omacron" unicode="&#x14d;" horiz-adv-x="502" 
d="M462 242q0 -115 -50.5 -183t-160.5 -68t-160 67.5t-50 183.5t50 184t160 68t160.5 -68t50.5 -184zM385 242q0 30 -3 53.5t-11.5 48t-23 40.5t-39 26.5t-57.5 10.5t-57.5 -10.5t-39 -26.5t-23 -40.5t-11.5 -48t-3 -53.5q0 -38 5 -66.5t18.5 -55.5t41.5 -41.5t69 -14.5
q77 0 105.5 49t28.5 129zM396 616v-58h-290v58h290z" />
    <glyph glyph-name="Obreve" unicode="&#x14e;" horiz-adv-x="649" 
d="M606 349q0 -72 -15 -134t-47 -113.5t-88.5 -81t-131.5 -29.5t-131 29.5t-88 81t-47 113.5t-15 134t15 134t47 113.5t88 81t131 29.5t131.5 -29.5t88.5 -81t47 -113.5t15 -134zM526 349q0 54 -8.5 99t-29.5 88t-62.5 67.5t-101.5 24.5q-48 0 -84.5 -17t-58 -43.5
t-35 -64.5t-18.5 -75t-5 -79t5 -79t18.5 -75t35 -64.5t58 -43.5t84.5 -17q60 0 101.5 24.5t62.5 67.5t29.5 88t8.5 99zM435 898h56q-54 -135 -167 -135t-167 135h56q43 -81 111 -81t111 81z" />
    <glyph glyph-name="obreve" unicode="&#x14f;" horiz-adv-x="502" 
d="M462 242q0 -115 -50.5 -183t-160.5 -68t-160 67.5t-50 183.5t50 184t160 68t160.5 -68t50.5 -184zM385 242q0 30 -3 53.5t-11.5 48t-23 40.5t-39 26.5t-57.5 10.5t-57.5 -10.5t-39 -26.5t-23 -40.5t-11.5 -48t-3 -53.5q0 -38 5 -66.5t18.5 -55.5t41.5 -41.5t69 -14.5
q77 0 105.5 49t28.5 129zM362 677h56q-54 -135 -167 -135t-167 135h56q43 -81 111 -81t111 81z" />
    <glyph glyph-name="Ohungarumlaut" unicode="&#x150;" horiz-adv-x="649" 
d="M606 349q0 -72 -15 -134t-47 -113.5t-88.5 -81t-131.5 -29.5t-131 29.5t-88 81t-47 113.5t-15 134t15 134t47 113.5t88 81t131 29.5t131.5 -29.5t88.5 -81t47 -113.5t15 -134zM526 349q0 54 -8.5 99t-29.5 88t-62.5 67.5t-101.5 24.5q-48 0 -84.5 -17t-58 -43.5
t-35 -64.5t-18.5 -75t-5 -79t5 -79t18.5 -75t35 -64.5t58 -43.5t84.5 -17q60 0 101.5 24.5t62.5 67.5t29.5 88t8.5 99zM389 922h77l-104 -149h-48zM257 922h78l-105 -149h-47z" />
    <glyph glyph-name="ohungarumlaut" unicode="&#x151;" horiz-adv-x="502" 
d="M462 242q0 -115 -50.5 -183t-160.5 -68t-160 67.5t-50 183.5t50 184t160 68t160.5 -68t50.5 -184zM385 242q0 30 -3 53.5t-11.5 48t-23 40.5t-39 26.5t-57.5 10.5t-57.5 -10.5t-39 -26.5t-23 -40.5t-11.5 -48t-3 -53.5q0 -38 5 -66.5t18.5 -55.5t41.5 -41.5t69 -14.5
q77 0 105.5 49t28.5 129zM316 701h77l-104 -149h-48zM184 701h78l-105 -149h-47z" />
    <glyph glyph-name="OE" unicode="&#x152;" horiz-adv-x="1008" 
d="M956 0h-434v106q-61 -115 -200 -115q-75 0 -130.5 29.5t-87 81t-46.5 113.5t-15 134t15 134t46.5 113.5t87 81t130.5 29.5q61 0 115 -27t85 -86v104h434v-79h-355v-219h308v-77h-308v-244h355v-79zM521 349q0 279 -199 279q-59 0 -100.5 -24.5t-62 -67t-29 -88
t-8.5 -99.5q0 -42 5 -79t18.5 -75t35 -64.5t57.5 -43.5t84 -17q199 0 199 279z" />
    <glyph glyph-name="oe" unicode="&#x153;" horiz-adv-x="817" 
d="M715 115l53 -50q-69 -74 -169 -74q-119 0 -178 97q-57 -97 -173 -97q-207 0 -207 250q0 116 49 184t158 68q116 0 172 -98q59 97 171 97q64 0 107.5 -34t61 -84.5t17.5 -114.5v-32h-321q7 -165 143 -165q68 0 116 53zM457 279h249q-7 143 -117 143q-119 0 -132 -143z
M380 241q0 37 -5.5 66t-19 56t-40.5 41.5t-67 14.5q-76 0 -104 -49t-28 -129t28 -128.5t104 -48.5q40 0 67 14.5t40.5 41t19 55.5t5.5 66z" />
    <glyph glyph-name="Racute" unicode="&#x154;" horiz-adv-x="609" 
d="M545 502q0 -76 -45.5 -124t-130.5 -61q25 -18 49 -59l158 -258h-93l-146 246q-19 32 -38.5 48t-52.5 16h-93v-310h-80v698h244q104 0 166 -48.5t62 -147.5zM465 502q0 119 -148 119h-164v-240h164q148 0 148 121zM284 909h86l-110 -153h-61z" />
    <glyph glyph-name="racute" unicode="&#x155;" horiz-adv-x="388" 
d="M357 470l-30 -61q-35 14 -64 14q-49 0 -84.5 -31t-35.5 -76v-316h-75v485h64l2 -58q18 32 54 49.5t75 17.5q49 0 94 -24zM181 688h86l-110 -153h-61z" />
    <glyph glyph-name="Rcommaaccent" unicode="&#x156;" horiz-adv-x="609" 
d="M545 502q0 -76 -45.5 -124t-130.5 -61q25 -18 49 -59l158 -258h-93l-146 246q-19 32 -38.5 48t-52.5 16h-93v-310h-80v698h244q104 0 166 -48.5t62 -147.5zM465 502q0 119 -148 119h-164v-240h164q148 0 148 121zM344 -121v-41l-70 -111h-25v152q0 19 14 32.5t33 13.5
q21 0 34.5 -13.5t13.5 -32.5z" />
    <glyph glyph-name="rcommaaccent" unicode="&#x157;" horiz-adv-x="388" 
d="M357 470l-30 -61q-35 14 -64 14q-49 0 -84.5 -31t-35.5 -76v-316h-75v485h64l2 -58q18 32 54 49.5t75 17.5q49 0 94 -24zM156 -121v-41l-70 -111h-25v152q0 19 14 32.5t33 13.5q21 0 34.5 -13.5t13.5 -32.5z" />
    <glyph glyph-name="Rcaron" unicode="&#x158;" horiz-adv-x="609" 
d="M545 502q0 99 -62 147.5t-166 48.5h-244v-698h80v310h93q33 0 52.5 -16t38.5 -48l146 -246h93l-158 258q-24 41 -49 59q85 13 130.5 61t45.5 124zM465 502q0 -121 -148 -121h-164v240h164q148 0 148 -119zM438 906l-113 -149h-71l-111 149h78l68 -107l70 107h79z" />
    <glyph glyph-name="rcaron" unicode="&#x159;" horiz-adv-x="388" 
d="M357 470q-45 24 -94 24q-39 0 -75 -17.5t-54 -49.5l-2 58h-64v-485h75v316q0 45 35.5 76t84.5 31q29 0 64 -14zM341 685l-112 -149h-71l-111 149h78l68 -107l70 107h78z" />
    <glyph glyph-name="Sacute" unicode="&#x15a;" horiz-adv-x="605" 
d="M564 199q0 -96 -73.5 -152t-175.5 -56q-227 0 -272 187l76 15q32 -127 196 -127q66 0 118 34.5t52 98.5q0 39 -23 65t-60 40t-81.5 24.5t-89 23.5t-81.5 31.5t-60 54t-23 85.5q0 88 66.5 135t160.5 47q88 0 147.5 -33.5t97.5 -107.5l-69 -32q-29 53 -71 75.5t-105 22.5
q-57 0 -102.5 -25.5t-45.5 -81.5q0 -38 31 -63.5t77.5 -36t100.5 -26.5t100.5 -34.5t77.5 -60.5t31 -103zM302 909h86l-110 -153h-61z" />
    <glyph glyph-name="sacute" unicode="&#x15b;" horiz-adv-x="457" 
d="M421 139q0 -69 -55 -108.5t-129 -39.5q-166 0 -197 126l67 17q23 -75 129 -75q42 0 76 18.5t34 58.5q0 28 -22 47t-54.5 27.5l-71 19.5t-71 23.5t-54.5 40t-22 67.5q0 65 48.5 99t120.5 34q63 0 104.5 -20.5t72.5 -70.5l-59 -32q-35 55 -112 55q-23 0 -43 -4.5t-38 -20
t-18 -40.5q0 -29 30.5 -45.5t73.5 -26.5t86 -23t73.5 -45t30.5 -82zM228 688h86l-110 -153h-61z" />
    <glyph glyph-name="Scircumflex" unicode="&#x15c;" horiz-adv-x="605" 
d="M564 199q0 -96 -73.5 -152t-175.5 -56q-227 0 -272 187l76 15q32 -127 196 -127q66 0 118 34.5t52 98.5q0 39 -23 65t-60 40t-81.5 24.5t-89 23.5t-81.5 31.5t-60 54t-23 85.5q0 88 66.5 135t160.5 47q88 0 147.5 -33.5t97.5 -107.5l-69 -32q-29 53 -71 75.5t-105 22.5
q-57 0 -102.5 -25.5t-45.5 -81.5q0 -38 31 -63.5t77.5 -36t100.5 -26.5t100.5 -34.5t77.5 -60.5t31 -103zM338 906l112 -149h-79l-70 107l-68 -107h-78l111 149h72z" />
    <glyph glyph-name="scircumflex" unicode="&#x15d;" horiz-adv-x="457" 
d="M421 139q0 -69 -55 -108.5t-129 -39.5q-166 0 -197 126l67 17q23 -75 129 -75q42 0 76 18.5t34 58.5q0 28 -22 47t-54.5 27.5l-71 19.5t-71 23.5t-54.5 40t-22 67.5q0 65 48.5 99t120.5 34q63 0 104.5 -20.5t72.5 -70.5l-59 -32q-35 55 -112 55q-23 0 -43 -4.5t-38 -20
t-18 -40.5q0 -29 30.5 -45.5t73.5 -26.5t86 -23t73.5 -45t30.5 -82zM264 685l112 -149h-78l-70 107l-69 -107h-78l112 149h71z" />
    <glyph glyph-name="Scedilla" unicode="&#x15e;" horiz-adv-x="605" 
d="M351 -6l25 -63l-70 -129h-78l94 133l-24 56q-213 8 -255 187l76 15q32 -127 196 -127q66 0 118 34.5t52 98.5q0 39 -23 65t-60 40t-81.5 24.5t-89 23.5t-81.5 31.5t-60 54t-23 85.5q0 88 66.5 135t160.5 47q88 0 147.5 -33.5t97.5 -107.5l-69 -32q-29 53 -71 75.5
t-105 22.5q-57 0 -102.5 -25.5t-45.5 -81.5q0 -38 31 -63.5t77.5 -36t100.5 -26.5t100.5 -34.5t77.5 -60.5t31 -103q0 -87 -61 -141t-152 -64z" />
    <glyph glyph-name="scedilla" unicode="&#x15f;" horiz-adv-x="457" 
d="M276 -5l27 -64l-70 -129h-78l93 133l-24 56q-156 5 -184 126l67 17q23 -75 129 -75q42 0 76 18.5t34 58.5q0 28 -22 47t-54.5 27.5l-71 19.5t-71 23.5t-54.5 40t-22 67.5q0 65 48.5 99t120.5 34q63 0 104.5 -20.5t72.5 -70.5l-59 -32q-35 55 -112 55q-23 0 -43 -4.5
t-38 -20t-18 -40.5q0 -29 30.5 -45.5t73.5 -26.5t86 -23t73.5 -45t30.5 -82q0 -60 -41.5 -97t-103.5 -47z" />
    <glyph glyph-name="Scaron" unicode="&#x160;" horiz-adv-x="605" 
d="M564 199q0 61 -31 103t-77.5 60.5t-100.5 34.5t-100.5 26.5t-77.5 36t-31 63.5q0 56 45.5 81.5t102.5 25.5q63 0 105 -22.5t71 -75.5l69 32q-38 74 -97.5 107.5t-147.5 33.5q-94 0 -160.5 -47t-66.5 -135q0 -50 23 -85.5t60 -54t81.5 -31.5t89 -23.5t81.5 -24.5t60 -40
t23 -65q0 -64 -52 -98.5t-118 -34.5q-164 0 -196 127l-76 -15q45 -187 272 -187q102 0 175.5 56t73.5 152zM450 906l-112 -149h-72l-111 149h78l68 -107l70 107h79z" />
    <glyph glyph-name="scaron" unicode="&#x161;" horiz-adv-x="457" 
d="M421 139q0 50 -30.5 82t-73.5 45t-86 23t-73.5 26.5t-30.5 45.5q0 25 18 40.5t38 20t43 4.5q77 0 112 -55l59 32q-31 50 -72.5 70.5t-104.5 20.5q-72 0 -120.5 -34t-48.5 -99q0 -40 22 -67.5t54.5 -40t71 -23.5l71 -19.5t54.5 -27.5t22 -47q0 -40 -34 -58.5t-76 -18.5
q-106 0 -129 75l-67 -17q31 -126 197 -126q74 0 129 39.5t55 108.5zM376 685l-112 -149h-71l-112 149h78l69 -107l70 107h78z" />
    <glyph glyph-name="Tcommaaccent" unicode="&#x162;" horiz-adv-x="561" 
d="M537 698v-78h-216v-620h-80v620h-216v78h512zM328 -121v-41l-70 -111h-26v152q0 19 14 32.5t33 13.5q21 0 35 -13.5t14 -32.5z" />
    <glyph glyph-name="tcommaaccent" unicode="&#x163;" horiz-adv-x="298" 
d="M253 485v-65h-78v-294q0 -33 14 -46.5t47 -14.5v-65h-28q-54 0 -81 33t-27 87v300h-68v65h68v141h75v-141h78zM201 -121v-41l-70 -111h-25v152q0 19 14 32.5t33 13.5q21 0 34.5 -13.5t13.5 -32.5z" />
    <glyph glyph-name="Tcaron" unicode="&#x164;" horiz-adv-x="561" 
d="M537 620v78h-512v-78h216v-620h80v620h216zM428 906l-112 -149h-71l-112 149h78l69 -107l70 107h78z" />
    <glyph glyph-name="tcaron" unicode="&#x165;" horiz-adv-x="298" 
d="M253 485v-65h-78v-294q0 -33 14 -46.5t47 -14.5v-65h-28q-54 0 -81 33t-27 87v300h-68v65h68v141h75v-141h78zM338 697v-160h-80v160q0 16 12 27.5t28 11.5t28 -11.5t12 -27.5z" />
    <glyph glyph-name="Tbar" unicode="&#x166;" horiz-adv-x="561" 
d="M537 698v-78h-216v-185h136v-54h-136v-381h-80v381h-136v54h136v185h-216v78h512z" />
    <glyph glyph-name="tbar" unicode="&#x167;" horiz-adv-x="298" 
d="M253 313v-54h-78v-133q0 -33 14 -46.5t47 -14.5v-65h-28q-54 0 -81 33t-27 87v139h-67v54h67v107h-68v65h68v141h75v-141h78v-65h-78v-107h78z" />
    <glyph glyph-name="Utilde" unicode="&#x168;" horiz-adv-x="643" 
d="M578 698v-404q0 -303 -256 -303t-256 303v404h79v-400q0 -49 7 -86.5t25 -71.5t54.5 -52.5t90.5 -18.5t90.5 18t54 52.5t24.5 71.5t7 87v400h80zM435 853l42 -37q-23 -30 -43 -45t-50 -15q-31 0 -65 26.5t-58 26.5q-29 0 -54 -37l-41 37q20 30 41.5 44.5t52.5 14.5
t65 -26.5t57 -26.5q31 0 53 38z" />
    <glyph glyph-name="utilde" unicode="&#x169;" horiz-adv-x="514" 
d="M449 485v-485h-64l-2 51q-54 -59 -127 -59q-198 0 -198 211v282h75v-278q0 -70 26.5 -106t97.5 -36q43 0 80 28t37 72v320h75zM370 632l42 -37q-23 -30 -43 -45t-50 -15q-31 0 -65 26.5t-58 26.5q-29 0 -54 -37l-41 37q20 30 41.5 44.5t52.5 14.5t65 -26.5t57 -26.5
q31 0 53 38z" />
    <glyph glyph-name="Umacron" unicode="&#x16a;" horiz-adv-x="643" 
d="M578 698v-404q0 -303 -256 -303t-256 303v404h79v-400q0 -49 7 -86.5t25 -71.5t54.5 -52.5t90.5 -18.5t90.5 18t54 52.5t24.5 71.5t7 87v400h80zM467 837v-58h-290v58h290z" />
    <glyph glyph-name="umacron" unicode="&#x16b;" horiz-adv-x="514" 
d="M449 485v-485h-64l-2 51q-54 -59 -127 -59q-198 0 -198 211v282h75v-278q0 -70 26.5 -106t97.5 -36q43 0 80 28t37 72v320h75zM402 616v-58h-290v58h290z" />
    <glyph glyph-name="Ubreve" unicode="&#x16c;" horiz-adv-x="643" 
d="M578 698v-404q0 -303 -256 -303t-256 303v404h79v-400q0 -49 7 -86.5t25 -71.5t54.5 -52.5t90.5 -18.5t90.5 18t54 52.5t24.5 71.5t7 87v400h80zM432 898h56q-52 -135 -167 -135q-113 0 -167 135h57q43 -81 110 -81q68 0 111 81z" />
    <glyph glyph-name="ubreve" unicode="&#x16d;" horiz-adv-x="514" 
d="M449 485v-485h-64l-2 51q-54 -59 -127 -59q-198 0 -198 211v282h75v-278q0 -70 26.5 -106t97.5 -36q43 0 80 28t37 72v320h75zM367 677h57q-54 -135 -167 -135t-167 135h56q43 -81 111 -81q67 0 110 81z" />
    <glyph glyph-name="Uring" unicode="&#x16e;" horiz-adv-x="643" 
d="M578 698v-404q0 -303 -256 -303t-256 303v404h79v-400q0 -49 7 -86.5t25 -71.5t54.5 -52.5t90.5 -18.5t90.5 18t54 52.5t24.5 71.5t7 87v400h80zM429 864q0 -44 -31.5 -76t-75.5 -32q-45 0 -76.5 32t-31.5 76t31.5 75.5t76.5 31.5q44 0 75.5 -31.5t31.5 -75.5zM373 864
q0 22 -15 37t-36 15q-22 0 -37 -15t-15 -37t15 -37t37 -15q21 0 36 15t15 37z" />
    <glyph glyph-name="uring" unicode="&#x16f;" horiz-adv-x="514" 
d="M449 485v-485h-64l-2 51q-54 -59 -127 -59q-198 0 -198 211v282h75v-278q0 -70 26.5 -106t97.5 -36q43 0 80 28t37 72v320h75zM365 643q0 -44 -32 -76t-76 -32q-45 0 -76.5 32t-31.5 76t31.5 75.5t76.5 31.5q44 0 76 -31.5t32 -75.5zM309 643q0 22 -15.5 37t-36.5 15
q-22 0 -37 -15t-15 -37t15 -37t37 -15q21 0 36.5 15t15.5 37z" />
    <glyph glyph-name="Uhungarumlaut" unicode="&#x170;" horiz-adv-x="643" 
d="M578 698v-404q0 -303 -256 -303t-256 303v404h79v-400q0 -49 7 -86.5t25 -71.5t54.5 -52.5t90.5 -18.5t90.5 18t54 52.5t24.5 71.5t7 87v400h80zM386 922h77l-104 -149h-48zM254 922h78l-104 -149h-48z" />
    <glyph glyph-name="uhungarumlaut" unicode="&#x171;" horiz-adv-x="514" 
d="M449 485v-485h-64l-2 51q-54 -59 -127 -59q-198 0 -198 211v282h75v-278q0 -70 26.5 -106t97.5 -36q43 0 80 28t37 72v320h75zM321 701h78l-104 -149h-49zM190 701h78l-105 -149h-48z" />
    <glyph glyph-name="Uogonek" unicode="&#x172;" horiz-adv-x="643" 
d="M412 3l129 -201h-80l-106 192q-27 -3 -33 -3q-256 0 -256 303v404h79v-400q0 -49 7 -86.5t25 -71.5t54.5 -52.5t90.5 -18.5t90.5 18t54 52.5t24.5 71.5t7 87v400h80v-404q0 -245 -166 -291z" />
    <glyph glyph-name="uogonek" unicode="&#x173;" horiz-adv-x="514" 
d="M445 0l127 -198h-80l-107 198l-2 51q-54 -59 -127 -59q-198 0 -198 211v282h75v-278q0 -70 26.5 -106t97.5 -36q43 0 80 28t37 72v320h75v-485h-4z" />
    <glyph glyph-name="Wcircumflex" unicode="&#x174;" horiz-adv-x="815" 
d="M711 698h81l-163 -698h-90l-132 547l-132 -547h-89l-163 698h81l129 -566l139 566h70l140 -566zM442 906l112 -149h-78l-70 107l-68 -107h-78l111 149h71z" />
    <glyph glyph-name="wcircumflex" unicode="&#x175;" horiz-adv-x="749" 
d="M649 485h80l-156 -485h-70l-130 364l-129 -364h-70l-154 485h81l110 -376l131 376h63l130 -377zM410 685l112 -149h-79l-70 107l-68 -107h-78l111 149h72z" />
    <glyph glyph-name="Ycircumflex" unicode="&#x176;" horiz-adv-x="587" 
d="M476 698h89l-231 -467v-231h-80v231l-231 467h89l182 -376zM328 906l112 -149h-78l-70 107l-68 -107h-78l111 149h71z" />
    <glyph glyph-name="ycircumflex" unicode="&#x177;" horiz-adv-x="482" 
d="M381 485h80l-228 -604q-21 -57 -59 -79.5t-99 -22.5h-14v66h13q40 0 60 14t32 45l35 94l-180 487h81l138 -391zM277 685l112 -149h-79l-69 107l-69 -107h-78l111 149h72z" />
    <glyph glyph-name="Ydieresis" unicode="&#x178;" horiz-adv-x="587" 
d="M476 698h89l-231 -467v-231h-80v231l-231 467h89l182 -376zM439 813q0 -22 -15 -36.5t-36 -14.5t-36 14.5t-15 36.5q0 21 15 36t36 15t36 -15t15 -36zM249 813q0 -22 -15 -36.5t-36 -14.5t-35.5 14.5t-14.5 36.5q0 21 14.5 36t35.5 15t36 -15t15 -36z" />
    <glyph glyph-name="Zacute" unicode="&#x179;" horiz-adv-x="585" 
d="M533 79v-79h-490v64l382 556h-351v78h455v-68l-380 -551h384zM292 909h86l-110 -153h-61z" />
    <glyph glyph-name="zacute" unicode="&#x17a;" horiz-adv-x="471" 
d="M422 72v-72h-380v66l281 347h-262v72h361v-64l-283 -349h283zM235 688h86l-110 -153h-61z" />
    <glyph glyph-name="Zdotaccent" unicode="&#x17b;" horiz-adv-x="585" 
d="M533 79v-79h-490v64l382 556h-351v78h455v-68l-380 -551h384zM346 807q0 -21 -16 -36.5t-38 -15.5t-37 15.5t-15 36.5q0 23 15 38.5t37 15.5t38 -15.5t16 -38.5z" />
    <glyph glyph-name="zdotaccent" unicode="&#x17c;" horiz-adv-x="471" 
d="M422 72v-72h-380v66l281 347h-262v72h361v-64l-283 -349h283zM289 586q0 -21 -15.5 -36.5t-37.5 -15.5t-37.5 15.5t-15.5 36.5q0 22 15.5 38t37.5 16t37.5 -16t15.5 -38z" />
    <glyph glyph-name="Zcaron" unicode="&#x17d;" horiz-adv-x="585" 
d="M533 0v79h-384l380 551v68h-455v-78h351l-382 -556v-64h490zM440 906l-112 -149h-71l-112 149h78l69 -107l69 107h79z" />
    <glyph glyph-name="zcaron" unicode="&#x17e;" horiz-adv-x="471" 
d="M422 0v72h-283l283 349v64h-361v-72h262l-281 -347v-66h380zM383 685l-112 -149h-71l-112 149h78l69 -107l70 107h78z" />
    <glyph glyph-name="florin" unicode="&#x192;" horiz-adv-x="390" 
d="M361 697v-67q-68 -2 -102 -35.5t-46 -95.5q-9 -54 -12 -63h77v-67h-89l-102 -569l-65 11l100 558h-61v67h72q9 52 13 67q18 94 70 142.5t145 51.5z" />
    <glyph glyph-name="Aringacute" unicode="&#x1fa;" horiz-adv-x="637" 
d="M360 698l268 -698h-85l-75 200h-299l-75 -200h-85l268 698h83zM195 270h246l-123 326zM306 1030h78l-74 -81l8 1q40 0 68.5 -28.5t28.5 -68.5t-28.5 -68.5t-68.5 -28.5t-68.5 28.5t-28.5 68.5q0 34 20 59zM365 853q0 19 -13.5 33t-33.5 14t-33.5 -14t-13.5 -33t13.5 -33
t33.5 -14t33.5 14t13.5 33z" />
    <glyph glyph-name="aringacute" unicode="&#x1fb;" horiz-adv-x="477" 
d="M417 81l17 -73l-65 -16l-13 49q-63 -52 -141 -52q-75 0 -124.5 39.5t-49.5 110.5q0 66 45 104t123 40h75q44 2 62 22v40q0 36 -30.5 58t-68.5 22q-90 0 -118 -65l-65 22q42 111 185 111q65 0 116.5 -40t51.5 -102v-270zM346 107v136q-29 -16 -58 -16h-74
q-43 -1 -73.5 -23t-30.5 -65q0 -42 32.5 -64t74.5 -22q71 0 129 54zM231 809h78l-74 -81l9 1q40 0 68 -28.5t28 -68.5t-28 -68.5t-68 -28.5t-69 28.5t-29 68.5q0 32 20 59zM290 632q0 19 -13.5 33t-32.5 14q-20 0 -34 -13.5t-14 -33.5t14 -33.5t34 -13.5q19 0 32.5 14
t13.5 33z" />
    <glyph glyph-name="AEacute" unicode="&#x1fc;" horiz-adv-x="926" 
d="M878 78v-78h-429v200h-237l-110 -200h-90l390 698h476v-78h-349v-220h303v-77h-303v-245h349zM250 270h199v336h-13zM487 909h86l-110 -153h-61z" />
    <glyph glyph-name="aeacute" unicode="&#x1fd;" horiz-adv-x="769" 
d="M37 139q0 68 46 106t124 38h67q48 0 62 21v38q0 34 -28.5 57.5t-66.5 23.5q-85 0 -116 -66l-66 20q42 114 183 114q92 0 142 -78q56 79 160 79q64 0 107.5 -34.5t61 -85t17.5 -114.5v-31h-322q3 -80 39.5 -122.5t104.5 -42.5q69 0 114 52l52 -49q-65 -74 -166 -74
q-112 0 -164 75q-74 -77 -179 -77q-74 0 -123 38.5t-49 111.5zM349 122q-13 41 -13 120q-25 -16 -55 -16h-73q-41 0 -71.5 -20.5t-30.5 -62.5q0 -39 30 -62t75 -23q71 0 138 64zM408 279h251q-2 65 -30.5 104t-86.5 39q-62 0 -96.5 -39t-37.5 -104zM390 688h86l-110 -153
h-61z" />
    <glyph glyph-name="Oslashacute" unicode="&#x1fe;" horiz-adv-x="649" 
d="M606 349q0 -72 -15 -134t-47 -113.5t-88.5 -81t-131.5 -29.5q-76 0 -140 38l-17 -34h-69l37 69q-92 100 -92 285q0 72 15 134t47 113.5t88 81t131 29.5q74 0 138 -35l16 31h69l-36 -66q95 -99 95 -288zM526 349q0 133 -55 209l-250 -458q46 -30 103 -30q60 0 101.5 24.5
t62.5 67.5t29.5 88t8.5 99zM175 143l250 458q-45 27 -101 27q-201 0 -201 -279q0 -128 52 -206zM324 909h86l-110 -153h-61z" />
    <glyph glyph-name="oslashacute" unicode="&#x1ff;" horiz-adv-x="529" 
d="M462 241q0 -250 -211 -250q-55 0 -96 20l-12 -20h-58l24 46q-68 68 -68 204q0 116 50 184t160 68q53 0 95 -21l13 23h60l-26 -49q69 -68 69 -205zM385 241q0 78 -31 126l-165 -287q27 -16 62 -16q33 0 57.5 10t39 26t23 40t11.5 48t3 53zM312 404q-27 15 -61 15
q-41 0 -69 -14.5t-41.5 -41.5t-18.5 -56t-5 -66q0 -77 31 -125zM264 688h86l-110 -153h-61z" />
    <glyph glyph-name="Scommaaccent" unicode="&#x218;" horiz-adv-x="605" 
d="M564 199q0 -96 -73.5 -152t-175.5 -56q-227 0 -272 187l76 15q32 -127 196 -127q66 0 118 34.5t52 98.5q0 39 -23 65t-60 40t-81.5 24.5t-89 23.5t-81.5 31.5t-60 54t-23 85.5q0 88 66.5 135t160.5 47q88 0 147.5 -33.5t97.5 -107.5l-69 -32q-29 53 -71 75.5t-105 22.5
q-57 0 -102.5 -25.5t-45.5 -81.5q0 -38 31 -63.5t77.5 -36t100.5 -26.5t100.5 -34.5t77.5 -60.5t31 -103zM348 -121v-41l-70 -111h-25v152q0 19 14 32.5t33 13.5q21 0 34.5 -13.5t13.5 -32.5z" />
    <glyph glyph-name="scommaaccent" unicode="&#x219;" horiz-adv-x="457" 
d="M421 139q0 -69 -55 -108.5t-129 -39.5q-166 0 -197 126l67 17q23 -75 129 -75q42 0 76 18.5t34 58.5q0 28 -22 47t-54.5 27.5l-71 19.5t-71 23.5t-54.5 40t-22 67.5q0 65 48.5 99t120.5 34q63 0 104.5 -20.5t72.5 -70.5l-59 -32q-35 55 -112 55q-23 0 -43 -4.5t-38 -20
t-18 -40.5q0 -29 30.5 -45.5t73.5 -26.5t86 -23t73.5 -45t30.5 -82zM280 -121v-41l-69 -111h-26v152q0 19 14 32.5t33 13.5q21 0 34.5 -13.5t13.5 -32.5z" />
    <glyph glyph-name="circumflex" unicode="&#x2c6;" horiz-adv-x="513" 
d="M291 685l112 -149h-79l-69 107l-69 -107h-78l111 149h72z" />
    <glyph glyph-name="caron" unicode="&#x2c7;" horiz-adv-x="496" 
d="M403 685l-112 -149h-72l-111 149h78l69 -107l69 107h79z" />
    <glyph glyph-name="breve" unicode="&#x2d8;" horiz-adv-x="516" 
d="M368 677h57q-54 -135 -168 -135q-112 0 -166 135h56q43 -81 110 -81q68 0 111 81z" />
    <glyph glyph-name="dotaccent" unicode="&#x2d9;" horiz-adv-x="526" 
d="M316 586q0 -21 -16 -36.5t-38 -15.5t-37 15.5t-15 36.5q0 23 15 38.5t37 15.5t38 -16t16 -38z" />
    <glyph glyph-name="ring" unicode="&#x2da;" horiz-adv-x="512" 
d="M364 643q0 -44 -31.5 -76t-76.5 -32t-76.5 32t-31.5 76t31.5 75.5t76.5 31.5t76.5 -31.5t31.5 -75.5zM308 643q0 22 -15.5 37t-36.5 15q-22 0 -37 -15t-15 -37t15 -37t37 -15q21 0 36.5 15t15.5 37z" />
    <glyph glyph-name="ogonek" unicode="&#x2db;" horiz-adv-x="538" 
d="M244 2l128 -200h-80l-111 200h63z" />
    <glyph glyph-name="tilde" unicode="&#x2dc;" horiz-adv-x="512" 
d="M368 632l42 -37q-22 -30 -43 -45t-51 -15t-64.5 26.5t-58.5 26.5q-28 0 -53 -37l-42 37q39 59 95 59q31 0 65 -26.5t57 -26.5q29 0 53 38z" />
    <glyph glyph-name="hungarumlaut" unicode="&#x2dd;" horiz-adv-x="464" 
d="M329 701h78l-104 -149h-49zM198 701h78l-105 -149h-48z" />
    <glyph glyph-name="gravecomb" unicode="&#x300;" horiz-adv-x="320" 
d="M161 732l85 -153h-61l-110 153h86z" />
    <glyph glyph-name="acutecomb" unicode="&#x301;" horiz-adv-x="309" 
d="M154 732h86l-110 -153h-61z" />
    <glyph glyph-name="circumflexcomb" unicode="&#x302;" horiz-adv-x="513" 
d="M291 729l112 -149h-79l-69 107l-69 -107h-78l111 149h72z" />
    <glyph glyph-name="tildecomb" unicode="&#x303;" horiz-adv-x="512" 
d="M368 676l42 -37q-22 -30 -43 -45t-51 -15t-64.5 26.5t-58.5 26.5q-28 0 -53 -37l-42 37q39 59 95 59q31 0 65 -26.5t57 -26.5q29 0 53 38z" />
    <glyph glyph-name="macroncomb" unicode="&#x304;" horiz-adv-x="513" 
d="M402 660v-58h-291v58h291z" />
    <glyph glyph-name="brevecomb" unicode="&#x306;" horiz-adv-x="516" 
d="M368 721h57q-54 -135 -168 -135q-112 0 -166 135h56q43 -81 110 -81q68 0 111 81z" />
    <glyph glyph-name="dotaccentcomb" unicode="&#x307;" horiz-adv-x="526" 
d="M316 630q0 -21 -16 -36.5t-38 -15.5t-37 15.5t-15 36.5q0 23 15 38.5t37 15.5t38 -16t16 -38z" />
    <glyph glyph-name="dieresiscomb" unicode="&#x308;" horiz-adv-x="482" 
d="M387 636q0 -22 -14.5 -36.5t-35.5 -14.5q-22 0 -37 14.5t-15 36.5q0 21 15 36t37 15q21 0 35.5 -15t14.5 -36zM198 636q0 -22 -15 -36.5t-36 -14.5q-22 0 -36.5 14.5t-14.5 36.5q0 21 14.5 36t36.5 15q21 0 36 -15t15 -36z" />
    <glyph glyph-name="Delta" unicode="&#x394;" horiz-adv-x="593" 
d="M297 695l279 -695h-557zM109 61h376l-188 476z" />
    <glyph glyph-name="Delta" unicode="&#x2206;" horiz-adv-x="593" 
d="M297 695l279 -695h-557zM109 61h376l-188 476z" />
    <glyph glyph-name="Omega" unicode="&#x3a9;" horiz-adv-x="657" 
d="M601 353q0 -82 -27.5 -160.5t-89.5 -131.5h94l12 -61h-197v57q141 79 141 296q0 51 -10.5 98t-32.5 90t-64 69t-98 26t-98 -26t-64.5 -69t-33 -90t-10.5 -98q0 -217 141 -296v-57h-196l11 61h94q-62 53 -89.5 131.5t-27.5 160.5q0 69 15.5 129.5t47 110.5t85.5 79t125 29
q70 0 124 -29t85.5 -79t47 -110.5t15.5 -129.5z" />
    <glyph glyph-name="Omega" unicode="&#x2126;" horiz-adv-x="657" 
d="M601 353q0 -82 -27.5 -160.5t-89.5 -131.5h94l12 -61h-197v57q141 79 141 296q0 51 -10.5 98t-32.5 90t-64 69t-98 26t-98 -26t-64.5 -69t-33 -90t-10.5 -98q0 -217 141 -296v-57h-196l11 61h94q-62 53 -89.5 131.5t-27.5 160.5q0 69 15.5 129.5t47 110.5t85.5 79t125 29
q70 0 124 -29t85.5 -79t47 -110.5t15.5 -129.5z" />
    <glyph glyph-name="pi" unicode="&#x3c0;" horiz-adv-x="553" 
d="M505 63v-63h-27q-104 0 -104 116v307h-241v-423h-66v485h372v-364q0 -34 13.5 -45.5t52.5 -12.5z" />
    <glyph glyph-name="Wgrave" unicode="&#x1e80;" horiz-adv-x="815" 
d="M711 698h81l-163 -698h-90l-132 547l-132 -547h-89l-163 698h81l129 -566l139 566h70l140 -566zM348 909l85 -153h-61l-110 153h86z" />
    <glyph glyph-name="wgrave" unicode="&#x1e81;" horiz-adv-x="749" 
d="M649 485h80l-156 -485h-70l-130 364l-129 -364h-70l-154 485h81l110 -376l131 376h63l130 -377zM318 688l84 -153h-60l-111 153h87z" />
    <glyph glyph-name="Wacute" unicode="&#x1e82;" horiz-adv-x="815" 
d="M711 698h81l-163 -698h-90l-132 547l-132 -547h-89l-163 698h81l129 -566l139 566h70l140 -566zM466 909h86l-110 -153h-61z" />
    <glyph glyph-name="wacute" unicode="&#x1e83;" horiz-adv-x="749" 
d="M649 485h80l-156 -485h-70l-130 364l-129 -364h-70l-154 485h81l110 -376l131 376h63l130 -377zM427 688h85l-109 -153h-61z" />
    <glyph glyph-name="Wdieresis" unicode="&#x1e84;" horiz-adv-x="815" 
d="M711 698h81l-163 -698h-90l-132 547l-132 -547h-89l-163 698h81l129 -566l139 566h70l140 -566zM553 813q0 -22 -15 -36.5t-36 -14.5t-36 14.5t-15 36.5q0 21 15 36t36 15t36 -15t15 -36zM363 813q0 -22 -15 -36.5t-36 -14.5t-35.5 14.5t-14.5 36.5q0 21 14.5 36t35.5 15
t36 -15t15 -36z" />
    <glyph glyph-name="wdieresis" unicode="&#x1e85;" horiz-adv-x="749" 
d="M649 485h80l-156 -485h-70l-130 364l-129 -364h-70l-154 485h81l110 -376l131 376h63l130 -377zM520 592q0 -22 -14.5 -36.5t-35.5 -14.5q-22 0 -37 14.5t-15 36.5q0 21 15 36t37 15q21 0 35.5 -15t14.5 -36zM331 592q0 -22 -15 -36.5t-36 -14.5q-22 0 -36.5 14.5
t-14.5 36.5q0 21 14.5 36t36.5 15q21 0 36 -15t15 -36z" />
    <glyph glyph-name="Ygrave" unicode="&#x1ef2;" horiz-adv-x="587" 
d="M476 698h89l-231 -467v-231h-80v231l-231 467h89l182 -376zM294 909l85 -153h-61l-110 153h86z" />
    <glyph glyph-name="ygrave" unicode="&#x1ef3;" horiz-adv-x="482" 
d="M381 485h80l-228 -604q-21 -57 -59 -79.5t-99 -22.5h-14v66h13q40 0 60 14t32 45l35 94l-180 487h81l138 -391zM242 688l84 -153h-60l-111 153h87z" />
    <glyph glyph-name="endash" unicode="&#x2013;" horiz-adv-x="540" 
d="M482 303v-63h-425v63h425z" />
    <glyph glyph-name="emdash" unicode="&#x2014;" horiz-adv-x="784" 
d="M727 303v-63h-670v63h670z" />
    <glyph glyph-name="quoteleft" unicode="&#x2018;" horiz-adv-x="247" 
d="M152 736h24l-6 -159q-1 -19 -14 -32.5t-32 -13.5t-33 14t-12 32l6 49z" />
    <glyph glyph-name="quoteright" unicode="&#x2019;" horiz-adv-x="247" 
d="M169 696l-6 -49l-68 -111l-23 1l5 158q1 19 14 32.5t32 13.5t33 -13.5t13 -31.5z" />
    <glyph glyph-name="quotesinglbase" unicode="&#x201a;" horiz-adv-x="247" 
d="M172 56l-5 -49l-67 -110h-24l5 158q1 19 14 32.5t31 13.5q20 0 34 -13.5t12 -31.5z" />
    <glyph glyph-name="quotedblleft" unicode="&#x201c;" horiz-adv-x="400" 
d="M143 736h24l-6 -159q-1 -19 -14 -32.5t-32 -13.5t-33 14t-12 32l6 49zM309 736h24l-6 -159q-1 -19 -14 -32.5t-32 -13.5t-33 14t-12 32l6 49z" />
    <glyph glyph-name="quotedblright" unicode="&#x201d;" horiz-adv-x="400" 
d="M257 531h-24l6 159q1 19 14 32.5t32 13.5t33 -14t12 -32l-6 -49zM91 531h-24l6 159q1 19 14 32.5t32 13.5t33 -14t12 -32l-6 -49z" />
    <glyph glyph-name="quotedblbase" unicode="&#x201e;" horiz-adv-x="400" 
d="M257 -115h-24l6 159q1 19 14 32.5t32 13.5t33 -14t12 -32l-6 -49zM91 -115h-24l6 159q1 19 14 32.5t32 13.5t33 -14t12 -32l-6 -49z" />
    <glyph glyph-name="dagger" unicode="&#x2020;" horiz-adv-x="541" 
d="M467 500v-63h-166v-437h-61v437h-165v63h165v198h61v-198h166z" />
    <glyph glyph-name="daggerdbl" unicode="&#x2021;" horiz-adv-x="546" 
d="M467 77v-63h-166v-216h-61v216h-165v63h165v342h-165v63h165v216h61v-216h166v-63h-166v-342h166z" />
    <glyph glyph-name="bullet" unicode="&#x2022;" horiz-adv-x="480" 
d="M398 336q0 -66 -46 -112t-112 -46q-65 0 -111.5 46t-46.5 112q0 65 46.5 111.5t111.5 46.5q66 0 112 -46.5t46 -111.5z" />
    <glyph glyph-name="ellipsis" unicode="&#x2026;" horiz-adv-x="613" 
d="M543 48q0 -24 -17 -40.5t-40 -16.5t-40 16.5t-17 40.5q0 23 17 40t40 17t40 -17t17 -40zM364 48q0 -24 -17 -40.5t-40 -16.5q-24 0 -41 16.5t-17 40.5q0 23 17 40t41 17q23 0 40 -17t17 -40zM185 48q0 -24 -17 -40.5t-41 -16.5q-23 0 -39.5 16.5t-16.5 40.5q0 23 16.5 40
t39.5 17q24 0 41 -17t17 -40z" />
    <glyph glyph-name="perthousand" unicode="&#x2030;" horiz-adv-x="859" 
d="M822 185q0 -83 -30.5 -139t-95.5 -56q-68 0 -97 68q-34 -68 -96 -68q-65 0 -95.5 56t-30.5 139t30.5 139.5t95.5 56.5q67 0 96 -69q34 69 97 69q65 0 95.5 -56.5t30.5 -139.5zM430 698h65l-259 -698h-66zM289 513q0 -84 -30 -140t-95 -56q-66 0 -96.5 56.5t-30.5 139.5
t31 139t96 56t95 -56t30 -139zM765 185q0 140 -69 140q-68 0 -68 -140q0 -139 68 -139q69 0 69 139zM571 185q0 140 -68 140q-69 0 -69 -140q0 -139 69 -139q68 0 68 139zM231 513q0 139 -67 139q-69 0 -69 -139q0 -140 69 -140q67 0 67 140z" />
    <glyph glyph-name="guilsinglleft" unicode="&#x2039;" horiz-adv-x="324" 
d="M52 280l215 199v-83l-156 -142l156 -143v-84l-215 200v53z" />
    <glyph glyph-name="guilsinglright" unicode="&#x203a;" horiz-adv-x="324" 
d="M267 280v-53l-215 -200v84l156 143l-156 142v83z" />
    <glyph glyph-name="fraction" unicode="&#x2044;" horiz-adv-x="166" 
d="M210 699h64l-319 -700h-63z" />
    <glyph glyph-name="fraction" unicode="&#x2215;" horiz-adv-x="166" 
d="M210 699h64l-319 -700h-63z" />
    <glyph glyph-name="zerosuperior" unicode="&#x2070;" horiz-adv-x="371" 
d="M339 482q0 -56 -12.5 -104t-48.5 -85t-92 -37q-43 0 -74.5 20.5t-48 55t-24 72t-7.5 78.5q0 56 12.5 104t49 85t92.5 37t92 -37t48.5 -84.5t12.5 -104.5zM288 482q0 29 -3.5 55t-13 56.5t-31.5 48.5t-54 18t-54.5 -18t-32.5 -48.5t-13.5 -56.5t-3.5 -55t3.5 -55
t13.5 -56.5t32.5 -49t54.5 -18.5q102 0 102 179z" />
    <glyph glyph-name="foursuperior" unicode="&#x2074;" horiz-adv-x="349" 
d="M320 415v-46h-39v-109h-48v109h-208v45l181 289h53l-179 -288h153v157l48 -6v-151h39z" />
    <glyph glyph-name="fivesuperior" unicode="&#x2075;" horiz-adv-x="341" 
d="M313 410q0 -69 -38.5 -111t-108.5 -42q-47 0 -81 24.5t-49 68.5l46 15q10 -28 32.5 -44.5t52.5 -16.5q46 0 71.5 30.5t25.5 75.5t-25 74.5t-71 29.5q-43 0 -77 -31h-44v220h235v-46h-190v-125q33 27 77 27q68 0 106 -41t38 -108z" />
    <glyph glyph-name="sixsuperior" unicode="&#x2076;" horiz-adv-x="345" 
d="M316 397q0 -62 -39.5 -101.5t-101.5 -39.5q-66 0 -105 45.5t-39 112.5q0 85 39.5 161.5t108.5 127.5h61q-122 -89 -152 -215q32 52 91 52q61 0 99 -41t38 -102zM266 398q0 41 -25.5 68.5t-65.5 27.5q-39 0 -66 -28.5t-27 -67.5q0 -38 27.5 -65.5t65.5 -27.5q39 0 65 27
t26 66z" />
    <glyph glyph-name="sevensuperior" unicode="&#x2077;" horiz-adv-x="316" 
d="M293 703v-43q-68 -84 -103.5 -179t-34.5 -221h-54q-1 226 137 396h-172v-37h-44v84h271z" />
    <glyph glyph-name="eightsuperior" unicode="&#x2078;" horiz-adv-x="344" 
d="M315 388q0 -60 -41 -96.5t-103 -36.5t-102 36.5t-40 96.5q0 78 75 110q-29 12 -44.5 38.5t-15.5 54.5q0 51 37 84t90 33q54 0 91.5 -33t37.5 -84q0 -28 -15.5 -54t-45.5 -39q76 -32 76 -110zM251 590q0 32 -23.5 52.5t-56.5 20.5q-32 0 -55.5 -21t-23.5 -52
q0 -34 22.5 -54t56.5 -20t57 20t23 54zM264 389q0 40 -26.5 63.5t-66.5 23.5q-39 0 -65 -23.5t-26 -63.5q0 -37 27 -61.5t65 -24.5t65 24t27 62z" />
    <glyph glyph-name="ninesuperior" unicode="&#x2079;" horiz-adv-x="339" 
d="M308 550q0 -84 -37 -161t-107 -129h-64q58 46 97 96t54 118q-29 -46 -88 -46t-97.5 39.5t-38.5 98.5q0 60 39 101t100 41q66 0 104 -45.5t38 -112.5zM255 569q0 37 -26 64t-64 27t-64 -27.5t-26 -64.5q0 -38 26 -65t64 -27q40 0 65 27t25 66z" />
    <glyph glyph-name="zeroinferior" unicode="&#x2080;" horiz-adv-x="371" 
d="M339 222q0 -56 -12.5 -104t-48.5 -85t-92 -37q-43 0 -74.5 20.5t-48 55t-24 72t-7.5 78.5q0 56 12.5 104t49 85t92.5 37t92 -37t48.5 -84.5t12.5 -104.5zM288 222q0 29 -3.5 55t-13 56.5t-31.5 48.5t-54 18t-54.5 -18t-32.5 -48.5t-13.5 -56.5t-3.5 -55t3.5 -55
t13.5 -56.5t32.5 -49t54.5 -18.5q102 0 102 179z" />
    <glyph glyph-name="oneinferior" unicode="&#x2081;" horiz-adv-x="240" 
d="M166 443v-443h-49v380l-70 -47l-24 37l104 73h39z" />
    <glyph glyph-name="twoinferior" unicode="&#x2082;" horiz-adv-x="350" 
d="M315 48v-48h-277v35q9 50 35 90t56 64t59 44.5t48 43.5t19 50q0 35 -25.5 54.5t-61.5 19.5q-55 0 -86 -57l-42 25q43 79 128 79q60 0 98.5 -32t38.5 -89q0 -36 -18 -64t-45 -49l-55.5 -42t-54.5 -53t-36 -71h219z" />
    <glyph glyph-name="threeinferior" unicode="&#x2083;" horiz-adv-x="335" 
d="M303 127q0 -59 -39.5 -95t-98.5 -36q-103 0 -135 88l46 18q22 -59 87 -59q38 0 64.5 23.5t26.5 60.5q0 44 -28.5 64t-74.5 20v39q92 2 92 76q0 32 -25.5 53.5t-58.5 21.5q-57 0 -81 -54l-44 19q36 82 128 82q54 0 92 -34t38 -88q0 -66 -59 -94q32 -13 51 -41t19 -64z" />
    <glyph glyph-name="fourinferior" unicode="&#x2084;" horiz-adv-x="349" 
d="M320 155v-46h-39v-109h-48v109h-208v45l181 289h53l-179 -288h153v157l48 -6v-151h39z" />
    <glyph glyph-name="fiveinferior" unicode="&#x2085;" horiz-adv-x="341" 
d="M313 150q0 -69 -38.5 -111t-108.5 -42q-47 0 -81 24.5t-49 68.5l46 15q10 -28 32.5 -44.5t52.5 -16.5q46 0 71.5 30.5t25.5 75.5t-25 74.5t-71 29.5q-43 0 -77 -31h-44v220h235v-46h-190v-125q33 27 77 27q68 0 106 -41t38 -108z" />
    <glyph glyph-name="sixinferior" unicode="&#x2086;" horiz-adv-x="345" 
d="M316 137q0 -62 -39.5 -101.5t-101.5 -39.5q-66 0 -105 45.5t-39 112.5q0 85 39.5 161.5t108.5 127.5h61q-122 -89 -152 -215q32 52 91 52q61 0 99 -41t38 -102zM266 138q0 41 -25.5 68.5t-65.5 27.5q-39 0 -66 -28.5t-27 -67.5q0 -38 27.5 -65.5t65.5 -27.5q39 0 65 27
t26 66z" />
    <glyph glyph-name="seveninferior" unicode="&#x2087;" horiz-adv-x="316" 
d="M293 443v-43q-68 -84 -103.5 -179t-34.5 -221h-54q-1 226 137 396h-172v-37h-44v84h271z" />
    <glyph glyph-name="eightinferior" unicode="&#x2088;" horiz-adv-x="344" 
d="M315 128q0 -60 -41 -96.5t-103 -36.5t-102 36.5t-40 96.5q0 78 75 110q-29 12 -44.5 38.5t-15.5 54.5q0 51 37 84t90 33q54 0 91.5 -33t37.5 -84q0 -28 -15.5 -54t-45.5 -39q76 -32 76 -110zM251 330q0 32 -23.5 52.5t-56.5 20.5q-32 0 -55.5 -21t-23.5 -52
q0 -34 22.5 -54t56.5 -20t57 20t23 54zM264 129q0 40 -26.5 63.5t-66.5 23.5q-39 0 -65 -23.5t-26 -63.5q0 -37 27 -61.5t65 -24.5t65 24t27 62z" />
    <glyph glyph-name="nineinferior" unicode="&#x2089;" horiz-adv-x="339" 
d="M308 290q0 -84 -37 -161t-107 -129h-64q58 46 97 96t54 118q-29 -46 -88 -46t-97.5 39.5t-38.5 98.5q0 60 39 101t100 41q66 0 104 -45.5t38 -112.5zM255 309q0 37 -26 64t-64 27t-64 -27.5t-26 -64.5q0 -38 26 -65t64 -27q40 0 65 27t25 66z" />
    <glyph glyph-name="colonmonetary" unicode="&#x20a1;" horiz-adv-x="574" 
d="M399 2v-78h-49v69q-20 -2 -31 -2q-17 0 -32 3v-70h-50v80q-64 20 -107 73t-61 121.5t-18 150.5t18 150.5t61 121.5t107 73v80h50v-69q20 2 32 2q11 0 31 -2v69h49v-79q67 -21 126 -96l-55 -57q-35 44 -69.5 65t-81.5 21q-53 0 -91.5 -24.5t-58 -67t-28 -88.5t-8.5 -99
t8.5 -99t28 -88.5t58 -67t91.5 -24.5q48 0 83 22.5t70 67.5l55 -56q-63 -81 -128 -102z" />
    <glyph glyph-name="franc" unicode="&#x20a3;" horiz-adv-x="494" 
d="M275 239v-61h-123v-178h-79v178h-73v61h73v459h381v-78h-302v-222h263v-74h-263v-85h123z" />
    <glyph glyph-name="lira" unicode="&#x20a4;" horiz-adv-x="533" 
d="M133 260h-89l10 49h73l-12 52h-71l10 49h49q-11 55 -11 89q0 90 53 147.5t144 57.5q64 0 102 -21t85 -71l-57 -48q-30 35 -58.5 51.5t-71.5 16.5q-60 0 -90.5 -38.5t-30.5 -98.5q0 -35 9 -85h139l-11 -49h-118q1 -5 5.5 -23.5t6.5 -28.5h117l-11 -49h-99q4 -32 4 -46
q0 -68 -35 -142h308v-72h-404v59q49 80 55 145q2 30 -1 56z" />
    <glyph glyph-name="peseta" unicode="&#x20a7;" horiz-adv-x="540" 
d="M501 526h57v-51h-56q-15 -172 -229 -172h-120v-303h-80v475h-63v51h63v172h198q216 0 230 -172zM153 377h116q139 0 151 99h-267v-99zM269 621h-116v-97h266q-12 97 -150 97z" />
    <glyph glyph-name="Euro" unicode="&#x20ac;" horiz-adv-x="651" 
d="M551 138l52 -57q-45 -49 -88.5 -69.5t-111.5 -20.5q-110 0 -182 66.5t-95 179.5h-77l12 58h56q-3 40 -1 87h-67l12 57h63q18 121 88.5 194.5t190.5 73.5q64 0 110 -20.5t88 -65.5l-53 -58q-65 65 -145 65q-83 0 -132 -51.5t-63 -137.5h228l-12 -57h-227q-1 -52 2 -87h237
l-12 -58h-214q19 -78 68.5 -122.5t124.5 -44.5q82 0 148 68z" />
    <glyph glyph-name="trademark" unicode="&#x2122;" horiz-adv-x="478" 
d="M424 698v-210h-31v138l-54 -138h-25l-54 138v-138h-30v210h30l66 -168l67 168h31zM201 698v-30h-63v-180h-30v180h-62v30h155z" />
    <glyph glyph-name="partialdiff" unicode="&#x2202;" horiz-adv-x="538" 
d="M466 208q0 -88 -58.5 -151t-146.5 -63t-146 62.5t-58 153.5q0 89 54.5 150.5t145.5 61.5q78 0 138 -70q-4 40 -13 81.5t-26 90.5t-47 80t-68 31q-55 0 -103 -54l-46 48q65 75 149 75q49 0 87 -26t61.5 -71.5t40 -96t23.5 -111t10 -104.5t3 -87zM399 210q0 59 -40 102.5
t-101 43.5t-97.5 -44t-36.5 -102q0 -63 38.5 -107t99.5 -44q62 0 99.5 44.5t37.5 106.5z" />
    <glyph glyph-name="product" unicode="&#x220f;" horiz-adv-x="636" 
d="M546 728v-923h-65v859h-326v-859h-66v923h457z" />
    <glyph glyph-name="summation" unicode="&#x2211;" horiz-adv-x="533" 
d="M475 -154v-63h-416v57l262 400l-262 402v56h416v-63h-334l257 -395l-257 -394h334z" />
    <glyph glyph-name="minus" unicode="&#x2212;" horiz-adv-x="503" 
d="M457 309v-71h-411v71h411z" />
    <glyph glyph-name="radical" unicode="&#x221a;" horiz-adv-x="637" 
d="M604 695v-60h-99l-200 -635h-61l-197 481h68l158 -389l185 603h146z" />
    <glyph glyph-name="infinity" unicode="&#x221e;" horiz-adv-x="779" 
d="M731 251q0 -58 -42 -94.5t-100 -36.5q-80 0 -199 99q-121 -99 -201 -99q-63 0 -102.5 41.5t-39.5 106.5q0 57 42 93.5t100 36.5q82 0 201 -99q117 99 199 99q63 0 102.5 -41t39.5 -106zM667 254q0 36 -21.5 59t-56.5 23q-56 0 -148 -77q95 -77 148 -77q33 0 55.5 19
t22.5 53zM338 259q-95 77 -149 77q-33 0 -55 -18.5t-22 -52.5q0 -36 21 -59.5t56 -23.5q52 0 149 77z" />
    <glyph glyph-name="integral" unicode="&#x222b;" horiz-adv-x="332" 
d="M297 698v-64h-49q-50 0 -50 -53v-657q0 -56 -27.5 -87.5t-82.5 -31.5h-53v65h47q51 0 51 54v657q0 53 28.5 85t82.5 32h53z" />
    <glyph glyph-name="approxequal" unicode="&#x2248;" horiz-adv-x="507" 
d="M416 395l45 -38q-27 -30 -51.5 -43.5t-62.5 -13.5q-36 0 -94.5 26t-93.5 26t-69 -36l-44 39q25 31 51 45t64 14t95.5 -25.5t92.5 -25.5q41 0 67 32zM416 228l45 -38q-27 -30 -51.5 -43.5t-62.5 -13.5q-36 0 -94.5 26t-93.5 26q-36 0 -69 -37l-44 40q25 31 51 45t64 14
t95.5 -25.5t92.5 -25.5q41 0 67 32z" />
    <glyph glyph-name="notequal" unicode="&#x2260;" horiz-adv-x="529" 
d="M472 198v-69h-228l-36 -101l-48 17l31 84h-134v69h159l44 123h-203v68h228l37 101l48 -17l-31 -84h133v-68h-157l-45 -123h202z" />
    <glyph glyph-name="lessequal" unicode="&#x2264;" horiz-adv-x="494" 
d="M438 164v-69l-381 171v64l381 172v-70l-296 -134zM438 64v-64h-381v64h381z" />
    <glyph glyph-name="greaterequal" unicode="&#x2265;" horiz-adv-x="494" 
d="M438 330v-64l-381 -171v69l295 134l-295 134v70zM438 64v-64h-381v64h381z" />
    <glyph glyph-name="lozenge" unicode="&#x25ca;" horiz-adv-x="566" 
d="M283 693l216 -348l-216 -349l-217 349zM283 109l146 236l-146 235l-147 -235z" />
    <glyph glyph-name="CR" horiz-adv-x="284" 
 />
    <glyph glyph-name="Imacron" horiz-adv-x="249" 
d="M164 698v-698h-80v698h80zM270 837v-58h-291v58h291z" />
    <glyph glyph-name="ibreve" horiz-adv-x="226" 
d="M151 485v-485h-74v485h74zM224 677h56q-52 -135 -167 -135q-111 0 -167 135h57q43 -81 110 -81q68 0 111 81z" />
    <glyph glyph-name="zerooldstyle" horiz-adv-x="606" 
d="M541 245q0 -117 -60.5 -184t-177.5 -67t-177.5 67t-60.5 184q0 116 61 183t177 67t177 -67t61 -183zM463 245q0 82 -39 131.5t-121 49.5t-121 -49.5t-39 -131.5q0 -83 39 -132.5t121 -49.5q83 0 121.5 49.5t38.5 132.5z" />
    <glyph glyph-name="oneoldstyle" horiz-adv-x="413" 
d="M282 485v-485h-77v381l-129 -75l-37 63l201 116h42z" />
    <glyph glyph-name="twooldstyle" horiz-adv-x="566" 
d="M501 75v-75h-426v54q10 47 40 83.5t67.5 57t79 38.5t75.5 30.5t56.5 31.5t22.5 42q0 42 -33 62.5t-83 20.5q-47 0 -87.5 -20.5t-63.5 -59.5l-66 37q61 114 202 117q94 2 152 -34.5t58 -120.5q0 -40 -23 -67.5t-62 -46t-81 -35t-89 -46.5t-77 -69h338z" />
    <glyph glyph-name="threeoldstyle" horiz-adv-x="513" 
d="M468 -6q0 -92 -62 -149t-157 -57q-153 0 -207 128l68 39q16 -43 53 -67.5t85 -24.5q60 0 100.5 36t40.5 95q0 128 -160 132v60q144 4 144 117q0 51 -40 84.5t-92 33.5q-43 0 -76.5 -23t-50.5 -62l-66 39q59 119 197 119q87 0 146 -53t59 -138q0 -99 -93 -145
q55 -21 83 -65t28 -99z" />
    <glyph glyph-name="fouroldstyle" horiz-adv-x="550" 
d="M505 82v-74h-62v-196h-74v196h-329v72l287 455h83l-283 -453h242v247l74 -10v-237h62z" />
    <glyph glyph-name="fiveoldstyle" horiz-adv-x="532" 
d="M487 27q0 -109 -60.5 -175t-169.5 -66q-74 0 -127 37.5t-78 105.5l72 26q17 -44 52 -69t82 -25q73 0 112.5 47t39.5 119q0 71 -39 116.5t-112 45.5q-70 0 -120 -49h-71v346h371v-74h-300v-196q57 45 123 45q106 0 165.5 -64.5t59.5 -169.5z" />
    <glyph glyph-name="sixoldstyle" horiz-adv-x="543" 
d="M497 215q0 -98 -61.5 -160t-159.5 -62q-104 0 -165.5 72t-61.5 178q0 136 64.5 259t175.5 205l44 -45q-155 -126 -196 -303q51 82 145 82q96 0 155.5 -64.5t59.5 -161.5zM420 217q0 64 -40.5 107.5t-104.5 43.5q-61 0 -103.5 -44.5t-42.5 -105.5q0 -60 43 -103.5
t104 -43.5t102.5 42.5t41.5 103.5z" />
    <glyph glyph-name="sevenoldstyle" horiz-adv-x="498" 
d="M465 486v-68q-108 -136 -166 -284.5t-56 -345.5l-83 25q5 338 218 599h-272v-58h-68v132h427z" />
    <glyph glyph-name="eightoldstyle" horiz-adv-x="546" 
d="M498 202q0 -95 -64 -152.5t-162 -57.5t-161 57.5t-63 152.5q0 121 118 173q-46 19 -70.5 60.5t-24.5 85.5q0 81 58.5 133t142.5 52t143 -52t59 -133q0 -44 -24 -85t-72 -61q120 -51 120 -173zM397 519q0 50 -37 83t-88 33q-50 0 -87.5 -33t-37.5 -83q0 -53 36 -84.5
t89 -31.5q54 0 89.5 31.5t35.5 84.5zM418 204q0 62 -41.5 98.5t-104.5 36.5t-104 -36.5t-41 -98.5q0 -59 43 -97.5t103 -38.5q61 0 103 38t42 98z" />
    <glyph glyph-name="nineoldstyle" horiz-adv-x="543" 
d="M495 244q0 -135 -57.5 -258t-169.5 -205l-48 49q154 124 185 293q-45 -71 -138 -71t-153.5 62.5t-60.5 154.5q0 96 61.5 160t157.5 64q103 0 163 -72t60 -177zM412 274q0 58 -41.5 101t-100.5 43q-60 0 -101 -43.5t-41 -101.5q0 -59 41 -102t102 -43q62 0 101.5 42.5
t39.5 103.5z" />
    <glyph glyph-name="zero.fitted" 
d="M446 350q0 -64 -10 -123t-31.5 -114t-62.5 -87.5t-96 -32.5q-56 0 -97 32.5t-62.5 87t-31.5 113.5t-10 123q0 65 10 123.5t31.5 113t62.5 87t97 32.5q55 0 96 -32.5t62.5 -86.5t31.5 -112.5t10 -123.5zM367 349q0 45 -4.5 87t-16 89.5t-37.5 76t-63 28.5t-63 -28.5
t-38 -76t-16.5 -89.5t-4.5 -87t4.5 -87t16.5 -89.5t38 -76.5t63 -29q38 0 64 29t37 77t15.5 89.5t4.5 86.5z" />
    <glyph glyph-name="one.fitted" 
d="M60 0v73h147v527l-110 -76l-37 59l164 115h61v-625h147v-73h-372z" />
    <glyph glyph-name="two.fitted" 
d="M439 75v-75h-383v54q9 58 29.5 106.5t47 81.5t56.5 61.5t58.5 51.5t51.5 46.5t37 52.5t14 62q0 54 -33.5 84.5t-80.5 30.5q-35 0 -67.5 -24.5t-50.5 -64.5l-62 38q61 126 179 126q84 0 137.5 -50.5t53.5 -140.5q0 -46 -17.5 -85t-44.5 -65.5l-61 -58l-65 -60.5t-58 -74
t-39 -97h298z" />
    <glyph glyph-name="three.fitted" 
d="M442 200q0 -94 -57 -150.5t-143 -56.5q-147 0 -192 138l69 31q14 -45 46.5 -69.5t74.5 -24.5q53 0 89.5 36.5t36.5 95.5q0 69 -41.5 100.5t-106.5 32.5v61q58 1 95 29.5t37 90.5q0 54 -31.5 85t-84.5 31q-37 0 -67 -23t-44 -62l-67 31q50 130 181 130q87 0 137.5 -54.5
t50.5 -137.5q0 -46 -23.5 -86t-60.5 -63q45 -21 73 -65.5t28 -99.5z" />
    <glyph glyph-name="four.fitted" 
d="M442 245v-73h-49v-172h-67v172h-277v70l237 456h76l-234 -453h198v247l67 -10v-237h49z" />
    <glyph glyph-name="five.fitted" 
d="M438 237q0 -109 -53.5 -175.5t-148.5 -66.5q-67 0 -114 38.5t-69 108.5l70 25q31 -97 114 -97q62 0 94.5 47.5t32.5 119.5q0 70 -32.5 116.5t-94.5 46.5q-56 0 -101 -50h-67v348h327v-74h-260v-192q45 39 104 39q93 0 145.5 -64.5t52.5 -169.5z" />
    <glyph glyph-name="six.fitted" 
d="M439 215q0 -98 -53 -160t-137 -62q-90 0 -143.5 71.5t-53.5 177.5q0 133 53.5 254t146.5 202h84q-156 -136 -198 -327q41 70 116 70q83 0 134 -64.5t51 -161.5zM365 217q0 64 -33 107.5t-85 43.5q-50 0 -84.5 -44.5t-34.5 -105.5q0 -60 35.5 -103.5t84.5 -43.5
q50 0 83.5 42.5t33.5 103.5z" />
    <glyph glyph-name="seven.fitted" 
d="M443 698v-67q-97 -137 -149 -285.5t-51 -345.5h-81q0 344 199 624h-248v-58h-66v132h396z" />
    <glyph glyph-name="eight.fitted" 
d="M441 202q0 -95 -56 -152.5t-140 -57.5t-140 57.5t-56 152.5q0 54 27.5 100.5t76.5 72.5q-38 20 -61 62t-23 84q0 81 51.5 133t124.5 52t124.5 -52t51.5 -133q0 -42 -22.5 -83.5t-61.5 -62.5q51 -26 77.5 -72t26.5 -101zM350 519q0 50 -31 83t-74 33q-42 0 -73.5 -33
t-31.5 -83q0 -53 30.5 -84.5t74.5 -31.5t74.5 31.5t30.5 84.5zM369 204q0 62 -36 98.5t-88 36.5t-87.5 -36.5t-35.5 -98.5q0 -58 37 -97t86 -39q51 0 87.5 38.5t36.5 97.5z" />
    <glyph glyph-name="nine.fitted" 
d="M440 456q0 -129 -53 -251t-150 -205h-85q164 143 201 329q-41 -64 -114 -64q-82 0 -134.5 62.5t-52.5 155.5q0 96 53.5 159t137.5 63q91 0 144 -72t53 -177zM364 483q0 59 -35 101.5t-85 42.5t-84.5 -43t-34.5 -102t34.5 -102t85.5 -43q52 0 85.5 42.5t33.5 103.5z" />
    <glyph glyph-name="zero.taboldstyle" 
d="M445 245q0 -117 -51 -184t-148 -67q-98 0 -149 67t-51 184q0 116 51.5 183t148.5 67t148 -67.5t51 -182.5zM369 245q0 82 -30 131.5t-93 49.5t-93 -49.5t-30 -131.5q0 -83 30 -132.5t93 -49.5t93 49.5t30 132.5z" />
    <glyph glyph-name="one.taboldstyle" 
d="M60 0v73h147v319l-112 -78l-35 56l164 115h61v-412h147v-73h-372z" />
    <glyph glyph-name="two.taboldstyle" 
d="M440 75v-75h-390v54q10 55 45.5 95t78.5 61.5t85 39t70 38.5t28 49q0 42 -29 62.5t-72 20.5q-42 0 -79 -20.5t-56 -59.5l-64 37q58 112 186 117q84 2 138 -35t54 -120q0 -41 -25.5 -70.5t-64.5 -48.5t-80 -36.5t-78 -45t-52 -63.5h305z" />
    <glyph glyph-name="three.taboldstyle" 
d="M442 -6q0 -93 -56.5 -149.5t-143.5 -56.5q-147 0 -192 138l69 31q14 -44 46.5 -69t74.5 -25q53 0 89.5 36t36.5 95q0 68 -41.5 99t-106.5 32v61q132 2 132 117q0 54 -31.5 85t-84.5 31q-37 0 -67 -23t-44 -62l-67 31q50 129 181 129q87 0 137.5 -54t50.5 -137
q0 -46 -23 -84t-61 -61q46 -22 73.5 -65.5t27.5 -98.5z" />
    <glyph glyph-name="four.taboldstyle" 
d="M442 82v-74h-49v-196h-67v196h-277v71l237 456h76l-234 -453h198v246l67 -10v-236h49z" />
    <glyph glyph-name="five.taboldstyle" 
d="M438 28q0 -109 -53 -175t-149 -66q-67 0 -114 38.5t-69 109.5l70 24q15 -45 44.5 -71t69.5 -26q62 0 94.5 47t32.5 119q0 70 -32.5 115.5t-94.5 45.5q-56 0 -101 -49h-67v345h327v-74h-260v-189q47 39 104 39q93 0 145.5 -64.5t52.5 -168.5z" />
    <glyph glyph-name="six.taboldstyle" 
d="M442 215q0 -98 -54 -160t-140 -62q-91 0 -145 72t-54 178q0 135 56.5 259t153.5 207l44 -47q-129 -119 -166 -291q40 70 116 70q84 0 136.5 -64.5t52.5 -161.5zM365 217q0 64 -32.5 107.5t-85.5 43.5q-51 0 -85 -44t-34 -106q0 -61 34.5 -104t85.5 -43q50 0 83.5 42.5
t33.5 103.5z" />
    <glyph glyph-name="seven.taboldstyle" 
d="M443 485v-67q-97 -137 -149 -285.5t-51 -345.5l-81 24q0 319 199 601h-248v-59h-66v132h396z" />
    <glyph glyph-name="eight.taboldstyle" 
d="M441 202q0 -95 -56 -152.5t-140 -57.5t-140 57.5t-56 152.5q0 54 27.5 100.5t76.5 72.5q-38 20 -61 62t-23 84q0 81 51.5 133t124.5 52t124.5 -52t51.5 -133q0 -42 -22.5 -83.5t-61.5 -62.5q51 -26 77.5 -72t26.5 -101zM350 519q0 50 -31 83t-74 33q-42 0 -73.5 -33
t-31.5 -83q0 -53 30.5 -84.5t74.5 -31.5t74.5 31.5t30.5 84.5zM369 204q0 62 -36 98.5t-88 36.5t-87.5 -36.5t-35.5 -98.5q0 -58 37 -97t86 -39q51 0 87.5 38.5t36.5 97.5z" />
    <glyph glyph-name="nine.taboldstyle" 
d="M49 271q0 98 54.5 160t139.5 62q92 0 146 -72t54 -178q0 -135 -56.5 -259t-154.5 -207l-44 47q129 120 166 292q-42 -64 -116 -64q-85 0 -137 61.5t-52 157.5zM127 270q0 -64 32.5 -104.5t85.5 -40.5q51 0 85 41t34 103q0 60 -35 103t-85 43q-51 0 -84 -42t-33 -103z" />
    <glyph glyph-name="rupiah" horiz-adv-x="1013" 
d="M972 241q0 -250 -197 -250q-71 0 -113 58v-269h-75v220h-128l-146 246q-19 32 -38.5 48t-52.5 16h-69v-310h-80v698h220q104 0 166 -48.5t62 -147.5q0 -76 -44.5 -123.5t-130.5 -61.5q20 -13 50 -63l110 -181h81v412h64l2 -57q44 68 123 68q196 0 196 -255zM897 241
q0 37 -3.5 63t-15 55t-37.5 44.5t-66 15.5q-46 0 -79.5 -32t-33.5 -73v-144q0 -44 33 -75t80 -31q40 0 66 15.5t37.5 44t15 55t3.5 62.5zM441 502q0 119 -148 119h-141v-240h141q148 0 148 121z" />
    <glyph glyph-name="Euro.fitted" 
d="M419 130l50 -53q-36 -46 -73 -66t-89 -20q-85 0 -146.5 70t-77.5 176h-61l10 58h44q-2 47 -1 87h-53l10 57h49q13 114 73 191t153 77q53 0 91 -18.5t71 -62.5l-52 -57q-28 34 -52.5 46.5t-57.5 12.5q-60 0 -98.5 -54.5t-47.5 -134.5h176l-9 -57h-175q-2 -55 1 -87h183
l-9 -58h-165q10 -71 49.5 -119t94.5 -48q62 0 112 60z" />
    <glyph glyph-name="dollar.fitted" 
d="M440 226q0 -72 -46 -118t-113 -55v-53h-62v54q-61 7 -106 45.5t-62 104.5l63 17q20 -86 105 -98v216q-34 9 -58 19t-47.5 27.5t-36 44t-12.5 62.5q0 68 45.5 106.5t108.5 43.5v56h62v-56q91 -11 138 -95l-49 -38q-30 53 -89 65v-182q74 -21 116.5 -57.5t42.5 -108.5z
M219 409v165q-36 -3 -61.5 -23t-25.5 -59q0 -35 22.5 -52.5t64.5 -30.5zM374 225q0 41 -24 60.5t-69 33.5v-197q39 7 66 33.5t27 69.5z" />
    <glyph glyph-name="cent.fitted" 
d="M385 123l54 -50q-40 -40 -76.5 -59t-84.5 -21q-28 0 -55 7l-16 -80l-43 8l17 82q-65 30 -97.5 92t-32.5 140q0 110 58.5 180t168.5 70l16 71l42 -8l-14 -71q61 -13 117 -73l-54 -49q-37 39 -78 50l-69 -341q23 -8 44 -6q57 5 103 58zM195 83l70 339q-137 -11 -137 -180
q0 -110 67 -159z" />
    <glyph glyph-name="sterling.fitted" 
d="M442 72v-72h-363v59q50 88 50 162q0 38 -10 91h-73l15 71h45q-16 70 -16 116q0 90 47.5 147.5t129.5 57.5q60 0 96.5 -22t72.5 -69l-56 -47q-28 36 -52.5 51t-60.5 15q-52 0 -78 -38.5t-26 -98.5q0 -30 14 -112h119l-16 -71h-90q10 -51 10 -98q0 -65 -30 -142h272z" />
    <glyph glyph-name="florin.fitted" 
d="M330 436v-67h-89l-103 -569l-65 11l100 558h-61v67h73q0 4 6 34.5t6 31.5q19 94 70 143t145 52v-67q-71 -2 -104 -36.5t-45 -100.5q-1 -2 -6 -28.5t-5 -28.5h78z" />
    <glyph glyph-name="yen.fitted" 
d="M401 698h75l-135 -319h76l-13 -59h-87l-13.5 -33.5l-16.5 -40.5h130l-13 -59h-124v-187h-68v187h-138l13 59h119l-31 74h-101l13 59h63l-134 319h75l155 -382z" />
    <glyph glyph-name="lira.fitted" 
d="M126 260h-80l10 49h65l-6 26.5t-5 25.5h-64l10 49h43q-9 52 -9 89q0 90 47.5 147.5t129.5 57.5q58 0 94.5 -21t74.5 -70l-56 -47q-27 36 -52 51t-61 15q-52 0 -78 -38.5t-26 -98.5q0 -35 9 -85h123l-12 -49h-103l5.5 -28.5l4.5 -23.5h105l-12 -49h-86q3 -22 3 -46
q0 -65 -30 -142h272v-72h-363v59q42 81 47 145q3 27 0 56z" />
    <glyph glyph-name="peseta.fitted" 
d="M493 526v-51h-51q-17 -172 -211 -172h-96v-303h-79v475h-58v51h58v172h173q89 0 146 -43t66 -129h52zM135 377h91q121 0 135 99h-226v-99zM226 621h-91v-97h225q-14 97 -134 97z" />
    <glyph glyph-name="colonmonetary.fitted" 
d="M399 162l51 -58q-50 -79 -107 -102v-78h-48v69q-16 -2 -23 -2q-14 0 -26 3v-70h-48l1 80q-81 29 -119.5 123.5t-38.5 221.5t38.5 221.5t118.5 123.5v80h48v-69q20 2 26 2q5 0 23 -2v69h48v-79q59 -24 106 -96l-53 -58q-30 45 -58 66t-66 21q-44 0 -76 -24.5t-48.5 -67
t-23.5 -88.5t-7 -99t7 -99t23.5 -88.5t48.5 -67t76 -24.5q39 0 68 22.5t59 69.5z" />
    <glyph glyph-name="franc.fitted" 
d="M284 239v-61h-112v-178h-80v178h-67v61h67v459h349v-78h-269v-222h232v-74h-232v-85h112z" />
    <glyph glyph-name="A.sc" horiz-adv-x="507" 
d="M289 525l202 -525h-80l-52 135h-212l-51 -135h-80l201 525h72zM170 200h166l-82 229z" />
    <glyph glyph-name="B.sc" horiz-adv-x="509" 
d="M459 149q0 -78 -50.5 -113.5t-133.5 -35.5h-199v525h186q178 0 178 -142q0 -33 -15.5 -63t-47.5 -46q42 -15 62 -49t20 -76zM365 378q0 76 -103 76h-111v-155h117q97 0 97 79zM383 152q0 82 -108 82h-124v-163h124q52 0 80 17.5t28 63.5z" />
    <glyph glyph-name="C.sc" horiz-adv-x="490" 
d="M385 138l54 -52q-43 -51 -80.5 -71.5t-94.5 -20.5q-111 0 -164.5 77t-53.5 191q0 54 12 100.5t37 85t68 61t100 22.5q56 0 95 -20.5t79 -68.5l-53 -51q-32 36 -58 50.5t-63 14.5q-52 0 -85 -30t-44.5 -71t-11.5 -93t11.5 -93t44.5 -71t85 -30q38 0 64.5 16t57.5 54z" />
    <glyph glyph-name="D.sc" horiz-adv-x="518" 
d="M463 262q0 -74 -8 -118.5t-32.5 -79.5t-70.5 -49.5t-122 -14.5h-154v525h154q74 0 119 -13t71 -46t34.5 -79.5t8.5 -124.5zM387 262q0 122 -24.5 155t-122.5 33h-89v-376h89q36 0 60.5 3.5t41 14t25.5 22t13.5 37t5.5 47.5t1 64z" />
    <glyph glyph-name="E.sc" horiz-adv-x="474" 
d="M424 74v-74h-348v525h348v-75h-273v-145h239v-68h-239v-163h273z" />
    <glyph glyph-name="F.sc" horiz-adv-x="452" 
d="M417 525v-75h-266v-145h238v-68h-238v-237h-75v525h341z" />
    <glyph glyph-name="G.sc" horiz-adv-x="515" 
d="M265 280h184v-280h-65v61q-35 -67 -125 -67q-73 0 -122 40.5t-68.5 98.5t-19.5 129q0 53 12 99.5t36.5 85.5t67 61.5t99.5 22.5q55 0 94.5 -21t79.5 -68l-54 -51q-30 35 -56.5 50.5t-63.5 15.5q-39 0 -67 -16t-43 -44.5t-21.5 -61.5t-6.5 -73q0 -84 31.5 -138.5
t105.5 -54.5q62 0 88.5 43t26.5 107h-113v61z" />
    <glyph glyph-name="H.sc" horiz-adv-x="542" 
d="M467 525v-525h-76v237h-240v-237h-75v525h75v-220h240v220h76z" />
    <glyph glyph-name="I.sc" horiz-adv-x="226" 
d="M151 525v-525h-75v525h75z" />
    <glyph glyph-name="J.sc" horiz-adv-x="451" 
d="M296 524h75v-361q0 -83 -44.5 -126t-130.5 -43q-132 0 -169 132l69 19q24 -77 100 -77q52 0 76 25t24 76v355z" />
    <glyph glyph-name="K.sc" horiz-adv-x="492" 
d="M151 525v-525h-75v525h75zM372 0l-214 264l195 261h84l-198 -260l222 -265h-89z" />
    <glyph glyph-name="L.sc" horiz-adv-x="435" 
d="M395 72v-72h-319v525h75v-453h244z" />
    <glyph glyph-name="M.sc" horiz-adv-x="606" 
d="M530 525v-525h-75v334l-127 -334h-50l-127 333v-333h-75v525h71l155 -407l158 407h70z" />
    <glyph glyph-name="N.sc" horiz-adv-x="525" 
d="M450 525v-525h-66l-233 377v-377h-75v525h66l233 -377v377h75z" />
    <glyph glyph-name="O.sc" horiz-adv-x="508" 
d="M468 263q0 -54 -11.5 -100t-35.5 -84.5t-66.5 -61t-100.5 -22.5t-100.5 22.5t-66.5 61t-35.5 84.5t-11.5 100q0 114 51.5 191.5t162.5 77.5t162.5 -77.5t51.5 -191.5zM392 263q0 194 -138 194t-138 -194t138 -194t138 194z" />
    <glyph glyph-name="P.sc" horiz-adv-x="495" 
d="M447 373q0 -153 -176 -153h-125v-220h-76v525h200q81 0 129 -36.5t48 -115.5zM372 373q0 45 -27 62.5t-77 17.5h-122v-162h122q50 0 77 18t27 64z" />
    <glyph glyph-name="Q.sc" horiz-adv-x="508" 
d="M467 262q0 -116 -46 -182q10 -10 31.5 -39t28.5 -41h-86q-5 10 -24 29q-52 -35 -117 -35q-110 0 -162 76.5t-52 191.5q0 116 52 192.5t162 76.5q57 0 99.5 -22t66.5 -61t35.5 -85.5t11.5 -100.5zM392 262q0 194 -138 194t-138 -193q0 -194 137 -194q35 0 65 21
q-34 36 -73 42v52q68 -8 118 -54q29 49 29 132z" />
    <glyph glyph-name="R.sc" horiz-adv-x="503" 
d="M441 374q0 -55 -32.5 -92.5t-91.5 -47.5q19 -13 32 -37l121 -197h-87l-109 183q-27 42 -59 42h-59v-225h-76v525h186q79 0 127 -37.5t48 -113.5zM366 373q0 80 -100 80h-110v-160h110q100 0 100 80z" />
    <glyph glyph-name="S.sc" horiz-adv-x="486" 
d="M437 153q0 -75 -57 -117.5t-133 -42.5q-168 0 -206 143l71 16q26 -87 135 -87q46 0 80.5 23.5t34.5 64.5q0 35 -31.5 55t-76 30t-89.5 23t-76.5 45t-31.5 83q0 69 52.5 105t122.5 36q64 0 109.5 -25t76.5 -83l-67 -30q-37 66 -119 66q-41 0 -70 -17t-29 -52
q0 -29 31.5 -46.5t76 -28t89 -24.5t76 -48.5t31.5 -88.5z" />
    <glyph glyph-name="T.sc" horiz-adv-x="451" 
d="M421 525v-75h-158v-450h-75v450h-158v75h391z" />
    <glyph glyph-name="U.sc" horiz-adv-x="520" 
d="M456 525v-302q0 -229 -196 -229q-195 0 -195 229v302h75v-300q0 -74 25.5 -115.5t94.5 -41.5q70 0 95 40.5t25 116.5v300h76z" />
    <glyph glyph-name="V.sc" horiz-adv-x="483" 
d="M376 525h79l-178 -525h-71l-178 525h79l135 -415z" />
    <glyph glyph-name="W.sc" horiz-adv-x="651" 
d="M538 525h77l-122 -525h-78l-90 375l-88 -375h-79l-122 525h77l87 -390l93 390h65l93 -390z" />
    <glyph glyph-name="X.sc" 
d="M290 270l176 -270h-90l-130 208l-130 -208h-90l176 270l-166 255h90l120 -194l120 194h90z" />
    <glyph glyph-name="Y.sc" horiz-adv-x="474" 
d="M365 525h83l-173 -352v-173h-76v175l-173 350h84l127 -267z" />
    <glyph glyph-name="Z.sc" horiz-adv-x="485" 
d="M425 74v-74h-375v58l269 392h-246v75h349v-59l-269 -392h272z" />
    <glyph glyph-name="commaaccentcomb" horiz-adv-x="249" 
d="M170 -121v-41l-70 -111h-26v152q0 19 14 32.5t33 13.5q21 0 35 -13.5t14 -32.5z" />
    <glyph glyph-name="commaaccentcomb.alt" horiz-adv-x="249" 
d="M74 581v40l70 112h26v-152q0 -19 -14 -32.5t-33 -13.5q-22 0 -35.5 13t-13.5 33z" />
    <glyph glyph-name="grave.cap" horiz-adv-x="320" 
d="M161 909l85 -153h-61l-110 153h86z" />
    <glyph glyph-name="acute.cap" horiz-adv-x="309" 
d="M154 909h86l-110 -153h-61z" />
    <glyph glyph-name="circumflex.cap" horiz-adv-x="513" 
d="M291 906l112 -149h-79l-69 107l-69 -107h-78l111 149h72z" />
    <glyph glyph-name="caron.cap" horiz-adv-x="496" 
d="M403 906l-112 -149h-72l-111 149h78l69 -107l69 107h79z" />
    <glyph glyph-name="tilde.cap" horiz-adv-x="512" 
d="M368 853l42 -37q-22 -30 -43 -45t-51 -15t-64.5 26.5t-58.5 26.5q-28 0 -53 -37l-42 37q39 59 95 59q31 0 65 -26.5t57 -26.5q29 0 53 38z" />
    <glyph glyph-name="dieresis.cap" horiz-adv-x="482" 
d="M387 813q0 -22 -14.5 -36.5t-35.5 -14.5q-22 0 -37 14.5t-15 36.5q0 21 15 36t37 15q21 0 35.5 -15t14.5 -36zM198 813q0 -22 -15 -36.5t-36 -14.5q-22 0 -36.5 14.5t-14.5 36.5q0 21 14.5 36t36.5 15q21 0 36 -15t15 -36z" />
    <glyph glyph-name="macron.cap" horiz-adv-x="513" 
d="M402 837v-58h-291v58h291z" />
    <glyph glyph-name="breve.cap" horiz-adv-x="516" 
d="M368 898h57q-54 -135 -168 -135q-112 0 -166 135h56q43 -81 110 -81q68 0 111 81z" />
    <glyph glyph-name="ring.cap" horiz-adv-x="512" 
d="M364 864q0 -44 -31.5 -76t-76.5 -32t-76.5 32t-31.5 76t31.5 75.5t76.5 31.5t76.5 -31.5t31.5 -75.5zM308 864q0 22 -15.5 37t-36.5 15q-22 0 -37 -15t-15 -37t15 -37t37 -15q21 0 36.5 15t15.5 37z" />
    <glyph glyph-name="hungarumlaut.cap" horiz-adv-x="464" 
d="M329 922h78l-104 -149h-49zM198 922h78l-105 -149h-48z" />
    <glyph glyph-name="dotaccent.cap" horiz-adv-x="526" 
d="M316 807q0 -21 -16 -36.5t-38 -15.5t-37 15.5t-15 36.5q0 23 15 38.5t37 15.5t38 -15.5t16 -38.5z" />
    <glyph glyph-name="caroncomb" horiz-adv-x="496" 
d="M403 729l-112 -149h-72l-111 149h78l69 -107l69 107h79z" />
    <glyph glyph-name="ringcomb" horiz-adv-x="512" 
d="M364 687q0 -44 -31.5 -76t-76.5 -32t-76.5 32t-31.5 76t31.5 75.5t76.5 31.5t76.5 -31.5t31.5 -75.5zM308 687q0 22 -15.5 37t-36.5 15q-22 0 -37 -15t-15 -37t15 -37t37 -15q21 0 36.5 15t15.5 37z" />
    <glyph glyph-name="hungarumlautcomb" horiz-adv-x="464" 
d="M329 745h78l-104 -149h-49zM198 745h78l-105 -149h-48z" />
    <glyph glyph-name="ringacute" horiz-adv-x="512" 
d="M244 809h78l-74 -81l8 1q40 0 68.5 -28.5t28.5 -68.5t-28.5 -68.5t-68.5 -28.5t-68.5 28.5t-28.5 68.5q0 34 20 59zM303 632q0 20 -13.5 33.5t-33.5 13.5t-33.5 -13.5t-13.5 -33.5t13.5 -33.5t33.5 -13.5t33.5 13.5t13.5 33.5z" />
    <glyph glyph-name="ringacute.cap" horiz-adv-x="512" 
d="M244 1030h78l-74 -81l8 1q40 0 68.5 -28.5t28.5 -68.5t-28.5 -68.5t-68.5 -28.5t-68.5 28.5t-28.5 68.5q0 34 20 59zM303 853q0 19 -13.5 33t-33.5 14t-33.5 -14t-13.5 -33t13.5 -33t33.5 -14t33.5 14t13.5 33z" />
    <glyph glyph-name="ringacutecomb" horiz-adv-x="512" 
d="M244 853h78l-74 -81l8 1q40 0 68.5 -28.5t28.5 -68.5t-28.5 -68.5t-68.5 -28.5t-68.5 28.5t-28.5 68.5q0 34 20 59zM303 676q0 20 -13.5 33.5t-33.5 13.5t-33.5 -13.5t-13.5 -33.5t13.5 -33.5t33.5 -13.5t33.5 13.5t13.5 33.5z" />
    <glyph glyph-name="Aacute.sc" horiz-adv-x="507" 
d="M289 525l202 -525h-80l-52 135h-212l-51 -135h-80l201 525h72zM170 200h166l-82 229zM313 732h86l-110 -153h-61z" />
    <glyph glyph-name="Agrave.sc" horiz-adv-x="507" 
d="M289 525l202 -525h-80l-52 135h-212l-51 -135h-80l201 525h72zM170 200h166l-82 229zM194 732l84 -153h-61l-110 153h87z" />
    <glyph glyph-name="Acircumflex.sc" horiz-adv-x="507" 
d="M289 525l202 -525h-80l-52 135h-212l-51 -135h-80l201 525h72zM170 200h166l-82 229zM289 729l112 -149h-79l-69 107l-69 -107h-78l112 149h71z" />
    <glyph glyph-name="Atilde.sc" horiz-adv-x="507" 
d="M289 525l202 -525h-80l-52 135h-212l-51 -135h-80l201 525h72zM170 200h166l-82 229zM367 676l42 -37q-21 -30 -42 -45t-51 -15q-31 0 -65 26.5t-58 26.5q-29 0 -54 -37l-41 37q20 30 41.5 44.5t52.5 14.5t65 -26.5t57 -26.5q31 0 53 38z" />
    <glyph glyph-name="Adieresis.sc" horiz-adv-x="507" 
d="M289 525l202 -525h-80l-52 135h-212l-51 -135h-80l201 525h72zM170 200h166l-82 229zM399 636q0 -22 -14.5 -36.5t-35.5 -14.5t-36.5 15t-15.5 36t15.5 36t36.5 15t35.5 -15t14.5 -36zM210 636q0 -22 -15 -36.5t-36 -14.5t-36 14.5t-15 36.5q0 21 15 36t36 15t36 -15
t15 -36z" />
    <glyph glyph-name="Amacron.sc" horiz-adv-x="507" 
d="M289 525l202 -525h-80l-52 135h-212l-51 -135h-80l201 525h72zM170 200h166l-82 229zM399 660v-58h-290v58h290z" />
    <glyph glyph-name="Abreve.sc" horiz-adv-x="507" 
d="M289 525l202 -525h-80l-52 135h-212l-51 -135h-80l201 525h72zM170 200h166l-82 229zM364 721h56q-52 -135 -167 -135q-112 0 -166 135h56q43 -81 110 -81q68 0 111 81z" />
    <glyph glyph-name="Aring.sc" horiz-adv-x="507" 
d="M289 525l202 -525h-80l-52 135h-212l-51 -135h-80l201 525h72zM170 200h166l-82 229zM362 687q0 -44 -32 -76t-76 -32q-45 0 -76.5 32t-31.5 76t31.5 75.5t76.5 31.5q44 0 76 -31.5t32 -75.5zM306 687q0 22 -15.5 37t-36.5 15q-22 0 -37 -15t-15 -37t15 -37t37 -15
q21 0 36.5 15t15.5 37z" />
    <glyph glyph-name="Aringacute.sc" horiz-adv-x="507" 
d="M289 525l202 -525h-80l-52 135h-212l-51 -135h-80l201 525h72zM170 200h166l-82 229zM242 853h78l-74 -81l8 1q40 0 68.5 -28.5t28.5 -68.5t-28.5 -68.5t-68.5 -28.5t-68.5 28.5t-28.5 68.5q0 34 20 59zM301 676q0 20 -13.5 33.5t-33.5 13.5t-33.5 -13.5t-13.5 -33.5
t13.5 -33.5t33.5 -13.5t33.5 13.5t13.5 33.5z" />
    <glyph glyph-name="Aogonek.sc" horiz-adv-x="507" 
d="M472 0l128 -198h-80l-109 198l-52 135h-212l-51 -135h-80l201 525h72l202 -525h-19zM170 200h166l-82 229z" />
    <glyph glyph-name="AE.sc" horiz-adv-x="693" 
d="M656 74v-74h-328v135h-176l-66 -135h-81l263 525h388v-75h-254v-143h220v-70h-220v-163h254zM186 200h142v226h-38z" />
    <glyph glyph-name="AEacute.sc" horiz-adv-x="693" 
d="M656 74v-74h-328v135h-176l-66 -135h-81l263 525h388v-75h-254v-143h220v-70h-220v-163h254zM186 200h142v226h-38zM360 732h86l-110 -153h-61z" />
    <glyph glyph-name="Cacute.sc" horiz-adv-x="490" 
d="M385 138l54 -52q-43 -51 -80.5 -71.5t-94.5 -20.5q-111 0 -164.5 77t-53.5 191q0 54 12 100.5t37 85t68 61t100 22.5q56 0 95 -20.5t79 -68.5l-53 -51q-32 36 -58 50.5t-63 14.5q-52 0 -85 -30t-44.5 -71t-11.5 -93t11.5 -93t44.5 -71t85 -30q38 0 64.5 16t57.5 54z
M244 732h86l-109 -153h-62z" />
    <glyph glyph-name="Ccircumflex.sc" horiz-adv-x="490" 
d="M385 138l54 -52q-43 -51 -80.5 -71.5t-94.5 -20.5q-111 0 -164.5 77t-53.5 191q0 54 12 100.5t37 85t68 61t100 22.5q56 0 95 -20.5t79 -68.5l-53 -51q-32 36 -58 50.5t-63 14.5q-52 0 -85 -30t-44.5 -71t-11.5 -93t11.5 -93t44.5 -71t85 -30q38 0 64.5 16t57.5 54z
M281 729l112 -149h-79l-69 107l-69 -107h-78l111 149h72z" />
    <glyph glyph-name="Ccaron.sc" horiz-adv-x="490" 
d="M439 86l-54 52q-31 -38 -57.5 -54t-64.5 -16q-52 0 -85 30t-44.5 71t-11.5 93t11.5 93t44.5 71t85 30q37 0 63 -14.5t58 -50.5l53 51q-40 48 -79 68.5t-95 20.5q-57 0 -100 -22.5t-68 -61t-37 -85t-12 -100.5q0 -114 53.5 -191t164.5 -77q57 0 94.5 20.5t80.5 71.5z
M393 729l-112 -149h-72l-111 149h78l69 -107l69 107h79z" />
    <glyph glyph-name="Ccedilla.sc" horiz-adv-x="493" 
d="M385 137l54 -51q-37 -45 -70.5 -66t-78.5 -25l27 -70l-66 -124h-79l88 129l-27 66q-95 11 -141 85.5t-46 180.5q0 54 12 100.5t37 85t68 61t100 22.5q56 0 95 -20.5t79 -68.5l-53 -51q-32 36 -58 50.5t-63 14.5q-52 0 -85 -30t-44.5 -71t-11.5 -93t11.5 -93t44.5 -71
t85 -30q38 0 64.5 16t57.5 53z" />
    <glyph glyph-name="Cdotaccent.sc" horiz-adv-x="490" 
d="M385 138l54 -52q-43 -51 -80.5 -71.5t-94.5 -20.5q-111 0 -164.5 77t-53.5 191q0 54 12 100.5t37 85t68 61t100 22.5q56 0 95 -20.5t79 -68.5l-53 -51q-32 36 -58 50.5t-63 14.5q-52 0 -85 -30t-44.5 -71t-11.5 -93t11.5 -93t44.5 -71t85 -30q38 0 64.5 16t57.5 54z
M298 630q0 -21 -15.5 -36.5t-37.5 -15.5t-37.5 15.5t-15.5 36.5q0 22 15.5 38t37.5 16t37.5 -16t15.5 -38z" />
    <glyph glyph-name="Dcaron.sc" horiz-adv-x="518" 
d="M463 262q0 78 -8.5 124.5t-34.5 79.5t-71 46t-119 13h-154v-525h154q76 0 122 14.5t70.5 49.5t32.5 79.5t8 118.5zM387 262q0 -42 -1 -64t-5.5 -47.5t-13.5 -37t-25.5 -22t-41 -14t-60.5 -3.5h-89v376h89q98 0 122.5 -33t24.5 -155zM407 729l-112 -149h-72l-111 149h78
l69 -107l69 107h79z" />
    <glyph glyph-name="Eth.sc" horiz-adv-x="520" 
d="M465 262q0 -74 -8 -118.5t-32.5 -79.5t-70.5 -49.5t-122 -14.5h-154v230h-30v62h30v233h154q74 0 119 -13t71 -46t34.5 -79.5t8.5 -124.5zM389 262q0 122 -24.5 155t-122.5 33h-89v-158h109v-62h-109v-156h89q36 0 60.5 3.5t41 14t25.5 22t13.5 37t5.5 47.5t1 64z" />
    <glyph glyph-name="Dcroat.sc" horiz-adv-x="520" 
d="M465 262q0 -74 -8 -118.5t-32.5 -79.5t-70.5 -49.5t-122 -14.5h-154v230h-30v62h30v233h154q74 0 119 -13t71 -46t34.5 -79.5t8.5 -124.5zM389 262q0 122 -24.5 155t-122.5 33h-89v-158h99v-62h-99v-156h89q36 0 60.5 3.5t41 14t25.5 22t13.5 37t5.5 47.5t1 64z" />
    <glyph glyph-name="Eacute.sc" horiz-adv-x="474" 
d="M424 74v-74h-348v525h348v-75h-273v-145h239v-68h-239v-163h273zM236 732h86l-109 -153h-61z" />
    <glyph glyph-name="Egrave.sc" horiz-adv-x="474" 
d="M424 74v-74h-348v525h348v-75h-273v-145h239v-68h-239v-163h273zM238 732l84 -153h-60l-110 153h86z" />
    <glyph glyph-name="Ecircumflex.sc" horiz-adv-x="474" 
d="M424 74v-74h-348v525h348v-75h-273v-145h239v-68h-239v-163h273zM273 729l112 -149h-79l-69 107l-69 -107h-78l112 149h71z" />
    <glyph glyph-name="Ecaron.sc" horiz-adv-x="474" 
d="M424 0v74h-273v163h239v68h-239v145h273v75h-348v-525h348zM385 729l-112 -149h-71l-112 149h78l69 -107l69 107h79z" />
    <glyph glyph-name="Edieresis.sc" horiz-adv-x="474" 
d="M424 74v-74h-348v525h348v-75h-273v-145h239v-68h-239v-163h273zM383 636q0 -22 -15 -36.5t-36 -14.5t-36 14.5t-15 36.5q0 21 15 36t36 15t36 -15t15 -36zM193 636q0 -22 -15 -36.5t-36 -14.5t-35.5 14.5t-14.5 36.5q0 21 14.5 36t35.5 15t36 -15t15 -36z" />
    <glyph glyph-name="Emacron.sc" horiz-adv-x="474" 
d="M424 74v-74h-348v525h348v-75h-273v-145h239v-68h-239v-163h273zM383 660v-58h-291v58h291z" />
    <glyph glyph-name="Ebreve.sc" horiz-adv-x="474" 
d="M424 74v-74h-348v525h348v-75h-273v-145h239v-68h-239v-163h273zM348 721h56q-52 -135 -167 -135q-112 0 -166 135h56q43 -81 110 -81q68 0 111 81z" />
    <glyph glyph-name="Edotaccent.sc" horiz-adv-x="474" 
d="M424 74v-74h-348v525h348v-75h-273v-145h239v-68h-239v-163h273zM291 630q0 -21 -16 -36.5t-38 -15.5t-37 15.5t-15 36.5q0 23 15 38.5t37 15.5q23 0 38.5 -16t15.5 -38z" />
    <glyph glyph-name="Eogonek.sc" horiz-adv-x="474" 
d="M424 0l128 -198h-79l-110 198h-287v525h348v-75h-273v-145h239v-68h-239v-163h273v-74z" />
    <glyph glyph-name="Gcircumflex.sc" horiz-adv-x="515" 
d="M265 280h184v-280h-65v61q-35 -67 -125 -67q-73 0 -122 40.5t-68.5 98.5t-19.5 129q0 53 12 99.5t36.5 85.5t67 61.5t99.5 22.5q55 0 94.5 -21t79.5 -68l-54 -51q-30 35 -56.5 50.5t-63.5 15.5q-39 0 -67 -16t-43 -44.5t-21.5 -61.5t-6.5 -73q0 -84 31.5 -138.5
t105.5 -54.5q62 0 88.5 43t26.5 107h-113v61zM292 729l113 -149h-79l-70 107l-68 -107h-78l111 149h71z" />
    <glyph glyph-name="Gbreve.sc" horiz-adv-x="515" 
d="M265 280h184v-280h-65v61q-35 -67 -125 -67q-73 0 -122 40.5t-68.5 98.5t-19.5 129q0 53 12 99.5t36.5 85.5t67 61.5t99.5 22.5q55 0 94.5 -21t79.5 -68l-54 -51q-30 35 -56.5 50.5t-63.5 15.5q-39 0 -67 -16t-43 -44.5t-21.5 -61.5t-6.5 -73q0 -84 31.5 -138.5
t105.5 -54.5q62 0 88.5 43t26.5 107h-113v61zM368 721h57q-54 -135 -168 -135q-112 0 -166 135h56q43 -81 110 -81q68 0 111 81z" />
    <glyph glyph-name="Gdotaccent.sc" horiz-adv-x="515" 
d="M265 280h184v-280h-65v61q-35 -67 -125 -67q-73 0 -122 40.5t-68.5 98.5t-19.5 129q0 53 12 99.5t36.5 85.5t67 61.5t99.5 22.5q55 0 94.5 -21t79.5 -68l-54 -51q-30 35 -56.5 50.5t-63.5 15.5q-39 0 -67 -16t-43 -44.5t-21.5 -61.5t-6.5 -73q0 -84 31.5 -138.5
t105.5 -54.5q62 0 88.5 43t26.5 107h-113v61zM310 630q0 -21 -15.5 -36.5t-37.5 -15.5t-37.5 15.5t-15.5 36.5q0 22 15.5 38t37.5 16t37.5 -16t15.5 -38z" />
    <glyph glyph-name="Gcommaaccent.sc" horiz-adv-x="515" 
d="M265 280h184v-280h-65v61q-35 -67 -125 -67q-73 0 -122 40.5t-68.5 98.5t-19.5 129q0 53 12 99.5t36.5 85.5t67 61.5t99.5 22.5q55 0 94.5 -21t79.5 -68l-54 -51q-30 35 -56.5 50.5t-63.5 15.5q-39 0 -67 -16t-43 -44.5t-21.5 -61.5t-6.5 -73q0 -84 31.5 -138.5
t105.5 -54.5q62 0 88.5 43t26.5 107h-113v61zM304 -121v-41l-69 -111h-26v152q0 19 14 32.5t33 13.5q21 0 34.5 -13.5t13.5 -32.5z" />
    <glyph glyph-name="Hcircumflex.sc" horiz-adv-x="542" 
d="M467 525v-525h-76v237h-240v-237h-75v525h75v-220h240v220h76zM306 729l112 -149h-78l-70 107l-69 -107h-78l112 149h71z" />
    <glyph glyph-name="Hbar.sc" horiz-adv-x="542" 
d="M537 443v-59h-70v-384h-76v237h-240v-237h-75v384h-70v59h70v82h75v-82h240v82h76v-82h70zM151 305h240v79h-240v-79z" />
    <glyph glyph-name="Iacute.sc" horiz-adv-x="226" 
d="M151 525v-525h-75v525h75zM157 732h86l-110 -153h-61z" />
    <glyph glyph-name="Igrave.sc" horiz-adv-x="226" 
d="M151 525v-525h-75v525h75zM70 732l85 -153h-61l-110 153h86z" />
    <glyph glyph-name="Icircumflex.sc" horiz-adv-x="226" 
d="M151 525v-525h-75v525h75zM148 729l113 -149h-79l-70 107l-68 -107h-78l111 149h71z" />
    <glyph glyph-name="Itilde.sc" horiz-adv-x="226" 
d="M151 525v-525h-75v525h75zM227 676l42 -37q-23 -30 -43 -45t-50 -15q-31 0 -65 26.5t-58 26.5q-29 0 -54 -37l-41 37q20 30 41.5 44.5t52.5 14.5t65 -26.5t57 -26.5q29 0 53 38z" />
    <glyph glyph-name="Idieresis.sc" horiz-adv-x="226" 
d="M151 525v-525h-75v525h75zM259 636q0 -22 -14.5 -36.5t-35.5 -14.5q-22 0 -37 14.5t-15 36.5q0 21 15 36t37 15q20 0 35 -15t15 -36zM70 636q0 -22 -15 -36.5t-36 -14.5q-22 0 -36.5 14.5t-14.5 36.5q0 21 14.5 36t36.5 15q21 0 36 -15t15 -36z" />
    <glyph glyph-name="Imacron.sc" horiz-adv-x="226" 
d="M151 525v-525h-75v525h75zM258 660v-58h-290v58h290z" />
    <glyph glyph-name="Ibreve.sc" horiz-adv-x="226" 
d="M151 525v-525h-75v525h75zM224 721h57q-54 -135 -168 -135q-112 0 -166 135h56q43 -81 110 -81q68 0 111 81z" />
    <glyph glyph-name="Idotaccent.sc" horiz-adv-x="226" 
d="M151 525v-525h-75v525h75zM166 630q0 -21 -15.5 -36.5t-37.5 -15.5t-37.5 15.5t-15.5 36.5q0 22 15.5 38t37.5 16t37.5 -16t15.5 -38z" />
    <glyph glyph-name="Iogonek.sc" horiz-adv-x="195" 
d="M119 0l112 -198h-74l-97 198v525h75v-525h-16z" />
    <glyph glyph-name="Jcircumflex.sc" horiz-adv-x="451" 
d="M296 524h75v-361q0 -83 -44.5 -126t-130.5 -43q-132 0 -169 132l69 19q24 -77 100 -77q52 0 76 25t24 76v355zM371 729l112 -149h-78l-70 107l-69 -107h-78l112 149h71z" />
    <glyph glyph-name="Kcommaaccent.sc" horiz-adv-x="492" 
d="M151 525v-525h-75v525h75zM372 0l-214 264l195 261h84l-198 -260l222 -265h-89zM293 -121v-41l-70 -111h-25v152q0 19 14 32.5t33 13.5q21 0 34.5 -13.5t13.5 -32.5z" />
    <glyph glyph-name="Lacute.sc" horiz-adv-x="435" 
d="M395 72v-72h-319v525h75v-453h244zM161 732h86l-110 -153h-61z" />
    <glyph glyph-name="Lcaron.sc" horiz-adv-x="435" 
d="M395 72v-72h-319v525h75v-453h244zM399 512l-5 -49l-68 -110h-23l5 159q1 19 14 32.5t31 13.5q20 0 34 -14t12 -32z" />
    <glyph glyph-name="Lcommaaccent.sc" horiz-adv-x="435" 
d="M395 72v-72h-319v525h75v-453h244zM265 -121v-41l-70 -111h-25v152q0 19 14 32.5t33 13.5q21 0 34.5 -13.5t13.5 -32.5z" />
    <glyph glyph-name="Lslash.sc" horiz-adv-x="425" 
d="M391 74v-74h-321v186l-27 -12v65l27 11v275h77v-242l111 49v-65l-111 -48v-145h244z" />
    <glyph glyph-name="Nacute.sc" horiz-adv-x="525" 
d="M450 525v-525h-66l-233 377v-377h-75v525h66l233 -377v377h75zM262 732h86l-110 -153h-61z" />
    <glyph glyph-name="Ncaron.sc" horiz-adv-x="525" 
d="M450 0v525h-75v-377l-233 377h-66v-525h75v377l233 -377h66zM410 729l-112 -149h-72l-111 149h78l69 -107l69 107h79z" />
    <glyph glyph-name="Ntilde.sc" horiz-adv-x="525" 
d="M450 525v-525h-66l-233 377v-377h-75v525h66l233 -377v377h75zM376 676l42 -37q-23 -30 -43 -45t-50 -15q-31 0 -65 26.5t-58 26.5q-29 0 -54 -37l-41 37q20 30 41.5 44.5t52.5 14.5t65 -26.5t57 -26.5q31 0 53 38z" />
    <glyph glyph-name="Ncommaaccent.sc" horiz-adv-x="525" 
d="M450 525v-525h-66l-233 377v-377h-75v525h66l233 -377v377h75zM310 -121v-41l-70 -111h-25v152q0 19 14 32.5t33 13.5q21 0 34.5 -13.5t13.5 -32.5z" />
    <glyph glyph-name="Eng.sc" horiz-adv-x="525" 
d="M450 525v-554q0 -82 -40 -131t-122 -56l-20 66q108 9 108 126v36l-225 365v-377h-75v525h66l233 -377v377h75z" />
    <glyph glyph-name="Oacute.sc" horiz-adv-x="508" 
d="M468 263q0 -54 -11.5 -100t-35.5 -84.5t-66.5 -61t-100.5 -22.5t-100.5 22.5t-66.5 61t-35.5 84.5t-11.5 100q0 114 51.5 191.5t162.5 77.5t162.5 -77.5t51.5 -191.5zM392 263q0 194 -138 194t-138 -194t138 -194t138 194zM253 732h86l-110 -153h-61z" />
    <glyph glyph-name="Ograve.sc" horiz-adv-x="508" 
d="M468 263q0 -54 -11.5 -100t-35.5 -84.5t-66.5 -61t-100.5 -22.5t-100.5 22.5t-66.5 61t-35.5 84.5t-11.5 100q0 114 51.5 191.5t162.5 77.5t162.5 -77.5t51.5 -191.5zM392 263q0 194 -138 194t-138 -194t138 -194t138 194zM254 732l85 -153h-61l-110 153h86z" />
    <glyph glyph-name="Ocircumflex.sc" horiz-adv-x="508" 
d="M468 263q0 -54 -11.5 -100t-35.5 -84.5t-66.5 -61t-100.5 -22.5t-100.5 22.5t-66.5 61t-35.5 84.5t-11.5 100q0 114 51.5 191.5t162.5 77.5t162.5 -77.5t51.5 -191.5zM392 263q0 194 -138 194t-138 -194t138 -194t138 194zM289 729l112 -149h-78l-70 107l-69 -107h-78
l112 149h71z" />
    <glyph glyph-name="Otilde.sc" horiz-adv-x="508" 
d="M468 263q0 -54 -11.5 -100t-35.5 -84.5t-66.5 -61t-100.5 -22.5t-100.5 22.5t-66.5 61t-35.5 84.5t-11.5 100q0 114 51.5 191.5t162.5 77.5t162.5 -77.5t51.5 -191.5zM392 263q0 194 -138 194t-138 -194t138 -194t138 194zM368 676l42 -37q-23 -30 -43.5 -45t-50.5 -15
t-64.5 26.5t-58.5 26.5q-28 0 -53 -37l-42 37q39 59 95 59q31 0 65 -26.5t57 -26.5q29 0 53 38z" />
    <glyph glyph-name="Odieresis.sc" horiz-adv-x="508" 
d="M468 263q0 -54 -11.5 -100t-35.5 -84.5t-66.5 -61t-100.5 -22.5t-100.5 22.5t-66.5 61t-35.5 84.5t-11.5 100q0 114 51.5 191.5t162.5 77.5t162.5 -77.5t51.5 -191.5zM392 263q0 194 -138 194t-138 -194t138 -194t138 194zM399 636q0 -22 -14.5 -36.5t-35.5 -14.5
t-36.5 15t-15.5 36t15.5 36t36.5 15t35.5 -15t14.5 -36zM210 636q0 -22 -15 -36.5t-36 -14.5t-36 14.5t-15 36.5q0 21 15 36t36 15t36 -15t15 -36z" />
    <glyph glyph-name="Omacron.sc" horiz-adv-x="508" 
d="M468 263q0 -54 -11.5 -100t-35.5 -84.5t-66.5 -61t-100.5 -22.5t-100.5 22.5t-66.5 61t-35.5 84.5t-11.5 100q0 114 51.5 191.5t162.5 77.5t162.5 -77.5t51.5 -191.5zM392 263q0 194 -138 194t-138 -194t138 -194t138 194zM399 660v-58h-290v58h290z" />
    <glyph glyph-name="Obreve.sc" horiz-adv-x="508" 
d="M468 263q0 -54 -11.5 -100t-35.5 -84.5t-66.5 -61t-100.5 -22.5t-100.5 22.5t-66.5 61t-35.5 84.5t-11.5 100q0 114 51.5 191.5t162.5 77.5t162.5 -77.5t51.5 -191.5zM392 263q0 194 -138 194t-138 -194t138 -194t138 194zM364 721h57q-54 -135 -167 -135t-167 135h56
q43 -81 111 -81q67 0 110 81z" />
    <glyph glyph-name="Ohungarumlaut.sc" horiz-adv-x="508" 
d="M468 263q0 -54 -11.5 -100t-35.5 -84.5t-66.5 -61t-100.5 -22.5t-100.5 22.5t-66.5 61t-35.5 84.5t-11.5 100q0 114 51.5 191.5t162.5 77.5t162.5 -77.5t51.5 -191.5zM392 263q0 194 -138 194t-138 -194t138 -194t138 194zM334 745h77l-104 -149h-48zM202 745h78
l-105 -149h-47z" />
    <glyph glyph-name="Oslash.sc" horiz-adv-x="518" 
d="M468 263q0 -54 -11.5 -100t-35.5 -84.5t-66.5 -61t-100.5 -22.5q-59 0 -104 28l-13 -23h-59l29 53q-67 75 -67 210q0 114 51.5 191.5t162.5 77.5q52 0 100 -27l14 22h60l-28 -52q68 -76 68 -212zM392 263q0 81 -32 135l-175 -307q29 -22 69 -22q138 0 138 194zM146 131
l174 305q-29 21 -66 21q-138 0 -138 -194q0 -79 30 -132z" />
    <glyph glyph-name="Oslashacute.sc" horiz-adv-x="518" 
d="M468 263q0 -54 -11.5 -100t-35.5 -84.5t-66.5 -61t-100.5 -22.5q-59 0 -104 28l-13 -23h-59l29 53q-67 75 -67 210q0 114 51.5 191.5t162.5 77.5q52 0 100 -27l14 22h60l-28 -52q68 -76 68 -212zM392 263q0 81 -32 135l-175 -307q29 -22 69 -22q138 0 138 194zM146 131
l174 305q-29 21 -66 21q-138 0 -138 -194q0 -79 30 -132zM258 732h86l-110 -153h-61z" />
    <glyph glyph-name="OE.sc" horiz-adv-x="761" 
d="M719 74v-74h-331v69q-43 -75 -137 -75q-75 0 -124 40t-68 97.5t-19 130.5t19 131t68 98t124 40q96 0 137 -73v67h331v-75h-257v-143h224v-70h-224v-163h257zM387 262q0 194 -136 194t-136 -194q0 -193 136 -193t136 193z" />
    <glyph glyph-name="Racute.sc" horiz-adv-x="503" 
d="M441 374q0 -55 -32.5 -92.5t-91.5 -47.5q19 -13 32 -37l121 -197h-87l-109 183q-27 42 -59 42h-59v-225h-76v525h186q79 0 127 -37.5t48 -113.5zM366 373q0 80 -100 80h-110v-160h110q100 0 100 80zM251 732h86l-110 -153h-61z" />
    <glyph glyph-name="Rcaron.sc" horiz-adv-x="503" 
d="M441 374q0 76 -48 113.5t-127 37.5h-186v-525h76v225h59q32 0 59 -42l109 -183h87l-121 197q-13 24 -32 37q59 10 91.5 47.5t32.5 92.5zM366 373q0 -80 -100 -80h-110v160h110q100 0 100 -80zM400 729l-113 -149h-71l-111 149h78l68 -107l70 107h79z" />
    <glyph glyph-name="Rcommaaccent.sc" horiz-adv-x="503" 
d="M441 374q0 -55 -32.5 -92.5t-91.5 -47.5q19 -13 32 -37l121 -197h-87l-109 183q-27 42 -59 42h-59v-225h-76v525h186q79 0 127 -37.5t48 -113.5zM366 373q0 80 -100 80h-110v-160h110q100 0 100 80zM299 -121v-41l-70 -111h-25v152q0 19 14 32.5t33 13.5q21 0 34.5 -13.5
t13.5 -32.5z" />
    <glyph glyph-name="Sacute.sc" horiz-adv-x="486" 
d="M437 153q0 -75 -57 -117.5t-133 -42.5q-168 0 -206 143l71 16q26 -87 135 -87q46 0 80.5 23.5t34.5 64.5q0 35 -31.5 55t-76 30t-89.5 23t-76.5 45t-31.5 83q0 69 52.5 105t122.5 36q64 0 109.5 -25t76.5 -83l-67 -30q-37 66 -119 66q-41 0 -70 -17t-29 -52
q0 -29 31.5 -46.5t76 -28t89 -24.5t76 -48.5t31.5 -88.5zM242 732h86l-110 -153h-61z" />
    <glyph glyph-name="Scedilla.sc" horiz-adv-x="486" 
d="M277 -4l26 -65l-70 -129h-78l94 133l-26 59q-148 10 -182 142l71 16q26 -87 135 -87q46 0 80.5 23.5t34.5 64.5q0 35 -31.5 55t-76 30t-89.5 23t-76.5 45t-31.5 83q0 69 52.5 105t122.5 36q64 0 109.5 -25t76.5 -83l-67 -30q-37 66 -119 66q-41 0 -70 -17t-29 -52
q0 -29 31.5 -46.5t76 -28t89 -24.5t76 -48.5t31.5 -88.5q0 -67 -46.5 -108.5t-113.5 -48.5z" />
    <glyph glyph-name="Scircumflex.sc" horiz-adv-x="486" 
d="M437 153q0 -75 -57 -117.5t-133 -42.5q-168 0 -206 143l71 16q26 -87 135 -87q46 0 80.5 23.5t34.5 64.5q0 35 -31.5 55t-76 30t-89.5 23t-76.5 45t-31.5 83q0 69 52.5 105t122.5 36q64 0 109.5 -25t76.5 -83l-67 -30q-37 66 -119 66q-41 0 -70 -17t-29 -52
q0 -29 31.5 -46.5t76 -28t89 -24.5t76 -48.5t31.5 -88.5zM279 729l112 -149h-79l-69 107l-69 -107h-78l111 149h72z" />
    <glyph glyph-name="Scaron.sc" horiz-adv-x="486" 
d="M437 153q0 54 -31.5 88.5t-76 48.5t-89 24.5t-76 28t-31.5 46.5q0 35 29 52t70 17q82 0 119 -66l67 30q-31 58 -76.5 83t-109.5 25q-70 0 -122.5 -36t-52.5 -105q0 -51 31.5 -83t76.5 -45t89.5 -23t76 -30t31.5 -55q0 -41 -34.5 -64.5t-80.5 -23.5q-109 0 -135 87
l-71 -16q38 -143 206 -143q76 0 133 42.5t57 117.5zM391 729l-112 -149h-72l-111 149h78l69 -107l69 107h79z" />
    <glyph glyph-name="Scommaaccent.sc" horiz-adv-x="486" 
d="M437 153q0 -75 -57 -117.5t-133 -42.5q-168 0 -206 143l71 16q26 -87 135 -87q46 0 80.5 23.5t34.5 64.5q0 35 -31.5 55t-76 30t-89.5 23t-76.5 45t-31.5 83q0 69 52.5 105t122.5 36q64 0 109.5 -25t76.5 -83l-67 -30q-37 66 -119 66q-41 0 -70 -17t-29 -52
q0 -29 31.5 -46.5t76 -28t89 -24.5t76 -48.5t31.5 -88.5zM291 -121v-41l-70 -111h-25v152q0 19 14 32.5t33 13.5q21 0 34.5 -13.5t13.5 -32.5z" />
    <glyph glyph-name="germandbls.sc" horiz-adv-x="968" 
d="M437 153q0 -75 -57 -117.5t-133 -42.5q-168 0 -206 143l71 16q26 -87 135 -87q46 0 80.5 23.5t34.5 64.5q0 35 -31.5 55t-76 30t-89.5 23t-76.5 45t-31.5 83q0 69 52.5 105t122.5 36q64 0 109.5 -25t76.5 -83l-67 -30q-37 66 -119 66q-41 0 -70 -17t-29 -52
q0 -29 31.5 -46.5t76 -28t89 -24.5t76 -48.5t31.5 -88.5zM919 153q0 -75 -57 -117.5t-133 -42.5q-168 0 -206 143l71 16q26 -87 135 -87q46 0 80.5 23.5t34.5 64.5q0 35 -31.5 55t-76 30t-89 23t-76 45t-31.5 83q0 69 52 105t122 36q64 0 109.5 -25t76.5 -83l-67 -30
q-37 66 -119 66q-41 0 -70 -17t-29 -52q0 -29 31.5 -46.5t76 -28t89 -24.5t76 -48.5t31.5 -88.5z" />
    <glyph glyph-name="Tcaron.sc" horiz-adv-x="451" 
d="M421 450v75h-391v-75h158v-450h75v450h158zM373 729l-112 -149h-71l-112 149h78l69 -107l70 107h78z" />
    <glyph glyph-name="Tcommaaccent.sc" horiz-adv-x="451" 
d="M421 525v-75h-158v-450h-75v450h-158v75h391zM273 -121v-41l-70 -111h-25v152q0 19 14 32.5t33 13.5q21 0 34.5 -13.5t13.5 -32.5z" />
    <glyph glyph-name="Tbar.sc" horiz-adv-x="451" 
d="M361 290v-59h-98v-231h-75v231h-97v59h97v160h-158v75h391v-75h-158v-160h98z" />
    <glyph glyph-name="Uacute.sc" horiz-adv-x="520" 
d="M456 525v-302q0 -229 -196 -229q-195 0 -195 229v302h75v-300q0 -74 25.5 -115.5t94.5 -41.5q70 0 95 40.5t25 116.5v300h76zM259 732h86l-110 -153h-61z" />
    <glyph glyph-name="Ugrave.sc" horiz-adv-x="520" 
d="M456 525v-302q0 -229 -196 -229q-195 0 -195 229v302h75v-300q0 -74 25.5 -115.5t94.5 -41.5q70 0 95 40.5t25 116.5v300h76zM261 732l84 -153h-60l-111 153h87z" />
    <glyph glyph-name="Ucircumflex.sc" horiz-adv-x="520" 
d="M456 525v-302q0 -229 -196 -229q-195 0 -195 229v302h75v-300q0 -74 25.5 -115.5t94.5 -41.5q70 0 95 40.5t25 116.5v300h76zM295 729l112 -149h-78l-70 107l-69 -107h-78l112 149h71z" />
    <glyph glyph-name="Utilde.sc" horiz-adv-x="520" 
d="M456 525v-302q0 -229 -196 -229q-195 0 -195 229v302h75v-300q0 -74 25.5 -115.5t94.5 -41.5q70 0 95 40.5t25 116.5v300h76zM374 676l42 -37q-22 -30 -43 -45t-51 -15t-64.5 26.5t-58.5 26.5q-28 0 -53 -37l-42 37q39 59 95 59q31 0 65 -26.5t57 -26.5q29 0 53 38z" />
    <glyph glyph-name="Udieresis.sc" horiz-adv-x="520" 
d="M456 525v-302q0 -229 -196 -229q-195 0 -195 229v302h75v-300q0 -74 25.5 -115.5t94.5 -41.5q70 0 95 40.5t25 116.5v300h76zM406 636q0 -22 -15 -36.5t-36 -14.5t-36 14.5t-15 36.5q0 21 15 36t36 15t36 -15t15 -36zM216 636q0 -22 -15 -36.5t-36 -14.5t-36 14.5
t-15 36.5q0 21 15 36t36 15t36 -15t15 -36z" />
    <glyph glyph-name="Umacron.sc" horiz-adv-x="520" 
d="M456 525v-302q0 -229 -196 -229q-195 0 -195 229v302h75v-300q0 -74 25.5 -115.5t94.5 -41.5q70 0 95 40.5t25 116.5v300h76zM405 660v-58h-290v58h290z" />
    <glyph glyph-name="Ubreve.sc" horiz-adv-x="520" 
d="M456 525v-302q0 -229 -196 -229q-195 0 -195 229v302h75v-300q0 -74 25.5 -115.5t94.5 -41.5q70 0 95 40.5t25 116.5v300h76zM370 721h57q-54 -135 -167 -135t-167 135h56q43 -81 111 -81q67 0 110 81z" />
    <glyph glyph-name="Uring.sc" horiz-adv-x="520" 
d="M456 525v-302q0 -229 -196 -229q-195 0 -195 229v302h75v-300q0 -74 25.5 -115.5t94.5 -41.5q70 0 95 40.5t25 116.5v300h76zM367 687q0 -44 -31.5 -76t-75.5 -32q-45 0 -76.5 32t-31.5 76t31.5 75.5t76.5 31.5q44 0 75.5 -31.5t31.5 -75.5zM312 687q0 22 -15.5 37
t-36.5 15q-22 0 -37 -15t-15 -37t15 -37t37 -15q21 0 36.5 15t15.5 37z" />
    <glyph glyph-name="Uhungarumlaut.sc" horiz-adv-x="520" 
d="M456 525v-302q0 -229 -196 -229q-195 0 -195 229v302h75v-300q0 -74 25.5 -115.5t94.5 -41.5q70 0 95 40.5t25 116.5v300h76zM324 745h78l-104 -149h-49zM193 745h78l-105 -149h-48z" />
    <glyph glyph-name="Uogonek.sc" horiz-adv-x="520" 
d="M338 6l132 -204h-79l-107 193q-3 0 -12 -0.5t-12 -0.5q-195 0 -195 229v302h75v-300q0 -74 25.5 -115.5t94.5 -41.5q70 0 95 40.5t25 116.5v300h76v-302q0 -178 -118 -217z" />
    <glyph glyph-name="Wacute.sc" horiz-adv-x="651" 
d="M538 525h77l-122 -525h-78l-90 375l-88 -375h-79l-122 525h77l87 -390l93 390h65l93 -390zM384 732h86l-110 -153h-61z" />
    <glyph glyph-name="Wgrave.sc" horiz-adv-x="651" 
d="M538 525h77l-122 -525h-78l-90 375l-88 -375h-79l-122 525h77l87 -390l93 390h65l93 -390zM268 732l85 -153h-61l-110 153h86z" />
    <glyph glyph-name="Wcircumflex.sc" horiz-adv-x="651" 
d="M538 525h77l-122 -525h-78l-90 375l-88 -375h-79l-122 525h77l87 -390l93 390h65l93 -390zM361 729l112 -149h-79l-70 107l-68 -107h-78l111 149h72z" />
    <glyph glyph-name="Wdieresis.sc" horiz-adv-x="651" 
d="M538 525h77l-122 -525h-78l-90 375l-88 -375h-79l-122 525h77l87 -390l93 390h65l93 -390zM471 636q0 -22 -14.5 -36.5t-35.5 -14.5q-22 0 -37 14.5t-15 36.5q0 21 15 36t37 15q21 0 35.5 -15t14.5 -36zM282 636q0 -22 -15 -36.5t-36 -14.5q-22 0 -36.5 14.5t-14.5 36.5
q0 21 14.5 36t36.5 15q21 0 36 -15t15 -36z" />
    <glyph glyph-name="Yacute.sc" horiz-adv-x="474" 
d="M365 525h83l-173 -352v-173h-76v175l-173 350h84l127 -267zM236 732h86l-110 -153h-61z" />
    <glyph glyph-name="Ygrave.sc" horiz-adv-x="474" 
d="M365 525h83l-173 -352v-173h-76v175l-173 350h84l127 -267zM238 732l84 -153h-61l-110 153h87z" />
    <glyph glyph-name="Ycircumflex.sc" horiz-adv-x="474" 
d="M365 525h83l-173 -352v-173h-76v175l-173 350h84l127 -267zM272 729l113 -149h-79l-70 107l-68 -107h-78l111 149h71z" />
    <glyph glyph-name="Ydieresis.sc" horiz-adv-x="474" 
d="M365 525h83l-173 -352v-173h-76v175l-173 350h84l127 -267zM382 636q0 -22 -14.5 -36.5t-35.5 -14.5t-36 14.5t-15 36.5q0 21 15 36t36 15t35.5 -15t14.5 -36zM193 636q0 -22 -15 -36.5t-36 -14.5t-36 14.5t-15 36.5q0 21 15 36t36 15t36 -15t15 -36z" />
    <glyph glyph-name="Zacute.sc" horiz-adv-x="485" 
d="M425 74v-74h-375v58l269 392h-246v75h349v-59l-269 -392h272zM242 732h86l-110 -153h-61z" />
    <glyph glyph-name="Zcaron.sc" horiz-adv-x="485" 
d="M425 0v74h-272l269 392v59h-349v-75h246l-269 -392v-58h375zM390 729l-112 -149h-71l-112 149h78l69 -107l70 107h78z" />
    <glyph glyph-name="Zdotaccent.sc" horiz-adv-x="485" 
d="M425 74v-74h-375v58l269 392h-246v75h349v-59l-269 -392h272zM295 630q0 -21 -15.5 -36.5t-37.5 -15.5t-37 15.5t-15 36.5q0 23 15 38.5t37 15.5t37.5 -16t15.5 -38z" />
    <glyph glyph-name="Thorn.sc" horiz-adv-x="504" 
d="M456 270q0 -78 -50 -115t-131 -37h-124v-118h-75v525h75v-102h124q83 0 132 -36.5t49 -116.5zM380 270q0 46 -28.5 63t-76.5 17h-124v-159h124q50 0 77.5 16.5t27.5 62.5z" />
    </font>
</defs>
</svg>
