<?xml version="1.0" standalone="no"?>
<!DOCTYPE svg PUBLIC "-//W3C//DTD SVG 1.1//EN" "http://www.w3.org/Graphics/SVG/1.1/DTD/svg11.dtd" >
<svg>
<metadata>
Created by FontForge 20090622 at Wed Mar 13 11:24:09 2019
 By deploy user
Copyright (c) 2008 by Neil Summerour. All rights reserved.
</metadata>
<defs>
<font id="AauxNext-Light" horiz-adv-x="484" >
  <font-face 
    font-family="Aaux Next Light"
    font-weight="400"
    font-stretch="normal"
    units-per-em="1000"
    panose-1="2 0 5 6 0 0 0 2 0 3"
    ascent="800"
    descent="-200"
    x-height="480"
    cap-height="698"
    bbox="-101 -238 1013 1011"
    underline-thickness="50"
    underline-position="-50"
    unicode-range="U+0020-U+FB04"
  />
<missing-glyph horiz-adv-x="275" 
 />
    <glyph glyph-name="f_f" unicode="ff" horiz-adv-x="565" 
d="M376 442h-231v-442h-41v442h-54v38h54v33q0 36 6 63.5t22.5 55.5t51.5 45t87 21v-38q-70 -5 -98 -42.5t-28 -110.5v-27h231v33q0 35 6.5 63t23 56t51.5 45t87 21v-38q-70 -5 -98.5 -42.5t-28.5 -110.5v-27h110v-38h-110v-442h-41v442z" />
    <glyph glyph-name="f_l" unicode="fl" horiz-adv-x="502" 
d="M467 39v-38q-106 6 -106 108v551h-90q-69 0 -97.5 -39t-28.5 -114v-27h109v-38h-109v-442h-41v442h-54v38h54v33q0 185 167 185h132v-589q0 -64 64 -70z" />
    <glyph glyph-name="f_f_i" unicode="ffi" horiz-adv-x="777" 
d="M376 442h-231v-442h-41v442h-54v38h54v33q0 36 6 63.5t22.5 55.5t51.5 45t87 21v-38q-70 -5 -98 -42.5t-28 -110.5v-27h231v33q0 35 6.5 63t23 56t51.5 45t87 21v-38q-70 -5 -98.5 -42.5t-28.5 -110.5v-27h275v-480h-43v442h-232v-442h-41v442zM710 663
q0 -16 -11.5 -27.5t-27.5 -11.5t-27.5 11.5t-11.5 27.5q0 17 11 28t28 11t28 -11t11 -28z" />
    <glyph glyph-name="f_f_l" unicode="ffl" horiz-adv-x="775" 
d="M271 698v-38q-70 -5 -98 -42.5t-28 -110.5v-27h231v33q0 185 168 185h131v-589q0 -64 65 -70v-38q-106 6 -106 108v551h-90q-69 0 -98 -39t-29 -114v-27h110v-38h-110v-442h-41v442h-231v-442h-41v442h-54v38h54v33q0 36 6 63.5t22.5 55.5t51.5 45t87 21z" />
    <glyph glyph-name="f_b" unicode="fb" horiz-adv-x="784" 
d="M271 698h133v-288q48 79 145 79q192 0 192 -249t-193 -249q-105 0 -147 79l-1 -70h-38v660h-91q-69 0 -97.5 -39t-28.5 -114v-27h109v-38h-109v-442h-41v442h-54v38h54v33q0 185 167 185zM699 239q0 41 -5.5 73.5t-20 65.5t-47 51.5t-79.5 18.5q-59 0 -101 -35.5
t-42 -94.5v-157q0 -59 41.5 -94t101.5 -35q47 0 79 18t47 51t20.5 65t5.5 73z" />
    <glyph glyph-name="f_f_b" unicode="ffb" horiz-adv-x="1057" 
d="M972 239q0 43 -6 76.5t-21.5 65.5t-47 49.5t-77.5 17.5q-59 0 -101 -35t-42 -95v-157q0 -59 41.5 -94t101.5 -35q46 0 77.5 17t47 48.5t21.5 65t6 76.5zM544 698h133v-288q46 79 144 79q192 0 192 -249t-193 -249q-104 0 -146 79l-1 -70h-39v660h-90q-68 0 -97.5 -39
t-29.5 -115v-26h110v-38h-110v-442h-41v442h-231v-442h-41v442h-54v38h54v33q0 28 2.5 49.5t13 47t27.5 42.5t48.5 30t75.5 16v-38q-71 -5 -98.5 -42.5t-27.5 -110.5v-27h231v33q0 28 2.5 50t12.5 48.5t27.5 44.5t49.5 30t76 12z" />
    <glyph glyph-name="f_h" unicode="fh" horiz-adv-x="799" 
d="M271 698h133v-288q22 40 63 60t83 20q191 0 191 -215v-275h-42v275q0 82 -34 127.5t-118 45.5q-52 0 -97.5 -34.5t-45.5 -84.5v-329h-42v660h-91q-70 0 -98 -39t-28 -114v-27h109v-38h-109v-442h-41v442h-54v38h54v33q0 185 167 185z" />
    <glyph glyph-name="f_f_h" unicode="ffh" horiz-adv-x="1071" 
d="M145 480h231v33q0 185 168 185h133v-288q22 40 62.5 60t82.5 20q191 0 191 -215v-275h-41v275q0 82 -34 127.5t-118 45.5q-52 0 -97.5 -34t-45.5 -85v-329h-43v660h-90q-70 0 -98.5 -39t-28.5 -114v-27h110v-38h-110v-442h-41v442h-231v-442h-41v442h-54v38h54v33
q0 36 6 63.5t22.5 55.5t51.5 45t87 21v-38q-70 -5 -98 -42.5t-28 -110.5v-27z" />
    <glyph glyph-name="f_i" unicode="fi" horiz-adv-x="504" 
d="M419 480v-480h-43v442h-231v-442h-41v442h-54v38h54v33q0 36 6 63.5t22.5 55.5t51.5 45t87 21v-38q-70 -5 -98 -42.5t-28 -110.5v-27h274zM438 663q0 -16 -12 -27.5t-28 -11.5t-27 11.5t-11 27.5t11 27.5t27 11.5q17 0 28.5 -11.5t11.5 -27.5z" />
    <glyph glyph-name="f_j" unicode="fj" horiz-adv-x="498" 
d="M416 480v-508q0 -181 -165 -191l-6 39q129 8 129 153v469h-229v-442h-41v442h-54v38h54v33q0 36 6 63.5t22.5 55.5t51.5 45t87 21v-38q-70 -5 -98 -42.5t-28 -110.5v-27h271zM435 663q0 -16 -11.5 -27.5t-27.5 -11.5t-27.5 11.5t-11.5 27.5q0 17 11.5 28t27.5 11
t27.5 -11.5t11.5 -27.5z" />
    <glyph glyph-name="f_f_j" unicode="ffj" horiz-adv-x="771" 
d="M544 698v-38q-70 -5 -98.5 -42.5t-28.5 -110.5v-27h272v-508q0 -181 -165 -191l-7 39q129 8 129 153v469h-229v-442h-41v442h-231v-442h-41v442h-54v38h54v33q0 36 6 63.5t22.5 55.5t51.5 45t87 21v-38q-70 -5 -98 -42.5t-28 -110.5v-27h231v33q0 35 6.5 63t23 56
t51.5 45t87 21zM708 663q0 -16 -12 -27.5t-28 -11.5t-27.5 11.5t-11.5 27.5t11.5 27.5t27.5 11.5q17 0 28.5 -11.5t11.5 -27.5z" />
    <glyph glyph-name="f_k" unicode="fk" horiz-adv-x="720" 
d="M271 698h132v-698h-42v660h-90q-70 0 -98 -39t-28 -114v-27h109v-38h-109v-442h-41v442h-54v38h54v33q0 185 167 185zM460 255l238 -255h-52l-236 254l201 226h49z" />
    <glyph glyph-name="f_f_k" unicode="ffk" horiz-adv-x="993" 
d="M544 698h131v-698h-41v660h-90q-69 0 -98 -39t-29 -114v-27h110v-38h-110v-442h-41v442h-231v-442h-41v442h-54v38h54v33q0 36 6 63.5t22.5 55.5t51.5 45t87 21v-38q-70 -5 -98 -42.5t-28 -110.5v-27h231v33q0 185 168 185zM732 255l239 -255h-53l-236 254l202 226h48z
" />
    <glyph glyph-name=".notdef" horiz-adv-x="275" 
 />
    <glyph glyph-name=".null" horiz-adv-x="0" 
 />
    <glyph glyph-name="nonmarkingreturn" horiz-adv-x="333" 
 />
    <glyph glyph-name="space" unicode=" " horiz-adv-x="275" 
 />
    <glyph glyph-name="exclam" unicode="!" horiz-adv-x="287" 
d="M115 698h57v-330l-12 -184h-31l-14 184v330zM184 32q0 -17 -11.5 -28.5t-28.5 -11.5t-29 11.5t-12 28.5t12 29t29 12t28.5 -12t11.5 -29z" />
    <glyph glyph-name="quotedbl" unicode="&#x22;" horiz-adv-x="352" 
d="M284 704v-160h-59v160q0 11 9 20t21 9t20.5 -9t8.5 -20zM127 704v-160h-58v160q0 11 8.5 20t20.5 9t20.5 -9t8.5 -20z" />
    <glyph glyph-name="numbersign" unicode="#" horiz-adv-x="697" 
d="M511 482h129l-9 -39h-128l-41 -188h129l-8 -39h-129l-46 -216h-39l46 216h-190l-47 -216h-39l47 216h-129l9 39h128l40 188h-128l8 39h129l46 216h39l-46 -216h190l46 216h40zM424 255l40 188h-191l-40 -188h191z" />
    <glyph glyph-name="dollar" unicode="$" horiz-adv-x="515" 
d="M468 224q0 -73 -54.5 -117t-130.5 -49v-58h-39v59q-72 5 -124 40t-70 101l38 8q28 -100 156 -109v255q-41 10 -66 18.5t-53 24.5t-41.5 41.5t-13.5 60.5q0 69 51 104.5t123 37.5v57h39v-57q108 -10 158 -94l-32 -20q-39 65 -126 75v-217q34 -8 56 -15t49 -20t42.5 -29
t26.5 -40.5t11 -56.5zM244 394v208q-55 -1 -95.5 -26t-40.5 -77q0 -46 34.5 -67.5t101.5 -37.5zM428 224q0 29 -11 49.5t-34.5 34t-44.5 21t-55 16.5v-247q60 3 102.5 35.5t42.5 90.5z" />
    <glyph glyph-name="percent" unicode="%" horiz-adv-x="795" 
d="M739 182q0 -81 -34 -136.5t-108 -55.5t-108 55t-34 137t34 137.5t108 55.5t108 -55.5t34 -137.5zM529 698h43l-306 -698h-43zM341 516q0 -82 -34 -137.5t-108 -55.5t-108 55.5t-34 137.5q0 81 34 136.5t108 55.5t108 -55.5t34 -136.5zM702 182q0 158 -105 158
q-106 0 -106 -158q0 -157 106 -157q105 0 105 157zM304 516q0 157 -105 157q-106 0 -106 -157q0 -159 106 -159q105 0 105 159z" />
    <glyph glyph-name="ampersand" unicode="&#x26;" horiz-adv-x="658" 
d="M594 30l-26 -33l-87 73q-81 -80 -213 -80q-93 0 -155 49.5t-62 137.5q0 73 34.5 121.5t111.5 94.5q-73 104 -73 173q0 61 39 100t101 39q61 0 97 -37t36 -98q0 -59 -35.5 -101t-106.5 -87q100 -133 220 -248q50 80 53 176h43q-3 -120 -64 -206zM354 570q0 42 -24 68
t-66 26q-44 0 -70.5 -27.5t-26.5 -70.5q0 -64 66 -153q29 19 46 31.5t37 32.5t29 43t9 50zM450 102q-125 118 -229 259q-66 -41 -96 -80t-30 -104q0 -69 53 -108t123 -39q104 0 179 72z" />
    <glyph glyph-name="quotesingle" unicode="'" horiz-adv-x="211" 
d="M134 704v-160h-59v160q0 11 9 20t21 9t20.5 -9t8.5 -20z" />
    <glyph glyph-name="parenleft" unicode="(" horiz-adv-x="329" 
d="M76 349q0 95 40.5 189.5t112.5 159.5h50q-75 -66 -118 -162t-43 -187q0 -90 42.5 -186t117.5 -163h-49q-72 66 -112.5 160t-40.5 189z" />
    <glyph glyph-name="parenright" unicode=")" horiz-adv-x="329" 
d="M279 349q0 -95 -41 -189t-113 -160h-49q75 67 117.5 163t42.5 186q0 91 -43 187t-117 162h49q72 -65 113 -160t41 -189z" />
    <glyph glyph-name="asterisk" unicode="*" horiz-adv-x="433" 
d="M372 602l12 -37l-143 -42l91 -119l-32 -23l-84 124l-83 -124l-32 23l91 119l-144 42l13 37l140 -50l-4 149h39l-4 -149z" />
    <glyph glyph-name="plus" unicode="+" horiz-adv-x="499" 
d="M453 295v-42h-182v-183h-43v183h-182v42h182v182h43v-182h182z" />
    <glyph glyph-name="comma" unicode="," horiz-adv-x="169" 
d="M124 34v-35l-57 -112h-16v147q0 16 10 28t24 12q17 0 28 -11.5t11 -28.5z" />
    <glyph glyph-name="hyphen" unicode="-" horiz-adv-x="392" 
d="M327 293v-40h-263v40h263z" />
    <glyph glyph-name="period" unicode="." horiz-adv-x="231" 
d="M157 35q0 -17 -12 -29t-30 -12q-17 0 -29 12t-12 29t12 29t29 12q18 0 30 -12t12 -29z" />
    <glyph glyph-name="slash" unicode="/" horiz-adv-x="410" 
d="M344 774h45l-323 -850h-44z" />
    <glyph glyph-name="zero" unicode="0" horiz-adv-x="566" 
d="M516 349q0 -51 -6 -97.5t-22.5 -95t-41.5 -83.5t-66.5 -57.5t-95.5 -22.5t-96 22.5t-67.5 57.5t-42 83.5t-22.5 95t-6 97.5t6 98t22.5 95t42 83t67.5 57t96 22q66 0 114 -32.5t72.5 -87t35 -112.5t10.5 -123zM472 349q0 40 -3.5 76.5t-15 82t-31 78t-55.5 55t-83 22.5
q-48 0 -84 -22.5t-55.5 -55t-31.5 -78t-15.5 -82t-3.5 -76.5q0 -39 3.5 -76t15.5 -82.5t31.5 -78.5t55.5 -55.5t84 -22.5t83.5 22.5t55 55.5t31 79t15 82t3.5 76z" />
    <glyph glyph-name="one" unicode="1" horiz-adv-x="361" 
d="M236 698v-698h-45v641l-122 -88l-23 33l152 112h38z" />
    <glyph glyph-name="two" unicode="2" horiz-adv-x="550" 
d="M491 42v-42h-431v35q16 63 45.5 115.5t63 86t70 62.5t70 52.5t60.5 47.5t43 55.5t16 70.5q0 66 -48.5 102.5t-116.5 36.5q-49 0 -90.5 -23.5t-65.5 -67.5l-38 21q64 112 194 112q92 0 151 -48.5t59 -133.5q0 -50 -22 -91t-55.5 -68l-76 -59.5l-82 -64t-74.5 -83.5
t-52 -116h380z" />
    <glyph glyph-name="three" unicode="3" horiz-adv-x="515" 
d="M465 192q0 -91 -60.5 -145t-152.5 -54q-151 0 -200 126l40 15q20 -48 63 -73.5t97 -25.5q71 0 120 43.5t49 113.5q0 76 -48.5 115t-127.5 41v33q72 2 115.5 37t43.5 105q0 60 -48 101.5t-110 41.5q-49 0 -89.5 -25t-59.5 -68l-39 16q26 56 76.5 86.5t113.5 30.5
q83 0 141 -51t58 -132q0 -119 -112 -158q62 -20 96 -64.5t34 -108.5z" />
    <glyph glyph-name="four" unicode="4" horiz-adv-x="544" 
d="M496 226v-42h-69v-184h-42v184h-342v46l299 468h47l-301 -472h297v285l42 -7v-278h69z" />
    <glyph glyph-name="five" unicode="5" horiz-adv-x="531" 
d="M483 231q0 -107 -59.5 -172t-166.5 -65q-70 0 -121.5 33t-74.5 94l41 13q19 -47 61 -73t95 -26q87 0 134 55.5t47 140.5q0 84 -46 138.5t-133 54.5q-78 0 -137 -53h-45v327h357v-41h-318v-246q67 53 143 53q106 0 164.5 -64t58.5 -169z" />
    <glyph glyph-name="six" unicode="6" horiz-adv-x="538" 
d="M490 207q0 -92 -62 -152.5t-155 -60.5q-102 0 -164 68.5t-62 171.5q0 134 68.5 258.5t179.5 205.5h56q-204 -146 -255 -381q59 112 179 112q96 0 155.5 -63t59.5 -159zM447 208q0 76 -48.5 128t-125.5 52q-72 0 -125.5 -52.5t-53.5 -124.5q0 -71 54 -123t125 -52
q74 0 124 49.5t50 122.5z" />
    <glyph glyph-name="seven" unicode="7" horiz-adv-x="493" 
d="M455 698v-40q-52 -63 -90.5 -124t-74.5 -142t-54.5 -180.5t-17.5 -211.5h-50q0 211 64 368.5t172 287.5h-325v-59h-40v101h416z" />
    <glyph glyph-name="eight" unicode="8" horiz-adv-x="534" 
d="M485 193q0 -90 -62 -145t-156 -55q-95 0 -156.5 54.5t-61.5 145.5q0 133 130 176q-55 20 -82 63.5t-27 92.5q0 80 56.5 130t140.5 50q83 0 140 -50t57 -130q0 -49 -26.5 -92t-84.5 -64q132 -43 132 -176zM420 524q0 62 -45.5 101.5t-107.5 39.5t-108 -39.5t-46 -101.5
q0 -66 43.5 -102.5t110.5 -36.5t110 36.5t43 102.5zM440 193q0 74 -49 115t-124 41q-76 0 -124.5 -40.5t-48.5 -115.5q0 -70 50.5 -114t122.5 -44q71 0 122 44t51 114z" />
    <glyph glyph-name="nine" unicode="9" horiz-adv-x="524" 
d="M474 464q0 -130 -64.5 -255.5t-179.5 -208.5h-56q97 74 162.5 165t88.5 216q-57 -101 -170 -101q-91 0 -151 60.5t-60 150.5q0 89 61.5 151.5t151.5 62.5q101 0 159 -69t58 -172zM427 493q0 70 -50 120.5t-121 50.5q-72 0 -121 -51.5t-49 -120.5t49.5 -120t120.5 -51
q74 0 122.5 50t48.5 122z" />
    <glyph glyph-name="colon" unicode=":" horiz-adv-x="231" 
d="M157 351q0 -17 -12 -29t-30 -12q-17 0 -29 12t-12 29t12 29.5t29 12.5q18 0 30 -12.5t12 -29.5zM157 33q0 -18 -12 -29.5t-30 -11.5q-17 0 -29 11.5t-12 29.5q0 17 12 29t29 12q18 0 30 -12t12 -29z" />
    <glyph glyph-name="semicolon" unicode=";" horiz-adv-x="182" 
d="M124 351q0 -17 -10.5 -29t-25.5 -12t-26 12t-11 29t11 29.5t26 12.5t25.5 -12.5t10.5 -29.5zM124 34v-35l-57 -112h-16v147q0 16 10 27.5t24 11.5q17 0 28 -11t11 -28z" />
    <glyph glyph-name="less" unicode="&#x3c;" horiz-adv-x="462" 
d="M346 698h55l-292 -349l292 -349h-55l-293 349z" />
    <glyph glyph-name="equal" unicode="=" horiz-adv-x="517" 
d="M461 382v-42h-405v42h405zM461 166v-42h-405v42h405z" />
    <glyph glyph-name="greater" unicode="&#x3e;" horiz-adv-x="462" 
d="M117 698l292 -349l-292 -349h-55l292 349l-292 349h55z" />
    <glyph glyph-name="question" unicode="?" horiz-adv-x="480" 
d="M437 526q0 -37 -14 -64t-29.5 -39.5t-42.5 -27.5q-51 -28 -73 -58t-24 -77l-5 -78h-25q-7 56 -7 78q0 43 14 75t30 46t43 30l29 16.5t22.5 16t22 21.5t11 25.5t5.5 35.5q0 65 -45 102t-111 37q-61 0 -109.5 -33.5t-52.5 -93.5h-41q4 77 63 122.5t140 45.5
q84 0 141.5 -49.5t57.5 -130.5zM279 32q0 -17 -12 -28.5t-29 -11.5t-29 11.5t-12 28.5t12 28.5t29 11.5t29 -12t12 -28z" />
    <glyph glyph-name="at" unicode="@" horiz-adv-x="709" 
d="M644 407q0 -25 -10.5 -73.5t-10.5 -56.5l-18 -278l-39 3l8 136q-75 -150 -194 -150q-69 0 -105.5 55t-36.5 127q0 65 28.5 136t84.5 124t122 53q85 0 125 -114q6 48 -0.5 97.5t-26 94t-58 72.5t-89.5 28q-55 0 -107 -28.5t-90.5 -74.5t-67.5 -102.5t-44 -114.5t-15 -109
q0 -141 91 -214l-21 -32q-55 39 -82.5 106t-27.5 141q0 72 27.5 153t73.5 151.5t116.5 116.5t147.5 46q73 0 124 -44.5t73 -108.5t22 -140zM578 290q0 54 -27 103.5t-77 49.5q-55 0 -102 -47.5t-70 -109.5t-23 -115q0 -55 24.5 -99t75.5 -44q80 0 139.5 90t59.5 172z" />
    <glyph glyph-name="A" unicode="A" horiz-adv-x="624" 
d="M342 698l268 -698h-48l-81 214h-338l-82 -214h-47l268 698h60zM158 254h307l-154 401z" />
    <glyph glyph-name="B" unicode="B" horiz-adv-x="610" 
d="M566 189q0 -99 -64 -144t-172 -45h-256v698h238q103 0 164.5 -43.5t61.5 -138.5q0 -107 -107 -156q69 -21 102 -67t33 -104zM493 516q0 140 -181 140h-192v-282h198q175 0 175 142zM520 189q0 149 -190 149h-210v-295h210q190 0 190 146z" />
    <glyph glyph-name="C" unicode="C" horiz-adv-x="579" 
d="M501 125l33 -29q-47 -55 -94.5 -80t-115.5 -25q-75 0 -131 29.5t-87.5 81t-46.5 113t-15 134.5t15 134.5t46 113t87 81t131 29.5q68 0 116 -24.5t94 -78.5l-33 -29q-40 45 -79.5 66t-97.5 21q-67 0 -115 -27.5t-72.5 -75t-35 -99t-10.5 -111.5t10.5 -111.5t35 -99
t72.5 -75t115 -27.5q58 0 98 21.5t80 67.5z" />
    <glyph glyph-name="D" unicode="D" horiz-adv-x="628" 
d="M569 349q0 -50 -1.5 -82.5t-5.5 -70t-13 -61t-23.5 -48t-36 -39t-51.5 -26.5t-70.5 -17t-92.5 -5h-201v698h201q52 0 92.5 -5t70.5 -17t51.5 -26.5t36 -39t23.5 -48t13 -61t5.5 -70t1.5 -82.5zM524 349v28.5v31.5t-0.5 29.5t-1.5 32t-3.5 29t-5.5 30t-8 25t-11 23.5
q-24 40 -75 58t-140 18h-159v-609h159q89 0 140 18t75 59q6 10 11 23t8 24.5t5.5 29.5t3.5 28.5t1.5 32t0.5 29.5v31.5v28.5z" />
    <glyph glyph-name="E" unicode="E" horiz-adv-x="565" 
d="M515 44v-44h-441v698h441v-44h-395v-271h345v-42h-345v-297h395z" />
    <glyph glyph-name="F" unicode="F" horiz-adv-x="545" 
d="M505 698v-44h-386v-271h346v-41h-346v-342h-45v698h431z" />
    <glyph glyph-name="G" unicode="G" horiz-adv-x="620" 
d="M333 358h224v-358h-42v129q-28 -75 -75.5 -106.5t-120.5 -31.5q-59 0 -106.5 20t-78.5 54t-51.5 80.5t-29.5 97t-9 106.5q0 71 15.5 133t47.5 113.5t87.5 81.5t128.5 30q68 0 115.5 -25t93.5 -80l-33 -28q-39 45 -78.5 66.5t-97.5 21.5q-67 0 -115 -27.5t-72.5 -75
t-35 -99t-10.5 -111.5q0 -59 10.5 -110t34.5 -99t71 -76t113 -28q193 0 193 280h-179v42z" />
    <glyph glyph-name="H" unicode="H" horiz-adv-x="649" 
d="M574 698v-698h-45v341h-409v-341h-46v698h46v-315h409v315h45z" />
    <glyph glyph-name="I" unicode="I" horiz-adv-x="230" 
d="M137 698v-698h-45v698h45z" />
    <glyph glyph-name="J" unicode="J" horiz-adv-x="528" 
d="M458 698v-490q0 -215 -219 -215q-78 0 -132.5 35.5t-75.5 103.5l44 11q18 -53 61.5 -79t102.5 -26q90 0 132 41.5t42 129.5v489h45z" />
    <glyph glyph-name="K" unicode="K" horiz-adv-x="541" 
d="M482 698l-301 -347l327 -351h-60l-323 350l303 348h54zM120 0h-46v698h46v-698z" />
    <glyph glyph-name="L" unicode="L" horiz-adv-x="502" 
d="M474 41v-41h-400v698h45v-657h355z" />
    <glyph glyph-name="M" unicode="M" horiz-adv-x="725" 
d="M652 698v-698h-45v592l-223 -592h-44l-222 591v-591h-45v698h47l242 -643l243 643h47z" />
    <glyph glyph-name="N" unicode="N" horiz-adv-x="625" 
d="M551 698v-698h-49l-382 622v-622h-46v698h50l381 -622v622h46z" />
    <glyph glyph-name="O" unicode="O" horiz-adv-x="640" 
d="M596 349q0 -72 -14.5 -133.5t-45 -113.5t-86 -81.5t-130.5 -29.5t-130 29.5t-86 81.5t-45.5 113.5t-14.5 133.5t14.5 133.5t45.5 113.5t86 81.5t130 29.5t130.5 -29.5t86 -81.5t45 -113.5t14.5 -133.5zM551 349q0 47 -5.5 88.5t-21.5 84t-41 72.5t-66.5 49t-96.5 19
t-96.5 -19t-66.5 -49t-40.5 -73t-21 -84t-5.5 -88t5.5 -88t21 -84t40.5 -73t66.5 -49t96.5 -19t96.5 19t66.5 49t41 72.5t21.5 84t5.5 88.5z" />
    <glyph glyph-name="P" unicode="P" horiz-adv-x="594" 
d="M558 509q0 -189 -227 -189h-211v-320h-46v698h256q228 0 228 -189zM513 509q0 43 -14.5 73t-41.5 45t-57 21t-70 6h-210v-293h210q84 0 133.5 32t49.5 116z" />
    <glyph glyph-name="Q" unicode="Q" horiz-adv-x="637" 
d="M596 349q0 -83 -15.5 -147t-59.5 -120l67 -82h-57l-42 51q-77 -60 -169 -60q-74 0 -129.5 30t-86.5 81.5t-45.5 113t-14.5 133.5t14.5 133.5t45.5 113.5t86 81.5t130 29.5t130.5 -29.5t86 -81.5t45 -113.5t14.5 -133.5zM551 349q0 47 -5.5 88.5t-21.5 84t-41 72.5
t-66.5 49t-96.5 19q-67 0 -114.5 -27.5t-71.5 -75.5t-34 -99t-10 -111q0 -46 6 -87.5t21.5 -83.5t40.5 -72t66.5 -49t95.5 -19q76 0 137 49q-59 66 -128 76v38q89 -12 161 -85q37 52 49 107.5t12 125.5z" />
    <glyph glyph-name="R" unicode="R" horiz-adv-x="598" 
d="M532 511q0 -167 -198 -183q30 -20 60 -71l154 -257h-53l-149 252q-20 33 -43 53t-58 20h-125v-325h-46v698h238q102 0 161 -45.5t59 -141.5zM487 511q0 143 -175 143h-192v-288h192q175 0 175 145z" />
    <glyph glyph-name="S" unicode="S" horiz-adv-x="598" 
d="M555 191q0 -93 -71.5 -146.5t-171.5 -53.5q-226 0 -266 174l44 8q33 -140 222 -140q77 0 137.5 41t60.5 117q0 46 -24.5 77t-63 47t-85.5 27.5l-94 24t-85.5 30t-63 51.5t-24.5 84q0 85 64 129t156 44q169 0 236 -131l-39 -18q-57 105 -197 105q-43 0 -80 -10.5t-66 -41
t-29 -77.5q0 -40 24.5 -67t63 -41t85.5 -25t94 -24.5t85.5 -33.5t63 -58t24.5 -92z" />
    <glyph glyph-name="T" unicode="T" horiz-adv-x="543" 
d="M522 698v-44h-228v-654h-45v654h-227v44h500z" />
    <glyph glyph-name="U" unicode="U" horiz-adv-x="637" 
d="M569 698v-401q0 -145 -57.5 -225.5t-192.5 -80.5q-250 0 -250 306v401h45v-399q0 -56 8.5 -99t29.5 -82.5t63 -60.5t104 -21q50 0 87 15t59 38.5t35.5 59t18 71t4.5 79.5v399h46z" />
    <glyph glyph-name="V" unicode="V" horiz-adv-x="563" 
d="M497 698h47l-236 -698h-53l-236 698h47l216 -636z" />
    <glyph glyph-name="W" unicode="W" horiz-adv-x="782" 
d="M706 698h45l-163 -698h-52l-146 616l-145 -616h-52l-163 698h46l144 -622l147 622h46l148 -622z" />
    <glyph glyph-name="X" unicode="X" horiz-adv-x="581" 
d="M317 361l233 -361h-54l-205 320l-206 -320h-54l233 361l-218 337h54l191 -298l190 298h54z" />
    <glyph glyph-name="Y" unicode="Y" horiz-adv-x="566" 
d="M487 698h50l-231 -467v-231h-45v231l-231 467h50l203 -415z" />
    <glyph glyph-name="Z" unicode="Z" horiz-adv-x="576" 
d="M522 45v-45h-478v43l423 611h-387v44h440v-47l-420 -606h422z" />
    <glyph glyph-name="bracketleft" unicode="[" horiz-adv-x="279" 
d="M229 -35v-28h-157v824h157v-27h-113v-769h113z" />
    <glyph glyph-name="backslash" unicode="\" horiz-adv-x="410" 
d="M66 774l323 -850h-45l-322 850h44z" />
    <glyph glyph-name="bracketright" unicode="]" horiz-adv-x="279" 
d="M225 761v-824h-158v28h114v769h-114v27h158z" />
    <glyph glyph-name="asciicircum" unicode="^" horiz-adv-x="521" 
d="M288 699l177 -300l-36 -20l-168 287l-169 -287l-35 20l177 300h54z" />
    <glyph glyph-name="underscore" unicode="_" horiz-adv-x="528" 
d="M503 0v-36h-479v36h479z" />
    <glyph glyph-name="grave" unicode="`" horiz-adv-x="308" 
d="M142 682l84 -148h-44l-99 148h59z" />
    <glyph glyph-name="a" unicode="a" horiz-adv-x="470" 
d="M408 75l15 -72l-37 -9l-15 58q-73 -62 -157 -62q-75 0 -122.5 37t-47.5 106q0 64 45.5 100.5t116.5 37.5h75q60 0 86 27v53q0 45 -38.5 72t-83.5 27q-105 0 -137 -75l-37 12q42 103 177 103q62 0 111 -38.5t49 -96.5v-280zM367 94v164q-40 -22 -76 -22h-84q-50 0 -86 -26
t-36 -77q0 -52 38.5 -78.5t90.5 -26.5q84 0 153 66z" />
    <glyph glyph-name="b" unicode="b" horiz-adv-x="492" 
d="M448 240q0 -249 -193 -249q-105 0 -146 79l-1 -70h-39v698h43v-288q48 79 144 79q192 0 192 -249zM407 239q0 209 -153 209q-59 0 -100.5 -35.5t-41.5 -94.5v-157q0 -59 41.5 -94t100.5 -35q153 0 153 207z" />
    <glyph glyph-name="c" unicode="c" horiz-adv-x="466" 
d="M420 419l-31 -27q-56 59 -128 59q-91 0 -131.5 -60t-40.5 -151t40.5 -150.5t131.5 -59.5q72 0 128 59l31 -28q-36 -37 -71.5 -53t-87.5 -16q-106 0 -161.5 69t-55.5 179t55.5 179.5t161.5 69.5q52 0 87 -16.5t72 -53.5z" />
    <glyph glyph-name="d" unicode="d" horiz-adv-x="502" 
d="M440 3l-39 -10l-15 72q-48 -74 -148 -74q-194 0 -194 249t196 249q39 0 78.5 -18t62.5 -57v284h43v-616q15 -78 16 -79zM381 161v157q0 58 -41 94t-100 36q-47 0 -79.5 -18t-47.5 -50.5t-20.5 -65t-5.5 -74.5q0 -33 3 -59t12.5 -55t25.5 -48.5t44 -32.5t66 -13
q60 0 101.5 35t41.5 94z" />
    <glyph glyph-name="e" unicode="e" horiz-adv-x="480" 
d="M436 268v-32h-348q3 -205 174 -205q82 0 129 51l29 -26q-59 -65 -158 -65q-112 0 -165 67t-53 182q0 112 50.5 180t157.5 68q92 0 138 -60.5t46 -159.5zM88 270h307q-4 178 -144 178q-150 0 -163 -178z" />
    <glyph glyph-name="f" unicode="f" horiz-adv-x="293" 
d="M271 698v-38q-70 -5 -98 -42.5t-28 -110.5v-27h109v-38h-109v-442h-41v442h-54v38h54v33q0 36 6 63.5t22.5 55.5t51.5 45t87 21z" />
    <glyph glyph-name="g" unicode="g" horiz-adv-x="490" 
d="M406 330q0 -156 -170 -156q-27 0 -56 5q-62 -37 -62 -85q0 -36 44 -36q30 0 87.5 14t86.5 14q51 0 85 -28t34 -75q0 -76 -69 -124.5t-152 -48.5q-74 0 -133 32.5t-59 94.5q0 15 5 32l38 -13q-2 -12 -2 -18q0 -43 49.5 -67t99.5 -24q64 0 123 36.5t59 98.5q0 33 -24.5 50
t-56.5 17q-29 0 -83.5 -12t-82.5 -12q-37 0 -61 16.5t-24 46.5q0 60 65 105q-80 37 -80 138q0 157 169 157q82 0 124 -37q44 14 49 52h39q-5 -59 -64 -81q22 -43 22 -92zM366 331q0 119 -129 119t-129 -119q0 -60 33.5 -91t94.5 -31q63 0 96.5 30.5t33.5 91.5z" />
    <glyph glyph-name="h" unicode="h" horiz-adv-x="506" 
d="M448 275v-275h-41v275q0 82 -34.5 127.5t-118.5 45.5q-52 0 -97 -34.5t-45 -84.5v-329h-43v698h43v-288q22 40 62.5 60t82.5 20q191 0 191 -215z" />
    <glyph glyph-name="i" unicode="i" horiz-adv-x="211" 
d="M145 663q0 -16 -11.5 -27.5t-27.5 -11.5t-27.5 11.5t-11.5 27.5q0 17 11.5 28t27.5 11t27.5 -11.5t11.5 -27.5zM127 480v-480h-43v480h43z" />
    <glyph glyph-name="j" unicode="j" horiz-adv-x="205" 
d="M143 663q0 -16 -12 -27.5t-28 -11.5t-27.5 11.5t-11.5 27.5q0 17 11 28t28 11t28.5 -11.5t11.5 -27.5zM124 480v-508q0 -181 -165 -191l-7 39q129 8 129 153v507h43z" />
    <glyph glyph-name="k" unicode="k" horiz-adv-x="428" 
d="M167 255l238 -255h-52l-236 254l202 226h48zM110 698v-698h-41v698h41z" />
    <glyph glyph-name="l" unicode="l" horiz-adv-x="210" 
d="M174 39l1 -38q-106 6 -106 108v589h41v-589q0 -64 64 -70z" />
    <glyph glyph-name="m" unicode="m" horiz-adv-x="773" 
d="M714 273v-273h-42v273q0 79 -27.5 126.5t-103.5 47.5q-130 0 -130 -177v-270h-42v273q0 29 -3 52t-11.5 47t-23 39.5t-38.5 25.5t-57 10q-46 0 -85.5 -34.5t-39.5 -78.5v-334h-42v480h38l1 -72q20 41 57 61t74 20q115 0 153 -108q36 108 149 108q173 0 173 -216z" />
    <glyph glyph-name="n" unicode="n" horiz-adv-x="508" 
d="M448 273v-273h-41v272q0 83 -34.5 129t-118.5 46q-59 0 -100.5 -38.5t-41.5 -85.5v-323h-43v480h39l1 -72q24 42 64 61.5t82 19.5q193 0 193 -216z" />
    <glyph glyph-name="o" unicode="o" horiz-adv-x="493" 
d="M450 239q0 -248 -203 -248t-203 248q0 250 203 250t203 -250zM407 239q0 44 -6.5 78t-22.5 65.5t-49.5 48.5t-81.5 17q-49 0 -82 -17t-49.5 -48.5t-22.5 -65.5t-6 -78t6 -77t22.5 -64.5t49.5 -48.5t81 -17t81.5 17t50 48t23 65t6.5 77z" />
    <glyph glyph-name="p" unicode="p" horiz-adv-x="492" 
d="M448 240q0 -248 -194 -248q-93 0 -142 79v-291h-43v700h39l1 -77q25 46 65 67t81 21q193 0 193 -251zM407 240q0 32 -3 58.5t-12.5 55.5t-26 48.5t-45 32.5t-66.5 13q-55 0 -98.5 -40.5t-43.5 -87.5v-158q0 -49 43 -89t99 -40q153 0 153 207z" />
    <glyph glyph-name="q" unicode="q" horiz-adv-x="494" 
d="M400 487l38 -10l-15 -74v-623h-43v287q-53 -75 -141 -75q-196 0 -196 249q0 250 194 250q96 0 148 -77zM380 163v157q0 53 -42.5 91t-99.5 38q-47 0 -79 -18t-47 -51t-20.5 -65.5t-5.5 -74.5t5.5 -74.5t20.5 -64.5t47.5 -50t79.5 -18q57 0 99 38.5t42 91.5z" />
    <glyph glyph-name="r" unicode="r" horiz-adv-x="379" 
d="M345 471l-19 -37q-39 13 -67 13q-58 0 -102.5 -37.5t-44.5 -89.5v-320h-43v480h40v-78q47 85 150 85q47 0 86 -16z" />
    <glyph glyph-name="s" unicode="s" horiz-adv-x="450" 
d="M412 132q0 -65 -53 -103t-125 -38q-73 0 -124.5 29.5t-67.5 91.5l39 9q26 -91 153 -91q51 0 93 25t42 76q0 41 -32 64.5t-78.5 34t-92.5 22t-78 39.5t-32 75q0 60 47 91t115 31q119 0 170 -86l-35 -18q-38 64 -133 64q-28 0 -52.5 -5.5t-46.5 -25t-22 -51.5
q0 -35 32 -55.5t78.5 -30.5t92.5 -22.5t78 -43.5t32 -82z" />
    <glyph glyph-name="t" unicode="t" horiz-adv-x="280" 
d="M235 480v-38h-86v-331q0 -40 16 -55.5t55 -17.5v-38h-15q-50 0 -74.5 29t-24.5 80v333h-75v38h75v146h43v-146h86z" />
    <glyph glyph-name="u" unicode="u" horiz-adv-x="503" 
d="M438 480v-480h-38v67q-60 -75 -147 -75q-102 0 -148 51.5t-46 156.5v280h43v-278q0 -84 33 -126.5t118 -42.5q51 0 97.5 33t46.5 85v329h41z" />
    <glyph glyph-name="v" unicode="v" horiz-adv-x="459" 
d="M388 480h47l-182 -480h-48l-181 480h46l159 -430z" />
    <glyph glyph-name="w" unicode="w" horiz-adv-x="737" 
d="M670 480h44l-152 -480h-46l-149 423l-148 -423h-47l-149 480h45l128 -425l149 425h45l148 -426z" />
    <glyph glyph-name="x" unicode="x" horiz-adv-x="449" 
d="M249 248l172 -248h-51l-146 212l-145 -212h-52l172 248l-163 232h53l135 -196l135 196h51z" />
    <glyph glyph-name="y" unicode="y" horiz-adv-x="459" 
d="M390 480h45l-230 -604q-37 -97 -137 -96h-10v38h10q71 0 98 71l41 108l-183 483h45l160 -427z" />
    <glyph glyph-name="z" unicode="z" horiz-adv-x="454" 
d="M408 41v-41h-367v47l317 393h-294v40h344v-44l-320 -395h320z" />
    <glyph glyph-name="braceleft" unicode="{" horiz-adv-x="342" 
d="M50 370q39 -1 61 11.5t27.5 39.5t5 51.5t-5 62.5t-4.5 58q0 85 35.5 126.5t122.5 41.5v-40q-63 0 -89 -30.5t-26 -98.5q0 -19 4.5 -55t5 -61.5t-3.5 -54t-23 -47t-53 -25.5q34 -7 53 -25.5t23 -47t3.5 -54t-5 -61.5t-4.5 -55q0 -68 26 -98.5t89 -30.5v-40
q-87 0 -122.5 41.5t-35.5 126.5q0 20 4.5 58t5 62.5t-5 51.5t-27.5 39.5t-61 11.5v42z" />
    <glyph glyph-name="bar" unicode="|" horiz-adv-x="231" 
d="M135 774v-850h-39v850h39z" />
    <glyph glyph-name="braceright" unicode="}" horiz-adv-x="342" 
d="M292 370v-42q-39 1 -61 -11.5t-27.5 -39.5t-5 -51.5t5 -62.5t4.5 -58q0 -85 -35.5 -126.5t-122.5 -41.5v40q63 0 89 30.5t26 98.5q0 19 -4.5 55t-5 61.5t3.5 54t23 47t53 25.5q-34 7 -53 25.5t-23 47t-3.5 54t5 61.5t4.5 55q0 68 -26 98.5t-89 30.5v40q87 0 122.5 -41.5
t35.5 -126.5q0 -20 -4.5 -58t-5 -62.5t5 -51.5t27.5 -39.5t61 -11.5z" />
    <glyph glyph-name="asciitilde" unicode="~" horiz-adv-x="473" 
d="M392 330l28 -26q-49 -60 -99 -60q-39 0 -88.5 35t-81.5 35q-37 0 -70 -45l-28 26q43 58 98 58q39 0 88 -34.5t81 -34.5q43 0 72 46z" />
    <glyph glyph-name="nbspace" unicode="&#xa0;" horiz-adv-x="137" 
 />
    <glyph glyph-name="exclamdown" unicode="&#xa1;" horiz-adv-x="293" 
d="M184 441q0 -18 -11.5 -30t-28.5 -12t-29 12t-12 30q0 17 12 28.5t29 11.5q16 0 28 -11.5t12 -28.5zM159 289l13 -185v-330h-57v330l13 185h31z" />
    <glyph glyph-name="cent" unicode="&#xa2;" horiz-adv-x="476" 
d="M395 91l31 -28q-37 -37 -72.5 -53t-86.5 -16q-32 0 -69 11l-19 -88l-25 5l20 90q-64 31 -94 92t-30 136q0 109 57 177.5t169 69.5l17 75l24 -4l-15 -75q70 -10 124 -66l-31 -27q-43 45 -102 55l-87 -401q34 -12 64 -12q70 1 125 59zM182 52l86 397q-173 -10 -173 -209
q0 -61 17.5 -107t69.5 -81z" />
    <glyph glyph-name="sterling" unicode="&#xa3;" horiz-adv-x="512" 
d="M459 41v-41h-369v38q47 94 47 172q0 46 -15 119h-75l8 40h58q-19 92 -19 133q0 88 49 144t137 56q60 0 99.5 -18.5t80.5 -62.5l-33 -27q-32 35 -65 51t-82 16q-72 0 -107.5 -45t-35.5 -115q0 -27 19 -132h131l-9 -40h-113q15 -72 15 -121q0 -72 -39 -167h318z" />
    <glyph glyph-name="currency" unicode="&#xa4;" horiz-adv-x="607" 
d="M540 94l26 -35q-69 -68 -173 -68q-109 0 -180 68.5t-91 184.5h-74l8 36h61q-4 46 -2 105h-67l8 36h63q13 127 81.5 206.5t192.5 79.5q103 0 173 -67l-27 -35q-63 57 -146 57q-102 0 -159 -66t-69 -175h254l-8 -36h-251q0 -69 3 -105h256l-8 -36h-243q19 -96 77 -152
t148 -56q85 0 147 58z" />
    <glyph glyph-name="yen" unicode="&#xa5;" horiz-adv-x="576" 
d="M495 698h45l-163 -330h97l-8 -37h-107l-50 -101h165l-8 -36h-157v-194h-41v194h-166l8 36h158l-51 101h-115l8 37h90l-164 330h46l206 -419z" />
    <glyph glyph-name="brokenbar" unicode="&#xa6;" horiz-adv-x="290" 
d="M164 775v-372h-37v372h37zM164 296v-371h-37v371h37z" />
    <glyph glyph-name="section" unicode="&#xa7;" horiz-adv-x="519" 
d="M455 223q0 -87 -66 -142q45 -44 45 -107q0 -76 -48.5 -124.5t-126.5 -48.5q-109 0 -180 128l37 19q58 -106 143 -106q60 0 96 37.5t36 94.5q0 30 -10.5 50.5t-33.5 33.5t-41 19.5t-51 14.5q-90 23 -140 63.5t-50 118.5q0 88 67 142q-46 46 -46 108q0 75 48.5 123.5
t126.5 48.5q109 0 180 -127l-37 -19q-58 105 -143 105q-60 0 -96 -37t-36 -94q0 -30 10.5 -51t33 -34t40.5 -19.5t51 -14.5q90 -22 140.5 -62.5t50.5 -119.5zM413 223q0 33 -13.5 58.5t-38.5 41.5t-49.5 25.5t-58.5 17.5q-49 12 -84 28q-62 -40 -62 -120q0 -62 44 -93.5
t116 -49.5q46 -10 84 -27q62 39 62 119z" />
    <glyph glyph-name="dieresis" unicode="&#xa8;" horiz-adv-x="487" 
d="M372 581q0 -17 -11 -28t-27 -11t-27.5 11.5t-11.5 27.5t11.5 27.5t27.5 11.5t27 -11.5t11 -27.5zM193 581q0 -16 -11.5 -27.5t-27.5 -11.5t-27.5 11t-11.5 28q0 16 11.5 27.5t27.5 11.5t27.5 -11.5t11.5 -27.5z" />
    <glyph glyph-name="copyright" unicode="&#xa9;" horiz-adv-x="793" 
d="M747 348q0 -145 -103 -247.5t-248 -102.5t-247.5 102.5t-102.5 247.5t102.5 248t247.5 103q146 0 248.5 -102.5t102.5 -248.5zM715 348q0 132 -93.5 225.5t-225.5 93.5q-131 0 -224.5 -93.5t-93.5 -225.5t93.5 -225t224.5 -93q132 0 225.5 93t93.5 225zM487 231l24 -21
q-46 -52 -108 -52q-76 0 -112.5 54t-36.5 136q0 83 36.5 137t112.5 54q63 0 108 -51l-24 -22q-37 40 -84 40q-34 0 -57.5 -14.5t-35 -39t-16.5 -50t-5 -54.5t5 -54t16.5 -49.5t35 -39t57.5 -14.5q47 0 84 40z" />
    <glyph glyph-name="ordfeminine" unicode="&#xaa;" horiz-adv-x="400" 
d="M344 354l12 -32l-36 -11l-15 35q-58 -42 -120 -42q-61 0 -100.5 30.5t-39.5 86.5q0 53 37.5 83t96.5 31h59q46 0 66 19v39q0 34 -29.5 55t-64.5 21q-81 0 -108 -61l-37 11q39 88 147 88q51 0 91.5 -32t40.5 -79v-242zM264 233v-34h-127v34h127zM304 394v120
q-31 -14 -58 -14h-67q-39 0 -67 -20t-28 -58q0 -40 29.5 -60.5t71.5 -20.5q65 0 119 53z" />
    <glyph glyph-name="guillemotleft" unicode="&#xab;" 
d="M48 234v45l194 187v-52l-164 -157l164 -158v-52zM234 234v45l194 187v-52l-164 -157l164 -158v-52z" />
    <glyph glyph-name="logicalnot" unicode="&#xac;" horiz-adv-x="509" 
d="M455 285v-186h-33v152h-376v34h409z" />
    <glyph glyph-name="uni00AD" unicode="&#xad;" horiz-adv-x="392" 
d="M327 293v-40h-263v40h263z" />
    <glyph glyph-name="registered" unicode="&#xae;" horiz-adv-x="793" 
d="M747 348q0 -145 -103 -247.5t-248 -102.5t-247.5 102.5t-102.5 247.5t102.5 248t247.5 103q146 0 248.5 -102.5t102.5 -248.5zM715 348q0 132 -93.5 225.5t-225.5 93.5q-131 0 -224.5 -93.5t-93.5 -225.5t93.5 -225t224.5 -93q132 0 225.5 93t93.5 225zM538 165h-40
l-71 120q-25 44 -59 44h-55v-164h-33v367h128q55 0 87.5 -26t32.5 -77q0 -39 -25 -68t-71 -31q26 -29 106 -165zM495 429q0 71 -87 71h-95v-145h95q87 0 87 74z" />
    <glyph glyph-name="macron" unicode="&#xaf;" horiz-adv-x="494" 
d="M380 592v-41h-266v41h266z" />
    <glyph glyph-name="degree" unicode="&#xb0;" horiz-adv-x="287" 
d="M237 661q0 -39 -27.5 -66.5t-66.5 -27.5q-38 0 -66 27.5t-28 66.5q0 38 28 65.5t66 27.5q39 0 66.5 -27.5t27.5 -65.5zM212 661q0 28 -20.5 48t-48.5 20t-48 -20t-20 -48t20 -48.5t48 -20.5t48.5 20.5t20.5 48.5z" />
    <glyph glyph-name="plusminus" unicode="&#xb1;" horiz-adv-x="518" 
d="M462 308v-40h-183v-181h-41v181h-182v40h182v181h41v-181h183zM462 38v-38h-406v38h406z" />
    <glyph glyph-name="twosuperior" unicode="&#xb2;" horiz-adv-x="349" 
d="M312 287v-27h-274v23q14 55 43.5 96.5t61 64.5l61.5 44t49 46.5t19 58.5q0 42 -31 65.5t-74 23.5q-66 0 -99 -59l-24 14q41 71 123 71q59 0 96 -30.5t37 -85.5q0 -37 -19 -66t-48.5 -50.5l-60.5 -44t-59.5 -59.5t-41.5 -85h241z" />
    <glyph glyph-name="threesuperior" unicode="&#xb3;" horiz-adv-x="327" 
d="M295 382q0 -58 -38.5 -92t-96.5 -34q-97 0 -127 80l26 9q12 -31 39.5 -47t61.5 -16q45 0 76 27.5t31 72.5q0 49 -31 73.5t-81 24.5v22q46 2 73.5 24t27.5 66q0 39 -30 65t-70 26q-31 0 -56.5 -16t-38.5 -43l-24 10q33 74 121 74q53 0 89 -32t36 -84q0 -76 -70 -100
q82 -26 82 -110z" />
    <glyph glyph-name="acute" unicode="&#xb4;" horiz-adv-x="291" 
d="M158 682h59l-100 -148h-43z" />
    <glyph glyph-name="mu" unicode="&#xb5;" horiz-adv-x="519" 
d="M448 480v-480h-39v65q-63 -71 -146 -71q-110 0 -154 84v-273h-40v675h40v-272q0 -84 34 -130t120 -46q52 0 99 33t47 84v331h39z" />
    <glyph glyph-name="mu" unicode="&#x3bc;" horiz-adv-x="519" 
d="M448 480v-480h-39v65q-63 -71 -146 -71q-110 0 -154 84v-273h-40v675h40v-272q0 -84 34 -130t120 -46q52 0 99 33t47 84v331h39z" />
    <glyph glyph-name="paragraph" unicode="&#xb6;" horiz-adv-x="480" 
d="M393 698v-849h-42v806h-54v-806h-41v469q-87 1 -144 56t-57 134t57 134.5t139 55.5h142z" />
    <glyph glyph-name="periodcentered" unicode="&#xb7;" horiz-adv-x="233" 
d="M166 265q0 -21 -14.5 -35.5t-35.5 -14.5t-35.5 14.5t-14.5 35.5t14.5 35.5t35.5 14.5t35.5 -14.5t14.5 -35.5z" />
    <glyph glyph-name="periodcentered" unicode="&#x2219;" horiz-adv-x="233" 
d="M166 265q0 -21 -14.5 -35.5t-35.5 -14.5t-35.5 14.5t-14.5 35.5t14.5 35.5t35.5 14.5t35.5 -14.5t14.5 -35.5z" />
    <glyph glyph-name="cedilla" unicode="&#xb8;" horiz-adv-x="491" 
d="M267 22l40 -91l-72 -128h-56l92 131l-35 76z" />
    <glyph glyph-name="onesuperior" unicode="&#xb9;" horiz-adv-x="229" 
d="M150 703v-443h-29v407l-77 -55l-15 20l96 71h25z" />
    <glyph glyph-name="ordmasculine" unicode="&#xba;" horiz-adv-x="427" 
d="M380 505q0 -201 -166 -201q-167 0 -167 201q0 202 167 202q166 0 166 -202zM277 233v-34h-126v34h126zM340 505q0 34 -5 60t-17.5 50.5t-39 38t-64.5 13.5q-74 0 -100.5 -44.5t-26.5 -117.5q0 -34 5 -60t17.5 -50.5t39 -38t65.5 -13.5q38 0 64.5 13.5t39 38t17.5 50.5
t5 60z" />
    <glyph glyph-name="guillemotright" unicode="&#xbb;" 
d="M428 279v-45l-194 -187v52l164 158l-164 157v52zM242 279v-45l-194 -187v52l164 158l-164 157v52z" />
    <glyph glyph-name="onequarter" unicode="&#xbc;" horiz-adv-x="750" 
d="M710 142v-31h-29v-111h-31v111h-183v33l173 280h37l-175 -282h153l1 158l25 -5v-153h29zM495 698h33l-305 -698h-33zM174 704v-424h-30v380l-84 -49l-15 25l113 68h16z" />
    <glyph glyph-name="onehalf" unicode="&#xbd;" horiz-adv-x="788" 
d="M735 31v-31h-236v31q33 85 102 153q60 57 81.5 86t21.5 55q0 37 -26 53.5t-55 16.5q-52 0 -84 -56l-28 14q41 72 112 72q45 0 78.5 -27t33.5 -73q0 -32 -22.5 -65t-86.5 -95q-50 -46 -93 -134h202zM495 698h32l-304 -698h-33zM174 704v-424h-30v380l-84 -49l-15 25
l114 68h15z" />
    <glyph glyph-name="threequarters" unicode="&#xbe;" horiz-adv-x="831" 
d="M792 142v-31h-29v-111h-32v111h-183v33l174 280h36l-174 -282h152l1 158l26 -5v-153h29zM577 698h33l-306 -698h-32zM293 392q0 -50 -36.5 -85.5t-88.5 -35.5q-40 0 -71.5 21.5t-45.5 58.5l30 10q11 -26 34.5 -42.5t52.5 -16.5q39 0 66.5 26.5t27.5 63.5q0 38 -27.5 65
t-66.5 27h-15v28h11q37 0 63 24t26 58t-26 57.5t-63 23.5q-27 0 -49.5 -15t-33.5 -39l-30 11q14 34 45 54t68 20q50 0 85.5 -33t35.5 -79q0 -53 -59 -95q67 -44 67 -107z" />
    <glyph glyph-name="questiondown" unicode="&#xbf;" horiz-adv-x="480" 
d="M35 -54q1 -82 57.5 -130.5t142.5 -50.5q80 0 139 46t63 124h-41q-4 -60 -52.5 -94.5t-109.5 -34.5q-67 0 -112 38t-44 102q0 11 1 20.5t5 18.5t6 14.5t9.5 13t10 10.5t14 10.5t13.5 9t16 9.5t16 9q27 17 42.5 30.5t29.5 44.5t14 75l-5 80h-28l-4 -79q-1 -47 -23 -77
t-73 -58q-20 -11 -32.5 -20t-26.5 -24.5t-21 -37t-7 -49.5zM275 440q0 -17 -12 -28.5t-29 -11.5t-28.5 11.5t-11.5 28.5t11.5 29t28.5 12t29 -12t12 -29z" />
    <glyph glyph-name="Agrave" unicode="&#xc0;" horiz-adv-x="624" 
d="M342 698l268 -698h-48l-81 214h-338l-82 -214h-47l268 698h60zM158 254h307l-154 401zM241 903l84 -148h-43l-100 148h59z" />
    <glyph glyph-name="Aacute" unicode="&#xc1;" horiz-adv-x="624" 
d="M342 698l268 -698h-48l-81 214h-338l-82 -214h-47l268 698h60zM158 254h307l-154 401zM381 903h59l-99 -148h-44z" />
    <glyph glyph-name="Acircumflex" unicode="&#xc2;" horiz-adv-x="624" 
d="M342 698l268 -698h-48l-81 214h-338l-82 -214h-47l268 698h60zM158 254h307l-154 401zM335 902l104 -147h-52l-77 119l-75 -119h-51l103 147h48z" />
    <glyph glyph-name="Atilde" unicode="&#xc3;" horiz-adv-x="624" 
d="M342 698l268 -698h-48l-81 214h-338l-82 -214h-47l268 698h60zM158 254h307l-154 401zM423 833l27 -26q-36 -52 -78 -52q-31 0 -64.5 28.5t-54.5 28.5q-28 0 -53 -36l-27 26q35 51 79 51q31 0 63.5 -28t54.5 -28q30 0 53 36z" />
    <glyph glyph-name="Adieresis" unicode="&#xc4;" horiz-adv-x="624" 
d="M342 698l268 -698h-48l-81 214h-338l-82 -214h-47l268 698h60zM158 254h307l-154 401zM440 802q0 -16 -11 -27.5t-27 -11.5t-27.5 11.5t-11.5 27.5t11.5 27.5t27.5 11.5t27 -11.5t11 -27.5zM260 802q0 -16 -11 -27.5t-28 -11.5q-16 0 -27 11.5t-11 27.5t11 27.5t27 11.5
t27.5 -11.5t11.5 -27.5z" />
    <glyph glyph-name="Aring" unicode="&#xc5;" horiz-adv-x="624" 
d="M342 698l268 -698h-48l-81 214h-338l-82 -214h-47l268 698h60zM158 254h307l-154 401zM410 855q0 -40 -29 -69t-69 -29t-69 29t-29 69q0 41 29 69.5t69 28.5t69 -28.5t29 -69.5zM369 855q0 24 -16.5 41t-40.5 17t-41 -17t-17 -41t17 -41t41 -17t40.5 17t16.5 41z" />
    <glyph glyph-name="AE" unicode="&#xc6;" horiz-adv-x="911" 
d="M865 44v-44h-409l1 214h-267l-121 -214h-50l397 698h449v-44h-363v-269h315v-44h-315v-297h363zM213 254h244v395h-18z" />
    <glyph glyph-name="Ccedilla" unicode="&#xc7;" horiz-adv-x="591" 
d="M506 126l33 -27q-85 -100 -189 -106l31 -71l-63 -119h-52l81 122l-30 67q-72 3 -125.5 33t-83.5 81t-44 111.5t-14 131.5q0 73 15 134.5t46.5 113t87 81t130.5 29.5q68 0 116 -26.5t94 -81.5l-33 -27q-40 46 -79.5 68t-97.5 22q-68 0 -116 -27.5t-72.5 -75t-35 -99
t-10.5 -111.5q0 -47 6 -89t22 -84t41.5 -72t67.5 -49t97 -19q58 0 98 22t79 68z" />
    <glyph glyph-name="Egrave" unicode="&#xc8;" horiz-adv-x="565" 
d="M515 44v-44h-441v698h441v-44h-395v-271h345v-42h-345v-297h395zM270 903l84 -148h-44l-99 148h59z" />
    <glyph glyph-name="Eacute" unicode="&#xc9;" horiz-adv-x="565" 
d="M515 44v-44h-441v698h441v-44h-395v-271h345v-42h-345v-297h395zM295 903h59l-99 -148h-44z" />
    <glyph glyph-name="Ecircumflex" unicode="&#xca;" horiz-adv-x="565" 
d="M515 44v-44h-441v698h441v-44h-395v-271h345v-42h-345v-297h395zM325 902l104 -147h-53l-76 119l-76 -119h-51l103 147h49z" />
    <glyph glyph-name="Edieresis" unicode="&#xcb;" horiz-adv-x="565" 
d="M515 44v-44h-441v698h441v-44h-395v-271h345v-42h-345v-297h395zM411 802q0 -16 -11.5 -27.5t-27.5 -11.5t-27.5 11.5t-11.5 27.5t11.5 27.5t27.5 11.5t27.5 -11.5t11.5 -27.5zM231 802q0 -16 -11.5 -27.5t-27.5 -11.5t-27.5 11.5t-11.5 27.5t11.5 27.5t27.5 11.5
t27.5 -11.5t11.5 -27.5z" />
    <glyph glyph-name="Igrave" unicode="&#xcc;" horiz-adv-x="230" 
d="M137 698v-698h-45v698h45zM52 903l84 -148h-44l-99 148h59z" />
    <glyph glyph-name="Iacute" unicode="&#xcd;" horiz-adv-x="230" 
d="M137 698v-698h-45v698h45zM170 903h59l-99 -148h-44z" />
    <glyph glyph-name="Icircumflex" unicode="&#xce;" horiz-adv-x="230" 
d="M137 698v-698h-45v698h45zM139 902l104 -147h-52l-76 119l-76 -119h-51l103 147h48z" />
    <glyph glyph-name="Idieresis" unicode="&#xcf;" horiz-adv-x="230" 
d="M137 698v-698h-45v698h45zM244 802q0 -16 -11 -27.5t-27 -11.5t-27.5 11.5t-11.5 27.5t11.5 27.5t27.5 11.5t27 -11.5t11 -27.5zM64 802q0 -16 -11 -27.5t-28 -11.5q-16 0 -27 11.5t-11 27.5t11 27.5t27 11.5t27.5 -11.5t11.5 -27.5z" />
    <glyph glyph-name="Eth" unicode="&#xd0;" horiz-adv-x="657" 
d="M586 349q0 -106 -8 -162q-7 -47 -24.5 -81.5t-41 -54.5t-59.5 -31.5t-71.5 -15.5t-83.5 -4h-205v327h-44v40h44v331h205q48 0 83.5 -4t71.5 -15.5t59.5 -31.5t41 -54t24.5 -81q8 -56 8 -163zM541 349q0 99 -8 155q-6 41 -21.5 69.5t-35.5 44t-52 24t-59 10.5t-68 2h-159
v-287h163v-40h-163v-282h160q42 0 68.5 2t58.5 10.5t51.5 23.5t35 43.5t21.5 69.5q8 57 8 155z" />
    <glyph glyph-name="Ntilde" unicode="&#xd1;" horiz-adv-x="625" 
d="M551 698v-698h-49l-382 622v-622h-46v698h50l381 -622v622h46zM424 833l27 -26q-36 -52 -79 -52q-30 0 -63 28.5t-55 28.5q-28 0 -53 -36l-27 26q35 51 79 51q31 0 64 -28t54 -28q30 0 53 36z" />
    <glyph glyph-name="Ograve" unicode="&#xd2;" horiz-adv-x="640" 
d="M596 349q0 -72 -14.5 -133.5t-45 -113.5t-86 -81.5t-130.5 -29.5t-130 29.5t-86 81.5t-45.5 113.5t-14.5 133.5t14.5 133.5t45.5 113.5t86 81.5t130 29.5t130.5 -29.5t86 -81.5t45 -113.5t14.5 -133.5zM551 349q0 47 -5.5 88.5t-21.5 84t-41 72.5t-66.5 49t-96.5 19
t-96.5 -19t-66.5 -49t-40.5 -73t-21 -84t-5.5 -88t5.5 -88t21 -84t40.5 -73t66.5 -49t96.5 -19t96.5 19t66.5 49t41 72.5t21.5 84t5.5 88.5zM307 903l84 -148h-43l-100 148h59z" />
    <glyph glyph-name="Oacute" unicode="&#xd3;" horiz-adv-x="640" 
d="M596 349q0 -72 -14.5 -133.5t-45 -113.5t-86 -81.5t-130.5 -29.5t-130 29.5t-86 81.5t-45.5 113.5t-14.5 133.5t14.5 133.5t45.5 113.5t86 81.5t130 29.5t130.5 -29.5t86 -81.5t45 -113.5t14.5 -133.5zM551 349q0 47 -5.5 88.5t-21.5 84t-41 72.5t-66.5 49t-96.5 19
t-96.5 -19t-66.5 -49t-40.5 -73t-21 -84t-5.5 -88t5.5 -88t21 -84t40.5 -73t66.5 -49t96.5 -19t96.5 19t66.5 49t41 72.5t21.5 84t5.5 88.5zM333 903h58l-99 -148h-44z" />
    <glyph glyph-name="Ocircumflex" unicode="&#xd4;" horiz-adv-x="640" 
d="M596 349q0 -72 -14.5 -133.5t-45 -113.5t-86 -81.5t-130.5 -29.5t-130 29.5t-86 81.5t-45.5 113.5t-14.5 133.5t14.5 133.5t45.5 113.5t86 81.5t130 29.5t130.5 -29.5t86 -81.5t45 -113.5t14.5 -133.5zM551 349q0 47 -5.5 88.5t-21.5 84t-41 72.5t-66.5 49t-96.5 19
t-96.5 -19t-66.5 -49t-40.5 -73t-21 -84t-5.5 -88t5.5 -88t21 -84t40.5 -73t66.5 -49t96.5 -19t96.5 19t66.5 49t41 72.5t21.5 84t5.5 88.5zM344 902l104 -147h-52l-77 119l-75 -119h-52l103 147h49z" />
    <glyph glyph-name="Otilde" unicode="&#xd5;" horiz-adv-x="640" 
d="M596 349q0 -72 -14.5 -133.5t-45 -113.5t-86 -81.5t-130.5 -29.5t-130 29.5t-86 81.5t-45.5 113.5t-14.5 133.5t14.5 133.5t45.5 113.5t86 81.5t130 29.5t130.5 -29.5t86 -81.5t45 -113.5t14.5 -133.5zM551 349q0 47 -5.5 88.5t-21.5 84t-41 72.5t-66.5 49t-96.5 19
t-96.5 -19t-66.5 -49t-40.5 -73t-21 -84t-5.5 -88t5.5 -88t21 -84t40.5 -73t66.5 -49t96.5 -19t96.5 19t66.5 49t41 72.5t21.5 84t5.5 88.5zM431 833l28 -26q-36 -52 -79 -52q-30 0 -63.5 28.5t-55.5 28.5q-27 0 -52 -36l-27 26q33 51 78 51q31 0 64.5 -28t54.5 -28
q29 0 52 36z" />
    <glyph glyph-name="Odieresis" unicode="&#xd6;" horiz-adv-x="640" 
d="M596 349q0 -72 -14.5 -133.5t-45 -113.5t-86 -81.5t-130.5 -29.5t-130 29.5t-86 81.5t-45.5 113.5t-14.5 133.5t14.5 133.5t45.5 113.5t86 81.5t130 29.5t130.5 -29.5t86 -81.5t45 -113.5t14.5 -133.5zM551 349q0 47 -5.5 88.5t-21.5 84t-41 72.5t-66.5 49t-96.5 19
t-96.5 -19t-66.5 -49t-40.5 -73t-21 -84t-5.5 -88t5.5 -88t21 -84t40.5 -73t66.5 -49t96.5 -19t96.5 19t66.5 49t41 72.5t21.5 84t5.5 88.5zM449 802q0 -16 -11 -27.5t-27 -11.5q-17 0 -28.5 11.5t-11.5 27.5t12 27.5t28 11.5t27 -11.5t11 -27.5zM269 802q0 -16 -11.5 -27.5
t-27.5 -11.5t-27 11t-11 28q0 16 11 27.5t27 11.5t27.5 -11.5t11.5 -27.5z" />
    <glyph glyph-name="multiply" unicode="&#xd7;" horiz-adv-x="445" 
d="M251 274l129 -130l-28 -28l-130 129l-129 -129l-29 28l130 130l-130 129l29 29l129 -130l130 130l28 -29z" />
    <glyph glyph-name="Oslash" unicode="&#xd8;" horiz-adv-x="640" 
d="M596 349q0 -72 -14.5 -133.5t-45 -113.5t-86 -81.5t-130.5 -29.5q-84 0 -155 47l-21 -40h-42l34 63q-92 101 -92 288q0 72 14.5 133.5t45.5 113.5t86 81.5t130 29.5q80 0 151 -43l19 36h42l-32 -58q96 -101 96 -293zM551 349q0 159 -74 250l-290 -521q58 -42 133 -42
q55 0 96.5 19t66.5 49t41 72.5t21.5 84t5.5 88.5zM159 104l290 520q-56 38 -129 38q-55 0 -96.5 -19t-66.5 -49t-40.5 -72.5t-21 -84t-5.5 -88.5q0 -154 69 -245z" />
    <glyph glyph-name="Ugrave" unicode="&#xd9;" horiz-adv-x="637" 
d="M569 698v-401q0 -145 -57.5 -225.5t-192.5 -80.5q-250 0 -250 306v401h45v-399q0 -56 8.5 -99t29.5 -82.5t63 -60.5t104 -21q50 0 87 15t59 38.5t35.5 59t18 71t4.5 79.5v399h46zM305 903l85 -148h-44l-99 148h58z" />
    <glyph glyph-name="Uacute" unicode="&#xda;" horiz-adv-x="637" 
d="M569 698v-401q0 -145 -57.5 -225.5t-192.5 -80.5q-250 0 -250 306v401h45v-399q0 -56 8.5 -99t29.5 -82.5t63 -60.5t104 -21q50 0 87 15t59 38.5t35.5 59t18 71t4.5 79.5v399h46zM331 903h59l-100 -148h-43z" />
    <glyph glyph-name="Ucircumflex" unicode="&#xdb;" horiz-adv-x="637" 
d="M569 698v-401q0 -145 -57.5 -225.5t-192.5 -80.5q-250 0 -250 306v401h45v-399q0 -56 8.5 -99t29.5 -82.5t63 -60.5t104 -21q50 0 87 15t59 38.5t35.5 59t18 71t4.5 79.5v399h46zM342 902l104 -147h-52l-76 119l-76 -119h-51l103 147h48z" />
    <glyph glyph-name="Udieresis" unicode="&#xdc;" horiz-adv-x="637" 
d="M569 698v-401q0 -145 -57.5 -225.5t-192.5 -80.5q-250 0 -250 306v401h45v-399q0 -56 8.5 -99t29.5 -82.5t63 -60.5t104 -21q50 0 87 15t59 38.5t35.5 59t18 71t4.5 79.5v399h46zM447 802q0 -16 -11 -27.5t-27 -11.5q-17 0 -28 11.5t-11 27.5t11.5 27.5t27.5 11.5
t27 -11.5t11 -27.5zM267 802q0 -16 -11.5 -27.5t-27.5 -11.5t-27 11.5t-11 27.5t11 27.5t27 11.5t27.5 -11.5t11.5 -27.5z" />
    <glyph glyph-name="Yacute" unicode="&#xdd;" horiz-adv-x="566" 
d="M487 698h50l-231 -467v-231h-45v231l-231 467h50l203 -415zM296 903h58l-99 -148h-44z" />
    <glyph glyph-name="Thorn" unicode="&#xde;" horiz-adv-x="625" 
d="M577 361q0 -189 -230 -189h-210v-172h-46v698h46v-148h210q230 0 230 -189zM531 361q0 43 -14.5 73t-41 45t-57 21t-71.5 6h-210v-290h210q86 0 135 31t49 114z" />
    <glyph glyph-name="germandbls" unicode="&#xdf;" horiz-adv-x="619" 
d="M580 132q0 -65 -52.5 -103t-124.5 -38q-74 0 -125.5 29.5t-66.5 91.5l39 9q25 -91 153 -91q51 0 93 25t42 76q0 41 -32 64.5t-78 34l-92.5 22t-78.5 39.5t-32 75q0 56 41.5 86t103.5 33q-1 73 -30.5 123t-99.5 50q-50 0 -80.5 -29t-40 -66t-9.5 -85v-478h-41v480
q0 96 41 158t130 62q87 0 128.5 -60t43.5 -153q99 -8 144 -85l-35 -18q-38 64 -133 64q-28 0 -52.5 -5.5t-46.5 -25t-22 -51.5q0 -35 32 -55.5t78.5 -30.5t92.5 -22.5t78 -43.5t32 -82z" />
    <glyph glyph-name="agrave" unicode="&#xe0;" horiz-adv-x="470" 
d="M408 75l15 -72l-37 -9l-15 58q-73 -62 -157 -62q-75 0 -122.5 37t-47.5 106q0 64 45.5 100.5t116.5 37.5h75q60 0 86 27v53q0 45 -38.5 72t-83.5 27q-105 0 -137 -75l-37 12q42 103 177 103q62 0 111 -38.5t49 -96.5v-280zM367 94v164q-40 -22 -76 -22h-84q-50 0 -86 -26
t-36 -77q0 -52 38.5 -78.5t90.5 -26.5q84 0 153 66zM222 682l84 -148h-44l-99 148h59z" />
    <glyph glyph-name="aacute" unicode="&#xe1;" horiz-adv-x="470" 
d="M408 75l15 -72l-37 -9l-15 58q-73 -62 -157 -62q-75 0 -122.5 37t-47.5 106q0 64 45.5 100.5t116.5 37.5h75q60 0 86 27v53q0 45 -38.5 72t-83.5 27q-105 0 -137 -75l-37 12q42 103 177 103q62 0 111 -38.5t49 -96.5v-280zM367 94v164q-40 -22 -76 -22h-84q-50 0 -86 -26
t-36 -77q0 -52 38.5 -78.5t90.5 -26.5q84 0 153 66zM247 682h59l-99 -148h-44z" />
    <glyph glyph-name="acircumflex" unicode="&#xe2;" horiz-adv-x="470" 
d="M408 75l15 -72l-37 -9l-15 58q-73 -62 -157 -62q-75 0 -122.5 37t-47.5 106q0 64 45.5 100.5t116.5 37.5h75q60 0 86 27v53q0 45 -38.5 72t-83.5 27q-105 0 -137 -75l-37 12q42 103 177 103q62 0 111 -38.5t49 -96.5v-280zM367 94v164q-40 -22 -76 -22h-84q-50 0 -86 -26
t-36 -77q0 -52 38.5 -78.5t90.5 -26.5q84 0 153 66zM259 681l104 -147h-52l-77 119l-76 -119h-51l103 147h49z" />
    <glyph glyph-name="atilde" unicode="&#xe3;" horiz-adv-x="470" 
d="M408 75l15 -72l-37 -9l-15 58q-73 -62 -157 -62q-75 0 -122.5 37t-47.5 106q0 64 45.5 100.5t116.5 37.5h75q60 0 86 27v53q0 45 -38.5 72t-83.5 27q-105 0 -137 -75l-37 12q42 103 177 103q62 0 111 -38.5t49 -96.5v-280zM367 94v164q-40 -22 -76 -22h-84q-50 0 -86 -26
t-36 -77q0 -52 38.5 -78.5t90.5 -26.5q84 0 153 66zM346 612l28 -26q-36 -52 -79 -52q-30 0 -63.5 28.5t-55.5 28.5q-28 0 -53 -36l-27 26q35 51 79 51q31 0 64.5 -28t54.5 -28q29 0 52 36z" />
    <glyph glyph-name="adieresis" unicode="&#xe4;" horiz-adv-x="470" 
d="M408 75l15 -72l-37 -9l-15 58q-73 -62 -157 -62q-75 0 -122.5 37t-47.5 106q0 64 45.5 100.5t116.5 37.5h75q60 0 86 27v53q0 45 -38.5 72t-83.5 27q-105 0 -137 -75l-37 12q42 103 177 103q62 0 111 -38.5t49 -96.5v-280zM367 94v164q-40 -22 -76 -22h-84q-50 0 -86 -26
t-36 -77q0 -52 38.5 -78.5t90.5 -26.5q84 0 153 66zM363 581q0 -17 -11 -28t-27 -11t-27.5 11.5t-11.5 27.5t11.5 27.5t27.5 11.5t27 -11.5t11 -27.5zM184 581q0 -16 -11.5 -27.5t-27.5 -11.5q-17 0 -28 11t-11 28q0 16 11.5 27.5t27.5 11.5t27.5 -11.5t11.5 -27.5z" />
    <glyph glyph-name="aring" unicode="&#xe5;" horiz-adv-x="470" 
d="M408 75l15 -72l-37 -9l-15 58q-73 -62 -157 -62q-75 0 -122.5 37t-47.5 106q0 64 45.5 100.5t116.5 37.5h75q60 0 86 27v53q0 45 -38.5 72t-83.5 27q-105 0 -137 -75l-37 12q42 103 177 103q62 0 111 -38.5t49 -96.5v-280zM367 94v164q-40 -22 -76 -22h-84q-50 0 -86 -26
t-36 -77q0 -52 38.5 -78.5t90.5 -26.5q84 0 153 66zM334 634q0 -40 -29 -69t-69 -29q-41 0 -70 29t-29 69q0 41 29 69.5t70 28.5q40 0 69 -29t29 -69zM293 634q0 24 -17 41t-40 17q-25 0 -41.5 -17t-16.5 -41t16.5 -41t41.5 -17q23 0 40 17t17 41z" />
    <glyph glyph-name="ae" unicode="&#xe6;" horiz-adv-x="775" 
d="M38 133q0 64 45 101t115 37h71q59 0 83 28v48q0 44 -37 72t-79 28q-100 0 -134 -76l-38 12q41 103 173 103q46 0 86 -23t62 -72q59 96 170 96q91 0 135.5 -63t44.5 -161v-29h-342q3 -203 171 -203q80 0 125 52l30 -27q-55 -65 -155 -65q-119 0 -173 86q-46 -47 -88.5 -67
t-98.5 -20q-73 0 -119.5 36.5t-46.5 106.5zM370 112q-18 52 -18 146q-33 -22 -72 -22h-81q-50 0 -85 -26t-35 -76q0 -51 37.5 -78t88.5 -27q47 0 85.5 19.5t79.5 63.5zM393 268h301q-6 179 -140 179q-74 0 -116 -48.5t-45 -130.5z" />
    <glyph glyph-name="ccedilla" unicode="&#xe7;" horiz-adv-x="466" 
d="M389 89l31 -28q-34 -34 -66 -50t-75 -18l29 -71l-64 -119h-53l82 123l-28 66q-98 6 -149.5 74.5t-51.5 173.5q0 110 55.5 179.5t161.5 69.5q52 0 87 -16.5t72 -53.5l-31 -27q-56 59 -128 59q-91 0 -131.5 -60t-40.5 -151t40.5 -150.5t131.5 -59.5q72 0 128 59z" />
    <glyph glyph-name="egrave" unicode="&#xe8;" horiz-adv-x="480" 
d="M436 268v-32h-348q3 -205 174 -205q82 0 129 51l29 -26q-59 -65 -158 -65q-112 0 -165 67t-53 182q0 112 50.5 180t157.5 68q92 0 138 -60.5t46 -159.5zM88 270h307q-4 178 -144 178q-150 0 -163 -178zM227 682l84 -148h-43l-100 148h59z" />
    <glyph glyph-name="eacute" unicode="&#xe9;" horiz-adv-x="480" 
d="M436 268v-32h-348q3 -205 174 -205q82 0 129 51l29 -26q-59 -65 -158 -65q-112 0 -165 67t-53 182q0 112 50.5 180t157.5 68q92 0 138 -60.5t46 -159.5zM88 270h307q-4 178 -144 178q-150 0 -163 -178zM253 682h58l-99 -148h-44z" />
    <glyph glyph-name="ecircumflex" unicode="&#xea;" horiz-adv-x="480" 
d="M436 268v-32h-348q3 -205 174 -205q82 0 129 51l29 -26q-59 -65 -158 -65q-112 0 -165 67t-53 182q0 112 50.5 180t157.5 68q92 0 138 -60.5t46 -159.5zM88 270h307q-4 178 -144 178q-150 0 -163 -178zM264 681l104 -147h-52l-76 119l-76 -119h-51l103 147h48z" />
    <glyph glyph-name="edieresis" unicode="&#xeb;" horiz-adv-x="480" 
d="M436 268v-32h-348q3 -205 174 -205q82 0 129 51l29 -26q-59 -65 -158 -65q-112 0 -165 67t-53 182q0 112 50.5 180t157.5 68q92 0 138 -60.5t46 -159.5zM88 270h307q-4 178 -144 178q-150 0 -163 -178zM369 581q0 -16 -11 -27.5t-27 -11.5q-17 0 -28 11t-11 28
q0 16 11.5 27.5t27.5 11.5t27 -11.5t11 -27.5zM189 581q0 -16 -11.5 -27.5t-27.5 -11.5t-27 11.5t-11 27.5t11 27.5t27 11.5t27.5 -11.5t11.5 -27.5z" />
    <glyph glyph-name="igrave" unicode="&#xec;" horiz-adv-x="210" 
d="M126 480v-480h-43v480h43zM43 682l84 -148h-43l-100 148h59z" />
    <glyph glyph-name="iacute" unicode="&#xed;" horiz-adv-x="210" 
d="M126 480v-480h-43v480h43zM165 682h59l-99 -148h-44z" />
    <glyph glyph-name="icircumflex" unicode="&#xee;" horiz-adv-x="210" 
d="M126 480v-480h-42v480h42zM129 681l104 -147h-53l-76 119l-76 -119h-51l103 147h49z" />
    <glyph glyph-name="idieresis" unicode="&#xef;" horiz-adv-x="210" 
d="M126 480v-480h-42v480h42zM233 581q0 -17 -11 -28t-27 -11t-27.5 11.5t-11.5 27.5t11.5 27.5t27.5 11.5t27 -11.5t11 -27.5zM54 581q0 -16 -11.5 -27.5t-27.5 -11.5q-17 0 -28 11t-11 28q0 16 11.5 27.5t27.5 11.5t27.5 -11.5t11.5 -27.5z" />
    <glyph glyph-name="eth" unicode="&#xf0;" horiz-adv-x="529" 
d="M467 236q0 -245 -202 -245q-203 0 -203 245q0 244 203 244q49 0 102 -24l-59 129h-123v34h108l-60 131h39l59 -131h90v-34h-74q68 -142 90 -182q30 -56 30 -167zM427 236q0 44 -6.5 77.5t-23 64.5t-50 47.5t-82.5 16.5q-50 0 -84 -17t-50 -48t-22.5 -64t-6.5 -77
t6.5 -77.5t23 -64.5t50 -47.5t82.5 -16.5q40 0 69.5 11.5t47 30.5t28.5 46.5t14.5 55.5t3.5 62z" />
    <glyph glyph-name="ntilde" unicode="&#xf1;" horiz-adv-x="508" 
d="M448 273v-273h-41v272q0 83 -34.5 129t-118.5 46q-59 0 -100.5 -38.5t-41.5 -85.5v-323h-43v480h39l1 -72q24 42 64 61.5t82 19.5q193 0 193 -216zM364 612l28 -26q-36 -52 -79 -52q-30 0 -63.5 28.5t-55.5 28.5q-27 0 -52 -36l-27 26q33 51 79 51q30 0 63 -28t55 -28
q30 0 52 36z" />
    <glyph glyph-name="ograve" unicode="&#xf2;" horiz-adv-x="493" 
d="M450 239q0 -248 -203 -248t-203 248q0 250 203 250t203 -250zM407 239q0 44 -6.5 78t-22.5 65.5t-49.5 48.5t-81.5 17q-49 0 -82 -17t-49.5 -48.5t-22.5 -65.5t-6 -78t6 -77t22.5 -64.5t49.5 -48.5t81 -17t81.5 17t50 48t23 65t6.5 77zM234 682l84 -148h-43l-100 148h59z
" />
    <glyph glyph-name="oacute" unicode="&#xf3;" horiz-adv-x="493" 
d="M450 239q0 -248 -203 -248t-203 248q0 250 203 250t203 -250zM407 239q0 44 -6.5 78t-22.5 65.5t-49.5 48.5t-81.5 17q-49 0 -82 -17t-49.5 -48.5t-22.5 -65.5t-6 -78t6 -77t22.5 -64.5t49.5 -48.5t81 -17t81.5 17t50 48t23 65t6.5 77zM260 682h58l-99 -148h-44z" />
    <glyph glyph-name="ocircumflex" unicode="&#xf4;" horiz-adv-x="493" 
d="M450 239q0 -248 -203 -248t-203 248q0 250 203 250t203 -250zM407 239q0 44 -6.5 78t-22.5 65.5t-49.5 48.5t-81.5 17q-49 0 -82 -17t-49.5 -48.5t-22.5 -65.5t-6 -78t6 -77t22.5 -64.5t49.5 -48.5t81 -17t81.5 17t50 48t23 65t6.5 77zM271 681l104 -147h-52l-77 119
l-75 -119h-52l104 147h48z" />
    <glyph glyph-name="otilde" unicode="&#xf5;" horiz-adv-x="493" 
d="M450 239q0 -248 -203 -248t-203 248q0 250 203 250t203 -250zM407 239q0 44 -6.5 78t-22.5 65.5t-49.5 48.5t-81.5 17q-49 0 -82 -17t-49.5 -48.5t-22.5 -65.5t-6 -78t6 -77t22.5 -64.5t49.5 -48.5t81 -17t81.5 17t50 48t23 65t6.5 77zM358 612l28 -26q-36 -52 -79 -52
q-30 0 -63.5 28.5t-55.5 28.5q-27 0 -52 -36l-27 26q33 51 78 51q31 0 64.5 -28t54.5 -28q29 0 52 36z" />
    <glyph glyph-name="odieresis" unicode="&#xf6;" horiz-adv-x="493" 
d="M450 239q0 -248 -203 -248t-203 248q0 250 203 250t203 -250zM407 239q0 44 -6.5 78t-22.5 65.5t-49.5 48.5t-81.5 17q-49 0 -82 -17t-49.5 -48.5t-22.5 -65.5t-6 -78t6 -77t22.5 -64.5t49.5 -48.5t81 -17t81.5 17t50 48t23 65t6.5 77zM376 581q0 -16 -11 -27.5
t-27 -11.5q-17 0 -28.5 11.5t-11.5 27.5t12 27.5t28 11.5t27 -11.5t11 -27.5zM196 581q0 -16 -11.5 -27.5t-27.5 -11.5t-27 11t-11 28q0 16 11 27.5t27 11.5t27.5 -11.5t11.5 -27.5z" />
    <glyph glyph-name="divide" unicode="&#xf7;" horiz-adv-x="511" 
d="M292 437q0 -16 -11.5 -27t-27.5 -11t-27 11t-11 27t11 27.5t27 11.5t27.5 -11.5t11.5 -27.5zM455 293v-38h-400v38h400zM292 111q0 -16 -11.5 -27.5t-27.5 -11.5t-27 11.5t-11 27.5t11 27t27 11t27.5 -11t11.5 -27z" />
    <glyph glyph-name="oslash" unicode="&#xf8;" horiz-adv-x="502" 
d="M450 238q0 -247 -203 -247q-61 0 -113 28l-13 -22h-34l22 39q-65 69 -65 202q0 249 203 249q61 0 110 -28l15 25h35l-24 -41q67 -68 67 -205zM407 238q0 103 -46 164l-206 -345q42 -25 91 -25t82.5 17t49.5 48t22.5 64.5t6.5 76.5zM131 77l206 345q-44 24 -90 24
q-49 0 -82.5 -17t-49.5 -48.5t-22.5 -65t-6.5 -77.5q0 -99 45 -161z" />
    <glyph glyph-name="ugrave" unicode="&#xf9;" horiz-adv-x="503" 
d="M438 480v-480h-38v67q-60 -75 -147 -75q-102 0 -148 51.5t-46 156.5v280h43v-278q0 -84 33 -126.5t118 -42.5q51 0 97.5 33t46.5 85v329h41zM238 682l85 -148h-44l-99 148h58z" />
    <glyph glyph-name="uacute" unicode="&#xfa;" horiz-adv-x="503" 
d="M438 480v-480h-38v67q-60 -75 -147 -75q-102 0 -148 51.5t-46 156.5v280h43v-278q0 -84 33 -126.5t118 -42.5q51 0 97.5 33t46.5 85v329h41zM264 682h59l-100 -148h-43z" />
    <glyph glyph-name="ucircumflex" unicode="&#xfb;" horiz-adv-x="503" 
d="M438 480v-480h-38v67q-60 -75 -147 -75q-102 0 -148 51.5t-46 156.5v280h43v-278q0 -84 33 -126.5t118 -42.5q51 0 97.5 33t46.5 85v329h41zM275 681l104 -147h-52l-76 119l-76 -119h-51l103 147h48z" />
    <glyph glyph-name="udieresis" unicode="&#xfc;" horiz-adv-x="503" 
d="M438 480v-480h-38v67q-60 -75 -147 -75q-102 0 -148 51.5t-46 156.5v280h43v-278q0 -84 33 -126.5t118 -42.5q51 0 97.5 33t46.5 85v329h41zM380 581q0 -16 -11 -27.5t-27 -11.5t-27.5 11.5t-11.5 27.5t11.5 27.5t27.5 11.5t27 -11.5t11 -27.5zM200 581q0 -17 -11 -28
t-28 -11q-16 0 -27 11.5t-11 27.5t11 27.5t27 11.5t27.5 -11.5t11.5 -27.5z" />
    <glyph glyph-name="yacute" unicode="&#xfd;" horiz-adv-x="459" 
d="M390 480h45l-230 -604q-37 -97 -137 -96h-10v38h10q71 0 98 71l41 108l-183 483h45l160 -427zM242 682h59l-99 -148h-44z" />
    <glyph glyph-name="thorn" unicode="&#xfe;" horiz-adv-x="510" 
d="M467 239q0 -244 -194 -244q-97 0 -144 66v-279h-43v916h43v-285q49 71 143 71q195 0 195 -245zM424 239q0 41 -5.5 73t-20.5 64t-47 49.5t-79 17.5q-59 0 -101 -35.5t-42 -93.5v-150q0 -58 42 -92.5t101 -34.5q47 0 79 17.5t47 49t20.5 63t5.5 72.5z" />
    <glyph glyph-name="ydieresis" unicode="&#xff;" horiz-adv-x="459" 
d="M390 480h45l-230 -604q-37 -97 -137 -96h-10v38h10q71 0 98 71l41 108l-183 483h45l160 -427zM358 581q0 -16 -11 -27.5t-27 -11.5t-27.5 11.5t-11.5 27.5t11.5 27.5t27.5 11.5t27 -11.5t11 -27.5zM178 581q0 -17 -11 -28t-28 -11q-16 0 -27 11.5t-11 27.5t11 27.5
t27 11.5t27.5 -11.5t11.5 -27.5z" />
    <glyph glyph-name="Amacron" unicode="&#x100;" horiz-adv-x="624" 
d="M342 698l268 -698h-48l-81 214h-338l-82 -214h-47l268 698h60zM158 254h307l-154 401zM444 813v-41h-266v41h266z" />
    <glyph glyph-name="amacron" unicode="&#x101;" horiz-adv-x="470" 
d="M408 75l15 -72l-37 -9l-15 58q-73 -62 -157 -62q-75 0 -122.5 37t-47.5 106q0 64 45.5 100.5t116.5 37.5h75q60 0 86 27v53q0 45 -38.5 72t-83.5 27q-105 0 -137 -75l-37 12q42 103 177 103q62 0 111 -38.5t49 -96.5v-280zM367 94v164q-40 -22 -76 -22h-84q-50 0 -86 -26
t-36 -77q0 -52 38.5 -78.5t90.5 -26.5q84 0 153 66zM368 592v-41h-266v41h266z" />
    <glyph glyph-name="Abreve" unicode="&#x102;" horiz-adv-x="624" 
d="M342 698l268 -698h-48l-81 214h-338l-82 -214h-47l268 698h60zM158 254h307l-154 401zM424 885h38q-48 -127 -151 -127q-101 0 -149 127h37q45 -89 112 -89q39 0 65 22.5t48 66.5z" />
    <glyph glyph-name="abreve" unicode="&#x103;" horiz-adv-x="470" 
d="M408 75l15 -72l-37 -9l-15 58q-73 -62 -157 -62q-75 0 -122.5 37t-47.5 106q0 64 45.5 100.5t116.5 37.5h75q60 0 86 27v53q0 45 -38.5 72t-83.5 27q-105 0 -137 -75l-37 12q42 103 177 103q62 0 111 -38.5t49 -96.5v-280zM367 94v164q-40 -22 -76 -22h-84q-50 0 -86 -26
t-36 -77q0 -52 38.5 -78.5t90.5 -26.5q84 0 153 66zM348 664h37q-47 -127 -150 -127q-102 0 -150 127h38q22 -44 47.5 -66.5t64.5 -22.5t64 22t49 67z" />
    <glyph glyph-name="Aogonek" unicode="&#x104;" horiz-adv-x="624" 
d="M600 0l121 -197h-56l-103 197l-81 214h-338l-82 -214h-47l268 698h60l268 -698h-10zM158 254h307l-154 401z" />
    <glyph glyph-name="aogonek" unicode="&#x105;" horiz-adv-x="470" 
d="M417 2l123 -199h-56l-98 191l-15 58q-73 -62 -157 -62q-75 0 -122.5 37t-47.5 106q0 64 45.5 100.5t116.5 37.5h75q60 0 86 27v53q0 45 -38.5 72t-83.5 27q-105 0 -137 -75l-37 12q42 103 177 103q62 0 111 -38.5t49 -96.5v-280l15 -71zM367 94v164q-40 -22 -76 -22h-84
q-50 0 -86 -26t-36 -77q0 -52 38.5 -78.5t90.5 -26.5q84 0 153 66z" />
    <glyph glyph-name="Cacute" unicode="&#x106;" horiz-adv-x="579" 
d="M501 125l33 -29q-47 -55 -94.5 -80t-115.5 -25q-75 0 -131 29.5t-87.5 81t-46.5 113t-15 134.5t15 134.5t46 113t87 81t131 29.5q68 0 116 -24.5t94 -78.5l-33 -29q-40 45 -79.5 66t-97.5 21q-67 0 -115 -27.5t-72.5 -75t-35 -99t-10.5 -111.5t10.5 -111.5t35 -99
t72.5 -75t115 -27.5q58 0 98 21.5t80 67.5zM337 903h59l-100 -148h-43z" />
    <glyph glyph-name="cacute" unicode="&#x107;" horiz-adv-x="466" 
d="M420 419l-31 -27q-56 59 -128 59q-91 0 -131.5 -60t-40.5 -151t40.5 -150.5t131.5 -59.5q72 0 128 59l31 -28q-36 -37 -71.5 -53t-87.5 -16q-106 0 -161.5 69t-55.5 179t55.5 179.5t161.5 69.5q52 0 87 -16.5t72 -53.5zM249 682h59l-99 -148h-44z" />
    <glyph glyph-name="Ccircumflex" unicode="&#x108;" horiz-adv-x="579" 
d="M501 125l33 -29q-47 -55 -94.5 -80t-115.5 -25q-75 0 -131 29.5t-87.5 81t-46.5 113t-15 134.5t15 134.5t46 113t87 81t131 29.5q68 0 116 -24.5t94 -78.5l-33 -29q-40 45 -79.5 66t-97.5 21q-67 0 -115 -27.5t-72.5 -75t-35 -99t-10.5 -111.5t10.5 -111.5t35 -99
t72.5 -75t115 -27.5q58 0 98 21.5t80 67.5zM343 902l104 -147h-52l-76 119l-76 -119h-51l103 147h48z" />
    <glyph glyph-name="ccircumflex" unicode="&#x109;" horiz-adv-x="466" 
d="M420 419l-31 -27q-56 59 -128 59q-91 0 -131.5 -60t-40.5 -151t40.5 -150.5t131.5 -59.5q72 0 128 59l31 -28q-36 -37 -71.5 -53t-87.5 -16q-106 0 -161.5 69t-55.5 179t55.5 179.5t161.5 69.5q52 0 87 -16.5t72 -53.5zM257 681l104 -147h-52l-77 119l-75 -119h-52
l104 147h48z" />
    <glyph glyph-name="Cdotaccent" unicode="&#x10a;" horiz-adv-x="579" 
d="M501 125l33 -29q-47 -55 -94.5 -80t-115.5 -25q-75 0 -131 29.5t-87.5 81t-46.5 113t-15 134.5t15 134.5t46 113t87 81t131 29.5q68 0 116 -24.5t94 -78.5l-33 -29q-40 45 -79.5 66t-97.5 21q-67 0 -115 -27.5t-72.5 -75t-35 -99t-10.5 -111.5t10.5 -111.5t35 -99
t72.5 -75t115 -27.5q58 0 98 21.5t80 67.5zM367 806q0 -18 -14 -32t-33 -14t-32.5 14t-13.5 32q0 20 13.5 34t32.5 14t33 -14t14 -34z" />
    <glyph glyph-name="cdotaccent" unicode="&#x10b;" horiz-adv-x="466" 
d="M420 419l-31 -27q-56 59 -128 59q-91 0 -131.5 -60t-40.5 -151t40.5 -150.5t131.5 -59.5q72 0 128 59l31 -28q-36 -37 -71.5 -53t-87.5 -16q-106 0 -161.5 69t-55.5 179t55.5 179.5t161.5 69.5q52 0 87 -16.5t72 -53.5zM283 585q0 -18 -14 -32t-33 -14t-32.5 14t-13.5 32
q0 20 13.5 34t32.5 14t33 -14t14 -34z" />
    <glyph glyph-name="Ccaron" unicode="&#x10c;" horiz-adv-x="579" 
d="M534 96l-33 29q-40 -46 -80 -67.5t-98 -21.5q-67 0 -115 27.5t-72.5 75t-35 99t-10.5 111.5t10.5 111.5t35 99t72.5 75t115 27.5q58 0 97.5 -21t79.5 -66l33 29q-46 54 -94 78.5t-116 24.5q-75 0 -131 -29.5t-87 -81t-46 -113t-15 -134.5t15 -134.5t46.5 -113t87.5 -81
t131 -29.5q68 0 115.5 25t94.5 80zM454 902l-104 -147h-48l-103 147h51l76 -119l76 119h52z" />
    <glyph glyph-name="ccaron" unicode="&#x10d;" horiz-adv-x="466" 
d="M420 419l-31 -27q-56 59 -128 59q-91 0 -131.5 -60t-40.5 -151t40.5 -150.5t131.5 -59.5q72 0 128 59l31 -28q-36 -37 -71.5 -53t-87.5 -16q-106 0 -161.5 69t-55.5 179t55.5 179.5t161.5 69.5q52 0 87 -16.5t72 -53.5zM361 681l-104 -147h-48l-104 147h52l75 -119
l77 119h52z" />
    <glyph glyph-name="Dcaron" unicode="&#x10e;" horiz-adv-x="628" 
d="M569 349q0 50 -1.5 82.5t-5.5 70t-13 61t-23.5 48t-36 39t-51.5 26.5t-70.5 17t-92.5 5h-201v-698h201q52 0 92.5 5t70.5 17t51.5 26.5t36 39t23.5 48t13 61t5.5 70t1.5 82.5zM524 349v-28.5v-31.5t-0.5 -29.5t-1.5 -32t-3.5 -28.5t-5.5 -29.5t-8 -24.5t-11 -23
q-24 -41 -75 -59t-140 -18h-159v609h159q89 0 140 -18t75 -58q6 -10 11 -23.5t8 -25t5.5 -30t3.5 -29t1.5 -32t0.5 -29.5v-31.5v-28.5zM442 902l-104 -147h-49l-103 147h51l76 -119l77 119h52z" />
    <glyph glyph-name="dcaron" unicode="&#x10f;" horiz-adv-x="502" 
d="M440 3l-39 -10l-15 72q-48 -74 -148 -74q-194 0 -194 249t196 249q39 0 78.5 -18t62.5 -57v284h43v-616q15 -78 16 -79zM381 161v157q0 58 -41 94t-100 36q-47 0 -79.5 -18t-47.5 -50.5t-20.5 -65t-5.5 -74.5q0 -33 3 -59t12.5 -55t25.5 -48.5t44 -32.5t66 -13
q60 0 101.5 35t41.5 94zM534 704v-160h-59v160q0 11 9 20t20 9q12 0 21 -9t9 -20z" />
    <glyph glyph-name="Dcroat" unicode="&#x110;" horiz-adv-x="657" 
d="M586 349q0 -106 -8 -162q-7 -47 -24.5 -81.5t-41 -54.5t-59.5 -31.5t-71.5 -15.5t-83.5 -4h-205v327h-44v40h44v331h205q48 0 83.5 -4t71.5 -15.5t59.5 -31.5t41 -54t24.5 -81q8 -56 8 -163zM541 349q0 99 -8 155q-6 41 -21.5 69.5t-35.5 44t-52 24t-59 10.5t-68 2h-159
v-287h163v-40h-163v-282h160q42 0 68.5 2t58.5 10.5t51.5 23.5t35 43.5t21.5 69.5q8 57 8 155z" />
    <glyph glyph-name="dcroat" unicode="&#x111;" horiz-adv-x="502" 
d="M502 604v-40h-78v-482q15 -78 16 -79l-39 -10l-15 72q-48 -74 -148 -74q-194 0 -194 249t196 249q39 0 78.5 -18t62.5 -57v150h-142v40h142v94h43v-94h78zM381 161v157q0 58 -41 94t-100 36q-47 0 -79.5 -18t-47.5 -50.5t-20.5 -65t-5.5 -74.5q0 -33 3 -59t12.5 -55
t25.5 -48.5t44 -32.5t66 -13q60 0 101.5 35t41.5 94z" />
    <glyph glyph-name="Emacron" unicode="&#x112;" horiz-adv-x="565" 
d="M515 44v-44h-441v698h441v-44h-395v-271h345v-42h-345v-297h395zM415 813v-41h-266v41h266z" />
    <glyph glyph-name="emacron" unicode="&#x113;" horiz-adv-x="480" 
d="M436 268v-32h-348q3 -205 174 -205q82 0 129 51l29 -26q-59 -65 -158 -65q-112 0 -165 67t-53 182q0 112 50.5 180t157.5 68q92 0 138 -60.5t46 -159.5zM88 270h307q-4 178 -144 178q-150 0 -163 -178zM374 592v-41h-267v41h267z" />
    <glyph glyph-name="Ebreve" unicode="&#x114;" horiz-adv-x="565" 
d="M515 44v-44h-441v698h441v-44h-395v-271h345v-42h-345v-297h395zM395 885h37q-47 -127 -150 -127q-102 0 -150 127h38q22 -44 47.5 -66.5t64.5 -22.5t64 22t49 67z" />
    <glyph glyph-name="ebreve" unicode="&#x115;" horiz-adv-x="480" 
d="M436 268v-32h-348q3 -205 174 -205q82 0 129 51l29 -26q-59 -65 -158 -65q-112 0 -165 67t-53 182q0 112 50.5 180t157.5 68q92 0 138 -60.5t46 -159.5zM88 270h307q-4 178 -144 178q-150 0 -163 -178zM352 664h38q-48 -127 -150 -127t-150 127h37q22 -44 48 -66.5
t65 -22.5t64.5 22.5t47.5 66.5z" />
    <glyph glyph-name="Edotaccent" unicode="&#x116;" horiz-adv-x="565" 
d="M515 44v-44h-441v698h441v-44h-395v-271h345v-42h-345v-297h395zM329 806q0 -18 -14 -32t-33 -14t-32.5 14t-13.5 32q0 20 13.5 34t32.5 14t33 -14t14 -34z" />
    <glyph glyph-name="edotaccent" unicode="&#x117;" horiz-adv-x="480" 
d="M436 268v-32h-348q3 -205 174 -205q82 0 129 51l29 -26q-59 -65 -158 -65q-112 0 -165 67t-53 182q0 112 50.5 180t157.5 68q92 0 138 -60.5t46 -159.5zM88 270h307q-4 178 -144 178q-150 0 -163 -178zM287 585q0 -18 -14 -32t-33 -14t-33 14t-14 32q0 20 14 34t33 14
t33 -14.5t14 -33.5z" />
    <glyph glyph-name="Eogonek" unicode="&#x118;" horiz-adv-x="565" 
d="M515 0l118 -197h-55l-104 197h-400v698h441v-44h-395v-271h345v-42h-345v-297h395v-44z" />
    <glyph glyph-name="eogonek" unicode="&#x119;" horiz-adv-x="480" 
d="M337 2l119 -199h-55l-100 191q-18 -3 -39 -3q-112 0 -165 67t-53 182q0 112 50.5 180t157.5 68q92 0 138 -60.5t46 -159.5v-32h-348q3 -205 174 -205q82 0 129 51l29 -26q-36 -41 -83 -54zM88 270h307q-4 178 -144 178q-150 0 -163 -178z" />
    <glyph glyph-name="Ecaron" unicode="&#x11a;" horiz-adv-x="565" 
d="M515 0v44h-395v297h345v42h-345v271h395v44h-441v-698h441zM424 902l-104 -147h-48l-103 147h51l76 -119l76 119h52z" />
    <glyph glyph-name="ecaron" unicode="&#x11b;" horiz-adv-x="480" 
d="M436 236v32q0 99 -46 159.5t-138 60.5q-107 0 -157.5 -68t-50.5 -180q0 -115 53 -182t165 -67q99 0 158 65l-29 26q-47 -51 -129 -51q-171 0 -174 205h348zM395 270h-307q13 178 163 178q140 0 144 -178zM368 681l-104 -147h-48l-103 147h51l76 -119l76 119h52z" />
    <glyph glyph-name="Gcircumflex" unicode="&#x11c;" horiz-adv-x="620" 
d="M333 358h224v-358h-42v129q-28 -75 -75.5 -106.5t-120.5 -31.5q-59 0 -106.5 20t-78.5 54t-51.5 80.5t-29.5 97t-9 106.5q0 71 15.5 133t47.5 113.5t87.5 81.5t128.5 30q68 0 115.5 -25t93.5 -80l-33 -28q-39 45 -78.5 66.5t-97.5 21.5q-67 0 -115 -27.5t-72.5 -75
t-35 -99t-10.5 -111.5q0 -59 10.5 -110t34.5 -99t71 -76t113 -28q193 0 193 280h-179v42zM334 902l104 -147h-52l-77 119l-75 -119h-52l104 147h48z" />
    <glyph glyph-name="gcircumflex" unicode="&#x11d;" horiz-adv-x="490" 
d="M406 330q0 -156 -170 -156q-27 0 -56 5q-62 -37 -62 -85q0 -36 44 -36q30 0 87.5 14t86.5 14q51 0 85 -28t34 -75q0 -76 -69 -124.5t-152 -48.5q-74 0 -133 32.5t-59 94.5q0 15 5 32l38 -13q-2 -12 -2 -18q0 -43 49.5 -67t99.5 -24q64 0 123 36.5t59 98.5q0 33 -24.5 50
t-56.5 17q-29 0 -83.5 -12t-82.5 -12q-37 0 -61 16.5t-24 46.5q0 60 65 105q-80 37 -80 138q0 157 169 157q82 0 124 -37q44 14 49 52h39q-5 -59 -64 -81q22 -43 22 -92zM366 331q0 119 -129 119t-129 -119q0 -60 33.5 -91t94.5 -31q63 0 96.5 30.5t33.5 91.5zM269 681
l104 -147h-52l-77 119l-75 -119h-52l104 147h48z" />
    <glyph glyph-name="Gbreve" unicode="&#x11e;" horiz-adv-x="620" 
d="M333 358h224v-358h-42v129q-28 -75 -75.5 -106.5t-120.5 -31.5q-59 0 -106.5 20t-78.5 54t-51.5 80.5t-29.5 97t-9 106.5q0 71 15.5 133t47.5 113.5t87.5 81.5t128.5 30q68 0 115.5 -25t93.5 -80l-33 -28q-39 45 -78.5 66.5t-97.5 21.5q-67 0 -115 -27.5t-72.5 -75
t-35 -99t-10.5 -111.5q0 -59 10.5 -110t34.5 -99t71 -76t113 -28q193 0 193 280h-179v42zM422 885h38q-48 -127 -151 -127q-101 0 -149 127h37q45 -89 112 -89q39 0 65 22.5t48 66.5z" />
    <glyph glyph-name="gbreve" unicode="&#x11f;" horiz-adv-x="490" 
d="M406 330q0 -156 -170 -156q-27 0 -56 5q-62 -37 -62 -85q0 -36 44 -36q30 0 87.5 14t86.5 14q51 0 85 -28t34 -75q0 -76 -69 -124.5t-152 -48.5q-74 0 -133 32.5t-59 94.5q0 15 5 32l38 -13q-2 -12 -2 -18q0 -43 49.5 -67t99.5 -24q64 0 123 36.5t59 98.5q0 33 -24.5 50
t-56.5 17q-29 0 -83.5 -12t-82.5 -12q-37 0 -61 16.5t-24 46.5q0 60 65 105q-80 37 -80 138q0 157 169 157q82 0 124 -37q44 14 49 52h39q-5 -59 -64 -81q22 -43 22 -92zM366 331q0 119 -129 119t-129 -119q0 -60 33.5 -91t94.5 -31q63 0 96.5 30.5t33.5 91.5zM357 664h38
q-48 -127 -151 -127q-101 0 -149 127h37q45 -89 112 -89q39 0 65 22.5t48 66.5z" />
    <glyph glyph-name="Gdotaccent" unicode="&#x120;" horiz-adv-x="620" 
d="M333 358h224v-358h-42v129q-28 -75 -75.5 -106.5t-120.5 -31.5q-59 0 -106.5 20t-78.5 54t-51.5 80.5t-29.5 97t-9 106.5q0 71 15.5 133t47.5 113.5t87.5 81.5t128.5 30q68 0 115.5 -25t93.5 -80l-33 -28q-39 45 -78.5 66.5t-97.5 21.5q-67 0 -115 -27.5t-72.5 -75
t-35 -99t-10.5 -111.5q0 -59 10.5 -110t34.5 -99t71 -76t113 -28q193 0 193 280h-179v42zM356 806q0 -18 -14 -32t-33 -14t-32.5 14t-13.5 32q0 20 13.5 34t32.5 14t33 -14t14 -34z" />
    <glyph glyph-name="gdotaccent" unicode="&#x121;" horiz-adv-x="490" 
d="M406 330q0 -156 -170 -156q-27 0 -56 5q-62 -37 -62 -85q0 -36 44 -36q30 0 87.5 14t86.5 14q51 0 85 -28t34 -75q0 -76 -69 -124.5t-152 -48.5q-74 0 -133 32.5t-59 94.5q0 15 5 32l38 -13q-2 -12 -2 -18q0 -43 49.5 -67t99.5 -24q64 0 123 36.5t59 98.5q0 33 -24.5 50
t-56.5 17q-29 0 -83.5 -12t-82.5 -12q-37 0 -61 16.5t-24 46.5q0 60 65 105q-80 37 -80 138q0 157 169 157q82 0 124 -37q44 14 49 52h39q-5 -59 -64 -81q22 -43 22 -92zM366 331q0 119 -129 119t-129 -119q0 -60 33.5 -91t94.5 -31q63 0 96.5 30.5t33.5 91.5zM292 585
q0 -18 -14 -32t-33 -14t-32.5 14t-13.5 32q0 20 13.5 34t32.5 14t33 -14t14 -34z" />
    <glyph glyph-name="Gcommaaccent" unicode="&#x122;" horiz-adv-x="620" 
d="M333 358h224v-358h-42v129q-28 -75 -75.5 -106.5t-120.5 -31.5q-59 0 -106.5 20t-78.5 54t-51.5 80.5t-29.5 97t-9 106.5q0 71 15.5 133t47.5 113.5t87.5 81.5t128.5 30q68 0 115.5 -25t93.5 -80l-33 -28q-39 45 -78.5 66.5t-97.5 21.5q-67 0 -115 -27.5t-72.5 -75
t-35 -99t-10.5 -111.5q0 -59 10.5 -110t34.5 -99t71 -76t113 -28q193 0 193 280h-179v42zM364 -109v-30l-62 -99h-10v129q0 14 10.5 24t24.5 10q17 0 27 -10t10 -24z" />
    <glyph glyph-name="gcommaaccent" unicode="&#x123;" horiz-adv-x="490" 
d="M406 330q0 -156 -170 -156q-27 0 -56 5q-62 -37 -62 -85q0 -36 44 -36q30 0 87.5 14t86.5 14q51 0 85 -28t34 -75q0 -76 -69 -124.5t-152 -48.5q-74 0 -133 32.5t-59 94.5q0 15 5 32l38 -13q-2 -12 -2 -18q0 -43 49.5 -67t99.5 -24q64 0 123 36.5t59 98.5q0 33 -24.5 50
t-56.5 17q-29 0 -83.5 -12t-82.5 -12q-37 0 -61 16.5t-24 46.5q0 60 65 105q-80 37 -80 138q0 157 169 157q82 0 124 -37q44 14 49 52h39q-5 -59 -64 -81q22 -43 22 -92zM366 331q0 119 -129 119t-129 -119q0 -60 33.5 -91t94.5 -31q63 0 96.5 30.5t33.5 91.5zM209 558v30
l62 99h10v-129q0 -14 -10.5 -24t-24.5 -10q-17 0 -27 9.5t-10 24.5z" />
    <glyph glyph-name="Hcircumflex" unicode="&#x124;" horiz-adv-x="649" 
d="M574 698v-698h-45v341h-409v-341h-46v698h46v-315h409v315h45zM348 902l104 -147h-52l-77 119l-75 -119h-51l103 147h48z" />
    <glyph glyph-name="hcircumflex" unicode="&#x125;" horiz-adv-x="506" 
d="M448 275v-275h-41v275q0 82 -34.5 127.5t-118.5 45.5q-52 0 -97 -34.5t-45 -84.5v-329h-43v698h43v-288q22 40 62.5 60t82.5 20q191 0 191 -215zM113 888l104 -147h-52l-77 119l-75 -119h-52l104 147h48z" />
    <glyph glyph-name="Hbar" unicode="&#x126;" horiz-adv-x="649" 
d="M649 546v-34h-75v-512h-45v341h-409v-341h-46v512h-74v34h74v152h46v-152h409v152h45v-152h75zM120 383h409v129h-409v-129z" />
    <glyph glyph-name="hbar" unicode="&#x127;" horiz-adv-x="506" 
d="M385 615v-35h-273v-170q22 40 62.5 60t82.5 20q191 0 191 -215v-275h-41v275q0 82 -34.5 127.5t-118.5 45.5q-52 0 -97 -34.5t-45 -84.5v-329h-43v698h43v-83h273z" />
    <glyph glyph-name="Itilde" unicode="&#x128;" horiz-adv-x="230" 
d="M137 698v-698h-45v698h45zM227 833l27 -26q-36 -52 -78 -52q-30 0 -64 28.5t-55 28.5q-28 0 -53 -36l-27 26q35 51 79 51q31 0 64 -28t55 -28q29 0 52 36z" />
    <glyph glyph-name="itilde" unicode="&#x129;" horiz-adv-x="210" 
d="M126 480v-480h-42v480h42zM216 612l27 -26q-34 -52 -78 -52q-30 0 -63.5 28.5t-55.5 28.5q-28 0 -53 -36l-27 26q35 51 79 51q31 0 64 -28t55 -28q29 0 52 36z" />
    <glyph glyph-name="imacron" unicode="&#x12b;" horiz-adv-x="210" 
d="M126 480v-480h-42v480h42zM238 592v-41h-266v41h266z" />
    <glyph glyph-name="Ibreve" unicode="&#x12c;" horiz-adv-x="230" 
d="M137 698v-698h-45v698h45zM228 885h37q-47 -127 -150 -127q-102 0 -150 127h38q22 -44 47.5 -66.5t64.5 -22.5t64 22t49 67z" />
    <glyph glyph-name="Iogonek" unicode="&#x12e;" horiz-adv-x="230" 
d="M137 698v-698h-6l119 -197h-56l-102 197v698h45z" />
    <glyph glyph-name="iogonek" unicode="&#x12f;" horiz-adv-x="211" 
d="M121 0l122 -197h-56l-103 197v480h43v-480h-6zM145 663q0 -16 -11.5 -27.5t-27.5 -11.5t-27.5 11.5t-11.5 27.5q0 17 11.5 28t27.5 11t27.5 -11.5t11.5 -27.5z" />
    <glyph glyph-name="Idotaccent" unicode="&#x130;" horiz-adv-x="230" 
d="M137 698v-698h-45v698h45zM162 806q0 -18 -14 -32t-33 -14t-32.5 14t-13.5 32q0 20 13.5 34t32.5 14t33 -14.5t14 -33.5z" />
    <glyph glyph-name="dotlessi" unicode="&#x131;" horiz-adv-x="209" 
d="M126 480v-480h-43v480h43z" />
    <glyph glyph-name="Jcircumflex" unicode="&#x134;" horiz-adv-x="528" 
d="M458 698v-490q0 -215 -219 -215q-78 0 -132.5 35.5t-75.5 103.5l44 11q18 -53 61.5 -79t102.5 -26q90 0 132 41.5t42 129.5v489h45zM460 902l104 -147h-52l-76 119l-76 -119h-51l103 147h48z" />
    <glyph glyph-name="jcircumflex" unicode="&#x135;" horiz-adv-x="213" 
d="M131 480v-508q0 -181 -165 -191l-6 39q129 8 129 153v507h42zM135 681l104 -147h-52l-76 119l-76 -119h-51l103 147h48z" />
    <glyph glyph-name="Kcommaaccent" unicode="&#x136;" horiz-adv-x="541" 
d="M482 698l-301 -347l327 -351h-60l-323 350l303 348h54zM120 0h-46v698h46v-698zM303 -109v-30l-62 -99h-10v129q0 14 10.5 24t24.5 10q17 0 27 -10t10 -24z" />
    <glyph glyph-name="kcommaaccent" unicode="&#x137;" horiz-adv-x="428" 
d="M167 255l238 -255h-52l-236 254l202 226h48zM110 698v-698h-41v698h41zM249 -109v-30l-62 -99h-9v129q0 14 10 24t25 10q16 0 26 -10t10 -24z" />
    <glyph glyph-name="Lacute" unicode="&#x139;" horiz-adv-x="502" 
d="M474 41v-41h-400v698h45v-657h355zM159 903h58l-99 -148h-44z" />
    <glyph glyph-name="lacute" unicode="&#x13a;" horiz-adv-x="210" 
d="M174 39l1 -38q-106 6 -106 108v589h41v-589q0 -64 64 -70zM153 894h58l-99 -148h-43z" />
    <glyph glyph-name="Lcommaaccent" unicode="&#x13b;" horiz-adv-x="502" 
d="M474 41v-41h-400v698h45v-657h355zM307 -109v-30l-62 -99h-10v129q0 14 10.5 24t24.5 10q17 0 27 -10t10 -24z" />
    <glyph glyph-name="lcommaaccent" unicode="&#x13c;" horiz-adv-x="210" 
d="M174 39l1 -38q-106 6 -106 108v589h41v-589q0 -64 64 -70zM147 -109v-30l-62 -99h-10v129q0 14 10.5 24t24.5 10q17 0 27 -10t10 -24z" />
    <glyph glyph-name="Lcaron" unicode="&#x13d;" horiz-adv-x="502" 
d="M474 41v-41h-400v698h45v-657h355zM459 669l-6 -45l-63 -105l-9 1l5 149q1 15 11.5 25.5t24.5 10.5q15 0 26.5 -10.5t10.5 -25.5z" />
    <glyph glyph-name="lcaron" unicode="&#x13e;" horiz-adv-x="210" 
d="M174 39l1 -38q-106 6 -106 108v589h41v-589q0 -64 64 -70zM257 699l-6 -45l-63 -105l-9 1l5 148q0 16 11 26.5t25 10.5q15 0 26.5 -10.5t10.5 -25.5z" />
    <glyph glyph-name="Lslash" unicode="&#x141;" horiz-adv-x="506" 
d="M476 44v-44h-399v278l-39 -17v38l39 17v382h46v-362l169 73v-37l-169 -74v-254h353z" />
    <glyph glyph-name="lslash" unicode="&#x142;" horiz-adv-x="259" 
d="M221 386v-38l-82 -34v-205q0 -64 52 -70v-38q-95 6 -95 108v186l-60 -24v38l60 24v365h43v-346z" />
    <glyph glyph-name="Nacute" unicode="&#x143;" horiz-adv-x="625" 
d="M551 698v-698h-49l-382 622v-622h-46v698h50l381 -622v622h46zM325 903h58l-99 -148h-43z" />
    <glyph glyph-name="nacute" unicode="&#x144;" horiz-adv-x="508" 
d="M448 273v-273h-41v272q0 83 -34.5 129t-118.5 46q-59 0 -100.5 -38.5t-41.5 -85.5v-323h-43v480h39l1 -72q24 42 64 61.5t82 19.5q193 0 193 -216zM267 682h58l-99 -148h-44z" />
    <glyph glyph-name="Ncommaaccent" unicode="&#x145;" horiz-adv-x="625" 
d="M551 698v-698h-49l-382 622v-622h-46v698h50l381 -622v622h46zM327 -109v-30l-62 -99h-10v129q0 14 10.5 24t24.5 10q17 0 27 -10t10 -24z" />
    <glyph glyph-name="ncommaaccent" unicode="&#x146;" horiz-adv-x="508" 
d="M448 273v-273h-41v272q0 83 -34.5 129t-118.5 46q-59 0 -100.5 -38.5t-41.5 -85.5v-323h-43v480h39l1 -72q24 42 64 61.5t82 19.5q193 0 193 -216zM289 -109v-30l-62 -99h-10v129q0 14 10.5 24t24.5 10q17 0 27 -10t10 -24z" />
    <glyph glyph-name="Ncaron" unicode="&#x147;" horiz-adv-x="625" 
d="M551 0v698h-46v-622l-381 622h-50v-698h46v622l382 -622h49zM440 902l-104 -147h-48l-103 147h51l76 -119l76 119h52z" />
    <glyph glyph-name="ncaron" unicode="&#x148;" horiz-adv-x="508" 
d="M448 0v273q0 216 -193 216q-42 0 -82 -19.5t-64 -61.5l-1 72h-39v-480h43v323q0 47 41.5 85.5t100.5 38.5q84 0 118.5 -46t34.5 -129v-272h41zM381 681l-104 -147h-48l-103 147h51l75 -119l77 119h52z" />
    <glyph glyph-name="Eng" unicode="&#x14a;" horiz-adv-x="625" 
d="M551 698v-726q0 -181 -166 -191l-6 39q129 8 129 153v16l-388 633v-622h-46v698h50l381 -622v622h46z" />
    <glyph glyph-name="eng" unicode="&#x14b;" horiz-adv-x="508" 
d="M448 273v-301q0 -181 -165 -191l-6 39q130 8 130 153v299q0 83 -34.5 129t-118.5 46q-59 0 -100.5 -38.5t-41.5 -85.5v-323h-43v480h39l1 -72q24 42 64 61.5t82 19.5q193 0 193 -216z" />
    <glyph glyph-name="Omacron" unicode="&#x14c;" horiz-adv-x="640" 
d="M596 349q0 -72 -14.5 -133.5t-45 -113.5t-86 -81.5t-130.5 -29.5t-130 29.5t-86 81.5t-45.5 113.5t-14.5 133.5t14.5 133.5t45.5 113.5t86 81.5t130 29.5t130.5 -29.5t86 -81.5t45 -113.5t14.5 -133.5zM551 349q0 47 -5.5 88.5t-21.5 84t-41 72.5t-66.5 49t-96.5 19
t-96.5 -19t-66.5 -49t-40.5 -73t-21 -84t-5.5 -88t5.5 -88t21 -84t40.5 -73t66.5 -49t96.5 -19t96.5 19t66.5 49t41 72.5t21.5 84t5.5 88.5zM453 813v-41h-266v41h266z" />
    <glyph glyph-name="omacron" unicode="&#x14d;" horiz-adv-x="493" 
d="M450 239q0 -248 -203 -248t-203 248q0 250 203 250t203 -250zM407 239q0 44 -6.5 78t-22.5 65.5t-49.5 48.5t-81.5 17q-49 0 -82 -17t-49.5 -48.5t-22.5 -65.5t-6 -78t6 -77t22.5 -64.5t49.5 -48.5t81 -17t81.5 17t50 48t23 65t6.5 77zM379 592v-41h-266v41h266z" />
    <glyph glyph-name="Obreve" unicode="&#x14e;" horiz-adv-x="640" 
d="M596 349q0 -72 -14.5 -133.5t-45 -113.5t-86 -81.5t-130.5 -29.5t-130 29.5t-86 81.5t-45.5 113.5t-14.5 133.5t14.5 133.5t45.5 113.5t86 81.5t130 29.5t130.5 -29.5t86 -81.5t45 -113.5t14.5 -133.5zM551 349q0 47 -5.5 88.5t-21.5 84t-41 72.5t-66.5 49t-96.5 19
t-96.5 -19t-66.5 -49t-40.5 -73t-21 -84t-5.5 -88t5.5 -88t21 -84t40.5 -73t66.5 -49t96.5 -19t96.5 19t66.5 49t41 72.5t21.5 84t5.5 88.5zM432 885h38q-48 -127 -151 -127q-102 0 -149 127h37q45 -89 112 -89q39 0 65 22.5t48 66.5z" />
    <glyph glyph-name="obreve" unicode="&#x14f;" horiz-adv-x="493" 
d="M450 239q0 -248 -203 -248t-203 248q0 250 203 250t203 -250zM407 239q0 44 -6.5 78t-22.5 65.5t-49.5 48.5t-81.5 17q-49 0 -82 -17t-49.5 -48.5t-22.5 -65.5t-6 -78t6 -77t22.5 -64.5t49.5 -48.5t81 -17t81.5 17t50 48t23 65t6.5 77zM359 664h38q-48 -127 -151 -127
q-102 0 -149 127h37q45 -89 112 -89q39 0 65 22.5t48 66.5z" />
    <glyph glyph-name="Ohungarumlaut" unicode="&#x150;" horiz-adv-x="640" 
d="M596 349q0 -72 -14.5 -133.5t-45 -113.5t-86 -81.5t-130.5 -29.5t-130 29.5t-86 81.5t-45.5 113.5t-14.5 133.5t14.5 133.5t45.5 113.5t86 81.5t130 29.5t130.5 -29.5t86 -81.5t45 -113.5t14.5 -133.5zM551 349q0 47 -5.5 88.5t-21.5 84t-41 72.5t-66.5 49t-96.5 19
t-96.5 -19t-66.5 -49t-40.5 -73t-21 -84t-5.5 -88t5.5 -88t21 -84t40.5 -73t66.5 -49t96.5 -19t96.5 19t66.5 49t41 72.5t21.5 84t5.5 88.5zM392 912h53l-92 -147h-38zM271 912h54l-93 -147h-37z" />
    <glyph glyph-name="ohungarumlaut" unicode="&#x151;" horiz-adv-x="493" 
d="M450 239q0 -248 -203 -248t-203 248q0 250 203 250t203 -250zM407 239q0 44 -6.5 78t-22.5 65.5t-49.5 48.5t-81.5 17q-49 0 -82 -17t-49.5 -48.5t-22.5 -65.5t-6 -78t6 -77t22.5 -64.5t49.5 -48.5t81 -17t81.5 17t50 48t23 65t6.5 77zM319 691h53l-92 -147h-38zM198 691
h54l-93 -147h-37z" />
    <glyph glyph-name="OE" unicode="&#x152;" horiz-adv-x="1007" 
d="M953 0h-410v148q-60 -157 -227 -157q-59 0 -106.5 20t-78 53.5t-50.5 80t-28.5 97t-8.5 107.5t8.5 107.5t28.5 97t50.5 80t78 53.5t106.5 20q72 0 135 -36.5t92 -116.5v144h410v-45h-365v-268h316v-44h-316v-296h365v-45zM543 349q0 60 -10 111t-33.5 99t-70.5 75.5
t-113 27.5t-113 -27.5t-70.5 -75.5t-33.5 -99t-10 -111t10 -110.5t33.5 -99t70.5 -76t113 -27.5t113 27.5t70.5 76t33.5 99t10 110.5z" />
    <glyph glyph-name="oe" unicode="&#x153;" horiz-adv-x="823" 
d="M738 84l31 -28q-59 -65 -159 -65q-130 0 -189 117q-55 -117 -179 -117q-198 0 -198 247q0 249 198 249q123 0 179 -118q58 118 179 118q91 0 135.5 -62t44.5 -160v-31h-339q3 -203 169 -203q81 0 128 53zM442 268h297q-4 179 -139 179q-146 0 -158 -179zM399 238
q0 44 -6.5 78t-22.5 65t-48.5 48t-79.5 17t-79.5 -17t-48.5 -48.5t-22.5 -65t-6.5 -77.5q0 -43 6.5 -76.5t22.5 -64.5t48.5 -48t79.5 -17t79.5 17t48.5 48t22.5 64.5t6.5 76.5z" />
    <glyph glyph-name="Racute" unicode="&#x154;" horiz-adv-x="598" 
d="M532 511q0 -167 -198 -183q30 -20 60 -71l154 -257h-53l-149 252q-20 33 -43 53t-58 20h-125v-325h-46v698h238q102 0 161 -45.5t59 -141.5zM487 511q0 143 -175 143h-192v-288h192q175 0 175 145zM281 903h59l-99 -148h-44z" />
    <glyph glyph-name="racute" unicode="&#x155;" horiz-adv-x="379" 
d="M345 471l-19 -37q-39 13 -67 13q-58 0 -102.5 -37.5t-44.5 -89.5v-320h-43v480h40v-78q47 85 150 85q47 0 86 -16zM198 682h58l-99 -148h-44z" />
    <glyph glyph-name="Rcommaaccent" unicode="&#x156;" horiz-adv-x="598" 
d="M532 511q0 -167 -198 -183q30 -20 60 -71l154 -257h-53l-149 252q-20 33 -43 53t-58 20h-125v-325h-46v698h238q102 0 161 -45.5t59 -141.5zM487 511q0 143 -175 143h-192v-288h192q175 0 175 145zM323 -109v-30l-62 -99h-10v129q0 14 10.5 24t24.5 10q17 0 27 -10
t10 -24z" />
    <glyph glyph-name="rcommaaccent" unicode="&#x157;" horiz-adv-x="379" 
d="M345 471l-19 -37q-39 13 -67 13q-58 0 -102.5 -37.5t-44.5 -89.5v-320h-43v480h40v-78q47 85 150 85q47 0 86 -16zM130 -109v-30l-62 -99h-10v129q0 14 10.5 24t24.5 10q17 0 27 -10t10 -24z" />
    <glyph glyph-name="Rcaron" unicode="&#x158;" horiz-adv-x="598" 
d="M532 511q0 96 -59 141.5t-161 45.5h-238v-698h46v325h125q35 0 58 -20t43 -53l149 -252h53l-154 257q-30 51 -60 71q198 16 198 183zM487 511q0 -145 -175 -145h-192v288h192q175 0 175 -143zM405 902l-105 -147h-48l-103 147h51l76 -119l76 119h53z" />
    <glyph glyph-name="rcaron" unicode="&#x159;" horiz-adv-x="379" 
d="M345 471q-39 16 -86 16q-103 0 -150 -85v78h-40v-480h43v320q0 52 44.5 89.5t102.5 37.5q28 0 67 -13zM317 681l-104 -147h-48l-103 147h51l75 -119l77 119h52z" />
    <glyph glyph-name="Sacute" unicode="&#x15a;" horiz-adv-x="598" 
d="M555 191q0 -93 -71.5 -146.5t-171.5 -53.5q-226 0 -266 174l44 8q33 -140 222 -140q77 0 137.5 41t60.5 117q0 46 -24.5 77t-63 47t-85.5 27.5l-94 24t-85.5 30t-63 51.5t-24.5 84q0 85 64 129t156 44q169 0 236 -131l-39 -18q-57 105 -197 105q-43 0 -80 -10.5t-66 -41
t-29 -77.5q0 -40 24.5 -67t63 -41t85.5 -25t94 -24.5t85.5 -33.5t63 -58t24.5 -92zM312 903h59l-100 -148h-43z" />
    <glyph glyph-name="sacute" unicode="&#x15b;" horiz-adv-x="450" 
d="M412 132q0 -65 -53 -103t-125 -38q-73 0 -124.5 29.5t-67.5 91.5l39 9q26 -91 153 -91q51 0 93 25t42 76q0 41 -32 64.5t-78.5 34t-92.5 22t-78 39.5t-32 75q0 60 47 91t115 31q119 0 170 -86l-35 -18q-38 64 -133 64q-28 0 -52.5 -5.5t-46.5 -25t-22 -51.5
q0 -35 32 -55.5t78.5 -30.5t92.5 -22.5t78 -43.5t32 -82zM238 682h59l-100 -148h-43z" />
    <glyph glyph-name="Scircumflex" unicode="&#x15c;" horiz-adv-x="598" 
d="M555 191q0 -93 -71.5 -146.5t-171.5 -53.5q-226 0 -266 174l44 8q33 -140 222 -140q77 0 137.5 41t60.5 117q0 46 -24.5 77t-63 47t-85.5 27.5l-94 24t-85.5 30t-63 51.5t-24.5 84q0 85 64 129t156 44q169 0 236 -131l-39 -18q-57 105 -197 105q-43 0 -80 -10.5t-66 -41
t-29 -77.5q0 -40 24.5 -67t63 -41t85.5 -25t94 -24.5t85.5 -33.5t63 -58t24.5 -92zM323 902l104 -147h-53l-76 119l-76 -119h-51l103 147h49z" />
    <glyph glyph-name="scircumflex" unicode="&#x15d;" horiz-adv-x="450" 
d="M412 132q0 -65 -53 -103t-125 -38q-73 0 -124.5 29.5t-67.5 91.5l39 9q26 -91 153 -91q51 0 93 25t42 76q0 41 -32 64.5t-78.5 34t-92.5 22t-78 39.5t-32 75q0 60 47 91t115 31q119 0 170 -86l-35 -18q-38 64 -133 64q-28 0 -52.5 -5.5t-46.5 -25t-22 -51.5
q0 -35 32 -55.5t78.5 -30.5t92.5 -22.5t78 -43.5t32 -82zM249 681l104 -147h-52l-76 119l-76 -119h-51l103 147h48z" />
    <glyph glyph-name="Scedilla" unicode="&#x15e;" horiz-adv-x="598" 
d="M336 -7l27 -62l-72 -128h-56l92 131l-26 57q-217 5 -255 174l44 8q33 -140 222 -140q77 0 137.5 41t60.5 117q0 46 -24.5 77t-63 47t-85.5 27.5l-94 24t-85.5 30t-63 51.5t-24.5 84q0 85 64 129t156 44q169 0 236 -131l-39 -18q-57 105 -197 105q-43 0 -80 -10.5t-66 -41
t-29 -77.5q0 -40 24.5 -67t63 -41t85.5 -25t94 -24.5t85.5 -33.5t63 -58t24.5 -92q0 -87 -63 -139.5t-156 -58.5z" />
    <glyph glyph-name="scedilla" unicode="&#x15f;" horiz-adv-x="450" 
d="M260 -7l29 -62l-71 -128h-56l91 131l-26 57q-157 4 -185 121l39 9q26 -91 153 -91q51 0 93 25t42 76q0 41 -32 64.5t-78.5 34t-92.5 22t-78 39.5t-32 75q0 60 47 91t115 31q119 0 170 -86l-35 -18q-38 64 -133 64q-28 0 -52.5 -5.5t-46.5 -25t-22 -51.5q0 -35 32 -55.5
t78.5 -30.5t92.5 -22.5t78 -43.5t32 -82q0 -60 -43.5 -96t-108.5 -43z" />
    <glyph glyph-name="Scaron" unicode="&#x160;" horiz-adv-x="598" 
d="M555 191q0 54 -24.5 92t-63 58t-85.5 33.5t-94 24.5t-85.5 25t-63 41t-24.5 67q0 47 29 77.5t66 41t80 10.5q140 0 197 -105l39 18q-67 131 -236 131q-92 0 -156 -44t-64 -129q0 -50 24.5 -84t63 -51.5t85.5 -30l94 -24t85.5 -27.5t63 -47t24.5 -77q0 -76 -60.5 -117
t-137.5 -41q-189 0 -222 140l-44 -8q40 -174 266 -174q100 0 171.5 53.5t71.5 146.5zM427 902l-104 -147h-49l-103 147h51l76 -119l76 119h53z" />
    <glyph glyph-name="scaron" unicode="&#x161;" horiz-adv-x="450" 
d="M412 132q0 51 -32 82t-78 43.5t-92.5 22.5t-78.5 30.5t-32 55.5q0 32 22 51.5t46.5 25t52.5 5.5q95 0 133 -64l35 18q-51 86 -170 86q-68 0 -115 -31t-47 -91q0 -47 32 -75t78 -39.5t92.5 -22t78.5 -34t32 -64.5q0 -51 -42 -76t-93 -25q-127 0 -153 91l-39 -9
q16 -62 67.5 -91.5t124.5 -29.5q72 0 125 38t53 103zM353 681l-104 -147h-48l-103 147h51l76 -119l76 119h52z" />
    <glyph glyph-name="Tcommaaccent" unicode="&#x162;" horiz-adv-x="543" 
d="M522 698v-44h-228v-654h-45v654h-227v44h500zM307 -109v-30l-62 -99h-10v129q0 14 10.5 24t24.5 10q17 0 27 -10t10 -24z" />
    <glyph glyph-name="tcommaaccent" unicode="&#x163;" horiz-adv-x="280" 
d="M235 480v-38h-86v-331q0 -40 16 -55.5t55 -17.5v-38h-15q-50 0 -74.5 29t-24.5 80v333h-75v38h75v146h43v-146h86zM183 -109v-30l-62 -99h-10v129q0 14 10.5 24t24.5 10q17 0 27 -10t10 -24z" />
    <glyph glyph-name="Tcaron" unicode="&#x164;" horiz-adv-x="543" 
d="M522 654v44h-500v-44h227v-654h45v654h228zM399 902l-104 -147h-48l-103 147h51l76 -119l76 119h52z" />
    <glyph glyph-name="tcaron" unicode="&#x165;" horiz-adv-x="280" 
d="M235 480v-38h-86v-331q0 -40 16 -55.5t55 -17.5v-38h-15q-50 0 -74.5 29t-24.5 80v333h-75v38h75v146h43v-146h86zM310 704v-160h-59v160q0 11 9 20t21 9t20.5 -9t8.5 -20z" />
    <glyph glyph-name="Tbar" unicode="&#x166;" horiz-adv-x="543" 
d="M522 698v-44h-228v-224h148v-34h-148v-396h-45v396h-147v34h147v224h-227v44h500z" />
    <glyph glyph-name="tbar" unicode="&#x167;" horiz-adv-x="280" 
d="M236 304v-34h-87v-159q0 -40 16 -55.5t55 -17.5v-38h-15q-50 0 -74.5 29t-24.5 80v161h-75v34h75v138h-75v38h75v146h43v-146h86v-38h-86v-138h87z" />
    <glyph glyph-name="Utilde" unicode="&#x168;" horiz-adv-x="637" 
d="M569 698v-401q0 -145 -57.5 -225.5t-192.5 -80.5q-250 0 -250 306v401h45v-399q0 -56 8.5 -99t29.5 -82.5t63 -60.5t104 -21q50 0 87 15t59 38.5t35.5 59t18 71t4.5 79.5v399h46zM430 833l27 -26q-36 -52 -78 -52q-31 0 -64.5 28.5t-54.5 28.5q-28 0 -53 -36l-27 26
q35 51 79 51q31 0 64 -28t54 -28q30 0 53 36z" />
    <glyph glyph-name="utilde" unicode="&#x169;" horiz-adv-x="503" 
d="M438 480v-480h-38v67q-60 -75 -147 -75q-102 0 -148 51.5t-46 156.5v280h43v-278q0 -84 33 -126.5t118 -42.5q51 0 97.5 33t46.5 85v329h41zM363 612l27 -26q-36 -52 -78 -52q-31 0 -64.5 28.5t-54.5 28.5q-28 0 -53 -36l-27 26q35 51 79 51q30 0 63 -28t55 -28
q30 0 53 36z" />
    <glyph glyph-name="Umacron" unicode="&#x16a;" horiz-adv-x="637" 
d="M569 698v-401q0 -145 -57.5 -225.5t-192.5 -80.5q-250 0 -250 306v401h45v-399q0 -56 8.5 -99t29.5 -82.5t63 -60.5t104 -21q50 0 87 15t59 38.5t35.5 59t18 71t4.5 79.5v399h46zM452 813v-41h-266v41h266z" />
    <glyph glyph-name="umacron" unicode="&#x16b;" horiz-adv-x="503" 
d="M438 480v-480h-38v67q-60 -75 -147 -75q-102 0 -148 51.5t-46 156.5v280h43v-278q0 -84 33 -126.5t118 -42.5q51 0 97.5 33t46.5 85v329h41zM385 592v-41h-266v41h266z" />
    <glyph glyph-name="Ubreve" unicode="&#x16c;" horiz-adv-x="637" 
d="M569 698v-401q0 -145 -57.5 -225.5t-192.5 -80.5q-250 0 -250 306v401h45v-399q0 -56 8.5 -99t29.5 -82.5t63 -60.5t104 -21q50 0 87 15t59 38.5t35.5 59t18 71t4.5 79.5v399h46zM431 885h37q-47 -127 -150 -127q-102 0 -150 127h38q22 -44 47.5 -66.5t64.5 -22.5
q38 0 64 22.5t49 66.5z" />
    <glyph glyph-name="ubreve" unicode="&#x16d;" horiz-adv-x="503" 
d="M438 480v-480h-38v67q-60 -75 -147 -75q-102 0 -148 51.5t-46 156.5v280h43v-278q0 -84 33 -126.5t118 -42.5q51 0 97.5 33t46.5 85v329h41zM364 664h37q-47 -127 -150 -127q-102 0 -150 127h38q22 -44 47.5 -66.5t64.5 -22.5t64 22t49 67z" />
    <glyph glyph-name="Uring" unicode="&#x16e;" horiz-adv-x="637" 
d="M569 698v-401q0 -145 -57.5 -225.5t-192.5 -80.5q-250 0 -250 306v401h45v-399q0 -56 8.5 -99t29.5 -82.5t63 -60.5t104 -21q50 0 87 15t59 38.5t35.5 59t18 71t4.5 79.5v399h46zM416 855q0 -40 -28.5 -69t-68.5 -29q-41 0 -70 29t-29 69q0 41 29 69.5t70 28.5
q40 0 68.5 -29t28.5 -69zM376 855q0 24 -17 41t-40 17q-25 0 -41.5 -17t-16.5 -41t16.5 -41t41.5 -17q23 0 40 17t17 41z" />
    <glyph glyph-name="uring" unicode="&#x16f;" horiz-adv-x="503" 
d="M438 480v-480h-38v67q-60 -75 -147 -75q-102 0 -148 51.5t-46 156.5v280h43v-278q0 -84 33 -126.5t118 -42.5q51 0 97.5 33t46.5 85v329h41zM350 634q0 -40 -29 -69t-69 -29q-41 0 -70 29t-29 69q0 41 29 69.5t70 28.5q40 0 69 -29t29 -69zM309 634q0 24 -17 41t-40 17
q-25 0 -41.5 -17t-16.5 -41t16.5 -41t41.5 -17q23 0 40 17t17 41z" />
    <glyph glyph-name="Uhungarumlaut" unicode="&#x170;" horiz-adv-x="637" 
d="M569 698v-401q0 -145 -57.5 -225.5t-192.5 -80.5q-250 0 -250 306v401h45v-399q0 -56 8.5 -99t29.5 -82.5t63 -60.5t104 -21q50 0 87 15t59 38.5t35.5 59t18 71t4.5 79.5v399h46zM390 912h54l-93 -147h-38zM269 912h54l-92 -147h-38z" />
    <glyph glyph-name="uhungarumlaut" unicode="&#x171;" horiz-adv-x="503" 
d="M438 480v-480h-38v67q-60 -75 -147 -75q-102 0 -148 51.5t-46 156.5v280h43v-278q0 -84 33 -126.5t118 -42.5q51 0 97.5 33t46.5 85v329h41zM323 691h54l-93 -147h-38zM203 691h54l-93 -147h-38z" />
    <glyph glyph-name="Uogonek" unicode="&#x172;" horiz-adv-x="637" 
d="M401 1l120 -198h-56l-101 192q-26 -4 -45 -4q-250 0 -250 306v401h45v-399q0 -56 8.5 -99t29.5 -82.5t63 -60.5t104 -21q50 0 87 15t59 38.5t35.5 59t18 71t4.5 79.5v399h46v-401q0 -252 -168 -296z" />
    <glyph glyph-name="uogonek" unicode="&#x173;" horiz-adv-x="503" 
d="M429 0l119 -197h-56l-92 197v67q-60 -75 -147 -75q-102 0 -148 51.5t-46 156.5v280h43v-278q0 -84 33 -126.5t118 -42.5q51 0 97.5 33t46.5 85v329h41v-480h-9z" />
    <glyph glyph-name="Wcircumflex" unicode="&#x174;" horiz-adv-x="782" 
d="M706 698h45l-163 -698h-52l-146 616l-145 -616h-52l-163 698h46l144 -622l147 622h46l148 -622zM414 902l104 -147h-52l-77 119l-75 -119h-51l103 147h48z" />
    <glyph glyph-name="wcircumflex" unicode="&#x175;" horiz-adv-x="737" 
d="M670 480h44l-152 -480h-46l-149 423l-148 -423h-47l-149 480h45l128 -425l149 425h45l148 -426zM392 681l104 -147h-52l-77 119l-75 -119h-52l103 147h49z" />
    <glyph glyph-name="Ycircumflex" unicode="&#x176;" horiz-adv-x="566" 
d="M487 698h50l-231 -467v-231h-45v231l-231 467h50l203 -415zM306 902l104 -147h-52l-77 119l-75 -119h-51l103 147h48z" />
    <glyph glyph-name="ycircumflex" unicode="&#x177;" horiz-adv-x="459" 
d="M390 480h45l-230 -604q-37 -97 -137 -96h-10v38h10q71 0 98 71l41 108l-183 483h45l160 -427zM254 681l104 -147h-53l-76 119l-76 -119h-51l103 147h49z" />
    <glyph glyph-name="Ydieresis" unicode="&#x178;" horiz-adv-x="566" 
d="M487 698h50l-231 -467v-231h-45v231l-231 467h50l203 -415zM411 802q0 -16 -11 -27.5t-27 -11.5q-17 0 -28 11.5t-11 27.5t11.5 27.5t27.5 11.5t27 -11.5t11 -27.5zM231 802q0 -16 -11.5 -27.5t-27.5 -11.5t-27 11.5t-11 27.5t11 27.5t27 11.5t27.5 -11.5t11.5 -27.5z
" />
    <glyph glyph-name="Zacute" unicode="&#x179;" horiz-adv-x="576" 
d="M522 45v-45h-478v43l423 611h-387v44h440v-47l-420 -606h422zM301 903h58l-99 -148h-44z" />
    <glyph glyph-name="zacute" unicode="&#x17a;" horiz-adv-x="454" 
d="M408 41v-41h-367v47l317 393h-294v40h344v-44l-320 -395h320zM240 682h58l-99 -148h-44z" />
    <glyph glyph-name="Zdotaccent" unicode="&#x17b;" horiz-adv-x="576" 
d="M522 45v-45h-478v43l423 611h-387v44h440v-47l-420 -606h422zM335 806q0 -18 -14.5 -32t-33.5 -14t-32.5 14t-13.5 32q0 20 13.5 34t32.5 14t33.5 -14t14.5 -34z" />
    <glyph glyph-name="zdotaccent" unicode="&#x17c;" horiz-adv-x="454" 
d="M408 41v-41h-367v47l317 393h-294v40h344v-44l-320 -395h320zM274 585q0 -18 -14 -32t-33 -14t-32.5 14t-13.5 32q0 20 13.5 34t32.5 14t33 -14t14 -34z" />
    <glyph glyph-name="Zcaron" unicode="&#x17d;" horiz-adv-x="576" 
d="M522 0v45h-422l420 606v47h-440v-44h387l-423 -611v-43h478zM415 902l-104 -147h-48l-103 147h51l76 -119l76 119h52z" />
    <glyph glyph-name="zcaron" unicode="&#x17e;" horiz-adv-x="454" 
d="M408 0v41h-320l320 395v44h-344v-40h294l-317 -393v-47h367zM355 681l-104 -147h-48l-104 147h52l75 -119l77 119h52z" />
    <glyph glyph-name="florin" unicode="&#x192;" horiz-adv-x="371" 
d="M344 698v-39q-129 -6 -158 -157q0 -2 -6.5 -38t-7.5 -37h85v-39h-92l-107 -587l-39 7l106 580h-67v39h74q0 2 7 40t8 39q34 184 197 192z" />
    <glyph glyph-name="Aringacute" unicode="&#x1fa;" horiz-adv-x="624" 
d="M342 698l268 -698h-48l-81 214h-338l-82 -214h-47l268 698h60zM158 254h307l-154 401zM305 1011h54l-59 -79l11 1q37 0 63 -26t26 -62t-26 -62t-63 -26t-63 26t-26 62q0 33 21 56zM363 845q0 22 -15 37t-37 15t-37 -15t-15 -37t15 -37t37 -15t37 15t15 37z" />
    <glyph glyph-name="aringacute" unicode="&#x1fb;" horiz-adv-x="470" 
d="M408 75l15 -72l-37 -9l-15 58q-73 -62 -157 -62q-75 0 -122.5 37t-47.5 106q0 64 45.5 100.5t116.5 37.5h75q60 0 86 27v53q0 45 -38.5 72t-83.5 27q-105 0 -137 -75l-37 12q42 103 177 103q62 0 111 -38.5t49 -96.5v-280zM367 94v164q-40 -22 -76 -22h-84q-50 0 -86 -26
t-36 -77q0 -52 38.5 -78.5t90.5 -26.5q84 0 153 66zM236 790h54l-59 -79l12 1q36 0 62 -26t26 -62t-26 -62t-62 -26q-37 0 -63.5 26t-26.5 62q0 33 21 56zM294 624q0 22 -15 37t-36 15q-22 0 -37.5 -15t-15.5 -37t15.5 -37t37.5 -15q21 0 36 15t15 37z" />
    <glyph glyph-name="AEacute" unicode="&#x1fc;" horiz-adv-x="911" 
d="M865 44v-44h-409l1 214h-267l-121 -214h-50l397 698h449v-44h-363v-269h315v-44h-315v-297h363zM213 254h244v395h-18zM500 903h59l-99 -148h-44z" />
    <glyph glyph-name="aeacute" unicode="&#x1fd;" horiz-adv-x="775" 
d="M38 133q0 64 45 101t115 37h71q59 0 83 28v48q0 44 -37 72t-79 28q-100 0 -134 -76l-38 12q41 103 173 103q46 0 86 -23t62 -72q59 96 170 96q91 0 135.5 -63t44.5 -161v-29h-342q3 -203 171 -203q80 0 125 52l30 -27q-55 -65 -155 -65q-119 0 -173 86q-46 -47 -88.5 -67
t-98.5 -20q-73 0 -119.5 36.5t-46.5 106.5zM370 112q-18 52 -18 146q-33 -22 -72 -22h-81q-50 0 -85 -26t-35 -76q0 -51 37.5 -78t88.5 -27q47 0 85.5 19.5t79.5 63.5zM393 268h301q-6 179 -140 179q-74 0 -116 -48.5t-45 -130.5zM402 682h59l-100 -148h-43z" />
    <glyph glyph-name="Oslashacute" unicode="&#x1fe;" horiz-adv-x="640" 
d="M596 349q0 -72 -14.5 -133.5t-45 -113.5t-86 -81.5t-130.5 -29.5q-84 0 -155 47l-21 -40h-42l34 63q-92 101 -92 288q0 72 14.5 133.5t45.5 113.5t86 81.5t130 29.5q80 0 151 -43l19 36h42l-32 -58q96 -101 96 -293zM551 349q0 159 -74 250l-290 -521q58 -42 133 -42
q55 0 96.5 19t66.5 49t41 72.5t21.5 84t5.5 88.5zM159 104l290 520q-56 38 -129 38q-55 0 -96.5 -19t-66.5 -49t-40.5 -72.5t-21 -84t-5.5 -88.5q0 -154 69 -245zM333 903h58l-99 -148h-44z" />
    <glyph glyph-name="oslashacute" unicode="&#x1ff;" horiz-adv-x="502" 
d="M450 238q0 -247 -203 -247q-61 0 -113 28l-13 -22h-34l22 39q-65 69 -65 202q0 249 203 249q61 0 110 -28l15 25h35l-24 -41q67 -68 67 -205zM407 238q0 103 -46 164l-206 -345q42 -25 91 -25t82.5 17t49.5 48t22.5 64.5t6.5 76.5zM131 77l206 345q-44 24 -90 24
q-49 0 -82.5 -17t-49.5 -48.5t-22.5 -65t-6.5 -77.5q0 -99 45 -161zM264 682h59l-100 -148h-43z" />
    <glyph glyph-name="Scommaaccent" unicode="&#x218;" horiz-adv-x="598" 
d="M555 191q0 -93 -71.5 -146.5t-171.5 -53.5q-226 0 -266 174l44 8q33 -140 222 -140q77 0 137.5 41t60.5 117q0 46 -24.5 77t-63 47t-85.5 27.5l-94 24t-85.5 30t-63 51.5t-24.5 84q0 85 64 129t156 44q169 0 236 -131l-39 -18q-57 105 -197 105q-43 0 -80 -10.5t-66 -41
t-29 -77.5q0 -40 24.5 -67t63 -41t85.5 -25t94 -24.5t85.5 -33.5t63 -58t24.5 -92zM332 -109v-30l-62 -99h-10v129q0 14 10.5 24t24.5 10q17 0 27 -10t10 -24z" />
    <glyph glyph-name="scommaaccent" unicode="&#x219;" horiz-adv-x="450" 
d="M412 132q0 -65 -53 -103t-125 -38q-73 0 -124.5 29.5t-67.5 91.5l39 9q26 -91 153 -91q51 0 93 25t42 76q0 41 -32 64.5t-78.5 34t-92.5 22t-78 39.5t-32 75q0 60 47 91t115 31q119 0 170 -86l-35 -18q-38 64 -133 64q-28 0 -52.5 -5.5t-46.5 -25t-22 -51.5
q0 -35 32 -55.5t78.5 -30.5t92.5 -22.5t78 -43.5t32 -82zM268 -109v-30l-62 -99h-10v129q0 14 10.5 24t24.5 10q17 0 27 -10t10 -24z" />
    <glyph glyph-name="circumflex" unicode="&#x2c6;" horiz-adv-x="503" 
d="M274 681l104 -147h-53l-76 119l-76 -119h-51l103 147h49z" />
    <glyph glyph-name="caron" unicode="&#x2c7;" horiz-adv-x="477" 
d="M378 681l-104 -147h-49l-103 147h51l76 -119l76 119h53z" />
    <glyph glyph-name="breve" unicode="&#x2d8;" horiz-adv-x="497" 
d="M361 664h37q-47 -127 -150 -127q-102 0 -150 127h38q22 -44 47.5 -66.5t64.5 -22.5t64 22t49 67z" />
    <glyph glyph-name="dotaccent" unicode="&#x2d9;" horiz-adv-x="507" 
d="M300 585q0 -18 -14 -32t-33 -14t-32.5 14t-13.5 32q0 20 13.5 34t32.5 14t33 -14t14 -34z" />
    <glyph glyph-name="ring" unicode="&#x2da;" horiz-adv-x="493" 
d="M345 634q0 -40 -29 -69t-69 -29q-41 0 -70 29t-29 69q0 41 29 69.5t70 28.5t69.5 -29t28.5 -69zM304 634q0 24 -17 41t-40 17q-25 0 -41.5 -17t-16.5 -41t16.5 -41t41.5 -17q23 0 40 17t17 41z" />
    <glyph glyph-name="ogonek" unicode="&#x2db;" horiz-adv-x="519" 
d="M227 1l119 -198h-56l-104 198h41z" />
    <glyph glyph-name="tilde" unicode="&#x2dc;" horiz-adv-x="501" 
d="M359 612l28 -26q-36 -52 -79 -52q-30 0 -63.5 28.5t-55.5 28.5q-27 0 -52 -36l-28 26q35 51 79 51q31 0 64.5 -28t54.5 -28q29 0 52 36z" />
    <glyph glyph-name="hungarumlaut" unicode="&#x2dd;" horiz-adv-x="445" 
d="M328 691h54l-93 -147h-38zM207 691h54l-93 -147h-37z" />
    <glyph glyph-name="gravecomb" unicode="&#x300;" horiz-adv-x="308" 
d="M142 726l84 -148h-44l-99 148h59z" />
    <glyph glyph-name="acutecomb" unicode="&#x301;" horiz-adv-x="291" 
d="M158 726h59l-100 -148h-43z" />
    <glyph glyph-name="circumflexcomb" unicode="&#x302;" horiz-adv-x="503" 
d="M274 725l104 -147h-53l-76 119l-76 -119h-51l103 147h49z" />
    <glyph glyph-name="tildecomb" unicode="&#x303;" horiz-adv-x="501" 
d="M359 656l28 -26q-36 -52 -79 -52q-30 0 -63.5 28.5t-55.5 28.5q-27 0 -52 -36l-28 26q35 51 79 51q31 0 64.5 -28t54.5 -28q29 0 52 36z" />
    <glyph glyph-name="macroncomb" unicode="&#x304;" horiz-adv-x="494" 
d="M380 636v-41h-266v41h266z" />
    <glyph glyph-name="brevecomb" unicode="&#x306;" horiz-adv-x="497" 
d="M361 708h37q-47 -127 -150 -127q-102 0 -150 127h38q22 -44 47.5 -66.5t64.5 -22.5t64 22t49 67z" />
    <glyph glyph-name="dotaccentcomb" unicode="&#x307;" horiz-adv-x="507" 
d="M300 629q0 -18 -14 -32t-33 -14t-32.5 14t-13.5 32q0 20 13.5 34t32.5 14t33 -14t14 -34z" />
    <glyph glyph-name="dieresiscomb" unicode="&#x308;" horiz-adv-x="487" 
d="M372 625q0 -17 -11 -28t-27 -11t-27.5 11.5t-11.5 27.5t11.5 27.5t27.5 11.5t27 -11.5t11 -27.5zM193 625q0 -16 -11.5 -27.5t-27.5 -11.5t-27.5 11t-11.5 28q0 16 11.5 27.5t27.5 11.5t27.5 -11.5t11.5 -27.5z" />
    <glyph glyph-name="Delta" unicode="&#x394;" horiz-adv-x="577" 
d="M289 680l269 -680h-538zM74 36h430l-215 546z" />
    <glyph glyph-name="Delta" unicode="&#x2206;" horiz-adv-x="577" 
d="M289 680l269 -680h-538zM74 36h430l-215 546z" />
    <glyph glyph-name="Omega" unicode="&#x3a9;" horiz-adv-x="616" 
d="M568 350q0 -204 -131 -315h110l7 -35h-169v36q81 54 112 130t31 184q0 43 -5.5 83.5t-21 82.5t-39.5 73t-63.5 50.5t-90.5 19.5q-63 0 -108 -28.5t-68.5 -77t-33.5 -98.5t-10 -105q0 -108 31 -184t112 -130v-36h-168l7 35h110q-131 111 -131 315q0 54 8 102.5t27.5 94
t48.5 78.5t74 53t101 20q70 0 122 -29.5t81 -80.5t43 -110.5t14 -127.5z" />
    <glyph glyph-name="Omega" unicode="&#x2126;" horiz-adv-x="616" 
d="M568 350q0 -204 -131 -315h110l7 -35h-169v36q81 54 112 130t31 184q0 43 -5.5 83.5t-21 82.5t-39.5 73t-63.5 50.5t-90.5 19.5q-63 0 -108 -28.5t-68.5 -77t-33.5 -98.5t-10 -105q0 -108 31 -184t112 -130v-36h-168l7 35h110q-131 111 -131 315q0 54 8 102.5t27.5 94
t48.5 78.5t74 53t101 20q70 0 122 -29.5t81 -80.5t43 -110.5t14 -127.5z" />
    <glyph glyph-name="pi" unicode="&#x3c0;" horiz-adv-x="538" 
d="M492 38v-38h-14q-94 0 -94 109v334h-279v-443h-39v480h357v-370q0 -40 15 -55t54 -17z" />
    <glyph glyph-name="Wgrave" unicode="&#x1e80;" horiz-adv-x="782" 
d="M706 698h45l-163 -698h-52l-146 616l-145 -616h-52l-163 698h46l144 -622l147 622h46l148 -622zM327 903l84 -148h-44l-99 148h59z" />
    <glyph glyph-name="wgrave" unicode="&#x1e81;" horiz-adv-x="737" 
d="M670 480h44l-152 -480h-46l-149 423l-148 -423h-47l-149 480h45l128 -425l149 425h45l148 -426zM305 682l84 -148h-44l-99 148h59z" />
    <glyph glyph-name="Wacute" unicode="&#x1e82;" horiz-adv-x="782" 
d="M706 698h45l-163 -698h-52l-146 616l-145 -616h-52l-163 698h46l144 -622l147 622h46l148 -622zM454 903h59l-100 -148h-43z" />
    <glyph glyph-name="wacute" unicode="&#x1e83;" horiz-adv-x="737" 
d="M670 480h44l-152 -480h-46l-149 423l-148 -423h-47l-149 480h45l128 -425l149 425h45l148 -426zM430 682h58l-99 -148h-44z" />
    <glyph glyph-name="Wdieresis" unicode="&#x1e84;" horiz-adv-x="782" 
d="M706 698h45l-163 -698h-52l-146 616l-145 -616h-52l-163 698h46l144 -622l147 622h46l148 -622zM519 802q0 -16 -11 -27.5t-27 -11.5q-17 0 -28 11.5t-11 27.5t11.5 27.5t27.5 11.5t27 -11.5t11 -27.5zM339 802q0 -16 -11.5 -27.5t-27.5 -11.5t-27 11.5t-11 27.5t11 27.5
t27 11.5t27.5 -11.5t11.5 -27.5z" />
    <glyph glyph-name="wdieresis" unicode="&#x1e85;" horiz-adv-x="737" 
d="M670 480h44l-152 -480h-46l-149 423l-148 -423h-47l-149 480h45l128 -425l149 425h45l148 -426zM497 581q0 -16 -11 -27.5t-27 -11.5q-17 0 -28.5 11.5t-11.5 27.5t12 27.5t28 11.5t27 -11.5t11 -27.5zM317 581q0 -16 -11.5 -27.5t-27.5 -11.5t-27 11t-11 28
q0 16 11 27.5t27 11.5t27.5 -11.5t11.5 -27.5z" />
    <glyph glyph-name="Ygrave" unicode="&#x1ef2;" horiz-adv-x="566" 
d="M487 698h50l-231 -467v-231h-45v231l-231 467h50l203 -415zM270 903l84 -148h-43l-100 148h59z" />
    <glyph glyph-name="ygrave" unicode="&#x1ef3;" horiz-adv-x="459" 
d="M390 480h45l-230 -604q-37 -97 -137 -96h-10v38h10q71 0 98 71l41 108l-183 483h45l160 -427zM217 682l84 -148h-44l-99 148h59z" />
    <glyph glyph-name="endash" unicode="&#x2013;" horiz-adv-x="516" 
d="M460 293v-40h-404v40h404z" />
    <glyph glyph-name="emdash" unicode="&#x2014;" horiz-adv-x="796" 
d="M740 293v-40h-684v40h684z" />
    <glyph glyph-name="quoteleft" unicode="&#x2018;" horiz-adv-x="234" 
d="M152 727h10l-6 -149q-1 -15 -11.5 -26t-25.5 -11t-26 11t-9 25l6 46z" />
    <glyph glyph-name="quoteright" unicode="&#x2019;" horiz-adv-x="234" 
d="M151 699l-6 -45l-63 -105l-9 1l5 148q1 16 11.5 26.5t24.5 10.5q15 0 26.5 -10.5t10.5 -25.5z" />
    <glyph glyph-name="quotesinglbase" unicode="&#x201a;" horiz-adv-x="234" 
d="M157 57l-6 -46l-62 -104h-10l5 149q1 15 11.5 25.5t24.5 10.5q15 0 26.5 -10.5t10.5 -24.5z" />
    <glyph glyph-name="quotedblleft" unicode="&#x201c;" horiz-adv-x="370" 
d="M302 727l-6 -149q-1 -15 -11.5 -26t-25.5 -11t-26 11t-10 25l7 46l62 104h10zM146 727l-6 -149q-1 -15 -11.5 -26t-25.5 -11t-26 11t-10 25l7 46l62 104h10z" />
    <glyph glyph-name="quotedblright" unicode="&#x201d;" horiz-adv-x="370" 
d="M67 541l6 149q1 15 11.5 26t25.5 11t26 -11t10 -25l-7 -46l-62 -104h-10zM223 541l6 149q1 15 11.5 26t25.5 11t26 -11t10 -25l-7 -46l-62 -104h-10z" />
    <glyph glyph-name="quotedblbase" unicode="&#x201e;" horiz-adv-x="370" 
d="M67 -109l6 149q1 15 11.5 26t25.5 11t26 -11t10 -25l-7 -46l-62 -104h-10zM223 -109l6 149q1 15 11.5 26t25.5 11t26 -11t10 -25l-7 -46l-62 -104h-10z" />
    <glyph glyph-name="dagger" unicode="&#x2020;" horiz-adv-x="513" 
d="M452 503v-39h-176v-464h-39v464h-175v39h175v195h39v-195h176z" />
    <glyph glyph-name="daggerdbl" unicode="&#x2021;" horiz-adv-x="515" 
d="M452 60v-38h-176v-223h-39v223h-175v38h175v377h-175v38h175v223h39v-223h176v-38h-176v-377h176z" />
    <glyph glyph-name="bullet" unicode="&#x2022;" horiz-adv-x="443" 
d="M372 337q0 -62 -44 -106t-107 -44q-62 0 -106 44t-44 106t44 106.5t106 44.5q63 0 107 -44.5t44 -106.5z" />
    <glyph glyph-name="ellipsis" unicode="&#x2026;" horiz-adv-x="526" 
d="M452 33q0 -18 -12 -29.5t-29 -11.5t-29 11.5t-12 29.5q0 17 12 29t29 12t29 -12t12 -29zM304 33q0 -18 -12 -29.5t-29 -11.5t-29 11.5t-12 29.5q0 17 12 29t29 12t29 -12t12 -29zM156 33q0 -18 -12 -29.5t-30 -11.5q-17 0 -28.5 11.5t-11.5 29.5q0 17 12 29t28 12
q18 0 30 -12t12 -29z" />
    <glyph glyph-name="perthousand" unicode="&#x2030;" horiz-adv-x="754" 
d="M723 182q0 -82 -25.5 -137t-82.5 -55q-68 0 -91 81q-28 -81 -90 -81q-57 0 -82.5 55t-25.5 137q0 83 25.5 138t82.5 55q68 0 90 -82q29 82 91 82q57 0 82.5 -55t25.5 -138zM379 698h40l-226 -698h-40zM246 516q0 -83 -25.5 -138t-81.5 -55q-57 0 -83 55t-26 138
q0 82 26 137t83 55q56 0 81.5 -55t25.5 -137zM690 182q0 161 -75 161q-74 0 -74 -161q0 -160 74 -160q75 0 75 160zM508 182q0 161 -74 161q-75 0 -75 -161q0 -160 75 -160q74 0 74 160zM212 516q0 160 -73 160q-75 0 -75 -160q0 -161 75 -161q73 0 73 161z" />
    <glyph glyph-name="guilsinglleft" unicode="&#x2039;" horiz-adv-x="307" 
d="M47 279l205 187v-52l-174 -157l174 -158v-52l-205 187v45z" />
    <glyph glyph-name="guilsinglright" unicode="&#x203a;" horiz-adv-x="307" 
d="M252 279v-45l-204 -187v52l173 158l-173 157v52z" />
    <glyph glyph-name="fraction" unicode="&#x2044;" horiz-adv-x="147" 
d="M213 698h35l-316 -698h-33z" />
    <glyph glyph-name="fraction" unicode="&#x2215;" horiz-adv-x="147" 
d="M213 698h35l-316 -698h-33z" />
    <glyph glyph-name="zerosuperior" unicode="&#x2070;" horiz-adv-x="360" 
d="M328 482q0 -41 -7 -78t-22.5 -71.5t-46 -55.5t-72.5 -21q-56 0 -91 37.5t-46 84.5t-11 104t11 103.5t46 84t91 37.5q42 0 72.5 -20.5t46 -55t22.5 -71.5t7 -78zM299 482q0 33 -4 62t-15.5 63t-37 54t-62.5 20q-38 0 -63.5 -20t-37 -54t-15.5 -63t-4 -62t4 -62.5
t15.5 -63.5t37 -54t63.5 -20q119 0 119 200z" />
    <glyph glyph-name="foursuperior" unicode="&#x2074;" horiz-adv-x="346" 
d="M315 403v-26h-43v-117h-28v117h-216v29l189 297h30l-191 -300h188v181l28 -4v-177h43z" />
    <glyph glyph-name="fivesuperior" unicode="&#x2075;" horiz-adv-x="337" 
d="M307 407q0 -68 -38 -109.5t-106 -41.5q-44 0 -76.5 21t-47.5 60l26 9q12 -31 38.5 -47.5t60.5 -16.5q55 0 85 35.5t30 89.5q0 53 -29.5 87.5t-84.5 34.5q-49 0 -87 -33h-28v207h226v-25h-201v-157q42 33 90 33q67 0 104.5 -40.5t37.5 -106.5z" />
    <glyph glyph-name="sixsuperior" unicode="&#x2076;" horiz-adv-x="342" 
d="M311 392q0 -59 -39.5 -97.5t-98.5 -38.5q-65 0 -104 44t-39 109q0 85 43.5 164t114.5 130h35q-130 -92 -162 -242q38 72 114 72q60 0 98 -40.5t38 -100.5zM283 392q0 49 -30.5 82t-78.5 33q-46 0 -80 -33.5t-34 -80.5q0 -45 34 -78t80 -33t77.5 32t31.5 78z" />
    <glyph glyph-name="sevensuperior" unicode="&#x2077;" horiz-adv-x="313" 
d="M288 703v-25q-70 -85 -110.5 -183.5t-38.5 -234.5h-32q-1 236 150 417h-206v-38h-27v64h264z" />
    <glyph glyph-name="eightsuperior" unicode="&#x2078;" horiz-adv-x="339" 
d="M308 382q0 -57 -39.5 -91.5t-99.5 -34.5t-99 34.5t-39 91.5q0 85 83 112q-35 13 -52.5 41t-17.5 59q0 50 36 81.5t89 31.5t89.5 -31.5t36.5 -81.5q0 -73 -71 -100q84 -27 84 -112zM266 593q0 39 -28.5 64t-68.5 25q-39 0 -68 -25t-29 -64q0 -42 27.5 -65t69.5 -23
q43 0 70 23t27 65zM279 382q0 47 -31 73.5t-79 26.5t-78.5 -26t-30.5 -74q0 -44 32 -72t77 -28q46 0 78 28t32 72z" />
    <glyph glyph-name="ninesuperior" unicode="&#x2079;" horiz-adv-x="333" 
d="M301 555q0 -83 -41 -162.5t-114 -132.5h-35q134 103 159 242q-37 -64 -108 -64q-57 0 -95.5 38.5t-38.5 95.5q0 56 39 96t96 40q64 0 101 -44t37 -109zM271 573q0 44 -32 76t-77 32t-76.5 -32.5t-31.5 -75.5q0 -44 31.5 -76.5t76.5 -32.5q47 0 78 31.5t31 77.5z" />
    <glyph glyph-name="zeroinferior" unicode="&#x2080;" horiz-adv-x="360" 
d="M328 222q0 -41 -7 -78t-22.5 -71.5t-46 -55.5t-72.5 -21q-56 0 -91 37.5t-46 84.5t-11 104t11 103.5t46 84t91 37.5q42 0 72.5 -20.5t46 -55t22.5 -71.5t7 -78zM299 222q0 33 -4 62t-15.5 63t-37 54t-62.5 20q-38 0 -63.5 -20t-37 -54t-15.5 -63t-4 -62t4 -62.5
t15.5 -63.5t37 -54t63.5 -20q119 0 119 200z" />
    <glyph glyph-name="oneinferior" unicode="&#x2081;" horiz-adv-x="229" 
d="M150 443v-443h-29v407l-77 -55l-15 20l96 71h25z" />
    <glyph glyph-name="twoinferior" unicode="&#x2082;" horiz-adv-x="349" 
d="M312 27v-27h-274v23q14 55 43.5 96.5t61 64.5l61.5 44t49 46.5t19 58.5q0 42 -31 65.5t-74 23.5q-66 0 -99 -59l-24 14q41 71 123 71q59 0 96 -30.5t37 -85.5q0 -37 -19 -66t-48.5 -50.5l-60.5 -44t-59.5 -59.5t-41.5 -85h241z" />
    <glyph glyph-name="threeinferior" unicode="&#x2083;" horiz-adv-x="327" 
d="M295 122q0 -58 -38.5 -92t-96.5 -34q-97 0 -127 80l26 9q12 -31 39.5 -47t61.5 -16q45 0 76 27.5t31 72.5q0 49 -31 73.5t-81 24.5v22q46 2 73.5 24t27.5 66q0 39 -30 65t-70 26q-31 0 -56.5 -16t-38.5 -43l-24 10q33 74 121 74q53 0 89 -32t36 -84q0 -76 -70 -100
q82 -26 82 -110z" />
    <glyph glyph-name="fourinferior" unicode="&#x2084;" horiz-adv-x="346" 
d="M315 143v-26h-43v-117h-28v117h-216v29l189 297h30l-191 -300h188v181l28 -4v-177h43z" />
    <glyph glyph-name="fiveinferior" unicode="&#x2085;" horiz-adv-x="337" 
d="M307 147q0 -68 -38 -109.5t-106 -41.5q-44 0 -76.5 21t-47.5 60l26 9q12 -31 38.5 -47.5t60.5 -16.5q55 0 85 35.5t30 89.5q0 53 -29.5 87.5t-84.5 34.5q-49 0 -87 -33h-28v207h226v-25h-201v-157q42 33 90 33q67 0 104.5 -40.5t37.5 -106.5z" />
    <glyph glyph-name="sixinferior" unicode="&#x2086;" horiz-adv-x="342" 
d="M311 132q0 -59 -39.5 -97.5t-98.5 -38.5q-65 0 -104 44t-39 109q0 85 43.5 164t114.5 130h35q-130 -92 -162 -242q38 72 114 72q60 0 98 -40.5t38 -100.5zM283 132q0 49 -30.5 82t-78.5 33q-46 0 -80 -33.5t-34 -80.5q0 -45 34 -78t80 -33t77.5 32t31.5 78z" />
    <glyph glyph-name="seveninferior" unicode="&#x2087;" horiz-adv-x="313" 
d="M288 443v-25q-70 -85 -110.5 -183.5t-38.5 -234.5h-32q-1 236 150 417h-206v-38h-27v64h264z" />
    <glyph glyph-name="eightinferior" unicode="&#x2088;" horiz-adv-x="339" 
d="M308 122q0 -57 -39.5 -91.5t-99.5 -34.5t-99 34.5t-39 91.5q0 85 83 112q-35 13 -52.5 41t-17.5 59q0 50 36 81.5t89 31.5t89.5 -31.5t36.5 -81.5q0 -73 -71 -100q84 -27 84 -112zM266 333q0 39 -28.5 64t-68.5 25q-39 0 -68 -25t-29 -64q0 -42 27.5 -65t69.5 -23
q43 0 70 23t27 65zM279 122q0 47 -31 73.5t-79 26.5t-78.5 -26t-30.5 -74q0 -44 32 -72t77 -28q46 0 78 28t32 72z" />
    <glyph glyph-name="nineinferior" unicode="&#x2089;" horiz-adv-x="333" 
d="M301 295q0 -83 -41 -162.5t-114 -132.5h-35q134 103 159 242q-37 -64 -108 -64q-57 0 -95.5 38.5t-38.5 95.5q0 56 39 96t96 40q64 0 101 -44t37 -109zM271 313q0 44 -32 76t-77 32t-76.5 -32.5t-31.5 -75.5q0 -44 31.5 -76.5t76.5 -32.5q47 0 78 31.5t31 77.5z" />
    <glyph glyph-name="colonmonetary" unicode="&#x20a1;" horiz-adv-x="551" 
d="M371 -1v-74h-33v68q-20 -2 -31 -2q-17 0 -34 3v-69h-33v75q-68 17 -113 70.5t-62.5 123t-17.5 155.5q0 133 46.5 228.5t146.5 120.5v76h33v-70q16 3 34 3q11 0 31 -2v69h33v-75q70 -18 130 -94l-33 -32q-37 46 -73.5 67.5t-87.5 21.5q-62 0 -105.5 -27.5t-66 -75t-32 -99
t-9.5 -111.5t9.5 -111.5t32 -99t66 -75t105.5 -27.5q51 0 88 22.5t74 68.5l33 -32q-62 -79 -131 -96z" />
    <glyph glyph-name="franc" unicode="&#x20a3;" horiz-adv-x="474" 
d="M263 243v-37h-144v-206h-45v206h-74v37h74v455h360v-44h-315v-271h275v-41h-275v-99h144z" />
    <glyph glyph-name="lira" unicode="&#x20a4;" horiz-adv-x="512" 
d="M132 270h-85l6 33h75q-2 8 -6.5 28t-6.5 31h-68l6 33h54q-13 67 -13 107q0 88 49 144t137 56q60 0 99.5 -18.5t80.5 -62.5l-33 -27q-32 35 -65 51t-82 16q-72 0 -107.5 -45t-35.5 -115q0 -43 13 -106h137l-7 -33h-124q10 -40 14 -59h117l-7 -33h-105q5 -52 5 -62
q0 -72 -39 -167h318v-41h-369v38q44 89 47 167q0 38 -5 65z" />
    <glyph glyph-name="peseta" unicode="&#x20a7;" horiz-adv-x="523" 
d="M486 527h56v-36h-55q-11 -171 -227 -171h-140v-320h-46v491h-65v36h65v171h185q218 0 227 -171zM120 361h138q173 0 183 130h-321v-130zM258 654h-138v-128h320q-6 73 -54.5 100.5t-127.5 27.5z" />
    <glyph glyph-name="Euro" unicode="&#x20ac;" horiz-adv-x="607" 
d="M540 94l26 -35q-69 -68 -173 -68q-109 0 -180 68.5t-91 184.5h-74l8 36h61q-4 46 -2 105h-67l8 36h63q13 127 81.5 206.5t192.5 79.5q103 0 173 -67l-27 -35q-63 57 -146 57q-102 0 -159 -66t-69 -175h254l-8 -36h-251q0 -69 3 -105h256l-8 -36h-243q19 -96 77 -152
t148 -56q85 0 147 58z" />
    <glyph glyph-name="trademark" unicode="&#x2122;" horiz-adv-x="481" 
d="M425 698v-210h-24v159l-61 -159h-25l-61 159v-159h-23v210h24l72 -183l73 183h25zM201 698v-23h-68v-187h-22v187h-68v23h158z" />
    <glyph glyph-name="partialdiff" unicode="&#x2202;" horiz-adv-x="504" 
d="M443 203q0 -84 -56.5 -145.5t-140.5 -61.5q-85 0 -141 59.5t-56 148.5q0 86 52 146t141 60q90 0 159 -93q-4 37 -10 74.5t-20 88.5t-32 89t-47.5 65t-65.5 27q-60 0 -112 -60l-30 27q65 74 142 74q53 0 94 -40t63.5 -97t36.5 -130t18.5 -128.5t4.5 -103.5zM403 204
q0 66 -46.5 116.5t-114.5 50.5q-71 0 -112 -50t-41 -117q0 -71 44 -120t114 -49q68 0 112 51t44 118z" />
    <glyph glyph-name="product" unicode="&#x220f;" horiz-adv-x="605" 
d="M525 744v-940h-39v903h-367v-903h-39v940h445z" />
    <glyph glyph-name="summation" unicode="&#x2211;" horiz-adv-x="515" 
d="M459 -181v-38h-403v42l274 416l-274 418v41h403v-38h-357l275 -421l-275 -420h357z" />
    <glyph glyph-name="minus" unicode="&#x2212;" 
d="M442 302v-57h-400v57h400z" />
    <glyph glyph-name="radical" unicode="&#x221a;" horiz-adv-x="614" 
d="M580 694v-38h-98l-190 -656h-44l-192 474h42l171 -424l184 644h127z" />
    <glyph glyph-name="infinity" unicode="&#x221e;" horiz-adv-x="767" 
d="M721 252q0 -57 -38.5 -93t-93.5 -36q-80 0 -205 111q-127 -111 -206 -111q-59 0 -95.5 41t-36.5 103q0 57 38.5 92.5t93.5 35.5q81 0 206 -111q123 111 205 111q59 0 95.5 -40.5t36.5 -102.5zM682 253q0 45 -25 73.5t-68 28.5q-66 0 -175 -96q112 -96 175 -96q39 0 66 24
t27 66zM353 259q-109 96 -175 96q-39 0 -66 -23.5t-27 -65.5q0 -45 25 -74t68 -29q63 0 175 96z" />
    <glyph glyph-name="integral" unicode="&#x222b;" horiz-adv-x="319" 
d="M284 698v-37h-39q-66 0 -66 -70v-678q0 -51 -24.5 -80t-74.5 -29h-45v39h37q38 0 52.5 17.5t14.5 52.5v678q0 50 24.5 78.5t75.5 28.5h45z" />
    <glyph glyph-name="approxequal" unicode="&#x2248;" horiz-adv-x="501" 
d="M425 377l27 -24q-44 -44 -99 -44q-37 0 -104 25t-105 25q-36 0 -69 -31l-26 24q45 45 99 45q38 0 104.5 -25t103.5 -25q41 0 69 30zM425 217l27 -24q-45 -45 -99 -45q-37 0 -104 25t-105 25t-69 -31l-26 24q24 25 45.5 35.5t53.5 10.5q38 0 104.5 -25t103.5 -25
q41 0 69 30z" />
    <glyph glyph-name="notequal" unicode="&#x2260;" horiz-adv-x="517" 
d="M461 179v-41h-230l-38 -104l-26 9l35 95h-146v41h161l54 149h-215v40h230l38 105l26 -9l-35 -96h146v-40h-160l-55 -149h215z" />
    <glyph glyph-name="lessequal" unicode="&#x2264;" horiz-adv-x="478" 
d="M423 124v-43l-367 167v49l367 167v-43l-326 -148zM423 40v-40h-367v40h367z" />
    <glyph glyph-name="greaterequal" unicode="&#x2265;" horiz-adv-x="478" 
d="M423 297v-49l-367 -167v43l325 149l-325 148v43zM423 40v-40h-367v40h367z" />
    <glyph glyph-name="lozenge" unicode="&#x25ca;" horiz-adv-x="541" 
d="M270 680l210 -335l-210 -336l-210 336zM270 72l170 273l-170 272l-171 -272z" />
    <glyph glyph-name="CR" horiz-adv-x="275" 
 />
    <glyph glyph-name="Imacron" horiz-adv-x="230" 
d="M137 698v-698h-45v698h45zM249 813v-41h-267v41h267z" />
    <glyph glyph-name="ibreve" horiz-adv-x="210" 
d="M126 480v-480h-42v480h42zM218 664h37q-47 -127 -150 -127q-102 0 -150 127h38q22 -44 47.5 -66.5t64.5 -22.5t64 22t49 67z" />
    <glyph glyph-name="zerooldstyle" horiz-adv-x="593" 
d="M528 243q0 -116 -58 -182t-173 -66t-173.5 66t-58.5 182q0 115 58.5 181t173.5 66t173 -65.5t58 -181.5zM485 243q0 95 -46 151.5t-142 56.5t-142 -56.5t-46 -151.5q0 -96 46 -152.5t142 -56.5t142 56.5t46 152.5z" />
    <glyph glyph-name="oneoldstyle" horiz-adv-x="389" 
d="M258 480v-480h-44v420l-153 -86l-22 36l198 110h21z" />
    <glyph glyph-name="twooldstyle" horiz-adv-x="557" 
d="M492 42v-42h-417v35q18 61 63 103t95.5 63t98.5 38.5t79.5 41.5t31.5 60q0 55 -43 81.5t-108 26.5q-53 0 -98.5 -23t-69.5 -66l-37 19q27 53 80.5 81.5t119.5 29.5q91 1 146 -34t55 -115q0 -44 -28.5 -73.5t-73.5 -47.5l-93.5 -36.5t-96 -54t-72.5 -87.5h368z" />
    <glyph glyph-name="threeoldstyle" horiz-adv-x="497" 
d="M452 -15q0 -89 -60 -143t-153 -54q-146 0 -197 117l38 23q19 -47 62 -72.5t97 -25.5q72 0 120 42.5t48 112.5q0 77 -48 114t-127 40v32q159 6 159 138q0 61 -48 101.5t-111 40.5q-48 0 -88 -24.5t-59 -66.5l-37 22q27 52 76 80.5t112 28.5q84 0 140.5 -50.5t56.5 -131.5
q0 -110 -109 -153q128 -40 128 -171z" />
    <glyph glyph-name="fouroldstyle" horiz-adv-x="538" 
d="M493 52v-42h-69v-192h-42v192h-342v47l299 468h47l-300 -473h296v286l42 -7v-279h69z" />
    <glyph glyph-name="fiveoldstyle" horiz-adv-x="516" 
d="M471 19q0 -106 -59.5 -170.5t-166.5 -64.5q-67 0 -118 32t-75 89l39 17q20 -46 61 -71t94 -25q87 0 134 54t47 139q0 84 -46 137.5t-133 53.5q-78 0 -137 -53h-44v324h356v-40h-317v-248q70 57 143 57q106 0 164 -63t58 -168z" />
    <glyph glyph-name="sixoldstyle" horiz-adv-x="536" 
d="M490 207q0 -92 -62 -152.5t-155 -60.5q-103 0 -163.5 69t-60.5 173q0 138 67 260t182 205l24 -27q-183 -141 -227 -359q59 114 180 114q96 0 155.5 -63t59.5 -159zM447 208q0 76 -48.5 128t-125.5 52q-72 0 -125 -52.5t-53 -124.5t53 -123.5t125 -51.5q74 0 124 49.5
t50 122.5z" />
    <glyph glyph-name="sevenoldstyle" horiz-adv-x="488" 
d="M456 481v-40q-113 -137 -178 -291.5t-62 -366.5l-50 18q2 204 66.5 356t172.5 282h-325v-59h-41v101h417z" />
    <glyph glyph-name="eightoldstyle" horiz-adv-x="535" 
d="M486 193q0 -90 -62.5 -145t-156.5 -55t-156 55t-62 145q0 130 131 176q-55 20 -82.5 63.5t-27.5 92.5q0 80 56.5 130t140.5 50t141 -50t57 -130q0 -49 -26.5 -92t-84.5 -64q132 -43 132 -176zM420 524q0 62 -45.5 101.5t-107.5 39.5t-107.5 -39.5t-45.5 -101.5
q0 -66 43.5 -102.5t109.5 -36.5q67 0 110 36.5t43 102.5zM441 193q0 74 -49 115t-125 41t-124.5 -40.5t-48.5 -115.5q0 -70 51 -114t123 -44q71 0 122 44t51 114z" />
    <glyph glyph-name="nineoldstyle" horiz-adv-x="531" 
d="M483 249q0 -135 -62.5 -259t-181.5 -208l-26 28q86 63 145.5 152t75.5 200q-56 -98 -170 -98q-91 0 -151 60.5t-60 150.5q0 89 61 151.5t151 62.5q101 0 159.5 -69t58.5 -171zM436 277q0 70 -50 120.5t-121 50.5q-72 0 -121 -51.5t-49 -120.5t49.5 -120t120.5 -51
q74 0 122.5 50t48.5 122z" />
    <glyph glyph-name="zero.fitted" 
d="M431 349q0 -64 -9 -122t-28.5 -113.5t-58.5 -88t-93 -32.5q-44 0 -78 22.5t-54.5 57.5t-34 83t-18.5 95t-5 98q0 65 9 123t29 112.5t59 87t93 32.5t93 -32.5t58.5 -87t28.5 -112.5t9 -123zM385 349q0 51 -5 98t-19 99.5t-44.5 84.5t-74.5 32t-75 -32t-44.5 -85
t-18.5 -99.5t-5 -97.5q0 -39 2.5 -76t11.5 -82.5t24 -78.5t42 -55.5t63 -22.5t63 22.5t42 55.5t24 78.5t11.5 82.5t2.5 76z" />
    <glyph glyph-name="one.fitted" 
d="M75 0v44h145v598l-122 -89l-23 33l152 112h38v-654h144v-44h-334z" />
    <glyph glyph-name="two.fitted" 
d="M426 42v-42h-368v35q15 72 45.5 129.5t64 92t69.5 67.5l64.5 58t47 62t18.5 81q0 66 -39.5 102.5t-96.5 36.5q-40 0 -74.5 -24.5t-55.5 -68.5l-37 21q56 114 166 114q79 0 130 -48.5t51 -133.5q0 -57 -25.5 -102.5t-65 -80.5l-81 -72t-79.5 -95.5t-54 -131.5h320z" />
    <glyph glyph-name="three.fitted" 
d="M428 192q0 -91 -54.5 -145t-138.5 -54q-137 0 -178 125l39 17q17 -49 54.5 -74.5t84.5 -25.5q62 0 105 43.5t43 113.5q0 76 -45 115t-116 41v33q65 2 105.5 37t40.5 105q0 66 -36.5 103.5t-102.5 37.5q-42 0 -77 -24.5t-52 -67.5l-38 17q24 57 68 87t101 30
q89 0 134.5 -52t45.5 -131q0 -53 -27.5 -95t-71.5 -63q53 -21 84.5 -66t31.5 -107z" />
    <glyph glyph-name="four.fitted" 
d="M429 226v-42h-55v-184h-39v184h-281v46l244 468h44l-246 -472h239v285l39 -7v-278h55z" />
    <glyph glyph-name="five.fitted" 
d="M425 231q0 -106 -52 -171.5t-143 -65.5q-61 0 -106 33t-65 94l40 15q16 -49 51 -75t81 -26q73 0 112 55.5t39 140.5q0 84 -38.5 138.5t-112.5 54.5q-64 0 -115 -53h-42v327h309v-41h-271v-243q55 50 120 50q91 0 142 -64t51 -169z" />
    <glyph glyph-name="six.fitted" 
d="M427 207q0 -92 -52 -152.5t-129 -60.5q-86 0 -138 68.5t-52 171.5q0 134 56.5 258.5t150.5 205.5h49q-165 -143 -208 -368q48 99 144 99q79 0 129 -63t50 -159zM385 208q0 76 -39 128t-100 52q-59 0 -102 -52t-43 -125q0 -71 43.5 -123t101.5 -52q59 0 99 49.5t40 122.5z
" />
    <glyph glyph-name="seven.fitted" 
d="M434 698v-40q-47 -64 -81.5 -124t-68 -141.5t-51 -181t-16.5 -211.5h-46q0 209 59 366t158 290h-301v-59h-38v101h385z" />
    <glyph glyph-name="eight.fitted" 
d="M429 193q0 -90 -54 -145t-133 -55q-80 0 -134 55t-54 145q0 57 29 104.5t85 71.5q-45 21 -70.5 65.5t-25.5 90.5q0 80 49.5 130t120.5 50q70 0 120 -50.5t50 -129.5q0 -45 -25.5 -88.5t-72.5 -67.5q58 -24 86.5 -71t28.5 -105zM371 524q0 61 -39 101t-90 40
q-52 0 -90.5 -39.5t-38.5 -101.5q0 -65 37 -102t92 -37t92 37t37 102zM388 193q0 73 -42.5 114.5t-103.5 41.5q-62 0 -104 -41t-42 -115q0 -70 43.5 -114t102.5 -44t102.5 44t43.5 114z" />
    <glyph glyph-name="nine.fitted" 
d="M428 464q0 -129 -56 -254.5t-156 -209.5h-49q175 153 212 370q-49 -90 -141 -90q-78 0 -130 61t-52 151q0 89 52.5 151t130.5 62q88 0 138.5 -69t50.5 -172zM384 492q0 69 -42.5 120t-102.5 51q-59 0 -100.5 -51.5t-41.5 -120.5t41.5 -120t101.5 -51q62 0 103 49.5
t41 122.5z" />
    <glyph glyph-name="zero.taboldstyle" 
d="M429 243q0 -116 -47 -182t-140 -66t-140.5 66t-47.5 182q0 115 47.5 181t140.5 66t140 -66t47 -181zM387 243q0 95 -35.5 151.5t-109.5 56.5t-109.5 -56.5t-35.5 -151.5q0 -96 35.5 -152.5t109.5 -56.5t109.5 56.5t35.5 152.5z" />
    <glyph glyph-name="one.taboldstyle" 
d="M75 0v44h145v382l-123 -89l-22 31l152 112h38v-436h144v-44h-334z" />
    <glyph glyph-name="two.taboldstyle" 
d="M429 42v-42h-376v35q13 51 44 89.5t66.5 59t74.5 39t70.5 32t52 35.5t20.5 51q0 55 -37.5 81.5t-94.5 26.5q-47 0 -87.5 -23t-61.5 -67l-36 20q25 53 73.5 81.5t107.5 29.5q81 1 131 -34.5t50 -114.5q0 -43 -28 -73t-71 -49.5l-87.5 -39t-83.5 -54.5t-54 -83h327z" />
    <glyph glyph-name="three.taboldstyle" 
d="M428 -15q0 -91 -54.5 -144t-138.5 -53q-137 0 -178 125l39 17q17 -49 54.5 -74.5t84.5 -25.5q63 0 105.5 42.5t42.5 112.5q0 76 -45 113.5t-116 39.5v33q66 2 106 35.5t40 102.5q0 66 -36.5 103t-102.5 37q-42 0 -77 -24.5t-52 -67.5l-38 17q24 57 68 87t101 30
q89 0 134.5 -51.5t45.5 -130.5q0 -52 -27 -92.5t-72 -61.5q54 -21 85 -64.5t31 -105.5z" />
    <glyph glyph-name="four.taboldstyle" 
d="M429 52v-42h-55v-192h-39v192h-281v46l244 468h44l-246 -472h239v285l39 -7v-278h55z" />
    <glyph glyph-name="five.taboldstyle" 
d="M425 19q0 -106 -52 -170.5t-143 -64.5q-60 0 -105.5 33.5t-65.5 94.5l40 14q16 -48 51 -74t81 -26q73 0 112 53.5t39 139.5q0 84 -38.5 137.5t-112.5 53.5q-64 0 -115 -53h-42v323h309v-40h-271v-240q55 50 120 50q91 0 142 -63.5t51 -167.5z" />
    <glyph glyph-name="six.taboldstyle" 
d="M427 207q0 -92 -52 -152.5t-130 -60.5q-87 0 -138 69t-51 173q0 137 56 260t154 207l24 -26q-149 -138 -186 -347q45 99 143 99q79 0 129.5 -63t50.5 -159zM384 208q0 77 -38.5 128.5t-100.5 51.5q-59 0 -101.5 -52t-42.5 -125q0 -72 42.5 -123.5t101.5 -51.5t99 49.5
t40 122.5z" />
    <glyph glyph-name="seven.taboldstyle" 
d="M434 480v-39q-47 -65 -81.5 -124.5t-68 -141.5t-51 -181.5t-16.5 -211.5l-46 16q0 200 59 353t158 288h-301v-60h-38v101h385z" />
    <glyph glyph-name="eight.taboldstyle" 
d="M429 193q0 -90 -54 -145t-133 -55q-80 0 -134 55t-54 145q0 57 29 104.5t85 71.5q-45 21 -70.5 65.5t-25.5 90.5q0 80 49.5 130t120.5 50q70 0 120 -50.5t50 -129.5q0 -45 -25.5 -88.5t-72.5 -67.5q58 -24 86.5 -71t28.5 -105zM371 524q0 61 -39 101t-90 40
q-52 0 -90.5 -39.5t-38.5 -101.5q0 -65 37 -102t92 -37t92 37t37 102zM388 193q0 73 -42.5 114.5t-103.5 41.5q-62 0 -104 -41t-42 -115q0 -70 43.5 -114t102.5 -44t102.5 44t43.5 114z" />
    <glyph glyph-name="nine.taboldstyle" 
d="M56 276q0 92 52.5 152.5t130.5 60.5q87 0 138 -69t51 -174q0 -137 -56.5 -259.5t-154.5 -206.5l-24 26q148 136 187 347q-52 -90 -143 -90q-81 0 -131 59t-50 154zM100 275q0 -76 38 -123.5t101 -47.5q60 0 102 48t42 120t-42.5 123.5t-101.5 51.5t-99 -49.5t-40 -122.5z
" />
    <glyph glyph-name="rupiah" horiz-adv-x="984" 
d="M941 240q0 -248 -190 -248q-89 0 -138 79v-291h-43v220h-100l-149 252q-20 33 -43 53t-58 20h-100v-325h-46v698h213q102 0 161.5 -45.5t59.5 -141.5q0 -165 -199 -183q31 -20 61 -73l127 -213h73v438h39l1 -77q48 88 142 88q189 0 189 -251zM899 240q0 43 -5 74.5
t-19 64.5t-45.5 51t-78.5 18q-55 0 -96.5 -40t-41.5 -88v-158q0 -51 41 -90t97 -39q47 0 78.5 18t45.5 51t19 64.5t5 73.5zM462 511q0 143 -175 143h-168v-288h168q175 0 175 145z" />
    <glyph glyph-name="Euro.fitted" 
d="M422 93l28 -34q-31 -36 -63 -52t-77 -16q-85 0 -143.5 71.5t-74.5 181.5h-58l6 36h48q-4 43 -2 105h-52l6 36h49q12 122 69 204t152 82q84 0 140 -66l-28 -36q-28 32 -53 44.5t-59 12.5q-75 0 -120.5 -69.5t-53.5 -171.5h198l-6 -36h-196q-1 -55 2 -105h200l-6 -36h-190
q13 -89 59.5 -148.5t112.5 -59.5q63 0 112 57z" />
    <glyph glyph-name="dollar.fitted" 
d="M429 224q0 -72 -48 -116t-116 -50v-58h-40v59q-62 5 -108 40t-62 101l38 8q24 -100 132 -109v255q-36 10 -58 18.5t-47 24.5t-37 41.5t-12 60.5q0 68 45.5 104t108.5 38v57h40v-57q96 -10 140 -94l-31 -21q-34 67 -109 75v-216q37 -10 61.5 -20t50.5 -28t39 -46.5
t13 -66.5zM225 395v207q-46 -1 -80 -26.5t-34 -76.5q0 -24 8.5 -42t27 -29.5t35 -18t43.5 -14.5zM389 224q0 28 -9.5 49t-29 34t-38 20.5t-47.5 15.5v-245q51 4 87.5 37t36.5 89z" />
    <glyph glyph-name="cent.fitted" 
d="M393 91l31 -28q-36 -36 -70 -52t-82 -17q-32 0 -69 11l-18 -88l-24 5l19 90q-62 31 -91.5 92t-29.5 136q0 109 55.5 177.5t163.5 69.5l17 75l23 -4l-15 -75q67 -10 121 -66l-31 -27q-44 46 -98 55l-84 -401q31 -12 62 -12q68 3 120 59zM188 52l83 397q-168 -10 -168 -209
q0 -60 17.5 -106.5t67.5 -81.5z" />
    <glyph glyph-name="sterling.fitted" 
d="M425 41v-41h-331v38q41 92 41 172q0 49 -13 119h-67l8 40h51q-17 90 -17 133q0 88 44.5 144t122.5 56q55 0 91.5 -19t70.5 -61l-33 -28q-29 36 -58 51.5t-71 15.5q-62 0 -93 -45t-31 -115q0 -32 16 -132h117l-9 -40h-99q12 -71 12 -121q0 -76 -33 -167h281z" />
    <glyph glyph-name="florin.fitted" 
d="M313 427v-39h-92l-108 -587l-39 7l107 580h-68v39h75q0 1 7 39.5t7 39.5q36 184 198 192v-39q-73 -4 -109 -45t-49 -114q-1 -1 -7.5 -36t-6.5 -37h85z" />
    <glyph glyph-name="yen.fitted" 
d="M413 698h46l-139 -330h83l-8 -37h-90q-30 -70 -41 -101h139l-8 -36h-132v-194h-42v194h-141l8 36h133q-29 66 -42 101h-99l8 37h76l-139 330h46l171 -413z" />
    <glyph glyph-name="lira.fitted" 
d="M131 270h-76l6 33h66q-2 11 -6.5 30.5t-5.5 28.5h-60l6 33h47q-11 64 -11 107q0 88 44.5 144t122.5 56q55 0 90.5 -18.5t71.5 -61.5l-33 -28q-29 36 -58 51.5t-71 15.5q-62 0 -93 -45t-31 -115q0 -44 11 -106h121l-7 -33h-108q1 -4 5.5 -26t6.5 -33h103l-7 -33h-92
q4 -27 4 -62q0 -76 -33 -167h281v-41h-331v38q39 92 40 167q2 34 -3 65z" />
    <glyph glyph-name="peseta.fitted" 
d="M480 527v-36h-49q-7 -87 -61.5 -129t-142.5 -42h-120v-320h-45v491h-59v36h59v171h164q88 0 143 -42t62 -129h49zM107 361h118q147 0 160 130h-278v-130zM225 654h-118v-128h277q-12 128 -159 128z" />
    <glyph glyph-name="colonmonetary.fitted" 
d="M400 126l31 -31q-48 -78 -106 -96v-74h-32v68q-18 -2 -23 -2q-14 0 -27 3v-69h-32v75q-83 25 -121 120.5t-38 228.5t38 228.5t121 120.5v76h32v-70q15 3 27 3q5 0 23 -2v69h32v-75q61 -22 106 -94l-32 -31q-31 46 -60 67t-69 21q-50 0 -86 -27.5t-54 -75t-26 -99
t-8 -111.5t8 -111.5t26 -99t54 -75t86 -27.5q41 0 70.5 21.5t59.5 68.5z" />
    <glyph glyph-name="franc.fitted" 
d="M274 243v-37h-128v-206h-46v206h-66v37h66v455h326v-44h-280v-271h243v-41h-243v-99h128z" />
    <glyph glyph-name="A.sc" horiz-adv-x="491" 
d="M271 523l201 -523h-46l-59 154h-243l-59 -154h-46l201 523h51zM138 192h215l-107 284z" />
    <glyph glyph-name="B.sc" horiz-adv-x="502" 
d="M452 143q0 -143 -180 -143h-193v523h180q172 0 172 -137q0 -84 -69 -115q90 -30 90 -128zM388 385q0 97 -129 97h-137v-197h145q121 0 121 100zM408 144q0 104 -136 104h-150v-206h150q136 0 136 102z" />
    <glyph glyph-name="C.sc" horiz-adv-x="479" 
d="M390 106l32 -30q-38 -44 -74 -63t-89 -19q-75 0 -123.5 39.5t-67.5 97t-19 130.5q0 54 11 100t34.5 85t65.5 61.5t99 22.5q52 0 88.5 -19t73.5 -63l-32 -28q-31 35 -59.5 50.5t-70.5 15.5q-48 0 -82 -19.5t-51.5 -53t-25 -71t-7.5 -81.5t7.5 -81t25 -70.5t51.5 -53
t82 -19.5q42 0 71 16t60 53z" />
    <glyph glyph-name="D.sc" horiz-adv-x="513" 
d="M454 261q0 -59 -3.5 -95t-16 -71.5t-36.5 -54t-64.5 -29.5t-101.5 -11h-153v524h153q73 0 116.5 -12.5t67 -46.5t31 -79.5t7.5 -124.5zM410 261q0 49 -2 79t-8.5 57t-18 41t-31.5 24.5t-47 14t-68 3.5h-113v-437h113q32 0 57 2.5t43 10.5t31 15.5t21 24t13 29t7 38.5
t2.5 44.5t0.5 53.5z" />
    <glyph glyph-name="E.sc" horiz-adv-x="465" 
d="M415 43v-43h-336v523h336v-43h-293v-189h256v-39h-256v-209h293z" />
    <glyph glyph-name="F.sc" horiz-adv-x="439" 
d="M408 523v-43h-286v-189h256v-39h-256v-252h-43v523h329z" />
    <glyph glyph-name="G.sc" horiz-adv-x="507" 
d="M266 271h172v-271h-39v80q-35 -86 -143 -86q-55 0 -96.5 22.5t-65 61.5t-34.5 85t-11 98q0 113 52 191t160 78q51 0 87.5 -19.5t74.5 -62.5l-33 -28q-30 35 -59 51t-70 16q-88 0 -127.5 -65t-39.5 -161q0 -44 8 -81.5t25.5 -71t51 -52.5t79.5 -19q139 0 139 195h-131v39z
" />
    <glyph glyph-name="H.sc" horiz-adv-x="537" 
d="M458 523v-523h-44v252h-292v-252h-43v523h43v-232h292v232h44z" />
    <glyph glyph-name="I.sc" horiz-adv-x="201" 
d="M122 523v-523h-43v523h43z" />
    <glyph glyph-name="J.sc" horiz-adv-x="438" 
d="M309 523h43v-366q0 -163 -168 -163q-124 0 -159 111l41 11q27 -79 118 -79q65 0 95 30t30 92v364z" />
    <glyph glyph-name="K.sc" horiz-adv-x="468" 
d="M122 523v-523h-43v523h43zM375 0l-246 262l229 261h52l-230 -259l251 -264h-56z" />
    <glyph glyph-name="L.sc" horiz-adv-x="425" 
d="M385 40v-40h-306v523h43v-483h263z" />
    <glyph glyph-name="M.sc" horiz-adv-x="593" 
d="M515 523v-523h-43v415l-157 -415h-37l-156 414v-414h-43v523h43l174 -463l176 463h43z" />
    <glyph glyph-name="N.sc" horiz-adv-x="519" 
d="M441 523v-523h-44l-275 445v-445h-43v523h44l275 -445v445h43z" />
    <glyph glyph-name="O.sc" horiz-adv-x="497" 
d="M457 262q0 -42 -6.5 -79.5t-21.5 -72.5t-38.5 -60t-59.5 -40t-82 -15q-57 0 -99 22.5t-65 61t-34 84t-11 99.5t11 99.5t34 85t65 62t99 22.5t99 -22.5t65 -62t33.5 -85t10.5 -99.5zM413 262q0 225 -164 225q-165 0 -165 -225t165 -225q164 0 164 225z" />
    <glyph glyph-name="P.sc" horiz-adv-x="487" 
d="M438 380q0 -145 -174 -145h-150v-235h-44v524h194q174 0 174 -144zM394 380q0 58 -34.5 79.5t-96.5 21.5h-149v-205h149q61 0 96 23t35 81z" />
    <glyph glyph-name="Q.sc" horiz-adv-x="497" 
d="M456 261q0 -126 -53 -196q3 -3 26.5 -32t25.5 -33h-52q0 1 -14.5 18t-15.5 18q-56 -42 -124 -42q-57 0 -99 22.5t-65 61t-34 84t-11 99.5t11 100t34 85t65 61.5t99 22.5t98.5 -22.5t64.5 -61.5t33.5 -85t10.5 -100zM413 261q0 44 -7.5 81t-24.5 71t-50.5 53.5t-81.5 19.5
t-82 -19.5t-51 -53t-24.5 -70.5t-7.5 -81q0 -225 164 -225q51 0 96 33q-46 47 -94 54v34q67 -8 122 -62q41 62 41 165z" />
    <glyph glyph-name="R.sc" horiz-adv-x="488" 
d="M434 381q0 -60 -37.5 -97t-106.5 -41q24 -17 41 -48l118 -195h-51l-111 188q-33 51 -71 51h-87v-239h-44v523h180q77 0 123 -35t46 -107zM390 380q0 101 -125 101h-136v-202h136q125 0 125 101z" />
    <glyph glyph-name="S.sc" horiz-adv-x="481" 
d="M429 145q0 -71 -55 -111.5t-129 -40.5q-169 0 -201 134l41 9q27 -102 160 -102q56 0 98.5 29t42.5 82q0 44 -33.5 69t-81 36t-95 23.5t-81 42t-33.5 80.5q0 66 49.5 99t117.5 33q125 0 180 -101l-39 -18q-42 77 -141 77q-51 0 -87 -22t-36 -68q0 -38 33.5 -59.5t81 -32.5
t94.5 -24t80.5 -46.5t33.5 -88.5z" />
    <glyph glyph-name="T.sc" horiz-adv-x="440" 
d="M410 523v-43h-168v-480h-44v480h-168v43h380z" />
    <glyph glyph-name="U.sc" horiz-adv-x="503" 
d="M441 524v-300q0 -109 -43.5 -169.5t-146.5 -60.5q-189 0 -189 230v300h43v-299q0 -41 6 -72t21 -58.5t45 -42.5t74 -15q84 0 115 50.5t31 137.5v299h44z" />
    <glyph glyph-name="V.sc" horiz-adv-x="460" 
d="M385 524h46l-178 -524h-46l-178 524h46l156 -465z" />
    <glyph glyph-name="W.sc" horiz-adv-x="620" 
d="M537 524h44l-122 -524h-46l-103 438l-102 -438h-47l-122 524h44l102 -446l104 446h42l104 -446z" />
    <glyph glyph-name="X.sc" horiz-adv-x="457" 
d="M254 270l175 -270h-52l-148 232l-148 -232h-52l174 270l-164 253h52l138 -216l138 216h51z" />
    <glyph glyph-name="Y.sc" horiz-adv-x="447" 
d="M371 523h48l-173 -351v-172h-44v174l-173 349h48l147 -300z" />
    <glyph glyph-name="Z.sc" horiz-adv-x="473" 
d="M413 43v-43h-363v37l305 443h-279v43h336v-38l-306 -442h307z" />
    <glyph glyph-name="commaaccentcomb" horiz-adv-x="223" 
d="M149 -109v-30l-62 -99h-10v129q0 14 10.5 24t24.5 10q17 0 27 -10t10 -24z" />
    <glyph glyph-name="commaaccentcomb.alt" horiz-adv-x="223" 
d="M77 558v30l62 99h10v-129q0 -14 -10.5 -24t-24.5 -10q-17 0 -27 9.5t-10 24.5z" />
    <glyph glyph-name="grave.cap" horiz-adv-x="308" 
d="M142 903l84 -148h-44l-99 148h59z" />
    <glyph glyph-name="acute.cap" horiz-adv-x="291" 
d="M158 903h59l-100 -148h-43z" />
    <glyph glyph-name="circumflex.cap" horiz-adv-x="503" 
d="M274 902l104 -147h-53l-76 119l-76 -119h-51l103 147h49z" />
    <glyph glyph-name="caron.cap" horiz-adv-x="477" 
d="M378 902l-104 -147h-49l-103 147h51l76 -119l76 119h53z" />
    <glyph glyph-name="tilde.cap" horiz-adv-x="501" 
d="M359 833l28 -26q-36 -52 -79 -52q-30 0 -63.5 28.5t-55.5 28.5q-27 0 -52 -36l-28 26q35 51 79 51q31 0 64.5 -28t54.5 -28q29 0 52 36z" />
    <glyph glyph-name="dieresis.cap" horiz-adv-x="487" 
d="M372 802q0 -17 -11 -28t-27 -11t-27.5 11.5t-11.5 27.5t11.5 27.5t27.5 11.5t27 -11.5t11 -27.5zM193 802q0 -16 -11.5 -27.5t-27.5 -11.5t-27.5 11.5t-11.5 27.5t11.5 27.5t27.5 11.5t27.5 -11.5t11.5 -27.5z" />
    <glyph glyph-name="macron.cap" horiz-adv-x="494" 
d="M380 813v-41h-266v41h266z" />
    <glyph glyph-name="breve.cap" horiz-adv-x="497" 
d="M361 885h37q-47 -127 -150 -127q-102 0 -150 127h38q22 -44 47.5 -66.5t64.5 -22.5t64 22t49 67z" />
    <glyph glyph-name="ring.cap" horiz-adv-x="493" 
d="M345 855q0 -40 -29 -69t-69 -29q-41 0 -70 29t-29 69q0 41 29 69.5t70 28.5t69.5 -28.5t28.5 -69.5zM304 855q0 24 -17 41t-40 17q-25 0 -41.5 -17t-16.5 -41t16.5 -41t41.5 -17q23 0 40 17t17 41z" />
    <glyph glyph-name="hungarumlaut.cap" horiz-adv-x="445" 
d="M328 912h54l-93 -147h-38zM207 912h54l-93 -147h-37z" />
    <glyph glyph-name="dotaccent.cap" horiz-adv-x="507" 
d="M300 806q0 -18 -14 -32t-33 -14t-32.5 14t-13.5 32q0 20 13.5 34t32.5 14t33 -14t14 -34z" />
    <glyph glyph-name="caroncomb" horiz-adv-x="477" 
d="M378 725l-104 -147h-49l-103 147h51l76 -119l76 119h53z" />
    <glyph glyph-name="ringcomb" horiz-adv-x="493" 
d="M345 678q0 -40 -29 -69t-69 -29q-41 0 -70 29t-29 69q0 41 29 69.5t70 28.5t69.5 -29t28.5 -69zM304 678q0 24 -17 41t-40 17q-25 0 -41.5 -17t-16.5 -41t16.5 -41t41.5 -17q23 0 40 17t17 41z" />
    <glyph glyph-name="hungarumlautcomb" horiz-adv-x="445" 
d="M328 735h54l-93 -147h-38zM207 735h54l-93 -147h-37z" />
    <glyph glyph-name="ringacute" horiz-adv-x="493" 
d="M241 790h53l-59 -79l12 1q36 0 62 -26t26 -62t-26 -62t-62 -26q-37 0 -63 26t-26 62q0 34 20 56zM298 624q0 22 -15 37t-36 15q-22 0 -37.5 -15t-15.5 -37t15.5 -37t37.5 -15q21 0 36 15t15 37z" />
    <glyph glyph-name="ringacute.cap" horiz-adv-x="493" 
d="M241 1011h53l-59 -79l12 1q36 0 62 -26t26 -62t-26 -62t-62 -26q-37 0 -63 26t-26 62q0 34 20 56zM298 845q0 22 -15 37t-36 15q-22 0 -37.5 -15t-15.5 -37t15.5 -37t37.5 -15q21 0 36 15t15 37z" />
    <glyph glyph-name="ringacutecomb" horiz-adv-x="493" 
d="M241 834h53l-59 -79l12 1q36 0 62 -26t26 -62t-26 -62t-62 -26q-37 0 -63 26t-26 62q0 34 20 56zM298 668q0 22 -15 37t-36 15q-22 0 -37.5 -15t-15.5 -37t15.5 -37t37.5 -15q21 0 36 15t15 37z" />
    <glyph glyph-name="Aacute.sc" horiz-adv-x="491" 
d="M271 523l201 -523h-46l-59 154h-243l-59 -154h-46l201 523h51zM138 192h215l-107 284zM312 726h58l-99 -148h-44z" />
    <glyph glyph-name="Agrave.sc" horiz-adv-x="491" 
d="M271 523l201 -523h-46l-59 154h-243l-59 -154h-46l201 523h51zM138 192h215l-107 284zM179 726l84 -148h-43l-100 148h59z" />
    <glyph glyph-name="Acircumflex.sc" horiz-adv-x="491" 
d="M271 523l201 -523h-46l-59 154h-243l-59 -154h-46l201 523h51zM138 192h215l-107 284zM270 725l104 -147h-53l-76 119l-76 -119h-51l103 147h49z" />
    <glyph glyph-name="Atilde.sc" horiz-adv-x="491" 
d="M271 523l201 -523h-46l-59 154h-243l-59 -154h-46l201 523h51zM138 192h215l-107 284zM357 656l27 -26q-34 -52 -78 -52q-30 0 -63.5 28.5t-55.5 28.5q-28 0 -53 -36l-27 26q35 51 79 51q31 0 64 -28t55 -28q29 0 52 36z" />
    <glyph glyph-name="Adieresis.sc" horiz-adv-x="491" 
d="M271 523l201 -523h-46l-59 154h-243l-59 -154h-46l201 523h51zM138 192h215l-107 284zM374 625q0 -17 -11 -28t-27 -11t-27.5 11.5t-11.5 27.5t11.5 27.5t27.5 11.5t27 -11.5t11 -27.5zM195 625q0 -16 -11.5 -27.5t-27.5 -11.5t-27.5 11t-11.5 28q0 16 11.5 27.5
t27.5 11.5t27.5 -11.5t11.5 -27.5z" />
    <glyph glyph-name="Amacron.sc" horiz-adv-x="491" 
d="M271 523l201 -523h-46l-59 154h-243l-59 -154h-46l201 523h51zM138 192h215l-107 284zM379 636v-41h-266v41h266z" />
    <glyph glyph-name="Abreve.sc" horiz-adv-x="491" 
d="M271 523l201 -523h-46l-59 154h-243l-59 -154h-46l201 523h51zM138 192h215l-107 284zM358 708h37q-47 -127 -150 -127q-102 0 -149 127h37q22 -44 47.5 -66.5t64.5 -22.5t64 22t49 67z" />
    <glyph glyph-name="Aring.sc" horiz-adv-x="491" 
d="M271 523l201 -523h-46l-59 154h-243l-59 -154h-46l201 523h51zM138 192h215l-107 284zM344 678q0 -40 -29 -69t-69 -29q-41 0 -70 29t-29 69q0 41 29 69.5t70 28.5q40 0 69 -29t29 -69zM303 678q0 24 -17 41t-40 17q-24 0 -41 -17t-17 -41t17 -41t41 -17q23 0 40 17
t17 41z" />
    <glyph glyph-name="Aringacute.sc" horiz-adv-x="491" 
d="M271 523l201 -523h-46l-59 154h-243l-59 -154h-46l201 523h51zM138 192h215l-107 284zM240 834h53l-58 -79l11 1q36 0 62 -26t26 -62t-26 -62t-62 -26q-37 0 -63 26t-26 62q0 33 21 56zM298 668q0 22 -15 37t-37 15t-37 -15t-15 -37t15 -37t37 -15t37 15t15 37z" />
    <glyph glyph-name="Aogonek.sc" horiz-adv-x="491" 
d="M465 0l120 -197h-56l-103 197l-59 154h-243l-59 -154h-46l201 523h51l201 -523h-7zM138 192h215l-107 284z" />
    <glyph glyph-name="AE.sc" horiz-adv-x="668" 
d="M639 43v-43h-310v154h-204l-73 -154h-47l251 523h383v-43h-267v-187h231v-41h-231v-209h267zM144 192h185v280h-54z" />
    <glyph glyph-name="AEacute.sc" horiz-adv-x="668" 
d="M639 43v-43h-310v154h-204l-73 -154h-47l251 523h383v-43h-267v-187h231v-41h-231v-209h267zM144 192h185v280h-54zM351 726h59l-99 -148h-44z" />
    <glyph glyph-name="Cacute.sc" horiz-adv-x="479" 
d="M390 106l32 -30q-38 -44 -74 -63t-89 -19q-75 0 -123.5 39.5t-67.5 97t-19 130.5q0 54 11 100t34.5 85t65.5 61.5t99 22.5q52 0 88.5 -19t73.5 -63l-32 -28q-31 35 -59.5 50.5t-70.5 15.5q-48 0 -82 -19.5t-51.5 -53t-25 -71t-7.5 -81.5t7.5 -81t25 -70.5t51.5 -53
t82 -19.5q42 0 71 16t60 53zM252 726h59l-99 -148h-44z" />
    <glyph glyph-name="Ccircumflex.sc" horiz-adv-x="479" 
d="M390 106l32 -30q-38 -44 -74 -63t-89 -19q-75 0 -123.5 39.5t-67.5 97t-19 130.5q0 54 11 100t34.5 85t65.5 61.5t99 22.5q52 0 88.5 -19t73.5 -63l-32 -28q-31 35 -59.5 50.5t-70.5 15.5q-48 0 -82 -19.5t-51.5 -53t-25 -71t-7.5 -81.5t7.5 -81t25 -70.5t51.5 -53
t82 -19.5q42 0 71 16t60 53zM264 725l104 -147h-53l-76 119l-76 -119h-51l103 147h49z" />
    <glyph glyph-name="Ccaron.sc" horiz-adv-x="479" 
d="M422 76l-32 30q-31 -37 -60 -53t-71 -16q-48 0 -82 19.5t-51.5 53t-25 70.5t-7.5 81t7.5 81.5t25 71t51.5 53t82 19.5q42 0 70.5 -15.5t59.5 -50.5l32 28q-37 44 -73.5 63t-88.5 19q-57 0 -99 -22.5t-65.5 -61.5t-34.5 -85t-11 -100q0 -73 19 -130.5t67.5 -97
t123.5 -39.5q53 0 89 19t74 63zM368 725l-104 -147h-49l-103 147h51l76 -119l76 119h53z" />
    <glyph glyph-name="Ccedilla.sc" horiz-adv-x="483" 
d="M390 104l32 -28q-36 -41 -69.5 -60.5t-79.5 -21.5l30 -72l-64 -119h-52l81 123l-29 69q-99 7 -144.5 82t-45.5 184q0 54 11 100t34.5 85t65.5 61.5t99 22.5q52 0 88.5 -19t73.5 -63l-32 -28q-31 35 -59.5 50.5t-70.5 15.5q-48 0 -82 -19.5t-51.5 -53t-25 -71t-7.5 -81.5
t7.5 -81t25 -70.5t51.5 -53t82 -19.5q42 0 71 16t60 51z" />
    <glyph glyph-name="Cdotaccent.sc" horiz-adv-x="479" 
d="M390 106l32 -30q-38 -44 -74 -63t-89 -19q-75 0 -123.5 39.5t-67.5 97t-19 130.5q0 54 11 100t34.5 85t65.5 61.5t99 22.5q52 0 88.5 -19t73.5 -63l-32 -28q-31 35 -59.5 50.5t-70.5 15.5q-48 0 -82 -19.5t-51.5 -53t-25 -71t-7.5 -81.5t7.5 -81t25 -70.5t51.5 -53
t82 -19.5q42 0 71 16t60 53zM286 629q0 -18 -14 -32t-33 -14t-32.5 14t-13.5 32q0 20 13.5 34t32.5 14t33 -14t14 -34z" />
    <glyph glyph-name="Dcaron.sc" horiz-adv-x="513" 
d="M454 261q0 79 -7.5 124.5t-31 79.5t-67 46.5t-116.5 12.5h-153v-524h153q61 0 101.5 11t64.5 29.5t36.5 54t16 71.5t3.5 95zM410 261q0 -35 -0.5 -53.5t-2.5 -44.5t-7 -38.5t-13 -29t-21 -24t-31 -15.5t-43 -10.5t-57 -2.5h-113v437h113q41 0 68 -3.5t47 -14t31.5 -24.5
t18 -41t8.5 -57t2 -79zM384 725l-104 -147h-48l-103 147h51l76 -119l76 119h52z" />
    <glyph glyph-name="Eth.sc" horiz-adv-x="515" 
d="M457 261q0 -49 -2.5 -80.5t-10 -64t-22.5 -52t-39.5 -35.5t-61 -22.5t-86.5 -6.5h-154v241h-32v38h32v245h154q73 0 116.5 -12.5t67 -46.5t31 -79.5t7.5 -124.5zM413 261q0 49 -2 79t-8.5 57t-18 41t-31.5 24.5t-47 14t-68 3.5h-113v-201h121v-38h-121v-198h113
q32 0 57 2.5t43 10.5t31 15.5t21 24t13 29t7 38.5t2.5 44.5t0.5 53.5z" />
    <glyph glyph-name="Dcroat.sc" horiz-adv-x="515" 
d="M457 261q0 -49 -2.5 -80.5t-10 -64t-22.5 -52t-39.5 -35.5t-61 -22.5t-86.5 -6.5h-154v241h-32v38h32v245h154q73 0 116.5 -12.5t67 -46.5t31 -79.5t7.5 -124.5zM413 261q0 49 -2 79t-8.5 57t-18 41t-31.5 24.5t-47 14t-68 3.5h-113v-201h118v-38h-118v-198h113
q32 0 57 2.5t43 10.5t31 15.5t21 24t13 29t7 38.5t2.5 44.5t0.5 53.5z" />
    <glyph glyph-name="Eacute.sc" horiz-adv-x="465" 
d="M415 43v-43h-336v523h336v-43h-293v-189h256v-39h-256v-209h293zM245 726h58l-99 -148h-43z" />
    <glyph glyph-name="Egrave.sc" horiz-adv-x="465" 
d="M415 43v-43h-336v523h336v-43h-293v-189h256v-39h-256v-209h293zM219 726l84 -148h-43l-99 148h58z" />
    <glyph glyph-name="Ecircumflex.sc" horiz-adv-x="465" 
d="M415 43v-43h-336v523h336v-43h-293v-189h256v-39h-256v-209h293zM256 725l104 -147h-52l-76 119l-76 -119h-51l103 147h48z" />
    <glyph glyph-name="Ecaron.sc" horiz-adv-x="465" 
d="M415 0v43h-293v209h256v39h-256v189h293v43h-336v-523h336zM360 725l-104 -147h-48l-103 147h51l76 -119l76 119h52z" />
    <glyph glyph-name="Edieresis.sc" horiz-adv-x="465" 
d="M415 43v-43h-336v523h336v-43h-293v-189h256v-39h-256v-209h293zM361 625q0 -16 -11 -27.5t-27 -11.5q-17 0 -28 11t-11 28q0 16 11.5 27.5t27.5 11.5t27 -11.5t11 -27.5zM181 625q0 -16 -11.5 -27.5t-27.5 -11.5t-27 11.5t-11 27.5t11 27.5t27 11.5t27.5 -11.5
t11.5 -27.5z" />
    <glyph glyph-name="Emacron.sc" horiz-adv-x="465" 
d="M415 43v-43h-336v523h336v-43h-293v-189h256v-39h-256v-209h293zM366 636v-41h-267v41h267z" />
    <glyph glyph-name="Ebreve.sc" horiz-adv-x="465" 
d="M415 43v-43h-336v523h336v-43h-293v-189h256v-39h-256v-209h293zM345 708h38q-48 -127 -151 -127q-101 0 -149 127h37q45 -89 112 -89q39 0 65 22.5t48 66.5z" />
    <glyph glyph-name="Edotaccent.sc" horiz-adv-x="465" 
d="M415 43v-43h-336v523h336v-43h-293v-189h256v-39h-256v-209h293zM280 629q0 -18 -14.5 -32t-33.5 -14t-32.5 14t-13.5 32q0 20 13.5 34t32.5 14q20 0 34 -14.5t14 -33.5z" />
    <glyph glyph-name="Eogonek.sc" horiz-adv-x="465" 
d="M415 0l118 -197h-55l-104 197h-295v523h336v-43h-293v-189h256v-39h-256v-209h293v-43z" />
    <glyph glyph-name="Gcircumflex.sc" horiz-adv-x="507" 
d="M266 271h172v-271h-39v80q-35 -86 -143 -86q-55 0 -96.5 22.5t-65 61.5t-34.5 85t-11 98q0 113 52 191t160 78q51 0 87.5 -19.5t74.5 -62.5l-33 -28q-30 35 -59 51t-70 16q-88 0 -127.5 -65t-39.5 -161q0 -44 8 -81.5t25.5 -71t51 -52.5t79.5 -19q139 0 139 195h-131v39z
M277 725l104 -147h-52l-77 119l-75 -119h-52l103 147h49z" />
    <glyph glyph-name="Gbreve.sc" horiz-adv-x="507" 
d="M266 271h172v-271h-39v80q-35 -86 -143 -86q-55 0 -96.5 22.5t-65 61.5t-34.5 85t-11 98q0 113 52 191t160 78q51 0 87.5 -19.5t74.5 -62.5l-33 -28q-30 35 -59 51t-70 16q-88 0 -127.5 -65t-39.5 -161q0 -44 8 -81.5t25.5 -71t51 -52.5t79.5 -19q139 0 139 195h-131v39z
M366 708h38q-48 -127 -151 -127q-102 0 -149 127h37q22 -44 47.5 -66.5t64.5 -22.5t64 22t49 67z" />
    <glyph glyph-name="Gdotaccent.sc" horiz-adv-x="507" 
d="M266 271h172v-271h-39v80q-35 -86 -143 -86q-55 0 -96.5 22.5t-65 61.5t-34.5 85t-11 98q0 113 52 191t160 78q51 0 87.5 -19.5t74.5 -62.5l-33 -28q-30 35 -59 51t-70 16q-88 0 -127.5 -65t-39.5 -161q0 -44 8 -81.5t25.5 -71t51 -52.5t79.5 -19q139 0 139 195h-131v39z
M300 629q0 -18 -14 -32t-33 -14t-32.5 14t-13.5 32q0 20 13.5 34t32.5 14t33 -14t14 -34z" />
    <glyph glyph-name="Gcommaaccent.sc" horiz-adv-x="507" 
d="M266 271h172v-271h-39v80q-35 -86 -143 -86q-55 0 -96.5 22.5t-65 61.5t-34.5 85t-11 98q0 113 52 191t160 78q51 0 87.5 -19.5t74.5 -62.5l-33 -28q-30 35 -59 51t-70 16q-88 0 -127.5 -65t-39.5 -161q0 -44 8 -81.5t25.5 -71t51 -52.5t79.5 -19q139 0 139 195h-131v39z
M289 -109v-30l-62 -99h-10v129q0 14 10.5 24t24.5 10q17 0 27 -10t10 -24z" />
    <glyph glyph-name="Hcircumflex.sc" horiz-adv-x="537" 
d="M458 523v-523h-44v252h-292v-252h-43v523h43v-232h292v232h44zM292 725l104 -147h-52l-77 119l-75 -119h-52l104 147h48z" />
    <glyph glyph-name="Hbar.sc" horiz-adv-x="537" 
d="M528 423v-36h-70v-387h-44v252h-292v-252h-43v387h-70v36h70v100h43v-100h292v100h44v-100h70zM122 291h292v96h-292v-96z" />
    <glyph glyph-name="Iacute.sc" horiz-adv-x="201" 
d="M122 523v-523h-43v523h43zM157 726h59l-100 -148h-43z" />
    <glyph glyph-name="Igrave.sc" horiz-adv-x="201" 
d="M122 523v-523h-43v523h43zM44 726l84 -148h-43l-100 148h59z" />
    <glyph glyph-name="Icircumflex.sc" horiz-adv-x="201" 
d="M122 523v-523h-43v523h43zM124 725l104 -147h-52l-77 119l-75 -119h-51l103 147h48z" />
    <glyph glyph-name="Itilde.sc" horiz-adv-x="201" 
d="M122 523v-523h-43v523h43zM212 656l27 -26q-36 -52 -78 -52q-31 0 -64.5 28.5t-54.5 28.5q-28 0 -53 -36l-27 26q35 51 79 51q31 0 64 -28t54 -28q30 0 53 36z" />
    <glyph glyph-name="Idieresis.sc" horiz-adv-x="201" 
d="M122 523v-523h-43v523h43zM229 625q0 -16 -11 -27.5t-27 -11.5q-17 0 -28 11t-11 28q0 16 11.5 27.5t27.5 11.5t27 -11.5t11 -27.5zM49 625q0 -17 -11.5 -28t-27.5 -11t-27 11.5t-11 27.5t11 27.5t27 11.5t27.5 -11.5t11.5 -27.5z" />
    <glyph glyph-name="Imacron.sc" horiz-adv-x="201" 
d="M122 523v-523h-43v523h43zM233 636v-41h-266v41h266z" />
    <glyph glyph-name="Ibreve.sc" horiz-adv-x="201" 
d="M122 523v-523h-43v523h43zM213 708h38q-48 -127 -151 -127q-101 0 -149 127h37q45 -89 112 -89q39 0 65 22.5t48 66.5z" />
    <glyph glyph-name="Idotaccent.sc" horiz-adv-x="201" 
d="M122 523v-523h-43v523h43zM147 629q0 -18 -14 -32t-33 -14t-32.5 14t-13.5 32q0 20 13.5 34t32.5 14t33 -14t14 -34z" />
    <glyph glyph-name="Iogonek.sc" horiz-adv-x="153" 
d="M89 0l95 -197h-47l-82 197v523h43v-523h-9z" />
    <glyph glyph-name="Jcircumflex.sc" horiz-adv-x="438" 
d="M309 523h43v-366q0 -163 -168 -163q-124 0 -159 111l41 11q27 -79 118 -79q65 0 95 30t30 92v364zM356 725l104 -147h-52l-77 119l-76 -119h-51l103 147h49z" />
    <glyph glyph-name="Kcommaaccent.sc" horiz-adv-x="468" 
d="M122 523v-523h-43v523h43zM375 0l-246 262l229 261h52l-230 -259l251 -264h-56zM270 -109v-30l-62 -99h-10v129q0 14 10.5 24t24.5 10q17 0 27 -10t10 -24z" />
    <glyph glyph-name="Lacute.sc" horiz-adv-x="425" 
d="M385 40v-40h-306v523h43v-483h263zM164 726h58l-99 -148h-44z" />
    <glyph glyph-name="Lcaron.sc" horiz-adv-x="425" 
d="M385 40v-40h-306v523h43v-483h263zM384 519l-6 -46l-63 -105l-9 1l5 149q1 15 11.5 26t24.5 11q15 0 26.5 -11t10.5 -25z" />
    <glyph glyph-name="Lcommaaccent.sc" horiz-adv-x="425" 
d="M385 40v-40h-306v523h43v-483h263zM248 -109v-30l-62 -99h-9v129q0 14 10 24t25 10q16 0 26 -10t10 -24z" />
    <glyph glyph-name="Lslash.sc" horiz-adv-x="404" 
d="M372 43v-43h-305v201l-29 -12v39l29 12v283h44v-264l126 55v-39l-126 -55v-177h261z" />
    <glyph glyph-name="Nacute.sc" horiz-adv-x="519" 
d="M441 523v-523h-44l-275 445v-445h-43v523h44l275 -445v445h43zM272 726h59l-100 -148h-43z" />
    <glyph glyph-name="Ncaron.sc" horiz-adv-x="519" 
d="M441 0v523h-43v-445l-275 445h-44v-523h43v445l275 -445h44zM387 725l-104 -147h-48l-103 147h51l76 -119l76 119h52z" />
    <glyph glyph-name="Ntilde.sc" horiz-adv-x="519" 
d="M441 523v-523h-44l-275 445v-445h-43v523h44l275 -445v445h43zM371 656l27 -26q-36 -52 -78 -52q-31 0 -64.5 28.5t-54.5 28.5q-28 0 -53 -36l-27 26q35 51 79 51q30 0 63 -28t55 -28q30 0 53 36z" />
    <glyph glyph-name="Ncommaaccent.sc" horiz-adv-x="519" 
d="M441 523v-523h-44l-275 445v-445h-43v523h44l275 -445v445h43zM295 -109v-30l-62 -99h-9v129q0 14 10 24t25 10q16 0 26 -10t10 -24z" />
    <glyph glyph-name="Eng.sc" horiz-adv-x="519" 
d="M441 523v-551q0 -181 -165 -191l-7 39q130 8 130 153v22l-277 450v-445h-43v523h44l275 -445v445h43z" />
    <glyph glyph-name="Oacute.sc" horiz-adv-x="497" 
d="M457 262q0 -42 -6.5 -79.5t-21.5 -72.5t-38.5 -60t-59.5 -40t-82 -15q-57 0 -99 22.5t-65 61t-34 84t-11 99.5t11 99.5t34 85t65 62t99 22.5t99 -22.5t65 -62t33.5 -85t10.5 -99.5zM413 262q0 225 -164 225q-165 0 -165 -225t165 -225q164 0 164 225zM261 726h59
l-100 -148h-43z" />
    <glyph glyph-name="Ograve.sc" horiz-adv-x="497" 
d="M457 262q0 -42 -6.5 -79.5t-21.5 -72.5t-38.5 -60t-59.5 -40t-82 -15q-57 0 -99 22.5t-65 61t-34 84t-11 99.5t11 99.5t34 85t65 62t99 22.5t99 -22.5t65 -62t33.5 -85t10.5 -99.5zM413 262q0 225 -164 225q-165 0 -165 -225t165 -225q164 0 164 225zM235 726l85 -148
h-44l-99 148h58z" />
    <glyph glyph-name="Ocircumflex.sc" horiz-adv-x="497" 
d="M457 262q0 -42 -6.5 -79.5t-21.5 -72.5t-38.5 -60t-59.5 -40t-82 -15q-57 0 -99 22.5t-65 61t-34 84t-11 99.5t11 99.5t34 85t65 62t99 22.5t99 -22.5t65 -62t33.5 -85t10.5 -99.5zM413 262q0 225 -164 225q-165 0 -165 -225t165 -225q164 0 164 225zM272 725l104 -147
h-52l-76 119l-76 -119h-51l103 147h48z" />
    <glyph glyph-name="Otilde.sc" horiz-adv-x="497" 
d="M457 262q0 -42 -6.5 -79.5t-21.5 -72.5t-38.5 -60t-59.5 -40t-82 -15q-57 0 -99 22.5t-65 61t-34 84t-11 99.5t11 99.5t34 85t65 62t99 22.5t99 -22.5t65 -62t33.5 -85t10.5 -99.5zM413 262q0 225 -164 225q-165 0 -165 -225t165 -225q164 0 164 225zM360 656l27 -26
q-18 -27 -35.5 -39.5t-42.5 -12.5q-31 0 -64 28.5t-55 28.5q-28 0 -53 -36l-27 26q35 51 79 51q31 0 64 -28t55 -28q29 0 52 36z" />
    <glyph glyph-name="Odieresis.sc" horiz-adv-x="497" 
d="M457 262q0 -42 -6.5 -79.5t-21.5 -72.5t-38.5 -60t-59.5 -40t-82 -15q-57 0 -99 22.5t-65 61t-34 84t-11 99.5t11 99.5t34 85t65 62t99 22.5t99 -22.5t65 -62t33.5 -85t10.5 -99.5zM413 262q0 225 -164 225q-165 0 -165 -225t165 -225q164 0 164 225zM377 625
q0 -16 -11 -27.5t-27 -11.5t-27.5 11.5t-11.5 27.5t11.5 27.5t27.5 11.5t27 -11.5t11 -27.5zM197 625q0 -17 -11.5 -28t-27.5 -11t-27 11.5t-11 27.5t11 27.5t27 11.5t27.5 -11.5t11.5 -27.5z" />
    <glyph glyph-name="Omacron.sc" horiz-adv-x="497" 
d="M457 262q0 -42 -6.5 -79.5t-21.5 -72.5t-38.5 -60t-59.5 -40t-82 -15q-57 0 -99 22.5t-65 61t-34 84t-11 99.5t11 99.5t34 85t65 62t99 22.5t99 -22.5t65 -62t33.5 -85t10.5 -99.5zM413 262q0 225 -164 225q-165 0 -165 -225t165 -225q164 0 164 225zM382 636v-41h-266
v41h266z" />
    <glyph glyph-name="Obreve.sc" horiz-adv-x="497" 
d="M457 262q0 -42 -6.5 -79.5t-21.5 -72.5t-38.5 -60t-59.5 -40t-82 -15q-57 0 -99 22.5t-65 61t-34 84t-11 99.5t11 99.5t34 85t65 62t99 22.5t99 -22.5t65 -62t33.5 -85t10.5 -99.5zM413 262q0 225 -164 225q-165 0 -165 -225t165 -225q164 0 164 225zM361 708h37
q-47 -127 -150 -127q-102 0 -150 127h38q22 -44 47.5 -66.5t64.5 -22.5t64 22t49 67z" />
    <glyph glyph-name="Ohungarumlaut.sc" horiz-adv-x="497" 
d="M457 262q0 -42 -6.5 -79.5t-21.5 -72.5t-38.5 -60t-59.5 -40t-82 -15q-57 0 -99 22.5t-65 61t-34 84t-11 99.5t11 99.5t34 85t65 62t99 22.5t99 -22.5t65 -62t33.5 -85t10.5 -99.5zM413 262q0 225 -164 225q-165 0 -165 -225t165 -225q164 0 164 225zM325 735h54
l-93 -147h-38zM205 735h54l-93 -147h-37z" />
    <glyph glyph-name="Oslash.sc" horiz-adv-x="507" 
d="M457 262q0 -42 -6.5 -79.5t-21.5 -72.5t-38.5 -60t-59.5 -40t-82 -15q-67 0 -120 37l-19 -32h-35l30 52q-65 77 -65 210q0 54 11 99.5t34 85t65 62t99 22.5q61 0 116 -37l19 30h35l-28 -49q66 -77 66 -213zM413 262q0 103 -46 172l-217 -363q43 -33 99 -33q164 0 164 224
zM128 93l217 362q-43 32 -96 32q-165 0 -165 -225q0 -99 44 -169z" />
    <glyph glyph-name="Oslashacute.sc" horiz-adv-x="507" 
d="M457 262q0 -42 -6.5 -79.5t-21.5 -72.5t-38.5 -60t-59.5 -40t-82 -15q-67 0 -120 37l-19 -32h-35l30 52q-65 77 -65 210q0 54 11 99.5t34 85t65 62t99 22.5q61 0 116 -37l19 30h35l-28 -49q66 -77 66 -213zM413 262q0 103 -46 172l-217 -363q43 -33 99 -33q164 0 164 224
zM128 93l217 362q-43 32 -96 32q-165 0 -165 -225q0 -99 44 -169zM266 726h59l-100 -148h-43z" />
    <glyph glyph-name="OE.sc" horiz-adv-x="752" 
d="M716 43v-43h-310v100q-47 -106 -162 -106q-55 0 -96 22.5t-64 61t-33.5 84.5t-10.5 99q0 54 10.5 100t33.5 85t64 61.5t96 22.5q118 0 162 -105v98h310v-43h-267v-187h231v-41h-231v-209h267zM406 261q0 44 -7.5 81t-24.5 71t-50 53.5t-80 19.5q-161 0 -161 -225
q0 -224 161 -224q47 0 80.5 19.5t50 53t24 70.5t7.5 81z" />
    <glyph glyph-name="Racute.sc" horiz-adv-x="488" 
d="M434 381q0 -60 -37.5 -97t-106.5 -41q24 -17 41 -48l118 -195h-51l-111 188q-33 51 -71 51h-87v-239h-44v523h180q77 0 123 -35t46 -107zM390 380q0 101 -125 101h-136v-202h136q125 0 125 101zM257 726h59l-100 -148h-43z" />
    <glyph glyph-name="Rcaron.sc" horiz-adv-x="488" 
d="M434 381q0 72 -46 107t-123 35h-180v-523h44v239h87q38 0 71 -51l111 -188h51l-118 195q-17 31 -41 48q69 4 106.5 41t37.5 97zM390 380q0 -101 -125 -101h-136v202h136q125 0 125 -101zM373 725l-105 -147h-48l-103 147h51l76 -119l76 119h53z" />
    <glyph glyph-name="Rcommaaccent.sc" horiz-adv-x="488" 
d="M434 381q0 -60 -37.5 -97t-106.5 -41q24 -17 41 -48l118 -195h-51l-111 188q-33 51 -71 51h-87v-239h-44v523h180q77 0 123 -35t46 -107zM390 380q0 101 -125 101h-136v-202h136q125 0 125 101zM280 -109v-30l-62 -99h-10v129q0 14 10.5 24t24.5 10q17 0 27 -10t10 -24z
" />
    <glyph glyph-name="Sacute.sc" horiz-adv-x="481" 
d="M429 145q0 -71 -55 -111.5t-129 -40.5q-169 0 -201 134l41 9q27 -102 160 -102q56 0 98.5 29t42.5 82q0 44 -33.5 69t-81 36t-95 23.5t-81 42t-33.5 80.5q0 66 49.5 99t117.5 33q125 0 180 -101l-39 -18q-42 77 -141 77q-51 0 -87 -22t-36 -68q0 -38 33.5 -59.5t81 -32.5
t94.5 -24t80.5 -46.5t33.5 -88.5zM253 726h58l-99 -148h-44z" />
    <glyph glyph-name="Scedilla.sc" horiz-adv-x="481" 
d="M266 -5l28 -64l-71 -128h-56l91 131l-27 59q-157 7 -187 134l41 9q27 -102 160 -102q56 0 98.5 29t42.5 82q0 44 -33.5 69t-81 36t-95 23.5t-81 42t-33.5 80.5q0 66 49.5 99t117.5 33q125 0 180 -101l-39 -18q-42 77 -141 77q-51 0 -87 -22t-36 -68q0 -38 33.5 -59.5
t81 -32.5t94.5 -24t80.5 -46.5t33.5 -88.5q0 -67 -47.5 -106t-115.5 -44z" />
    <glyph glyph-name="Scircumflex.sc" horiz-adv-x="481" 
d="M429 145q0 -71 -55 -111.5t-129 -40.5q-169 0 -201 134l41 9q27 -102 160 -102q56 0 98.5 29t42.5 82q0 44 -33.5 69t-81 36t-95 23.5t-81 42t-33.5 80.5q0 66 49.5 99t117.5 33q125 0 180 -101l-39 -18q-42 77 -141 77q-51 0 -87 -22t-36 -68q0 -38 33.5 -59.5t81 -32.5
t94.5 -24t80.5 -46.5t33.5 -88.5zM264 725l104 -147h-52l-76 119l-76 -119h-51l103 147h48z" />
    <glyph glyph-name="Scaron.sc" horiz-adv-x="481" 
d="M429 145q0 55 -33.5 88.5t-80.5 46.5t-94.5 24t-81 32.5t-33.5 59.5q0 46 36 68t87 22q99 0 141 -77l39 18q-55 101 -180 101q-68 0 -117.5 -33t-49.5 -99q0 -51 33.5 -80.5t81 -42t95 -23.5t81 -36t33.5 -69q0 -53 -42.5 -82t-98.5 -29q-133 0 -160 102l-41 -9
q32 -134 201 -134q74 0 129 40.5t55 111.5zM368 725l-104 -147h-48l-103 147h51l76 -119l76 119h52z" />
    <glyph glyph-name="Scommaaccent.sc" horiz-adv-x="481" 
d="M429 145q0 -71 -55 -111.5t-129 -40.5q-169 0 -201 134l41 9q27 -102 160 -102q56 0 98.5 29t42.5 82q0 44 -33.5 69t-81 36t-95 23.5t-81 42t-33.5 80.5q0 66 49.5 99t117.5 33q125 0 180 -101l-39 -18q-42 77 -141 77q-51 0 -87 -22t-36 -68q0 -38 33.5 -59.5t81 -32.5
t94.5 -24t80.5 -46.5t33.5 -88.5zM276 -109v-30l-62 -99h-9v129q0 14 10 24t25 10q16 0 26 -10t10 -24z" />
    <glyph glyph-name="germandbls.sc" horiz-adv-x="956" 
d="M429 145q0 -71 -55 -111.5t-129 -40.5q-169 0 -201 134l41 9q27 -102 160 -102q56 0 98.5 29t42.5 82q0 44 -33.5 69t-81 36t-95 23.5t-81 42t-33.5 80.5q0 66 49.5 99t117.5 33q125 0 180 -101l-39 -18q-42 77 -141 77q-51 0 -87 -22t-36 -68q0 -38 33.5 -59.5t81 -32.5
t94.5 -24t80.5 -46.5t33.5 -88.5zM904 145q0 -71 -55 -111.5t-129 -40.5q-168 0 -201 134l42 9q26 -102 159 -102q57 0 99 29t42 82q0 44 -33.5 69t-81 36t-95 23.5t-81 42t-33.5 80.5q0 66 49.5 99t118.5 33q124 0 179 -101l-39 -18q-41 77 -140 77q-51 0 -87.5 -22
t-36.5 -68q0 -38 33.5 -59.5t80.5 -32.5t94.5 -24t81 -46.5t33.5 -88.5z" />
    <glyph glyph-name="Tcaron.sc" horiz-adv-x="440" 
d="M410 480v43h-380v-43h168v-480h44v480h168zM348 725l-104 -147h-49l-103 147h51l76 -119l77 119h52z" />
    <glyph glyph-name="Tcommaaccent.sc" horiz-adv-x="440" 
d="M410 523v-43h-168v-480h-44v480h-168v43h380zM256 -109v-30l-62 -99h-10v129q0 14 10.5 24t24.5 10q17 0 27 -10t10 -24z" />
    <glyph glyph-name="Tbar.sc" horiz-adv-x="440" 
d="M344 296v-36h-102v-260h-44v260h-101v36h101v184h-168v43h380v-43h-168v-184h102z" />
    <glyph glyph-name="Uacute.sc" horiz-adv-x="503" 
d="M441 524v-300q0 -109 -43.5 -169.5t-146.5 -60.5q-189 0 -189 230v300h43v-299q0 -41 6 -72t21 -58.5t45 -42.5t74 -15q84 0 115 50.5t31 137.5v299h44zM264 726h58l-99 -148h-44z" />
    <glyph glyph-name="Ugrave.sc" horiz-adv-x="503" 
d="M441 524v-300q0 -109 -43.5 -169.5t-146.5 -60.5q-189 0 -189 230v300h43v-299q0 -41 6 -72t21 -58.5t45 -42.5t74 -15q84 0 115 50.5t31 137.5v299h44zM238 726l84 -148h-43l-100 148h59z" />
    <glyph glyph-name="Ucircumflex.sc" horiz-adv-x="503" 
d="M441 524v-300q0 -109 -43.5 -169.5t-146.5 -60.5q-189 0 -189 230v300h43v-299q0 -41 6 -72t21 -58.5t45 -42.5t74 -15q84 0 115 50.5t31 137.5v299h44zM275 725l104 -147h-52l-77 119l-75 -119h-52l104 147h48z" />
    <glyph glyph-name="Utilde.sc" horiz-adv-x="503" 
d="M441 524v-300q0 -109 -43.5 -169.5t-146.5 -60.5q-189 0 -189 230v300h43v-299q0 -41 6 -72t21 -58.5t45 -42.5t74 -15q84 0 115 50.5t31 137.5v299h44zM363 656l27 -26q-36 -52 -79 -52q-30 0 -63.5 28.5t-55.5 28.5q-27 0 -52 -36l-27 26q33 51 79 51q30 0 63 -28
t55 -28q30 0 53 36z" />
    <glyph glyph-name="Udieresis.sc" horiz-adv-x="503" 
d="M441 524v-300q0 -109 -43.5 -169.5t-146.5 -60.5q-189 0 -189 230v300h43v-299q0 -41 6 -72t21 -58.5t45 -42.5t74 -15q84 0 115 50.5t31 137.5v299h44zM380 625q0 -16 -11 -27.5t-27 -11.5t-27.5 11t-11.5 28q0 16 11.5 27.5t27.5 11.5t27 -11.5t11 -27.5zM200 625
q0 -16 -11.5 -27.5t-27.5 -11.5t-27 11.5t-11 27.5t11 27.5t27 11.5t27.5 -11.5t11.5 -27.5z" />
    <glyph glyph-name="Umacron.sc" horiz-adv-x="503" 
d="M441 524v-300q0 -109 -43.5 -169.5t-146.5 -60.5q-189 0 -189 230v300h43v-299q0 -41 6 -72t21 -58.5t45 -42.5t74 -15q84 0 115 50.5t31 137.5v299h44zM384 636v-41h-266v41h266z" />
    <glyph glyph-name="Ubreve.sc" horiz-adv-x="503" 
d="M441 524v-300q0 -109 -43.5 -169.5t-146.5 -60.5q-189 0 -189 230v300h43v-299q0 -41 6 -72t21 -58.5t45 -42.5t74 -15q84 0 115 50.5t31 137.5v299h44zM363 708h38q-48 -127 -150 -127t-150 127h37q22 -44 48 -66.5t65 -22.5t64.5 22.5t47.5 66.5z" />
    <glyph glyph-name="Uring.sc" horiz-adv-x="503" 
d="M441 524v-300q0 -109 -43.5 -169.5t-146.5 -60.5q-189 0 -189 230v300h43v-299q0 -41 6 -72t21 -58.5t45 -42.5t74 -15q84 0 115 50.5t31 137.5v299h44zM349 678q0 -40 -29 -69t-69 -29t-69 29t-29 69t28.5 69t69.5 29t69.5 -29t28.5 -69zM309 678q0 24 -17 41t-41 17
t-41 -17t-17 -41t17 -41t41 -17t41 17t17 41z" />
    <glyph glyph-name="Uhungarumlaut.sc" horiz-adv-x="503" 
d="M441 524v-300q0 -109 -43.5 -169.5t-146.5 -60.5q-189 0 -189 230v300h43v-299q0 -41 6 -72t21 -58.5t45 -42.5t74 -15q84 0 115 50.5t31 137.5v299h44zM323 735h54l-93 -147h-38zM202 735h54l-93 -147h-37z" />
    <glyph glyph-name="Uogonek.sc" horiz-adv-x="503" 
d="M317 3l121 -200h-56l-101 193q-18 -2 -30 -2q-189 0 -189 230v300h43v-299q0 -41 6 -72t21 -58.5t45 -42.5t74 -15q84 0 115 50.5t31 137.5v299h44v-300q0 -188 -124 -221z" />
    <glyph glyph-name="Wacute.sc" horiz-adv-x="620" 
d="M537 524h44l-122 -524h-46l-103 438l-102 -438h-47l-122 524h44l102 -446l104 446h42l104 -446zM375 726h59l-99 -148h-44z" />
    <glyph glyph-name="Wgrave.sc" horiz-adv-x="620" 
d="M537 524h44l-122 -524h-46l-103 438l-102 -438h-47l-122 524h44l102 -446l104 446h42l104 -446zM247 726l84 -148h-44l-99 148h59z" />
    <glyph glyph-name="Wcircumflex.sc" horiz-adv-x="620" 
d="M537 524h44l-122 -524h-46l-103 438l-102 -438h-47l-122 524h44l102 -446l104 446h42l104 -446zM334 725l104 -147h-53l-76 119l-76 -119h-51l103 147h49z" />
    <glyph glyph-name="Wdieresis.sc" horiz-adv-x="620" 
d="M537 524h44l-122 -524h-46l-103 438l-102 -438h-47l-122 524h44l102 -446l104 446h42l104 -446zM438 625q0 -17 -11 -28t-27 -11t-27.5 11.5t-11.5 27.5t11.5 27.5t27.5 11.5t27 -11.5t11 -27.5zM259 625q0 -16 -11.5 -27.5t-27.5 -11.5t-27.5 11t-11.5 28
q0 16 11.5 27.5t27.5 11.5t27.5 -11.5t11.5 -27.5z" />
    <glyph glyph-name="Yacute.sc" horiz-adv-x="447" 
d="M371 523h48l-173 -351v-172h-44v174l-173 349h48l147 -300zM236 726h59l-100 -148h-43z" />
    <glyph glyph-name="Ygrave.sc" horiz-adv-x="447" 
d="M371 523h48l-173 -351v-172h-44v174l-173 349h48l147 -300zM211 726l84 -148h-44l-99 148h59z" />
    <glyph glyph-name="Ycircumflex.sc" horiz-adv-x="447" 
d="M371 523h48l-173 -351v-172h-44v174l-173 349h48l147 -300zM247 725l105 -147h-53l-76 119l-76 -119h-51l103 147h48z" />
    <glyph glyph-name="Ydieresis.sc" horiz-adv-x="447" 
d="M371 523h48l-173 -351v-172h-44v174l-173 349h48l147 -300zM352 625q0 -16 -11 -27.5t-27 -11.5t-27.5 11.5t-11.5 27.5t11.5 27.5t27.5 11.5t27 -11.5t11 -27.5zM172 625q0 -17 -11 -28t-28 -11q-16 0 -27 11.5t-11 27.5t11 27.5t27 11.5t27.5 -11.5t11.5 -27.5z" />
    <glyph glyph-name="Zacute.sc" horiz-adv-x="473" 
d="M413 43v-43h-363v37l305 443h-279v43h336v-38l-306 -442h307zM249 726h59l-99 -148h-44z" />
    <glyph glyph-name="Zcaron.sc" horiz-adv-x="473" 
d="M413 0v43h-307l306 442v38h-336v-43h279l-305 -443v-37h363zM365 725l-104 -147h-49l-103 147h51l76 -119l77 119h52z" />
    <glyph glyph-name="Zdotaccent.sc" horiz-adv-x="473" 
d="M413 43v-43h-363v37l305 443h-279v43h336v-38l-306 -442h307zM283 629q0 -18 -14 -32t-33 -14t-32.5 14t-13.5 32q0 20 13.5 34t32.5 14t33 -14t14 -34z" />
    <glyph glyph-name="Thorn.sc" horiz-adv-x="497" 
d="M447 270q0 -145 -175 -145h-150v-125h-43v523h43v-109h150q175 0 175 -144zM403 270q0 59 -35 80.5t-96 21.5h-150v-204h150q62 0 96.5 22t34.5 80z" />
    </font>
</defs>
</svg>
