<?xml version="1.0" standalone="no"?>
<!DOCTYPE svg PUBLIC "-//W3C//DTD SVG 1.1//EN" "http://www.w3.org/Graphics/SVG/1.1/DTD/svg11.dtd" >
<svg>
<metadata>
Created by FontForge 20090622 at Wed Mar 13 11:24:55 2019
 By deploy user
Copyright (c) 2008 by Neil Summerour. All rights reserved.
</metadata>
<defs>
<font id="AauxNext-LightItalic" horiz-adv-x="450" >
  <font-face 
    font-family="Aaux Next Light Italic"
    font-weight="400"
    font-style="italic"
    font-stretch="normal"
    units-per-em="1000"
    panose-1="2 0 5 6 0 0 0 2 0 3"
    ascent="800"
    descent="-200"
    x-height="480"
    cap-height="698"
    bbox="-146 -238 987 1011"
    underline-thickness="50"
    underline-position="-50"
    slope="-12"
    unicode-range="U+0020-U+FB04"
  />
<missing-glyph horiz-adv-x="264" 
 />
    <glyph glyph-name="f_f" unicode="ff" horiz-adv-x="520" 
d="M620 698l-8 -38q-40 0 -69 -15t-47 -44t-27.5 -55t-19.5 -66h108l-9 -37h-107l-102 -468q-43 -198 -209 -198l8 38q70 3 107.5 48t50.5 107l103 473h-218l-103 -468q-19 -92 -70.5 -145t-137.5 -53l8 38q70 3 107.5 48t50.5 107l103 473h-49l8 37h50q24 108 70 163
t142 55l-8 -38q-40 0 -69 -15t-47 -44t-27.5 -55t-19.5 -66h219q24 108 70 163t142 55z" />
    <glyph glyph-name="f_i" unicode="fi" horiz-adv-x="484" 
d="M189 480h265l-111 -480h-43l102 443h-221l-103 -468q-19 -92 -70.5 -145t-137.5 -53l8 38q70 3 107.5 48t50.5 107l103 473h-49l8 37h50q24 108 70 163t142 55l-8 -38q-40 0 -69 -15t-47 -44t-27.5 -55t-19.5 -66zM514 666q-2 -17 -16.5 -29.5t-31.5 -12.5q-16 0 -25 11
t-6 26q2 17 16.5 29.5t31.5 12.5q16 0 24.5 -11t6.5 -26z" />
    <glyph glyph-name="f_l" unicode="fl" horiz-adv-x="488" 
d="M456 660h-104q-40 0 -69 -15t-47 -44t-27.5 -55t-19.5 -66h108l-9 -37h-107l-103 -468q-19 -92 -70.5 -145t-137.5 -53l8 38q70 3 107.5 48t50.5 107l103 473h-49l8 37h50q24 108 70 163t142 55h148l-138 -586q-9 -31 -2 -49.5t37 -23.5l-9 -39q-92 7 -70 107z" />
    <glyph glyph-name="f_f_i" unicode="ffi" horiz-adv-x="744" 
d="M620 698l-8 -38q-40 0 -69 -15t-47 -44t-27.5 -55t-19.5 -66h265l-111 -480h-43l102 443h-221l-102 -468q-43 -198 -209 -198l8 38q70 3 107.5 48t50.5 107l103 473h-218l-103 -468q-19 -92 -70.5 -145t-137.5 -53l8 38q70 3 107.5 48t50.5 107l103 473h-49l8 37h50
q24 108 70 163t142 55l-8 -38q-40 0 -69 -15t-47 -44t-27.5 -55t-19.5 -66h219q24 108 70 163t142 55zM774 666q-2 -17 -16.5 -29.5t-31.5 -12.5q-16 0 -25 11t-6 26q2 17 16.5 29.5t31.5 12.5q16 0 24.5 -11t6.5 -26z" />
    <glyph glyph-name="f_f_l" unicode="ffl" horiz-adv-x="748" 
d="M360 698l-8 -38q-40 0 -69 -15t-47 -44t-27.5 -55t-19.5 -66h219q24 108 70 163t142 55h148l-138 -586q-9 -31 -2 -49.5t37 -23.5l-9 -39q-92 7 -70 107l130 553h-104q-40 0 -69 -15t-47 -44t-27.5 -55t-19.5 -66h108l-9 -37h-107l-102 -468q-43 -198 -209 -198l8 38
q70 3 107.5 48t50.5 107l103 473h-218l-103 -468q-19 -92 -70.5 -145t-137.5 -53l8 38q70 3 107.5 48t50.5 107l103 473h-49l8 37h50q24 108 70 163t142 55z" />
    <glyph glyph-name="f_b" unicode="fb" horiz-adv-x="718" 
d="M433 660h-81q-40 0 -69 -15t-47 -44t-27.5 -55t-19.5 -66h108l-9 -37h-107l-103 -468q-19 -92 -70.5 -145t-137.5 -53l8 38q70 3 107.5 48t50.5 107l103 473h-49l8 37h50q24 108 70 163t142 55h124l-100 -459q94 247 223 247q54 0 78.5 -46t24.5 -110q0 -76 -37.5 -154
t-106 -131t-145.5 -53q-60 0 -126 34zM670 336q0 40 -16 76.5t-51 36.5q-48 0 -92 -39.5t-76 -102.5t-52 -116.5t-34 -106.5q-2 -7 -5 -20l-5 -22q41 -17 81 -17q69 0 128.5 52.5t90.5 123.5t31 135z" />
    <glyph glyph-name="f_f_b" unicode="ffb" horiz-adv-x="978" 
d="M360 698l-8 -38q-40 0 -69 -15t-47 -44t-27.5 -55t-19.5 -66h219q24 108 70 163t142 55h124l-100 -459q94 247 223 247q54 0 78.5 -46t24.5 -110q0 -76 -37.5 -154t-105.5 -131t-146 -53q-60 0 -126 34l138 634h-81q-40 0 -69 -15t-47 -44t-27.5 -55t-19.5 -66h108
l-9 -37h-107l-102 -468q-43 -198 -209 -198l8 38q70 3 107.5 48t50.5 107l103 473h-218l-103 -468q-19 -92 -70.5 -145t-137.5 -53l8 38q70 3 107.5 48t50.5 107l103 473h-49l8 37h50q24 108 70 163t142 55zM930 336q0 24 -5 47.5t-21 44.5t-40 21q-48 0 -92.5 -39.5
t-76.5 -102.5t-52 -116.5t-34 -106.5q-2 -7 -5 -20l-5 -22q41 -17 81 -17q69 0 128.5 52.5t90.5 123.5t31 135z" />
    <glyph glyph-name="f_h" unicode="fh" horiz-adv-x="745" 
d="M360 698h126l-101 -463q99 251 226 251q53 0 79 -33t24.5 -76.5t-8.5 -86.5l-64 -290h-43l67 303q32 147 -60 147q-45 0 -89 -40t-75 -99.5t-52 -112t-31 -94.5q-21 -80 -26 -104h-43l145 660h-83q-40 0 -69 -15t-47 -44t-27.5 -55t-19.5 -66h108l-9 -37h-107l-103 -468
q-19 -92 -70.5 -145t-137.5 -53l8 38q70 3 107.5 48t50.5 107l103 473h-49l8 37h50q24 108 70 163t142 55z" />
    <glyph glyph-name="f_f_h" unicode="ffh" horiz-adv-x="1005" 
d="M360 698l-8 -38q-40 0 -69 -15t-47 -44t-27.5 -55t-19.5 -66h219q24 108 70 163t142 55h126l-101 -463q99 251 226 251q53 0 79 -33t24.5 -76.5t-8.5 -86.5l-64 -290h-43l67 303q31 147 -60 147q-45 0 -89 -40t-75 -99.5t-52 -112t-31 -94.5q-21 -80 -26 -104h-43
l145 660h-83q-40 0 -69 -15t-47 -44t-27.5 -55t-19.5 -66h108l-9 -37h-107l-102 -468q-43 -198 -209 -198l8 38q70 3 107.5 48t50.5 107l103 473h-218l-103 -468q-19 -92 -70.5 -145t-137.5 -53l8 38q70 3 107.5 48t50.5 107l103 473h-49l8 37h50q24 108 70 163t142 55z" />
    <glyph glyph-name="f_j" unicode="fj" horiz-adv-x="466" 
d="M189 480h247l-112 -501q-19 -93 -68 -143t-142 -54l9 38q72 3 108 43.5t51 111.5l103 468h-204l-103 -468q-19 -92 -70.5 -145t-137.5 -53l8 38q70 3 107.5 48t50.5 107l103 473h-49l8 37h50q24 108 70 163t142 55l-8 -38q-40 0 -69 -15t-47 -44t-27.5 -55t-19.5 -66z
M495 666q-2 -17 -16.5 -29.5t-31.5 -12.5q-15 0 -24.5 11t-7.5 26q3 17 17.5 29.5t31.5 12.5q16 0 24.5 -11t6.5 -26z" />
    <glyph glyph-name="f_f_j" unicode="ffj" horiz-adv-x="726" 
d="M620 698l-8 -38q-40 0 -69 -15t-47 -44t-27.5 -55t-19.5 -66h247l-112 -501q-19 -93 -68 -143t-142 -54l9 38q72 3 108 43.5t51 111.5l103 468h-204l-102 -468q-43 -198 -209 -198l8 38q70 3 107.5 48t50.5 107l103 473h-218l-103 -468q-19 -92 -70.5 -145t-137.5 -53
l8 38q70 3 107.5 48t50.5 107l103 473h-49l8 37h50q24 108 70 163t142 55l-8 -38q-40 0 -69 -15t-47 -44t-27.5 -55t-19.5 -66h219q24 108 70 163t142 55zM755 666q-2 -17 -16.5 -29.5t-31.5 -12.5q-15 0 -24.5 11t-7.5 26q3 17 17.5 29.5t31.5 12.5q16 0 24.5 -11t6.5 -26z
" />
    <glyph glyph-name="f_k" unicode="fk" horiz-adv-x="636" 
d="M414 660h-62q-40 0 -69 -15t-47 -44t-27.5 -55t-19.5 -66h108l-9 -37h-107l-103 -468q-19 -92 -70.5 -145t-137.5 -53l8 38q70 3 107.5 48t50.5 107l103 473h-49l8 37h50q24 108 70 163t142 55h103l-152 -698h-41zM604 480h52l-234 -228l85 -135q47 -74 113 -80l-8 -37
q-78 5 -138 94q-12 17 -37 57t-43 72l-19 32z" />
    <glyph glyph-name="f_f_k" unicode="ffk" horiz-adv-x="896" 
d="M360 698l-8 -38q-40 0 -69 -15t-47 -44t-27.5 -55t-19.5 -66h219q24 108 70 163t142 55h103l-152 -698h-41l144 660h-62q-40 0 -69 -15t-47 -44t-27.5 -55t-19.5 -66h108l-9 -37h-107l-102 -468q-43 -198 -209 -198l8 38q70 3 107.5 48t50.5 107l103 473h-218l-103 -468
q-19 -92 -70.5 -145t-137.5 -53l8 38q70 3 107.5 48t50.5 107l103 473h-49l8 37h50q24 108 70 163t142 55zM865 480h51l-234 -228l85 -135q47 -74 113 -80l-8 -37q-78 5 -138 94q-12 17 -37 57t-43 72l-19 32z" />
    <glyph glyph-name=".notdef" horiz-adv-x="264" 
 />
    <glyph glyph-name=".null" horiz-adv-x="0" 
 />
    <glyph glyph-name="nonmarkingreturn" horiz-adv-x="333" 
 />
    <glyph glyph-name="space" unicode=" " horiz-adv-x="264" 
 />
    <glyph glyph-name="exclam" unicode="!" horiz-adv-x="261" 
d="M250 698h52l-70 -330l-51 -184h-29l27 184zM172 32q-4 -17 -17 -28.5t-29 -11.5q-15 0 -24 11.5t-5 28.5q3 17 17 29t29 12q16 0 24 -12t5 -29z" />
    <glyph glyph-name="quotedbl" unicode="&#x22;" horiz-adv-x="273" 
d="M332 704l-34 -160h-54l34 160q2 11 12 20t21 9t17 -9t4 -20zM188 704l-34 -160h-54l34 160q2 11 12 20t21 9t17 -8.5t4 -20.5z" />
    <glyph glyph-name="numbersign" unicode="#" horiz-adv-x="677" 
d="M565 482h119l-17 -39h-118l-78 -188h119l-16 -39h-118l-88 -216h-36l87 216h-175l-88 -216h-35l88 216h-119l17 39h117l78 188h-118l16 39h118l88 216h37l-89 -216h174l89 216h37zM436 255l78 188h-175l-78 -188h175z" />
    <glyph glyph-name="dollar" unicode="$" horiz-adv-x="438" 
d="M429 224q-16 -73 -75 -117t-130 -49l-12 -58h-37l13 59q-65 5 -105.5 40t-42.5 101l36 8q4 -100 120 -109l54 255q-35 10 -56 18.5t-43.5 24.5t-30 41.5t0.5 60.5q15 69 69.5 104.5t120.5 37.5l12 57h37l-12 -57q96 -10 125 -94l-34 -20q-21 65 -99 75l-47 -217
q16 -4 27 -8l25 -9t24.5 -10.5t21 -13t18 -16t13.5 -19.5t8.5 -23.5t2.5 -28t-4 -33.5zM259 394l44 208q-51 -1 -93.5 -26t-53.5 -77q-9 -46 18 -67.5t85 -37.5zM393 224q6 29 0.5 49.5t-24.5 34t-36.5 21t-47.5 16.5l-52 -247q56 3 102 35.5t58 90.5z" />
    <glyph glyph-name="percent" unicode="%" horiz-adv-x="783" 
d="M716 182q-18 -82 -60.5 -137t-110.5 -55q-46 0 -71.5 28.5t-26.5 71t7 92.5q18 82 61.5 137.5t110.5 55.5q47 0 72 -28.5t26 -71.5t-8 -93zM633 698h39l-429 -698h-40zM421 516q-18 -82 -61 -137.5t-111 -55.5q-46 0 -71 28.5t-26 71.5t8 93q17 81 60 136.5t111 55.5
q46 0 71 -28.5t26 -71t-7 -92.5zM682 182q33 158 -63 158q-97 0 -130 -158q-32 -157 62 -157q99 0 131 157zM388 516q33 157 -65 157q-95 0 -130 -157q-6 -28 -7.5 -52.5t2.5 -50t21 -41t47 -15.5q97 0 132 159z" />
    <glyph glyph-name="ampersand" unicode="&#x26;" horiz-adv-x="628" 
d="M534 30l-30 -33q-35 35 -66 73q-94 -80 -214 -80q-85 0 -133 47.5t-32 132.5q14 75 57.5 125.5t125.5 97.5q-45 101 -32 167q11 63 55.5 104t104.5 41q56 0 82 -35.5t15 -93.5q-10 -61 -53 -105t-120 -89q63 -134 151 -248q62 78 86 176h42q-29 -120 -104 -206zM426 572
q8 41 -8.5 67t-55.5 26q-41 0 -71.5 -29t-38.5 -73q-12 -65 28 -151l49 32.5t41.5 33t37 44t18.5 50.5zM415 102q-93 121 -157 259q-71 -42 -107.5 -81.5t-49.5 -105.5q-13 -68 28 -106t105 -38q96 0 181 72z" />
    <glyph glyph-name="quotesingle" unicode="'" horiz-adv-x="129" 
d="M188 704l-34 -160h-54l34 160q2 11 12 20t21 9t17 -8.5t4 -20.5z" />
    <glyph glyph-name="parenleft" unicode="(" horiz-adv-x="309" 
d="M122 349q20 95 78 189.5t138 159.5h45q-82 -66 -142 -162t-79 -187q-20 -85 -1 -183.5t74 -165.5h-45q-54 65 -71.5 161t3.5 188z" />
    <glyph glyph-name="parenright" unicode=")" horiz-adv-x="260" 
d="M261 349q-21 -95 -78.5 -189t-137.5 -160h-45q83 67 142.5 163t78.5 186q20 86 1 184.5t-74 164.5h45q52 -65 70 -161t-2 -188z" />
    <glyph glyph-name="asterisk" unicode="*" horiz-adv-x="440" 
d="M397 602l2 -37l-140 -42l58 -119l-33 -23l-52 124l-103 -124l-24 23l108 119l-123 42l19 37l120 -50l28 149h35l-36 -149z" />
    <glyph glyph-name="plus" unicode="+" horiz-adv-x="494" 
d="M468 295l-9 -42h-168l-38 -183h-40l38 183h-167l9 42h167l39 182h40l-39 -182h168z" />
    <glyph glyph-name="comma" unicode="," horiz-adv-x="170" 
d="M99 34l-8 -35l-76 -112h-15l32 147q3 16 15 28t24 12q15 0 23 -11.5t5 -28.5z" />
    <glyph glyph-name="hyphen" unicode="-" horiz-adv-x="371" 
d="M309 293l-7 -40h-242l8 40h241z" />
    <glyph glyph-name="period" unicode="." horiz-adv-x="160" 
d="M98 35q-4 -17 -17.5 -29t-29.5 -12q-15 0 -24 12t-5 29t18 29t29 12q16 0 24.5 -12t4.5 -29z" />
    <glyph glyph-name="slash" unicode="/" horiz-adv-x="367" 
d="M322 774h45l-323 -850h-44z" />
    <glyph glyph-name="zero" unicode="0" horiz-adv-x="521" 
d="M506 349q-14 -65 -36 -122.5t-56 -113t-85 -88t-112 -32.5q-49 0 -83 22.5t-50 57.5t-21 83t-1 95t15 98q15 66 37 123.5t56.5 112.5t85.5 87t112 32t98 -32.5t48 -87t8.5 -112.5t-16.5 -123zM466 349q11 51 14.5 98t-2 99.5t-35.5 84.5t-84 32q-44 0 -82 -22.5
t-62.5 -55t-45.5 -78t-31.5 -82t-19.5 -76.5q-11 -51 -14.5 -97.5t2 -100t36 -85.5t84.5 -32t98 32t72 85.5t43.5 100t26.5 97.5z" />
    <glyph glyph-name="one" unicode="1" horiz-adv-x="274" 
d="M299 698l-148 -698h-41l135 641l-131 -88l-14 33l163 112h36z" />
    <glyph glyph-name="two" unicode="2" horiz-adv-x="514" 
d="M440 42l-8 -42h-397l7 35q39 86 95.5 151.5t110 103l103.5 70t86.5 73t47.5 92.5q14 66 -23 102.5t-100 36.5q-45 0 -88 -23.5t-75 -67.5l-31 21q83 112 204 112q84 0 127.5 -48.5t25.5 -133.5q-13 -59 -50.5 -104.5t-87.5 -80l-102.5 -70t-106.5 -94t-88 -133.5h350z
" />
    <glyph glyph-name="three" unicode="3" horiz-adv-x="479" 
d="M431 192q-19 -91 -86 -145t-152 -54q-66 0 -107.5 31t-50.5 95l41 15q7 -48 41 -73.5t84 -25.5q65 0 119.5 43.5t69.5 113.5q16 76 -20.5 115t-109.5 41l8 33q67 2 114 37t62 105q13 60 -22.5 101.5t-92.5 41.5q-44 0 -86.5 -25t-68.5 -68l-34 16q36 56 89 86.5t111 30.5
q76 0 118.5 -51t25.5 -132q-24 -118 -135 -158q52 -20 74 -64.5t8 -108.5z" />
    <glyph glyph-name="four" unicode="4" horiz-adv-x="457" 
d="M455 226l-8 -42h-63l-39 -184h-39l39 184h-315l10 46l375 468h42l-376 -472h272l61 285l38 -7l-60 -278h63z" />
    <glyph glyph-name="five" unicode="5" horiz-adv-x="471" 
d="M451 231q-23 -107 -91.5 -172t-166.5 -65q-64 0 -104.5 33t-48.5 94l40 13q8 -47 40.5 -73t81.5 -26q80 0 135.5 55.5t72.5 140.5q18 83 -12.5 138t-110.5 55q-73 0 -138 -53h-40l69 327h328l-8 -41h-293l-52 -246q71 53 143 53q97 0 137 -64t18 -169z" />
    <glyph glyph-name="six" unicode="6" horiz-adv-x="457" 
d="M444 207q-19 -93 -89 -153t-156 -60q-93 0 -135.5 68.5t-20.5 171.5q29 135 118 259.5t209 204.5h51q-221 -147 -316 -381q78 112 189 112q88 0 129 -63t21 -159zM404 208q17 76 -17 128t-104 52q-67 0 -126.5 -52t-75.5 -125q-15 -71 23.5 -123t104.5 -52
q67 0 123.5 49.5t71.5 122.5z" />
    <glyph glyph-name="seven" unicode="7" horiz-adv-x="430" 
d="M512 698l-9 -40q-61 -63 -109 -124t-98.5 -142t-88.5 -180.5t-60 -211.5h-47q44 211 136.5 368t220.5 288h-300l-12 -59h-37l21 101h383z" />
    <glyph glyph-name="eight" unicode="8" horiz-adv-x="488" 
d="M443 193q-19 -90 -88 -145t-155 -55q-87 0 -132.5 54.5t-26.5 145.5q29 133 158 176q-47 20 -63 64t-5 92q17 80 80 130t140 50t118.5 -50t24.5 -130q-11 -49 -44 -92t-90 -64q111 -43 83 -176zM453 524q13 62 -20 101.5t-90 39.5q-58 0 -108.5 -39.5t-63.5 -101.5
q-14 -66 18.5 -102.5t93.5 -36.5q62 0 109 36.5t61 102.5zM402 193q15 74 -21.5 115t-105.5 41q-70 0 -123 -40.5t-69 -115.5q-15 -70 22.5 -114t103.5 -44t122 44t71 114z" />
    <glyph glyph-name="nine" unicode="9" horiz-adv-x="446" 
d="M458 464q-28 -130 -114 -255.5t-209 -208.5h-52q229 162 311 381q-72 -101 -177 -101q-83 0 -125.5 60.5t-23.5 150.5q19 89 88 151.5t152 62.5q93 0 132.5 -69t17.5 -172zM420 493q15 70 -20 120.5t-101 50.5q-65 0 -121.5 -51.5t-70.5 -120.5q-15 -69 20 -120t100 -51
q68 0 123 50t70 122z" />
    <glyph glyph-name="colon" unicode=":" horiz-adv-x="167" 
d="M165 351q-4 -17 -17.5 -29t-29.5 -12q-15 0 -24 12t-5 29t18 29.5t29 12.5q16 0 24.5 -12.5t4.5 -29.5zM98 33q-5 -18 -18 -29.5t-29 -11.5t-24.5 12t-4.5 29q3 16 17 28.5t29 12.5q16 0 24.5 -12t5.5 -29z" />
    <glyph glyph-name="semicolon" unicode=";" horiz-adv-x="168" 
d="M166 351q-4 -17 -16 -29t-26 -12t-21.5 12t-3.5 29t16.5 29.5t26.5 12.5t21 -12.5t3 -29.5zM99 34l-8 -35l-76 -112h-15l32 147q3 16 15 27.5t24 11.5q16 0 23.5 -11t4.5 -28z" />
    <glyph glyph-name="less" unicode="&#x3c;" horiz-adv-x="456" 
d="M467 698h51l-343 -349l195 -349h-51l-195 349z" />
    <glyph glyph-name="equal" unicode="=" horiz-adv-x="516" 
d="M487 382l-9 -42h-373l9 42h373zM441 166l-8 -42h-373l8 42h373z" />
    <glyph glyph-name="greater" unicode="&#x3e;" horiz-adv-x="456" 
d="M248 698l196 -349l-344 -349h-50l342 349l-194 349h50z" />
    <glyph glyph-name="question" unicode="?" horiz-adv-x="516" 
d="M534 526q-8 -37 -26.5 -64t-36 -39.5t-45.5 -27.5q-52 -28 -78.5 -58t-38.5 -77l-21 -78h-23q2 35 10 78q9 43 29 75t37.5 46t45.5 30l37.5 21.5t28 20t28 32t14.5 41.5q13 65 -20 102t-94 37q-57 0 -108.5 -33.5t-68.5 -93.5h-37q20 77 83.5 122.5t138.5 45.5
q77 0 120 -49.5t25 -130.5zM283 32q-4 -17 -17 -28.5t-28 -11.5q-16 0 -24.5 11.5t-4.5 28.5q3 16 16.5 28t29.5 12q15 0 23 -11.5t5 -28.5z" />
    <glyph glyph-name="at" unicode="@" horiz-adv-x="666" 
d="M634 407q-5 -25 -24.5 -74t-21.5 -56l-76 -278l-36 3l36 136q-101 -150 -210 -150q-63 0 -85 55t-7 127q14 65 55 136t104 124t124 53q80 0 91 -114q16 48 20 97.5t-4 94t-37.5 72.5t-76.5 28q-51 0 -104.5 -28.5t-99 -74.5t-84 -102.5t-64.5 -114.5t-37 -109
q-31 -143 38 -214l-26 -32q-43 39 -54.5 109.5t5.5 137.5q21 98 85 204.5t160.5 184.5t189.5 78q51 0 85.5 -25.5t48 -67t16 -94t-10.5 -106.5zM549 290q5 32 4.5 66t-18.5 60.5t-49 26.5q-75 0 -147.5 -92.5t-90.5 -179.5q-5 -32 -5 -64t17 -55.5t50 -23.5q73 0 147 90
t92 172z" />
    <glyph glyph-name="A" unicode="A" horiz-adv-x="592" 
d="M440 698l99 -698h-44l-31 214h-310l-120 -214h-44l395 698h55zM177 254h282l-56 401z" />
    <glyph glyph-name="B" unicode="B" horiz-adv-x="570" 
d="M527 189q-42 -189 -256 -189h-236l148 698h218q95 0 142.5 -43.5t27.5 -138.5q-24 -108 -131 -156q58 -21 78.5 -67t8.5 -104zM530 516q30 140 -138 140h-177l-59 -282h183q161 0 191 142zM485 189q31 149 -143 149h-194l-63 -295h194q175 0 206 146z" />
    <glyph glyph-name="C" unicode="C" horiz-adv-x="525" 
d="M448 125l25 -29q-57 -56 -104.5 -80.5t-111.5 -24.5q-69 0 -114.5 30t-62.5 79.5t-19.5 114.5t15.5 134q16 73 42.5 134.5t66.5 113t97.5 81t126.5 29.5q63 0 101 -24.5t70 -78.5l-37 -29q-27 45 -59 66t-84 21q-62 0 -112 -27.5t-82.5 -75t-53.5 -99t-33 -111.5
q-13 -60 -14.5 -111.5t11 -99t50.5 -75t100 -27.5q53 0 94.5 21.5t87.5 67.5z" />
    <glyph glyph-name="D" unicode="D" horiz-adv-x="588" 
d="M565 349q-12 -57 -21.5 -93t-24 -77.5t-31 -65.5t-41.5 -48.5t-56.5 -37t-74 -20t-97.5 -7.5h-184l148 698h184q124 0 176 -38.5t49.5 -116.5t-27.5 -194zM523 349q1 4 5 22.5t5 24.5t5 24t5 25.5t3.5 24t3 25t1.5 22.5t0 23t-2.5 19.5t-4.5 18.5q-14 40 -57 58t-125 18
h-147l-129 -609h147q156 0 214 77q8 10 15 23t12.5 24.5t11.5 29.5t9 28.5t8.5 32t7 29.5t6.5 31.5t6 28.5z" />
    <glyph glyph-name="E" unicode="E" horiz-adv-x="528" 
d="M449 44l-9 -44h-405l148 698h405l-9 -44h-364l-57 -271h317l-9 -42h-317l-63 -297h363z" />
    <glyph glyph-name="F" unicode="F" horiz-adv-x="509" 
d="M579 698l-9 -44h-355l-58 -271h318l-9 -41h-317l-72 -342h-42l148 698h396z" />
    <glyph glyph-name="G" unicode="G" horiz-adv-x="559" 
d="M343 358h205l-76 -358h-38l28 129q-41 -75 -92 -106.5t-118 -31.5t-111.5 30.5t-61 81t-18.5 115t15 131.5q15 71 42.5 133t67.5 113.5t97.5 81.5t125.5 30q62 0 100 -25t69 -80l-36 -28q-27 45 -58.5 66.5t-84.5 21.5q-62 0 -112 -27.5t-82.5 -75t-53 -99t-33.5 -111.5
q-13 -59 -14.5 -110t10.5 -99t49.5 -76t97.5 -28q178 0 238 280h-165z" />
    <glyph glyph-name="H" unicode="H" horiz-adv-x="608" 
d="M643 698l-148 -698h-41l72 341h-377l-72 -341h-42l148 698h42l-67 -315h376l68 315h41z" />
    <glyph glyph-name="I" unicode="I" horiz-adv-x="165" 
d="M225 698l-148 -698h-42l148 698h42z" />
    <glyph glyph-name="J" unicode="J" horiz-adv-x="492" 
d="M533 698l-103 -490q-47 -215 -248 -215q-72 0 -114.5 35.5t-47.5 103.5l42 11q12 -105 128 -105q83 0 131 41.5t67 129.5l103 489h42z" />
    <glyph glyph-name="K" unicode="K" horiz-adv-x="537" 
d="M488 43l-10 -43q-104 5 -170 112l-145 239l371 347h53l-374 -354l134 -207q27 -43 59.5 -67t81.5 -27zM80 0h-45l149 698h45z" />
    <glyph glyph-name="L" unicode="L" horiz-adv-x="461" 
d="M412 41l-9 -41h-368l148 698h42l-140 -657h327z" />
    <glyph glyph-name="M" unicode="M" horiz-adv-x="681" 
d="M716 698l-148 -698h-42l126 592l-330 -592h-41l-79 591l-125 -591h-42l148 698h43l87 -643l359 643h44z" />
    <glyph glyph-name="N" unicode="N" horiz-adv-x="586" 
d="M621 698l-148 -698h-45l-219 622l-132 -622h-42l148 698h46l218 -622l133 622h41z" />
    <glyph glyph-name="O" unicode="O" horiz-adv-x="596" 
d="M583 349q-15 -72 -41.5 -133.5t-65.5 -113.5t-96 -81.5t-126 -29.5t-113.5 29.5t-62 81.5t-17.5 113.5t15 133.5t41.5 133.5t65.5 113.5t96 81.5t126 29.5t113.5 -29.5t62 -81.5t17.5 -113t-15 -134zM542 349q13 60 14 110.5t-10.5 99t-49.5 76t-100 27.5
q-50 0 -92.5 -19t-72 -49t-53 -72.5t-37 -84t-23.5 -88.5t-14 -88.5t1 -83.5t21.5 -72.5t51 -49.5t84.5 -19t92.5 19t72 49t53.5 72.5t38 84t24 88.5z" />
    <glyph glyph-name="P" unicode="P" horiz-adv-x="565" 
d="M588 509q-40 -189 -249 -189h-195l-67 -320h-42l148 698h236q209 0 169 -189zM547 509q17 83 -22 114t-116 31h-194l-61 -293h193q50 0 87 11t69 45.5t44 91.5z" />
    <glyph glyph-name="Q" unicode="Q" horiz-adv-x="627" 
d="M630 483q0 -126 -49.5 -250t-146.5 -191q55 -54 120 -61l-8 -41q-85 11 -150 82q-61 -30 -126 -30q-99 0 -154.5 62.5t-55.5 162.5q0 83 21.5 167t63.5 157.5t113 119.5t160 46q100 0 156 -62.5t56 -161.5zM583 478q0 81 -43 132.5t-126 51.5q-64 0 -117.5 -29.5t-88 -76
t-58 -106t-34 -117.5t-10.5 -113q0 -81 43 -132t126 -51q42 0 97 22q-1 2 -34.5 44.5t-34.5 44.5h47q3 -3 23.5 -29.5t34.5 -41.5q88 63 131.5 175t43.5 226z" />
    <glyph glyph-name="R" unicode="R" horiz-adv-x="588" 
d="M603 552q0 -219 -263 -225q43 -19 68 -81q9 -22 32 -88q19 -50 46 -81t74 -35l-9 -42q-62 3 -96 41.5t-60 109.5q-5 15 -26 71q-18 48 -42 75.5t-66 27.5h-111l-70 -325h-45l149 698h225q91 0 142.5 -32.5t51.5 -113.5zM559 546q0 30 -10.5 51t-25.5 32t-39 17t-43 7.5
t-46 1.5h-175l-62 -293h180q221 0 221 184z" />
    <glyph glyph-name="S" unicode="S" horiz-adv-x="543" 
d="M509 191q-19 -93 -96.5 -146.5t-169.5 -53.5q-208 0 -208 174l42 8q3 -140 175 -140q71 0 135 41t80 117q9 40 -2.5 69.5t-36.5 45t-58.5 28.5t-69.5 20.5t-69.5 21.5t-58 31t-35 49t-1.5 76q18 85 86.5 129t152.5 44q156 0 189 -131l-40 -18q-29 105 -159 105
q-39 0 -75 -10.5t-69 -41t-43 -77.5q-9 -40 7.5 -67t49 -41t73.5 -25t81 -24.5t71.5 -33.5t46 -58t2.5 -92z" />
    <glyph glyph-name="T" unicode="T" horiz-adv-x="469" 
d="M569 698l-9 -44h-209l-139 -654h-41l138 654h-209l10 44h459z" />
    <glyph glyph-name="U" unicode="U" horiz-adv-x="583" 
d="M630 698l-86 -401q-31 -146 -100 -226t-194 -80q-231 0 -165 306l85 401h42l-85 -399q-9 -44 -12.5 -79.5t1.5 -71t20 -59t46 -38.5t77 -15q57 0 100.5 21t71.5 60.5t44.5 82.5t28.5 99l85 399h41z" />
    <glyph glyph-name="V" unicode="V" horiz-adv-x="459" 
d="M515 698h44l-366 -698h-48l-70 698h44l63 -636z" />
    <glyph glyph-name="W" unicode="W" horiz-adv-x="664" 
d="M722 698h42l-298 -698h-48l-3 616l-265 -616h-48l-2 698h43v-622l267 622h43l4 -622z" />
    <glyph glyph-name="X" unicode="X" horiz-adv-x="481" 
d="M309 361l138 -361h-49l-121 320l-258 -320h-49l290 361l-128 337h49l113 -298l238 298h49z" />
    <glyph glyph-name="Y" unicode="Y" horiz-adv-x="437" 
d="M520 698h47l-312 -467l-49 -231h-41l49 231l-114 467h47l98 -415z" />
    <glyph glyph-name="Z" unicode="Z" horiz-adv-x="539" 
d="M192 698h427l-10 -46l-545 -619q67 8 93 8q31 0 92.5 -9.5t92.5 -9.5q59 0 113 17l17 -41q-55 -19 -132 -19q-34 0 -99 9.5t-98 9.5q-78 0 -122 -13l-16 44l552 625h-376z" />
    <glyph glyph-name="bracketleft" unicode="[" horiz-adv-x="350" 
d="M230 -35l-5 -28h-145l175 824h145l-6 -27h-104l-164 -769h104z" />
    <glyph glyph-name="backslash" unicode="\" horiz-adv-x="367" 
d="M44 774l323 -850h-45l-322 850h44z" />
    <glyph glyph-name="bracketright" unicode="]" horiz-adv-x="236" 
d="M320 761l-175 -824h-145l5 28h105l164 769h-105l6 27h145z" />
    <glyph glyph-name="asciicircum" unicode="^" horiz-adv-x="494" 
d="M326 699l100 -300l-37 -20l-94 287l-215 -287l-29 20l227 300h48z" />
    <glyph glyph-name="underscore" unicode="_" horiz-adv-x="503" 
d="M468 0l-7 -36h-441l7 36h441z" />
    <glyph glyph-name="grave" unicode="`" horiz-adv-x="284" 
d="M485 682l47 -148h-40l-61 148h54z" />
    <glyph glyph-name="a" unicode="a" horiz-adv-x="456" 
d="M456 452l-90 -417l3 -35l-39 -5l-3 42l45 211q-92 -256 -228 -256q-55 0 -79.5 46t-24.5 112q0 77 37.5 154t105 129t145.5 52q62 0 128 -33zM410 435q-45 18 -78 18q-70 0 -130 -52t-91 -122.5t-31 -133.5q0 -24 5 -48t21.5 -45.5t41.5 -21.5q49 0 96.5 46.5t80.5 114
t55 132t30 112.5z" />
    <glyph glyph-name="b" unicode="b" horiz-adv-x="443" 
d="M435 330q0 -76 -37.5 -154t-106 -131t-145.5 -53q-60 0 -126 34l147 672h42l-100 -459q94 247 223 247q54 0 78.5 -46t24.5 -110zM395 336q0 40 -16 76.5t-51 36.5q-48 0 -92 -39.5t-76 -102.5t-52 -116.5t-34 -106.5q-2 -7 -5 -20l-5 -22q41 -17 81 -17q69 0 128.5 52.5
t90.5 123.5t31 135z" />
    <glyph glyph-name="c" unicode="c" horiz-adv-x="403" 
d="M413 414l-36 -21q-21 29 -41.5 41t-54.5 12q-68 0 -117.5 -49t-70 -111.5t-20.5 -123.5q0 -58 27 -94.5t86 -36.5q67 0 126 59l29 -29q-40 -38 -75 -53.5t-83 -15.5q-76 0 -114.5 45t-38.5 121q0 58 16.5 115t47 105t80 78t110.5 30q46 0 75 -16.5t54 -55.5z" />
    <glyph glyph-name="d" unicode="d" horiz-adv-x="452" 
d="M456 698h41l-144 -660l4 -38l-40 -5l-3 36l47 218q-50 -133 -106 -195t-121 -62q-55 0 -79.5 45.5t-24.5 110.5q0 76 37.5 153.5t105.5 131t144 53.5q39 0 89 -18zM399 435q-42 18 -78 18q-68 0 -128 -52.5t-91.5 -123t-31.5 -133.5q0 -25 5 -48.5t21 -45t41 -21.5
q49 0 96.5 47.5t80.5 115.5t55 132.5t30 110.5z" />
    <glyph glyph-name="e" unicode="e" horiz-adv-x="417" 
d="M417 388q0 -43 -37 -74t-95.5 -46.5t-107 -22t-95.5 -8.5q-10 -44 -10 -79q0 -127 111 -127q66 0 128 59l28 -29q-40 -38 -75 -53.5t-82 -15.5q-76 0 -114 45t-38 122t28 150.5t87 125t137 51.5q53 0 94 -25.5t41 -72.5zM377 386q0 32 -29.5 46.5t-65.5 14.5
q-136 0 -194 -184q36 2 80 9t93.5 21t82.5 38.5t33 54.5z" />
    <glyph glyph-name="f" unicode="f" horiz-adv-x="260" 
d="M352 660q-40 0 -69 -15t-47 -44t-27.5 -55t-19.5 -66h108l-9 -37h-107l-103 -468q-19 -92 -70.5 -145t-137.5 -53l8 38q70 3 107.5 48t50.5 107l103 473h-49l8 37h50q24 108 70 163t142 55z" />
    <glyph glyph-name="g" unicode="g" horiz-adv-x="445" 
d="M435 453l-55.5 -252l-49.5 -227q-43 -193 -211 -193q-55 0 -111 24l18 36q51 -23 94 -23q132 0 168 160q0 1 31 133.5t32 134.5q-52 -134 -108.5 -193.5t-120.5 -59.5q-54 0 -78.5 45t-24.5 110q0 76 37.5 153.5t105.5 130.5t145 53q59 0 128 -32zM390 435q-40 18 -80 18
q-69 0 -128.5 -53t-91 -123.5t-31.5 -132.5q0 -24 5 -48t21.5 -45t41.5 -21q48 0 95.5 46.5t81 114.5t56 132t30.5 112z" />
    <glyph glyph-name="h" unicode="h" horiz-adv-x="485" 
d="M446 290l-64 -290h-43l67 303q32 147 -60 147q-45 0 -89 -40t-75 -99.5t-52 -112t-31 -94.5q-23 -88 -26 -104h-43l153 697h42l-100 -462q51 129 106 190t120 61q53 0 79 -33t24.5 -76.5t-8.5 -86.5z" />
    <glyph glyph-name="i" unicode="i" horiz-adv-x="224" 
d="M253 666q-1 -17 -15.5 -29.5t-31.5 -12.5q-16 0 -25 11t-6 26q2 17 16.5 29.5t31.5 12.5q16 0 24.5 -11t5.5 -26zM151 480h43l-111 -480h-43z" />
    <glyph glyph-name="j" unicode="j" horiz-adv-x="206" 
d="M235 666q-2 -17 -16.5 -29.5t-31.5 -12.5q-15 0 -24.5 11t-7.5 26q3 17 17.5 29.5t31.5 12.5q15 0 24 -11t7 -26zM133 480h43l-112 -501q-19 -93 -68 -143t-142 -54l9 38q72 3 108 43.5t51 111.5z" />
    <glyph glyph-name="k" unicode="k" horiz-adv-x="396" 
d="M364 480h52l-234 -228l85 -135q47 -74 113 -80l-8 -37q-78 5 -138 94q-12 17 -36.5 57l-43.5 72l-19 32zM182 698h41l-152 -698h-41z" />
    <glyph glyph-name="l" unicode="l" horiz-adv-x="213" 
d="M190 698h43l-138 -586q-9 -31 -2 -49.5t37 -23.5l-9 -39q-92 7 -70 107z" />
    <glyph glyph-name="m" unicode="m" horiz-adv-x="766" 
d="M726 294l-62 -294h-43l66 306q31 143 -56 143q-38 0 -79 -39.5t-72.5 -96t-54 -109.5t-31.5 -89q-5 -20 -14 -65l-10 -50h-43l68 307q27 142 -56 142q-51 0 -104 -61t-87.5 -135.5t-49.5 -139.5q-23 -96 -26 -113h-42l102 480h42l-50 -240q13 36 32 73t47 79t66 68t77 26
q22 0 38.5 -5.5t26 -16.5t16.5 -23t8.5 -31t2.5 -33t-2.5 -37.5t-5.5 -35.5t-6.5 -35t-5.5 -30q41 112 99.5 179.5t118.5 67.5q40 0 64 -18.5t30 -49.5t4.5 -60.5t-8.5 -63.5z" />
    <glyph glyph-name="n" unicode="n" horiz-adv-x="486" 
d="M447 290l-64 -290h-43l67 302q5 32 7.5 64.5t-14.5 57.5t-54 25q-45 0 -88.5 -39t-74.5 -98.5t-52 -111.5t-32 -96q-23 -88 -26 -104h-43l106 480h43l-54 -244q50 128 105 189t121 61q34 0 57 -13t33.5 -33t13.5 -47.5t0.5 -51.5t-8.5 -51z" />
    <glyph glyph-name="o" unicode="o" horiz-adv-x="443" 
d="M433 341q0 -49 -7.5 -96t-26 -93.5t-46.5 -81.5t-73.5 -57t-101.5 -22q-72 0 -110 38.5t-38 107.5q0 63 13.5 121.5t42 111.5t80.5 85t120 32q71 0 109 -38.5t38 -107.5zM389 329q0 55 -29.5 87t-85.5 32q-52 0 -92.5 -29t-63 -75t-33.5 -95t-11 -98q0 -121 115 -121
q52 0 92.5 29t63 75t33.5 96t11 99z" />
    <glyph glyph-name="p" unicode="p" horiz-adv-x="453" 
d="M445 332q0 -75 -37 -153t-104 -132t-143 -54q-42 0 -91 19l-48 -222h-42l150 690h40l-54 -245q48 127 106 188.5t120 61.5q54 1 78.5 -43.5t24.5 -109.5zM405 334q0 42 -15.5 78.5t-51.5 36.5q-48 0 -95 -45.5t-80 -112t-55.5 -132t-31.5 -115.5q42 -18 79 -18
q67 0 127 52.5t91.5 123t31.5 132.5z" />
    <glyph glyph-name="q" unicode="q" horiz-adv-x="456" 
d="M456 453l-144 -663h-43l71 323l31 131q-95 -252 -227 -252q-38 0 -62.5 26t-33 60t-8.5 75q0 77 37 153t105 127.5t146 51.5q59 0 128 -32zM410 435q-39 18 -78 18q-69 0 -129 -51.5t-91.5 -120.5t-31.5 -131q0 -25 5 -50t21 -48t41 -23q48 0 95.5 47t81 114.5
t56.5 132.5t30 112z" />
    <glyph glyph-name="r" unicode="r" horiz-adv-x="331" 
d="M388 477l-8 -38q-19 10 -40 10q-48 0 -93.5 -40.5t-78 -102.5t-54 -119.5t-33.5 -107.5l-19 -79h-42l106 480h40l-54 -248q91 254 230 254q24 0 46 -9z" />
    <glyph glyph-name="s" unicode="s" horiz-adv-x="378" 
d="M373 408l-37 -16q-27 57 -90 57q-48 0 -83.5 -25.5t-35.5 -73.5q0 -27 22 -45t53.5 -29.5t62.5 -25t53 -40t22 -65.5q0 -68 -52 -111t-125 -43q-119 0 -143 123l38 9q19 -93 108 -93q52 0 91.5 29t39.5 80q0 31 -22 51.5t-53 32t-62 24.5t-53 37t-22 61q0 64 47 102.5
t117 38.5q86 0 124 -78z" />
    <glyph glyph-name="t" unicode="t" horiz-adv-x="254" 
d="M183 480h85l-9 -38h-85l-75 -329q-9 -40 2 -57.5t53 -17.5l-8 -38h-18q-51 0 -67.5 29.5t-5.5 77.5l77 335h-74l9 38h74l33 146h42z" />
    <glyph glyph-name="u" unicode="u" horiz-adv-x="476" 
d="M432 480h44l-105 -480h-42l54 245q-97 -252 -227 -252q-41 0 -66 19t-32 50.5t-6 61.5t8 63l64 293h42l-65 -305q-6 -33 -7.5 -65t15.5 -55.5t52 -23.5q41 0 78.5 28.5t64 69.5t51 98.5t38.5 102.5t26 94z" />
    <glyph glyph-name="v" unicode="v" horiz-adv-x="431" 
d="M436 480h45l-285 -480h-48l-78 480h45l66 -434z" />
    <glyph glyph-name="w" unicode="w" horiz-adv-x="711" 
d="M718 480h43l-252 -480h-47l-60 426l-237 -426h-46l-49 480h45l39 -429l239 429h44l58 -429z" />
    <glyph glyph-name="x" unicode="x" horiz-adv-x="401" 
d="M400 480h51l-210 -232l118 -248h-51l-99 213l-189 -213h-50l224 248l-112 232h51l92 -196z" />
    <glyph glyph-name="y" unicode="y" horiz-adv-x="435" 
d="M437 480h48l-357 -603q-59 -98 -156 -97h-12l9 38q37 0 64 15.5t38.5 31t31.5 49.5l60 100l-74 466h46l59 -416z" />
    <glyph glyph-name="z" unicode="z" horiz-adv-x="464" 
d="M147 480h327l-10 -42l-402 -403q56 9 80.5 6t63.5 -11t67 -8q50 0 95 15l16 -33q-45 -19 -111 -19q-27 0 -79 10t-79 10q-50 0 -89 -14l-21 38l407 412h-273z" />
    <glyph glyph-name="braceleft" unicode="{" horiz-adv-x="336" 
d="M138 370q36 -1 59 11.5t34 39.5t15.5 51.5t8.5 63t8 57.5q17 85 59 126.5t122 41.5l-9 -40q-58 0 -88 -30.5t-44 -98.5q-4 -19 -8 -55t-8.5 -61.5t-14.5 -54t-31.5 -47t-54.5 -25.5q25 -6 38 -21.5t16 -33.5t-1.5 -44t-11 -47.5l-15 -50.5t-12.5 -46q-15 -68 2 -98.5
t75 -30.5l-8 -40q-80 0 -104 41.5t-6 126.5q4 20 16.5 58t18.5 62.5t6.5 51.5t-17.5 39.5t-54 11.5z" />
    <glyph glyph-name="bar" unicode="|" horiz-adv-x="246" 
d="M317 774l-181 -850h-36l180 850h37z" />
    <glyph glyph-name="braceright" unicode="}" horiz-adv-x="285" 
d="M314 370l-9 -42q-35 1 -58 -11.5t-34 -39.5t-15.5 -51.5t-8.5 -63t-8 -57.5q-18 -85 -59.5 -126.5t-121.5 -41.5l8 40q58 0 88 30.5t45 98.5q4 19 7.5 55.5t8 61.5t15 53.5t32 47t54.5 25.5q-30 7 -43.5 25.5t-11.5 47t8 54t17.5 61.5t15.5 55q15 68 -2 98.5t-75 30.5
l8 40q80 0 103.5 -41.5t6.5 -126.5q-4 -16 -11.5 -41l-13.5 -44.5t-11.5 -42t-5 -39t6 -30.5t22 -20.5t42.5 -5.5z" />
    <glyph glyph-name="asciitilde" unicode="~" horiz-adv-x="452" 
d="M376 330l20 -26q-56 -60 -103 -60q-29 0 -52 17.5l-44 35t-46 17.5q-36 0 -75 -45l-20 26q53 58 103 58q36 0 73.5 -34.5t66.5 -34.5q38 0 77 46z" />
    <glyph glyph-name="nbspace" unicode="&#xa0;" horiz-adv-x="132" 
 />
    <glyph glyph-name="exclamdown" unicode="&#xa1;" horiz-adv-x="302" 
d="M302 441q-4 -18 -17.5 -30t-29.5 -12q-15 0 -23.5 12t-5.5 30q4 16 17.5 28t28.5 12q16 0 24.5 -11.5t5.5 -28.5zM246 289l-28 -185l-70 -330h-52l70 330l51 185h29z" />
    <glyph glyph-name="cent" unicode="&#xa2;" horiz-adv-x="394" 
d="M330 91l24 -28q-43 -37 -79.5 -53t-82.5 -16q-29 0 -62 11l-35 -88l-22 5l37 90q-52 31 -68 96t2 132q23 109 90.5 177.5t170.5 69.5l32 75l21 -4l-30 -75q61 -10 101 -66l-35 -27q-33 46 -82 55l-165 -401q26 -12 56 -12q64 1 127 59zM126 52l164 397
q-162 -10 -204 -209q-8 -39 -9.5 -68t10 -62t39.5 -58z" />
    <glyph glyph-name="sterling" unicode="&#xa3;" horiz-adv-x="484" 
d="M383 41l-8 -41h-340l7 38q65 93 82 172q10 48 10 119h-69l16 40h54q2 92 11 133q18 88 75.5 144t137.5 56q56 0 88.5 -18.5t60.5 -62.5l-37 -27q-22 35 -49 51t-72 16q-65 0 -107.5 -45.5t-56.5 -114.5q-9 -39 -13 -132h121l-16 -40h-104q-2 -78 -12 -121
q-15 -72 -71 -167h292z" />
    <glyph glyph-name="currency" unicode="&#xa4;" horiz-adv-x="536" 
d="M450 94l18 -35q-80 -68 -174 -68q-101 0 -151.5 68.5t-44.5 184.5h-68l15 36h55q9 50 22 105h-62l15 36h58q39 127 119 206.5t194 79.5q94 0 145 -67l-33 -35q-44 57 -122 57q-94 0 -160.5 -66t-100.5 -175h234l-15 -36h-231q-15 -67 -20 -105h235l-14 -36h-224
q-3 -97 38.5 -152.5t124.5 -55.5q79 0 147 58z" />
    <glyph glyph-name="yen" unicode="&#xa5;" horiz-adv-x="482" 
d="M569 698h43l-222 -330h90l-16 -37h-97l-67 -101h151l-17 -36h-143l-41 -194h-37l40 194h-153l16 36h145l-25 101h-106l15 37h83l-80 330h42l101 -419z" />
    <glyph glyph-name="brokenbar" unicode="&#xa6;" horiz-adv-x="318" 
d="M354 775l-79 -372h-33l79 372h33zM253 296l-79 -371h-33l79 371h33z" />
    <glyph glyph-name="section" unicode="&#xa7;" horiz-adv-x="537" 
d="M522 223q-18 -86 -92 -142q33 -43 19 -107q-16 -76 -71 -124.5t-127 -48.5q-99 0 -138 128l38 19q33 -106 109 -106q55 0 96 37.5t53 94.5q3 15 3.5 28t-3 23t-8 18t-13.5 14.5l-16 11.5t-19.5 9.5t-21 7l-22.5 6.5q-29 9 -50.5 18t-42.5 24.5t-31 34t-15.5 45.5t3.5 60
q18 87 93 142q-33 45 -20 108q16 75 71 123.5t127 48.5q99 0 138 -127l-38 -19q-31 105 -109 105q-55 0 -96.5 -37.5t-52.5 -93.5q-3 -15 -3.5 -28t3 -23.5t7.5 -18.5t13 -14.5l16 -11.5t19.5 -9.5t21 -7l22.5 -6.5q78 -22 116 -62.5t21 -119.5zM482 223q13 63 -20 94
t-96 49q-44 13 -72 28q-65 -40 -81 -120q-7 -33 -0.5 -58t26.5 -41.5t40.5 -26t49.5 -17.5q37 -9 72 -27q65 39 81 119z" />
    <glyph glyph-name="dieresis" unicode="&#xa8;" horiz-adv-x="448" 
d="M676 581q-3 -16 -15.5 -27.5t-27.5 -11.5t-23.5 11.5t-4.5 27.5t17 27.5t27 11.5q15 0 23 -11.5t4 -27.5zM511 581q-4 -16 -17 -27.5t-28 -11.5q-14 0 -22 11.5t-4 27.5q3 16 16 27.5t27 11.5q15 0 23.5 -11.5t4.5 -27.5z" />
    <glyph glyph-name="copyright" unicode="&#xa9;" horiz-adv-x="802" 
d="M770 348q-31 -145 -147 -247.5t-250 -102.5q-133 0 -206 102.5t-42 247.5q31 146 147 248.5t250 102.5t206.5 -103t41.5 -248zM741 348q28 132 -38 225.5t-188 93.5q-121 0 -227 -93.5t-134 -225.5t38.5 -225t187.5 -93t227 93t134 225zM506 231l18 -21q-53 -52 -111 -52
q-47 0 -73.5 27t-29 69.5t6.5 93.5q17 83 62 137t115 54q58 0 88 -51l-27 -22q-24 40 -68 40q-41 0 -71 -26.5t-44.5 -59t-22.5 -72.5q-32 -157 71 -157q43 0 86 40z" />
    <glyph glyph-name="ordfeminine" unicode="&#xaa;" horiz-adv-x="423" 
d="M361 354l5 -32l-34 -11l-7 35q-63 -42 -120 -42q-56 0 -86 30.5t-18 86.5q11 52 52 82.5t95 31.5h55q43 0 66 19l7 39q8 34 -15 55t-55 21q-75 0 -113 -61l-31 11q54 88 154 88q47 0 77 -31.5t20 -79.5zM263 233l-7 -34h-117l6 34h118zM334 394l26 120q-33 -14 -57 -14
h-62q-36 0 -66 -20t-38 -58q-8 -40 15 -60.5t61 -20.5q59 0 121 53z" />
    <glyph glyph-name="guillemotleft" unicode="&#xab;" horiz-adv-x="491" 
d="M107 234l9 45l219 187l-12 -52l-184 -157l118 -158l-11 -52zM278 234l8 45l219 187l-11 -52l-184 -157l117 -158l-10 -52z" />
    <glyph glyph-name="logicalnot" unicode="&#xac;" horiz-adv-x="500" 
d="M462 285l-39 -186h-30l33 152h-347l7 34h376z" />
    <glyph glyph-name="uni00AD" unicode="&#xad;" horiz-adv-x="371" 
d="M309 293l-7 -40h-242l8 40h241z" />
    <glyph glyph-name="registered" unicode="&#xae;" horiz-adv-x="802" 
d="M770 348q-31 -145 -147 -247.5t-250 -102.5q-133 0 -206 102.5t-42 247.5q31 146 147 248.5t250 102.5t206.5 -103t41.5 -248zM741 348q28 132 -38 225.5t-188 93.5q-121 0 -227 -93.5t-134 -225.5t38.5 -225t187.5 -93t227 93t134 225zM539 165h-38l-38 120
q-17 44 -46 44h-51l-35 -164h-30l79 367h117q52 0 76 -26t12 -77q-8 -39 -37 -68t-72 -31q18 -26 63 -165zM555 429q16 71 -65 71h-88l-30 -145h88q80 0 95 74z" />
    <glyph glyph-name="macron" unicode="&#xaf;" horiz-adv-x="454" 
d="M685 592l-9 -41h-244l9 41h244z" />
    <glyph glyph-name="degree" unicode="&#xb0;" horiz-adv-x="339" 
d="M271 661q-8 -39 -39.5 -66.5t-67.5 -27.5q-35 0 -54.5 27.5t-11.5 66.5q7 38 39 65.5t67 27.5q36 0 55.5 -27.5t11.5 -65.5zM248 661q5 28 -9.5 48t-40.5 20t-48.5 -20t-27.5 -48q-7 -28 7 -48.5t40 -20.5t49 20.5t30 48.5z" />
    <glyph glyph-name="plusminus" unicode="&#xb1;" horiz-adv-x="509" 
d="M500 308l-8 -40h-168l-38 -181h-38l38 181h-168l9 40h167l39 181h38l-38 -181h167zM443 38l-8 -38h-373l8 38h373z" />
    <glyph glyph-name="twosuperior" unicode="&#xb2;" horiz-adv-x="343" 
d="M296 287l-5 -27h-252l4 23q25 55 61 96.5t70 64.5l65.5 44t54.5 46.5t30 58.5q9 42 -14 65.5t-63 23.5q-61 0 -104 -59l-19 14q51 71 128 71q54 0 82 -30.5t17 -85.5q-8 -37 -32 -66t-56 -50.5l-65.5 -44t-67.5 -59.5t-56 -85h222z" />
    <glyph glyph-name="threesuperior" unicode="&#xb3;" horiz-adv-x="330" 
d="M299 382q-12 -58 -55 -92t-97 -34q-89 0 -100 80l26 9q5 -31 26.5 -47t52.5 -16q42 0 76.5 27.5t44.5 72.5q10 49 -13.5 73.5t-68.5 24.5l4 22q92 3 112 90q8 39 -14.5 65t-58.5 26q-28 0 -55 -16t-44 -43l-21 10q47 74 127 74q49 0 75.5 -32t15.5 -84q-15 -75 -86 -100
q71 -26 53 -110z" />
    <glyph glyph-name="acute" unicode="&#xb4;" horiz-adv-x="267" 
d="M500 682h55l-123 -148h-41z" />
    <glyph glyph-name="mu" unicode="&#xb5;" horiz-adv-x="576" 
d="M585 480l-102 -480h-36l14 65q-72 -71 -149 -71q-102 0 -124 84l-58 -273h-36l143 675h37l-58 -272q-18 -84 3.5 -130t100.5 -46q48 0 98.5 33t61.5 84l70 331h35z" />
    <glyph glyph-name="mu" unicode="&#x3bc;" horiz-adv-x="576" 
d="M585 480l-102 -480h-36l14 65q-72 -71 -149 -71q-102 0 -124 84l-58 -273h-36l143 675h37l-58 -272q-18 -84 3.5 -130t100.5 -46q48 0 98.5 33t61.5 84l70 331h35z" />
    <glyph glyph-name="paragraph" unicode="&#xb6;" horiz-adv-x="494" 
d="M539 698l-180 -849h-38l170 806h-50l-170 -806h-38l99 469q-79 1 -120.5 56t-24.5 134t81.5 134.5t140.5 55.5h130z" />
    <glyph glyph-name="periodcentered" unicode="&#xb7;" horiz-adv-x="250" 
d="M182 265q-4 -21 -20.5 -35.5t-35.5 -14.5q-20 0 -30 14.5t-6 35.5q5 21 21.5 35.5t35.5 14.5t29 -14.5t6 -35.5z" />
    <glyph glyph-name="periodcentered" unicode="&#x2219;" horiz-adv-x="250" 
d="M182 265q-4 -21 -20.5 -35.5t-35.5 -14.5q-20 0 -30 14.5t-6 35.5q5 21 21.5 35.5t35.5 14.5t29 -14.5t6 -35.5z" />
    <glyph glyph-name="cedilla" unicode="&#xb8;" horiz-adv-x="452" 
d="M377 22l18 -91l-93 -128h-52l111 131l-15 76z" />
    <glyph glyph-name="onesuperior" unicode="&#xb9;" horiz-adv-x="201" 
d="M217 703l-94 -443h-27l86 407l-83 -55l-9 20l104 71h23z" />
    <glyph glyph-name="ordmasculine" unicode="&#xba;" horiz-adv-x="438" 
d="M425 505q-42 -201 -195 -201q-154 0 -112 201q44 202 197 202q154 0 110 -202zM272 233l-7 -34h-116l7 34h116zM387 505q8 42 9.5 78t-21 60t-69.5 24q-36 0 -63 -13t-44 -38t-26.5 -50.5t-17.5 -60.5q-7 -42 -8 -78t21.5 -60t69.5 -24q117 0 149 162z" />
    <glyph glyph-name="guillemotright" unicode="&#xbb;" horiz-adv-x="491" 
d="M457 279l-9 -45l-218 -187l11 52l185 158l-118 157l11 52zM287 279l-9 -45l-218 -187l10 52l185 158l-118 157l12 52z" />
    <glyph glyph-name="onequarter" unicode="&#xbc;" horiz-adv-x="761" 
d="M676 142l-7 -31h-26l-24 -111h-29l24 111h-168l6 33l219 280h34l-221 -282h141l34 158l22 -5l-32 -153h27zM596 698h30l-428 -698h-31zM302 704l-90 -424h-28l81 380l-89 -49l-7 25l118 68h15z" />
    <glyph glyph-name="onehalf" unicode="&#xbd;" horiz-adv-x="796" 
d="M675 31l-6 -31h-216l6 31q46 85 126 153q67 57 93 86t32 55q7 37 -13 53.5t-46 16.5q-50 0 -90 -56l-22 14q52 72 118 72q42 0 66.5 -27t14.5 -73q-7 -32 -35 -65.5t-100 -94.5q-54 -45 -113 -134h185zM596 698h31l-428 -698h-31zM303 704l-90 -424h-28l81 380l-89 -49
l-8 25l119 68h15z" />
    <glyph glyph-name="threequarters" unicode="&#xbe;" horiz-adv-x="866" 
d="M779 142l-6 -31h-28l-23 -111h-29l23 111h-168l7 33l219 280h33l-220 -282h140l34 158l23 -5l-32 -153h27zM699 698h30l-429 -698h-30zM373 392q-11 -50 -52 -85.5t-89 -35.5q-37 0 -61.5 21.5t-29.5 58.5l30 10q4 -26 22 -42.5t45 -16.5q36 0 67 26.5t39 63.5
q8 38 -11.5 65t-55.5 27h-13l5 28h10q34 0 63 24t37 58q7 34 -12 57.5t-53 23.5q-25 0 -49 -15t-38 -39l-27 11q21 34 54 54t67 20q46 0 71.5 -33t16.5 -79q-12 -53 -76 -95q53 -44 40 -107z" />
    <glyph glyph-name="questiondown" unicode="&#xbf;" horiz-adv-x="516" 
d="M99 -54q-17 -82 25 -130.5t121 -50.5q74 0 138 46t84 124h-38q-16 -60 -68.5 -94.5t-108.5 -34.5q-61 0 -94 38t-19 102q12 56 61 88q9 6 47 27q21 13 33.5 22.5t29.5 27t29 42.5t19 58l13 80h-26l-20 -79q-13 -47 -39.5 -77t-78.5 -58q-28 -15 -45 -27.5t-36 -39.5
t-27 -64zM425 440q-4 -17 -17 -28.5t-30 -11.5q-15 0 -23.5 11.5t-4.5 28.5q5 17 18 29t28 12q17 0 25 -12t4 -29z" />
    <glyph glyph-name="Agrave" unicode="&#xc0;" horiz-adv-x="592" 
d="M440 698l99 -698h-44l-31 214h-310l-120 -214h-44l395 698h55zM177 254h282l-56 401zM383 903l46 -148h-39l-61 148h54z" />
    <glyph glyph-name="Aacute" unicode="&#xc1;" horiz-adv-x="592" 
d="M440 698l99 -698h-44l-31 214h-310l-120 -214h-44l395 698h55zM177 254h282l-56 401zM518 903h54l-123 -148h-40z" />
    <glyph glyph-name="Acircumflex" unicode="&#xc2;" horiz-adv-x="592" 
d="M440 698l99 -698h-44l-31 214h-310l-120 -214h-44l395 698h55zM177 254h282l-56 401zM470 902l65 -147h-48l-46 119l-94 -119h-47l126 147h44z" />
    <glyph glyph-name="Atilde" unicode="&#xc3;" horiz-adv-x="592" 
d="M440 698l99 -698h-44l-31 214h-310l-120 -214h-44l395 698h55zM177 254h282l-56 401zM543 833l19 -26q-42 -52 -83 -52q-28 0 -53 28.5t-45 28.5q-25 0 -55 -36l-20 26q43 51 83 51q28 0 53 -28t45 -28q27 0 56 36z" />
    <glyph glyph-name="Adieresis" unicode="&#xc4;" horiz-adv-x="592" 
d="M440 698l99 -698h-44l-31 214h-310l-120 -214h-44l395 698h55zM177 254h282l-56 401zM552 802q-3 -16 -15.5 -27.5t-27.5 -11.5t-23.5 11.5t-4.5 27.5t17 27.5t27 11.5q15 0 23 -11.5t4 -27.5zM387 802q-4 -16 -17 -27.5t-28 -11.5q-14 0 -22 11.5t-4 27.5q3 16 16 27.5
t27 11.5q15 0 23.5 -11.5t4.5 -27.5z" />
    <glyph glyph-name="Aring" unicode="&#xc5;" horiz-adv-x="592" 
d="M440 698l99 -698h-44l-31 214h-310l-120 -214h-44l395 698h55zM177 254h282l-56 401zM536 855q-8 -40 -41 -69t-70 -29t-57.5 29t-12.5 69t41 69t71 29q37 0 57 -28.5t12 -69.5zM499 855q4 24 -7.5 41t-32.5 17q-23 0 -42 -17t-24 -41t6.5 -41t34.5 -17q21 0 40.5 17
t24.5 41z" />
    <glyph glyph-name="AE" unicode="&#xc6;" horiz-adv-x="766" 
d="M687 44l-9 -44h-375l45 214h-246l-156 -214h-46l514 698h412l-9 -44h-333l-57 -269h289l-10 -44h-289l-63 -297h333zM133 254h224l84 395h-17z" />
    <glyph glyph-name="Ccedilla" unicode="&#xc7;" horiz-adv-x="525" 
d="M448 125l25 -29q-52 -52 -96 -76t-99 -28l13 -70l-83 -119h-48l100 122l-12 67q-66 2 -109.5 32t-60.5 81t-17.5 112t15.5 132q16 73 42.5 134.5t66.5 113t97.5 81t126.5 29.5q63 0 101 -24.5t70 -78.5l-37 -29q-27 45 -59 66t-84 21q-62 0 -112 -27.5t-82.5 -75
t-53.5 -99t-33 -111.5q-13 -60 -14.5 -111.5t11 -99t50.5 -75t100 -27.5q53 0 94.5 21.5t87.5 67.5z" />
    <glyph glyph-name="Egrave" unicode="&#xc8;" horiz-adv-x="528" 
d="M449 44l-9 -44h-405l148 698h405l-9 -44h-364l-57 -271h317l-8 -42h-318l-63 -297h363zM391 903l47 -148h-40l-61 148h54z" />
    <glyph glyph-name="Eacute" unicode="&#xc9;" horiz-adv-x="528" 
d="M449 44l-9 -44h-405l148 698h405l-9 -44h-364l-57 -271h317l-8 -42h-318l-63 -297h363zM415 903h54l-123 -148h-40z" />
    <glyph glyph-name="Ecircumflex" unicode="&#xca;" horiz-adv-x="528" 
d="M449 44l-9 -44h-405l148 698h405l-9 -44h-364l-57 -271h317l-8 -42h-318l-63 -297h363zM439 902l64 -147h-48l-46 119l-94 -119h-47l126 147h45z" />
    <glyph glyph-name="Edieresis" unicode="&#xcb;" horiz-adv-x="528" 
d="M449 44l-9 -44h-405l148 698h405l-9 -44h-364l-57 -271h317l-8 -42h-318l-63 -297h363zM506 802q-4 -17 -16.5 -28t-27.5 -11q-14 0 -22.5 11.5t-4.5 27.5q3 16 16 27.5t28 11.5t23 -11.5t4 -27.5zM341 802q-4 -16 -17 -27.5t-28 -11.5q-14 0 -22 11.5t-5 27.5
q4 16 16.5 27.5t26.5 11.5q15 0 23.5 -11.5t5.5 -27.5z" />
    <glyph glyph-name="Igrave" unicode="&#xcc;" horiz-adv-x="165" 
d="M225 698l-148 -698h-42l148 698h42zM183 903l47 -148h-40l-60 148h53z" />
    <glyph glyph-name="Iacute" unicode="&#xcd;" horiz-adv-x="165" 
d="M225 698l-148 -698h-42l148 698h42zM304 903h55l-124 -148h-40z" />
    <glyph glyph-name="Icircumflex" unicode="&#xce;" horiz-adv-x="165" 
d="M225 698l-148 -698h-42l148 698h42zM270 902l64 -147h-48l-46 119l-94 -119h-47l126 147h45z" />
    <glyph glyph-name="Idieresis" unicode="&#xcf;" horiz-adv-x="165" 
d="M225 698l-148 -698h-42l148 698h42zM342 802q-3 -16 -15.5 -27.5t-27.5 -11.5t-23.5 11.5t-4.5 27.5t17 27.5t27 11.5q15 0 23 -11.5t4 -27.5zM177 802q-4 -16 -17 -27.5t-28 -11.5q-14 0 -22 11.5t-4 27.5q3 16 16 27.5t27 11.5q15 0 23.5 -11.5t4.5 -27.5z" />
    <glyph glyph-name="Eth" unicode="&#xd0;" horiz-adv-x="588" 
d="M563 349q-25 -114 -42 -162q-20 -59 -50 -97.5t-70.5 -57t-81 -25.5t-96.5 -7h-188l68 327h-40l9 40h40l71 331h188q44 0 76 -4t62.5 -15.5t48.5 -31.5t27 -54t5 -81q-6 -61 -27 -163zM522 349q21 105 24 155q5 51 -7 82.5t-41.5 45.5t-58.5 18t-78 4h-146l-61 -287h150
l-8 -40h-151l-60 -282h147q38 0 63.5 2t56.5 10.5t52.5 23.5t42 43.5t34.5 69.5q13 38 41 155z" />
    <glyph glyph-name="Ntilde" unicode="&#xd1;" horiz-adv-x="586" 
d="M621 698l-148 -698h-45l-219 622l-132 -622h-42l148 698h46l219 -622l132 622h41zM524 833l20 -26q-44 -52 -83 -52q-28 0 -53.5 28.5t-45.5 28.5q-25 0 -55 -36l-20 26q43 51 84 51q28 0 52.5 -28t44.5 -28q27 0 56 36z" />
    <glyph glyph-name="Ograve" unicode="&#xd2;" horiz-adv-x="596" 
d="M583 349q-15 -73 -41.5 -134t-65.5 -113t-96.5 -81.5t-126.5 -29.5t-113 29.5t-61.5 81.5t-17.5 113.5t15 133.5t41.5 133.5t65.5 113.5t96 81.5t126 29.5t113.5 -29.5t62 -81.5t17.5 -113t-15 -134zM542 349q13 60 14 110.5t-10.5 99t-49.5 76t-100 27.5
q-50 0 -92.5 -19t-72 -49t-53 -72.5t-37 -84t-23.5 -88.5t-14 -88.5t1.5 -83.5t22 -72.5t50.5 -49.5t84 -19t92.5 19t72 49t53.5 72.5t38 84t24 88.5zM424 903l47 -148h-40l-60 148h53z" />
    <glyph glyph-name="Oacute" unicode="&#xd3;" horiz-adv-x="596" 
d="M583 349q-15 -73 -41.5 -134t-65.5 -113t-96.5 -81.5t-126.5 -29.5t-113 29.5t-61.5 81.5t-17.5 113.5t15 133.5t41.5 133.5t65.5 113.5t96 81.5t126 29.5t113.5 -29.5t62 -81.5t17.5 -113t-15 -134zM542 349q13 60 14 110.5t-10.5 99t-49.5 76t-100 27.5
q-50 0 -92.5 -19t-72 -49t-53 -72.5t-37 -84t-23.5 -88.5t-14 -88.5t1.5 -83.5t22 -72.5t50.5 -49.5t84 -19t92.5 19t72 49t53.5 72.5t38 84t24 88.5zM448 903h54l-123 -148h-40z" />
    <glyph glyph-name="Ocircumflex" unicode="&#xd4;" horiz-adv-x="596" 
d="M583 349q-15 -73 -41.5 -134t-65.5 -113t-96.5 -81.5t-126.5 -29.5t-113 29.5t-61.5 81.5t-17.5 113.5t15 133.5t41.5 133.5t65.5 113.5t96 81.5t126 29.5t113.5 -29.5t62 -81.5t17.5 -113t-15 -134zM542 349q13 60 14 110.5t-10.5 99t-49.5 76t-100 27.5
q-50 0 -92.5 -19t-72 -49t-53 -72.5t-37 -84t-23.5 -88.5t-14 -88.5t1.5 -83.5t22 -72.5t50.5 -49.5t84 -19t92.5 19t72 49t53.5 72.5t38 84t24 88.5zM471 902l64 -147h-48l-46 119l-94 -119h-47l126 147h45z" />
    <glyph glyph-name="Otilde" unicode="&#xd5;" horiz-adv-x="596" 
d="M583 349q-15 -73 -41.5 -134t-65.5 -113t-96.5 -81.5t-126.5 -29.5t-113 29.5t-61.5 81.5t-17.5 113.5t15 133.5t41.5 133.5t65.5 113.5t96 81.5t126 29.5t113.5 -29.5t62 -81.5t17.5 -113t-15 -134zM542 349q13 60 14 110.5t-10.5 99t-49.5 76t-100 27.5
q-50 0 -92.5 -19t-72 -49t-53 -72.5t-37 -84t-23.5 -88.5t-14 -88.5t1.5 -83.5t22 -72.5t50.5 -49.5t84 -19t92.5 19t72 49t53.5 72.5t38 84t24 88.5zM529 833l19 -26q-42 -52 -82 -52q-28 0 -53.5 28.5t-45.5 28.5q-25 0 -55 -36l-20 26q43 51 84 51q28 0 52.5 -28
t44.5 -28q27 0 56 36z" />
    <glyph glyph-name="Odieresis" unicode="&#xd6;" horiz-adv-x="596" 
d="M583 349q-15 -73 -41.5 -134t-65.5 -113t-96.5 -81.5t-126.5 -29.5t-113 29.5t-61.5 81.5t-17.5 113.5t15 133.5t41.5 133.5t65.5 113.5t96 81.5t126 29.5t113.5 -29.5t62 -81.5t17.5 -113t-15 -134zM542 349q13 60 14 110.5t-10.5 99t-49.5 76t-100 27.5
q-50 0 -92.5 -19t-72 -49t-53 -72.5t-37 -84t-23.5 -88.5t-14 -88.5t1.5 -83.5t22 -72.5t50.5 -49.5t84 -19t92.5 19t72 49t53.5 72.5t38 84t24 88.5zM538 802q-3 -16 -15.5 -27.5t-27.5 -11.5t-23.5 11.5t-4.5 27.5t17 27.5t27 11.5q15 0 23 -11.5t4 -27.5zM373 802
q-4 -16 -17 -27.5t-28 -11.5q-14 0 -22 11.5t-4 27.5q3 16 16 27.5t27 11.5q15 0 23.5 -11.5t4.5 -27.5z" />
    <glyph glyph-name="multiply" unicode="&#xd7;" horiz-adv-x="440" 
d="M272 274l91 -130l-32 -28l-92 129l-146 -129l-21 28l147 130l-92 129l32 29l92 -130l147 130l20 -29z" />
    <glyph glyph-name="Oslash" unicode="&#xd8;" horiz-adv-x="596" 
d="M585 349q-16 -73 -42 -134t-65.5 -113t-96.5 -81.5t-126 -29.5q-77 0 -133 47l-28 -40h-39l46 63q-63 99 -24 288q15 72 41.5 133.5t66 113.5t96.5 81.5t126 29.5q75 0 130 -43l25 36h39l-43 -58q66 -99 27 -293zM544 349q32 159 -16 250l-377 -521q43 -42 113 -42
q50 0 92.5 19t72 49t53 73t38 84t24.5 88zM131 104l377 520q-45 38 -111 38q-62 0 -111.5 -27.5t-81.5 -75.5t-52 -99t-33 -111q-32 -154 12 -245z" />
    <glyph glyph-name="Ugrave" unicode="&#xd9;" horiz-adv-x="583" 
d="M630 698l-86 -401q-31 -146 -100 -226t-194 -80q-231 0 -165 306l85 401h42l-85 -399q-9 -44 -12.5 -79.5t1 -71t20 -59t46 -38.5t76.5 -15t83.5 15t63.5 38.5t46 59t32 71t21 79.5l85 399h41zM418 903l47 -148h-40l-61 148h54z" />
    <glyph glyph-name="Uacute" unicode="&#xda;" horiz-adv-x="583" 
d="M630 698l-86 -401q-31 -146 -100 -226t-194 -80q-231 0 -165 306l85 401h42l-85 -399q-9 -44 -12.5 -79.5t1 -71t20 -59t46 -38.5t76.5 -15t83.5 15t63.5 38.5t46 59t32 71t21 79.5l85 399h41zM442 903h54l-123 -148h-40z" />
    <glyph glyph-name="Ucircumflex" unicode="&#xdb;" horiz-adv-x="583" 
d="M630 698l-86 -401q-31 -146 -100 -226t-194 -80q-231 0 -165 306l85 401h42l-85 -399q-9 -44 -12.5 -79.5t1 -71t20 -59t46 -38.5t76.5 -15t83.5 15t63.5 38.5t46 59t32 71t21 79.5l85 399h41zM465 902l64 -147h-48l-46 119l-94 -119h-47l126 147h45z" />
    <glyph glyph-name="Udieresis" unicode="&#xdc;" horiz-adv-x="583" 
d="M630 698l-86 -401q-31 -146 -100 -226t-194 -80q-231 0 -165 306l85 401h42l-85 -399q-9 -44 -12.5 -79.5t1 -71t20 -59t46 -38.5t76.5 -15t83.5 15t63.5 38.5t46 59t32 71t21 79.5l85 399h41zM532 802q-3 -16 -16 -27.5t-28 -11.5q-14 0 -22.5 11.5t-4.5 27.5t17 27.5
t27 11.5q15 0 23 -11.5t4 -27.5zM367 802q-4 -16 -17 -27.5t-28 -11.5q-14 0 -22 11.5t-4 27.5q3 16 15.5 27.5t27.5 11.5t23 -11.5t5 -27.5z" />
    <glyph glyph-name="Yacute" unicode="&#xdd;" horiz-adv-x="437" 
d="M520 698h47l-312 -467l-49 -231h-41l49 231l-114 467h47l98 -415zM370 903h54l-123 -148h-40z" />
    <glyph glyph-name="Thorn" unicode="&#xde;" horiz-adv-x="535" 
d="M558 361q-40 -189 -251 -189h-194l-36 -172h-42l148 698h42l-31 -148h193q212 0 171 -189zM516 361q18 83 -21 114t-117 31h-194l-61 -290h193q79 0 131 31t69 114z" />
    <glyph glyph-name="germandbls" unicode="&#xdf;" horiz-adv-x="573" 
d="M568 408l-36 -16q-27 57 -91 57q-48 0 -83 -25.5t-35 -73.5q0 -27 22 -45t53 -29.5t62.5 -25t53.5 -40t22 -65.5q0 -68 -52.5 -111t-125.5 -43q-118 0 -142 123l37 9q21 -93 109 -93q52 0 91.5 29t39.5 80q0 31 -22 51.5t-53 32t-62 24.5t-53 37t-22 61q0 61 42 98.5
t106 41.5q7 49 8 88t-23 63t-74 24q-21 0 -39.5 -4t-32.5 -9.5t-26.5 -18.5l-21 -21.5t-17 -28l-13 -30.5t-11 -36t-9 -36.5l-9 -41t-8.5 -40.5l-133 -619h-42l133 616q31 144 49 187q37 93 118 113q28 7 62 7q51 0 82.5 -17.5t42 -47t12.5 -68.5t-7 -82q66 -9 98 -75z" />
    <glyph glyph-name="agrave" unicode="&#xe0;" horiz-adv-x="456" 
d="M456 452l-90 -417l3 -35l-39 -5l-3 42l45 211q-92 -256 -228 -256q-55 0 -79.5 46t-24.5 112q0 77 37.5 154t105 129t145.5 52q62 0 128 -33zM410 435q-45 18 -78 18q-70 0 -130 -52t-91 -122.5t-31 -133.5q0 -24 5 -48t21.5 -45.5t41.5 -21.5q49 0 96.5 46.5t80.5 114
t55 132t30 112.5zM315 682l46 -148h-39l-61 148h54z" />
    <glyph glyph-name="aacute" unicode="&#xe1;" horiz-adv-x="456" 
d="M456 452l-90 -417l3 -35l-39 -5l-3 42l45 211q-92 -256 -228 -256q-55 0 -79.5 46t-24.5 112q0 77 37.5 154t105 129t145.5 52q62 0 128 -33zM410 435q-45 18 -78 18q-70 0 -130 -52t-91 -122.5t-31 -133.5q0 -24 5 -48t21.5 -45.5t41.5 -21.5q49 0 96.5 46.5t80.5 114
t55 132t30 112.5zM406 682h54l-123 -148h-40z" />
    <glyph glyph-name="acircumflex" unicode="&#xe2;" horiz-adv-x="456" 
d="M456 452l-90 -417l3 -35l-39 -5l-3 42l45 211q-92 -256 -228 -256q-55 0 -79.5 46t-24.5 112q0 77 37.5 154t105 129t145.5 52q62 0 128 -33zM410 435q-45 18 -78 18q-70 0 -130 -52t-91 -122.5t-31 -133.5q0 -24 5 -48t21.5 -45.5t41.5 -21.5q49 0 96.5 46.5t80.5 114
t55 132t30 112.5zM392 681l64 -147h-48l-46 119l-93 -119h-48l127 147h44z" />
    <glyph glyph-name="atilde" unicode="&#xe3;" horiz-adv-x="456" 
d="M456 452l-90 -417l3 -35l-39 -5l-3 42l45 211q-92 -256 -228 -256q-55 0 -79.5 46t-24.5 112q0 77 37.5 154t105 129t145.5 52q62 0 128 -33zM410 435q-45 18 -78 18q-70 0 -130 -52t-91 -122.5t-31 -133.5q0 -24 5 -48t21.5 -45.5t41.5 -21.5q49 0 96.5 46.5t80.5 114
t55 132t30 112.5zM449 612l20 -26q-42 -52 -83 -52q-28 0 -53 28.5t-45 28.5q-26 0 -56 -36l-19 26q43 51 83 51q28 0 53 -28t45 -28q26 0 55 36z" />
    <glyph glyph-name="adieresis" unicode="&#xe4;" horiz-adv-x="456" 
d="M456 452l-90 -417l3 -35l-39 -5l-3 42l45 211q-92 -256 -228 -256q-55 0 -79.5 46t-24.5 112q0 77 37.5 154t105 129t145.5 52q62 0 128 -33zM410 435q-45 18 -78 18q-70 0 -130 -52t-91 -122.5t-31 -133.5q0 -24 5 -48t21.5 -45.5t41.5 -21.5q49 0 96.5 46.5t80.5 114
t55 132t30 112.5zM429 581q-4 -17 -16.5 -28t-27.5 -11q-14 0 -22.5 11.5t-4.5 27.5t17 27.5t27 11.5q15 0 23 -11.5t4 -27.5zM264 581q-4 -16 -17 -27.5t-28 -11.5q-14 0 -22 11.5t-5 27.5q4 16 16.5 27.5t27.5 11.5t23 -11.5t5 -27.5z" />
    <glyph glyph-name="aring" unicode="&#xe5;" horiz-adv-x="456" 
d="M456 452l-90 -417l3 -35l-39 -5l-3 42l45 211q-92 -256 -228 -256q-55 0 -79.5 46t-24.5 112q0 77 37.5 154t105 129t145.5 52q62 0 128 -33zM410 435q-45 18 -78 18q-70 0 -130 -52t-91 -122.5t-31 -133.5q0 -24 5 -48t21.5 -45.5t41.5 -21.5q49 0 96.5 46.5t80.5 114
t55 132t30 112.5zM432 634q-7 -40 -40 -69t-70 -29q-38 0 -58 29t-12 69q8 41 41 69.5t71 28.5q37 0 57 -29t11 -69zM395 634q5 24 -6.5 41t-33.5 17t-41.5 -17t-24.5 -41t7 -41t34 -17t41.5 17t23.5 41z" />
    <glyph glyph-name="ae" unicode="&#xe6;" horiz-adv-x="719" 
d="M719 388q0 -43 -36 -74t-94 -46.5t-105 -22t-93 -8.5q-10 -44 -10 -79q0 -127 109 -127q63 0 124 59l28 -29q-39 -38 -73.5 -53.5t-80.5 -15.5q-77 0 -117 52t-25 158q-38 -95 -92 -152.5t-111 -57.5q-54 0 -78.5 46t-24.5 112q0 121 85 228t200 107q56 0 116 -31
l-10 -42q71 74 154 74q53 0 93.5 -25.5t40.5 -72.5zM678 386q0 32 -28.5 46.5t-64.5 14.5q-69 0 -115.5 -50.5t-70.5 -132.5q35 2 77 9t90 20.5t80 38t32 54.5zM403 435q-45 18 -77 18q-68 0 -126.5 -52t-89 -122.5t-30.5 -133.5q0 -24 5 -48t21 -45.5t40 -21.5
q48 0 94.5 46.5t78.5 114t54 132t30 112.5z" />
    <glyph glyph-name="ccedilla" unicode="&#xe7;" horiz-adv-x="403" 
d="M413 414l-36 -21q-21 29 -41.5 41t-54.5 12q-68 0 -117.5 -49t-70 -111.5t-20.5 -123.5q0 -58 27 -94.5t86 -36.5q67 0 126 59l29 -29q-37 -35 -69.5 -51.5t-74.5 -17.5l15 -67l-92 -122h-50l107 120l-14 69q-67 7 -100 51t-33 115q0 58 16.5 115t47 105t80 78t110.5 30
q46 0 75 -16.5t54 -55.5z" />
    <glyph glyph-name="egrave" unicode="&#xe8;" horiz-adv-x="417" 
d="M417 388q0 -43 -37 -74t-95.5 -46.5t-107 -22t-95.5 -8.5q-10 -44 -10 -79q0 -127 111 -127q66 0 128 59l28 -29q-40 -38 -75 -53.5t-82 -15.5q-76 0 -114 45t-38 122t28 150.5t87 125t137 51.5q53 0 94 -25.5t41 -72.5zM377 386q0 32 -29.5 46.5t-65.5 14.5
q-136 0 -194 -184q36 2 80 9t93.5 21t82.5 38.5t33 54.5zM290 682l47 -148h-40l-60 148h53z" />
    <glyph glyph-name="eacute" unicode="&#xe9;" horiz-adv-x="417" 
d="M417 388q0 -43 -37 -74t-95.5 -46.5t-107 -22t-95.5 -8.5q-10 -44 -10 -79q0 -127 111 -127q66 0 128 59l28 -29q-40 -38 -75 -53.5t-82 -15.5q-76 0 -114 45t-38 122t28 150.5t87 125t137 51.5q53 0 94 -25.5t41 -72.5zM377 386q0 32 -29.5 46.5t-65.5 14.5
q-136 0 -194 -184q36 2 80 9t93.5 21t82.5 38.5t33 54.5zM319 682h54l-123 -148h-40z" />
    <glyph glyph-name="ecircumflex" unicode="&#xea;" horiz-adv-x="417" 
d="M417 388q0 -43 -37 -74t-95.5 -46.5t-107 -22t-95.5 -8.5q-10 -44 -10 -79q0 -127 111 -127q66 0 128 59l28 -29q-40 -38 -75 -53.5t-82 -15.5q-76 0 -114 45t-38 122t28 150.5t87 125t137 51.5q53 0 94 -25.5t41 -72.5zM377 386q0 32 -29.5 46.5t-65.5 14.5
q-136 0 -194 -184q36 2 80 9t93.5 21t82.5 38.5t33 54.5zM345 681l65 -147h-48l-46 119l-94 -119h-47l126 147h44z" />
    <glyph glyph-name="edieresis" unicode="&#xeb;" horiz-adv-x="417" 
d="M417 388q0 -43 -37 -74t-95.5 -46.5t-107 -22t-95.5 -8.5q-10 -44 -10 -79q0 -127 111 -127q66 0 128 59l28 -29q-40 -38 -75 -53.5t-82 -15.5q-76 0 -114 45t-38 122t28 150.5t87 125t137 51.5q53 0 94 -25.5t41 -72.5zM377 386q0 32 -29.5 46.5t-65.5 14.5
q-136 0 -194 -184q36 2 80 9t93.5 21t82.5 38.5t33 54.5zM411 581q-4 -17 -16.5 -28t-27.5 -11t-23 11t-5 28q4 16 17 27.5t27 11.5q15 0 23 -11.5t5 -27.5zM245 581q-4 -16 -17 -27.5t-28 -11.5q-14 0 -22 11.5t-4 27.5q3 16 16 27.5t27 11.5q15 0 23.5 -11.5t4.5 -27.5z
" />
    <glyph glyph-name="igrave" unicode="&#xec;" horiz-adv-x="230" 
d="M152 480h43l-111 -480h-43zM159 682l47 -148h-40l-61 148h54z" />
    <glyph glyph-name="iacute" unicode="&#xed;" horiz-adv-x="230" 
d="M152 480h43l-111 -480h-43zM267 682h55l-123 -148h-41z" />
    <glyph glyph-name="icircumflex" unicode="&#xee;" horiz-adv-x="230" 
d="M152 480h43l-111 -480h-43zM237 681l65 -147h-48l-46 119l-94 -119h-47l126 147h44z" />
    <glyph glyph-name="idieresis" unicode="&#xef;" horiz-adv-x="230" 
d="M152 480h43l-111 -480h-43zM313 581q-4 -17 -16.5 -28t-27.5 -11q-14 0 -22.5 11.5t-4.5 27.5q3 16 16 27.5t28 11.5t23 -11.5t4 -27.5zM148 581q-4 -16 -17 -27.5t-28 -11.5q-14 0 -22 11.5t-5 27.5q4 16 16.5 27.5t26.5 11.5q15 0 23.5 -11.5t5.5 -27.5z" />
    <glyph glyph-name="eth" unicode="&#xf0;" horiz-adv-x="457" 
d="M414 236q-52 -245 -237 -245q-187 0 -135 245q51 244 238 244q47 0 89 -24l-27 129h-113l8 34h99l-27 131h36l26 -131h83l-8 -34h-68q40 -169 44 -182q15 -52 -8 -167zM377 236q7 35 9.5 62.5t-1 55t-15.5 46.5t-36.5 30.5t-61.5 11.5q-46 0 -80.5 -17t-56.5 -48
t-35 -64.5t-22 -76.5q-9 -44 -10 -77.5t7.5 -64.5t36 -47.5t72.5 -16.5q86 0 129.5 56.5t63.5 149.5z" />
    <glyph glyph-name="ntilde" unicode="&#xf1;" horiz-adv-x="486" 
d="M447 290l-64 -290h-43l67 302q5 32 7.5 64.5t-14.5 57.5t-54 25q-45 0 -88.5 -39t-74.5 -98.5t-52 -111.5t-32 -96q-23 -88 -26 -104h-43l106 480h43l-54 -244q50 128 105 189t121 61q34 0 57 -13t33.5 -33t13.5 -47.5t0.5 -51.5t-8.5 -51zM470 612l20 -26
q-42 -52 -83 -52q-28 0 -53 28.5t-45 28.5q-26 0 -56 -36l-19 26q43 51 83 51q28 0 53 -28t45 -28q28 0 55 36z" />
    <glyph glyph-name="ograve" unicode="&#xf2;" horiz-adv-x="443" 
d="M433 341q0 -49 -7.5 -96t-26 -93.5t-46.5 -81.5t-73.5 -57t-101.5 -22q-72 0 -110 38.5t-38 107.5q0 63 13.5 121.5t42 111.5t80.5 85t120 32q71 0 109 -38.5t38 -107.5zM389 329q0 55 -29.5 87t-85.5 32q-52 0 -92.5 -29t-63 -75t-33.5 -95t-11 -98q0 -121 115 -121
q52 0 92.5 29t63 75t33.5 96t11 99zM302 682l47 -148h-40l-60 148h53z" />
    <glyph glyph-name="oacute" unicode="&#xf3;" horiz-adv-x="443" 
d="M433 341q0 -49 -7.5 -96t-26 -93.5t-46.5 -81.5t-73.5 -57t-101.5 -22q-72 0 -110 38.5t-38 107.5q0 63 13.5 121.5t42 111.5t80.5 85t120 32q71 0 109 -38.5t38 -107.5zM389 329q0 55 -29.5 87t-85.5 32q-52 0 -92.5 -29t-63 -75t-33.5 -95t-11 -98q0 -121 115 -121
q52 0 92.5 29t63 75t33.5 96t11 99zM332 682h54l-123 -148h-40z" />
    <glyph glyph-name="ocircumflex" unicode="&#xf4;" horiz-adv-x="443" 
d="M433 341q0 -49 -7.5 -96t-26 -93.5t-46.5 -81.5t-73.5 -57t-101.5 -22q-72 0 -110 38.5t-38 107.5q0 63 13.5 121.5t42 111.5t80.5 85t120 32q71 0 109 -38.5t38 -107.5zM389 329q0 55 -29.5 87t-85.5 32q-52 0 -92.5 -29t-63 -75t-33.5 -95t-11 -98q0 -121 115 -121
q52 0 92.5 29t63 75t33.5 96t11 99zM358 681l65 -147h-48l-46 119l-94 -119h-47l126 147h44z" />
    <glyph glyph-name="otilde" unicode="&#xf5;" horiz-adv-x="443" 
d="M433 341q0 -49 -7.5 -96t-26 -93.5t-46.5 -81.5t-73.5 -57t-101.5 -22q-72 0 -110 38.5t-38 107.5q0 63 13.5 121.5t42 111.5t80.5 85t120 32q71 0 109 -38.5t38 -107.5zM389 329q0 55 -29.5 87t-85.5 32q-52 0 -92.5 -29t-63 -75t-33.5 -95t-11 -98q0 -121 115 -121
q52 0 92.5 29t63 75t33.5 96t11 99zM413 612l20 -26q-44 -52 -83 -52q-28 0 -53 28.5t-45 28.5q-26 0 -56 -36l-19 26q43 51 83 51q28 0 52.5 -28t45.5 -28q26 0 55 36z" />
    <glyph glyph-name="odieresis" unicode="&#xf6;" horiz-adv-x="443" 
d="M433 341q0 -49 -7.5 -96t-26 -93.5t-46.5 -81.5t-73.5 -57t-101.5 -22q-72 0 -110 38.5t-38 107.5q0 63 13.5 121.5t42 111.5t80.5 85t120 32q71 0 109 -38.5t38 -107.5zM389 329q0 55 -29.5 87t-85.5 32q-52 0 -92.5 -29t-63 -75t-33.5 -95t-11 -98q0 -121 115 -121
q52 0 92.5 29t63 75t33.5 96t11 99zM424 581q-4 -17 -16.5 -28t-27.5 -11t-23 11t-5 28q4 16 17 27.5t27 11.5q15 0 23 -11.5t5 -27.5zM258 581q-4 -16 -17 -27.5t-28 -11.5q-14 0 -22 11.5t-4 27.5t16.5 27.5t26.5 11.5q15 0 23.5 -11.5t4.5 -27.5z" />
    <glyph glyph-name="divide" unicode="&#xf7;" horiz-adv-x="502" 
d="M348 437q-3 -16 -16 -27t-27 -11t-22.5 11t-4.5 27q3 16 16 27.5t27 11.5q15 0 23 -11.5t4 -27.5zM468 293l-8 -38h-368l8 38h368zM279 111q-3 -16 -16 -27.5t-28 -11.5q-14 0 -22 11.5t-4 27.5q3 16 16 27t27 11t22.5 -11t4.5 -27z" />
    <glyph glyph-name="oslash" unicode="&#xf8;" horiz-adv-x="443" 
d="M433 341q0 -49 -7.5 -96t-26 -93.5t-46.5 -81.5t-73.5 -57t-101.5 -22q-61 0 -97 27l-15 -21h-31l28 38q-33 37 -33 102q0 63 13.5 121.5t42 111.5t80.5 85t120 32q58 0 96 -27l18 24h32l-32 -42q33 -38 33 -101zM274 448q-52 0 -92.5 -29t-63 -75t-33.5 -95t-11 -98
q0 -47 18 -77l261 348q-31 26 -79 26zM389 329q0 45 -19 73l-261 -348q27 -24 80 -24q52 0 92.5 29t63 75t33.5 96t11 99z" />
    <glyph glyph-name="ugrave" unicode="&#xf9;" horiz-adv-x="476" 
d="M432 480h44l-105 -480h-42l54 245q-97 -252 -227 -252q-41 0 -66 19t-32 50.5t-6 61.5t8 63l64 293h42l-65 -305q-6 -33 -7.5 -65t15.5 -55.5t52 -23.5q41 0 78.5 28.5t64 69.5t51 98.5t38.5 102.5t26 94zM325 682l46 -148h-39l-61 148h54z" />
    <glyph glyph-name="uacute" unicode="&#xfa;" horiz-adv-x="476" 
d="M432 480h44l-105 -480h-42l54 245q-97 -252 -227 -252q-41 0 -66 19t-32 50.5t-6 61.5t8 63l64 293h42l-65 -305q-6 -33 -7.5 -65t15.5 -55.5t52 -23.5q41 0 78.5 28.5t64 69.5t51 98.5t38.5 102.5t26 94zM348 682h55l-123 -148h-40z" />
    <glyph glyph-name="ucircumflex" unicode="&#xfb;" horiz-adv-x="476" 
d="M432 480h44l-105 -480h-42l54 245q-97 -252 -227 -252q-41 0 -66 19t-32 50.5t-6 61.5t8 63l64 293h42l-65 -305q-6 -33 -7.5 -65t15.5 -55.5t52 -23.5q41 0 78.5 28.5t64 69.5t51 98.5t38.5 102.5t26 94zM370 681l65 -147h-49l-46 119l-93 -119h-48l127 147h44z" />
    <glyph glyph-name="udieresis" unicode="&#xfc;" horiz-adv-x="476" 
d="M432 480h44l-105 -480h-42l54 245q-97 -252 -227 -252q-41 0 -66 19t-32 50.5t-6 61.5t8 63l64 293h42l-65 -305q-6 -33 -7.5 -65t15.5 -55.5t52 -23.5q41 0 78.5 28.5t64 69.5t51 98.5t38.5 102.5t26 94zM436 581q-4 -17 -16.5 -28t-27.5 -11q-14 0 -22.5 11.5
t-4.5 27.5q3 16 16 27.5t28 11.5t23 -11.5t4 -27.5zM270 581q-3 -16 -16 -27.5t-28 -11.5q-14 0 -22.5 11.5t-4.5 27.5t16.5 27.5t26.5 11.5q15 0 23.5 -11.5t4.5 -27.5z" />
    <glyph glyph-name="yacute" unicode="&#xfd;" horiz-adv-x="435" 
d="M437 480h48l-357 -603q-59 -98 -156 -97h-12l9 38q37 0 64 15.5t38.5 31t31.5 49.5l60 100l-74 466h46l59 -416zM328 682h54l-123 -148h-40z" />
    <glyph glyph-name="thorn" unicode="&#xfe;" horiz-adv-x="447" 
d="M427 239q-53 -244 -231 -244q-89 0 -117 66l-59 -279h-40l195 916h39l-60 -285q59 71 145 71q180 0 128 -245zM388 239q9 41 10.5 73t-5.5 64t-32.5 49.5t-69.5 17.5q-55 0 -101 -35.5t-58 -93.5l-32 -150q-12 -58 19 -92.5t85 -34.5q44 0 77.5 17.5t54 49t32 63
t20.5 72.5z" />
    <glyph glyph-name="ydieresis" unicode="&#xff;" horiz-adv-x="435" 
d="M437 480h48l-357 -603q-59 -98 -156 -97h-12l9 38q37 0 64 15.5t38.5 31t31.5 49.5l60 100l-74 466h46l59 -416zM419 581q-3 -16 -16 -27.5t-28 -11.5q-14 0 -22.5 11.5t-4.5 27.5t17 27.5t27 11.5q15 0 23 -11.5t4 -27.5zM254 581q-4 -16 -17 -27.5t-28 -11.5
q-14 0 -22 11.5t-4 27.5q3 16 15.5 27.5t27.5 11.5t23 -11.5t5 -27.5z" />
    <glyph glyph-name="Amacron" unicode="&#x100;" horiz-adv-x="592" 
d="M440 698l99 -698h-44l-31 214h-310l-120 -214h-44l395 698h55zM177 254h282l-56 401zM560 813l-9 -41h-244l9 41h244z" />
    <glyph glyph-name="amacron" unicode="&#x101;" horiz-adv-x="456" 
d="M456 452l-90 -417l3 -35l-39 -5l-3 42l45 211q-92 -256 -228 -256q-55 0 -79.5 46t-24.5 112q0 77 37.5 154t105 129t145.5 52q62 0 128 -33zM410 435q-45 18 -78 18q-70 0 -130 -52t-91 -122.5t-31 -133.5q0 -24 5 -48t21.5 -45.5t41.5 -21.5q49 0 96.5 46.5t80.5 114
t55 132t30 112.5zM457 592l-8 -41h-245l9 41h244z" />
    <glyph glyph-name="Abreve" unicode="&#x102;" horiz-adv-x="592" 
d="M440 698l99 -698h-44l-31 214h-310l-120 -214h-44l395 698h55zM177 254h282l-56 401zM544 885h35q-72 -127 -165 -127q-94 0 -111 127h34q12 -44 31 -66.5t54 -22.5q36 0 64 22.5t58 66.5z" />
    <glyph glyph-name="abreve" unicode="&#x103;" horiz-adv-x="456" 
d="M456 452l-90 -417l3 -35l-39 -5l-3 42l45 211q-92 -256 -228 -256q-55 0 -79.5 46t-24.5 112q0 77 37.5 154t105 129t145.5 52q62 0 128 -33zM410 435q-45 18 -78 18q-70 0 -130 -52t-91 -122.5t-31 -133.5q0 -24 5 -48t21.5 -45.5t41.5 -21.5q49 0 96.5 46.5t80.5 114
t55 132t30 112.5zM444 664h35q-70 -127 -165 -127q-93 0 -111 127h35q11 -44 30 -66.5t55 -22.5t64 22.5t57 66.5z" />
    <glyph glyph-name="Aogonek" unicode="&#x104;" horiz-adv-x="592" 
d="M529 0l70 -197h-51l-53 197l-31 214h-310l-120 -214h-44l395 698h55l99 -698h-10zM177 254h282l-56 401z" />
    <glyph glyph-name="aogonek" unicode="&#x105;" horiz-adv-x="456" 
d="M365 0l67 -197h-51l-51 192l-3 42l45 211q-92 -256 -228 -256q-55 0 -79.5 46t-24.5 112q0 77 37.5 154t105 129t145.5 52q62 0 128 -33l-90 -417l3 -35h-4zM410 435q-45 18 -78 18q-70 0 -130 -52t-91 -122.5t-31 -133.5q0 -24 5 -48t21.5 -45.5t41.5 -21.5
q49 0 96.5 46.5t80.5 114t55 132t30 112.5z" />
    <glyph glyph-name="Cacute" unicode="&#x106;" horiz-adv-x="525" 
d="M448 125l25 -29q-57 -56 -104.5 -80.5t-111.5 -24.5q-69 0 -114.5 30t-62.5 79.5t-19.5 114.5t15.5 134q16 73 42.5 134.5t66.5 113t97.5 81t126.5 29.5q63 0 101 -24.5t70 -78.5l-37 -29q-27 45 -59 66t-84 21q-62 0 -112 -27.5t-82.5 -75t-53.5 -99t-33 -111.5
q-13 -60 -14.5 -111.5t11 -99t50.5 -75t100 -27.5q53 0 94.5 21.5t87.5 67.5zM453 903h55l-124 -148h-40z" />
    <glyph glyph-name="cacute" unicode="&#x107;" horiz-adv-x="403" 
d="M413 414l-36 -21q-21 29 -41.5 41t-54.5 12q-68 0 -117.5 -49t-70 -111.5t-20.5 -123.5q0 -58 27 -94.5t86 -36.5q67 0 126 59l29 -29q-40 -38 -75 -53.5t-83 -15.5q-76 0 -114.5 45t-38.5 121q0 58 16.5 115t47 105t80 78t110.5 30q46 0 75 -16.5t54 -55.5zM312 682h54
l-123 -148h-40z" />
    <glyph glyph-name="Ccircumflex" unicode="&#x108;" horiz-adv-x="525" 
d="M448 125l25 -29q-57 -56 -104.5 -80.5t-111.5 -24.5q-69 0 -114.5 30t-62.5 79.5t-19.5 114.5t15.5 134q16 73 42.5 134.5t66.5 113t97.5 81t126.5 29.5q63 0 101 -24.5t70 -78.5l-37 -29q-27 45 -59 66t-84 21q-62 0 -112 -27.5t-82.5 -75t-53.5 -99t-33 -111.5
q-13 -60 -14.5 -111.5t11 -99t50.5 -75t100 -27.5q53 0 94.5 21.5t87.5 67.5zM456 902l64 -147h-48l-46 119l-94 -119h-47l126 147h45z" />
    <glyph glyph-name="ccircumflex" unicode="&#x109;" horiz-adv-x="403" 
d="M413 414l-36 -21q-21 29 -41.5 41t-54.5 12q-68 0 -117.5 -49t-70 -111.5t-20.5 -123.5q0 -58 27 -94.5t86 -36.5q67 0 126 59l29 -29q-40 -38 -75 -53.5t-83 -15.5q-76 0 -114.5 45t-38.5 121q0 58 16.5 115t47 105t80 78t110.5 30q46 0 75 -16.5t54 -55.5zM337 681
l65 -147h-48l-46 119l-94 -119h-47l126 147h44z" />
    <glyph glyph-name="Cdotaccent" unicode="&#x10a;" horiz-adv-x="525" 
d="M448 125l25 -29q-57 -56 -104.5 -80.5t-111.5 -24.5q-69 0 -114.5 30t-62.5 79.5t-19.5 114.5t15.5 134q16 73 42.5 134.5t66.5 113t97.5 81t126.5 29.5q63 0 101 -24.5t70 -78.5l-37 -29q-27 45 -59 66t-84 21q-62 0 -112 -27.5t-82.5 -75t-53.5 -99t-33 -111.5
q-13 -60 -14.5 -111.5t11 -99t50.5 -75t100 -27.5q53 0 94.5 21.5t87.5 67.5zM465 806q-5 -18 -20.5 -32t-33.5 -14q-17 0 -27 14t-5 32q4 20 19 34t32 14q18 0 28.5 -14t6.5 -34z" />
    <glyph glyph-name="cdotaccent" unicode="&#x10b;" horiz-adv-x="403" 
d="M413 414l-36 -21q-21 29 -41.5 41t-54.5 12q-68 0 -117.5 -49t-70 -111.5t-20.5 -123.5q0 -58 27 -94.5t86 -36.5q67 0 126 59l29 -29q-40 -38 -75 -53.5t-83 -15.5q-76 0 -114.5 45t-38.5 121q0 58 16.5 115t47 105t80 78t110.5 30q46 0 75 -16.5t54 -55.5zM327 585
q-4 -18 -19.5 -32t-33.5 -14q-17 0 -27 14t-5 32q4 20 19 34t33 14q17 0 27 -14.5t6 -33.5z" />
    <glyph glyph-name="Ccaron" unicode="&#x10c;" horiz-adv-x="525" 
d="M473 96l-25 29q-46 -46 -87.5 -67.5t-94.5 -21.5q-62 0 -100 27.5t-50.5 75t-11 99t14.5 111.5q12 60 33 111.5t53.5 99t82.5 75t112 27.5q52 0 84 -21t59 -66l37 29q-32 54 -70 78.5t-101 24.5q-69 0 -126.5 -29.5t-97.5 -81t-66.5 -113t-42.5 -134.5
q-18 -69 -15.5 -134t19.5 -114.5t62.5 -79.5t114.5 -30q64 0 111.5 24.5t104.5 80.5zM562 902l-127 -147h-45l-63 147h47l43 -119l97 119h48z" />
    <glyph glyph-name="ccaron" unicode="&#x10d;" horiz-adv-x="403" 
d="M413 414q-25 39 -54 55.5t-75 16.5q-61 0 -110.5 -30t-80 -78t-47 -105t-16.5 -115q0 -76 38.5 -121t114.5 -45q48 0 83 15.5t75 53.5l-29 29q-59 -59 -126 -59q-59 0 -86 36.5t-27 94.5q0 61 20.5 123.5t70 111.5t117.5 49q34 0 54.5 -12t41.5 -41zM429 681l-127 -147
h-44l-64 147h47l44 -119l96 119h48z" />
    <glyph glyph-name="Dcaron" unicode="&#x10e;" horiz-adv-x="588" 
d="M565 349q25 116 27.5 194t-49.5 116.5t-176 38.5h-184l-148 -698h184q55 0 97.5 7.5t74 20t56.5 37t41.5 48.5t31 65.5t24 77.5t21.5 93zM523 349q-1 -5 -6 -28.5t-6.5 -31.5t-7 -29.5t-8.5 -32t-9 -28.5t-11.5 -29.5t-12.5 -24.5t-15 -23q-58 -77 -214 -77h-147l129 609
h147q82 0 125 -18t57 -58q3 -8 4.5 -18.5t2.5 -19.5t0 -23t-1.5 -22.5t-3 -25t-3.5 -24t-5 -25.5t-5 -24t-5 -24.5t-5 -22.5zM529 899l-127 -147h-45l-64 147h48l43 -118l96 118h49z" />
    <glyph glyph-name="dcaron" unicode="&#x10f;" horiz-adv-x="452" 
d="M456 698h41l-144 -660l4 -38l-40 -5l-3 36l47 218q-50 -133 -106 -195t-121 -62q-55 0 -79.5 45.5t-24.5 110.5q0 76 37.5 153.5t105.5 131t144 53.5q39 0 89 -18zM399 435q-42 18 -78 18q-68 0 -128 -52.5t-91.5 -123t-31.5 -133.5q0 -25 5 -48.5t21 -45t41 -21.5
q49 0 96.5 47.5t80.5 115.5t55 132.5t30 110.5zM587 704l-34 -160h-54l34 160q2 11 12 20t21 9t17 -8.5t4 -20.5z" />
    <glyph glyph-name="Dcroat" unicode="&#x110;" horiz-adv-x="588" 
d="M563 349q-25 -114 -42 -162q-20 -59 -50 -97.5t-70.5 -57t-81 -25.5t-96.5 -7h-188l68 327h-40l9 40h40l71 331h188q44 0 76 -4t62.5 -15.5t48.5 -31.5t27 -54t5 -81q-6 -61 -27 -163zM522 349q21 105 24 155q5 51 -7 82.5t-41.5 45.5t-58.5 18t-78 4h-146l-61 -287h150
l-8 -40h-151l-60 -282h147q38 0 63.5 2t56.5 10.5t52.5 23.5t42 43.5t34.5 69.5q13 38 41 155z" />
    <glyph glyph-name="dcroat" unicode="&#x111;" horiz-adv-x="452" 
d="M478 613h55l-9 -36h-53l-118 -539l4 -38l-40 -5l-3 36l47 218q-50 -133 -106 -195t-121 -62q-55 0 -79.5 45.5t-24.5 110.5q0 76 37.5 153.5t105.5 131t144 53.5q39 0 89 -18l24 109h-168l10 36h166l18 85h41zM399 435q-40 18 -78 18q-68 0 -128 -52.5t-91.5 -123
t-31.5 -133.5q0 -25 5 -48.5t21 -45t41 -21.5q49 0 96.5 47.5t80.5 115.5t55 132.5t30 110.5z" />
    <glyph glyph-name="Emacron" unicode="&#x112;" horiz-adv-x="528" 
d="M449 44l-9 -44h-405l148 698h405l-9 -44h-364l-57 -271h317l-8 -42h-318l-63 -297h363zM514 813l-9 -41h-244l9 41h244z" />
    <glyph glyph-name="emacron" unicode="&#x113;" horiz-adv-x="417" 
d="M417 388q0 -43 -37 -74t-95.5 -46.5t-107 -22t-95.5 -8.5q-10 -44 -10 -79q0 -127 111 -127q66 0 128 59l28 -29q-40 -38 -75 -53.5t-82 -15.5q-76 0 -114 45t-38 122t28 150.5t87 125t137 51.5q53 0 94 -25.5t41 -72.5zM377 386q0 32 -29.5 46.5t-65.5 14.5
q-136 0 -194 -184q36 2 80 9t93.5 21t82.5 38.5t33 54.5zM418 592l-8 -41h-245l9 41h244z" />
    <glyph glyph-name="Ebreve" unicode="&#x114;" horiz-adv-x="528" 
d="M449 44l-9 -44h-405l148 698h405l-9 -44h-364l-57 -271h317l-8 -42h-318l-63 -297h363zM493 885h35q-70 -127 -165 -127q-93 0 -111 127h35q11 -44 30 -66.5t55 -22.5t64 22.5t57 66.5z" />
    <glyph glyph-name="ebreve" unicode="&#x115;" horiz-adv-x="417" 
d="M417 388q0 -43 -37 -74t-95.5 -46.5t-107 -22t-95.5 -8.5q-10 -44 -10 -79q0 -127 111 -127q66 0 128 59l28 -29q-40 -38 -75 -53.5t-82 -15.5q-76 0 -114 45t-38 122t28 150.5t87 125t137 51.5q53 0 94 -25.5t41 -72.5zM377 386q0 32 -29.5 46.5t-65.5 14.5
q-136 0 -194 -184q36 2 80 9t93.5 21t82.5 38.5t33 54.5zM395 664h35q-72 -127 -165 -127t-111 127h35q11 -44 30 -66.5t55 -22.5t64 22.5t57 66.5z" />
    <glyph glyph-name="Edotaccent" unicode="&#x116;" horiz-adv-x="528" 
d="M449 44l-9 -44h-405l148 698h405l-9 -44h-364l-57 -271h317l-8 -42h-318l-63 -297h363zM429 806q-4 -18 -19.5 -32t-33.5 -14t-27.5 14t-4.5 32q4 20 19 34t32 14q18 0 28 -14.5t6 -33.5z" />
    <glyph glyph-name="edotaccent" unicode="&#x117;" horiz-adv-x="417" 
d="M417 388q0 -43 -37 -74t-95.5 -46.5t-107 -22t-95.5 -8.5q-10 -44 -10 -79q0 -127 111 -127q66 0 128 59l28 -29q-40 -38 -75 -53.5t-82 -15.5q-76 0 -114 45t-38 122t28 150.5t87 125t137 51.5q53 0 94 -25.5t41 -72.5zM377 386q0 32 -29.5 46.5t-65.5 14.5
q-136 0 -194 -184q36 2 80 9t93.5 21t82.5 38.5t33 54.5zM335 585q-5 -18 -20.5 -32t-33.5 -14q-17 0 -26.5 14t-5.5 32q4 20 19 34t33 14q17 0 27.5 -14.5t6.5 -33.5z" />
    <glyph glyph-name="Eogonek" unicode="&#x118;" horiz-adv-x="528" 
d="M440 0l67 -197h-51l-53 197h-368l148 698h405l-9 -44h-364l-57 -271h317l-8 -42h-318l-63 -297h363z" />
    <glyph glyph-name="eogonek" unicode="&#x119;" horiz-adv-x="417" 
d="M241 0l68 -197h-50l-52 191q-16 -2 -25 -2q-76 0 -114 45t-38 122t28 150.5t87 125t137 51.5q53 0 94 -25.5t41 -72.5q0 -43 -37 -74t-95.5 -46.5t-107 -22t-95.5 -8.5q-10 -44 -10 -79q0 -127 111 -127q66 0 128 59l28 -29q-53 -48 -98 -61zM377 386q0 32 -29.5 46.5
t-65.5 14.5q-136 0 -194 -184q36 2 80 9t93.5 21t82.5 38.5t33 54.5z" />
    <glyph glyph-name="Ecaron" unicode="&#x11a;" horiz-adv-x="528" 
d="M440 0l9 44h-363l63 297h318l8 42h-317l57 271h364l9 44h-405l-148 -698h405zM531 902l-127 -147h-45l-63 147h47l43 -119l97 119h48z" />
    <glyph glyph-name="ecaron" unicode="&#x11b;" horiz-adv-x="417" 
d="M417 388q0 47 -41 72.5t-94 25.5q-78 0 -137 -51.5t-87 -125t-28 -150.5t38 -122t114 -45q47 0 82 15.5t75 53.5l-28 29q-62 -59 -128 -59q-111 0 -111 127q0 35 10 79q47 2 95.5 8.5t107 22t95.5 46.5t37 74zM377 386q0 -30 -33 -54.5t-82.5 -38.5t-93.5 -21t-80 -9
q58 184 194 184q36 0 65.5 -14.5t29.5 -46.5zM429 681l-128 -147h-44l-64 147h48l43 -119l96 119h49z" />
    <glyph glyph-name="Gcircumflex" unicode="&#x11c;" horiz-adv-x="559" 
d="M343 358h205l-76 -358h-38l28 129q-41 -75 -92 -106.5t-118 -31.5q-68 0 -112 30t-61.5 82t-17.5 113.5t15 132.5t42.5 133t67.5 113.5t97.5 81.5t125.5 30q62 0 100 -25t69 -80l-36 -28q-27 45 -58.5 66.5t-84.5 21.5q-62 0 -112 -27.5t-82.5 -75t-53 -99t-33.5 -111.5
q-13 -59 -14.5 -110t10.5 -99t49.5 -76t97.5 -28q178 0 238 280h-165zM453 902l64 -147h-48l-46 119l-94 -119h-47l126 147h45z" />
    <glyph glyph-name="gcircumflex" unicode="&#x11d;" horiz-adv-x="445" 
d="M435 453l-55.5 -252l-49.5 -227q-43 -193 -211 -193q-55 0 -111 24l18 36q51 -23 94 -23q132 0 168 160q0 1 31 133.5t32 134.5q-52 -134 -108.5 -193.5t-120.5 -59.5q-54 0 -78.5 45t-24.5 110q0 76 37.5 153.5t105.5 130.5t145 53q59 0 128 -32zM390 435q-40 18 -80 18
q-69 0 -128.5 -53t-91 -123.5t-31.5 -132.5q0 -24 5 -48t21.5 -45t41.5 -21q48 0 95.5 46.5t81 114.5t56 132t30.5 112zM359 681l64 -147h-48l-46 119l-94 -119h-47l126 147h45z" />
    <glyph glyph-name="Gbreve" unicode="&#x11e;" horiz-adv-x="559" 
d="M343 358h205l-76 -358h-38l28 129q-41 -75 -92 -106.5t-118 -31.5q-68 0 -112 30t-61.5 82t-17.5 113.5t15 132.5t42.5 133t67.5 113.5t97.5 81.5t125.5 30q62 0 100 -25t69 -80l-36 -28q-27 45 -58.5 66.5t-84.5 21.5q-62 0 -112 -27.5t-82.5 -75t-53 -99t-33.5 -111.5
q-13 -59 -14.5 -110t10.5 -99t49.5 -76t97.5 -28q178 0 238 280h-165zM538 885h35q-72 -127 -165 -127t-111 127h35q11 -44 30 -66.5t55 -22.5t63.5 22.5t57.5 66.5z" />
    <glyph glyph-name="gbreve" unicode="&#x11f;" horiz-adv-x="445" 
d="M435 453l-55.5 -252l-49.5 -227q-43 -193 -211 -193q-55 0 -111 24l18 36q51 -23 94 -23q132 0 168 160q0 1 31 133.5t32 134.5q-52 -134 -108.5 -193.5t-120.5 -59.5q-54 0 -78.5 45t-24.5 110q0 76 37.5 153.5t105.5 130.5t145 53q59 0 128 -32zM390 435q-40 18 -80 18
q-69 0 -128.5 -53t-91 -123.5t-31.5 -132.5q0 -24 5 -48t21.5 -45t41.5 -21q48 0 95.5 46.5t81 114.5t56 132t30.5 112zM409 664h35q-70 -127 -165 -127q-93 0 -111 127h35q11 -44 30 -66.5t55 -22.5t64 22.5t57 66.5z" />
    <glyph glyph-name="Gdotaccent" unicode="&#x120;" horiz-adv-x="559" 
d="M343 358h205l-76 -358h-38l28 129q-41 -75 -92 -106.5t-118 -31.5q-68 0 -112 30t-61.5 82t-17.5 113.5t15 132.5t42.5 133t67.5 113.5t97.5 81.5t125.5 30q62 0 100 -25t69 -80l-36 -28q-27 45 -58.5 66.5t-84.5 21.5q-62 0 -112 -27.5t-82.5 -75t-53 -99t-33.5 -111.5
q-13 -59 -14.5 -110t10.5 -99t49.5 -76t97.5 -28q178 0 238 280h-165zM474 806q-4 -18 -20 -32t-33 -14q-18 0 -27.5 14t-5.5 32q5 20 20 34t32 14q18 0 28 -14.5t6 -33.5z" />
    <glyph glyph-name="gdotaccent" unicode="&#x121;" horiz-adv-x="445" 
d="M435 453l-55.5 -252l-49.5 -227q-43 -193 -211 -193q-55 0 -111 24l18 36q51 -23 94 -23q132 0 168 160q0 1 31 133.5t32 134.5q-52 -134 -108.5 -193.5t-120.5 -59.5q-54 0 -78.5 45t-24.5 110q0 76 37.5 153.5t105.5 130.5t145 53q59 0 128 -32zM390 435q-40 18 -80 18
q-69 0 -128.5 -53t-91 -123.5t-31.5 -132.5q0 -24 5 -48t21.5 -45t41.5 -21q48 0 95.5 46.5t81 114.5t56 132t30.5 112zM349 585q-5 -18 -20.5 -32t-33.5 -14q-17 0 -26.5 14t-5.5 32q4 20 19 34t33 14q17 0 27.5 -14.5t6.5 -33.5z" />
    <glyph glyph-name="Gcommaaccent" unicode="&#x122;" horiz-adv-x="559" 
d="M343 358h205l-76 -358h-38l28 129q-41 -75 -92 -106.5t-118 -31.5q-68 0 -112 30t-61.5 82t-17.5 113.5t15 132.5t42.5 133t67.5 113.5t97.5 81.5t125.5 30q62 0 100 -25t69 -80l-36 -28q-27 45 -58.5 66.5t-84.5 21.5q-62 0 -112 -27.5t-82.5 -75t-53 -99t-33.5 -111.5
q-13 -59 -14.5 -110t10.5 -99t49.5 -76t97.5 -28q178 0 238 280h-165zM273 -109l-7 -30l-77 -99h-9l27 129q3 14 14.5 24t24.5 10q15 0 22 -10t5 -24z" />
    <glyph glyph-name="gcommaaccent" unicode="&#x123;" horiz-adv-x="445" 
d="M435 453l-55.5 -252l-49.5 -227q-43 -193 -211 -193q-55 0 -111 24l18 36q51 -23 94 -23q132 0 168 160q0 1 31 133.5t32 134.5q-52 -134 -108.5 -193.5t-120.5 -59.5q-54 0 -78.5 45t-24.5 110q0 76 37.5 153.5t105.5 130.5t145 53q59 0 128 -32zM390 435q-40 18 -80 18
q-69 0 -128.5 -53t-91 -123.5t-31.5 -132.5q0 -24 5 -48t21.5 -45t41.5 -21q48 0 95.5 46.5t81 114.5t56 132t30.5 112zM266 558l6 30l78 99h9l-27 -129q-4 -14 -15.5 -24t-24.5 -10q-15 0 -22.5 10t-3.5 24z" />
    <glyph glyph-name="Hcircumflex" unicode="&#x124;" horiz-adv-x="608" 
d="M643 698l-148 -698h-41l72 341h-377l-72 -341h-42l148 698h42l-67 -315h376l68 315h41zM478 902l64 -147h-48l-46 119l-94 -119h-47l126 147h45z" />
    <glyph glyph-name="hcircumflex" unicode="&#x125;" horiz-adv-x="485" 
d="M446 290l-64 -290h-43l67 303q32 147 -60 147q-45 0 -89 -40t-75 -99.5t-52 -112t-31 -94.5q-23 -88 -26 -104h-43l153 697h42l-100 -462q51 129 106 190t120 61q53 0 79 -33t24.5 -76.5t-8.5 -86.5zM263 873l65 -147h-48l-46 119l-94 -119h-47l126 147h44z" />
    <glyph glyph-name="Hbar" unicode="&#x126;" horiz-adv-x="608" 
d="M678 546l-7 -34h-68l-108 -512h-41l72 341h-377l-72 -341h-42l108 512h-68l7 34h68l33 152h42l-33 -152h377l33 152h41l-33 -152h68zM158 383h376l28 129h-377z" />
    <glyph glyph-name="hbar" unicode="&#x127;" horiz-adv-x="485" 
d="M446 290l-64 -290h-43l67 303q32 147 -60 147q-45 0 -89 -40t-75 -99.5t-52 -112t-31 -94.5q-23 -88 -26 -104h-43l132 604h-78l8 37h78l13 56h42l-12 -56h178l-8 -37h-178l-80 -369q51 129 106 190t120 61q53 0 79 -33t24.5 -76.5t-8.5 -86.5z" />
    <glyph glyph-name="Itilde" unicode="&#x128;" horiz-adv-x="165" 
d="M225 698l-148 -698h-42l148 698h42zM333 833l19 -26q-42 -52 -83 -52q-28 0 -53 28.5t-45 28.5q-25 0 -55 -36l-20 26q43 51 83 51q28 0 53 -28t45 -28q27 0 56 36z" />
    <glyph glyph-name="itilde" unicode="&#x129;" horiz-adv-x="230" 
d="M152 480h43l-111 -480h-43zM301 612l20 -26q-42 -52 -83 -52q-28 0 -53 28.5t-45 28.5q-26 0 -56 -36l-19 26q43 51 83 51q28 0 53 -28t45 -28q26 0 55 36z" />
    <glyph glyph-name="imacron" unicode="&#x12b;" horiz-adv-x="230" 
d="M152 480h43l-111 -480h-43zM321 592l-9 -41h-244l9 41h244z" />
    <glyph glyph-name="Ibreve" unicode="&#x12c;" horiz-adv-x="165" 
d="M225 698l-148 -698h-42l148 698h42zM335 885h34q-70 -127 -164 -127t-111 127h34q12 -44 30.5 -66.5t54.5 -22.5t64 22.5t58 66.5z" />
    <glyph glyph-name="Iogonek" unicode="&#x12e;" horiz-adv-x="165" 
d="M224 698l-148 -698h-5l67 -197h-52l-51 197l148 698h41z" />
    <glyph glyph-name="iogonek" unicode="&#x12f;" horiz-adv-x="224" 
d="M75 0l69 -197h-51l-53 197l111 480h43l-111 -480h-8zM253 666q-1 -17 -15.5 -29.5t-31.5 -12.5q-16 0 -25 11t-6 26q2 17 16.5 29.5t31.5 12.5q16 0 24.5 -11t5.5 -26z" />
    <glyph glyph-name="Idotaccent" unicode="&#x130;" horiz-adv-x="165" 
d="M225 698l-148 -698h-42l148 698h42zM269 806q-4 -18 -20 -32t-33 -14q-18 0 -27.5 14t-5.5 32q5 20 20 34t32 14q18 0 28 -14.5t6 -33.5z" />
    <glyph glyph-name="dotlessi" unicode="&#x131;" horiz-adv-x="230" 
d="M152 480h43l-111 -480h-43z" />
    <glyph glyph-name="Jcircumflex" unicode="&#x134;" horiz-adv-x="492" 
d="M533 698l-104 -490q-45 -215 -247 -215q-72 0 -114.5 35.5t-47.5 103.5l42 11q12 -105 128 -105q83 0 131 41.5t67 129.5l103 489h42zM581 902l64 -147h-48l-46 119l-94 -119h-47l126 147h45z" />
    <glyph glyph-name="jcircumflex" unicode="&#x135;" horiz-adv-x="206" 
d="M133 480h43l-112 -501q-19 -93 -68 -143t-142 -54l9 38q72 3 108 43.5t51 111.5zM224 681l65 -147h-48l-46 119l-94 -119h-47l126 147h44z" />
    <glyph glyph-name="Kcommaaccent" unicode="&#x136;" horiz-adv-x="537" 
d="M488 43l-10 -43q-104 5 -170 112l-145 239l371 347h53l-374 -354l134 -207q27 -43 59.5 -67t81.5 -27zM80 0h-45l149 698h45zM246 -109l-7 -30l-77 -99h-9l27 129q3 14 14.5 24t24.5 10q15 0 22.5 -10t4.5 -24z" />
    <glyph glyph-name="kcommaaccent" unicode="&#x137;" horiz-adv-x="396" 
d="M364 480h52l-234 -228l85 -135q47 -74 113 -80l-8 -37q-78 5 -138 94q-12 17 -36.5 57l-43.5 72l-19 32zM182 698h41l-152 -698h-41zM193 -109l-7 -30l-77 -99h-9l27 129q3 14 14.5 24t24.5 10q16 0 23 -10t4 -24z" />
    <glyph glyph-name="Lacute" unicode="&#x139;" horiz-adv-x="461" 
d="M412 41l-9 -41h-368l148 698h42l-140 -657h327zM312 903h54l-123 -148h-40z" />
    <glyph glyph-name="lacute" unicode="&#x13a;" horiz-adv-x="213" 
d="M190 698h43l-138 -586q-9 -31 -2 -49.5t37 -23.5l-9 -39q-92 7 -70 107zM307 887h55l-124 -149h-40z" />
    <glyph glyph-name="Lcommaaccent" unicode="&#x13b;" horiz-adv-x="461" 
d="M412 41l-9 -41h-368l148 698h42l-140 -657h327zM226 -109l-7 -30l-77 -99h-9l28 129q2 14 14 24t25 10q15 0 22 -10t4 -24z" />
    <glyph glyph-name="lcommaaccent" unicode="&#x13c;" horiz-adv-x="213" 
d="M190 698h43l-138 -586q-9 -31 -2 -49.5t37 -23.5l-9 -39q-92 7 -70 107zM86 -109l-7 -30l-77 -99h-9l27 129q3 14 14.5 24t24.5 10q16 0 23 -10t4 -24z" />
    <glyph glyph-name="Lcaron" unicode="&#x13d;" horiz-adv-x="461" 
d="M412 41l-9 -41h-368l148 698h42l-140 -657h327zM535 699l-16 -45l-79 -105l-9 1l36 148q4 16 15.5 26.5t25.5 10.5t22.5 -10.5t4.5 -25.5z" />
    <glyph glyph-name="lcaron" unicode="&#x13e;" horiz-adv-x="213" 
d="M190 698h43l-138 -586q-9 -31 -2 -49.5t37 -23.5l-9 -39q-92 7 -70 107zM340 699l-16 -45l-79 -105l-8 1l36 148q3 16 14.5 26.5t25.5 10.5t22.5 -10.5t4.5 -25.5z" />
    <glyph glyph-name="Lslash" unicode="&#x141;" horiz-adv-x="461" 
d="M411 44l-8 -44h-368l58 278l-39 -17l8 38l40 17l81 382h42l-77 -362l171 73l-8 -37l-171 -74l-54 -254h325z" />
    <glyph glyph-name="lslash" unicode="&#x142;" horiz-adv-x="213" 
d="M129 39l-8 -39q-52 6 -66 34t-4 73l44 189l-64 -24l8 36l64 24l84 366h42l-80 -347l89 34l-8 -36l-89 -34l-47 -203q-8 -28 -1 -48.5t36 -24.5z" />
    <glyph glyph-name="Nacute" unicode="&#x143;" horiz-adv-x="586" 
d="M621 698l-148 -698h-45l-219 622l-132 -622h-42l148 698h46l219 -622l132 622h41zM443 903h54l-123 -148h-40z" />
    <glyph glyph-name="nacute" unicode="&#x144;" horiz-adv-x="486" 
d="M447 290l-64 -290h-43l67 302q5 32 7.5 64.5t-14.5 57.5t-54 25q-45 0 -88.5 -39t-74.5 -98.5t-52 -111.5t-32 -96q-23 -88 -26 -104h-43l106 480h43l-54 -244q50 128 105 189t121 61q34 0 57 -13t33.5 -33t13.5 -47.5t0.5 -51.5t-8.5 -51zM354 682h54l-123 -148h-40z
" />
    <glyph glyph-name="Ncommaaccent" unicode="&#x145;" horiz-adv-x="586" 
d="M621 698l-148 -698h-45l-219 622l-132 -622h-42l148 698h46l219 -622l132 622h41zM293 -109l-7 -30l-77 -99h-9l27 129q3 14 14.5 24t24.5 10q15 0 22.5 -10t4.5 -24z" />
    <glyph glyph-name="ncommaaccent" unicode="&#x146;" horiz-adv-x="486" 
d="M447 290l-64 -290h-43l67 302q5 32 7.5 64.5t-14.5 57.5t-54 25q-45 0 -88.5 -39t-74.5 -98.5t-52 -111.5t-32 -96q-23 -88 -26 -104h-43l106 480h43l-54 -244q50 128 105 189t121 61q34 0 57 -13t33.5 -33t13.5 -47.5t0.5 -51.5t-8.5 -51zM235 -109l-7 -30l-77 -99h-9
l28 129q2 13 14 23.5t25 10.5q15 0 22 -10t4 -24z" />
    <glyph glyph-name="Ncaron" unicode="&#x147;" horiz-adv-x="586" 
d="M473 0l148 698h-41l-132 -622l-219 622h-46l-148 -698h42l132 622l219 -622h45zM536 902l-127 -147h-44l-64 147h47l44 -119l96 119h48z" />
    <glyph glyph-name="ncaron" unicode="&#x148;" horiz-adv-x="486" 
d="M447 290q6 27 8.5 51t-0.5 51.5t-13.5 47.5t-33.5 33t-57 13q-66 0 -121 -61t-105 -189l54 244h-43l-106 -480h43q3 16 26 104q11 44 32 96t52 111.5t74.5 98.5t88.5 39q37 0 54 -25t14.5 -57.5t-7.5 -64.5l-67 -302h43zM481 681l-127 -147h-44l-64 147h47l44 -119
l96 119h48z" />
    <glyph glyph-name="Eng" unicode="&#x14a;" horiz-adv-x="586" 
d="M622 698l-155 -726q-39 -181 -191 -191l2 39q119 8 151 153l4 16l-223 633l-133 -622h-42l149 698h46l218 -622l133 622h41z" />
    <glyph glyph-name="eng" unicode="&#x14b;" horiz-adv-x="486" 
d="M447 290l-69 -311q-20 -93 -69 -143t-142 -54l9 38q72 3 108 43.5t51 111.5l72 327q5 32 7.5 64.5t-14.5 57.5t-54 25q-45 0 -88.5 -39t-74.5 -98.5t-52 -111.5t-32 -96q-23 -88 -26 -104h-43l106 480h43l-54 -244q50 128 105 189t121 61q34 0 57 -13t33.5 -33
t13.5 -47.5t0.5 -51.5t-8.5 -51z" />
    <glyph glyph-name="Omacron" unicode="&#x14c;" horiz-adv-x="596" 
d="M583 349q-15 -73 -41.5 -134t-65.5 -113t-96.5 -81.5t-126.5 -29.5t-113 29.5t-61.5 81.5t-17.5 113.5t15 133.5t41.5 133.5t65.5 113.5t96 81.5t126 29.5t113.5 -29.5t62 -81.5t17.5 -113t-15 -134zM542 349q13 60 14 110.5t-10.5 99t-49.5 76t-100 27.5
q-50 0 -92.5 -19t-72 -49t-53 -72.5t-37 -84t-23.5 -88.5t-14 -88.5t1.5 -83.5t22 -72.5t50.5 -49.5t84 -19t92.5 19t72 49t53.5 72.5t38 84t24 88.5zM558 813l-9 -41h-244l9 41h244z" />
    <glyph glyph-name="omacron" unicode="&#x14d;" horiz-adv-x="443" 
d="M433 341q0 -49 -7.5 -96t-26 -93.5t-46.5 -81.5t-73.5 -57t-101.5 -22q-72 0 -110 38.5t-38 107.5q0 63 13.5 121.5t42 111.5t80.5 85t120 32q71 0 109 -38.5t38 -107.5zM389 329q0 55 -29.5 87t-85.5 32q-52 0 -92.5 -29t-63 -75t-33.5 -95t-11 -98q0 -121 115 -121
q52 0 92.5 29t63 75t33.5 96t11 99zM431 592l-8 -41h-245l9 41h244z" />
    <glyph glyph-name="Obreve" unicode="&#x14e;" horiz-adv-x="596" 
d="M583 349q-15 -73 -41.5 -134t-65.5 -113t-96.5 -81.5t-126.5 -29.5t-113 29.5t-61.5 81.5t-17.5 113.5t15 133.5t41.5 133.5t65.5 113.5t96 81.5t126 29.5t113.5 -29.5t62 -81.5t17.5 -113t-15 -134zM542 349q13 60 14 110.5t-10.5 99t-49.5 76t-100 27.5
q-50 0 -92.5 -19t-72 -49t-53 -72.5t-37 -84t-23.5 -88.5t-14 -88.5t1.5 -83.5t22 -72.5t50.5 -49.5t84 -19t92.5 19t72 49t53.5 72.5t38 84t24 88.5zM552 885h35q-72 -127 -165 -127t-111 127h35q11 -44 30 -66.5t54 -22.5q36 0 64 22t58 67z" />
    <glyph glyph-name="obreve" unicode="&#x14f;" horiz-adv-x="443" 
d="M433 341q0 -49 -7.5 -96t-26 -93.5t-46.5 -81.5t-73.5 -57t-101.5 -22q-72 0 -110 38.5t-38 107.5q0 63 13.5 121.5t42 111.5t80.5 85t120 32q71 0 109 -38.5t38 -107.5zM389 329q0 55 -29.5 87t-85.5 32q-52 0 -92.5 -29t-63 -75t-33.5 -95t-11 -98q0 -121 115 -121
q52 0 92.5 29t63 75t33.5 96t11 99zM408 664h35q-72 -127 -165 -127q-94 0 -111 127h35q11 -44 30 -66.5t54 -22.5q36 0 64 22t58 67z" />
    <glyph glyph-name="Ohungarumlaut" unicode="&#x150;" horiz-adv-x="596" 
d="M583 349q-15 -73 -41.5 -134t-65.5 -113t-96.5 -81.5t-126.5 -29.5t-113 29.5t-61.5 81.5t-17.5 113.5t15 133.5t41.5 133.5t65.5 113.5t96 81.5t126 29.5t113.5 -29.5t62 -81.5t17.5 -113t-15 -134zM542 349q13 60 14 110.5t-10.5 99t-49.5 76t-100 27.5
q-50 0 -92.5 -19t-72 -49t-53 -72.5t-37 -84t-23.5 -88.5t-14 -88.5t1.5 -83.5t22 -72.5t50.5 -49.5t84 -19t92.5 19t72 49t53.5 72.5t38 84t24 88.5zM539 912h49l-116 -147h-35zM428 912h50l-117 -147h-35z" />
    <glyph glyph-name="ohungarumlaut" unicode="&#x151;" horiz-adv-x="443" 
d="M433 341q0 -49 -7.5 -96t-26 -93.5t-46.5 -81.5t-73.5 -57t-101.5 -22q-72 0 -110 38.5t-38 107.5q0 63 13.5 121.5t42 111.5t80.5 85t120 32q71 0 109 -38.5t38 -107.5zM389 329q0 55 -29.5 87t-85.5 32q-52 0 -92.5 -29t-63 -75t-33.5 -95t-11 -98q0 -121 115 -121
q52 0 92.5 29t63 75t33.5 96t11 99zM386 691h50l-117 -147h-35zM275 691h50l-116 -147h-35z" />
    <glyph glyph-name="OE" unicode="&#x152;" horiz-adv-x="927" 
d="M838 0h-377l31 148q-89 -157 -241 -157q-68 0 -112 29.5t-60.5 81.5t-16.5 113.5t15 133.5t41 133.5t65 113.5t95.5 81.5t124.5 29.5q66 0 116 -36.5t60 -116.5l31 144h377l-10 -45h-335l-57 -268h290l-9 -44h-291l-63 -296h335zM535 349q13 60 15 111t-9.5 99t-49 75.5
t-98.5 27.5t-110 -27.5t-81 -75.5t-52 -99t-32 -111q-13 -60 -15 -111t9.5 -99t49 -75.5t98.5 -27.5t110 27.5t80.5 76t51.5 99t33 110.5z" />
    <glyph glyph-name="oe" unicode="&#x153;" horiz-adv-x="739" 
d="M739 388q0 -42 -38.5 -73.5t-97 -46.5t-105.5 -22.5t-87 -8.5q-9 -48 -9 -80q0 -126 109 -126q63 0 124 59l27 -29q-38 -37 -72.5 -53t-80.5 -16q-54 0 -92.5 29t-49.5 91q-67 -121 -195 -121q-66 0 -104 38.5t-38 107.5q0 61 13 119t40 111.5t78.5 86.5t119.5 33
q54 0 91 -31.5t47 -96.5q33 63 82 95t105 32q51 0 92 -25t41 -73zM699 386q0 31 -29 46t-64 15q-127 0 -186 -181q34 2 72 7t89.5 17t84.5 37t33 59zM73 151q0 -56 28.5 -87.5t84.5 -31.5q49 0 88.5 31t61.5 78t33.5 96t11.5 92q0 54 -29 85.5t-84 31.5q-51 0 -90.5 -29
t-61.5 -75t-32.5 -94.5t-10.5 -96.5z" />
    <glyph glyph-name="Racute" unicode="&#x154;" horiz-adv-x="588" 
d="M603 552q0 -219 -263 -225q43 -19 68 -81q9 -22 32 -88q19 -50 46 -81t74 -35l-9 -42q-62 3 -96 41.5t-60 109.5q-5 15 -26 71q-18 48 -42 75.5t-66 27.5h-111l-70 -325h-45l149 698h225q91 0 142.5 -32.5t51.5 -113.5zM559 546q0 30 -10.5 51t-25.5 32t-39 17t-43 7.5
t-46 1.5h-175l-62 -293h180q221 0 221 184zM440 903h55l-124 -148h-40z" />
    <glyph glyph-name="racute" unicode="&#x155;" horiz-adv-x="331" 
d="M388 477l-8 -38q-19 10 -40 10q-48 0 -93.5 -40.5t-78 -102.5t-54 -119.5t-33.5 -107.5l-19 -79h-42l106 480h40l-54 -248q91 254 230 254q24 0 46 -9zM276 682h54l-123 -148h-40z" />
    <glyph glyph-name="Rcommaaccent" unicode="&#x156;" horiz-adv-x="588" 
d="M603 552q0 -219 -263 -225q43 -19 68 -81q9 -22 32 -88q19 -50 46 -81t74 -35l-9 -42q-62 3 -96 41.5t-60 109.5q-5 15 -26 71q-18 48 -42 75.5t-66 27.5h-111l-70 -325h-45l149 698h225q91 0 142.5 -32.5t51.5 -113.5zM559 546q0 30 -10.5 51t-25.5 32t-39 17t-43 7.5
t-46 1.5h-175l-62 -293h180q221 0 221 184zM309 -109l-7 -30l-77 -99h-9l28 129q2 13 14 23.5t25 10.5q15 0 22 -10t4 -24z" />
    <glyph glyph-name="rcommaaccent" unicode="&#x157;" horiz-adv-x="331" 
d="M388 477l-8 -38q-19 10 -40 10q-48 0 -93.5 -40.5t-78 -102.5t-54 -119.5t-33.5 -107.5l-19 -79h-42l106 480h40l-54 -248q91 254 230 254q24 0 46 -9zM58 -109l-7 -30l-77 -99h-9l27 129q3 14 14.5 24t24.5 10q15 0 22.5 -10t4.5 -24z" />
    <glyph glyph-name="Rcaron" unicode="&#x158;" horiz-adv-x="588" 
d="M603 552q0 81 -51.5 113.5t-142.5 32.5h-225l-149 -698h45l70 325h111q42 0 66 -27.5t42 -75.5q21 -56 26 -71q26 -71 60 -109.5t96 -41.5l9 42q-47 4 -74 35t-46 81q-23 66 -32 88q-25 62 -68 81q263 6 263 225zM559 546q0 -184 -221 -184h-180l62 293h175q27 0 46 -1.5
t43 -7.5t39 -17t25.5 -32t10.5 -51zM529 902l-127 -147h-44l-64 147h48l43 -119l96 119h48z" />
    <glyph glyph-name="rcaron" unicode="&#x159;" horiz-adv-x="331" 
d="M388 477q-22 9 -46 9q-139 0 -230 -254l54 248h-40l-106 -480h42l19 79q12 50 33.5 107.5t54 119.5t78 102.5t93.5 40.5q21 0 40 -10zM382 681l-127 -147h-45l-63 147h47l43 -119l97 119h48z" />
    <glyph glyph-name="Sacute" unicode="&#x15a;" horiz-adv-x="543" 
d="M509 191q-19 -93 -96.5 -146.5t-169.5 -53.5q-208 0 -208 174l42 8q3 -140 175 -140q71 0 135 41t80 117q10 46 -5.5 77t-47.5 47t-73 27.5l-81.5 24t-72 30t-47 51.5t-4.5 84q18 85 86.5 129t152.5 44q156 0 189 -131l-40 -18q-29 105 -159 105q-39 0 -75 -10.5t-69 -41
t-43 -77.5q-8 -40 8.5 -67t49 -41t73 -25t81 -24.5t71.5 -33.5t45.5 -58t2.5 -92zM421 903h54l-123 -148h-40z" />
    <glyph glyph-name="sacute" unicode="&#x15b;" horiz-adv-x="378" 
d="M373 408l-37 -16q-27 57 -90 57q-48 0 -83.5 -25.5t-35.5 -73.5q0 -27 22 -45t53.5 -29.5t62.5 -25t53 -40t22 -65.5q0 -68 -52 -111t-125 -43q-119 0 -143 123l38 9q19 -93 108 -93q52 0 91.5 29t39.5 80q0 31 -22 51.5t-53 32t-62 24.5t-53 37t-22 61q0 64 47 102.5
t117 38.5q86 0 124 -78zM299 682h55l-124 -148h-40z" />
    <glyph glyph-name="Scircumflex" unicode="&#x15c;" horiz-adv-x="543" 
d="M509 191q-19 -93 -96.5 -146.5t-169.5 -53.5q-208 0 -208 174l42 8q3 -140 175 -140q71 0 135 41t80 117q10 46 -5.5 77t-47.5 47t-73 27.5l-81.5 24t-72 30t-47 51.5t-4.5 84q18 85 86.5 129t152.5 44q156 0 189 -131l-40 -18q-29 105 -159 105q-39 0 -75 -10.5t-69 -41
t-43 -77.5q-8 -40 8.5 -67t49 -41t73 -25t81 -24.5t71.5 -33.5t45.5 -58t2.5 -92zM445 902l64 -147h-48l-46 119l-94 -119h-47l126 147h45z" />
    <glyph glyph-name="scircumflex" unicode="&#x15d;" horiz-adv-x="378" 
d="M373 408l-37 -16q-27 57 -90 57q-48 0 -83.5 -25.5t-35.5 -73.5q0 -27 22 -45t53.5 -29.5t62.5 -25t53 -40t22 -65.5q0 -68 -52 -111t-125 -43q-119 0 -143 123l38 9q19 -93 108 -93q52 0 91.5 29t39.5 80q0 31 -22 51.5t-53 32t-62 24.5t-53 37t-22 61q0 64 47 102.5
t117 38.5q86 0 124 -78zM325 681l65 -147h-48l-46 119l-94 -119h-47l126 147h44z" />
    <glyph glyph-name="Scedilla" unicode="&#x15e;" horiz-adv-x="543" 
d="M259 -8l12 -61l-92 -128h-52l111 131l-11 58q-192 7 -192 173l42 8q3 -140 175 -140q71 0 135 41t80 117q10 46 -5.5 77t-47.5 47t-73 27.5l-81.5 24t-72 30t-47 51.5t-4.5 84q18 85 86.5 129t152.5 44q156 0 189 -131l-40 -18q-29 105 -159 105q-39 0 -75 -10.5t-69 -41
t-43 -77.5q-8 -40 8.5 -67t49 -41t73 -25t81 -24.5t71.5 -33.5t45.5 -58t2.5 -92q-19 -89 -91 -142t-159 -57z" />
    <glyph glyph-name="scedilla" unicode="&#x15f;" horiz-adv-x="378" 
d="M178 -8l13 -61l-93 -128h-51l111 131l-10 58q-105 7 -128 122l38 9q19 -93 108 -93q52 0 91.5 29t39.5 80q0 31 -22 51.5t-53 32t-62 24.5t-53 37t-22 61q0 64 47 102.5t117 38.5q86 0 124 -78l-37 -16q-27 57 -90 57q-48 0 -83.5 -25.5t-35.5 -73.5q0 -27 22 -45
t53.5 -29.5t62.5 -25t53 -40t22 -65.5q0 -65 -47 -107t-115 -46z" />
    <glyph glyph-name="Scaron" unicode="&#x160;" horiz-adv-x="543" 
d="M509 191q12 54 -2.5 92t-45.5 58t-71.5 33.5t-81 24.5t-73 25t-49 41t-8.5 67q10 47 43 77.5t69 41t75 10.5q130 0 159 -105l40 18q-33 131 -189 131q-84 0 -152.5 -44t-86.5 -129q-11 -50 4.5 -84t47 -51.5t72 -30l81.5 -24t73 -27.5t47.5 -47t5.5 -77q-16 -76 -80 -117
t-135 -41q-172 0 -175 140l-42 -8q0 -174 208 -174q92 0 169.5 53.5t96.5 146.5zM514 902l-127 -147h-44l-64 147h47l43 -119l97 119h48z" />
    <glyph glyph-name="scaron" unicode="&#x161;" horiz-adv-x="378" 
d="M373 408q-38 78 -124 78q-70 0 -117 -38.5t-47 -102.5q0 -37 22 -61t53 -37t62 -24.5t53 -32t22 -51.5q0 -51 -39.5 -80t-91.5 -29q-89 0 -108 93l-38 -9q24 -123 143 -123q73 0 125 43t52 111q0 39 -22 65.5t-53 40t-62.5 25t-53.5 29.5t-22 45q0 48 35.5 73.5
t83.5 25.5q63 0 90 -57zM393 681l-127 -147h-44l-64 147h47l44 -119l96 119h48z" />
    <glyph glyph-name="Tcommaaccent" unicode="&#x162;" horiz-adv-x="469" 
d="M569 698l-10 -44h-209l-138 -654h-42l138 654h-209l10 44h460zM204 -109l-7 -30l-77 -99h-9l27 129q3 14 14.5 24t24.5 10q16 0 23 -10t4 -24z" />
    <glyph glyph-name="tcommaaccent" unicode="&#x163;" horiz-adv-x="254" 
d="M183 480h85l-9 -38h-85l-75 -329q-9 -40 2 -57.5t53 -17.5l-8 -38h-18q-51 0 -67.5 29.5t-5.5 77.5l77 335h-74l9 38h74l33 146h42zM87 -109l-7 -30l-77 -99h-9l27 129q3 14 14.5 24t24.5 10q15 0 22 -10t5 -24z" />
    <glyph glyph-name="Tcaron" unicode="&#x164;" horiz-adv-x="469" 
d="M560 654l9 44h-459l-10 -44h209l-138 -654h41l139 654h209zM500 902l-127 -147h-44l-64 147h47l43 -119l97 119h48z" />
    <glyph glyph-name="tcaron" unicode="&#x165;" horiz-adv-x="254" 
d="M183 480h85l-9 -38h-85l-75 -329q-9 -40 2 -57.5t53 -17.5l-8 -38h-18q-51 0 -67.5 29.5t-5.5 77.5l77 335h-74l9 38h74l33 146h42zM348 704l-34 -160h-54l34 160q2 11 12 20t21 9t17 -9t4 -20z" />
    <glyph glyph-name="Tbar" unicode="&#x166;" horiz-adv-x="469" 
d="M569 698l-9 -44h-209l-48 -224h136l-7 -34h-136l-84 -396h-41l83 396h-135l7 34h135l48 224h-209l10 44h459z" />
    <glyph glyph-name="tbar" unicode="&#x167;" horiz-adv-x="254" 
d="M183 480h85l-9 -38h-85l-28 -122h85l-8 -31h-84l-40 -176q-9 -40 1.5 -57.5t52.5 -17.5l-7 -38h-19q-97 0 -72 107l41 182h-73l7 31h74l28 122h-75l9 38h75l33 146h42z" />
    <glyph glyph-name="Utilde" unicode="&#x168;" horiz-adv-x="583" 
d="M630 698l-86 -401q-31 -146 -100 -226t-194 -80q-231 0 -165 306l85 401h42l-85 -399q-9 -44 -12.5 -79.5t1 -71t20 -59t46 -38.5t76.5 -15t83.5 15t63.5 38.5t46 59t32 71t21 79.5l85 399h41zM522 833l20 -26q-42 -52 -83 -52q-28 0 -53 28.5t-45 28.5q-26 0 -56 -36
l-19 26q43 51 83 51q28 0 53 -28t45 -28q28 0 55 36z" />
    <glyph glyph-name="utilde" unicode="&#x169;" horiz-adv-x="476" 
d="M432 480h44l-105 -480h-42l54 245q-97 -252 -227 -252q-41 0 -66 19t-32 50.5t-6 61.5t8 63l64 293h42l-65 -305q-6 -33 -7.5 -65t15.5 -55.5t52 -23.5q41 0 78.5 28.5t64 69.5t51 98.5t38.5 102.5t26 94zM426 612l20 -26q-44 -52 -83 -52q-23 0 -38.5 14t-29 28.5
t-30.5 14.5q-26 0 -56 -36l-19 26q43 51 83 51q28 0 52.5 -28t44.5 -28q27 0 56 36z" />
    <glyph glyph-name="Umacron" unicode="&#x16a;" horiz-adv-x="583" 
d="M630 698l-86 -401q-31 -146 -100 -226t-194 -80q-231 0 -165 306l85 401h42l-85 -399q-9 -44 -12.5 -79.5t1 -71t20 -59t46 -38.5t76.5 -15t83.5 15t63.5 38.5t46 59t32 71t21 79.5l85 399h41zM541 813l-9 -41h-244l9 41h244z" />
    <glyph glyph-name="umacron" unicode="&#x16b;" horiz-adv-x="476" 
d="M432 480h44l-105 -480h-42l54 245q-97 -252 -227 -252q-41 0 -66 19t-32 50.5t-6 61.5t8 63l64 293h42l-65 -305q-6 -33 -7.5 -65t15.5 -55.5t52 -23.5q41 0 78.5 28.5t64 69.5t51 98.5t38.5 102.5t26 94zM446 592l-9 -41h-244l8 41h245z" />
    <glyph glyph-name="Ubreve" unicode="&#x16c;" horiz-adv-x="583" 
d="M630 698l-86 -401q-31 -146 -100 -226t-194 -80q-231 0 -165 306l85 401h42l-85 -399q-9 -44 -12.5 -79.5t1 -71t20 -59t46 -38.5t76.5 -15t83.5 15t63.5 38.5t46 59t32 71t21 79.5l85 399h41zM520 885h35q-70 -127 -165 -127q-93 0 -111 127h35q11 -44 30 -66.5
t55 -22.5t64 22.5t57 66.5z" />
    <glyph glyph-name="ubreve" unicode="&#x16d;" horiz-adv-x="476" 
d="M432 480h44l-105 -480h-42l54 245q-97 -252 -227 -252q-41 0 -66 19t-32 50.5t-6 61.5t8 63l64 293h42l-65 -305q-6 -33 -7.5 -65t15.5 -55.5t52 -23.5q41 0 78.5 28.5t64 69.5t51 98.5t38.5 102.5t26 94zM424 664h35q-70 -127 -164 -127t-112 127h35q11 -44 30 -66.5
t55 -22.5t64 22.5t57 66.5z" />
    <glyph glyph-name="Uring" unicode="&#x16e;" horiz-adv-x="583" 
d="M630 698l-86 -401q-31 -146 -100 -226t-194 -80q-231 0 -165 306l85 401h42l-85 -399q-9 -44 -12.5 -79.5t1 -71t20 -59t46 -38.5t76.5 -15t83.5 15t63.5 38.5t46 59t32 71t21 79.5l85 399h41zM523 855q-7 -40 -40 -69t-70 -29q-38 0 -58 29t-12 69q8 41 41 69.5t71 28.5
q37 0 57 -29t11 -69zM486 855q5 24 -6.5 41t-33.5 17t-41.5 -17t-24.5 -41t7 -41t35 -17q21 0 40.5 17t23.5 41z" />
    <glyph glyph-name="uring" unicode="&#x16f;" horiz-adv-x="476" 
d="M432 480h44l-105 -480h-42l54 245q-97 -252 -227 -252q-41 0 -66 19t-32 50.5t-6 61.5t8 63l64 293h42l-65 -305q-6 -33 -7.5 -65t15.5 -55.5t52 -23.5q41 0 78.5 28.5t64 69.5t51 98.5t38.5 102.5t26 94zM409 634q-8 -40 -40.5 -69t-69.5 -29q-38 0 -58.5 29t-12.5 69
q9 41 42 69.5t71 28.5q37 0 57 -29t11 -69zM372 634q5 24 -7 41t-33 17q-22 0 -41.5 -17t-24.5 -41t7 -41t34 -17t41 17t24 41z" />
    <glyph glyph-name="Uhungarumlaut" unicode="&#x170;" horiz-adv-x="583" 
d="M630 698l-86 -401q-31 -146 -100 -226t-194 -80q-231 0 -165 306l85 401h42l-85 -399q-9 -44 -12.5 -79.5t1 -71t20 -59t46 -38.5t76.5 -15t83.5 15t63.5 38.5t46 59t32 71t21 79.5l85 399h41zM497 912h49l-116 -147h-35zM386 912h50l-117 -147h-34z" />
    <glyph glyph-name="uhungarumlaut" unicode="&#x171;" horiz-adv-x="476" 
d="M432 480h44l-105 -480h-42l54 245q-97 -252 -227 -252q-41 0 -66 19t-32 50.5t-6 61.5t8 63l64 293h42l-65 -305q-6 -33 -7.5 -65t15.5 -55.5t52 -23.5q41 0 78.5 28.5t64 69.5t51 98.5t38.5 102.5t26 94zM403 691h49l-116 -147h-35zM292 691h50l-117 -147h-35z" />
    <glyph glyph-name="Uogonek" unicode="&#x172;" horiz-adv-x="583" 
d="M317 -2l66 -195h-51l-51 190q-18 -2 -31 -2q-231 0 -165 306l85 401h42l-85 -399q-9 -44 -12.5 -79.5t1 -71t20 -59t46 -38.5t76.5 -15t83.5 15t63.5 38.5t46 59t32 71t21 79.5l85 399h41l-86 -401q-56 -261 -227 -299z" />
    <glyph glyph-name="uogonek" unicode="&#x173;" horiz-adv-x="476" 
d="M363 0l70 -197h-51l-53 197l54 245q-97 -252 -227 -252q-41 0 -66 19t-32 50.5t-6 61.5t8 63l64 293h42l-65 -305q-6 -33 -7.5 -65t15.5 -55.5t52 -23.5q41 0 78.5 28.5t64 69.5t51 98.5t38.5 102.5t26 94l13 56h44l-105 -480h-8z" />
    <glyph glyph-name="Wcircumflex" unicode="&#x174;" horiz-adv-x="664" 
d="M722 698h42l-298 -698h-48l-3 616l-265 -616h-48l-2 698h43v-622l268 622h42l4 -622zM496 902l64 -147h-48l-46 119l-93 -119h-48l126 147h45z" />
    <glyph glyph-name="wcircumflex" unicode="&#x175;" horiz-adv-x="711" 
d="M718 480h43l-252 -480h-47l-60 426l-237 -426h-46l-49 480h45l39 -429l239 429h44l58 -429zM481 681l64 -147h-48l-46 119l-94 -119h-47l126 147h45z" />
    <glyph glyph-name="Ycircumflex" unicode="&#x176;" horiz-adv-x="437" 
d="M520 698h47l-312 -467l-49 -231h-41l49 231l-114 467h47l98 -415zM393 902l64 -147h-48l-46 119l-94 -119h-47l126 147h45z" />
    <glyph glyph-name="ycircumflex" unicode="&#x177;" horiz-adv-x="435" 
d="M437 480h48l-357 -603q-59 -98 -156 -97h-12l9 38q37 0 64 15.5t38.5 31t31.5 49.5l60 100l-74 466h46l59 -416zM347 681l65 -147h-48l-46 119l-94 -119h-47l126 147h44z" />
    <glyph glyph-name="Ydieresis" unicode="&#x178;" horiz-adv-x="437" 
d="M520 698h47l-312 -467l-49 -231h-41l49 231l-114 467h47l98 -415zM472 802q-3 -16 -16 -27.5t-27 -11.5q-15 0 -23.5 11.5t-4.5 27.5t17 27.5t27 11.5q15 0 23 -11.5t4 -27.5zM307 802q-4 -16 -17 -27.5t-28 -11.5q-14 0 -22 11.5t-4 27.5q3 16 15.5 27.5t27.5 11.5
t23.5 -11.5t4.5 -27.5z" />
    <glyph glyph-name="Zacute" unicode="&#x179;" horiz-adv-x="539" 
d="M192 698h427l-10 -46l-545 -619q67 8 93 8q31 0 92.5 -9.5t92.5 -9.5q59 0 113 17l17 -41q-55 -19 -132 -19q-34 0 -99 9.5t-98 9.5q-78 0 -122 -13l-16 44l552 625h-376zM421 903h55l-123 -148h-40z" />
    <glyph glyph-name="zacute" unicode="&#x17a;" horiz-adv-x="464" 
d="M147 480h327l-10 -42l-402 -403q56 9 80.5 6t63.5 -11t67 -8q50 0 95 15l16 -33q-45 -19 -111 -19q-27 0 -79 10t-79 10q-50 0 -89 -14l-21 38l407 412h-273zM343 682h54l-123 -148h-40z" />
    <glyph glyph-name="Zdotaccent" unicode="&#x17b;" horiz-adv-x="539" 
d="M192 698h427l-10 -46l-545 -619q67 8 93 8q31 0 92.5 -9.5t92.5 -9.5q59 0 113 17l17 -41q-55 -19 -132 -19q-34 0 -99 9.5t-98 9.5q-78 0 -122 -13l-16 44l552 625h-376zM458 806q-4 -18 -20 -32t-33 -14q-18 0 -27.5 14t-5.5 32q5 20 19.5 34t32.5 14t28 -14t6 -34z
" />
    <glyph glyph-name="zdotaccent" unicode="&#x17c;" horiz-adv-x="464" 
d="M147 480h327l-10 -42l-402 -403q56 9 80.5 6t63.5 -11t67 -8q50 0 95 15l16 -33q-45 -19 -111 -19q-27 0 -79 10t-79 10q-50 0 -89 -14l-21 38l407 412h-273zM358 585q-4 -18 -20 -32t-33 -14q-18 0 -27.5 14t-5.5 32q5 20 19.5 34t32.5 14t28 -14.5t6 -33.5z" />
    <glyph glyph-name="Zcaron" unicode="&#x17d;" horiz-adv-x="539" 
d="M619 698h-427l-11 -44h376l-552 -625l16 -44q44 13 122 13q33 0 98 -9.5t99 -9.5q77 0 132 19l-17 41q-54 -17 -113 -17q-31 0 -92.5 9.5t-92.5 9.5q-26 0 -93 -8l545 619zM546 902l-127 -147h-45l-63 147h47l43 -119l97 119h48z" />
    <glyph glyph-name="zcaron" unicode="&#x17e;" horiz-adv-x="464" 
d="M474 480h-327l-8 -39h273l-407 -412l21 -38q39 14 89 14q27 0 79 -10t79 -10q66 0 111 19l-16 33q-45 -15 -95 -15q-28 0 -67 8t-63.5 11t-80.5 -6l402 403zM456 681l-127 -147h-44l-64 147h47l44 -119l96 119h48z" />
    <glyph glyph-name="florin" unicode="&#x192;" horiz-adv-x="331" 
d="M459 698l-8 -39q-123 -6 -178 -157q-1 -1 -15 -37.5t-15 -37.5h78l-8 -39h-85l-222 -587l-36 7l222 580h-62l8 39h68q1 1 16 39.5t15 39.5q71 184 222 192z" />
    <glyph glyph-name="Aringacute" unicode="&#x1fa;" horiz-adv-x="592" 
d="M440 698l99 -698h-44l-31 214h-310l-120 -214h-44l395 698h55zM177 254h282l-56 401zM472 1011h49l-70 -79l10 1q34 0 52 -26t10 -62q-7 -36 -36.5 -62t-62.5 -26q-35 0 -53.5 26t-10.5 62q8 33 31 56zM489 845q5 22 -5 37t-30 15q-21 0 -38 -15t-22 -37t6 -37t32 -15
q20 0 36.5 15t20.5 37z" />
    <glyph glyph-name="aringacute" unicode="&#x1fb;" horiz-adv-x="456" 
d="M456 452l-90 -417l3 -35l-39 -5l-3 42l45 211q-92 -256 -228 -256q-55 0 -79.5 46t-24.5 112q0 77 37.5 154t105 129t145.5 52q62 0 128 -33zM410 435q-45 18 -78 18q-70 0 -130 -52t-91 -122.5t-31 -133.5q0 -24 5 -48t21.5 -45.5t41.5 -21.5q49 0 96.5 46.5t80.5 114
t55 132t30 112.5zM356 790h49l-71 -79l10 1q34 0 52 -26t10 -62q-7 -36 -36.5 -62t-63.5 -26t-52.5 26t-10.5 62q8 33 31 56zM372 624q5 21 -5.5 36.5t-29.5 15.5q-21 0 -38 -15t-22 -37t6 -37t32 -15q19 0 36 15t21 37z" />
    <glyph glyph-name="AEacute" unicode="&#x1fc;" horiz-adv-x="766" 
d="M687 44l-9 -44h-375l45 214h-246l-156 -214h-46l514 698h412l-9 -44h-333l-57 -269h289l-10 -44h-289l-63 -297h333zM133 254h224l84 395h-17zM548 907h55l-124 -148h-40z" />
    <glyph glyph-name="aeacute" unicode="&#x1fd;" horiz-adv-x="719" 
d="M719 388q0 -43 -36 -74t-94 -46.5t-105 -22t-93 -8.5q-10 -44 -10 -79q0 -127 109 -127q63 0 124 59l28 -29q-39 -38 -73.5 -53.5t-80.5 -15.5q-77 0 -117 52t-25 158q-38 -95 -92 -152.5t-111 -57.5q-54 0 -78.5 46t-24.5 112q0 121 85 228t200 107q56 0 116 -31
l-10 -42q71 74 154 74q53 0 93.5 -25.5t40.5 -72.5zM678 386q0 32 -28.5 46.5t-64.5 14.5q-69 0 -115.5 -50.5t-70.5 -132.5q35 2 77 9t90 20.5t80 38t32 54.5zM403 435q-45 18 -77 18q-68 0 -126.5 -52t-89 -122.5t-30.5 -133.5q0 -24 5 -48t21 -45.5t40 -21.5
q48 0 94.5 46.5t78.5 114t54 132t30 112.5zM469 682h55l-123 -148h-40z" />
    <glyph glyph-name="Oslashacute" unicode="&#x1fe;" horiz-adv-x="596" 
d="M585 349q-16 -73 -42 -134t-65.5 -113t-96.5 -81.5t-126 -29.5q-77 0 -133 47l-28 -40h-39l46 63q-63 99 -24 288q15 72 41.5 133.5t66 113.5t96.5 81.5t126 29.5q75 0 130 -43l25 36h39l-43 -58q66 -99 27 -293zM544 349q32 159 -16 250l-377 -521q43 -42 113 -42
q50 0 92.5 19t72 49t53 73t38 84t24.5 88zM131 104l377 520q-45 38 -111 38q-62 0 -111.5 -27.5t-81.5 -75.5t-52 -99t-33 -111q-32 -154 12 -245zM453 907h55l-124 -148h-40z" />
    <glyph glyph-name="oslashacute" unicode="&#x1ff;" horiz-adv-x="443" 
d="M362 682h54l-123 -148h-39zM433 341q0 -49 -7.5 -96t-26 -93.5t-46.5 -81.5t-73.5 -57t-101.5 -22q-61 0 -97 27l-15 -21h-31l28 38q-33 37 -33 102q0 63 13.5 121.5t42 111.5t80.5 85t120 32q58 0 96 -27l18 24h32l-32 -42q33 -38 33 -101zM274 448q-52 0 -92.5 -29
t-63 -75t-33.5 -95t-11 -98q0 -47 18 -77l261 348q-31 26 -79 26zM389 329q0 45 -19 73l-261 -348q27 -24 80 -24q52 0 92.5 29t63 75t33.5 96t11 99z" />
    <glyph glyph-name="Scommaaccent" unicode="&#x218;" horiz-adv-x="543" 
d="M509 191q-19 -93 -96.5 -146.5t-169.5 -53.5q-208 0 -208 174l42 8q3 -140 175 -140q71 0 135 41t80 117q10 46 -5.5 77t-47.5 47t-73 27.5l-81.5 24t-72 30t-47 51.5t-4.5 84q18 85 86.5 129t152.5 44q156 0 189 -131l-40 -18q-29 105 -159 105q-39 0 -75 -10.5t-69 -41
t-43 -77.5q-8 -40 8.5 -67t49 -41t73 -25t81 -24.5t71.5 -33.5t45.5 -58t2.5 -92zM268 -109l-7 -30l-77 -99h-9l27 129q3 14 14.5 24t24.5 10q16 0 23 -10t4 -24z" />
    <glyph glyph-name="scommaaccent" unicode="&#x219;" horiz-adv-x="378" 
d="M373 408l-37 -16q-27 57 -90 57q-48 0 -83.5 -25.5t-35.5 -73.5q0 -27 22 -45t53.5 -29.5t62.5 -25t53 -40t22 -65.5q0 -68 -52 -111t-125 -43q-119 0 -143 123l38 9q19 -93 108 -93q52 0 91.5 29t39.5 80q0 31 -22 51.5t-53 32t-62 24.5t-53 37t-22 61q0 64 47 102.5
t117 38.5q86 0 124 -78zM183 -109l-7 -30l-77 -99h-9l27 129q3 14 14.5 24t24.5 10q15 0 22 -10t5 -24z" />
    <glyph glyph-name="circumflex" unicode="&#x2c6;" horiz-adv-x="463" 
d="M607 681l64 -147h-48l-46 119l-94 -119h-47l126 147h45z" />
    <glyph glyph-name="caron" unicode="&#x2c7;" horiz-adv-x="439" 
d="M703 681l-128 -147h-44l-64 147h48l43 -119l96 119h49z" />
    <glyph glyph-name="breve" unicode="&#x2d8;" horiz-adv-x="457" 
d="M682 664h35q-70 -127 -165 -127q-93 0 -111 127h35q11 -44 30 -66.5t55 -22.5t64 22.5t57 66.5z" />
    <glyph glyph-name="dotaccent" unicode="&#x2d9;" horiz-adv-x="466" 
d="M611 585q-5 -18 -20.5 -32t-33.5 -14q-17 0 -26.5 14t-5.5 32q4 20 19 34t33 14q17 0 27.5 -14.5t6.5 -33.5z" />
    <glyph glyph-name="ring" unicode="&#x2da;" horiz-adv-x="453" 
d="M661 634q-7 -40 -40 -69t-70 -29q-38 0 -58 29t-12 69q8 41 41 69.5t71 28.5q37 0 57 -29t11 -69zM624 634q5 24 -6.5 41t-33.5 17t-41.5 -17t-24.5 -41t7 -41t35 -17q21 0 40.5 17t23.5 41z" />
    <glyph glyph-name="ogonek" unicode="&#x2db;" horiz-adv-x="477" 
d="M336 1l67 -198h-51l-53 198h37z" />
    <glyph glyph-name="tilde" unicode="&#x2dc;" horiz-adv-x="460" 
d="M670 612l20 -26q-42 -52 -83 -52q-28 0 -53 28.5t-45 28.5q-26 0 -56 -36l-19 26q43 51 83 51q28 0 53 -28t45 -28q28 0 55 36z" />
    <glyph glyph-name="hungarumlaut" unicode="&#x2dd;" horiz-adv-x="409" 
d="M658 691h49l-116 -147h-35zM547 691h50l-116 -147h-35z" />
    <glyph glyph-name="gravecomb" unicode="&#x300;" horiz-adv-x="284" 
d="M497 726l47 -148h-40l-61 148h54z" />
    <glyph glyph-name="acutecomb" unicode="&#x301;" horiz-adv-x="267" 
d="M512 726h55l-124 -148h-40z" />
    <glyph glyph-name="circumflexcomb" unicode="&#x302;" horiz-adv-x="463" 
d="M619 725l64 -147h-48l-46 119l-94 -119h-47l126 147h45z" />
    <glyph glyph-name="tildecomb" unicode="&#x303;" horiz-adv-x="460" 
d="M682 656l20 -26q-42 -52 -83 -52q-28 0 -53 28.5t-45 28.5q-26 0 -56 -36l-19 26q43 51 83 51q28 0 53 -28t45 -28q26 0 55 36z" />
    <glyph glyph-name="macroncomb" unicode="&#x304;" horiz-adv-x="454" 
d="M697 636l-9 -41h-244l9 41h244z" />
    <glyph glyph-name="brevecomb" unicode="&#x306;" horiz-adv-x="457" 
d="M694 708h35q-70 -127 -165 -127q-93 0 -111 127h35q11 -44 30 -66.5t55 -22.5t64 22.5t57 66.5z" />
    <glyph glyph-name="dotaccentcomb" unicode="&#x307;" horiz-adv-x="466" 
d="M623 629q-5 -18 -20.5 -32t-33.5 -14q-17 0 -26.5 14t-5.5 32q4 20 19 34t33 14q17 0 27.5 -14.5t6.5 -33.5z" />
    <glyph glyph-name="dieresiscomb" unicode="&#x308;" horiz-adv-x="448" 
d="M688 625q-3 -16 -16 -27.5t-28 -11.5q-14 0 -22.5 11.5t-4.5 27.5t17 27.5t27 11.5q15 0 23 -11.5t4 -27.5zM523 625q-4 -16 -17 -27.5t-28 -11.5q-14 0 -22 11.5t-4 27.5q3 16 16 27.5t27 11.5q15 0 23.5 -11.5t4.5 -27.5z" />
    <glyph glyph-name="Delta" unicode="&#x394;" horiz-adv-x="573" 
d="M408 680l103 -680h-495zM72 36h396l-81 546z" />
    <glyph glyph-name="Delta" unicode="&#x2206;" horiz-adv-x="573" 
d="M408 680l103 -680h-495zM72 36h396l-81 546z" />
    <glyph glyph-name="Omega" unicode="&#x3a9;" horiz-adv-x="658" 
d="M614 350q-42 -203 -187 -315h100v-35h-155l7 36q86 54 130.5 130t67.5 184q12 55 13.5 105t-9.5 98.5t-46.5 77t-93.5 28.5q-47 0 -87.5 -19.5t-69 -50.5t-52 -73t-37.5 -82.5t-23 -83.5q-24 -96 -10.5 -177.5t75.5 -136.5l-7 -36h-154l12 35h102q-97 110 -54 315
q15 68 40.5 127.5t63 110.5t92 80.5t118.5 29.5t105.5 -29.5t57.5 -80.5t16 -110.5t-15 -127.5z" />
    <glyph glyph-name="Omega" unicode="&#x2126;" horiz-adv-x="658" 
d="M614 350q-42 -203 -187 -315h100v-35h-155l7 36q86 54 130.5 130t67.5 184q12 55 13.5 105t-9.5 98.5t-46.5 77t-93.5 28.5q-47 0 -87.5 -19.5t-69 -50.5t-52 -73t-37.5 -82.5t-23 -83.5q-24 -96 -10.5 -177.5t75.5 -136.5l-7 -36h-154l12 35h102q-97 110 -54 315
q15 68 40.5 127.5t63 110.5t92 80.5t118.5 29.5t105.5 -29.5t57.5 -80.5t16 -110.5t-15 -127.5z" />
    <glyph glyph-name="pi" unicode="&#x3c0;" horiz-adv-x="538" 
d="M469 38l-7 -38h-13q-87 0 -64 109l72 334h-257l-94 -443h-36l102 480h328l-78 -370q-9 -41 1 -55.5t46 -16.5z" />
    <glyph glyph-name="Wgrave" unicode="&#x1e80;" horiz-adv-x="664" 
d="M722 698h42l-298 -698h-48l-3 616l-265 -616h-48l-2 698h43v-622l268 622h42l4 -622zM409 903l47 -148h-40l-61 148h54z" />
    <glyph glyph-name="wgrave" unicode="&#x1e81;" horiz-adv-x="711" 
d="M718 480h43l-252 -480h-47l-60 426l-237 -426h-46l-49 480h45l39 -429l239 429h44l58 -429zM396 682l46 -148h-40l-60 148h54z" />
    <glyph glyph-name="Wacute" unicode="&#x1e82;" horiz-adv-x="664" 
d="M722 698h42l-298 -698h-48l-3 616l-265 -616h-48l-2 698h43v-622l268 622h42l4 -622zM537 903h54l-123 -148h-40z" />
    <glyph glyph-name="wacute" unicode="&#x1e83;" horiz-adv-x="711" 
d="M718 480h43l-252 -480h-47l-60 426l-237 -426h-46l-49 480h45l39 -429l239 429h44l58 -429zM512 682h54l-123 -148h-40z" />
    <glyph glyph-name="Wdieresis" unicode="&#x1e84;" horiz-adv-x="664" 
d="M722 698h42l-298 -698h-48l-3 616l-265 -616h-48l-2 698h43v-622l268 622h42l4 -622zM572 802q-4 -17 -16.5 -28t-27.5 -11q-14 0 -22.5 11.5t-4.5 27.5q3 16 16 27.5t28 11.5t23 -11.5t4 -27.5zM407 802q-4 -16 -17 -27.5t-28 -11.5q-14 0 -22 11.5t-5 27.5
q4 16 16.5 27.5t26.5 11.5q15 0 23.5 -11.5t5.5 -27.5z" />
    <glyph glyph-name="wdieresis" unicode="&#x1e85;" horiz-adv-x="711" 
d="M718 480h43l-252 -480h-47l-60 426l-237 -426h-46l-49 480h45l39 -429l239 429h44l58 -429zM555 581q-4 -17 -16.5 -28t-27.5 -11q-14 0 -22.5 11.5t-4.5 27.5q3 16 16 27.5t27 11.5q15 0 23 -11.5t5 -27.5zM389 581q-3 -16 -16 -27.5t-28 -11.5t-23 11.5t-4 27.5
t16.5 27.5t26.5 11.5q15 0 23.5 -11.5t4.5 -27.5z" />
    <glyph glyph-name="Ygrave" unicode="&#x1ef2;" horiz-adv-x="437" 
d="M520 698h47l-312 -467l-49 -231h-41l49 231l-114 467h47l98 -415zM346 903l47 -148h-40l-60 148h53z" />
    <glyph glyph-name="ygrave" unicode="&#x1ef3;" horiz-adv-x="435" 
d="M437 480h48l-357 -603q-59 -98 -156 -97h-12l9 38q37 0 64 15.5t38.5 31t31.5 49.5l60 100l-74 466h46l59 -416zM300 682l46 -148h-40l-60 148h54z" />
    <glyph glyph-name="endash" unicode="&#x2013;" horiz-adv-x="514" 
d="M439 293l-7 -40h-372l8 40h371z" />
    <glyph glyph-name="emdash" unicode="&#x2014;" horiz-adv-x="787" 
d="M698 293l-8 -40h-630l8 40h630z" />
    <glyph glyph-name="quoteleft" unicode="&#x2018;" horiz-adv-x="215" 
d="M294 727h9l-37 -149q-4 -15 -16.5 -26t-26.5 -11q-13 0 -20.5 11t-3.5 25l16 46z" />
    <glyph glyph-name="quoteright" unicode="&#x2019;" horiz-adv-x="215" 
d="M287 699l-15 -45l-81 -105l-8 1l37 148q4 16 15.5 26.5t25.5 10.5t22 -10.5t4 -25.5z" />
    <glyph glyph-name="quotesinglbase" unicode="&#x201a;" horiz-adv-x="215" 
d="M156 57l-15 -46l-79 -104h-9l35 149q5 15 16.5 25.5t24.5 10.5q15 0 23 -10.5t4 -24.5z" />
    <glyph glyph-name="quotedblleft" unicode="&#x201c;" horiz-adv-x="340" 
d="M432 727l-38 -149q-4 -15 -16 -26t-26 -11q-13 0 -21 11t-4 25l17 46l79 104h9zM288 727l-37 -149q-4 -15 -16.5 -26t-25.5 -11q-14 0 -21.5 11t-3.5 25l16 46l79 104h9z" />
    <glyph glyph-name="quotedblright" unicode="&#x201d;" horiz-adv-x="340" 
d="M176 541l37 149q4 15 16.5 26t25.5 11q14 0 21.5 -11t3.5 -25l-15 -46l-80 -104h-9zM319 541l38 149q4 15 16 26t26 11q13 0 21 -11t4 -25l-16 -46l-80 -104h-9z" />
    <glyph glyph-name="quotedblbase" unicode="&#x201e;" horiz-adv-x="340" 
d="M38 -109l37 149q4 15 16.5 26t25.5 11q14 0 21.5 -11t3.5 -25l-16 -46l-79 -104h-9zM181 -109l38 149q4 15 16 26t26 11q13 0 21 -11t4 -25l-17 -46l-79 -104h-9z" />
    <glyph glyph-name="dagger" unicode="&#x2020;" horiz-adv-x="573" 
d="M548 503l-8 -39h-162l-98 -464h-35l98 464h-162l9 39h162l41 195h35l-42 -195h162z" />
    <glyph glyph-name="daggerdbl" unicode="&#x2021;" horiz-adv-x="589" 
d="M509 60l-8 -38h-162l-48 -223h-34l47 223h-162l8 38h162l80 377h-162l8 38h162l47 223h35l-48 -223h163l-8 -38h-162l-81 -377h163z" />
    <glyph glyph-name="bullet" unicode="&#x2022;" horiz-adv-x="506" 
d="M404 337q0 -62 -43.5 -106t-106.5 -44q-62 0 -106.5 44t-44.5 106t44.5 106.5t106.5 44.5q63 0 106.5 -44t43.5 -107z" />
    <glyph glyph-name="ellipsis" unicode="&#x2026;" horiz-adv-x="431" 
d="M370 33q-4 -18 -17.5 -29.5t-29.5 -11.5t-24.5 12t-4.5 29q3 16 17 28.5t29 12.5q16 0 24.5 -12t5.5 -29zM234 33q-4 -18 -18 -29.5t-29 -11.5q-16 0 -24.5 11.5t-4.5 29.5q3 17 16.5 29t29.5 12q15 0 24 -12.5t6 -28.5zM98 33q-4 -18 -17.5 -29.5t-30.5 -11.5
q-15 0 -23.5 11.5t-4.5 29.5q3 16 16.5 28.5t28.5 12.5q16 0 25 -12t6 -29z" />
    <glyph glyph-name="perthousand" unicode="&#x2030;" horiz-adv-x="1020" 
d="M934 182q-17 -82 -59 -137t-109 -55q-86 0 -93 97q-49 -97 -133 -97q-46 0 -70.5 28.5t-25 71t8.5 92.5q18 83 59.5 138t109.5 55q83 0 92 -97q49 97 134 97q46 0 70 -28.5t24.5 -71.5t-8.5 -93zM630 698h36l-427 -698h-36zM416 516q-18 -83 -59.5 -138t-108.5 -55
q-46 0 -70.5 28.5t-25 71t8.5 93.5q17 82 59 137t109 55q46 0 70 -28.5t24.5 -71t-7.5 -92.5zM905 182q33 161 -65 161t-132 -161q-34 -160 65 -160q98 0 132 160zM679 182q34 161 -65 161t-132 -161q-34 -160 65 -160q98 0 132 160zM387 516q34 160 -64 160
q-99 0 -133 -160q-6 -28 -8 -52.5t2 -51t22 -42t48 -15.5q97 0 133 161z" />
    <glyph glyph-name="guilsinglleft" unicode="&#x2039;" horiz-adv-x="315" 
d="M116 279l229 187l-12 -52l-193 -157l126 -158l-11 -52l-148 187z" />
    <glyph glyph-name="guilsinglright" unicode="&#x203a;" horiz-adv-x="314" 
d="M296 279l-9 -45l-227 -187l10 52l193 158l-126 157l12 52z" />
    <glyph glyph-name="fraction" unicode="&#x2044;" horiz-adv-x="113" 
d="M317 698h31l-438 -698h-31z" />
    <glyph glyph-name="fraction" unicode="&#x2215;" horiz-adv-x="113" 
d="M317 698h31l-438 -698h-31z" />
    <glyph glyph-name="zerosuperior" unicode="&#x2070;" horiz-adv-x="366" 
d="M354 482q-12 -57 -32 -104t-60 -84.5t-91 -37.5t-76 36.5t-23.5 86.5t10.5 103q9 41 23 77.5t36 71.5t54 55.5t71 20.5t62.5 -20.5t30.5 -55t5.5 -71.5t-10.5 -78zM328 482q7 32 9.5 62t-1 63t-22.5 53.5t-53 20.5q-28 0 -52 -14.5t-40 -35t-29 -49t-20 -52t-12 -48.5
q-7 -33 -9.5 -62.5t1 -63.5t22.5 -54t54 -20t63 20.5t45 54t27.5 63.5t16.5 62z" />
    <glyph glyph-name="foursuperior" unicode="&#x2074;" horiz-adv-x="310" 
d="M309 403l-5 -26h-41l-24 -117h-25l25 117h-200l6 29l238 297h27l-239 -300h173l39 181l24 -4l-38 -177h40z" />
    <glyph glyph-name="fivesuperior" unicode="&#x2075;" horiz-adv-x="330" 
d="M314 407q-15 -68 -58.5 -109.5t-105.5 -41.5q-40 0 -66.5 21.5t-30.5 59.5l25 9q4 -31 25 -47.5t53 -16.5q51 0 86 35.5t46 89.5q12 53 -8 87.5t-71 34.5q-45 0 -87 -33h-26l44 207h208l-5 -25h-185l-34 -157q45 33 92 33q61 0 86.5 -40.5t11.5 -106.5z" />
    <glyph glyph-name="sixsuperior" unicode="&#x2076;" horiz-adv-x="329" 
d="M320 392q-12 -59 -56 -97.5t-99 -38.5q-60 0 -87 44t-12 109q18 86 74.5 165t133.5 129h32q-137 -90 -201 -242q50 72 120 72q56 0 82 -40.5t13 -100.5zM295 392q11 49 -10.5 82t-66.5 33q-42 0 -80 -34t-48 -80q-10 -45 14.5 -78t66.5 -33q43 0 78.5 31.5t45.5 78.5z
" />
    <glyph glyph-name="sevensuperior" unicode="&#x2077;" horiz-adv-x="293" 
d="M345 703l-5 -25q-83 -86 -141.5 -184.5t-84.5 -233.5h-30q50 235 226 417h-190l-7 -38h-24l13 64h243z" />
    <glyph glyph-name="eightsuperior" unicode="&#x2078;" horiz-adv-x="339" 
d="M310 382q-12 -57 -56 -91.5t-99 -34.5t-83.5 34.5t-16.5 91.5q18 85 100 112q-29 13 -39.5 41t-3.5 59q11 50 51 81.5t89 31.5q48 0 74.5 -31.5t15.5 -81.5q-14 -73 -84 -100q70 -27 52 -112zM316 593q9 39 -12.5 64t-57.5 25t-68 -25t-41 -64q-9 -42 12 -65t60 -23
t68.5 23t38.5 65zM284 382q9 47 -14 73.5t-66 26.5q-45 0 -78.5 -26t-44.5 -74q-9 -45 14.5 -72.5t66.5 -27.5q41 0 77 28t45 72z" />
    <glyph glyph-name="ninesuperior" unicode="&#x2079;" horiz-adv-x="321" 
d="M329 555q-18 -83 -72.5 -162.5t-133.5 -132.5h-32q147 104 198 242q-46 -64 -113 -64q-53 0 -80 38.5t-15 95.5q12 56 56 96t97 40q59 0 84 -44t11 -109zM305 573q9 44 -13 76t-64 32q-41 0 -77 -32.5t-45 -75.5q-9 -44 13 -76.5t63 -32.5q44 0 78.5 31.5t44.5 77.5z" />
    <glyph glyph-name="zeroinferior" unicode="&#x2080;" horiz-adv-x="366" 
d="M354 222q-12 -57 -32 -104t-60 -84.5t-91 -37.5t-76 36.5t-23.5 86.5t10.5 103q9 41 23 77.5t36 71.5t54 55.5t71 20.5t62.5 -20.5t30.5 -55t5.5 -71.5t-10.5 -78zM328 222q7 32 9.5 62t-1 63t-22.5 53.5t-53 20.5q-28 0 -52 -14.5t-40 -35t-29 -49t-20 -52t-12 -48.5
q-7 -33 -9.5 -62.5t1 -63.5t22.5 -54t54 -20t63 20.5t45 54t27.5 63.5t16.5 62z" />
    <glyph glyph-name="oneinferior" unicode="&#x2081;" horiz-adv-x="201" 
d="M217 443l-94 -443h-27l86 407l-83 -55l-9 20l104 71h23z" />
    <glyph glyph-name="twoinferior" unicode="&#x2082;" horiz-adv-x="343" 
d="M296 27l-5 -27h-252l4 23q25 55 61 96.5t70 64.5l65.5 44t54.5 46.5t30 58.5q9 42 -14 65.5t-63 23.5q-61 0 -104 -59l-19 14q51 71 128 71q54 0 82 -30.5t17 -85.5q-8 -37 -32 -66t-56 -50.5l-65.5 -44t-67.5 -59.5t-56 -85h222z" />
    <glyph glyph-name="threeinferior" unicode="&#x2083;" horiz-adv-x="330" 
d="M299 122q-12 -58 -55 -92t-97 -34q-89 0 -100 80l26 9q5 -31 26.5 -47t52.5 -16q42 0 76.5 27.5t44.5 72.5q10 49 -13.5 73.5t-68.5 24.5l4 22q92 3 112 90q8 39 -14.5 65t-58.5 26q-28 0 -55 -16t-44 -43l-21 10q47 74 127 74q49 0 75.5 -32t15.5 -84q-15 -75 -86 -100
q71 -26 53 -110z" />
    <glyph glyph-name="fourinferior" unicode="&#x2084;" horiz-adv-x="310" 
d="M309 143l-5 -26h-41l-24 -117h-25l25 117h-200l6 29l238 297h27l-239 -300h173l39 181l24 -4l-38 -177h40z" />
    <glyph glyph-name="fiveinferior" unicode="&#x2085;" horiz-adv-x="330" 
d="M314 147q-15 -68 -58.5 -109.5t-105.5 -41.5q-40 0 -66.5 21.5t-30.5 59.5l25 9q4 -31 25 -47.5t53 -16.5q51 0 86 35.5t46 89.5q12 53 -8 87.5t-71 34.5q-45 0 -87 -33h-26l44 207h208l-5 -25h-185l-34 -157q45 33 92 33q61 0 86.5 -40.5t11.5 -106.5z" />
    <glyph glyph-name="sixinferior" unicode="&#x2086;" horiz-adv-x="329" 
d="M320 132q-12 -59 -56 -97.5t-99 -38.5q-60 0 -87 44t-12 109q18 86 74.5 165t133.5 129h32q-137 -90 -201 -242q50 72 120 72q56 0 82 -40.5t13 -100.5zM295 132q11 49 -10.5 82t-66.5 33q-42 0 -80 -34t-48 -80q-10 -45 14.5 -78t66.5 -33q43 0 78.5 31.5t45.5 78.5z
" />
    <glyph glyph-name="seveninferior" unicode="&#x2087;" horiz-adv-x="293" 
d="M345 443l-5 -25q-83 -86 -141.5 -184.5t-84.5 -233.5h-30q50 235 226 417h-190l-7 -38h-24l13 64h243z" />
    <glyph glyph-name="eightinferior" unicode="&#x2088;" horiz-adv-x="339" 
d="M310 122q-12 -57 -56 -91.5t-99 -34.5t-83.5 34.5t-16.5 91.5q18 85 100 112q-29 13 -39.5 41t-3.5 59q11 50 51 81.5t89 31.5q48 0 74.5 -31.5t15.5 -81.5q-14 -73 -84 -100q70 -27 52 -112zM316 333q9 39 -12.5 64t-57.5 25t-68 -25t-41 -64q-9 -42 12 -65t60 -23
t68.5 23t38.5 65zM284 122q9 47 -14 73.5t-66 26.5q-45 0 -78.5 -26t-44.5 -74q-9 -45 14.5 -72.5t66.5 -27.5q41 0 77 28t45 72z" />
    <glyph glyph-name="nineinferior" unicode="&#x2089;" horiz-adv-x="321" 
d="M329 295q-18 -83 -72.5 -162.5t-133.5 -132.5h-32q147 104 198 242q-46 -64 -113 -64q-53 0 -80 38.5t-15 95.5q12 56 56 96t97 40q59 0 84 -44t11 -109zM305 313q9 44 -13 76t-64 32q-41 0 -77 -32.5t-45 -75.5q-9 -44 13 -76.5t63 -32.5q44 0 78.5 31.5t44.5 77.5z" />
    <glyph glyph-name="colonmonetary" unicode="&#x20a1;" horiz-adv-x="494" 
d="M300 -1l-15 -74h-31l14 68q-18 -2 -28 -2q-17 0 -32 3l-14 -69h-30l15 75q-59 17 -89 70t-29.5 124t16.5 155q27 133 90 228.5t160 120.5l17 76h30l-15 -70q17 3 33 3q11 0 27 -2l15 69h31l-17 -75q61 -18 100 -94l-37 -32q-24 46 -53 67.5t-75 21.5q-57 0 -103.5 -27.5
t-77 -75t-50.5 -99t-32 -111.5q-13 -60 -15.5 -111.5t8 -99t45 -75t91.5 -27.5q47 0 85 22t83 69l24 -32q-72 -78 -141 -96z" />
    <glyph glyph-name="franc" unicode="&#x20a3;" horiz-adv-x="435" 
d="M250 243l-8 -37h-132l-43 -206h-42l43 206h-68l9 37h68l96 455h331l-9 -44h-290l-57 -271h252l-9 -41h-252l-20 -99h131z" />
    <glyph glyph-name="lira" unicode="&#x20a4;" horiz-adv-x="484" 
d="M131 270h-78l13 33h68v29.5t1 29.5h-63l14 33h49q2 66 11 107q18 88 75.5 144t137.5 56q56 0 88.5 -18.5t60.5 -62.5l-37 -27q-22 35 -49 51t-72 16q-65 0 -107.5 -45.5t-56.5 -114.5q-10 -40 -12 -106h126l-14 -33h-113q0 -50 -1 -59h108l-13 -33h-97q-2 -37 -8 -62
q-15 -72 -71 -167h292l-8 -41h-340l7 38q62 90 79 167q8 29 10 65z" />
    <glyph glyph-name="peseta" unicode="&#x20a7;" horiz-adv-x="526" 
d="M556 527h51l-8 -36h-51q-45 -171 -246 -171h-129l-67 -320h-41l104 491h-60l8 36h60l36 171h169q94 0 141 -40.5t33 -130.5zM183 361h127q157 0 197 130h-297zM372 654h-127l-27 -128h295q10 72 -29 100t-112 28z" />
    <glyph glyph-name="Euro" unicode="&#x20ac;" horiz-adv-x="536" 
d="M450 94l18 -35q-80 -68 -174 -68q-101 0 -151.5 68.5t-44.5 184.5h-68l15 36h55q9 50 22 105h-62l15 36h58q39 127 119 206.5t194 79.5q94 0 145 -67l-33 -35q-44 57 -122 57q-94 0 -160.5 -66t-100.5 -175h234l-15 -36h-231q-15 -67 -20 -105h235l-14 -36h-224
q-3 -97 38.5 -152.5t124.5 -55.5q79 0 147 58z" />
    <glyph glyph-name="trademark" unicode="&#x2122;" horiz-adv-x="476" 
d="M440 698l-44 -210h-21l34 159l-91 -159h-22l-23 159l-34 -159h-20l44 210h22l28 -183l105 183h22zM235 698l-5 -23h-62l-39 -187h-21l39 187h-62l5 23h145z" />
    <glyph glyph-name="partialdiff" unicode="&#x2202;" horiz-adv-x="555" 
d="M483 203q-18 -85 -83 -146t-143 -61t-117 59.5t-20 148.5q19 86 79 146t142 60q83 0 127 -93q6 50 7 98t-3.5 109t-28 99t-63.5 38q-56 0 -116 -60l-22 27q76 74 146 74q60 0 91 -57t31.5 -145.5t-7 -160t-20.5 -136.5zM445 204q14 66 -17.5 116.5t-94.5 50.5
q-66 0 -114 -50t-62 -117q-15 -71 15 -120t93 -49t114.5 51t65.5 118z" />
    <glyph glyph-name="product" unicode="&#x220f;" horiz-adv-x="672" 
d="M716 744l-199 -940h-36l192 903h-338l-192 -903h-36l199 940h410z" />
    <glyph glyph-name="summation" unicode="&#x2211;" horiz-adv-x="531" 
d="M442 -181l-8 -38h-370l9 42l340 416l-163 418l9 41h370l-9 -38h-328l164 -421l-343 -420h329z" />
    <glyph glyph-name="minus" unicode="&#x2212;" horiz-adv-x="501" 
d="M433 302l-12 -57h-367l12 57h367z" />
    <glyph glyph-name="radical" unicode="&#x221a;" horiz-adv-x="594" 
d="M663 694l-9 -38h-90l-313 -656h-40l-76 474h38l68 -424l305 644h117z" />
    <glyph glyph-name="infinity" unicode="&#x221e;" horiz-adv-x="778" 
d="M700 252q-12 -57 -54.5 -93t-93.5 -36q-73 0 -166 111q-139 -111 -212 -111q-54 0 -79.5 41t-11.5 103q12 56 54.5 92t93.5 36q75 0 166 -111q137 111 212 111q54 0 79.5 -40.5t11.5 -102.5zM664 253q10 44 -7 73t-56 29q-64 0 -180 -96q78 -96 139 -96q36 0 65.5 24
t38.5 66zM364 259q-81 96 -141 96q-36 0 -66 -23.5t-39 -65.5q-9 -45 8 -74t56 -29q59 0 182 96z" />
    <glyph glyph-name="integral" unicode="&#x222b;" horiz-adv-x="323" 
d="M454 698l-9 -37h-35q-61 0 -76 -70l-145 -678q-23 -109 -112 -109h-42l8 39h34q35 0 52 17.5t24 52.5l144 678q24 107 115 107h42z" />
    <glyph glyph-name="approxequal" unicode="&#x2248;" horiz-adv-x="481" 
d="M442 377l19 -24q-50 -44 -100 -44q-35 0 -91 25t-91 25q-34 0 -70 -31l-18 24q49 45 100 45q35 0 90.5 -25t89.5 -25q38 0 71 30zM408 217l19 -24q-49 -45 -100 -45q-34 0 -90.5 25t-91.5 25q-36 0 -70 -31l-19 24q50 46 102 46q35 0 90 -25t89 -25q36 0 71 30z" />
    <glyph glyph-name="notequal" unicode="&#x2260;" horiz-adv-x="510" 
d="M462 179l-9 -41h-212l-56 -104l-22 9l52 95h-135l9 41h149l81 149h-199l9 40h212l56 105l22 -9l-51 -96h134l-8 -40h-148l-82 -149h198z" />
    <glyph glyph-name="lessequal" unicode="&#x2264;" horiz-adv-x="465" 
d="M423 124l-10 -43l-302 167l10 49l374 167l-9 -43l-332 -148zM404 40l-8 -40h-337l8 40h337z" />
    <glyph glyph-name="greaterequal" unicode="&#x2265;" horiz-adv-x="468" 
d="M459 297l-11 -49l-372 -167l9 43l332 149l-269 148l9 43zM404 40l-8 -40h-337l8 40h337z" />
    <glyph glyph-name="lozenge" unicode="&#x25ca;" horiz-adv-x="578" 
d="M421 680l122 -335l-264 -336l-122 336zM292 72l215 273l-100 272l-214 -272z" />
    <glyph glyph-name="CR" horiz-adv-x="264" 
 />
    <glyph glyph-name="Imacron" horiz-adv-x="165" 
d="M225 698l-148 -698h-42l148 698h42zM350 813l-9 -41h-244l9 41h244z" />
    <glyph glyph-name="ibreve" horiz-adv-x="230" 
d="M152 480h43l-111 -480h-43zM303 664h35q-70 -127 -165 -127q-93 0 -111 127h35q11 -44 30 -66.5t55 -22.5t64 22.5t57 66.5z" />
    <glyph glyph-name="zerooldstyle" horiz-adv-x="516" 
d="M496 243q-25 -116 -92 -182t-173 -66t-146 66t-15 182q24 115 91.5 181t174.5 66q106 0 145 -65.5t15 -181.5zM457 243q20 95 -11 151.5t-118 56.5q-89 0 -143 -56.5t-74 -151.5q-21 -96 9.5 -152.5t119.5 -56.5q87 0 141.5 56.5t75.5 152.5z" />
    <glyph glyph-name="oneoldstyle" horiz-adv-x="391" 
d="M332 480l-102 -480h-40l89 420l-160 -86l-12 36l206 110h19z" />
    <glyph glyph-name="twooldstyle" horiz-adv-x="552" 
d="M432 42l-9 -42h-384l7 35q30 61 80.5 103t101 63t98.5 38.5t82 41.5t41 60q12 55 -21.5 81.5t-93.5 26.5q-48 0 -95.5 -23t-78.5 -66l-30 19q37 53 92.5 81.5t115.5 29.5q83 1 126.5 -34.5t26.5 -114.5q-9 -44 -41.5 -73.5t-78 -47.5l-94 -36.5t-100 -54t-85.5 -87.5h340
z" />
    <glyph glyph-name="threeoldstyle" horiz-adv-x="508" 
d="M397 -15q-19 -89 -85.5 -143t-152.5 -54q-64 0 -105.5 30t-51.5 87l39 23q9 -48 43 -73t83 -25q66 0 120 42.5t69 112.5q16 77 -21 114t-109 40l7 32q148 6 176 138q12 61 -23 101.5t-92 40.5q-45 0 -87 -24.5t-68 -66.5l-30 22q76 109 196 109q78 0 119 -50.5t24 -131.5
q-24 -110 -133 -153q110 -40 82 -171z" />
    <glyph glyph-name="fouroldstyle" horiz-adv-x="504" 
d="M457 52l-8 -42h-63l-41 -192h-38l40 192h-315l10 47l375 468h42l-377 -473h273l61 286l38 -7l-60 -279h63z" />
    <glyph glyph-name="fiveoldstyle" horiz-adv-x="531" 
d="M449 19q-22 -106 -91 -170.5t-167 -64.5q-61 0 -101.5 32t-50.5 89l40 17q8 -46 41 -71t81 -25q80 0 134.5 54t72.5 139q18 84 -13.5 137.5t-110.5 53.5q-72 0 -137 -53h-41l69 324h328l-9 -40h-292l-53 -248q78 57 144 57q97 0 137.5 -63t18.5 -168z" />
    <glyph glyph-name="sixoldstyle" horiz-adv-x="480" 
d="M462 207q-19 -93 -88.5 -153t-155.5 -60q-95 0 -136 69t-19 173q29 138 117 260t211 205l17 -27q-199 -141 -286 -359q78 114 190 114q88 0 129.5 -63t20.5 -159zM423 208q16 76 -18 128t-104 52q-66 0 -125.5 -52.5t-74.5 -124.5q-16 -72 22 -123.5t104 -51.5
q67 0 123.5 49.5t72.5 122.5z" />
    <glyph glyph-name="sevenoldstyle" horiz-adv-x="454" 
d="M484 481l-9 -40q-62 -64 -110 -124t-99.5 -141.5t-90 -181t-60.5 -211.5l-42 18q45 204 137 356t219 282h-300l-12 -59h-37l21 101h383z" />
    <glyph glyph-name="eightoldstyle" horiz-adv-x="504" 
d="M448 193q-19 -90 -88 -145t-155 -55q-87 0 -132.5 54.5t-26.5 145.5q28 130 158 176q-47 20 -63 64t-5 92q17 80 80 130t140 50t118.5 -50t24.5 -130q-11 -49 -44 -92t-90 -64q111 -43 83 -176zM458 524q13 62 -20 101.5t-90 39.5q-58 0 -108.5 -39.5t-63.5 -101.5
q-14 -66 18.5 -102.5t93.5 -36.5q62 0 109 36.5t61 102.5zM407 193q15 74 -21.5 115t-105.5 41q-70 0 -123 -40.5t-69 -115.5q-15 -70 22.5 -114t103.5 -44t122 44t71 114z" />
    <glyph glyph-name="nineoldstyle" horiz-adv-x="489" 
d="M451 249q-29 -135 -112.5 -259t-210.5 -208l-19 28q204 138 278 352q-72 -98 -177 -98q-83 0 -125.5 60.5t-23.5 150.5q19 89 88.5 151.5t152.5 62.5q93 0 132 -69t17 -171zM414 277q14 70 -21.5 120.5t-100.5 50.5t-121.5 -51.5t-70.5 -120.5q-15 -69 20 -120t100 -51
q69 0 123.5 49.5t70.5 122.5z" />
    <glyph glyph-name="zero.fitted" 
d="M408 349q-11 -50 -25.5 -97t-37 -95.5t-49 -83.5t-62 -57.5t-75.5 -22.5q-50 0 -79 32.5t-36 87.5t-3 113t18 123t34.5 123t50.5 113t72.5 87t92.5 32t79 -32.5t35.5 -87t2.5 -112.5t-18 -123zM365 349q11 51 16 98t3.5 99.5t-22.5 84.5t-62 32q-33 0 -62.5 -22.5
t-50 -55t-38.5 -78t-28 -82t-19 -76.5q-8 -40 -13.5 -76t-7 -82t5.5 -78.5t27 -55.5t53 -23q41 0 76 32t58.5 85t38.5 100t25 98z" />
    <glyph glyph-name="one.fitted" 
d="M11 0l9 44h133l127 598l-131 -89l-14 33l163 112h35l-139 -654h134l-9 -44h-308z" />
    <glyph glyph-name="two.fitted" 
d="M358 42l-9 -42h-339l7 35q29 72 69 129.5t78.5 92l78.5 67.5l72 58t56.5 62t34.5 81q14 66 -15 102.5t-82 36.5q-35 0 -72.5 -24.5t-66.5 -68.5l-29 21q75 114 178 114q73 0 109 -48.5t18 -133.5q-12 -57 -45.5 -102.5t-77 -80.5l-89.5 -72t-93 -95.5t-78 -131.5h295z
" />
    <glyph glyph-name="three.fitted" 
d="M380 192q-20 -91 -81.5 -145t-137.5 -54q-125 0 -138 125l40 17q5 -49 33.5 -74.5t71.5 -25.5q58 0 106.5 43.5t63.5 113.5q16 76 -17 115t-98 41l8 33q60 2 104.5 37t59.5 105q14 66 -11.5 103.5t-85.5 37.5q-39 0 -76.5 -24.5t-61.5 -67.5l-32 17q33 57 80 87t100 30
q82 0 112.5 -52t13.5 -131q-11 -53 -45 -95t-79 -63q45 -21 64 -66t6 -107z" />
    <glyph glyph-name="four.fitted" 
d="M398 226l-8 -42h-51l-39 -184h-36l39 184h-259l10 46l324 468h41l-328 -472h220l61 285l35 -7l-60 -278h51z" />
    <glyph glyph-name="five.fitted" 
d="M382 231q-22 -106 -83.5 -171.5t-144.5 -65.5q-56 0 -91 33t-40 94l39 15q5 -49 32 -75t69 -26q66 0 114.5 55.5t65.5 140.5q18 84 -6 138.5t-91 54.5q-60 0 -118 -53h-38l70 327h284l-9 -41h-250l-51 -243q61 50 121 50q84 0 116.5 -64t10.5 -169z" />
    <glyph glyph-name="six.fitted" 
d="M398 207q-20 -93 -80 -153t-132 -60q-79 0 -112.5 68.5t-10.5 171.5q28 134 106.5 258.5t182.5 205.5h45q-184 -144 -269 -368q63 99 152 99q73 0 105.5 -63t12.5 -159zM359 208q17 76 -8 128t-82 52q-54 0 -104.5 -52.5t-65.5 -124.5q-15 -71 14 -123t82 -52
q54 0 101.5 49.5t62.5 122.5z" />
    <glyph glyph-name="seven.fitted" 
d="M481 698l-9 -40q-122 -137 -209 -292t-130 -366h-42q44 208 131.5 365t206.5 291h-277l-12 -59h-35l21 101h355z" />
    <glyph glyph-name="eight.fitted" 
d="M378 193q-20 -90 -81 -145t-134 -55t-111.5 55t-18.5 145q12 57 48.5 104.5t93.5 71.5q-38 21 -52 65.5t-4 90.5q18 80 74 130t121 50q64 0 99.5 -50.5t18.5 -129.5q-10 -45 -42.5 -89t-80.5 -67q48 -24 65 -71t4 -105zM394 524q14 61 -13.5 101t-75.5 40
q-46 0 -90.5 -40t-57.5 -101q-14 -65 12.5 -102t76.5 -37q51 0 92.5 37t55.5 102zM339 193q16 73 -14.5 114.5t-86.5 41.5q-57 0 -104 -41t-63 -115q-14 -69 16.5 -113.5t83.5 -44.5q55 0 104 44t64 114z" />
    <glyph glyph-name="nine.fitted" 
d="M404 464q-28 -129 -106 -254.5t-187 -209.5h-46q193 153 274 370q-65 -90 -149 -90q-72 0 -107 61t-15 151q18 89 79.5 151t133.5 62q80 0 112.5 -69.5t10.5 -171.5zM369 492q14 69 -14 120t-82 51q-55 0 -104 -51t-64 -121q-14 -69 13.5 -120t81.5 -51q57 0 105.5 49.5
t63.5 122.5z" />
    <glyph glyph-name="zero.taboldstyle" 
d="M403 243q-25 -116 -82.5 -182t-142.5 -66t-115 66t-5 182q24 115 81.5 181t143.5 66q85 0 114.5 -66t5.5 -181zM364 243q22 89 0.5 148.5t-89.5 59.5t-112.5 -56.5t-65.5 -151.5q-22 -90 -0.5 -149.5t89.5 -59.5t113 57t65 152z" />
    <glyph glyph-name="one.taboldstyle" 
d="M25 0l9 44h133l81 382l-133 -89l-12 31l162 112h35l-92 -436h133l-9 -44h-307z" />
    <glyph glyph-name="two.taboldstyle" 
d="M372 42l-9 -42h-345l7 35q27 60 72.5 102.5t91.5 64t89 39.5t74 42t38 58q13 55 -16 81.5t-81 26.5q-43 0 -85 -23t-71 -67l-30 20q34 53 85 81.5t106 29.5q74 1 112.5 -34.5t21.5 -114.5q-9 -43 -41.5 -73t-76 -49.5l-88.5 -39t-88 -54.5t-67 -83h301z" />
    <glyph glyph-name="three.taboldstyle" horiz-adv-x="446" 
d="M371 -15q-20 -91 -81 -144t-138 -53q-125 0 -138 125l40 17q5 -49 33.5 -74.5t72.5 -25.5q57 0 105.5 42.5t64.5 112.5q16 76 -17.5 113.5t-99.5 39.5l7 33q62 2 106 35.5t59 102.5q14 66 -12 103t-86 37q-38 0 -76 -24.5t-63 -67.5l-31 17q33 57 80.5 87t100.5 30
q81 0 112 -51.5t14 -130.5q-11 -52 -45 -92.5t-80 -61.5q98 -45 72 -170z" />
    <glyph glyph-name="four.taboldstyle" 
d="M394 52l-9 -42h-51l-40 -192h-36l40 192h-259l10 46l324 468h41l-327 -472h220l61 285l34 -7l-59 -278h51z" />
    <glyph glyph-name="five.taboldstyle" 
d="M380 19q-23 -106 -84 -170.5t-145 -64.5q-55 0 -90 33.5t-40 94.5l39 14q5 -48 32 -74t69 -26q67 0 114.5 54t65.5 139q17 83 -7.5 137t-91.5 54q-59 0 -117 -53h-38l69 323h284l-9 -40h-250l-50 -240q61 50 120 50q84 0 117.5 -63.5t11.5 -167.5z" />
    <glyph glyph-name="six.taboldstyle" 
d="M398 207q-19 -92 -80 -152.5t-133 -60.5q-80 0 -112.5 69t-10.5 173q30 138 108 260.5t186 206.5l16 -26q-166 -137 -245 -347q61 99 153 99q73 0 105.5 -63t12.5 -159zM359 208q16 77 -9 128.5t-82 51.5q-54 0 -104 -52t-65 -125q-16 -72 12.5 -123.5t82.5 -51.5
q55 0 102 49.5t63 122.5z" />
    <glyph glyph-name="seven.taboldstyle" 
d="M425 480l-9 -39q-57 -65 -101 -124.5t-92.5 -141.5t-85.5 -181.5t-60 -211.5l-39 16q29 138 86.5 264t115 208t133.5 169h-277l-12 -60h-35l21 101h355z" />
    <glyph glyph-name="eight.taboldstyle" 
d="M373 193q-19 -90 -80.5 -145t-134.5 -55t-111 55t-19 145q13 57 49.5 104.5t92.5 71.5q-37 21 -51 65.5t-4 90.5q17 79 73.5 129.5t120.5 50.5q65 0 100.5 -50t18.5 -130q-10 -45 -42.5 -88.5t-80.5 -67.5q48 -25 64.5 -72t3.5 -104zM390 524q13 62 -14 101.5t-75 39.5
q-47 0 -91 -39.5t-58 -101.5q-14 -65 12.5 -102t76.5 -37q51 0 93 37t56 102zM335 193q15 73 -15 114.5t-87 41.5t-103.5 -41t-62.5 -115q-15 -69 16 -113.5t84 -44.5q54 0 103.5 44t64.5 114z" />
    <glyph glyph-name="nine.taboldstyle" 
d="M58 276q19 92 80.5 152.5t133.5 60.5q80 0 111.5 -69t9.5 -174q-29 -137 -106.5 -259.5t-185.5 -206.5l-17 26q167 138 245 347q-66 -90 -150 -90q-74 0 -107.5 59t-13.5 154zM97 275q-16 -76 9 -123.5t83 -47.5q55 0 104 48t64 120q16 72 -13 123.5t-83 51.5
t-101.5 -49.5t-62.5 -122.5z" />
    <glyph glyph-name="rupiah" horiz-adv-x="899" 
d="M883 240q-52 -248 -226 -248q-82 0 -111 79l-62 -291h-39l46 220h-91l-85 252q-23 73 -77 73h-92l-69 -325h-42l149 698h195q94 0 139 -45.5t25 -141.5q-35 -165 -222 -183q27 -24 40 -73l73 -213h67l93 438h35l-16 -77q64 88 150 88q173 0 120 -251zM845 240
q9 43 11.5 74t-3.5 64.5t-31 51.5t-68 18q-51 0 -98 -40t-57 -88l-34 -158q-11 -51 18.5 -90t81.5 -39q43 0 76 18t53 51t31 64.5t20 73.5zM501 511q30 143 -131 143h-154l-61 -288h154q161 0 192 145z" />
    <glyph glyph-name="Euro.fitted" 
d="M361 93l18 -34q-35 -36 -68 -52t-75 -16q-77 0 -115.5 71.5t-30.5 181.5h-54l14 36h44q11 66 21 105h-48l13 36h45q37 121 106.5 203.5t156.5 82.5q42 0 69 -15.5t46 -50.5l-33 -36q-19 32 -39.5 44.5t-51.5 12.5q-68 0 -125 -69.5t-87 -171.5h183l-13 -36h-180
q-19 -86 -21 -105h184l-13 -36h-175q-7 -89 23 -148.5t90 -59.5q58 0 116 57z" />
    <glyph glyph-name="dollar.fitted" 
d="M384 224q-16 -73 -69 -116.5t-117 -49.5l-12 -58h-37l13 59q-56 5 -91 40t-36 101l37 8q0 -100 98 -109l54 255q-20 6 -33 11t-30 14t-25 18.5t-18 25t-8.5 33.5l3.5 43q15 68 64.5 104t107.5 38l12 57h37l-12 -57q87 -10 109 -94l-34 -21q-16 67 -84 75l-46 -216
q21 -7 35.5 -12.5t32 -15.5t26.5 -21t19 -28t8.5 -36.5t-4.5 -47.5zM233 395l43 207q-42 -1 -78.5 -26.5t-47.5 -76.5q-1 -18 -2.5 -30t6 -23t13 -18t19 -13.5t23 -10.5t24.5 -9zM348 224q5 16 3 30.5l-3.5 24.5t-9.5 19t-15 15t-19 12t-21.5 10t-23.5 8l-52 -245
q48 4 88.5 37t52.5 89z" />
    <glyph glyph-name="cent.fitted" 
d="M323 91l24 -28q-42 -36 -76.5 -52t-78.5 -17q-29 0 -61 11l-35 -88l-22 5l37 90q-50 31 -65 96t2 132q23 109 88.5 177.5t165.5 69.5l31 75l21 -4l-29 -75q59 -10 97 -66l-35 -27q-29 45 -77 55l-163 -401q25 -12 55 -12q63 3 121 59zM126 52l162 397q-157 -10 -199 -209
q-14 -47 -7.5 -100t44.5 -88z" />
    <glyph glyph-name="sterling.fitted" 
d="M325 41l-9 -41h-304l8 38q58 93 75 172q11 53 13 119h-62l16 40h46q5 90 15 133q18 88 70.5 144t124.5 56q51 0 80.5 -19t51.5 -61l-36 -28q-20 36 -43.5 51.5t-61.5 15.5q-58 0 -95.5 -45t-52.5 -115q-5 -24 -14 -132h108l-17 -40h-91q-3 -63 -14 -121q-16 -71 -66 -167
h258z" />
    <glyph glyph-name="florin.fitted" 
d="M288 427l-8 -39h-85l-223 -587l-35 7l222 580h-62l8 39h68q0 1 15 39t16 40q70 184 222 192l-8 -39q-68 -4 -110 -45t-69 -114l-7 -18l-14.5 -36t-7.5 -19h78z" />
    <glyph glyph-name="yen.fitted" 
d="M422 698h41l-198 -330h77l-15 -37h-83l-59 -101h128l-15 -36h-122l-41 -194h-38l40 194h-129l15 36h122l-9 50.5t-8 50.5h-91l14 37h71l-57 330h43l69 -413z" />
    <glyph glyph-name="lira.fitted" 
d="M98 270h-71l14 33h59q2 12 2 33v26h-56l15 33h43q2 61 12 107q19 88 71.5 144t124.5 56q50 0 79.5 -18.5t52.5 -61.5l-36 -28q-20 36 -43.5 51.5t-61.5 15.5q-58 0 -95.5 -45t-52.5 -115q-9 -40 -13 -106h112l-14 -33h-100q2 -34 -1 -59h95l-13 -33h-85q-1 -30 -10 -62
q-14 -70 -65 -167h258l-9 -41h-304l8 38q55 90 72 167q9 37 12 65z" />
    <glyph glyph-name="peseta.fitted" 
d="M483 527l-7 -36h-47q-24 -87 -83.5 -129t-141.5 -42h-109l-68 -320h-41l104 491h-54l8 36h54l36 171h151q81 0 122.5 -42t29.5 -129h46zM104 361h109q134 0 175 130h-256zM274 654h-108l-27 -128h255q16 128 -120 128z" />
    <glyph glyph-name="colonmonetary.fitted" 
d="M319 126l22 -31q-61 -78 -119 -96l-15 -74h-30l14 68q-14 -2 -20 -2q-13 0 -26 3l-14 -69h-29l15 75q-36 13 -58 46.5t-28 81.5t-2 103t17 118q28 133 83.5 228.5t136.5 120.5l16 76h29l-15 -70q16 3 26 3q5 0 21 -2l15 69h29l-17 -75q52 -21 79 -94l-36 -31
q-18 46 -40.5 67t-59.5 21q-46 0 -85 -27.5t-66 -75t-45 -99t-31 -111.5t-16.5 -111.5t3 -99t33.5 -75t73 -27.5q38 0 70.5 21.5t69.5 68.5z" />
    <glyph glyph-name="franc.fitted" 
d="M230 243l-8 -37h-119l-43 -206h-42l43 206h-61l9 37h61l96 455h300l-9 -44h-259l-57 -271h224l-9 -41h-224l-20 -99h118z" />
    <glyph glyph-name="A.sc" horiz-adv-x="453" 
d="M338 523l75 -523h-43l-22 154h-224l-86 -154h-43l296 523h47zM145 192h198l-38 284z" />
    <glyph glyph-name="B.sc" horiz-adv-x="449" 
d="M413 143q-29 -143 -195 -143h-178l110 523h166q159 0 130 -137q-19 -84 -88 -115q76 -30 55 -128zM405 385q21 97 -97 97h-125l-42 -197h133q109 0 131 100zM373 144q22 104 -102 104h-138l-44 -206h138q125 0 146 102z" />
    <glyph glyph-name="C.sc" horiz-adv-x="390" 
d="M338 106l23 -30q-44 -44 -81.5 -63t-85.5 -19q-52 0 -86.5 22.5t-47 60t-14.5 85.5t11 99q24 115 87 192t163 77q47 0 77 -19.5t56 -62.5l-36 -28q-20 35 -43.5 50.5t-62.5 15.5q-84 0 -132 -64.5t-68 -160.5q-10 -56 -10.5 -105.5t28.5 -84t86 -34.5q39 0 69 16t67 53z
" />
    <glyph glyph-name="D.sc" horiz-adv-x="461" 
d="M440 261q-13 -59 -23.5 -95t-29.5 -71.5t-45 -54t-65.5 -29.5t-95.5 -11h-141l111 524h142q128 0 156 -58t-9 -205zM401 261q22 88 19 136.5t-32 65.5t-102 17h-104l-93 -437h104q34 0 60 4.5t44.5 11t33.5 22.5t24 29.5t18 41t14 48.5z" />
    <glyph glyph-name="E.sc" horiz-adv-x="405" 
d="M358 43l-8 -43h-310l110 523h310l-8 -43h-270l-40 -189h235l-8 -39h-235l-45 -209h269z" />
    <glyph glyph-name="F.sc" horiz-adv-x="388" 
d="M453 523l-8 -43h-263l-40 -189h235l-8 -39h-235l-54 -252h-40l110 523h303z" />
    <glyph glyph-name="G.sc" horiz-adv-x="426" 
d="M257 271h159l-57 -271h-37l17 80q-51 -86 -148 -86q-67 0 -104 39.5t-40 99t9 128.5q11 53 31.5 99.5t51 85.5t74 61.5t94.5 22.5q47 0 77 -19.5t56 -62.5l-37 -28q-20 35 -43.5 51t-61.5 16q-81 0 -130.5 -64.5t-70.5 -161.5q-10 -57 -9.5 -106.5t29 -83.5t83.5 -34
q127 0 170 195h-120z" />
    <glyph glyph-name="H.sc" horiz-adv-x="470" 
d="M500 523l-111 -523h-40l53 252h-268l-53 -252h-41l110 523h41l-49 -232h268l49 232h41z" />
    <glyph glyph-name="I.sc" horiz-adv-x="156" 
d="M191 523l-111 -523h-40l110 523h41z" />
    <glyph glyph-name="J.sc" horiz-adv-x="389" 
d="M385 523h40l-78 -366q-35 -163 -188 -163q-115 0 -124 111l40 11q8 -79 92 -79q114 0 141 122z" />
    <glyph glyph-name="K.sc" horiz-adv-x="410" 
d="M191 523l-111 -523h-40l110 523h41zM257 85l-116 177l266 261h48l-268 -263l106 -156q17 -26 46.5 -45t53.5 -23l-9 -36q-83 17 -127 85z" />
    <glyph glyph-name="L.sc" horiz-adv-x="360" 
d="M330 40l-8 -40h-282l110 523h41l-102 -483h241z" />
    <glyph glyph-name="M.sc" horiz-adv-x="522" 
d="M552 523l-110 -523h-40l87 415l-231 -415h-35l-56 414l-87 -414h-40l110 523h40l62 -463l260 463h40z" />
    <glyph glyph-name="N.sc" horiz-adv-x="454" 
d="M484 523l-111 -523h-40l-159 445l-94 -445h-40l110 523h41l159 -445l94 445h40z" />
    <glyph glyph-name="O.sc" horiz-adv-x="443" 
d="M446 262q-24 -114 -85.5 -190.5t-162.5 -76.5q-53 0 -87 22.5t-46.5 60t-14 85.5t11.5 99q25 115 86.5 192t162.5 77q52 0 86 -22.5t47 -62t13 -85.5t-11 -99zM405 262q48 225 -103 225q-152 0 -200 -225q-46 -225 104 -225q151 0 199 225z" />
    <glyph glyph-name="P.sc" horiz-adv-x="439" 
d="M459 380q-32 -145 -190 -145h-139l-49 -235h-41l111 524h179q159 0 129 -144zM418 380q12 58 -15 79.5t-83 21.5h-137l-45 -205h138q120 0 142 104z" />
    <glyph glyph-name="Q.sc" horiz-adv-x="443" 
d="M446 262q-34 -161 -127 -228q45 -43 78 -43l-7 -35q-55 8 -99 60q-41 -21 -93 -21q-53 0 -87 22.5t-46.5 60t-14 85.5t11.5 99q25 115 86.5 192t162.5 77q52 0 86 -22.5t47 -62t13 -85.5t-11 -99zM216 137h35q9 -29 47 -70q76 50 107 195q48 225 -103 225
q-152 0 -200 -225q-46 -225 104 -225q37 0 63 13q-40 49 -53 87z" />
    <glyph glyph-name="R.sc" horiz-adv-x="436" 
d="M299 84l-34 104q-8 24 -20 37.5t-34 13.5h-80l-50 -239h-41l110 523h166q71 0 106 -35t19 -107q-12 -60 -54.5 -97.5t-108.5 -42.5q20 -19 28 -47l30 -89q21 -59 83 -69l-9 -36q-87 18 -111 84zM401 380q22 101 -93 101h-125l-44 -202h125q116 0 137 101z" />
    <glyph glyph-name="S.sc" horiz-adv-x="423" 
d="M399 145q-16 -72 -75 -112t-127 -40q-156 0 -157 134l40 9q3 -102 126 -102q51 0 96.5 29t56.5 82q9 44 -16 69t-66.5 36t-83 23.5t-66 42t-13.5 80.5q13 66 66 99t116 33q114 0 143 -101l-39 -18q-21 77 -113 77q-47 0 -85 -22t-48 -68q-7 -32 10.5 -53t49 -29.5
t68 -20.5t66.5 -25.5t45.5 -44.5t5.5 -78z" />
    <glyph glyph-name="T.sc" horiz-adv-x="373" 
d="M438 523l-9 -43h-154l-102 -480h-40l101 480h-154l8 43h350z" />
    <glyph glyph-name="U.sc" horiz-adv-x="457" 
d="M499 524l-63 -300q-50 -230 -223 -230q-176 0 -126 230l63 300h41l-64 -299q-9 -51 -10 -93t25 -68.5t79 -26.5q76 0 116 50.5t59 137.5l63 299h40z" />
    <glyph glyph-name="V.sc" horiz-adv-x="355" 
d="M407 524h43l-275 -524h-42l-53 524h42l44 -465z" />
    <glyph glyph-name="W.sc" horiz-adv-x="509" 
d="M563 524h41l-223 -524h-43l-2 438l-186 -438h-44l-1 524h41l-2 -446l191 446h39l1 -446z" />
    <glyph glyph-name="X.sc" horiz-adv-x="348" 
d="M240 270l103 -270h-47l-88 232l-185 -232h-48l218 270l-98 253h48l81 -216l172 216h47z" />
    <glyph glyph-name="Y.sc" horiz-adv-x="339" 
d="M420 523h44l-233 -351l-37 -172h-40l36 174l-85 349h45l72 -300z" />
    <glyph glyph-name="Z.sc" horiz-adv-x="436" 
d="M360 33l13 -37q-34 -10 -77 -10q-27 0 -88 7t-99 7q-41 0 -90 -9l-10 28l390 461h-256l8 43h309l-8 -38l-387 -455q25 5 61 5q30 0 86.5 -5.5t81.5 -5.5q40 0 66 9z" />
    <glyph glyph-name="commaaccentcomb" horiz-adv-x="205" 
d="M241 -109l-7 -30l-77 -99h-9l27 129q3 14 14.5 24t24.5 10q15 0 22.5 -10t4.5 -24z" />
    <glyph glyph-name="commaaccentcomb.alt" horiz-adv-x="205" 
d="M317 558l6 30l78 99h9l-27 -129q-4 -14 -15.5 -24t-24.5 -10q-15 0 -22.5 9.5t-3.5 24.5z" />
    <glyph glyph-name="grave.cap" horiz-adv-x="284" 
d="M504 903l47 -148h-40l-61 148h54z" />
    <glyph glyph-name="acute.cap" horiz-adv-x="267" 
d="M519 903h55l-123 -148h-41z" />
    <glyph glyph-name="circumflex.cap" horiz-adv-x="463" 
d="M626 902l64 -147h-48l-46 119l-94 -119h-47l126 147h45z" />
    <glyph glyph-name="caron.cap" horiz-adv-x="439" 
d="M722 902l-128 -147h-44l-64 147h48l43 -119l96 119h49z" />
    <glyph glyph-name="tilde.cap" horiz-adv-x="460" 
d="M689 833l20 -26q-42 -52 -83 -52q-28 0 -53 28.5t-45 28.5q-26 0 -56 -36l-19 26q43 51 83 51q28 0 53 -28t45 -28q28 0 55 36z" />
    <glyph glyph-name="dieresis.cap" horiz-adv-x="448" 
d="M695 802q-3 -16 -15.5 -27.5t-27.5 -11.5t-23.5 11.5t-4.5 27.5t17 27.5t27 11.5q15 0 23 -11.5t4 -27.5zM530 802q-4 -16 -17 -27.5t-28 -11.5q-14 0 -22 11.5t-4 27.5q3 16 16 27.5t27 11.5q15 0 23.5 -11.5t4.5 -27.5z" />
    <glyph glyph-name="macron.cap" horiz-adv-x="454" 
d="M704 813l-9 -41h-244l9 41h244z" />
    <glyph glyph-name="breve.cap" horiz-adv-x="457" 
d="M701 885h35q-70 -127 -165 -127q-93 0 -111 127h35q11 -44 30 -66.5t55 -22.5t64 22.5t57 66.5z" />
    <glyph glyph-name="ring.cap" horiz-adv-x="453" 
d="M680 855q-7 -40 -40 -69t-70 -29q-38 0 -58 29t-12 69q8 41 41 69.5t71 28.5q37 0 57 -29t11 -69zM643 855q5 24 -6.5 41t-33.5 17t-41.5 -17t-24.5 -41t7 -41t35 -17q21 0 40.5 17t23.5 41z" />
    <glyph glyph-name="hungarumlaut.cap" horiz-adv-x="409" 
d="M677 912h49l-116 -147h-35zM566 912h50l-116 -147h-35z" />
    <glyph glyph-name="dotaccent.cap" horiz-adv-x="466" 
d="M630 806q-5 -18 -20.5 -32t-33.5 -14q-17 0 -26.5 14t-5.5 32q4 20 19 34t33 14q17 0 27.5 -14.5t6.5 -33.5z" />
    <glyph glyph-name="caroncomb" horiz-adv-x="439" 
d="M714 725l-127 -147h-44l-64 147h48l43 -119l96 119h48z" />
    <glyph glyph-name="ringcomb" horiz-adv-x="453" 
d="M673 678q-7 -40 -40 -69t-70 -29q-38 0 -58.5 29t-12.5 69q9 41 42 69.5t71 28.5q37 0 57 -29t11 -69zM636 678q5 24 -6.5 41t-33.5 17t-41.5 -17t-24.5 -41t7 -41t34 -17t41.5 17t23.5 41z" />
    <glyph glyph-name="hungarumlautcomb" horiz-adv-x="409" 
d="M670 735h49l-116 -147h-35zM559 735h50l-117 -147h-34z" />
    <glyph glyph-name="ringacute" horiz-adv-x="453" 
d="M532 790h49l-71 -79l11 1q33 0 51.5 -26t10.5 -62q-7 -36 -37 -62t-63 -26q-34 0 -53 26t-11 62q8 34 32 56zM549 624q4 22 -6 37t-30 15t-37.5 -15t-22.5 -37q-4 -22 7 -37t31 -15t37 15t21 37z" />
    <glyph glyph-name="ringacute.cap" horiz-adv-x="453" 
d="M563 1011h49l-70 -79l11 1q33 0 51.5 -26t10.5 -62t-37.5 -62t-62.5 -26q-34 0 -53 26t-11 62q8 34 32 56zM581 845q4 22 -6 37t-30 15t-37.5 -15t-22.5 -37q-4 -22 7 -37t31 -15t37 15t21 37z" />
    <glyph glyph-name="Aacute.sc" horiz-adv-x="453" 
d="M338 523l75 -523h-43l-22 154h-224l-86 -154h-43l296 523h47zM145 192h198l-38 284zM418 726h54l-123 -148h-40z" />
    <glyph glyph-name="Agrave.sc" horiz-adv-x="453" 
d="M338 523l75 -523h-43l-22 154h-224l-86 -154h-43l296 523h47zM145 192h198l-38 284zM297 726l46 -148h-40l-60 148h54z" />
    <glyph glyph-name="Acircumflex.sc" horiz-adv-x="453" 
d="M338 523l75 -523h-43l-22 154h-224l-86 -154h-43l296 523h47zM145 192h198l-38 284zM377 725l65 -147h-48l-46 119l-94 -119h-47l126 147h44z" />
    <glyph glyph-name="Atilde.sc" horiz-adv-x="453" 
d="M338 523l75 -523h-43l-22 154h-224l-86 -154h-43l296 523h47zM145 192h198l-38 284zM443 656l19 -26q-42 -52 -83 -52q-29 0 -53 28.5t-44 28.5q-26 0 -56 -36l-19 26q41 51 82 51q28 0 53 -28t45 -28q27 0 56 36z" />
    <glyph glyph-name="Adieresis.sc" horiz-adv-x="453" 
d="M338 523l75 -523h-43l-22 154h-224l-86 -154h-43l296 523h47zM145 192h198l-38 284zM452 625q-3 -16 -15.5 -27.5t-27.5 -11.5t-23.5 11.5t-4.5 27.5t17 27.5t27 11.5q15 0 23 -11.5t4 -27.5zM287 625q-4 -16 -17 -27.5t-28 -11.5q-14 0 -22 11.5t-4 27.5t16.5 27.5
t26.5 11.5q15 0 23.5 -11.5t4.5 -27.5z" />
    <glyph glyph-name="Amacron.sc" horiz-adv-x="453" 
d="M338 523l75 -523h-43l-22 154h-224l-86 -154h-43l296 523h47zM145 192h198l-38 284zM455 636l-9 -41h-244l9 41h244z" />
    <glyph glyph-name="Abreve.sc" horiz-adv-x="453" 
d="M338 523l75 -523h-43l-22 154h-224l-86 -154h-43l296 523h47zM145 192h198l-38 284zM444 708h35q-72 -127 -165 -127q-94 0 -111 127h35q11 -44 30 -66.5t54 -22.5q36 0 64 22.5t58 66.5z" />
    <glyph glyph-name="Aring.sc" horiz-adv-x="453" 
d="M338 523l75 -523h-43l-22 154h-224l-86 -154h-43l296 523h47zM145 192h198l-38 284zM438 678q-8 -40 -41 -69t-70 -29t-57.5 29t-12.5 69t41 69t71 29q37 0 57 -29t12 -69zM400 678q5 24 -6.5 41t-33.5 17t-41 -17t-24 -41t6.5 -41t34.5 -17q21 0 40.5 17t23.5 41z" />
    <glyph glyph-name="Aringacute.sc" horiz-adv-x="453" 
d="M338 523l75 -523h-43l-22 154h-224l-86 -154h-43l296 523h47zM145 192h198l-38 284zM385 834h49l-71 -79l10 1q34 0 52.5 -26t10.5 -62t-37 -62t-63 -26t-52.5 26t-10.5 62q6 33 31 56zM402 668q4 22 -6 37t-30 15q-21 0 -37.5 -15t-21.5 -37t5.5 -37t31.5 -15
q20 0 37 15t21 37z" />
    <glyph glyph-name="Aogonek.sc" horiz-adv-x="453" 
d="M406 0l68 -197h-51l-53 197l-22 154h-224l-86 -154h-43l296 523h47l75 -523h-7zM145 192h198l-38 284z" />
    <glyph glyph-name="AE.sc" horiz-adv-x="588" 
d="M542 43l-9 -43h-285l32 154h-187l-99 -154h-44l341 523h352l-8 -43h-245l-41 -187h213l-8 -41h-213l-45 -209h246zM118 192h170l60 280h-50z" />
    <glyph glyph-name="AEacute.sc" horiz-adv-x="588" 
d="M542 43l-9 -43h-285l32 154h-187l-99 -154h-44l341 523h352l-8 -43h-245l-41 -187h213l-8 -41h-213l-45 -209h246zM118 192h170l60 280h-50zM438 726h54l-123 -148h-40z" />
    <glyph glyph-name="Cacute.sc" horiz-adv-x="393" 
d="M341 106l23 -30q-44 -44 -81.5 -63t-85.5 -19q-52 0 -86.5 22.5t-47 60t-14.5 85.5t11 99q24 115 87 192t163 77q47 0 77 -19.5t56 -62.5l-36 -28q-20 35 -43.5 50.5t-62.5 15.5q-84 0 -132 -64.5t-68 -160.5q-10 -56 -10.5 -105.5t28.5 -84t86 -34.5q39 0 69 16t67 53z
M337 726h54l-123 -148h-40z" />
    <glyph glyph-name="Ccircumflex.sc" horiz-adv-x="393" 
d="M341 106l23 -30q-44 -44 -81.5 -63t-85.5 -19q-52 0 -86.5 22.5t-47 60t-14.5 85.5t11 99q24 115 87 192t163 77q47 0 77 -19.5t56 -62.5l-36 -28q-20 35 -43.5 50.5t-62.5 15.5q-84 0 -132 -64.5t-68 -160.5q-10 -56 -10.5 -105.5t28.5 -84t86 -34.5q39 0 69 16t67 53z
M360 725l65 -147h-48l-46 119l-94 -119h-47l126 147h44z" />
    <glyph glyph-name="Ccaron.sc" horiz-adv-x="393" 
d="M364 76l-23 30q-37 -37 -67 -53t-69 -16q-57 0 -86 34.5t-28.5 84t10.5 105.5q20 96 68 160.5t132 64.5q39 0 62.5 -15.5t43.5 -50.5l36 28q-26 43 -56 62.5t-77 19.5q-100 0 -163 -77t-87 -192q-13 -51 -11 -99t14.5 -85.5t47 -60t86.5 -22.5q48 0 85.5 19t81.5 63z
M458 725l-127 -147h-45l-63 147h47l43 -119l97 119h48z" />
    <glyph glyph-name="Ccedilla.sc" horiz-adv-x="393" 
d="M340 104l23 -28q-41 -41 -76 -60.5t-77 -21.5l11 -72l-84 -119h-48l101 123l-12 69q-46 4 -76 27.5t-41.5 61t-11.5 82t11 95.5q24 115 87 192t163 77q47 0 76.5 -19t55.5 -63l-35 -28q-21 36 -44 51t-62 15q-84 0 -132 -64.5t-68 -160.5q-10 -56 -11 -105.5t28.5 -84
t86.5 -34.5q39 0 68.5 15.5t66.5 51.5z" />
    <glyph glyph-name="Cdotaccent.sc" horiz-adv-x="393" 
d="M341 106l23 -30q-44 -44 -81.5 -63t-85.5 -19q-52 0 -86.5 22.5t-47 60t-14.5 85.5t11 99q24 115 87 192t163 77q47 0 77 -19.5t56 -62.5l-36 -28q-20 35 -43.5 50.5t-62.5 15.5q-84 0 -132 -64.5t-68 -160.5q-10 -56 -10.5 -105.5t28.5 -84t86 -34.5q39 0 69 16t67 53z
M351 629q-4 -18 -19.5 -32t-33.5 -14t-27.5 14t-4.5 32q4 20 19 34t32 14q18 0 28 -14.5t6 -33.5z" />
    <glyph glyph-name="Dcaron.sc" horiz-adv-x="461" 
d="M441 261q36 147 8 205t-156 58h-142l-111 -524h141q56 0 95.5 11t65.5 29.5t45 54t30 71.5t24 95zM401 261l-14 -61t-14 -48.5t-18 -41t-24 -29.5t-33.5 -22.5t-44.5 -11t-60 -4.5h-104l94 437h103q73 0 102 -17t32 -65.5t-19 -136.5zM462 725l-127 -147h-45l-63 147h47
l43 -119l96 119h49z" />
    <glyph glyph-name="Eth.sc" horiz-adv-x="461" 
d="M441 261q-13 -59 -23.5 -95t-29.5 -71.5t-45 -54t-66 -29.5t-96 -11h-141l51 241h-29l8 38h29l52 245h141q129 0 157.5 -58t-8.5 -205zM401 261q22 88 19 136.5t-31.5 65.5t-102.5 17h-104l-42 -201h111l-8 -38h-112l-42 -198h104q34 0 60 4.5t44.5 11t33.5 22.5t24 29.5
t18 41t14 48.5z" />
    <glyph glyph-name="Dcroat.sc" horiz-adv-x="461" 
d="M441 261q-13 -59 -23.5 -95t-29.5 -71.5t-45 -54t-66 -29.5t-96 -11h-141l51 241h-29l8 38h29l52 245h141q129 0 157.5 -58t-8.5 -205zM401 261q22 88 19 136.5t-31.5 65.5t-102.5 17h-104l-42 -201h108l-8 -38h-109l-42 -198h104q34 0 60 4.5t44.5 11t33.5 22.5t24 29.5
t18 41t14 48.5z" />
    <glyph glyph-name="Eacute.sc" horiz-adv-x="405" 
d="M358 43l-8 -43h-310l110 523h310l-8 -43h-270l-40 -189h235l-8 -39h-235l-45 -209h269zM342 726h55l-124 -148h-40z" />
    <glyph glyph-name="Egrave.sc" horiz-adv-x="405" 
d="M358 43l-8 -43h-310l110 523h310l-8 -43h-270l-40 -189h235l-8 -39h-235l-45 -209h269zM319 726l46 -148h-40l-60 148h54z" />
    <glyph glyph-name="Ecircumflex.sc" horiz-adv-x="405" 
d="M358 43l-8 -43h-310l110 523h310l-8 -43h-270l-40 -189h235l-8 -39h-235l-45 -209h269zM365 725l65 -147h-48l-47 119l-93 -119h-47l126 147h44z" />
    <glyph glyph-name="Ecaron.sc" horiz-adv-x="405" 
d="M350 0l8 43h-269l45 209h235l8 39h-235l40 189h270l8 43h-310l-110 -523h310zM457 725l-127 -147h-44l-64 147h48l43 -119l96 119h48z" />
    <glyph glyph-name="Edieresis.sc" horiz-adv-x="405" 
d="M358 43l-8 -43h-310l110 523h310l-8 -43h-270l-40 -189h235l-8 -39h-235l-45 -209h269zM433 625q-4 -17 -16.5 -28t-27.5 -11t-23 11t-5 28q4 16 17 27.5t27 11.5q15 0 23 -11.5t5 -27.5zM267 625q-3 -16 -16 -27.5t-28 -11.5t-23 11.5t-4 27.5t16.5 27.5t26.5 11.5
q15 0 23.5 -11.5t4.5 -27.5z" />
    <glyph glyph-name="Emacron.sc" horiz-adv-x="405" 
d="M358 43l-8 -43h-310l110 523h310l-8 -43h-270l-40 -189h235l-8 -39h-235l-45 -209h269zM441 636l-8 -41h-245l9 41h244z" />
    <glyph glyph-name="Ebreve.sc" horiz-adv-x="405" 
d="M358 43l-8 -43h-310l110 523h310l-8 -43h-270l-40 -189h235l-8 -39h-235l-45 -209h269zM434 708h34q-70 -127 -165 -127q-93 0 -111 127h35q11 -44 30 -66.5t55 -22.5t64 22.5t58 66.5z" />
    <glyph glyph-name="Edotaccent.sc" horiz-adv-x="405" 
d="M358 43l-8 -43h-310l110 523h310l-8 -43h-270l-40 -189h235l-8 -39h-235l-45 -209h269zM357 629q-5 -18 -20.5 -32t-33.5 -14q-17 0 -26.5 14t-5.5 32q4 20 19 34t33 14q17 0 27.5 -14.5t6.5 -33.5z" />
    <glyph glyph-name="Eogonek.sc" horiz-adv-x="405" 
d="M350 0l67 -197h-51l-53 197h-273l110 523h310l-8 -43h-270l-40 -189h235l-8 -39h-235l-45 -209h269z" />
    <glyph glyph-name="Gcircumflex.sc" horiz-adv-x="429" 
d="M260 271h159l-57 -271h-37l17 80q-51 -86 -148 -86q-67 0 -104 39.5t-40 99t9 128.5q11 53 31.5 99.5t51 85.5t74 61.5t95.5 22.5q47 0 76.5 -19.5t55.5 -62.5l-37 -28q-20 35 -43.5 51t-61.5 16q-81 0 -130.5 -64.5t-70.5 -161.5q-9 -57 -9 -106.5t28.5 -83.5t83.5 -34
q127 0 170 195h-120zM377 725l64 -147h-48l-46 119l-94 -119h-47l126 147h45z" />
    <glyph glyph-name="Gbreve.sc" horiz-adv-x="429" 
d="M260 271h159l-57 -271h-37l17 80q-51 -86 -148 -86q-67 0 -104 39.5t-40 99t9 128.5q11 53 31.5 99.5t51 85.5t74 61.5t95.5 22.5q47 0 76.5 -19.5t55.5 -62.5l-37 -28q-20 35 -43.5 51t-61.5 16q-81 0 -130.5 -64.5t-70.5 -161.5q-9 -57 -9 -106.5t28.5 -83.5t83.5 -34
q127 0 170 195h-120zM432 708h34q-70 -127 -164 -127t-111 127h34q11 -44 30 -66.5t55 -22.5t64 22.5t58 66.5z" />
    <glyph glyph-name="Gdotaccent.sc" horiz-adv-x="429" 
d="M260 271h159l-57 -271h-37l17 80q-51 -86 -148 -86q-67 0 -104 39.5t-40 99t9 128.5q11 53 31.5 99.5t51 85.5t74 61.5t95.5 22.5q47 0 76.5 -19.5t55.5 -62.5l-37 -28q-20 35 -43.5 51t-61.5 16q-81 0 -130.5 -64.5t-70.5 -161.5q-9 -57 -9 -106.5t28.5 -83.5t83.5 -34
q127 0 170 195h-120zM368 629q-5 -18 -20.5 -32t-33.5 -14q-17 0 -27 14t-5 32q4 20 19 34t33 14q17 0 27.5 -14.5t6.5 -33.5z" />
    <glyph glyph-name="Gcommaaccent.sc" horiz-adv-x="429" 
d="M260 271h159l-57 -271h-37l17 80q-51 -86 -148 -86q-67 0 -104 39.5t-40 99t9 128.5q11 53 31.5 99.5t51 85.5t74 61.5t95.5 22.5q47 0 76.5 -19.5t55.5 -62.5l-37 -28q-20 35 -43.5 51t-61.5 16q-81 0 -130.5 -64.5t-70.5 -161.5q-9 -57 -9 -106.5t28.5 -83.5t83.5 -34
q127 0 170 195h-120zM212 -109l-7 -30l-77 -99h-9l28 129q2 13 14 23.5t25 10.5q15 0 22 -10t4 -24z" />
    <glyph glyph-name="Hcircumflex.sc" horiz-adv-x="470" 
d="M500 523l-111 -523h-40l53 252h-268l-53 -252h-41l110 523h41l-49 -232h268l49 232h41zM388 725l64 -147h-48l-46 119l-94 -119h-47l126 147h45z" />
    <glyph glyph-name="Hbar.sc" horiz-adv-x="470" 
d="M544 423l-8 -36h-65l-82 -387h-39l53 252h-269l-53 -252h-41l82 387h-64l7 36h64l21 100h41l-21 -100h269l21 100h40l-22 -100h66zM142 291h269l20 96h-269z" />
    <glyph glyph-name="Iacute.sc" horiz-adv-x="153" 
d="M191 523l-110 -523h-41l110 523h41zM270 726h55l-124 -148h-40z" />
    <glyph glyph-name="Igrave.sc" horiz-adv-x="153" 
d="M191 523l-110 -523h-41l110 523h41zM161 726l46 -148h-40l-60 148h54z" />
    <glyph glyph-name="Icircumflex.sc" horiz-adv-x="153" 
d="M191 523l-110 -523h-41l110 523h41zM240 725l65 -147h-48l-46 119l-94 -119h-47l126 147h44z" />
    <glyph glyph-name="Itilde.sc" horiz-adv-x="153" 
d="M191 523l-110 -523h-41l110 523h41zM298 656l20 -26q-42 -52 -83 -52q-28 0 -53 28.5t-45 28.5q-26 0 -56 -36l-19 26q43 51 83 51q28 0 52.5 -28t45.5 -28q26 0 55 36z" />
    <glyph glyph-name="Idieresis.sc" horiz-adv-x="153" 
d="M191 523l-110 -523h-41l110 523h41zM303 625q-4 -17 -16.5 -28t-27.5 -11q-14 0 -22.5 11.5t-4.5 27.5q3 16 16 27.5t28 11.5t23 -11.5t4 -27.5zM137 625q-3 -16 -16 -27.5t-28 -11.5t-23 11.5t-4 27.5t16.5 27.5t26.5 11.5q15 0 23.5 -11.5t4.5 -27.5z" />
    <glyph glyph-name="Imacron.sc" horiz-adv-x="153" 
d="M191 523l-110 -523h-41l110 523h41zM317 636l-9 -41h-245l9 41h245z" />
    <glyph glyph-name="Ibreve.sc" horiz-adv-x="153" 
d="M191 523l-110 -523h-41l110 523h41zM302 708h35q-72 -127 -165 -127q-94 0 -111 127h35q11 -44 30 -66.5t54 -22.5q36 0 64 22.5t58 66.5z" />
    <glyph glyph-name="Idotaccent.sc" horiz-adv-x="153" 
d="M191 523l-110 -523h-41l110 523h41zM236 629q-5 -18 -20.5 -32t-33.5 -14t-27.5 14t-4.5 32q4 20 19 34t32 14q18 0 28.5 -14t6.5 -34z" />
    <glyph glyph-name="Iogonek.sc" horiz-adv-x="153" 
d="M74 0l70 -197h-51l-53 197l110 523h41l-110 -523h-7z" />
    <glyph glyph-name="Jcircumflex.sc" horiz-adv-x="393" 
d="M390 523h39l-77 -366q-35 -163 -189 -163q-114 0 -123 111l40 11q8 -79 91 -79q59 0 93 30t48 92zM477 725l64 -147h-48l-46 119l-94 -119h-47l126 147h45z" />
    <glyph glyph-name="Kcommaaccent.sc" horiz-adv-x="410" 
d="M191 523l-111 -523h-40l110 523h41zM257 85l-116 177l266 261h48l-268 -263l106 -156q17 -26 46.5 -45t53.5 -23l-9 -36q-83 17 -127 85zM202 -109l-7 -30l-77 -99h-9l27 129q3 14 14.5 24t24.5 10q15 0 22.5 -10t4.5 -24z" />
    <glyph glyph-name="Lacute.sc" horiz-adv-x="360" 
d="M330 40l-8 -40h-282l110 523h41l-102 -483h241zM275 726h54l-123 -148h-40z" />
    <glyph glyph-name="Lcaron.sc" horiz-adv-x="360" 
d="M330 40l-8 -40h-282l110 523h41l-102 -483h241zM439 507l-16 -46l-79 -105l-8 1l36 149q4 15 15.5 26t24.5 11q14 0 22.5 -11t4.5 -25z" />
    <glyph glyph-name="Lcommaaccent.sc" horiz-adv-x="360" 
d="M330 40l-8 -40h-282l110 523h41l-102 -483h241zM197 -109l-7 -30l-77 -99h-9l28 129q2 14 14 24t25 10q15 0 22 -10t4 -24z" />
    <glyph glyph-name="Lslash.sc" horiz-adv-x="360" 
d="M329 43l-8 -43h-281l42 201l-30 -12l9 39l29 12l60 283h40l-55 -264l127 55l-8 -39l-128 -55l-38 -177h241z" />
    <glyph glyph-name="Nacute.sc" horiz-adv-x="454" 
d="M484 523l-110 -523h-41l-159 445l-93 -445h-41l110 523h41l159 -445l94 445h40zM366 726h54l-123 -148h-40z" />
    <glyph glyph-name="Ncaron.sc" horiz-adv-x="454" 
d="M374 0l110 523h-40l-94 -445l-159 445h-41l-110 -523h41l93 445l159 -445h41zM459 725l-127 -147h-45l-64 147h48l43 -119l96 119h49z" />
    <glyph glyph-name="Ntilde.sc" horiz-adv-x="454" 
d="M484 523l-110 -523h-41l-159 445l-93 -445h-41l110 523h41l159 -445l94 445h40zM446 656l20 -26q-42 -52 -83 -52q-28 0 -53 28.5t-45 28.5q-26 0 -56 -36l-19 26q43 51 83 51q28 0 53 -28t45 -28q26 0 55 36z" />
    <glyph glyph-name="Ncommaaccent.sc" horiz-adv-x="454" 
d="M484 523l-110 -523h-41l-159 445l-93 -445h-41l110 523h41l159 -445l94 445h40zM231 -109l-7 -30l-77 -99h-9l27 129q3 14 14.5 24t24.5 10q16 0 23 -10t4 -24z" />
    <glyph glyph-name="Eng.sc" horiz-adv-x="454" 
d="M485 523l-118 -551q-37 -181 -191 -191l2 39q120 8 152 153l4 22l-159 450l-95 -445h-40l111 523h41l158 -445l95 445h40z" />
    <glyph glyph-name="Oacute.sc" horiz-adv-x="447" 
d="M448 262q-24 -114 -85.5 -190.5t-162.5 -76.5q-53 0 -87 22.5t-46.5 60t-14 85.5t11.5 99q12 54 31.5 99.5t49 85t73 62t95.5 22.5t86 -22.5t47 -62t13 -85.5t-11 -99zM407 262q48 225 -103 225q-44 0 -79.5 -19.5t-58.5 -53.5t-37.5 -71t-23.5 -81q-48 -225 104 -225
q58 0 101 35.5t64 82.5t33 107zM362 726h54l-123 -148h-40z" />
    <glyph glyph-name="Ograve.sc" horiz-adv-x="447" 
d="M448 262q-24 -114 -85.5 -190.5t-162.5 -76.5q-53 0 -87 22.5t-46.5 60t-14 85.5t11.5 99q12 54 31.5 99.5t49 85t73 62t95.5 22.5t86 -22.5t47 -62t13 -85.5t-11 -99zM407 262q48 225 -103 225q-44 0 -79.5 -19.5t-58.5 -53.5t-37.5 -71t-23.5 -81q-48 -225 104 -225
q58 0 101 35.5t64 82.5t33 107zM338 726l47 -148h-40l-61 148h54z" />
    <glyph glyph-name="Ocircumflex.sc" horiz-adv-x="447" 
d="M448 262q-24 -114 -85.5 -190.5t-162.5 -76.5q-53 0 -87 22.5t-46.5 60t-14 85.5t11.5 99q12 54 31.5 99.5t49 85t73 62t95.5 22.5t86 -22.5t47 -62t13 -85.5t-11 -99zM407 262q48 225 -103 225q-44 0 -79.5 -19.5t-58.5 -53.5t-37.5 -71t-23.5 -81q-48 -225 104 -225
q58 0 101 35.5t64 82.5t33 107zM385 725l65 -147h-48l-46 119l-94 -119h-47l126 147h44z" />
    <glyph glyph-name="Otilde.sc" horiz-adv-x="447" 
d="M448 262q-24 -114 -85.5 -190.5t-162.5 -76.5q-53 0 -87 22.5t-46.5 60t-14 85.5t11.5 99q12 54 31.5 99.5t49 85t73 62t95.5 22.5t86 -22.5t47 -62t13 -85.5t-11 -99zM407 262q48 225 -103 225q-44 0 -79.5 -19.5t-58.5 -53.5t-37.5 -71t-23.5 -81q-48 -225 104 -225
q58 0 101 35.5t64 82.5t33 107zM443 656l19 -26q-42 -52 -83 -52q-28 0 -53 28.5t-45 28.5q-26 0 -56 -36l-19 26q43 51 83 51q28 0 53 -28t45 -28q27 0 56 36z" />
    <glyph glyph-name="Odieresis.sc" horiz-adv-x="447" 
d="M448 262q-24 -114 -85.5 -190.5t-162.5 -76.5q-53 0 -87 22.5t-46.5 60t-14 85.5t11.5 99q12 54 31.5 99.5t49 85t73 62t95.5 22.5t86 -22.5t47 -62t13 -85.5t-11 -99zM407 262q48 225 -103 225q-44 0 -79.5 -19.5t-58.5 -53.5t-37.5 -71t-23.5 -81q-48 -225 104 -225
q58 0 101 35.5t64 82.5t33 107zM453 625q-4 -17 -16.5 -28t-27.5 -11q-14 0 -22.5 11.5t-4.5 27.5t17 27.5t27 11.5q15 0 23 -11.5t4 -27.5zM288 625q-4 -16 -17 -27.5t-28 -11.5q-14 0 -22 11.5t-5 27.5q4 16 16.5 27.5t27.5 11.5t23 -11.5t5 -27.5z" />
    <glyph glyph-name="Omacron.sc" horiz-adv-x="447" 
d="M448 262q-24 -114 -85.5 -190.5t-162.5 -76.5q-53 0 -87 22.5t-46.5 60t-14 85.5t11.5 99q12 54 31.5 99.5t49 85t73 62t95.5 22.5t86 -22.5t47 -62t13 -85.5t-11 -99zM407 262q48 225 -103 225q-44 0 -79.5 -19.5t-58.5 -53.5t-37.5 -71t-23.5 -81q-48 -225 104 -225
q58 0 101 35.5t64 82.5t33 107zM461 636l-9 -41h-244l9 41h244z" />
    <glyph glyph-name="Obreve.sc" horiz-adv-x="447" 
d="M448 262q-24 -114 -85.5 -190.5t-162.5 -76.5q-53 0 -87 22.5t-46.5 60t-14 85.5t11.5 99q12 54 31.5 99.5t49 85t73 62t95.5 22.5t86 -22.5t47 -62t13 -85.5t-11 -99zM407 262q48 225 -103 225q-44 0 -79.5 -19.5t-58.5 -53.5t-37.5 -71t-23.5 -81q-48 -225 104 -225
q58 0 101 35.5t64 82.5t33 107zM453 708h35q-72 -127 -165 -127t-111 127h35q11 -44 30 -66.5t55 -22.5t63.5 22.5t57.5 66.5z" />
    <glyph glyph-name="Ohungarumlaut.sc" horiz-adv-x="447" 
d="M448 262q-24 -114 -85.5 -190.5t-162.5 -76.5q-53 0 -87 22.5t-46.5 60t-14 85.5t11.5 99q12 54 31.5 99.5t49 85t73 62t95.5 22.5t86 -22.5t47 -62t13 -85.5t-11 -99zM407 262q48 225 -103 225q-44 0 -79.5 -19.5t-58.5 -53.5t-37.5 -71t-23.5 -81q-48 -225 104 -225
q58 0 101 35.5t64 82.5t33 107zM451 735h49l-117 -147h-35zM340 735h50l-117 -147h-35z" />
    <glyph glyph-name="Oslash.sc" horiz-adv-x="447" 
d="M448 262q-24 -114 -85.5 -190.5t-162.5 -76.5q-62 0 -103 37l-24 -32h-33l39 52q-43 77 -15 210q12 54 31.5 99.5t49 85t73 62t95.5 22.5q57 0 101 -37l23 30h32l-37 -49q45 -78 16 -213zM407 262q22 103 -4 172l-277 -363q32 -33 83 -33q150 0 198 224zM109 93l277 362
q-33 32 -82 32q-44 0 -79.5 -19.5t-58.5 -53.5t-37.5 -71t-23.5 -81q-22 -99 4 -169z" />
    <glyph glyph-name="Oslashacute.sc" horiz-adv-x="447" 
d="M448 262q-24 -114 -85.5 -190.5t-162.5 -76.5q-62 0 -103 37l-24 -32h-33l39 52q-43 77 -15 210q12 54 31.5 99.5t49 85t73 62t95.5 22.5q57 0 101 -37l23 30h32l-37 -49q45 -78 16 -213zM407 262q22 103 -4 172l-277 -363q32 -33 83 -33q150 0 198 224zM109 93l277 362
q-33 32 -82 32q-44 0 -79.5 -19.5t-58.5 -53.5t-37.5 -71t-23.5 -81q-22 -99 4 -169zM365 726h54l-123 -148h-40z" />
    <glyph glyph-name="OE.sc" horiz-adv-x="687" 
d="M640 43l-9 -43h-285l20 100q-66 -106 -170 -106q-51 0 -84 22t-46 61t-13 84.5t11 99.5q12 54 31 100t48.5 85t72 61.5t93.5 22.5q109 0 127 -105l21 98h285l-10 -43h-245l-40 -187h213l-9 -41h-213l-44 -209h246zM401 261q46 225 -101 225q-43 0 -78 -19.5t-57.5 -53.5
t-37 -71t-23.5 -81q-48 -224 100 -224q149 0 197 224z" />
    <glyph glyph-name="Racute.sc" horiz-adv-x="436" 
d="M299 84l-34 104q-8 24 -20 37.5t-34 13.5h-80l-50 -239h-41l110 523h166q71 0 106 -35t19 -107q-12 -60 -54.5 -97.5t-108.5 -42.5q20 -19 28 -47l30 -89q21 -59 83 -69l-9 -36q-87 18 -111 84zM401 380q22 101 -93 101h-125l-44 -202h125q116 0 137 101zM320 726h55
l-124 -148h-40z" />
    <glyph glyph-name="Rcaron.sc" horiz-adv-x="436" 
d="M265 188l34 -104q24 -66 111 -84l9 36q-62 10 -83 69l-30 89q-8 28 -28 47q66 5 108.5 42.5t54.5 97.5q16 72 -19 107t-106 35h-166l-110 -523h41l50 239h80q22 0 34 -13.5t20 -37.5zM401 380q-21 -101 -137 -101h-125l44 202h125q115 0 93 -101zM429 725l-127 -147h-44
l-64 147h48l43 -119l96 119h48z" />
    <glyph glyph-name="Rcommaaccent.sc" horiz-adv-x="436" 
d="M299 84l-34 104q-8 24 -20 37.5t-34 13.5h-80l-50 -239h-41l110 523h166q71 0 106 -35t19 -107q-12 -60 -54.5 -97.5t-108.5 -42.5q20 -19 28 -47l30 -89q21 -59 83 -69l-9 -36q-87 18 -111 84zM401 380q22 101 -93 101h-125l-44 -202h125q116 0 137 101zM231 -109
l-7 -30l-77 -99h-9l27 129q3 14 14.5 24t24.5 10q15 0 22.5 -10t4.5 -24z" />
    <glyph glyph-name="Sacute.sc" horiz-adv-x="423" 
d="M399 145q-16 -71 -75 -111.5t-127 -40.5q-156 0 -157 134l40 9q3 -102 126 -102q51 0 96.5 29t56.5 82q9 44 -16.5 69t-67 36t-82.5 23.5t-65.5 42t-13.5 80.5q13 66 66 99t116 33q114 0 143 -101l-39 -18q-21 77 -113 77q-47 0 -85 -22t-48 -68q-8 -38 18 -59.5
t67.5 -32.5t82.5 -24t65 -46.5t12 -88.5zM351 726h54l-123 -148h-40z" />
    <glyph glyph-name="Scedilla.sc" horiz-adv-x="423" 
d="M218 -5l11 -64l-91 -128h-51l111 131l-12 59q-145 7 -145 134l40 9q4 -102 126 -102q51 0 96.5 29t56.5 82q10 44 -15.5 69t-67 36t-83 23.5t-66 42t-13.5 80.5q14 66 66.5 99t115.5 33q116 0 143 -101l-39 -18q-23 77 -113 77q-47 0 -85 -22t-48 -68q-8 -38 18 -59.5
t67.5 -32.5t82.5 -24t65 -46.5t12 -88.5q-14 -67 -66.5 -106t-115.5 -44z" />
    <glyph glyph-name="Scircumflex.sc" horiz-adv-x="423" 
d="M399 145q-16 -71 -75 -111.5t-127 -40.5q-156 0 -157 134l40 9q3 -102 126 -102q51 0 96.5 29t56.5 82q9 44 -16.5 69t-67 36t-82.5 23.5t-65.5 42t-13.5 80.5q13 66 66 99t116 33q114 0 143 -101l-39 -18q-21 77 -113 77q-47 0 -85 -22t-48 -68q-8 -38 18 -59.5
t67.5 -32.5t82.5 -24t65 -46.5t12 -88.5zM374 725l64 -147h-48l-46 119l-93 -119h-48l126 147h45z" />
    <glyph glyph-name="Scaron.sc" horiz-adv-x="423" 
d="M399 145q12 55 -12 88.5t-65 46.5t-82.5 24t-67.5 32.5t-18 59.5q10 46 48 68t85 22q92 0 113 -77l39 18q-29 101 -143 101q-63 0 -116 -33t-66 -99q-11 -51 13.5 -80.5t65.5 -42t82.5 -23.5t67 -36t16.5 -69q-11 -53 -56.5 -82t-96.5 -29q-123 0 -126 102l-40 -9
q1 -134 157 -134q68 0 127 40.5t75 111.5zM443 725l-127 -147h-44l-64 147h47l44 -119l96 119h48z" />
    <glyph glyph-name="Scommaaccent.sc" horiz-adv-x="423" 
d="M399 145q-16 -71 -75 -111.5t-127 -40.5q-156 0 -157 134l40 9q3 -102 126 -102q51 0 96.5 29t56.5 82q9 44 -16.5 69t-67 36t-82.5 23.5t-65.5 42t-13.5 80.5q13 66 66 99t116 33q114 0 143 -101l-39 -18q-21 77 -113 77q-47 0 -85 -22t-48 -68q-8 -38 18 -59.5
t67.5 -32.5t82.5 -24t65 -46.5t12 -88.5zM217 -109l-7 -30l-77 -99h-9l28 129q2 14 14 24t25 10q15 0 22 -10t4 -24z" />
    <glyph glyph-name="germandbls.sc" horiz-adv-x="853" 
d="M399 145q-16 -71 -75 -111.5t-127 -40.5q-156 0 -157 134l40 9q3 -102 126 -102q51 0 96.5 29t56.5 82q9 44 -16.5 69t-67 36t-82.5 23.5t-65.5 42t-13.5 80.5q13 66 66 99t116 33q114 0 143 -101l-39 -18q-21 77 -113 77q-47 0 -85 -22t-48 -68q-8 -38 18 -59.5
t67.5 -32.5t82.5 -24t65 -46.5t12 -88.5zM822 145q-15 -71 -74 -111.5t-127 -40.5q-156 0 -157 134l40 9q3 -102 125 -102q52 0 97.5 29t56.5 82q9 44 -16.5 69t-67 36t-83 23.5t-66 42t-13.5 80.5q14 66 67 99t116 33q114 0 143 -101l-39 -18q-12 42 -40 59.5t-74 17.5
q-47 0 -84.5 -22t-47.5 -68q-7 -32 10.5 -53t49 -29.5t67.5 -20.5t66 -25.5t45.5 -44.5t5.5 -78z" />
    <glyph glyph-name="Tcaron.sc" horiz-adv-x="373" 
d="M429 480l9 43h-350l-8 -43h154l-102 -480h41l102 480h154zM417 725l-127 -147h-44l-64 147h48l43 -119l96 119h48z" />
    <glyph glyph-name="Tcommaaccent.sc" horiz-adv-x="373" 
d="M437 523l-8 -43h-154l-102 -480h-41l102 480h-154l8 43h349zM165 -109l-7 -30l-77 -99h-9l27 129q3 14 14.5 24t24.5 10q16 0 23 -10t4 -24z" />
    <glyph glyph-name="Tbar.sc" horiz-adv-x="373" 
d="M329 296l-7 -36h-94l-55 -260h-40l55 260h-94l8 36h93l39 184h-154l8 43h350l-9 -43h-154l-40 -184h94z" />
    <glyph glyph-name="Uacute.sc" horiz-adv-x="457" 
d="M499 524l-63 -300q-24 -109 -76.5 -169.5t-147.5 -60.5q-175 0 -125 230l63 300h41l-63 -299q-9 -41 -10.5 -72t6.5 -58.5t32.5 -42.5t64.5 -15q76 0 116 50.5t59 137.5l63 299h40zM368 726h55l-124 -148h-40z" />
    <glyph glyph-name="Ugrave.sc" horiz-adv-x="457" 
d="M499 524l-63 -300q-24 -109 -76.5 -169.5t-147.5 -60.5q-175 0 -125 230l63 300h41l-63 -299q-9 -41 -10.5 -72t6.5 -58.5t32.5 -42.5t64.5 -15q76 0 116 50.5t59 137.5l63 299h40zM345 726l46 -148h-40l-60 148h54z" />
    <glyph glyph-name="Ucircumflex.sc" horiz-adv-x="457" 
d="M499 524l-63 -300q-24 -109 -76.5 -169.5t-147.5 -60.5q-175 0 -125 230l63 300h41l-63 -299q-9 -41 -10.5 -72t6.5 -58.5t32.5 -42.5t64.5 -15q76 0 116 50.5t59 137.5l63 299h40zM392 725l64 -147h-48l-46 119l-94 -119h-47l126 147h45z" />
    <glyph glyph-name="Utilde.sc" horiz-adv-x="457" 
d="M499 524l-63 -300q-24 -109 -76.5 -169.5t-147.5 -60.5q-175 0 -125 230l63 300h41l-63 -299q-9 -41 -10.5 -72t6.5 -58.5t32.5 -42.5t64.5 -15q76 0 116 50.5t59 137.5l63 299h40zM449 656l19 -26q-42 -52 -82 -52q-28 0 -53 28.5t-45 28.5q-26 0 -56 -36l-19 26
q43 51 83 51q28 0 52.5 -28t44.5 -28q27 0 56 36z" />
    <glyph glyph-name="Udieresis.sc" horiz-adv-x="457" 
d="M499 524l-63 -300q-24 -109 -76.5 -169.5t-147.5 -60.5q-175 0 -125 230l63 300h41l-63 -299q-9 -41 -10.5 -72t6.5 -58.5t32.5 -42.5t64.5 -15q76 0 116 50.5t59 137.5l63 299h40zM459 625q-3 -16 -16 -27.5t-27 -11.5q-15 0 -23.5 11.5t-4.5 27.5t17 27.5t27 11.5
q15 0 23 -11.5t4 -27.5zM294 625q-4 -16 -17 -27.5t-28 -11.5q-14 0 -22 11.5t-4 27.5q3 16 16 27.5t27 11.5q15 0 23.5 -11.5t4.5 -27.5z" />
    <glyph glyph-name="Umacron.sc" horiz-adv-x="457" 
d="M499 524l-63 -300q-24 -109 -76.5 -169.5t-147.5 -60.5q-175 0 -125 230l63 300h41l-63 -299q-9 -41 -10.5 -72t6.5 -58.5t32.5 -42.5t64.5 -15q76 0 116 50.5t59 137.5l63 299h40zM467 636l-9 -41h-244l9 41h244z" />
    <glyph glyph-name="Ubreve.sc" horiz-adv-x="457" 
d="M499 524l-63 -300q-24 -109 -76.5 -169.5t-147.5 -60.5q-175 0 -125 230l63 300h41l-63 -299q-9 -41 -10.5 -72t6.5 -58.5t32.5 -42.5t64.5 -15q76 0 116 50.5t59 137.5l63 299h40zM460 708h35q-70 -127 -165 -127q-93 0 -111 127h35q11 -44 30 -66.5t55 -22.5t64 22.5
t57 66.5z" />
    <glyph glyph-name="Uring.sc" horiz-adv-x="457" 
d="M499 524l-63 -300q-24 -109 -76.5 -169.5t-147.5 -60.5q-175 0 -125 230l63 300h41l-63 -299q-9 -41 -10.5 -72t6.5 -58.5t32.5 -42.5t64.5 -15q76 0 116 50.5t59 137.5l63 299h40zM447 678q-8 -40 -41 -69t-70 -29t-57.5 29t-12.5 69q9 41 42 69.5t70 28.5q38 0 58 -29
t11 -69zM410 678q5 24 -7 41t-33 17q-22 0 -41.5 -17t-24.5 -41t7 -41t34 -17t41 17t24 41z" />
    <glyph glyph-name="Uhungarumlaut.sc" horiz-adv-x="457" 
d="M499 524l-63 -300q-24 -109 -76.5 -169.5t-147.5 -60.5q-175 0 -125 230l63 300h41l-63 -299q-9 -41 -10.5 -72t6.5 -58.5t32.5 -42.5t64.5 -15q76 0 116 50.5t59 137.5l63 299h40zM439 735h49l-117 -147h-35zM328 735h50l-117 -147h-35z" />
    <glyph glyph-name="Uogonek.sc" horiz-adv-x="457" 
d="M277 3l69 -200h-51l-52 194q-13 -3 -31 -3q-175 0 -125 230l63 300h41l-63 -299q-9 -41 -10.5 -72t6.5 -58.5t32.5 -42.5t64.5 -15q76 0 116 50.5t59 137.5l63 299h40l-63 -300q-41 -185 -159 -221z" />
    <glyph glyph-name="Wacute.sc" horiz-adv-x="509" 
d="M563 524h41l-223 -524h-43l-2 438l-186 -438h-44l-1 524h41l-2 -446l191 446h39l1 -446zM457 726h54l-123 -148h-40z" />
    <glyph glyph-name="Wgrave.sc" horiz-adv-x="509" 
d="M563 524h41l-223 -524h-43l-2 438l-186 -438h-44l-1 524h41l-2 -446l191 446h39l1 -446zM338 726l47 -148h-40l-61 148h54z" />
    <glyph glyph-name="Wcircumflex.sc" horiz-adv-x="509" 
d="M563 524h41l-223 -524h-43l-2 438l-186 -438h-44l-1 524h41l-2 -446l191 446h39l1 -446zM418 725l65 -147h-48l-46 119l-94 -119h-47l126 147h44z" />
    <glyph glyph-name="Wdieresis.sc" horiz-adv-x="509" 
d="M563 524h41l-223 -524h-43l-2 438l-186 -438h-44l-1 524h41l-2 -446l191 446h39l1 -446zM486 625q-4 -17 -16.5 -28t-27.5 -11q-14 0 -22.5 11.5t-4.5 27.5q3 16 16 27.5t28 11.5t23 -11.5t4 -27.5zM320 625q-3 -16 -16 -27.5t-28 -11.5t-23 11.5t-4 27.5t16.5 27.5
t26.5 11.5q15 0 23.5 -11.5t4.5 -27.5z" />
    <glyph glyph-name="Yacute.sc" horiz-adv-x="339" 
d="M420 523h44l-233 -351l-36 -172h-41l36 174l-85 349h45l72 -300zM333 726h54l-123 -148h-40z" />
    <glyph glyph-name="Ygrave.sc" horiz-adv-x="339" 
d="M420 523h44l-233 -351l-36 -172h-41l36 174l-85 349h45l72 -300zM288 726l47 -148h-40l-61 148h54z" />
    <glyph glyph-name="Ycircumflex.sc" horiz-adv-x="339" 
d="M420 523h44l-233 -351l-36 -172h-41l36 174l-85 349h45l72 -300zM350 725l65 -147h-48l-47 119l-93 -119h-47l126 147h44z" />
    <glyph glyph-name="Ydieresis.sc" horiz-adv-x="339" 
d="M420 523h44l-233 -351l-36 -172h-41l36 174l-85 349h45l72 -300zM426 625q-4 -17 -16.5 -28t-27.5 -11q-14 0 -22.5 11.5t-4.5 27.5t17 27.5t27 11.5q15 0 23 -11.5t4 -27.5zM261 625q-4 -16 -17 -27.5t-28 -11.5q-14 0 -22 11.5t-5 27.5q4 16 16.5 27.5t27.5 11.5
t23 -11.5t5 -27.5z" />
    <glyph glyph-name="Zacute.sc" horiz-adv-x="436" 
d="M360 33l13 -37q-34 -10 -77 -10q-27 0 -88 7t-99 7q-41 0 -90 -9l-10 28l390 461h-256l8 43h309l-8 -38l-387 -455q25 5 61 5q30 0 86.5 -5.5t81.5 -5.5q40 0 66 9zM343 726h55l-124 -148h-40z" />
    <glyph glyph-name="Zcaron.sc" horiz-adv-x="436" 
d="M373 -4l-13 37q-26 -9 -66 -9q-25 0 -81.5 5.5t-86.5 5.5q-36 0 -61 -5l387 455l8 38h-309l-8 -43h256l-390 -461l10 -28q49 9 90 9q38 0 99 -7t88 -7q43 0 77 10zM457 725l-127 -147h-44l-64 147h48l43 -119l96 119h48z" />
    <glyph glyph-name="Zdotaccent.sc" horiz-adv-x="436" 
d="M360 33l13 -37q-34 -10 -77 -10q-27 0 -88 7t-99 7q-41 0 -90 -9l-10 28l390 461h-256l8 43h309l-8 -38l-387 -455q25 5 61 5q30 0 86.5 -5.5t81.5 -5.5q40 0 66 9zM351 629q-5 -18 -20.5 -32t-33.5 -14q-17 0 -26.5 14t-5.5 32q4 20 19 34t33 14q17 0 27.5 -14.5
t6.5 -33.5z" />
    <glyph glyph-name="Thorn.sc" horiz-adv-x="418" 
d="M436 270q-30 -145 -191 -145h-138l-26 -125h-41l110 523h41l-23 -109h138q161 0 130 -144zM396 270q12 58 -15.5 80t-83.5 22h-138l-43 -204h138q56 0 93 22t49 80z" />
    <glyph glyph-name="ringacutecomp" horiz-adv-x="483" 
d="M283 825h37l-63 -78l11 1q31 0 48.5 -24.5t9.5 -59.5q-7 -35 -34.5 -59.5t-58.5 -24.5t-48.5 24.5t-10.5 59.5q8 34 31 55zM299 664q5 22 -6 38t-31 16t-38 -15.5t-23 -38.5t6.5 -39t31.5 -16t37.5 16t22.5 39z" />
    <glyph glyph-name="hyphen.cap" horiz-adv-x="60" 
 />
    <glyph glyph-name="exclamdown.cap" horiz-adv-x="125" 
 />
    <glyph glyph-name="questiondown.cap" horiz-adv-x="142" 
 />
    </font>
</defs>
</svg>
