<?xml version="1.0" standalone="no"?>
<!DOCTYPE svg PUBLIC "-//W3C//DTD SVG 1.1//EN" "http://www.w3.org/Graphics/SVG/1.1/DTD/svg11.dtd" >
<svg>
<metadata>
Created by FontForge 20090622 at Wed Mar 13 11:13:27 2019
 By deploy user
Copyright (c) 2008 by Neil Summerour. All rights reserved.
</metadata>
<defs>
<font id="AauxNext-Bold" horiz-adv-x="501" >
  <font-face 
    font-family="Aaux Next Bold"
    font-weight="400"
    font-stretch="normal"
    units-per-em="1000"
    panose-1="2 0 5 6 0 0 0 2 0 4"
    ascent="800"
    descent="-200"
    x-height="492"
    cap-height="698"
    bbox="-118 -320 1104 1055"
    underline-thickness="50"
    underline-position="-50"
    unicode-range="U+0020-U+FB04"
  />
<missing-glyph horiz-adv-x="296" 
 />
    <glyph glyph-name="f_f" unicode="ff" horiz-adv-x="627" 
d="M396 391h-188v-391h-116v391h-42v101h42v57q0 48 14 78.5t44.5 45t62 19.5t82.5 6v-97q-47 -1 -67 -18t-20 -65v-26h188v57q0 48 14 78.5t44 45t61.5 19.5t82.5 6v-97q-47 -1 -67 -18t-20 -65v-26h76v-101h-76v-391h-115v391z" />
    <glyph glyph-name="f_l" unicode="fl" horiz-adv-x="573" 
d="M537 101l1 -101q-78 1 -115.5 31t-37.5 105v465h-90q-47 0 -67 -17.5t-20 -65.5v-26h76v-101h-76v-391h-116v391h-42v101h42v57q0 39 10.5 66.5t26.5 43t44 24.5t55.5 12t66.5 3h203v-560q0 -36 39 -37z" />
    <glyph glyph-name="f_f_i" unicode="ffi" horiz-adv-x="882" 
d="M396 391h-188v-391h-116v391h-42v101h42v57q0 48 14 78.5t44.5 45t62 19.5t82.5 6v-97q-47 -1 -67 -18t-20 -65v-26h188v57q0 48 14 78.5t44 45t61.5 19.5t82.5 6v-97q-47 -1 -67 -18t-20 -65v-26h301v-492h-117v391h-184v-391h-115v391zM825 652q0 -29 -21 -50t-50 -21
t-49.5 21t-20.5 50t20.5 49.5t49.5 20.5t50 -20.5t21 -49.5z" />
    <glyph glyph-name="f_f_l" unicode="ffl" horiz-adv-x="876" 
d="M295 698v-97q-47 -1 -67 -18t-20 -65v-26h188v57q0 39 10 66.5t26.5 43t44 25t55 12t66.5 2.5h204v-560q0 -19 8.5 -27.5t29.5 -9.5l1 -101q-77 1 -115 31t-38 105v465h-90q-47 0 -67 -17.5t-20 -65.5v-26h76v-101h-76v-391h-115v391h-188v-391h-116v391h-42v101h42v57
q0 48 14 78.5t44.5 45t62 19.5t82.5 6z" />
    <glyph glyph-name="f_b" unicode="fb" horiz-adv-x="833" 
d="M295 698h214v-227q34 29 90 29q53 0 92.5 -20.5t61.5 -56.5t32.5 -80t10.5 -96q0 -114 -49 -185.5t-158 -71.5q-27 0 -55.5 10.5t-42.5 30.5l-5 -31h-97v601h-94q-47 0 -67 -17.5t-20 -65.5v-26h76v-101h-76v-391h-116v391h-42v101h42v57q0 39 10.5 66.5t26.5 43t44 24.5
t55.5 12t66.5 3zM677 246q0 28 -2.5 48t-10.5 43.5t-27 35.5t-48 12q-35 0 -57.5 -20t-22.5 -55v-128q0 -36 22.5 -55.5t57.5 -19.5q29 0 48 12t27 35.5t10.5 43.5t2.5 48z" />
    <glyph glyph-name="f_f_b" unicode="ffb" horiz-adv-x="1136" 
d="M980 246q0 76 -20.5 107.5t-67.5 31.5q-31 0 -55.5 -17t-24.5 -58v-128q0 -34 21 -54.5t59 -20.5q45 0 66.5 32t21.5 107zM598 698h214v-227q32 29 91 29q54 0 93.5 -20.5t61.5 -57t32 -80t10 -95.5q0 -53 -11 -97t-34 -81t-64.5 -58t-97.5 -21q-69 0 -99 41l-5 -31h-96
v601h-95q-19 0 -32 -2.5t-27 -10t-21 -25t-7 -45.5v-26h76v-101h-76v-391h-115v391h-188v-391h-116v391h-42v101h42v57q0 83 44.5 115t158.5 34v-97q-52 -1 -69.5 -21t-17.5 -62v-26h188v57q0 80 42 114.5t160 34.5z" />
    <glyph glyph-name="f_h" unicode="fh" horiz-adv-x="843" 
d="M295 698h214v-233q31 36 96 36q96 0 143.5 -62t47.5 -165v-274h-119v274q0 109 -88 109q-30 0 -55 -21.5t-25 -53.5v-308h-120v601h-94q-47 0 -67 -17.5t-20 -65.5v-26h76v-101h-76v-391h-116v391h-42v101h42v57q0 39 10.5 66.5t26.5 43t44 24.5t55.5 12t66.5 3z" />
    <glyph glyph-name="f_f_h" unicode="ffh" horiz-adv-x="1147" 
d="M208 492h188v57q0 48 14 78.5t43.5 45.5t62 20t82.5 5h214v-233q32 36 97 36q96 0 143.5 -62t47.5 -165v-274h-120v274q0 109 -88 109q-29 0 -54.5 -21.5t-25.5 -53.5v-308h-119v601h-95q-47 0 -67 -17.5t-20 -65.5v-26h76v-101h-76v-391h-115v391h-188v-391h-116v391
h-42v101h42v57q0 48 14 78.5t44.5 45t62 19.5t82.5 6v-97q-47 -1 -67 -18t-20 -65v-26z" />
    <glyph glyph-name="f_i" unicode="fi" horiz-adv-x="578" 
d="M509 492v-492h-117v391h-184v-391h-116v391h-42v101h42v57q0 48 14 78.5t44.5 45t62 19.5t82.5 6v-97q-47 -1 -67 -18t-20 -65v-26h301zM521 652q0 -29 -20.5 -50t-49.5 -21t-49.5 21t-20.5 50t20.5 49.5t49.5 20.5t49.5 -20.5t20.5 -49.5z" />
    <glyph glyph-name="f_j" unicode="fj" horiz-adv-x="586" 
d="M516 492v-523q0 -77 -42 -124.5t-119 -56.5l-37 101q82 15 82 91v411h-192v-391h-116v391h-42v101h42v57q0 48 14 78.5t44.5 45t62 19.5t82.5 6v-97q-47 -1 -67 -18t-20 -65v-26h308zM530 652q0 -29 -21 -50t-50 -21t-50 21t-21 50t21 49.5t50 20.5t50 -20.5t21 -49.5z
" />
    <glyph glyph-name="f_f_j" unicode="ffj" horiz-adv-x="890" 
d="M598 698v-97q-47 -1 -67 -18t-20 -65v-26h308v-523q0 -77 -42 -124.5t-119 -56.5l-36 101q82 15 82 91v411h-193v-391h-115v391h-188v-391h-116v391h-42v101h42v57q0 48 14 78.5t44.5 45t62 19.5t82.5 6v-97q-47 -1 -67 -18t-20 -65v-26h188v57q0 48 14 78.5t44 45
t61.5 19.5t82.5 6zM833 652q0 -29 -21 -50t-50 -21t-49.5 21t-20.5 50t20.5 49.5t49.5 20.5t50 -20.5t21 -49.5z" />
    <glyph glyph-name="f_k" unicode="fk" horiz-adv-x="801" 
d="M295 698h205v-698h-115v601h-90q-47 0 -67 -17.5t-20 -65.5v-26h76v-101h-76v-391h-116v391h-42v101h42v57q0 39 10.5 66.5t26.5 43t44 24.5t55.5 12t66.5 3zM626 271l175 -271h-129l-167 270l141 222h124z" />
    <glyph glyph-name="f_f_k" unicode="ffk" horiz-adv-x="1104" 
d="M598 698h206v-698h-116v601h-90q-47 0 -67 -17.5t-20 -65.5v-26h76v-101h-76v-391h-115v391h-188v-391h-116v391h-42v101h42v57q0 48 14 78.5t44.5 45t62 19.5t82.5 6v-97q-47 -1 -67 -18t-20 -65v-26h188v57q0 39 10 66.5t26.5 43t44 25t55 12t66.5 2.5zM930 271
l174 -271h-128l-167 270l140 222h125z" />
    <glyph glyph-name=".notdef" horiz-adv-x="296" 
 />
    <glyph glyph-name=".null" horiz-adv-x="0" 
 />
    <glyph glyph-name="nonmarkingreturn" horiz-adv-x="333" 
 />
    <glyph glyph-name="space" unicode=" " horiz-adv-x="296" 
 />
    <glyph glyph-name="exclam" unicode="!" horiz-adv-x="322" 
d="M101 698h120v-295l-7 -198h-106l-7 198v295zM238 67q0 -31 -23 -54t-54 -23t-54 23t-23 54t23 54t54 23t54 -23t23 -54z" />
    <glyph glyph-name="quotedbl" unicode="&#x22;" horiz-adv-x="411" 
d="M349 687v-160h-108v160q0 23 15.5 38.5t37.5 15.5q23 0 39 -16t16 -38zM170 687v-160h-108v160q0 22 15.5 38t37.5 16q23 0 39 -16t16 -38z" />
    <glyph glyph-name="numbersign" unicode="#" horiz-adv-x="720" 
d="M550 502h119l-22 -99h-119l-23 -108h119l-22 -99h-118l-43 -196h-103l43 196h-109l-42 -196h-103l42 196h-118l22 99h118l23 108h-118l22 99h118l43 196h103l-43 -196h108l43 196h103zM403 295l23 108h-108l-24 -108h109z" />
    <glyph glyph-name="dollar" unicode="$" horiz-adv-x="554" 
d="M505 229q0 -73 -49.5 -121.5t-123.5 -60.5v-47h-95v47q-70 10 -118.5 52t-68.5 110l100 27q18 -66 87 -84v167q-80 20 -127 56t-47 107q0 69 50.5 110.5t123.5 50.5v55h95v-54q90 -14 148 -96l-77 -63q-26 38 -71 55v-138q173 -47 173 -173zM237 426v113q-66 -11 -66 -57
q0 -16 11.5 -28t22.5 -16.5t32 -11.5zM397 226q0 45 -65 65v-139q28 7 46.5 26.5t18.5 47.5z" />
    <glyph glyph-name="percent" unicode="%" horiz-adv-x="830" 
d="M778 189q0 -84 -37.5 -141.5t-118.5 -57.5q-79 0 -117 57.5t-38 141.5q0 83 38 141t117 58q81 0 118.5 -58t37.5 -141zM515 698h116l-316 -698h-117zM362 509q0 -84 -37.5 -141.5t-117.5 -57.5t-118 57.5t-38 141.5q0 83 38 140.5t118 57.5t117.5 -57.5t37.5 -140.5z
M683 189q0 105 -61 105q-60 0 -60 -105t60 -105q61 0 61 105zM267 509q0 105 -60 105t-60 -105q0 -106 60 -106t60 106z" />
    <glyph glyph-name="ampersand" unicode="&#x26;" horiz-adv-x="702" 
d="M621 62l-79 -77l-65 64q-76 -59 -198 -59q-95 0 -158 55t-63 148q0 65 28.5 111t87.5 90q-23 31 -33 47t-19.5 42.5t-9.5 55.5q0 75 49 121t124 46t125 -46.5t50 -120.5q0 -95 -129 -174q46 -58 136 -150q37 48 35 121h116q-2 -130 -66 -203zM342 540q0 24 -16.5 41.5
t-40.5 17.5q-25 0 -42 -16.5t-17 -42.5q0 -38 42 -91q23 15 35.5 24.5t25.5 28t13 38.5zM397 133q-85 82 -153 170q-63 -44 -63 -105q0 -46 34 -72t81 -26q56 0 101 33z" />
    <glyph glyph-name="quotesingle" unicode="'" horiz-adv-x="234" 
d="M171 687v-160h-108v160q0 22 15.5 38t37.5 16q23 0 39 -16t16 -38z" />
    <glyph glyph-name="parenleft" unicode="(" horiz-adv-x="387" 
d="M55 349q0 96 39 188t114 161h129q-174 -147 -174 -349q0 -196 174 -349h-129q-76 66 -114.5 158.5t-38.5 190.5z" />
    <glyph glyph-name="parenright" unicode=")" horiz-adv-x="387" 
d="M337 349q0 -98 -38.5 -190.5t-114.5 -158.5h-129q174 153 174 349q0 202 -174 349h129q75 -69 114 -161t39 -188z" />
    <glyph glyph-name="asterisk" unicode="*" horiz-adv-x="479" 
d="M402 632l27 -87l-122 -35l78 -102l-73 -52l-72 105l-72 -105l-74 52l78 102l-122 35l27 87l121 -44l-3 128h90l-4 -128z" />
    <glyph glyph-name="plus" unicode="+" horiz-adv-x="534" 
d="M485 328v-108h-164v-164h-108v164h-164v108h164v164h108v-164h164z" />
    <glyph glyph-name="comma" unicode="," horiz-adv-x="274" 
d="M222 69v-68l-97 -158h-58v226q0 32 22.5 54.5t54.5 22.5t55 -22.5t23 -54.5z" />
    <glyph glyph-name="hyphen" unicode="-" horiz-adv-x="413" 
d="M352 316v-93h-291v93h291z" />
    <glyph glyph-name="period" unicode="." horiz-adv-x="299" 
d="M228 69q0 -33 -23 -55.5t-56 -22.5q-32 0 -55 22.5t-23 55.5q0 32 23 55t55 23t55.5 -23t23.5 -55z" />
    <glyph glyph-name="slash" unicode="/" horiz-adv-x="445" 
d="M330 775h111l-326 -852h-111z" />
    <glyph glyph-name="zero" unicode="0" horiz-adv-x="607" 
d="M557 351q0 -51 -7.5 -99.5t-26.5 -96.5t-47 -83.5t-72 -57.5t-99 -22q-69 0 -120.5 32.5t-79.5 86.5t-41.5 114t-13.5 124q0 65 13.5 125t41.5 114t79.5 86.5t120.5 32.5q68 0 119 -32.5t79 -86t41 -113t13 -124.5zM431 349q0 37 -4.5 72t-16.5 75.5t-39 65t-66 24.5
q-40 0 -67.5 -24.5t-40 -64.5t-17 -75t-4.5 -73t4.5 -72.5t16.5 -75t40 -65t68 -24.5t67 24.5t39 65t16 75t4 72.5z" />
    <glyph glyph-name="one" unicode="1" horiz-adv-x="401" 
d="M296 698v-698h-121v541l-94 -56l-56 94l180 119h91z" />
    <glyph glyph-name="two" unicode="2" horiz-adv-x="553" 
d="M502 119v-119h-440v80q3 59 27 111t58 86.5t72.5 67t71 56t54 50.5t21.5 53q0 38 -29 60.5t-68 22.5q-67 0 -110 -85l-106 62q37 71 88 107t127 36q97 0 160 -54.5t63 -149.5q0 -53 -25.5 -96t-64 -74l-78.5 -60.5t-74.5 -69t-45.5 -84.5h299z" />
    <glyph glyph-name="three" unicode="3" horiz-adv-x="545" 
d="M495 211q0 -97 -64.5 -158t-161.5 -61q-172 0 -227 157l113 47q11 -38 40.5 -61t69.5 -23q45 0 76 27.5t31 71.5q0 104 -142 102v98q125 -2 125 91q0 36 -29.5 59.5t-67.5 23.5q-71 0 -99 -75l-110 48q59 147 214 147q90 0 152 -57t62 -146q0 -86 -69 -136
q39 -23 63 -65.5t24 -89.5z" />
    <glyph glyph-name="four" unicode="4" horiz-adv-x="556" 
d="M514 270v-115h-54v-155h-116v155h-312v104l270 439h132l-259 -428h169v196l116 -14v-182h54z" />
    <glyph glyph-name="five" unicode="5" horiz-adv-x="547" 
d="M505 245q0 -113 -61.5 -181t-174.5 -68q-165 0 -221 174l115 37q30 -91 106 -91q55 0 84.5 37t29.5 92q0 53 -29.5 88t-83.5 35q-56 0 -98 -45h-105v375h390v-118h-277v-127q38 28 96 28q107 0 168 -65.5t61 -170.5z" />
    <glyph glyph-name="six" unicode="6" horiz-adv-x="549" 
d="M507 226q0 -105 -61 -169.5t-166 -64.5q-106 0 -168 76t-62 184q0 134 55.5 250.5t159.5 195.5h149q-85 -68 -140 -133t-81 -148q38 39 99 39q97 0 156 -65.5t59 -164.5zM384 229q0 48 -29.5 80t-77.5 32q-45 0 -73.5 -33.5t-28.5 -80.5q0 -45 29.5 -77t74.5 -32t75 32.5
t30 78.5z" />
    <glyph glyph-name="seven" unicode="7" horiz-adv-x="504" 
d="M472 698v-104q-104 -135 -150 -274t-45 -320h-130q0 163 49 314t141 268h-200v-58h-105v174h440z" />
    <glyph glyph-name="eight" unicode="8" horiz-adv-x="551" 
d="M510 214q0 -101 -66.5 -162.5t-169.5 -61.5q-101 0 -166.5 61.5t-65.5 162.5q0 52 27 96t74 73q-34 18 -55 56.5t-21 76.5q0 83 61.5 137t145.5 54q86 0 147 -54t61 -137q0 -38 -20.5 -76t-54.5 -57q103 -64 103 -169zM361 512q0 35 -25.5 58.5t-61.5 23.5
q-35 0 -61 -23.5t-26 -58.5q0 -36 25.5 -60t61.5 -24t61.5 24t25.5 60zM384 219q0 45 -32 76t-78 31q-45 0 -76.5 -31t-31.5 -77q0 -44 33 -74.5t76 -30.5q47 0 78 30t31 76z" />
    <glyph glyph-name="nine" unicode="9" horiz-adv-x="545" 
d="M499 446q0 -135 -50.5 -250.5t-154.5 -195.5h-160q87 70 141.5 132.5t79.5 145.5q-33 -34 -95 -34q-96 0 -157.5 64t-61.5 160q0 104 62 171.5t165 67.5q106 0 168.5 -76.5t62.5 -184.5zM368 477q0 45 -29.5 77t-74.5 32q-44 0 -73.5 -32.5t-29.5 -77.5q0 -47 29.5 -79
t75.5 -32t74 33t28 79z" />
    <glyph glyph-name="colon" unicode=":" horiz-adv-x="299" 
d="M228 363q0 -32 -23.5 -55t-55.5 -23t-55 23t-23 55q0 33 23 56t55 23t55.5 -23t23.5 -56zM228 68q0 -32 -23.5 -55t-55.5 -23t-55 23t-23 55q0 33 23 55.5t55 22.5q33 0 56 -22.5t23 -55.5z" />
    <glyph glyph-name="semicolon" unicode=";" horiz-adv-x="290" 
d="M222 363q0 -32 -23 -55t-55 -23t-54.5 23t-22.5 55q0 33 22.5 56t54.5 23t55 -23t23 -56zM222 68v-68l-97 -158h-58v226q0 32 23 55t54 23q32 0 55 -23t23 -55z" />
    <glyph glyph-name="less" unicode="&#x3c;" horiz-adv-x="535" 
d="M332 698h150l-280 -349l280 -349h-150l-281 349z" />
    <glyph glyph-name="equal" unicode="=" horiz-adv-x="546" 
d="M487 418v-104h-428v104h428zM487 221v-105h-428v105h428z" />
    <glyph glyph-name="greater" unicode="&#x3e;" horiz-adv-x="535" 
d="M203 698l281 -349l-281 -349h-151l281 349l-281 349h151z" />
    <glyph glyph-name="question" unicode="?" horiz-adv-x="535" 
d="M478 514q0 -55 -25.5 -88t-66.5 -57q-37 -21 -51.5 -38t-16.5 -45l-6 -93h-90l-2 19q-2 19 -4 42t-2 34q0 35 7.5 61t23.5 44t27.5 26.5t34.5 21.5q4 3 12.5 8l13 7.5t11 7.5t10 9.5t7.5 10.5t5.5 13.5t1.5 16.5q0 39 -27.5 62t-72.5 23q-44 0 -73.5 -23t-30.5 -74h-108
q1 102 63 153t149 51q92 0 151 -50.5t59 -141.5zM342 64q0 -31 -22 -52.5t-53 -21.5q-30 0 -52 21.5t-22 52.5t22 52.5t52 21.5q31 0 53 -21.5t22 -52.5z" />
    <glyph glyph-name="at" unicode="@" horiz-adv-x="749" 
d="M680 410q0 -27 -9.5 -73t-10.5 -62l-17 -278l-98 5l3 59q-69 -74 -147 -74t-121.5 58.5t-43.5 138.5q0 69 31 140.5t91 123t132 51.5q46 0 83 -34q-8 59 -41 100.5t-89 41.5q-61 0 -116.5 -36t-92.5 -90.5t-58.5 -118.5t-21.5 -121q0 -106 63 -172l-51 -74
q-106 90 -106 249q0 102 48 206.5t137.5 177.5t194.5 73q114 0 177 -86t63 -205zM556 301q0 38 -16 71.5t-50 33.5q-63 0 -109 -76.5t-46 -144.5q0 -38 15.5 -71t48.5 -33q63 0 110 76.5t47 143.5z" />
    <glyph glyph-name="A" unicode="A" horiz-adv-x="655" 
d="M383 698l270 -698h-136l-67 182h-246l-66 -182h-136l268 698h113zM245 292h165l-83 225z" />
    <glyph glyph-name="B" unicode="B" horiz-adv-x="627" 
d="M587 209q0 -109 -67.5 -159t-179.5 -50h-269v698h252q108 0 173.5 -49t65.5 -153q0 -82 -60 -130q85 -49 85 -157zM439 495q0 50 -30 67t-84 17h-128v-170h129q53 0 83 18t30 68zM461 208q0 53 -32 71.5t-89 18.5h-143v-179h143q57 0 89 18t32 71z" />
    <glyph glyph-name="C" unicode="C" horiz-adv-x="610" 
d="M494 202l89 -85q-59 -70 -109 -98t-134 -28q-99 0 -168.5 51.5t-100 130.5t-30.5 176q0 72 18 135.5t53 114t94 79.5t134 29q78 0 132.5 -28t106.5 -90l-89 -87q-36 41 -69.5 61t-80.5 20t-82 -21t-53.5 -56t-27 -74t-8.5 -83t8.5 -83t27 -74t53.5 -56t82 -21q49 0 84 22
t70 65z" />
    <glyph glyph-name="D" unicode="D" horiz-adv-x="646" 
d="M595 349q0 -102 -12.5 -164t-49 -106t-99.5 -61.5t-166 -17.5h-197v698h197q103 0 166 -17t99.5 -61t49 -106t12.5 -165zM469 348q0 139 -22 176q-17 28 -52 39t-99 11h-99v-450h99q64 0 99.5 11.5t52.5 40.5q21 37 21 172z" />
    <glyph glyph-name="E" unicode="E" horiz-adv-x="593" 
d="M543 124v-124h-472v698h472v-124h-346v-156h302v-118h-302v-176h346z" />
    <glyph glyph-name="F" unicode="F" horiz-adv-x="574" 
d="M534 698v-124h-338v-156h301v-118h-301v-300h-125v698h463z" />
    <glyph glyph-name="G" unicode="G" horiz-adv-x="632" 
d="M322 385h257v-385h-106v65q-47 -73 -147 -73q-75 0 -131.5 29.5t-89 81t-48.5 113t-16 133.5t16.5 134.5t49.5 113t90.5 80t132.5 29.5q79 0 132 -30.5t104 -97.5l-88 -80q-33 43 -66 63.5t-82 20.5q-163 0 -163 -233t163 -233q65 0 95 45.5t30 115.5h-133v108z" />
    <glyph glyph-name="H" unicode="H" horiz-adv-x="670" 
d="M600 698v-698h-126v300h-277v-300h-126v698h126v-280h277v280h126z" />
    <glyph glyph-name="I" unicode="I" horiz-adv-x="274" 
d="M200 698v-698h-126v698h126z" />
    <glyph glyph-name="J" unicode="J" horiz-adv-x="561" 
d="M491 698v-476q0 -112 -60.5 -170.5t-174.5 -58.5q-98 0 -154.5 48t-79.5 141l120 33q27 -100 113 -100q59 0 85 27t26 84v472h125z" />
    <glyph glyph-name="K" unicode="K" horiz-adv-x="618" 
d="M581 698l-234 -345l260 -353h-149l-247 352l231 346h139zM197 0h-126v698h126v-698z" />
    <glyph glyph-name="L" unicode="L" horiz-adv-x="542" 
d="M502 121v-121h-431v698h125v-577h306z" />
    <glyph glyph-name="M" unicode="M" horiz-adv-x="757" 
d="M695 698v-698h-127v375l-149 -375h-82l-148 374v-374h-127v698h121l195 -497l198 497h119z" />
    <glyph glyph-name="N" unicode="N" horiz-adv-x="648" 
d="M577 698v-698h-103l-277 437v-437h-126v698h104l277 -437v437h125z" />
    <glyph glyph-name="O" unicode="O" horiz-adv-x="660" 
d="M619 349q0 -72 -16 -134t-49 -113t-90.5 -80.5t-133.5 -29.5t-133.5 29.5t-90.5 80.5t-49 113t-16 134t16 134t49 113t90.5 80.5t133.5 29.5q61 0 110.5 -19.5t82 -52.5t55 -79t32 -97.5t9.5 -108.5zM492 349q0 233 -162 233q-163 0 -163 -233t163 -233q162 0 162 233z
" />
    <glyph glyph-name="P" unicode="P" horiz-adv-x="616" 
d="M577 489q0 -209 -232 -209h-148v-280h-126v698h270q109 0 172.5 -51.5t63.5 -157.5zM451 489q0 51 -30 70t-84 19h-140v-179h140q54 0 84 19t30 71z" />
    <glyph glyph-name="Q" unicode="Q" horiz-adv-x="666" 
d="M619 349q0 -150 -56 -233l92 -116h-151l-27 33q-64 -41 -147 -41q-74 0 -131 30t-90.5 81.5t-50.5 113.5t-17 132q0 73 17 136t50.5 113t90.5 79t131 29q76 0 134 -30t90.5 -81.5t48.5 -113t16 -132.5zM493 349q0 232 -162 232q-164 0 -164 -230q0 -42 7.5 -79t24.5 -72
t50 -55.5t78 -20.5q27 0 52 14q-26 23 -61 28v98q88 -10 151 -55q24 49 24 140z" />
    <glyph glyph-name="R" unicode="R" horiz-adv-x="624" 
d="M562 490q0 -68 -39.5 -118t-107.5 -70q15 -11 34 -43l164 -259h-146l-142 237q-18 30 -32.5 41t-45.5 11h-50v-289h-126v698h252q107 0 173 -52t66 -156zM436 490q0 87 -112 87h-127v-177h127q53 0 82.5 19.5t29.5 70.5z" />
    <glyph glyph-name="S" unicode="S" horiz-adv-x="614" 
d="M577 210q0 -101 -77 -160.5t-181 -59.5q-229 0 -280 206l119 23q29 -109 161 -109q51 0 91.5 26t40.5 74q0 33 -29 55t-72 31t-93.5 24t-93.5 32.5t-72 58t-29 99.5q0 93 70.5 144.5t166.5 51.5q94 0 155.5 -37t101.5 -118l-109 -50q-25 47 -59.5 67.5t-88.5 20.5
q-41 0 -76 -19.5t-35 -59.5q0 -28 29 -47t72 -28t93.5 -24.5t93.5 -35.5t72 -62.5t29 -102.5z" />
    <glyph glyph-name="T" unicode="T" horiz-adv-x="586" 
d="M557 698v-124h-201v-574h-126v574h-201v124h528z" />
    <glyph glyph-name="U" unicode="U" horiz-adv-x="652" 
d="M590 698v-408q0 -298 -264 -298t-264 298v408h125v-402q0 -85 29 -133.5t110 -48.5q44 0 72.5 13.5t42.5 40.5t19 56.5t5 71.5v402h125z" />
    <glyph glyph-name="V" unicode="V" horiz-adv-x="614" 
d="M471 698h132l-236 -698h-120l-235 698h132l163 -508z" />
    <glyph glyph-name="W" unicode="W" horiz-adv-x="859" 
d="M717 698h129l-163 -698h-139l-114 455l-115 -455h-139l-163 698h129l108 -491l129 491h102l128 -491z" />
    <glyph glyph-name="X" unicode="X" horiz-adv-x="646" 
d="M395 359l237 -359h-150l-159 253l-160 -253h-149l237 359l-225 339h151l146 -233l147 233h149z" />
    <glyph glyph-name="Y" unicode="Y" horiz-adv-x="615" 
d="M462 698h140l-231 -468v-230h-126v232l-232 466h141l155 -325z" />
    <glyph glyph-name="Z" unicode="Z" horiz-adv-x="598" 
d="M547 124v-124h-506v93l328 482h-303v123h474v-96l-325 -478h332z" />
    <glyph glyph-name="bracketleft" unicode="[" horiz-adv-x="328" 
d="M278 3v-78h-199v848h199v-78h-94v-692h94z" />
    <glyph glyph-name="backslash" unicode="\" horiz-adv-x="445" 
d="M115 775l326 -852h-111l-326 852h111z" />
    <glyph glyph-name="bracketright" unicode="]" horiz-adv-x="328" 
d="M252 773v-848h-199v78h94v692h-94v78h199z" />
    <glyph glyph-name="asciicircum" unicode="^" horiz-adv-x="558" 
d="M323 705l192 -295l-92 -48l-144 223l-144 -223l-92 48l193 295h87z" />
    <glyph glyph-name="underscore" unicode="_" horiz-adv-x="521" 
d="M500 0v-98h-479v98h479z" />
    <glyph glyph-name="grave" unicode="`" horiz-adv-x="336" 
d="M187 697l85 -161h-83l-125 161h123z" />
    <glyph glyph-name="a" unicode="a" horiz-adv-x="487" 
d="M429 90l19 -75l-102 -26l-11 37q-49 -39 -118 -39q-76 0 -128 42.5t-52 116.5q0 69 44.5 109.5t131.5 44.5h75q22 1 30 15v21q0 25 -20 40.5t-48 15.5q-71 0 -93 -52l-102 35q41 123 195 123q70 0 124.5 -42.5t54.5 -109.5v-256zM318 125v98q-17 -9 -34 -9h-61
q-34 -1 -56.5 -17.5t-22.5 -50.5q0 -28 24 -43.5t52 -15.5q54 0 98 38z" />
    <glyph glyph-name="b" unicode="b" horiz-adv-x="509" 
d="M473 247q0 -114 -49 -185.5t-158 -71.5q-68 0 -99 41l-5 -31h-96v698h119v-227q35 29 91 29q102 0 149.5 -71t47.5 -182zM353 246q0 22 -1 38t-6 36.5t-14 33.5t-25.5 22t-40.5 9q-36 0 -58.5 -20t-22.5 -55v-128q0 -36 22.5 -55.5t58.5 -19.5q24 0 40.5 9t25.5 22
t14 33.5t6 36.5t1 38z" />
    <glyph glyph-name="c" unicode="c" horiz-adv-x="487" 
d="M458 404l-86 -79q-53 61 -104 61q-110 0 -110 -141t110 -141q49 0 104 61l86 -79q-48 -50 -89 -72.5t-101 -22.5q-108 0 -169.5 72t-61.5 182q0 111 61.5 183t169.5 72q60 0 102.5 -23.5t87.5 -72.5z" />
    <glyph glyph-name="d" unicode="d" horiz-adv-x="514" 
d="M466 17l-104 -31l-11 37q-43 -33 -107 -33q-109 0 -158 71.5t-49 185.5q0 73 19 127.5t67 90.5t121 36q48 0 81 -29v226h120v-606q0 -2 10.5 -37t10.5 -38zM325 182v129q0 34 -22.5 54t-57.5 20q-30 0 -49 -12t-27 -35t-10.5 -43t-2.5 -49t2.5 -49t10.5 -43t27 -35
t49 -12q34 0 57 20.5t23 54.5z" />
    <glyph glyph-name="e" unicode="e" horiz-adv-x="493" 
d="M457 259v-41h-297q3 -53 30.5 -84.5t78.5 -31.5q61 0 106 47l75 -72q-84 -86 -181 -86q-110 0 -171 71.5t-61 182.5t58.5 183t167.5 72q91 0 142.5 -66.5t51.5 -174.5zM161 294h185q-11 95 -88 95q-84 0 -97 -95z" />
    <glyph glyph-name="f" unicode="f" horiz-adv-x="323" 
d="M295 698v-97q-47 -1 -67 -18t-20 -65v-26h76v-101h-76v-391h-116v391h-42v101h42v57q0 48 14 78.5t44.5 45t62 19.5t82.5 6z" />
    <glyph glyph-name="g" unicode="g" 
d="M427 319q0 -84 -52.5 -130t-139.5 -46q-27 0 -53 10q-25 -19 -25 -42q0 -18 24 -18q27 0 79 12t78 12q56 0 92 -33.5t36 -88.5q0 -86 -70 -139t-159 -53q-52 0 -96.5 13.5t-77.5 49t-33 87.5q0 26 8 46l105 -31q-1 -5 -1 -13q0 -21 25 -33t58 -12q48 0 88.5 21.5
t40.5 58.5q0 15 -11 23t-26 8q-22 0 -63 -8t-62 -8q-52 0 -91.5 23.5t-39.5 71.5q0 49 38 90q-48 48 -48 129q0 87 50 134t138 47q70 0 113 -28q12 15 12 40h99q-2 -85 -48 -116q12 -42 12 -77zM313 319q0 34 -20 52t-54 18t-54.5 -18t-20.5 -52q0 -71 75 -71q74 0 74 71z
" />
    <glyph glyph-name="h" unicode="h" horiz-adv-x="520" 
d="M473 274v-274h-120v274q0 109 -87 109q-30 0 -55.5 -21.5t-25.5 -53.5v-308h-119v698h119v-233q32 36 97 36q96 0 143.5 -62t47.5 -165z" />
    <glyph glyph-name="i" unicode="i" horiz-adv-x="255" 
d="M198 652q0 -29 -20.5 -50t-50.5 -21q-29 0 -49.5 21t-20.5 50t20.5 49.5t49.5 20.5q30 0 50.5 -20.5t20.5 -49.5zM185 492v-492h-117v492h117z" />
    <glyph glyph-name="j" unicode="j" horiz-adv-x="263" 
d="M206 652q0 -29 -21 -50t-50 -21t-49.5 21t-20.5 50t20.5 49.5t49.5 20.5t50 -20.5t21 -49.5zM192 492v-523q0 -77 -41.5 -124.5t-119.5 -56.5l-36 101q82 15 82 91v512h115z" />
    <glyph glyph-name="k" unicode="k" horiz-adv-x="477" 
d="M303 271l175 -271h-129l-167 270l140 222h125zM177 698v-698h-115v698h115z" />
    <glyph glyph-name="l" unicode="l" horiz-adv-x="249" 
d="M214 101v-101q-77 1 -114.5 31t-37.5 105v562h113v-560q0 -36 39 -37z" />
    <glyph glyph-name="m" unicode="m" horiz-adv-x="790" 
d="M734 277v-277h-120v277q0 51 -16 79t-64 28q-26 0 -42 -11t-22.5 -32.5t-8.5 -39t-2 -43.5v-258h-120v277q0 51 -16.5 79t-63.5 28q-31 0 -52 -21.5t-21 -52.5v-310h-120v492h99l4 -30q40 40 91 40q47 0 79 -13t66 -47q53 60 129 60q100 0 150 -61t50 -164z" />
    <glyph glyph-name="n" unicode="n" horiz-adv-x="529" 
d="M473 277v-277h-120v275q0 53 -18.5 81t-68.5 28q-35 0 -58 -24t-23 -57v-303h-119v492h98l4 -30q38 40 103 40q202 0 202 -225z" />
    <glyph glyph-name="o" unicode="o" horiz-adv-x="514" 
d="M477 245q0 -117 -53.5 -186t-166.5 -69t-166.5 69t-53.5 186t53.5 186t166.5 69t166.5 -69t53.5 -186zM356 245q0 29 -4 51.5t-13.5 44t-30.5 33t-51 11.5q-58 0 -78.5 -38.5t-20.5 -101.5q0 -64 20.5 -101.5t78.5 -37.5t78.5 38t20.5 101z" />
    <glyph glyph-name="p" unicode="p" horiz-adv-x="509" 
d="M473 243q0 -113 -49.5 -183.5t-157.5 -70.5q-48 0 -81 30v-239h-119v712h98l4 -30q40 40 99 40q56 0 97 -21t64 -58t34 -81.5t11 -98.5zM353 243q0 22 -1 38t-6 36t-14 33t-25.5 22t-40.5 9q-35 0 -58 -21t-23 -54v-126q0 -33 22.5 -54t58.5 -21q29 0 48 12t26.5 35
t10 42.5t2.5 48.5z" />
    <glyph glyph-name="q" unicode="q" horiz-adv-x="508" 
d="M359 499l105 -29l-20 -74v-616h-119v238q-36 -29 -81 -29q-73 0 -121 36t-67.5 91t-19.5 128q0 112 50.5 185t157.5 73q56 0 106 -39zM325 179v127q0 34 -23 54.5t-57 20.5q-30 0 -49 -12t-27 -35t-10.5 -42.5t-2.5 -48.5q0 -30 2.5 -49.5t10.5 -42.5t27 -35t49 -12
q34 0 57 21t23 54z" />
    <glyph glyph-name="r" unicode="r" horiz-adv-x="400" 
d="M373 469l-45 -93q-33 14 -59 14q-38 0 -61 -22t-23 -57v-311h-119v492h97l5 -31q6 12 36.5 27.5t64.5 15.5q52 0 104 -35z" />
    <glyph glyph-name="s" unicode="s" horiz-adv-x="466" 
d="M434 148q0 -74 -58 -116t-135 -42q-172 0 -203 134l104 27q20 -54 97 -54q29 0 53 10.5t24 35.5q0 23 -28 37.5t-68 24.5t-80 24t-68 45.5t-28 79.5q0 72 51 109.5t127 37.5q69 0 110.5 -21t76.5 -75l-91 -51q-32 43 -85 43q-26 0 -47.5 -9.5t-21.5 -33.5q0 -20 28 -32
t67.5 -21.5t79 -23.5t67.5 -46.5t28 -82.5z" />
    <glyph glyph-name="t" unicode="t" horiz-adv-x="321" 
d="M276 492v-101h-67v-246q0 -44 49 -44v-101h-46q-58 0 -88.5 38t-30.5 97v256h-59v101h59v134h116v-134h67z" />
    <glyph glyph-name="u" unicode="u" horiz-adv-x="528" 
d="M463 492v-492h-98l-5 29q-46 -38 -100 -38q-102 0 -153 56t-51 159v286h119v-279q0 -52 18.5 -79t69.5 -27q33 0 56.5 21.5t23.5 55.5v308h120z" />
    <glyph glyph-name="v" unicode="v" horiz-adv-x="508" 
d="M363 492h129l-189 -492h-99l-187 492h128l106 -323z" />
    <glyph glyph-name="w" unicode="w" horiz-adv-x="766" 
d="M621 492h128l-162 -492h-101l-104 286l-104 -286h-101l-161 492h129l85 -310l107 310h89l105 -311z" />
    <glyph glyph-name="x" unicode="x" horiz-adv-x="508" 
d="M323 251l176 -251h-146l-98 155l-100 -155h-146l177 251l-168 241h145l92 -141l90 141h146z" />
    <glyph glyph-name="y" unicode="y" horiz-adv-x="513" 
d="M368 492h128l-225 -604q-24 -67 -67.5 -88.5t-118.5 -21.5h-21v102h18q40 0 56.5 9t26.5 35l28 75l-176 493h128l109 -344z" />
    <glyph glyph-name="z" unicode="z" horiz-adv-x="494" 
d="M440 114v-114h-396v92l232 285h-219v115h383v-90l-233 -288h233z" />
    <glyph glyph-name="braceleft" unicode="{" horiz-adv-x="379" 
d="M50 397q49 -1 64 27.5t15 120.5q0 57 7.5 95t28 70t61 47t103.5 15v-95q-49 0 -72 -28t-23 -110q0 -78 -15.5 -122.5t-61.5 -67.5q46 -23 61.5 -67.5t15.5 -122.5q0 -82 23 -110t72 -28v-95q-63 0 -103.5 15t-61 47t-28 70t-7.5 95q0 92 -15 120.5t-64 27.5v96z" />
    <glyph glyph-name="bar" unicode="|" horiz-adv-x="306" 
d="M207 775v-852h-108v852h108z" />
    <glyph glyph-name="braceright" unicode="}" horiz-adv-x="379" 
d="M329 397v-96q-48 1 -63 -27.5t-15 -120.5q0 -57 -7.5 -95t-28 -70t-61.5 -47t-104 -15v95q49 0 72 28t23 110q0 78 15.5 122.5t61.5 67.5q-46 23 -61.5 67.5t-15.5 122.5q0 82 -23 110t-72 28v95q63 0 104 -15t61.5 -47t28 -70t7.5 -95q0 -92 15 -120.5t63 -27.5z" />
    <glyph glyph-name="asciitilde" unicode="~" horiz-adv-x="511" 
d="M397 360l72 -58q-34 -43 -63 -63.5t-72 -20.5q-35 0 -79 29t-76 29q-35 0 -68 -47l-69 61q28 41 59.5 60.5t77.5 19.5q37 0 79.5 -28t73.5 -28q38 0 65 46z" />
    <glyph glyph-name="nbspace" unicode="&#xa0;" horiz-adv-x="148" 
 />
    <glyph glyph-name="exclamdown" unicode="&#xa1;" horiz-adv-x="356" 
d="M238 415q0 -31 -23 -54t-54 -23t-54 23t-23 54t23 54t54 23t54 -23t23 -54zM214 278l7 -199v-295h-121v295l7 199h107z" />
    <glyph glyph-name="cent" unicode="&#xa2;" horiz-adv-x="542" 
d="M406 165l86 -79q-49 -50 -90 -72.5t-100 -22.5q-4 0 -22 2l-14 -69l-67 13l14 70q-69 28 -105.5 91.5t-36.5 146.5q0 111 62.5 182.5t176.5 70.5l13 67l68 -14l-12 -65q55 -20 113 -82l-86 -79q-25 28 -51 42l-52 -260h19q39 9 84 58zM236 125l52 260q-96 -11 -96 -140
q0 -85 44 -120z" />
    <glyph glyph-name="sterling" unicode="&#xa3;" horiz-adv-x="561" 
d="M515 114v-114h-451v87q71 81 71 149q0 26 -6 53h-89l24 113h42q-16 51 -16 92q0 93 57.5 153t153.5 60q30 0 55.5 -6t40 -11.5t37 -25t29.5 -27l35 -38.5l-89 -74q-2 2 -5 6q-18 22 -28.5 32.5t-30.5 20.5t-44 10q-45 0 -68 -30t-23 -76q0 -35 11 -86h133l-24 -113h-87
q7 -40 7 -67q0 -59 -29 -108h294z" />
    <glyph glyph-name="currency" unicode="&#xa4;" horiz-adv-x="709" 
d="M565 197l88 -87q-57 -66 -106 -92.5t-130 -26.5q-111 0 -185 63.5t-101 173.5h-81l18 87h50q-2 44 -1 63h-67l18 86h62q26 112 99 177.5t187 65.5q76 0 129.5 -26.5t102.5 -84.5l-87 -88q-34 38 -67 56.5t-78 18.5q-113 0 -151 -119h194l-18 -86h-194q-3 -42 0 -63h212
l-18 -87h-176q41 -113 151 -113q81 0 149 82z" />
    <glyph glyph-name="yen" unicode="&#xa5;" horiz-adv-x="578" 
d="M460 698h115l-151 -304h74l-21 -89h-97l-18 -37h136l-21 -91h-135v-177h-104v177h-157l20 91h118l-18 37h-120l20 89h55l-151 304h116l170 -349z" />
    <glyph glyph-name="brokenbar" unicode="&#xa6;" horiz-adv-x="360" 
d="M227 772v-392h-88v392h88zM227 319v-392h-88v392h88z" />
    <glyph glyph-name="section" unicode="&#xa7;" horiz-adv-x="599" 
d="M542 233q0 -67 -58 -125q39 -43 39 -112q0 -86 -63 -137.5t-151 -51.5q-84 0 -138.5 36.5t-89.5 114.5l98 50q23 -46 52.5 -68.5t77.5 -22.5q39 0 68.5 21t29.5 58q0 18 -8.5 30.5t-27.5 22t-35 15t-46 13.5t-45.5 12.5t-43.5 14.5t-44 19.5t-36.5 25.5t-31.5 34.5
t-19 44t-8 56.5q0 66 58 124q-39 43 -39 112q0 86 63 137.5t151 51.5q83 0 138 -36.5t90 -113.5l-98 -51q-23 46 -52.5 68.5t-77.5 22.5q-39 0 -68.5 -21t-29.5 -58q0 -32 28.5 -48.5t86.5 -31.5l53.5 -15t50.5 -17.5t50.5 -26t37.5 -34.5t29 -49.5t9 -64.5zM424 233
q0 65 -145 100q-36 8 -69 19q-30 -26 -30 -68q0 -66 146 -101q44 -10 69 -19q29 28 29 69z" />
    <glyph glyph-name="dieresis" unicode="&#xa8;" horiz-adv-x="476" 
d="M407 606q0 -28 -19.5 -47.5t-47.5 -19.5t-48 19.5t-20 47.5t20 48t48 20t47.5 -20t19.5 -48zM204 606q0 -28 -19.5 -47.5t-47.5 -19.5t-47.5 19.5t-19.5 47.5t19.5 48t47.5 20t47.5 -20t19.5 -48z" />
    <glyph glyph-name="copyright" unicode="&#xa9;" horiz-adv-x="805" 
d="M756 349q0 -146 -103.5 -250t-249.5 -104t-250 104t-104 250t104 249.5t250 103.5t249.5 -103.5t103.5 -249.5zM668 349q0 110 -77.5 187.5t-187.5 77.5t-188 -77.5t-78 -187.5t78 -188t188 -78t187.5 78t77.5 188zM487 270l50 -49q-32 -38 -59.5 -53t-72.5 -15
q-80 0 -122 56.5t-42 139.5q0 84 41.5 140t121.5 56q42 0 71.5 -15t58.5 -49l-50 -49q-38 43 -80 43q-48 0 -69.5 -37.5t-21.5 -88.5q0 -52 21 -89t70 -37q44 0 83 47z" />
    <glyph glyph-name="ordfeminine" unicode="&#xaa;" horiz-adv-x="431" 
d="M365 376l16 -51l-84 -25l-8 22q-45 -24 -94 -24q-62 0 -104 33.5t-42 93.5q0 55 36 87.5t106 35.5q14 1 55 1q25 0 28 3v24q0 21 -15.5 32.5t-37.5 11.5q-56 0 -75 -42l-83 25q39 104 158 104q56 0 100 -34t44 -88v-209zM303 261v-74h-171v74h171zM274 415v68
q-15 -4 -30 -4q-36 0 -48 -2q-60 -6 -60 -46q0 -21 19 -33t42 -12q42 0 77 29z" />
    <glyph glyph-name="guillemotleft" unicode="&#xab;" horiz-adv-x="542" 
d="M58 218v63l228 216v-126l-132 -121l132 -122v-127zM256 218v63l227 216v-126l-132 -121l132 -122v-127z" />
    <glyph glyph-name="logicalnot" unicode="&#xac;" horiz-adv-x="547" 
d="M495 305v-226h-90v135h-354v91h444z" />
    <glyph glyph-name="uni00AD" unicode="&#xad;" horiz-adv-x="413" 
d="M352 316v-93h-291v93h291z" />
    <glyph glyph-name="registered" unicode="&#xae;" horiz-adv-x="805" 
d="M756 349q0 -146 -103.5 -250t-249.5 -104t-250 104t-104 250t104 249.5t250 103.5t249.5 -103.5t103.5 -249.5zM668 349q0 110 -77.5 187.5t-187.5 77.5t-188 -77.5t-78 -187.5t78 -188t188 -78t187.5 78t77.5 188zM563 162h-85l-71 125q-9 17 -17 22.5t-25 5.5h-26v-153
h-69v374h136q58 0 93.5 -28t35.5 -84q0 -37 -18.5 -64t-54.5 -37q4 -3 101 -161zM466 423q0 46 -59 46h-69v-93h69q59 0 59 47z" />
    <glyph glyph-name="macron" unicode="&#xaf;" horiz-adv-x="538" 
d="M431 648v-80h-323v80h323z" />
    <glyph glyph-name="degree" unicode="&#xb0;" horiz-adv-x="359" 
d="M289 661q0 -46 -32 -78t-78 -32q-45 0 -77 32t-32 78q0 45 32 77.5t77 32.5q46 0 78 -32.5t32 -77.5zM224 661q0 18 -13 31t-32 13q-18 0 -31 -13t-13 -31q0 -19 13 -32t31 -13q19 0 32 13t13 32z" />
    <glyph glyph-name="plusminus" unicode="&#xb1;" horiz-adv-x="548" 
d="M488 393v-97h-164v-163h-98v163h-165v97h165v163h98v-163h164zM488 96v-96h-427v96h427z" />
    <glyph glyph-name="twosuperior" unicode="&#xb2;" horiz-adv-x="352" 
d="M319 336v-76h-280v51q2 44 23 82t49 62t55.5 45t46.5 41t19 39q0 24 -18.5 38.5t-43.5 14.5q-42 0 -69 -54l-67 39q48 91 136 91q62 0 102 -34.5t40 -94.5q0 -34 -16 -61.5t-40.5 -47l-50 -38.5t-47.5 -43.5t-29 -53.5h190z" />
    <glyph glyph-name="threesuperior" unicode="&#xb3;" horiz-adv-x="346" 
d="M314 394q0 -62 -40.5 -100.5t-102.5 -38.5q-110 0 -145 99l72 31q8 -24 26.5 -39t43.5 -15q29 0 48.5 17.5t19.5 45.5q0 65 -90 65v62q79 -2 79 58q0 23 -18.5 38t-42.5 15q-45 0 -63 -48l-70 31q38 93 136 93q57 0 96.5 -36t39.5 -93q0 -54 -44 -87q24 -14 39.5 -41
t15.5 -57z" />
    <glyph glyph-name="acute" unicode="&#xb4;" horiz-adv-x="333" 
d="M148 697h122l-123 -161h-85z" />
    <glyph glyph-name="mu" unicode="&#xb5;" horiz-adv-x="591" 
d="M494 492v-493h-103v25q-39 -32 -96 -32q-65 0 -103 35v-219h-102v684h102v-277q0 -62 21.5 -93t81.5 -31q39 0 67.5 24t28.5 62v315h103z" />
    <glyph glyph-name="mu" unicode="&#x3bc;" horiz-adv-x="591" 
d="M494 492v-493h-103v25q-39 -32 -96 -32q-65 0 -103 35v-219h-102v684h102v-277q0 -62 21.5 -93t81.5 -31q39 0 67.5 24t28.5 62v315h103z" />
    <glyph glyph-name="paragraph" unicode="&#xb6;" horiz-adv-x="592" 
d="M496 698v-847h-105v745h-50v-745h-106v432q-78 11 -129.5 69t-51.5 136q0 86 61.5 148t148.5 62h232z" />
    <glyph glyph-name="periodcentered" unicode="&#xb7;" horiz-adv-x="305" 
d="M234 265q0 -33 -24 -57t-58 -24q-33 0 -56.5 24t-23.5 57q0 34 23.5 57.5t56.5 23.5q34 0 58 -23.5t24 -57.5z" />
    <glyph glyph-name="periodcentered" unicode="&#x2219;" horiz-adv-x="305" 
d="M234 265q0 -33 -24 -57t-58 -24q-33 0 -56.5 24t-23.5 57q0 34 23.5 57.5t56.5 23.5q34 0 58 -23.5t24 -57.5z" />
    <glyph glyph-name="cedilla" unicode="&#xb8;" horiz-adv-x="535" 
d="M308 34l35 -103l-68 -130h-107l96 135l-29 73z" />
    <glyph glyph-name="onesuperior" unicode="&#xb9;" horiz-adv-x="255" 
d="M188 703v-443h-77v344l-60 -37l-35 61l114 75h58z" />
    <glyph glyph-name="ordmasculine" unicode="&#xba;" horiz-adv-x="452" 
d="M403 502q0 -94 -43 -149.5t-134 -55.5q-90 0 -133.5 55.5t-43.5 149.5q0 93 43.5 148.5t133.5 55.5q91 0 134 -55.5t43 -148.5zM314 261v-74h-170v74h170zM305 501q0 51 -16 81.5t-63 30.5q-79 0 -79 -112q0 -110 79 -110q47 0 63 30t16 80z" />
    <glyph glyph-name="guillemotright" unicode="&#xbb;" horiz-adv-x="542" 
d="M483 281v-63l-228 -217v127l132 122l-132 121v126zM285 281v-63l-227 -217v127l132 122l-132 121v126z" />
    <glyph glyph-name="onequarter" unicode="&#xbc;" horiz-adv-x="794" 
d="M736 191v-91h-27v-98h-94v98h-178v69l156 271h109l-141 -250h82l6 86l60 -12v-73h27zM497 697h97l-317 -695h-97zM233 702v-438h-91v310l-51 -31l-45 79l133 80h54z" />
    <glyph glyph-name="onehalf" unicode="&#xbd;" horiz-adv-x="832" 
d="M768 93v-91h-278v64q17 45 34 70.5t63 73.5q86 88 86 110q0 30 -38 30q-17 0 -30 -12t-33 -49l-82 43q29 55 63 82t82 27q51 0 91.5 -32t40.5 -89q0 -38 -22.5 -70t-79.5 -88q-31 -30 -55 -69h158zM497 697h98l-317 -695h-97zM234 702v-438h-91v310l-52 -31l-45 79
l134 80h54z" />
    <glyph glyph-name="threequarters" unicode="&#xbe;" horiz-adv-x="852" 
d="M793 191v-91h-27v-98h-93v98h-178v69l155 271h110l-141 -250h82l6 86l59 -12v-73h27zM554 697h97l-316 -695h-98zM333 404q0 -57 -40 -97t-98 -40q-49 0 -84 29t-52 80l87 30q16 -48 49 -48q19 0 32.5 13.5t13.5 32.5t-14 34.5t-32 15.5h-33v76h29q21 0 32 15t11 32
q0 14 -12.5 25.5t-30.5 11.5q-32 0 -45 -42l-88 29q17 51 53 77t80 26q56 0 95.5 -37t39.5 -90q0 -47 -33 -81q40 -38 40 -92z" />
    <glyph glyph-name="questiondown" unicode="&#xbf;" horiz-adv-x="535" 
d="M56 -31q0 -93 58.5 -143t150.5 -49q88 -1 150.5 50t62.5 154l-107 -1q-1 -51 -31 -74.5t-74 -23.5q-45 0 -72.5 23.5t-27.5 62.5q0 9 1.5 16.5t6 14t6.5 10.5t10.5 9.5t10.5 7t13.5 8t12.5 7.5q30 18 45.5 30t32 44.5t16.5 77.5l-8 97h-91l-6 -94q-2 -28 -16.5 -45
t-51.5 -38q-41 -24 -66.5 -57t-25.5 -87zM341 418q0 -31 -21.5 -52.5t-52.5 -21.5t-52.5 21.5t-21.5 52.5t21.5 52.5t52.5 21.5t52.5 -21.5t21.5 -52.5z" />
    <glyph glyph-name="Agrave" unicode="&#xc0;" horiz-adv-x="655" 
d="M383 698l270 -698h-136l-67 182h-246l-66 -182h-136l268 698h113zM245 292h165l-83 225zM269 918l85 -161h-84l-124 161h123z" />
    <glyph glyph-name="Aacute" unicode="&#xc1;" horiz-adv-x="655" 
d="M383 698l270 -698h-136l-67 182h-246l-66 -182h-136l268 698h113zM245 292h165l-83 225zM384 918h122l-124 -161h-84z" />
    <glyph glyph-name="Acircumflex" unicode="&#xc2;" horiz-adv-x="655" 
d="M383 698l270 -698h-136l-67 182h-246l-66 -182h-136l268 698h113zM245 292h165l-83 225zM378 912l123 -152h-114l-60 90l-60 -90h-114l123 152h102z" />
    <glyph glyph-name="Atilde" unicode="&#xc3;" horiz-adv-x="655" 
d="M383 698l270 -698h-136l-67 182h-246l-66 -182h-136l268 698h113zM245 292h165l-83 225zM444 879l62 -51q-27 -35 -52 -52.5t-61 -17.5q-30 0 -66 23.5t-63 23.5q-28 0 -55 -38l-60 51q23 36 49 52.5t66 16.5q32 0 67 -23.5t60 -23.5q32 0 53 39z" />
    <glyph glyph-name="Adieresis" unicode="&#xc4;" horiz-adv-x="655" 
d="M383 698l270 -698h-136l-67 182h-246l-66 -182h-136l268 698h113zM245 292h165l-83 225zM496 827q0 -28 -19.5 -47.5t-47.5 -19.5t-48 19.5t-20 47.5t20 48t48 20t47.5 -20t19.5 -48zM294 827q0 -28 -19.5 -47.5t-47.5 -19.5t-48 19.5t-20 47.5q0 29 19.5 48.5t48.5 19.5
q28 0 47.5 -20t19.5 -48z" />
    <glyph glyph-name="Aring" unicode="&#xc5;" horiz-adv-x="655" 
d="M383 698l270 -698h-136l-67 182h-246l-66 -182h-136l268 698h113zM245 292h165l-83 225zM448 876q0 -50 -35 -85.5t-85 -35.5q-51 0 -86 35.5t-35 85.5t35 85t86 35q50 0 85 -35t35 -85zM372 876q0 18 -13.5 31t-30.5 13q-19 0 -32 -13t-13 -31q0 -19 13 -31.5t32 -12.5
q18 0 31 13t13 31z" />
    <glyph glyph-name="AE" unicode="&#xc6;" horiz-adv-x="946" 
d="M896 124v-124h-457v182h-198l-95 -182h-143l381 698h512v-124h-332v-155h289v-119h-289v-176h332zM299 292h140v257h-6z" />
    <glyph glyph-name="Ccedilla" unicode="&#xc7;" horiz-adv-x="674" 
d="M527 212l89 -77q-98 -121 -193 -139l25 -67l-69 -131h-115l98 137l-24 58q-70 7 -122 38.5t-82.5 81.5t-45 109t-14.5 127q0 73 18 136.5t53 113.5t93 79t132 29q78 0 133.5 -36t112.5 -108l-89 -77q-39 50 -72.5 73.5t-84.5 23.5q-49 0 -84 -20t-53 -55.5t-25.5 -74
t-7.5 -84.5t7.5 -84.5t25.5 -73.5t53 -55.5t84 -20.5q51 0 84.5 23.5t72.5 73.5z" />
    <glyph glyph-name="Egrave" unicode="&#xc8;" horiz-adv-x="593" 
d="M543 124v-124h-472v698h472v-124h-346v-156h302v-118h-302v-176h346zM315 918l85 -161h-83l-125 161h123z" />
    <glyph glyph-name="Eacute" unicode="&#xc9;" horiz-adv-x="593" 
d="M543 124v-124h-472v698h472v-124h-346v-156h302v-118h-302v-176h346zM278 918h122l-124 -161h-84z" />
    <glyph glyph-name="Ecircumflex" unicode="&#xca;" horiz-adv-x="593" 
d="M543 124v-124h-472v698h472v-124h-346v-156h302v-118h-302v-176h346zM350 912l123 -152h-113l-61 90l-59 -90h-114l123 152h101z" />
    <glyph glyph-name="Edieresis" unicode="&#xcb;" horiz-adv-x="593" 
d="M543 124v-124h-472v698h472v-124h-346v-156h302v-118h-302v-176h346zM464 827q0 -28 -19.5 -47.5t-46.5 -19.5q-28 0 -48 19.5t-20 47.5q0 29 20 48.5t48 19.5q27 0 46.5 -20t19.5 -48zM262 827q0 -28 -19.5 -47.5t-47.5 -19.5t-47.5 19.5t-19.5 47.5t19.5 48t47.5 20
t47.5 -20t19.5 -48z" />
    <glyph glyph-name="Igrave" unicode="&#xcc;" horiz-adv-x="274" 
d="M200 698v-698h-126v698h126zM73 918l84 -161h-83l-125 161h124z" />
    <glyph glyph-name="Iacute" unicode="&#xcd;" horiz-adv-x="274" 
d="M200 698v-698h-126v698h126zM159 918h122l-124 -161h-84z" />
    <glyph glyph-name="Icircumflex" unicode="&#xce;" horiz-adv-x="274" 
d="M200 698v-698h-126v698h126zM188 912l123 -152h-114l-61 90l-59 -90h-114l123 152h102z" />
    <glyph glyph-name="Idieresis" unicode="&#xcf;" horiz-adv-x="274" 
d="M200 698v-698h-126v698h126zM306 827q0 -28 -19.5 -47.5t-47.5 -19.5t-48 19.5t-20 47.5q0 29 19.5 48.5t48.5 19.5q28 0 47.5 -20t19.5 -48zM104 827q0 -28 -20 -47.5t-47 -19.5q-28 0 -48 19.5t-20 47.5q0 29 19.5 48.5t48.5 19.5q27 0 47 -20t20 -48z" />
    <glyph glyph-name="Eth" unicode="&#xd0;" horiz-adv-x="649" 
d="M595 349q0 -101 -7 -148q-9 -64 -36 -106t-71 -61.5t-86 -26.5t-99 -7h-224v302h-39v91h39v305h224q57 0 99 -7t86 -26.5t71 -61.5t36 -106q7 -47 7 -148zM469 349q0 81 -5 121q-4 29 -14.5 49.5t-23.5 31t-36.5 16t-42 6.5t-51.5 1h-99v-181h130v-91h-130v-178h99
q85 0 122 18.5t46 86.5q5 39 5 120z" />
    <glyph glyph-name="Ntilde" unicode="&#xd1;" horiz-adv-x="648" 
d="M577 698v-698h-103l-277 437v-437h-126v698h104l277 -437v437h125zM440 879l62 -51q-27 -35 -52 -52.5t-61 -17.5q-30 0 -66 23.5t-62 23.5q-29 0 -56 -38l-60 51q24 36 49.5 52.5t65.5 16.5q32 0 67 -23.5t60 -23.5q32 0 53 39z" />
    <glyph glyph-name="Ograve" unicode="&#xd2;" horiz-adv-x="660" 
d="M619 349q0 -72 -16 -134t-49 -113t-90.5 -80.5t-133.5 -29.5t-133.5 29.5t-90.5 80.5t-49 113t-16 134t16 134t49 113t90.5 80.5t133.5 29.5q61 0 110.5 -19.5t82 -52.5t55 -79t32 -97.5t9.5 -108.5zM492 349q0 233 -162 233q-163 0 -163 -233t163 -233q162 0 162 233z
M349 918l85 -161h-84l-124 161h123z" />
    <glyph glyph-name="Oacute" unicode="&#xd3;" horiz-adv-x="660" 
d="M619 349q0 -72 -16 -134t-49 -113t-90.5 -80.5t-133.5 -29.5t-133.5 29.5t-90.5 80.5t-49 113t-16 134t16 134t49 113t90.5 80.5t133.5 29.5q61 0 110.5 -19.5t82 -52.5t55 -79t32 -97.5t9.5 -108.5zM492 349q0 233 -162 233q-163 0 -163 -233t163 -233q162 0 162 233z
M312 918h122l-124 -161h-84z" />
    <glyph glyph-name="Ocircumflex" unicode="&#xd4;" horiz-adv-x="660" 
d="M619 349q0 -72 -16 -134t-49 -113t-90.5 -80.5t-133.5 -29.5t-133.5 29.5t-90.5 80.5t-49 113t-16 134t16 134t49 113t90.5 80.5t133.5 29.5q61 0 110.5 -19.5t82 -52.5t55 -79t32 -97.5t9.5 -108.5zM492 349q0 233 -162 233q-163 0 -163 -233t163 -233q162 0 162 233z
M380 912l123 -152h-114l-60 90l-60 -90h-113l123 152h101z" />
    <glyph glyph-name="Otilde" unicode="&#xd5;" horiz-adv-x="660" 
d="M619 349q0 -72 -16 -134t-49 -113t-90.5 -80.5t-133.5 -29.5t-133.5 29.5t-90.5 80.5t-49 113t-16 134t16 134t49 113t90.5 80.5t133.5 29.5q61 0 110.5 -19.5t82 -52.5t55 -79t32 -97.5t9.5 -108.5zM492 349q0 233 -162 233q-163 0 -163 -233t163 -233q162 0 162 233z
M447 879l61 -51q-27 -35 -52 -52.5t-61 -17.5q-30 0 -66 23.5t-62 23.5q-29 0 -56 -38l-60 51q23 36 49.5 52.5t66.5 16.5q31 0 66 -23.5t60 -23.5q33 0 54 39z" />
    <glyph glyph-name="Odieresis" unicode="&#xd6;" horiz-adv-x="660" 
d="M619 349q0 -72 -16 -134t-49 -113t-90.5 -80.5t-133.5 -29.5t-133.5 29.5t-90.5 80.5t-49 113t-16 134t16 134t49 113t90.5 80.5t133.5 29.5q61 0 110.5 -19.5t82 -52.5t55 -79t32 -97.5t9.5 -108.5zM492 349q0 233 -162 233q-163 0 -163 -233t163 -233q162 0 162 233z
M498 827q0 -28 -19.5 -47.5t-46.5 -19.5q-28 0 -48 19.5t-20 47.5q0 29 20 48.5t48 19.5q27 0 46.5 -20t19.5 -48zM296 827q0 -28 -19.5 -47.5t-47.5 -19.5t-48 19.5t-20 47.5t20 48t48 20t47.5 -20t19.5 -48z" />
    <glyph glyph-name="multiply" unicode="&#xd7;" horiz-adv-x="489" 
d="M311 274l120 -121l-66 -66l-121 120l-120 -120l-66 66l120 121l-120 120l66 66l120 -120l121 120l66 -66z" />
    <glyph glyph-name="Oslash" unicode="&#xd8;" horiz-adv-x="660" 
d="M619 349q0 -72 -16 -134.5t-49.5 -113.5t-90.5 -80t-133 -29q-67 0 -120 25l-13 -26h-104l40 78q-92 97 -92 280q0 57 9.5 108.5t32 97.5t55 79t82 52.5t110.5 19.5q66 0 120 -24l12 25h104l-40 -77q93 -96 93 -281zM492 349q0 101 -30 155l-195 -375q29 -13 63 -13
q162 0 162 233zM197 195l195 376q-31 11 -62 11q-163 0 -163 -233q0 -96 30 -154z" />
    <glyph glyph-name="Ugrave" unicode="&#xd9;" horiz-adv-x="652" 
d="M590 698v-408q0 -298 -264 -298t-264 298v408h125v-402q0 -85 29 -133.5t110 -48.5q44 0 72.5 13.5t42.5 40.5t19 56.5t5 71.5v402h125zM345 918l84 -161h-83l-125 161h124z" />
    <glyph glyph-name="Uacute" unicode="&#xda;" horiz-adv-x="652" 
d="M590 698v-408q0 -298 -264 -298t-264 298v408h125v-402q0 -85 29 -133.5t110 -48.5q44 0 72.5 13.5t42.5 40.5t19 56.5t5 71.5v402h125zM307 918h122l-123 -161h-85z" />
    <glyph glyph-name="Ucircumflex" unicode="&#xdb;" horiz-adv-x="652" 
d="M590 698v-408q0 -298 -264 -298t-264 298v408h125v-402q0 -85 29 -133.5t110 -48.5q44 0 72.5 13.5t42.5 40.5t19 56.5t5 71.5v402h125zM377 912l123 -152h-114l-61 90l-59 -90h-114l123 152h102z" />
    <glyph glyph-name="Udieresis" unicode="&#xdc;" horiz-adv-x="652" 
d="M590 698v-408q0 -298 -264 -298t-264 298v408h125v-402q0 -85 29 -133.5t110 -48.5q44 0 72.5 13.5t42.5 40.5t19 56.5t5 71.5v402h125zM494 827q0 -28 -19.5 -47.5t-47.5 -19.5t-48 19.5t-20 47.5t20 48t48 20t47.5 -20t19.5 -48zM292 827q0 -28 -20 -47.5t-47 -19.5
q-28 0 -48 19.5t-20 47.5q0 29 19.5 48.5t48.5 19.5q27 0 47 -20t20 -48z" />
    <glyph glyph-name="Yacute" unicode="&#xdd;" horiz-adv-x="615" 
d="M462 698h140l-231 -468v-230h-126v232l-232 466h141l155 -325zM289 918h123l-124 -161h-84z" />
    <glyph glyph-name="Thorn" unicode="&#xde;" horiz-adv-x="630" 
d="M588 359q0 -108 -67.5 -158t-177.5 -50h-143v-151h-126v698h126v-130h143q116 0 180.5 -51t64.5 -158zM463 359q0 52 -30 68.5t-90 16.5h-143v-170h143q60 0 90 17t30 68z" />
    <glyph glyph-name="germandbls" unicode="&#xdf;" horiz-adv-x="669" 
d="M638 148q0 -74 -58.5 -116t-135.5 -42q-171 0 -203 134l104 27q21 -54 97 -54q29 0 53 10.5t24 35.5q0 23 -28 37.5t-68 24.5t-80 24t-68 45.5t-28 79.5q0 51 28 85t74 49q-1 48 -19 75.5t-65 27.5q-49 0 -66.5 -29t-17.5 -80v-482h-119v490q0 101 51.5 159t151.5 58
q97 0 148.5 -56t54.5 -153q48 -5 81.5 -26t63.5 -67l-92 -51q-30 43 -84 43q-69 0 -69 -43q0 -20 28 -32t67.5 -21.5t79 -23.5t67.5 -46.5t28 -82.5z" />
    <glyph glyph-name="agrave" unicode="&#xe0;" horiz-adv-x="487" 
d="M429 90l19 -75l-102 -26l-11 37q-49 -39 -118 -39q-76 0 -128 42.5t-52 116.5q0 69 44.5 109.5t131.5 44.5h75q22 1 30 15v21q0 25 -20 40.5t-48 15.5q-71 0 -93 -52l-102 35q41 123 195 123q70 0 124.5 -42.5t54.5 -109.5v-256zM318 125v98q-17 -9 -34 -9h-61
q-34 -1 -56.5 -17.5t-22.5 -50.5q0 -28 24 -43.5t52 -15.5q54 0 98 38zM262 697l85 -161h-83l-125 161h123z" />
    <glyph glyph-name="aacute" unicode="&#xe1;" horiz-adv-x="487" 
d="M429 90l19 -75l-102 -26l-11 37q-49 -39 -118 -39q-76 0 -128 42.5t-52 116.5q0 69 44.5 109.5t131.5 44.5h75q22 1 30 15v21q0 25 -20 40.5t-48 15.5q-71 0 -93 -52l-102 35q41 123 195 123q70 0 124.5 -42.5t54.5 -109.5v-256zM318 125v98q-17 -9 -34 -9h-61
q-34 -1 -56.5 -17.5t-22.5 -50.5q0 -28 24 -43.5t52 -15.5q54 0 98 38zM225 697h122l-124 -161h-84z" />
    <glyph glyph-name="acircumflex" unicode="&#xe2;" horiz-adv-x="487" 
d="M429 90l19 -75l-102 -26l-11 37q-49 -39 -118 -39q-76 0 -128 42.5t-52 116.5q0 69 44.5 109.5t131.5 44.5h75q22 1 30 15v21q0 25 -20 40.5t-48 15.5q-71 0 -93 -52l-102 35q41 123 195 123q70 0 124.5 -42.5t54.5 -109.5v-256zM318 125v98q-17 -9 -34 -9h-61
q-34 -1 -56.5 -17.5t-22.5 -50.5q0 -28 24 -43.5t52 -15.5q54 0 98 38zM294 691l123 -152h-113l-61 90l-59 -90h-114l123 152h101z" />
    <glyph glyph-name="atilde" unicode="&#xe3;" horiz-adv-x="487" 
d="M429 90l19 -75l-102 -26l-11 37q-49 -39 -118 -39q-76 0 -128 42.5t-52 116.5q0 69 44.5 109.5t131.5 44.5h75q22 1 30 15v21q0 25 -20 40.5t-48 15.5q-71 0 -93 -52l-102 35q41 123 195 123q70 0 124.5 -42.5t54.5 -109.5v-256zM318 125v98q-17 -9 -34 -9h-61
q-34 -1 -56.5 -17.5t-22.5 -50.5q0 -28 24 -43.5t52 -15.5q54 0 98 38zM361 658l62 -51q-28 -36 -53 -53t-61 -17q-30 0 -66 23.5t-62 23.5q-28 0 -55 -38l-60 51q23 36 49 52.5t66 16.5q32 0 66.5 -23.5t59.5 -23.5q33 0 54 39z" />
    <glyph glyph-name="adieresis" unicode="&#xe4;" horiz-adv-x="487" 
d="M429 90l19 -75l-102 -26l-11 37q-49 -39 -118 -39q-76 0 -128 42.5t-52 116.5q0 69 44.5 109.5t131.5 44.5h75q22 1 30 15v21q0 25 -20 40.5t-48 15.5q-71 0 -93 -52l-102 35q41 123 195 123q70 0 124.5 -42.5t54.5 -109.5v-256zM318 125v98q-17 -9 -34 -9h-61
q-34 -1 -56.5 -17.5t-22.5 -50.5q0 -28 24 -43.5t52 -15.5q54 0 98 38zM412 606q0 -28 -19.5 -47.5t-47.5 -19.5t-48 19.5t-20 47.5t19.5 48t48.5 20q28 0 47.5 -20t19.5 -48zM209 606q0 -28 -19.5 -47.5t-47.5 -19.5t-47.5 19.5t-19.5 47.5t19.5 48t47.5 20t47.5 -20
t19.5 -48z" />
    <glyph glyph-name="aring" unicode="&#xe5;" horiz-adv-x="487" 
d="M429 90l19 -75l-102 -26l-11 37q-49 -39 -118 -39q-76 0 -128 42.5t-52 116.5q0 69 44.5 109.5t131.5 44.5h75q22 1 30 15v21q0 25 -20 40.5t-48 15.5q-71 0 -93 -52l-102 35q41 123 195 123q70 0 124.5 -42.5t54.5 -109.5v-256zM318 125v98q-17 -9 -34 -9h-61
q-34 -1 -56.5 -17.5t-22.5 -50.5q0 -28 24 -43.5t52 -15.5q54 0 98 38zM364 655q0 -50 -35 -85.5t-85 -35.5t-85.5 35.5t-35.5 85.5t35.5 85t85.5 35t85 -35t35 -85zM288 655q0 18 -13 31t-31 13t-31.5 -13t-13.5 -31t13.5 -31t31.5 -13t31 12.5t13 31.5z" />
    <glyph glyph-name="ae" unicode="&#xe6;" horiz-adv-x="760" 
d="M36 146q0 73 46.5 112.5t135.5 39.5h63q30 0 34 12v26q0 20 -17 37.5t-50 17.5q-68 0 -92 -52l-104 31q21 60 70.5 94t126.5 34q75 0 133 -55q56 56 148 56q67 0 112.5 -38t63.5 -91.5t18 -118.5v-33h-296q5 -59 35.5 -86.5t73.5 -27.5q53 0 98 52l82 -79
q-79 -86 -181 -86q-103 0 -152 61q-60 -65 -168 -65q-74 0 -127 41.5t-53 117.5zM320 136q-5 30 -5 85q-17 -8 -33 -8l-61 -1q-30 0 -54 -13.5t-24 -44.5q0 -24 20 -41t55 -17q52 0 102 40zM429 294h184q-2 44 -25.5 69t-61.5 25q-45 0 -69.5 -27t-27.5 -67z" />
    <glyph glyph-name="ccedilla" unicode="&#xe7;" horiz-adv-x="487" 
d="M372 165l86 -79q-78 -80 -146 -91l23 -66l-69 -131h-114l97 137l-24 60q-91 14 -139.5 84t-48.5 166q0 111 61.5 183t169.5 72q59 0 100 -23t90 -73l-86 -79q-53 61 -104 61q-110 0 -110 -141t110 -141q49 0 104 61z" />
    <glyph glyph-name="egrave" unicode="&#xe8;" horiz-adv-x="493" 
d="M457 259v-41h-297q3 -53 30.5 -84.5t78.5 -31.5q61 0 106 47l75 -72q-84 -86 -181 -86q-110 0 -171 71.5t-61 182.5t58.5 183t167.5 72q91 0 142.5 -66.5t51.5 -174.5zM161 294h185q-11 95 -88 95q-84 0 -97 -95zM266 697l85 -161h-84l-124 161h123z" />
    <glyph glyph-name="eacute" unicode="&#xe9;" horiz-adv-x="493" 
d="M457 259v-41h-297q3 -53 30.5 -84.5t78.5 -31.5q61 0 106 47l75 -72q-84 -86 -181 -86q-110 0 -171 71.5t-61 182.5t58.5 183t167.5 72q91 0 142.5 -66.5t51.5 -174.5zM161 294h185q-11 95 -88 95q-84 0 -97 -95zM228 697h123l-124 -161h-84z" />
    <glyph glyph-name="ecircumflex" unicode="&#xea;" horiz-adv-x="493" 
d="M457 259v-41h-297q3 -53 30.5 -84.5t78.5 -31.5q61 0 106 47l75 -72q-84 -86 -181 -86q-110 0 -171 71.5t-61 182.5t58.5 183t167.5 72q91 0 142.5 -66.5t51.5 -174.5zM161 294h185q-11 95 -88 95q-84 0 -97 -95zM298 691l123 -152h-114l-60 90l-60 -90h-114l123 152h102
z" />
    <glyph glyph-name="edieresis" unicode="&#xeb;" horiz-adv-x="493" 
d="M457 259v-41h-297q3 -53 30.5 -84.5t78.5 -31.5q61 0 106 47l75 -72q-84 -86 -181 -86q-110 0 -171 71.5t-61 182.5t58.5 183t167.5 72q91 0 142.5 -66.5t51.5 -174.5zM161 294h185q-11 95 -88 95q-84 0 -97 -95zM415 606q0 -28 -19.5 -47.5t-47.5 -19.5t-48 19.5
t-20 47.5t20 48t48 20t47.5 -20t19.5 -48zM213 606q0 -28 -19.5 -47.5t-47.5 -19.5t-48 19.5t-20 47.5t20 48t48 20t47.5 -20t19.5 -48z" />
    <glyph glyph-name="igrave" unicode="&#xec;" horiz-adv-x="247" 
d="M183 492v-492h-116v492h116zM66 697l85 -161h-84l-124 161h123z" />
    <glyph glyph-name="iacute" unicode="&#xed;" horiz-adv-x="245" 
d="M180 492v-492h-116v492h116zM182 697h122l-124 -161h-84z" />
    <glyph glyph-name="icircumflex" unicode="&#xee;" horiz-adv-x="245" 
d="M184 492v-492h-117v492h117zM173 691l123 -152h-113l-61 90l-59 -90h-114l123 152h101z" />
    <glyph glyph-name="idieresis" unicode="&#xef;" horiz-adv-x="246" 
d="M184 492v-492h-117v492h117zM292 606q0 -28 -20 -47.5t-47 -19.5q-28 0 -48 19.5t-20 47.5t19.5 48t48.5 20q27 0 47 -20t20 -48zM89 606q0 -28 -19.5 -47.5t-47.5 -19.5t-47.5 19.5t-19.5 47.5t19.5 48t47.5 20t47.5 -20t19.5 -48z" />
    <glyph glyph-name="eth" unicode="&#xf0;" horiz-adv-x="573" 
d="M502 248q0 -118 -53 -187t-162 -69q-58 0 -101 20.5t-67 56.5t-35.5 80.5t-11.5 98.5q0 118 52 185.5t162 67.5q22 0 34 -5l-18 40h-120v95h78l-53 118h109l53 -118h91v-95h-48q2 -3 16 -32l27.5 -56.5l15.5 -31.5q31 -58 31 -168zM398 247q0 74 -23.5 114.5t-88.5 40.5
q-35 0 -58.5 -13t-34 -37t-14.5 -48t-4 -57q0 -72 23.5 -112.5t87.5 -40.5q35 0 59 12.5t34.5 36t14.5 47.5t4 57z" />
    <glyph glyph-name="ntilde" unicode="&#xf1;" horiz-adv-x="529" 
d="M473 277v-277h-120v275q0 53 -18.5 81t-68.5 28q-35 0 -58 -24t-23 -57v-303h-119v492h98l4 -30q38 40 103 40q202 0 202 -225zM381 658l61 -51q-27 -35 -52 -52.5t-61 -17.5q-30 0 -66 23.5t-62 23.5q-29 0 -56 -38l-60 51q23 36 49.5 52.5t66.5 16.5q31 0 66 -23.5
t60 -23.5q31 0 54 39z" />
    <glyph glyph-name="ograve" unicode="&#xf2;" horiz-adv-x="514" 
d="M477 245q0 -117 -53.5 -186t-166.5 -69t-166.5 69t-53.5 186t53.5 186t166.5 69t166.5 -69t53.5 -186zM356 245q0 29 -4 51.5t-13.5 44t-30.5 33t-51 11.5q-58 0 -78.5 -38.5t-20.5 -101.5q0 -64 20.5 -101.5t78.5 -37.5t78.5 38t20.5 101zM276 697l85 -161h-84l-124 161
h123z" />
    <glyph glyph-name="oacute" unicode="&#xf3;" horiz-adv-x="514" 
d="M477 245q0 -117 -53.5 -186t-166.5 -69t-166.5 69t-53.5 186t53.5 186t166.5 69t166.5 -69t53.5 -186zM356 245q0 29 -4 51.5t-13.5 44t-30.5 33t-51 11.5q-58 0 -78.5 -38.5t-20.5 -101.5q0 -64 20.5 -101.5t78.5 -37.5t78.5 38t20.5 101zM239 697h122l-124 -161h-84z
" />
    <glyph glyph-name="ocircumflex" unicode="&#xf4;" horiz-adv-x="514" 
d="M477 245q0 -117 -53.5 -186t-166.5 -69t-166.5 69t-53.5 186t53.5 186t166.5 69t166.5 -69t53.5 -186zM356 245q0 29 -4 51.5t-13.5 44t-30.5 33t-51 11.5q-58 0 -78.5 -38.5t-20.5 -101.5q0 -64 20.5 -101.5t78.5 -37.5t78.5 38t20.5 101zM308 691l123 -152h-114l-60 90
l-60 -90h-113l122 152h102z" />
    <glyph glyph-name="otilde" unicode="&#xf5;" horiz-adv-x="514" 
d="M477 245q0 -117 -53.5 -186t-166.5 -69t-166.5 69t-53.5 186t53.5 186t166.5 69t166.5 -69t53.5 -186zM356 245q0 29 -4 51.5t-13.5 44t-30.5 33t-51 11.5q-58 0 -78.5 -38.5t-20.5 -101.5q0 -64 20.5 -101.5t78.5 -37.5t78.5 38t20.5 101zM374 658l61 -51
q-27 -35 -52 -52.5t-61 -17.5q-30 0 -66 23.5t-62 23.5q-29 0 -56 -38l-60 51q23 36 49.5 52.5t66.5 16.5q32 0 66 -23.5t60 -23.5q33 0 54 39z" />
    <glyph glyph-name="odieresis" unicode="&#xf6;" horiz-adv-x="514" 
d="M477 245q0 -117 -53.5 -186t-166.5 -69t-166.5 69t-53.5 186t53.5 186t166.5 69t166.5 -69t53.5 -186zM356 245q0 29 -4 51.5t-13.5 44t-30.5 33t-51 11.5q-58 0 -78.5 -38.5t-20.5 -101.5q0 -64 20.5 -101.5t78.5 -37.5t78.5 38t20.5 101zM425 606q0 -28 -19.5 -47.5
t-46.5 -19.5q-28 0 -48 19.5t-20 47.5t19.5 48t48.5 20q27 0 46.5 -20t19.5 -48zM223 606q0 -28 -19.5 -47.5t-47.5 -19.5t-48 19.5t-20 47.5t20 48t48 20t47.5 -20t19.5 -48z" />
    <glyph glyph-name="divide" unicode="&#xf7;" horiz-adv-x="541" 
d="M331 427q0 -26 -18 -44t-44 -18t-44.5 18.5t-18.5 43.5q0 26 18.5 44.5t44.5 18.5t44 -18.5t18 -44.5zM486 319v-90h-429v90h429zM331 120q0 -26 -18 -44t-44 -18t-44.5 18.5t-18.5 43.5q0 26 18.5 44.5t44.5 18.5t44 -18.5t18 -44.5z" />
    <glyph glyph-name="oslash" unicode="&#xf8;" horiz-adv-x="565" 
d="M477 245q0 -117 -53.5 -186t-166.5 -69q-42 0 -75 11l-9 -18h-91l27 56q-72 66 -72 206q0 117 53.5 186t166.5 69q41 0 75 -11l9 20h95l-30 -59q71 -67 71 -205zM356 245q0 46 -12 75l-109 -210q7 -4 22 -4q58 -1 78.5 37.5t20.5 101.5zM279 380q-7 4 -22 4
q-58 1 -78.5 -37.5t-20.5 -101.5q0 -48 12 -78z" />
    <glyph glyph-name="ugrave" unicode="&#xf9;" horiz-adv-x="528" 
d="M463 492v-492h-98l-5 29q-46 -38 -100 -38q-102 0 -153 56t-51 159v286h119v-279q0 -52 18.5 -79t69.5 -27q33 0 56.5 21.5t23.5 55.5v308h120zM283 697l84 -161h-83l-125 161h124z" />
    <glyph glyph-name="uacute" unicode="&#xfa;" horiz-adv-x="528" 
d="M463 492v-492h-98l-5 29q-46 -38 -100 -38q-102 0 -153 56t-51 159v286h119v-279q0 -52 18.5 -79t69.5 -27q33 0 56.5 21.5t23.5 55.5v308h120zM245 697h122l-123 -161h-85z" />
    <glyph glyph-name="ucircumflex" unicode="&#xfb;" horiz-adv-x="528" 
d="M463 492v-492h-98l-5 29q-46 -38 -100 -38q-102 0 -153 56t-51 159v286h119v-279q0 -52 18.5 -79t69.5 -27q33 0 56.5 21.5t23.5 55.5v308h120zM315 691l123 -152h-114l-61 90l-59 -90h-114l123 152h102z" />
    <glyph glyph-name="udieresis" unicode="&#xfc;" horiz-adv-x="528" 
d="M463 492v-492h-98l-5 29q-46 -38 -100 -38q-102 0 -153 56t-51 159v286h119v-279q0 -52 18.5 -79t69.5 -27q33 0 56.5 21.5t23.5 55.5v308h120zM432 606q0 -28 -19.5 -47.5t-47.5 -19.5t-48 19.5t-20 47.5t20 48t48 20t47.5 -20t19.5 -48zM230 606q0 -28 -20 -47.5
t-47 -19.5q-28 0 -48 19.5t-20 47.5t19.5 48t48.5 20q27 0 47 -20t20 -48z" />
    <glyph glyph-name="yacute" unicode="&#xfd;" horiz-adv-x="513" 
d="M368 492h128l-225 -604q-24 -67 -67.5 -88.5t-118.5 -21.5h-21v102h18q40 0 56.5 9t26.5 35l28 75l-176 493h128l109 -344zM238 697h122l-123 -161h-85z" />
    <glyph glyph-name="thorn" unicode="&#xfe;" horiz-adv-x="520" 
d="M483 251q0 -116 -51.5 -189.5t-159.5 -73.5q-49 0 -81 23v-219h-122v906h122v-208q35 23 81 23q57 0 99.5 -22t66 -60t34.5 -83t11 -97zM361 251q0 63 -18 100.5t-71 37.5q-37 0 -59 -20t-22 -53v-131q0 -36 23.5 -55t57.5 -19q29 0 48 12.5t27.5 36t11 43.5t2.5 48z" />
    <glyph glyph-name="ydieresis" unicode="&#xff;" horiz-adv-x="513" 
d="M368 492h128l-225 -604q-24 -67 -67.5 -88.5t-118.5 -21.5h-21v102h18q40 0 56.5 9t26.5 35l28 75l-176 493h128l109 -344zM425 606q0 -28 -19.5 -47.5t-47.5 -19.5t-48 19.5t-20 47.5t20 48t48 20t47.5 -20t19.5 -48zM223 606q0 -28 -20 -47.5t-47 -19.5q-28 0 -48 19.5
t-20 47.5t20 48t48 20q27 0 47 -20t20 -48z" />
    <glyph glyph-name="Amacron" unicode="&#x100;" horiz-adv-x="655" 
d="M383 698l270 -698h-136l-67 182h-246l-66 -182h-136l268 698h113zM245 292h165l-83 225zM489 869v-80h-323v80h323z" />
    <glyph glyph-name="amacron" unicode="&#x101;" horiz-adv-x="487" 
d="M429 90l19 -75l-102 -26l-11 37q-49 -39 -118 -39q-76 0 -128 42.5t-52 116.5q0 69 44.5 109.5t131.5 44.5h75q22 1 30 15v21q0 25 -20 40.5t-48 15.5q-71 0 -93 -52l-102 35q41 123 195 123q70 0 124.5 -42.5t54.5 -109.5v-256zM318 125v98q-17 -9 -34 -9h-61
q-34 -1 -56.5 -17.5t-22.5 -50.5q0 -28 24 -43.5t52 -15.5q54 0 98 38zM405 648v-80h-323v80h323z" />
    <glyph glyph-name="Abreve" unicode="&#x102;" horiz-adv-x="655" 
d="M383 698l270 -698h-136l-67 182h-246l-66 -182h-136l268 698h113zM245 292h165l-83 225zM436 915h81q-60 -145 -189 -145q-128 0 -190 145h82q41 -71 108 -71t108 71z" />
    <glyph glyph-name="abreve" unicode="&#x103;" horiz-adv-x="487" 
d="M429 90l19 -75l-102 -26l-11 37q-49 -39 -118 -39q-76 0 -128 42.5t-52 116.5q0 69 44.5 109.5t131.5 44.5h75q22 1 30 15v21q0 25 -20 40.5t-48 15.5q-71 0 -93 -52l-102 35q41 123 195 123q70 0 124.5 -42.5t54.5 -109.5v-256zM318 125v98q-17 -9 -34 -9h-61
q-34 -1 -56.5 -17.5t-22.5 -50.5q0 -28 24 -43.5t52 -15.5q54 0 98 38zM352 694h82q-62 -145 -190 -145q-127 0 -189 145h81q41 -71 108 -71q69 0 108 71z" />
    <glyph glyph-name="Aogonek" unicode="&#x104;" horiz-adv-x="655" 
d="M609 0l138 -199h-111l-119 199l-67 182h-246l-66 -182h-136l268 698h113l270 -698h-44zM245 292h165l-83 225z" />
    <glyph glyph-name="aogonek" unicode="&#x105;" horiz-adv-x="487" 
d="M424 9l146 -208h-111l-113 188l-11 37q-49 -39 -118 -39q-76 0 -128 42.5t-52 116.5q0 69 44.5 109.5t131.5 44.5h75q22 1 30 15v21q0 25 -20 40.5t-48 15.5q-71 0 -93 -52l-102 35q41 123 195 123q70 0 124.5 -42.5t54.5 -109.5v-256l20 -75zM318 125v98q-17 -9 -34 -9
h-61q-34 -1 -56.5 -17.5t-22.5 -50.5q0 -28 24 -43.5t52 -15.5q54 0 98 38z" />
    <glyph glyph-name="Cacute" unicode="&#x106;" horiz-adv-x="610" 
d="M494 202l89 -85q-59 -70 -109 -98t-134 -28q-99 0 -168.5 51.5t-100 130.5t-30.5 176q0 72 18 135.5t53 114t94 79.5t134 29q78 0 132.5 -28t106.5 -90l-89 -87q-36 41 -69.5 61t-80.5 20t-82 -21t-53.5 -56t-27 -74t-8.5 -83t8.5 -83t27 -74t53.5 -56t82 -21q49 0 84 22
t70 65zM350 918h123l-124 -161h-85z" />
    <glyph glyph-name="cacute" unicode="&#x107;" horiz-adv-x="487" 
d="M458 404l-86 -79q-53 61 -104 61q-110 0 -110 -141t110 -141q49 0 104 61l86 -79q-48 -50 -89 -72.5t-101 -22.5q-108 0 -169.5 72t-61.5 182q0 111 61.5 183t169.5 72q60 0 102.5 -23.5t87.5 -72.5zM247 697h122l-124 -161h-84z" />
    <glyph glyph-name="Ccircumflex" unicode="&#x108;" horiz-adv-x="610" 
d="M494 202l89 -85q-59 -70 -109 -98t-134 -28q-99 0 -168.5 51.5t-100 130.5t-30.5 176q0 72 18 135.5t53 114t94 79.5t134 29q78 0 132.5 -28t106.5 -90l-89 -87q-36 41 -69.5 61t-80.5 20t-82 -21t-53.5 -56t-27 -74t-8.5 -83t8.5 -83t27 -74t53.5 -56t82 -21q49 0 84 22
t70 65zM382 912l123 -152h-114l-61 90l-59 -90h-114l123 152h102z" />
    <glyph glyph-name="ccircumflex" unicode="&#x109;" horiz-adv-x="487" 
d="M458 404l-86 -79q-53 61 -104 61q-110 0 -110 -141t110 -141q49 0 104 61l86 -79q-48 -50 -89 -72.5t-101 -22.5q-108 0 -169.5 72t-61.5 182q0 111 61.5 183t169.5 72q60 0 102.5 -23.5t87.5 -72.5zM294 691l123 -152h-114l-60 90l-60 -90h-113l122 152h102z" />
    <glyph glyph-name="Cdotaccent" unicode="&#x10a;" horiz-adv-x="610" 
d="M494 202l89 -85q-59 -70 -109 -98t-134 -28q-99 0 -168.5 51.5t-100 130.5t-30.5 176q0 72 18 135.5t53 114t94 79.5t134 29q78 0 132.5 -28t106.5 -90l-89 -87q-36 41 -69.5 61t-80.5 20t-82 -21t-53.5 -56t-27 -74t-8.5 -83t8.5 -83t27 -74t53.5 -56t82 -21q49 0 84 22
t70 65zM405 809q0 -25 -18 -43t-44 -18q-25 0 -43 18t-18 43t18 43t43 18q26 0 44 -18t18 -43z" />
    <glyph glyph-name="cdotaccent" unicode="&#x10b;" horiz-adv-x="487" 
d="M458 404l-86 -79q-53 61 -104 61q-110 0 -110 -141t110 -141q49 0 104 61l86 -79q-48 -50 -89 -72.5t-101 -22.5q-108 0 -169.5 72t-61.5 182q0 111 61.5 183t169.5 72q60 0 102.5 -23.5t87.5 -72.5zM321 588q0 -25 -18 -43t-44 -18q-25 0 -43 18t-18 43t18 43t43 18
q26 0 44 -18t18 -43z" />
    <glyph glyph-name="Ccaron" unicode="&#x10c;" horiz-adv-x="610" 
d="M583 117l-89 85q-35 -43 -70 -65t-84 -22q-47 0 -82 21t-53.5 56t-27 74t-8.5 83t8.5 83t27 74t53.5 56t82 21t80.5 -20t69.5 -61l89 87q-52 62 -106.5 90t-132.5 28q-75 0 -134 -29t-94 -79.5t-53 -114t-18 -135.5q0 -97 30.5 -176t100 -130.5t168.5 -51.5q84 0 134 28
t109 98zM513 911l-123 -152h-102l-123 152h114l59 -90l61 90h114z" />
    <glyph glyph-name="ccaron" unicode="&#x10d;" horiz-adv-x="487" 
d="M458 404l-86 -79q-53 61 -104 61q-110 0 -110 -141t110 -141q49 0 104 61l86 -79q-48 -50 -89 -72.5t-101 -22.5q-108 0 -169.5 72t-61.5 182q0 111 61.5 183t169.5 72q60 0 102.5 -23.5t87.5 -72.5zM417 690l-123 -152h-102l-122 152h113l60 -90l60 90h114z" />
    <glyph glyph-name="Dcaron" unicode="&#x10e;" horiz-adv-x="646" 
d="M595 349q0 103 -12.5 165t-49 106t-99.5 61t-166 17h-197v-698h197q103 0 166 17.5t99.5 61.5t49 106t12.5 164zM469 348q0 -135 -21 -172q-17 -29 -52.5 -40.5t-99.5 -11.5h-99v450h99q64 0 99 -11t52 -39q22 -37 22 -176zM496 911l-123 -152h-101l-123 152h114l59 -90
l61 90h113z" />
    <glyph glyph-name="dcaron" unicode="&#x10f;" horiz-adv-x="514" 
d="M466 17l-104 -31l-11 37q-43 -33 -107 -33q-109 0 -158 71.5t-49 185.5q0 73 19 127.5t67 90.5t121 36q48 0 81 -29v226h120v-606q0 -2 10.5 -37t10.5 -38zM325 182v129q0 34 -22.5 54t-57.5 20q-30 0 -49 -12t-27 -35t-10.5 -43t-2.5 -49t2.5 -49t10.5 -43t27 -35
t49 -12q34 0 57 20.5t23 54.5zM589 687v-160h-108v160q0 23 15.5 38.5t38.5 15.5t38.5 -15.5t15.5 -38.5z" />
    <glyph glyph-name="Dcroat" unicode="&#x110;" horiz-adv-x="649" 
d="M595 349q0 -101 -7 -148q-9 -64 -36 -106t-71 -61.5t-86 -26.5t-99 -7h-224v302h-39v91h39v305h224q57 0 99 -7t86 -26.5t71 -61.5t36 -106q7 -47 7 -148zM469 349q0 81 -5 121q-4 29 -14.5 49.5t-23.5 31t-36.5 16t-42 6.5t-51.5 1h-99v-181h130v-91h-130v-178h99
q85 0 122 18.5t46 86.5q5 39 5 120z" />
    <glyph glyph-name="dcroat" unicode="&#x111;" horiz-adv-x="514" 
d="M513 650v-93h-68v-465q0 -2 10.5 -37t10.5 -38l-104 -31l-11 37q-43 -33 -107 -33q-109 0 -158 71.5t-49 185.5q0 73 19 127.5t67 90.5t121 36q48 0 81 -29v85h-103v93h103v48h120v-48h68zM325 182v129q0 34 -22.5 54t-57.5 20q-30 0 -49 -12t-27 -35t-10.5 -43t-2.5 -49
t2.5 -49t10.5 -43t27 -35t49 -12q34 0 57 20.5t23 54.5z" />
    <glyph glyph-name="Emacron" unicode="&#x112;" horiz-adv-x="593" 
d="M543 124v-124h-472v698h472v-124h-346v-156h302v-118h-302v-176h346zM458 869v-80h-323v80h323z" />
    <glyph glyph-name="emacron" unicode="&#x113;" horiz-adv-x="493" 
d="M457 259v-41h-297q3 -53 30.5 -84.5t78.5 -31.5q61 0 106 47l75 -72q-84 -86 -181 -86q-110 0 -171 71.5t-61 182.5t58.5 183t167.5 72q91 0 142.5 -66.5t51.5 -174.5zM161 294h185q-11 95 -88 95q-84 0 -97 -95zM409 648v-80h-323v80h323z" />
    <glyph glyph-name="Ebreve" unicode="&#x114;" horiz-adv-x="593" 
d="M543 124v-124h-472v698h472v-124h-346v-156h302v-118h-302v-176h346zM404 915h82q-62 -145 -190 -145q-127 0 -189 145h81q41 -71 108 -71q69 0 108 71z" />
    <glyph glyph-name="ebreve" unicode="&#x115;" horiz-adv-x="493" 
d="M457 259v-41h-297q3 -53 30.5 -84.5t78.5 -31.5q61 0 106 47l75 -72q-84 -86 -181 -86q-110 0 -171 71.5t-61 182.5t58.5 183t167.5 72q91 0 142.5 -66.5t51.5 -174.5zM161 294h185q-11 95 -88 95q-84 0 -97 -95zM355 694h81q-60 -145 -189 -145q-128 0 -190 145h82
q41 -71 108 -71t108 71z" />
    <glyph glyph-name="Edotaccent" unicode="&#x116;" horiz-adv-x="593" 
d="M543 124v-124h-472v698h472v-124h-346v-156h302v-118h-302v-176h346zM358 809q0 -25 -18 -43t-44 -18q-25 0 -43 18t-18 43t18 43t43 18q26 0 44 -18t18 -43z" />
    <glyph glyph-name="edotaccent" unicode="&#x117;" horiz-adv-x="493" 
d="M457 259v-41h-297q3 -53 30.5 -84.5t78.5 -31.5q61 0 106 47l75 -72q-84 -86 -181 -86q-110 0 -171 71.5t-61 182.5t58.5 183t167.5 72q91 0 142.5 -66.5t51.5 -174.5zM161 294h185q-11 95 -88 95q-84 0 -97 -95zM308 588q0 -26 -18 -43.5t-43 -17.5t-43 17.5t-18 43.5
t18 43.5t43 17.5t43 -17.5t18 -43.5z" />
    <glyph glyph-name="Eogonek" unicode="&#x118;" horiz-adv-x="593" 
d="M543 0l139 -199h-111l-119 199h-381v698h472v-124h-346v-156h302v-118h-302v-176h346v-124z" />
    <glyph glyph-name="eogonek" unicode="&#x119;" horiz-adv-x="493" 
d="M362 12l148 -211h-112l-114 191q-1 0 -7.5 -0.5t-7.5 -0.5q-110 0 -171 71.5t-61 182.5t58.5 183t167.5 72q91 0 142.5 -66.5t51.5 -174.5v-41h-297q3 -53 30.5 -84.5t78.5 -31.5q61 0 106 47l75 -72q-44 -46 -88 -65zM161 294h185q-11 95 -88 95q-84 0 -97 -95z" />
    <glyph glyph-name="Ecaron" unicode="&#x11a;" horiz-adv-x="593" 
d="M543 0v124h-346v176h302v118h-302v156h346v124h-472v-698h472zM473 911l-123 -152h-102l-123 152h114l59 -90l61 90h114z" />
    <glyph glyph-name="ecaron" unicode="&#x11b;" horiz-adv-x="493" 
d="M457 218v41q0 108 -51.5 174.5t-142.5 66.5q-109 0 -167.5 -72t-58.5 -183t61 -182.5t171 -71.5q97 0 181 86l-75 72q-45 -47 -106 -47q-51 0 -78.5 31.5t-30.5 84.5h297zM346 294h-185q13 95 97 95q77 0 88 -95zM421 690l-123 -152h-102l-123 152h114l60 -90l60 90h114z
" />
    <glyph glyph-name="Gcircumflex" unicode="&#x11c;" horiz-adv-x="632" 
d="M322 385h257v-385h-106v65q-47 -73 -147 -73q-75 0 -131.5 29.5t-89 81t-48.5 113t-16 133.5t16.5 134.5t49.5 113t90.5 80t132.5 29.5q79 0 132 -30.5t104 -97.5l-88 -80q-33 43 -66 63.5t-82 20.5q-163 0 -163 -233t163 -233q65 0 95 45.5t30 115.5h-133v108zM366 912
l123 -152h-114l-60 90l-60 -90h-113l123 152h101z" />
    <glyph glyph-name="gcircumflex" unicode="&#x11d;" 
d="M427 319q0 -84 -52.5 -130t-139.5 -46q-27 0 -53 10q-25 -19 -25 -42q0 -18 24 -18q27 0 79 12t78 12q56 0 92 -33.5t36 -88.5q0 -86 -70 -139t-159 -53q-52 0 -96.5 13.5t-77.5 49t-33 87.5q0 26 8 46l105 -31q-1 -5 -1 -13q0 -21 25 -33t58 -12q48 0 88.5 21.5
t40.5 58.5q0 15 -11 23t-26 8q-22 0 -63 -8t-62 -8q-52 0 -91.5 23.5t-39.5 71.5q0 49 38 90q-48 48 -48 129q0 87 50 134t138 47q70 0 113 -28q12 15 12 40h99q-2 -85 -48 -116q12 -42 12 -77zM313 319q0 34 -20 52t-54 18t-54.5 -18t-20.5 -52q0 -71 75 -71q74 0 74 71z
M301 691l123 -152h-114l-60 90l-60 -90h-113l123 152h101z" />
    <glyph glyph-name="Gbreve" unicode="&#x11e;" horiz-adv-x="632" 
d="M322 385h257v-385h-106v65q-47 -73 -147 -73q-75 0 -131.5 29.5t-89 81t-48.5 113t-16 133.5t16.5 134.5t49.5 113t90.5 80t132.5 29.5q79 0 132 -30.5t104 -97.5l-88 -80q-33 43 -66 63.5t-82 20.5q-163 0 -163 -233t163 -233q65 0 95 45.5t30 115.5h-133v108zM424 915
h81q-60 -145 -189 -145q-127 0 -190 145h82q41 -71 108 -71t108 71z" />
    <glyph glyph-name="gbreve" unicode="&#x11f;" 
d="M427 319q0 -84 -52.5 -130t-139.5 -46q-27 0 -53 10q-25 -19 -25 -42q0 -18 24 -18q27 0 79 12t78 12q56 0 92 -33.5t36 -88.5q0 -86 -70 -139t-159 -53q-52 0 -96.5 13.5t-77.5 49t-33 87.5q0 26 8 46l105 -31q-1 -5 -1 -13q0 -21 25 -33t58 -12q48 0 88.5 21.5
t40.5 58.5q0 15 -11 23t-26 8q-22 0 -63 -8t-62 -8q-52 0 -91.5 23.5t-39.5 71.5q0 49 38 90q-48 48 -48 129q0 87 50 134t138 47q70 0 113 -28q12 15 12 40h99q-2 -85 -48 -116q12 -42 12 -77zM313 319q0 34 -20 52t-54 18t-54.5 -18t-20.5 -52q0 -71 75 -71q74 0 74 71z
M359 694h81q-60 -145 -189 -145q-127 0 -190 145h82q41 -71 108 -71t108 71z" />
    <glyph glyph-name="Gdotaccent" unicode="&#x120;" horiz-adv-x="632" 
d="M322 385h257v-385h-106v65q-47 -73 -147 -73q-75 0 -131.5 29.5t-89 81t-48.5 113t-16 133.5t16.5 134.5t49.5 113t90.5 80t132.5 29.5q79 0 132 -30.5t104 -97.5l-88 -80q-33 43 -66 63.5t-82 20.5q-163 0 -163 -233t163 -233q65 0 95 45.5t30 115.5h-133v108zM377 809
q0 -25 -18 -43t-44 -18q-25 0 -43 18t-18 43t18 43t43 18q26 0 44 -18t18 -43z" />
    <glyph glyph-name="gdotaccent" unicode="&#x121;" 
d="M427 319q0 -84 -52.5 -130t-139.5 -46q-27 0 -53 10q-25 -19 -25 -42q0 -18 24 -18q27 0 79 12t78 12q56 0 92 -33.5t36 -88.5q0 -86 -70 -139t-159 -53q-52 0 -96.5 13.5t-77.5 49t-33 87.5q0 26 8 46l105 -31q-1 -5 -1 -13q0 -21 25 -33t58 -12q48 0 88.5 21.5
t40.5 58.5q0 15 -11 23t-26 8q-22 0 -63 -8t-62 -8q-52 0 -91.5 23.5t-39.5 71.5q0 49 38 90q-48 48 -48 129q0 87 50 134t138 47q70 0 113 -28q12 15 12 40h99q-2 -85 -48 -116q12 -42 12 -77zM313 319q0 34 -20 52t-54 18t-54.5 -18t-20.5 -52q0 -71 75 -71q74 0 74 71z
M312 588q0 -25 -18 -43t-44 -18q-25 0 -43 18t-18 43t18 43t43 18q26 0 44 -18t18 -43z" />
    <glyph glyph-name="Gcommaaccent" unicode="&#x122;" horiz-adv-x="632" 
d="M322 385h257v-385h-106v65q-47 -73 -147 -73q-75 0 -131.5 29.5t-89 81t-48.5 113t-16 133.5t16.5 134.5t49.5 113t90.5 80t132.5 29.5q79 0 132 -30.5t104 -97.5l-88 -80q-33 43 -66 63.5t-82 20.5q-163 0 -163 -233t163 -233q65 0 95 45.5t30 115.5h-133v108zM382 -137
v-55l-80 -128h-46v183q0 26 18.5 44t44.5 18t44.5 -18t18.5 -44z" />
    <glyph glyph-name="gcommaaccent" unicode="&#x123;" 
d="M427 319q0 -84 -52.5 -130t-139.5 -46q-27 0 -53 10q-25 -19 -25 -42q0 -18 24 -18q27 0 79 12t78 12q56 0 92 -33.5t36 -88.5q0 -86 -70 -139t-159 -53q-52 0 -96.5 13.5t-77.5 49t-33 87.5q0 26 8 46l105 -31q-1 -5 -1 -13q0 -21 25 -33t58 -12q48 0 88.5 21.5
t40.5 58.5q0 15 -11 23t-26 8q-22 0 -63 -8t-62 -8q-52 0 -91.5 23.5t-39.5 71.5q0 49 38 90q-48 48 -48 129q0 87 50 134t138 47q70 0 113 -28q12 15 12 40h99q-2 -85 -48 -116q12 -42 12 -77zM313 319q0 34 -20 52t-54 18t-54.5 -18t-20.5 -52q0 -71 75 -71q74 0 74 71z
M187 611v55l80 128h46v-183q0 -26 -18.5 -44t-44.5 -18t-44.5 18t-18.5 44z" />
    <glyph glyph-name="Hcircumflex" unicode="&#x124;" horiz-adv-x="670" 
d="M600 698v-698h-126v300h-277v-300h-126v698h126v-280h277v280h126zM386 912l123 -152h-114l-60 90l-60 -90h-113l122 152h102z" />
    <glyph glyph-name="hcircumflex" unicode="&#x125;" horiz-adv-x="520" 
d="M473 274v-274h-120v274q0 109 -87 109q-30 0 -55.5 -21.5t-25.5 -53.5v-308h-119v698h119v-233q32 36 97 36q96 0 143.5 -62t47.5 -165zM179 899l123 -152h-114l-60 90l-60 -90h-114l123 152h102z" />
    <glyph glyph-name="Hbar" unicode="&#x126;" horiz-adv-x="670" 
d="M670 594v-80h-70v-514h-126v300h-277v-300h-126v514h-71v80h71v104h126v-104h277v104h126v-104h70zM197 418h277v96h-277v-96z" />
    <glyph glyph-name="hbar" unicode="&#x127;" horiz-adv-x="520" 
d="M421 652v-79h-236v-108q32 36 97 36q96 0 143.5 -62t47.5 -165v-274h-120v274q0 109 -87 109q-30 0 -55.5 -21.5t-25.5 -53.5v-308h-119v698h119v-46h236z" />
    <glyph glyph-name="Itilde" unicode="&#x128;" horiz-adv-x="274" 
d="M200 698v-698h-126v698h126zM254 879l62 -51q-27 -35 -52 -52.5t-62 -17.5q-30 0 -65.5 23.5t-62.5 23.5q-28 0 -55 -38l-60 51q23 36 49 52.5t66 16.5q32 0 66.5 -23.5t59.5 -23.5q33 0 54 39z" />
    <glyph glyph-name="itilde" unicode="&#x129;" horiz-adv-x="246" 
d="M184 492v-492h-117v492h117zM240 658l62 -51q-27 -35 -52.5 -52.5t-61.5 -17.5q-30 0 -66 23.5t-62 23.5q-28 0 -55 -38l-60 51q23 36 49 52.5t66 16.5q32 0 66.5 -23.5t59.5 -23.5q33 0 54 39z" />
    <glyph glyph-name="imacron" unicode="&#x12b;" horiz-adv-x="247" 
d="M185 492v-492h-117v492h117zM285 648v-80h-323v80h323z" />
    <glyph glyph-name="Ibreve" unicode="&#x12c;" horiz-adv-x="274" 
d="M200 698v-698h-126v698h126zM245 915h82q-62 -145 -190 -145q-127 0 -189 145h81q41 -71 108 -71q69 0 108 71z" />
    <glyph glyph-name="Iogonek" unicode="&#x12e;" horiz-adv-x="274" 
d="M200 698v-698h-34l138 -199h-111l-119 199v698h126z" />
    <glyph glyph-name="iogonek" unicode="&#x12f;" horiz-adv-x="251" 
d="M160 0l139 -199h-111l-120 199v492h117v-492h-25zM198 652q0 -29 -20.5 -50t-50.5 -21q-29 0 -49.5 21t-20.5 50t20.5 49.5t49.5 20.5q30 0 50.5 -20.5t20.5 -49.5z" />
    <glyph glyph-name="Idotaccent" unicode="&#x130;" horiz-adv-x="274" 
d="M200 698v-698h-126v698h126zM198 809q0 -26 -18 -43.5t-44 -17.5q-25 0 -42.5 18t-17.5 43t17.5 43t42.5 18q26 0 44 -17.5t18 -43.5z" />
    <glyph glyph-name="dotlessi" unicode="&#x131;" horiz-adv-x="243" 
d="M179 492v-492h-116v492h116z" />
    <glyph glyph-name="Jcircumflex" unicode="&#x134;" horiz-adv-x="561" 
d="M491 698v-476q0 -112 -60.5 -170.5t-174.5 -58.5q-98 0 -154.5 48t-79.5 141l120 33q27 -100 113 -100q59 0 85 27t26 84v472h125zM481 912l123 -152h-114l-61 90l-59 -90h-114l123 152h102z" />
    <glyph glyph-name="jcircumflex" unicode="&#x135;" horiz-adv-x="264" 
d="M194 492v-523q0 -77 -42 -124.5t-119 -56.5l-37 101q82 15 82 91v512h116zM188 691l123 -152h-114l-61 90l-59 -90h-114l123 152h102z" />
    <glyph glyph-name="Kcommaaccent" unicode="&#x136;" horiz-adv-x="618" 
d="M581 698l-234 -345l260 -353h-149l-247 352l231 346h139zM197 0h-126v698h126v-698zM371 -137v-55l-80 -128h-46v183q0 26 18.5 44t44.5 18t44.5 -18t18.5 -44z" />
    <glyph glyph-name="kcommaaccent" unicode="&#x137;" horiz-adv-x="477" 
d="M303 271l175 -271h-129l-167 270l140 222h125zM177 698v-698h-115v698h115zM302 -137v-55l-80 -128h-47v183q0 26 18.5 44t44.5 18q27 0 45.5 -18t18.5 -44z" />
    <glyph glyph-name="Lacute" unicode="&#x139;" horiz-adv-x="542" 
d="M502 121v-121h-431v698h125v-577h306zM156 918h123l-124 -161h-84z" />
    <glyph glyph-name="lacute" unicode="&#x13a;" horiz-adv-x="249" 
d="M214 101v-101q-77 1 -114.5 31t-37.5 105v562h113v-560q0 -36 39 -37zM147 896h123l-124 -161h-84z" />
    <glyph glyph-name="Lcommaaccent" unicode="&#x13b;" horiz-adv-x="542" 
d="M502 121v-121h-431v698h125v-577h306zM337 -137v-55l-80 -128h-46v183q0 26 18.5 44t44.5 18t44.5 -18t18.5 -44z" />
    <glyph glyph-name="lcommaaccent" unicode="&#x13c;" horiz-adv-x="249" 
d="M214 101v-101q-77 1 -114.5 31t-37.5 105v562h113v-560q0 -36 39 -37zM189 -137v-55l-80 -128h-46v183q0 26 18.5 44t44.5 18t44.5 -18t18.5 -44z" />
    <glyph glyph-name="Lcaron" unicode="&#x13d;" horiz-adv-x="542" 
d="M502 121v-121h-431v698h125v-577h306zM500 686l-5 -54l-74 -118h-42l5 171q0 24 17 41.5t41 17.5t42 -17.5t16 -40.5z" />
    <glyph glyph-name="lcaron" unicode="&#x13e;" horiz-adv-x="249" 
d="M214 101v-101q-77 1 -114.5 31t-37.5 105v562h113v-560q0 -36 39 -37zM362 691l-6 -54l-74 -118h-42l5 172q1 24 17.5 41t40.5 17t42 -17.5t17 -40.5z" />
    <glyph glyph-name="Lslash" unicode="&#x141;" horiz-adv-x="550" 
d="M523 124v-124h-437v241l-37 -16v96l37 16v361h128v-305l127 55v-97l-127 -55v-172h309z" />
    <glyph glyph-name="lslash" unicode="&#x142;" horiz-adv-x="303" 
d="M254 427v-96l-55 -26v-167q0 -19 8.5 -27.5t30.5 -9.5v-101q-78 1 -116 32t-38 104v114l-42 -21v97l42 20v352h115v-296z" />
    <glyph glyph-name="Nacute" unicode="&#x143;" horiz-adv-x="648" 
d="M577 698v-698h-103l-277 437v-437h-126v698h104l277 -437v437h125zM305 918h123l-124 -161h-84z" />
    <glyph glyph-name="nacute" unicode="&#x144;" horiz-adv-x="529" 
d="M473 277v-277h-120v275q0 53 -18.5 81t-68.5 28q-35 0 -58 -24t-23 -57v-303h-119v492h98l4 -30q38 40 103 40q202 0 202 -225zM246 697h122l-124 -161h-84z" />
    <glyph glyph-name="Ncommaaccent" unicode="&#x145;" horiz-adv-x="648" 
d="M577 698v-698h-103l-277 437v-437h-126v698h104l277 -437v437h125zM383 -137v-55l-80 -128h-46v183q0 26 18.5 44t44.5 18t44.5 -18t18.5 -44z" />
    <glyph glyph-name="ncommaaccent" unicode="&#x146;" horiz-adv-x="529" 
d="M473 277v-277h-120v275q0 53 -18.5 81t-68.5 28q-35 0 -58 -24t-23 -57v-303h-119v492h98l4 -30q38 40 103 40q202 0 202 -225zM327 -137v-55l-80 -128h-46v183q0 26 18.5 44t44.5 18t44.5 -18t18.5 -44z" />
    <glyph glyph-name="Ncaron" unicode="&#x147;" horiz-adv-x="648" 
d="M577 0v698h-125v-437l-277 437h-104v-698h126v437l277 -437h103zM498 911l-123 -152h-102l-123 152h114l59 -90l61 90h114z" />
    <glyph glyph-name="ncaron" unicode="&#x148;" horiz-adv-x="529" 
d="M473 0v277q0 225 -202 225q-65 0 -103 -40l-4 30h-98v-492h119v303q0 33 23 57t58 24q50 0 68.5 -28t18.5 -81v-275h120zM438 690l-123 -152h-102l-122 152h113l60 -90l60 90h114z" />
    <glyph glyph-name="Eng" unicode="&#x14a;" horiz-adv-x="648" 
d="M577 698l-1 -729q0 -77 -41.5 -124.5t-118.5 -56.5l-37 101q82 15 82 91v40l-264 417v-437h-126v698h104l277 -437v437h125z" />
    <glyph glyph-name="eng" unicode="&#x14b;" horiz-adv-x="529" 
d="M473 277v-308q0 -77 -42 -124.5t-119 -56.5l-37 101q78 14 78 91v295q0 53 -18.5 81t-68.5 28q-35 0 -58 -24t-23 -57v-303h-119v492h98l4 -30q38 40 103 40q202 0 202 -225z" />
    <glyph glyph-name="Omacron" unicode="&#x14c;" horiz-adv-x="660" 
d="M619 349q0 -72 -16 -134t-49 -113t-90.5 -80.5t-133.5 -29.5t-133.5 29.5t-90.5 80.5t-49 113t-16 134t16 134t49 113t90.5 80.5t133.5 29.5q61 0 110.5 -19.5t82 -52.5t55 -79t32 -97.5t9.5 -108.5zM492 349q0 233 -162 233q-163 0 -163 -233t163 -233q162 0 162 233z
M491 869v-80h-323v80h323z" />
    <glyph glyph-name="omacron" unicode="&#x14d;" horiz-adv-x="514" 
d="M477 245q0 -117 -53.5 -186t-166.5 -69t-166.5 69t-53.5 186t53.5 186t166.5 69t166.5 -69t53.5 -186zM356 245q0 29 -4 51.5t-13.5 44t-30.5 33t-51 11.5q-58 0 -78.5 -38.5t-20.5 -101.5q0 -64 20.5 -101.5t78.5 -37.5t78.5 38t20.5 101zM419 648v-80h-323v80h323z" />
    <glyph glyph-name="Obreve" unicode="&#x14e;" horiz-adv-x="660" 
d="M619 349q0 -72 -16 -134t-49 -113t-90.5 -80.5t-133.5 -29.5t-133.5 29.5t-90.5 80.5t-49 113t-16 134t16 134t49 113t90.5 80.5t133.5 29.5q61 0 110.5 -19.5t82 -52.5t55 -79t32 -97.5t9.5 -108.5zM492 349q0 233 -162 233q-163 0 -163 -233t163 -233q162 0 162 233z
M438 915h81q-60 -145 -189 -145q-127 0 -190 145h82q41 -71 108 -71q69 0 108 71z" />
    <glyph glyph-name="obreve" unicode="&#x14f;" horiz-adv-x="514" 
d="M477 245q0 -117 -53.5 -186t-166.5 -69t-166.5 69t-53.5 186t53.5 186t166.5 69t166.5 -69t53.5 -186zM356 245q0 29 -4 51.5t-13.5 44t-30.5 33t-51 11.5q-58 0 -78.5 -38.5t-20.5 -101.5q0 -64 20.5 -101.5t78.5 -37.5t78.5 38t20.5 101zM365 694h81
q-60 -145 -189 -145q-127 0 -190 145h82q41 -71 108 -71q69 0 108 71z" />
    <glyph glyph-name="Ohungarumlaut" unicode="&#x150;" horiz-adv-x="660" 
d="M619 349q0 -72 -16 -134t-49 -113t-90.5 -80.5t-133.5 -29.5t-133.5 29.5t-90.5 80.5t-49 113t-16 134t16 134t49 113t90.5 80.5t133.5 29.5q61 0 110.5 -19.5t82 -52.5t55 -79t32 -97.5t9.5 -108.5zM492 349q0 233 -162 233q-163 0 -163 -233t163 -233q162 0 162 233z
M385 936h109l-120 -152h-62zM238 936h110l-120 -152h-62z" />
    <glyph glyph-name="ohungarumlaut" unicode="&#x151;" horiz-adv-x="514" 
d="M477 245q0 -117 -53.5 -186t-166.5 -69t-166.5 69t-53.5 186t53.5 186t166.5 69t166.5 -69t53.5 -186zM356 245q0 29 -4 51.5t-13.5 44t-30.5 33t-51 11.5q-58 0 -78.5 -38.5t-20.5 -101.5q0 -64 20.5 -101.5t78.5 -37.5t78.5 38t20.5 101zM312 715h109l-120 -152h-62z
M165 715h110l-120 -152h-62z" />
    <glyph glyph-name="OE" unicode="&#x152;" horiz-adv-x="1010" 
d="M960 0h-467v51q-62 -59 -164 -59q-61 0 -110 19.5t-82 52.5t-55 79t-31.5 97.5t-9.5 108.5t9.5 108.5t31.5 97.5t55 79t82 52.5t110 19.5q103 0 164 -58v50h467v-124h-341v-155h296v-119h-296v-176h341v-124zM491 349q0 233 -162 233t-162 -233t162 -233t162 233z" />
    <glyph glyph-name="oe" unicode="&#x153;" horiz-adv-x="809" 
d="M685 156l82 -79q-43 -43 -85.5 -64.5t-97.5 -21.5q-103 0 -164 70q-57 -71 -164 -71q-112 0 -165.5 69t-53.5 186t53.5 186t165.5 69q106 0 163 -70q61 69 160 69q68 0 113.5 -38t63 -91.5t17.5 -117.5v-34h-297q5 -53 32 -83.5t77 -30.5q52 0 100 52zM478 294h184
q-11 94 -88 94q-83 0 -96 -94zM354 245q0 139 -98 139q-40 0 -63 -22t-29 -49.5t-6 -67.5q0 -29 3.5 -51t13.5 -43.5t30.5 -33t50.5 -11.5t50.5 11.5t30.5 33t13.5 43.5t3.5 51z" />
    <glyph glyph-name="Racute" unicode="&#x154;" horiz-adv-x="624" 
d="M562 490q0 -68 -39.5 -118t-107.5 -70q15 -11 34 -43l164 -259h-146l-142 237q-18 30 -32.5 41t-45.5 11h-50v-289h-126v698h252q107 0 173 -52t66 -156zM436 490q0 87 -112 87h-127v-177h127q53 0 82.5 19.5t29.5 70.5zM288 918h122l-124 -161h-84z" />
    <glyph glyph-name="racute" unicode="&#x155;" horiz-adv-x="400" 
d="M373 469l-45 -93q-33 14 -59 14q-38 0 -61 -22t-23 -57v-311h-119v492h97l5 -31q6 12 36.5 27.5t64.5 15.5q52 0 104 -35zM159 697h123l-124 -161h-84z" />
    <glyph glyph-name="Rcommaaccent" unicode="&#x156;" horiz-adv-x="624" 
d="M562 490q0 -68 -39.5 -118t-107.5 -70q15 -11 34 -43l164 -259h-146l-142 237q-18 30 -32.5 41t-45.5 11h-50v-289h-126v698h252q107 0 173 -52t66 -156zM436 490q0 87 -112 87h-127v-177h127q53 0 82.5 19.5t29.5 70.5zM372 -137v-55l-80 -128h-46v183q0 26 18.5 44
t44.5 18t44.5 -18t18.5 -44z" />
    <glyph glyph-name="rcommaaccent" unicode="&#x157;" horiz-adv-x="400" 
d="M373 469l-45 -93q-33 14 -59 14q-38 0 -61 -22t-23 -57v-311h-119v492h97l5 -31q6 12 36.5 27.5t64.5 15.5q52 0 104 -35zM191 -137v-55l-80 -128h-46v183q0 26 18.5 44t44.5 18t44.5 -18t18.5 -44z" />
    <glyph glyph-name="Rcaron" unicode="&#x158;" horiz-adv-x="624" 
d="M562 490q0 104 -66 156t-173 52h-252v-698h126v289h50q31 0 45.5 -11t32.5 -41l142 -237h146l-164 259q-19 32 -34 43q68 20 107.5 70t39.5 118zM436 490q0 -51 -29.5 -70.5t-82.5 -19.5h-127v177h127q112 0 112 -87zM482 911l-123 -152h-102l-123 152h114l59 -90l61 90
h114z" />
    <glyph glyph-name="rcaron" unicode="&#x159;" horiz-adv-x="400" 
d="M373 469q-52 35 -104 35q-34 0 -64.5 -15.5t-36.5 -27.5l-5 31h-97v-492h119v311q0 35 23 57t61 22q26 0 59 -14zM374 690l-123 -152h-102l-122 152h113l60 -90l60 90h114z" />
    <glyph glyph-name="Sacute" unicode="&#x15a;" horiz-adv-x="614" 
d="M577 210q0 -101 -77 -160.5t-181 -59.5q-229 0 -280 206l119 23q29 -109 161 -109q51 0 91.5 26t40.5 74q0 33 -29 55t-72 31t-93.5 24t-93.5 32.5t-72 58t-29 99.5q0 93 70.5 144.5t166.5 51.5q94 0 155.5 -37t101.5 -118l-109 -50q-25 47 -59.5 67.5t-88.5 20.5
q-41 0 -76 -19.5t-35 -59.5q0 -28 29 -47t72 -28t93.5 -24.5t93.5 -35.5t72 -62.5t29 -102.5zM288 918h122l-123 -161h-85z" />
    <glyph glyph-name="sacute" unicode="&#x15b;" horiz-adv-x="466" 
d="M434 148q0 -74 -58 -116t-135 -42q-172 0 -203 134l104 27q20 -54 97 -54q29 0 53 10.5t24 35.5q0 23 -28 37.5t-68 24.5t-80 24t-68 45.5t-28 79.5q0 72 51 109.5t127 37.5q69 0 110.5 -21t76.5 -75l-91 -51q-32 43 -85 43q-26 0 -47.5 -9.5t-21.5 -33.5q0 -20 28 -32
t67.5 -21.5t79 -23.5t67.5 -46.5t28 -82.5zM214 697h122l-123 -161h-85z" />
    <glyph glyph-name="Scircumflex" unicode="&#x15c;" horiz-adv-x="614" 
d="M577 210q0 -101 -77 -160.5t-181 -59.5q-229 0 -280 206l119 23q29 -109 161 -109q51 0 91.5 26t40.5 74q0 33 -29 55t-72 31t-93.5 24t-93.5 32.5t-72 58t-29 99.5q0 93 70.5 144.5t166.5 51.5q94 0 155.5 -37t101.5 -118l-109 -50q-25 47 -59.5 67.5t-88.5 20.5
q-41 0 -76 -19.5t-35 -59.5q0 -28 29 -47t72 -28t93.5 -24.5t93.5 -35.5t72 -62.5t29 -102.5zM358 912l122 -152h-113l-61 90l-59 -90h-114l123 152h102z" />
    <glyph glyph-name="scircumflex" unicode="&#x15d;" horiz-adv-x="466" 
d="M434 148q0 -74 -58 -116t-135 -42q-172 0 -203 134l104 27q20 -54 97 -54q29 0 53 10.5t24 35.5q0 23 -28 37.5t-68 24.5t-80 24t-68 45.5t-28 79.5q0 72 51 109.5t127 37.5q69 0 110.5 -21t76.5 -75l-91 -51q-32 43 -85 43q-26 0 -47.5 -9.5t-21.5 -33.5q0 -20 28 -32
t67.5 -21.5t79 -23.5t67.5 -46.5t28 -82.5zM284 691l123 -152h-114l-61 90l-59 -90h-114l123 152h102z" />
    <glyph glyph-name="Scedilla" unicode="&#x15e;" horiz-adv-x="614" 
d="M372 -5l22 -64l-68 -130h-107l96 135l-21 55q-208 13 -255 205l119 23q29 -109 161 -109q51 0 91.5 26t40.5 74q0 33 -29 55t-72 31t-93.5 24t-93.5 32.5t-72 58t-29 99.5q0 93 70.5 144.5t166.5 51.5q94 0 155.5 -37t101.5 -118l-109 -50q-25 47 -59.5 67.5t-88.5 20.5
q-41 0 -76 -19.5t-35 -59.5q0 -28 29 -47t72 -28t93.5 -24.5t93.5 -35.5t72 -62.5t29 -102.5q0 -87 -58.5 -144t-146.5 -71z" />
    <glyph glyph-name="scedilla" unicode="&#x15f;" horiz-adv-x="466" 
d="M298 -3l23 -66l-68 -130h-108l97 135l-22 55q-153 9 -182 133l104 27q20 -54 97 -54q29 0 53 10.5t24 35.5q0 23 -28 37.5t-68 24.5t-80 24t-68 45.5t-28 79.5q0 72 51 109.5t127 37.5q69 0 110.5 -21t76.5 -75l-91 -51q-32 43 -85 43q-26 0 -47.5 -9.5t-21.5 -33.5
q0 -20 28 -32t67.5 -21.5t79 -23.5t67.5 -46.5t28 -82.5q0 -59 -38.5 -98t-97.5 -53z" />
    <glyph glyph-name="Scaron" unicode="&#x160;" horiz-adv-x="614" 
d="M577 210q0 60 -29 102.5t-72 62.5t-93.5 35.5t-93.5 24.5t-72 28t-29 47q0 40 35 59.5t76 19.5q54 0 88.5 -20.5t59.5 -67.5l109 50q-40 81 -101.5 118t-155.5 37q-96 0 -166.5 -51.5t-70.5 -144.5q0 -59 29 -99.5t72 -58t93.5 -32.5t93.5 -24t72 -31t29 -55
q0 -48 -40.5 -74t-91.5 -26q-132 0 -161 109l-119 -23q51 -206 280 -206q104 0 181 59.5t77 160.5zM480 911l-122 -152h-102l-123 152h114l59 -90l61 90h113z" />
    <glyph glyph-name="scaron" unicode="&#x161;" horiz-adv-x="466" 
d="M434 148q0 50 -28 82.5t-67.5 46.5t-79 23.5t-67.5 21.5t-28 32q0 24 21.5 33.5t47.5 9.5q53 0 85 -43l91 51q-35 54 -76.5 75t-110.5 21q-76 0 -127 -37.5t-51 -109.5q0 -48 28 -79.5t68 -45.5t80 -24t68 -24.5t28 -37.5q0 -25 -24 -35.5t-53 -10.5q-77 0 -97 54
l-104 -27q31 -134 203 -134q77 0 135 42t58 116zM407 690l-123 -152h-102l-123 152h114l59 -90l61 90h114z" />
    <glyph glyph-name="Tcommaaccent" unicode="&#x162;" horiz-adv-x="586" 
d="M557 698v-124h-201v-574h-126v574h-201v124h528zM356 -137v-55l-81 -128h-46v183q0 26 18.5 44t44.5 18q27 0 45.5 -18t18.5 -44z" />
    <glyph glyph-name="tcommaaccent" unicode="&#x163;" horiz-adv-x="321" 
d="M276 492v-101h-67v-246q0 -44 49 -44v-101h-46q-58 0 -88.5 38t-30.5 97v256h-59v101h59v134h116v-134h67zM225 -137v-55l-80 -128h-46v183q0 26 18.5 44t44.5 18t44.5 -18t18.5 -44z" />
    <glyph glyph-name="Tcaron" unicode="&#x164;" horiz-adv-x="586" 
d="M557 574v124h-528v-124h201v-574h126v574h201zM467 911l-123 -152h-102l-123 152h114l59 -90l61 90h114z" />
    <glyph glyph-name="tcaron" unicode="&#x165;" horiz-adv-x="321" 
d="M276 492v-101h-67v-246q0 -44 49 -44v-101h-46q-58 0 -88.5 38t-30.5 97v256h-59v101h59v134h116v-134h67zM376 687v-160h-108v160q0 22 15.5 38t37.5 16q23 0 39 -16t16 -38z" />
    <glyph glyph-name="Tbar" unicode="&#x166;" horiz-adv-x="586" 
d="M557 698v-124h-201v-132h122v-80h-122v-362h-126v362h-121v80h121v132h-201v124h528z" />
    <glyph glyph-name="tbar" unicode="&#x167;" horiz-adv-x="321" 
d="M276 324v-80h-67v-99q0 -44 49 -44v-101h-46q-58 0 -88.5 38t-30.5 97v109h-58v80h58v67h-59v101h59v134h116v-134h67v-101h-67v-67h67z" />
    <glyph glyph-name="Utilde" unicode="&#x168;" horiz-adv-x="652" 
d="M590 698v-408q0 -298 -264 -298t-264 298v408h125v-402q0 -85 29 -133.5t110 -48.5q44 0 72.5 13.5t42.5 40.5t19 56.5t5 71.5v402h125zM442 879l62 -51q-27 -35 -52 -52.5t-62 -17.5q-29 0 -65 23.5t-63 23.5q-28 0 -55 -38l-60 51q23 36 49 52.5t66 16.5q32 0 67 -23.5
t60 -23.5q32 0 53 39z" />
    <glyph glyph-name="utilde" unicode="&#x169;" horiz-adv-x="528" 
d="M463 492v-492h-98l-5 29q-46 -38 -100 -38q-102 0 -153 56t-51 159v286h119v-279q0 -52 18.5 -79t69.5 -27q33 0 56.5 21.5t23.5 55.5v308h120zM380 658l62 -51q-27 -35 -52 -52.5t-62 -17.5q-29 0 -65 23.5t-63 23.5q-28 0 -55 -38l-60 51q23 36 49 52.5t66 16.5
q32 0 67 -23.5t60 -23.5q32 0 53 39z" />
    <glyph glyph-name="Umacron" unicode="&#x16a;" horiz-adv-x="652" 
d="M590 698v-408q0 -298 -264 -298t-264 298v408h125v-402q0 -85 29 -133.5t110 -48.5q44 0 72.5 13.5t42.5 40.5t19 56.5t5 71.5v402h125zM487 869v-80h-322v80h322z" />
    <glyph glyph-name="umacron" unicode="&#x16b;" horiz-adv-x="528" 
d="M463 492v-492h-98l-5 29q-46 -38 -100 -38q-102 0 -153 56t-51 159v286h119v-279q0 -52 18.5 -79t69.5 -27q33 0 56.5 21.5t23.5 55.5v308h120zM425 648v-80h-323v80h323z" />
    <glyph glyph-name="Ubreve" unicode="&#x16c;" horiz-adv-x="652" 
d="M590 698v-408q0 -298 -264 -298t-264 298v408h125v-402q0 -85 29 -133.5t110 -48.5q44 0 72.5 13.5t42.5 40.5t19 56.5t5 71.5v402h125zM433 915h82q-30 -71 -79 -108t-111 -37q-127 0 -189 145h81q41 -71 108 -71q69 0 108 71z" />
    <glyph glyph-name="ubreve" unicode="&#x16d;" horiz-adv-x="528" 
d="M463 492v-492h-98l-5 29q-46 -38 -100 -38q-102 0 -153 56t-51 159v286h119v-279q0 -52 18.5 -79t69.5 -27q33 0 56.5 21.5t23.5 55.5v308h120zM372 694h82q-62 -145 -190 -145q-127 0 -189 145h81q41 -71 108 -71q69 0 108 71z" />
    <glyph glyph-name="Uring" unicode="&#x16e;" horiz-adv-x="652" 
d="M590 698v-408q0 -298 -264 -298t-264 298v408h125v-402q0 -85 29 -133.5t110 -48.5q44 0 72.5 13.5t42.5 40.5t19 56.5t5 71.5v402h125zM447 876q0 -50 -35.5 -85.5t-85.5 -35.5t-85.5 35.5t-35.5 85.5t35.5 85t85.5 35t85.5 -35t35.5 -85zM370 876q0 18 -13 31t-31 13
t-31 -13t-13 -31q0 -19 13 -31.5t31 -12.5t31 12.5t13 31.5z" />
    <glyph glyph-name="uring" unicode="&#x16f;" horiz-adv-x="528" 
d="M463 492v-492h-98l-5 29q-46 -38 -100 -38q-102 0 -153 56t-51 159v286h119v-279q0 -52 18.5 -79t69.5 -27q33 0 56.5 21.5t23.5 55.5v308h120zM385 655q0 -50 -35.5 -85.5t-85.5 -35.5t-85.5 35.5t-35.5 85.5t35.5 85t85.5 35t85.5 -35t35.5 -85zM308 655q0 18 -13 31
t-31 13t-31.5 -13t-13.5 -31t13.5 -31t31.5 -13t31 12.5t13 31.5z" />
    <glyph glyph-name="Uhungarumlaut" unicode="&#x170;" horiz-adv-x="652" 
d="M590 698v-408q0 -298 -264 -298t-264 298v408h125v-402q0 -85 29 -133.5t110 -48.5q44 0 72.5 13.5t42.5 40.5t19 56.5t5 71.5v402h125zM380 936h109l-119 -152h-62zM234 936h110l-120 -152h-62z" />
    <glyph glyph-name="uhungarumlaut" unicode="&#x171;" horiz-adv-x="528" 
d="M463 492v-492h-98l-5 29q-46 -38 -100 -38q-102 0 -153 56t-51 159v286h119v-279q0 -52 18.5 -79t69.5 -27q33 0 56.5 21.5t23.5 55.5v308h120zM319 715h109l-119 -152h-62zM172 715h110l-120 -152h-61z" />
    <glyph glyph-name="Uogonek" unicode="&#x172;" horiz-adv-x="652" 
d="M426 5l141 -204h-111l-114 191h-16q-264 0 -264 298v408h125v-402q0 -85 29 -133.5t110 -48.5q44 0 72.5 13.5t42.5 40.5t19 56.5t5 71.5v402h125v-408q0 -235 -164 -285z" />
    <glyph glyph-name="uogonek" unicode="&#x173;" horiz-adv-x="528" 
d="M451 0l138 -199h-111l-113 199l-5 29q-46 -38 -100 -38q-102 0 -153 56t-51 159v286h119v-279q0 -52 18.5 -79t69.5 -27q33 0 56.5 21.5t23.5 55.5v308h120v-492h-12z" />
    <glyph glyph-name="Wcircumflex" unicode="&#x174;" horiz-adv-x="859" 
d="M717 698h129l-163 -698h-139l-114 455l-115 -455h-139l-163 698h129l108 -491l129 491h102l128 -491zM480 912l123 -152h-114l-60 90l-60 -90h-113l122 152h102z" />
    <glyph glyph-name="wcircumflex" unicode="&#x175;" horiz-adv-x="766" 
d="M621 492h128l-162 -492h-101l-104 286l-104 -286h-101l-161 492h129l85 -310l107 310h89l105 -311zM433 691l123 -152h-114l-60 90l-60 -90h-113l123 152h101z" />
    <glyph glyph-name="Ycircumflex" unicode="&#x176;" horiz-adv-x="615" 
d="M462 698h140l-231 -468v-230h-126v232l-232 466h141l155 -325zM358 912l123 -152h-114l-60 90l-60 -90h-113l122 152h102z" />
    <glyph glyph-name="ycircumflex" unicode="&#x177;" horiz-adv-x="513" 
d="M368 492h128l-225 -604q-24 -67 -67.5 -88.5t-118.5 -21.5h-21v102h18q40 0 56.5 9t26.5 35l28 75l-176 493h128l109 -344zM307 691l123 -152h-113l-61 90l-59 -90h-114l123 152h101z" />
    <glyph glyph-name="Ydieresis" unicode="&#x178;" horiz-adv-x="615" 
d="M462 698h140l-231 -468v-230h-126v232l-232 466h141l155 -325zM476 827q0 -28 -19.5 -47.5t-47.5 -19.5t-48 19.5t-20 47.5t20 48t48 20t47.5 -20t19.5 -48zM274 827q0 -28 -19.5 -47.5t-47.5 -19.5t-48 19.5t-20 47.5q0 29 19.5 48.5t48.5 19.5q28 0 47.5 -20t19.5 -48z
" />
    <glyph glyph-name="Zacute" unicode="&#x179;" horiz-adv-x="598" 
d="M547 124v-124h-506v93l328 482h-303v123h474v-96l-325 -478h332zM280 918h123l-124 -161h-84z" />
    <glyph glyph-name="zacute" unicode="&#x17a;" horiz-adv-x="494" 
d="M440 114v-114h-396v92l232 285h-219v115h383v-90l-233 -288h233zM228 697h123l-124 -161h-84z" />
    <glyph glyph-name="Zdotaccent" unicode="&#x17b;" horiz-adv-x="598" 
d="M547 124v-124h-506v93l328 482h-303v123h474v-96l-325 -478h332zM360 809q0 -25 -18 -43t-43 -18t-43 18t-18 43t18 43t43 18t43 -18t18 -43z" />
    <glyph glyph-name="zdotaccent" unicode="&#x17c;" horiz-adv-x="494" 
d="M440 114v-114h-396v92l232 285h-219v115h383v-90l-233 -288h233zM309 588q0 -25 -18 -43t-44 -18q-25 0 -43 17.5t-18 43.5t18 43.5t43 17.5q26 0 44 -18t18 -43z" />
    <glyph glyph-name="Zcaron" unicode="&#x17d;" horiz-adv-x="598" 
d="M547 0v124h-332l325 478v96h-474v-123h303l-328 -482v-93h506zM473 911l-123 -152h-102l-123 152h114l59 -90l61 90h114z" />
    <glyph glyph-name="zcaron" unicode="&#x17e;" horiz-adv-x="494" 
d="M440 0v114h-233l233 288v90h-383v-115h219l-232 -285v-92h396zM421 690l-123 -152h-102l-122 152h113l60 -90l60 90h114z" />
    <glyph glyph-name="florin" unicode="&#x192;" horiz-adv-x="415" 
d="M384 695v-103q-65 -1 -94.5 -25t-40.5 -72q-4 -14 -9 -48h67v-103h-85l-96 -546l-100 17l92 529h-53v103h70q1 7 4.5 26t4.5 25q20 102 78.5 149.5t161.5 47.5z" />
    <glyph glyph-name="Aringacute" unicode="&#x1fa;" horiz-adv-x="655" 
d="M383 698l270 -698h-136l-67 182h-246l-66 -182h-136l268 698h113zM245 292h165l-83 225zM307 1055h110l-94 -83h5q44 0 75.5 -31.5t31.5 -76.5t-31.5 -77t-75.5 -32q-46 0 -77.5 32t-31.5 77q0 34 19 62zM367 864q0 16 -11.5 28t-27.5 12q-17 0 -29 -11.5t-12 -28.5
t12 -28.5t29 -11.5q16 0 27.5 12t11.5 28z" />
    <glyph glyph-name="aringacute" unicode="&#x1fb;" horiz-adv-x="487" 
d="M429 90l19 -75l-102 -26l-11 37q-49 -39 -118 -39q-76 0 -128 42.5t-52 116.5q0 69 44.5 109.5t131.5 44.5h75q22 1 30 15v21q0 25 -20 40.5t-48 15.5q-71 0 -93 -52l-102 35q41 123 195 123q70 0 124.5 -42.5t54.5 -109.5v-256zM318 125v98q-17 -9 -34 -9h-61
q-34 -1 -56.5 -17.5t-22.5 -50.5q0 -28 24 -43.5t52 -15.5q54 0 98 38zM225 834h110l-94 -83h4q45 0 76.5 -31.5t31.5 -76.5t-31.5 -77t-76.5 -32t-76.5 32t-31.5 77q0 33 19 62zM285 643q0 17 -11.5 28.5t-28.5 11.5t-28.5 -11.5t-11.5 -28.5t11.5 -28.5t28.5 -11.5
t28.5 11.5t11.5 28.5z" />
    <glyph glyph-name="AEacute" unicode="&#x1fc;" horiz-adv-x="946" 
d="M896 124v-124h-457v182h-198l-95 -182h-143l381 698h512v-124h-332v-155h289v-119h-289v-176h332zM299 292h140v257h-6zM470 918h122l-124 -161h-84z" />
    <glyph glyph-name="aeacute" unicode="&#x1fd;" horiz-adv-x="760" 
d="M36 146q0 73 46.5 112.5t135.5 39.5h63q30 0 34 12v26q0 20 -17 37.5t-50 17.5q-68 0 -92 -52l-104 31q21 60 70.5 94t126.5 34q75 0 133 -55q56 56 148 56q67 0 112.5 -38t63.5 -91.5t18 -118.5v-33h-296q5 -59 35.5 -86.5t73.5 -27.5q53 0 98 52l82 -79
q-79 -86 -181 -86q-103 0 -152 61q-60 -65 -168 -65q-74 0 -127 41.5t-53 117.5zM320 136q-5 30 -5 85q-17 -8 -33 -8l-61 -1q-30 0 -54 -13.5t-24 -44.5q0 -24 20 -41t55 -17q52 0 102 40zM429 294h184q-2 44 -25.5 69t-61.5 25q-45 0 -69.5 -27t-27.5 -67zM374 697h122
l-123 -161h-85z" />
    <glyph glyph-name="Oslashacute" unicode="&#x1fe;" horiz-adv-x="660" 
d="M619 349q0 -72 -16 -134.5t-49.5 -113.5t-90.5 -80t-133 -29q-67 0 -120 25l-13 -26h-104l40 78q-92 97 -92 280q0 57 9.5 108.5t32 97.5t55 79t82 52.5t110.5 19.5q66 0 120 -24l12 25h104l-40 -77q93 -96 93 -281zM492 349q0 101 -30 155l-195 -375q29 -13 63 -13
q162 0 162 233zM197 195l195 376q-31 11 -62 11q-163 0 -163 -233q0 -96 30 -154zM312 918h123l-124 -161h-84z" />
    <glyph glyph-name="oslashacute" unicode="&#x1ff;" horiz-adv-x="565" 
d="M477 245q0 -117 -53.5 -186t-166.5 -69q-42 0 -75 11l-9 -18h-91l27 56q-72 66 -72 206q0 117 53.5 186t166.5 69q41 0 75 -11l9 20h95l-30 -59q71 -67 71 -205zM356 245q0 46 -12 75l-109 -210q7 -4 22 -4q58 -1 78.5 37.5t20.5 101.5zM279 380q-7 4 -22 4
q-58 1 -78.5 -37.5t-20.5 -101.5q0 -48 12 -78zM264 697h122l-123 -161h-85z" />
    <glyph glyph-name="Scommaaccent" unicode="&#x218;" horiz-adv-x="614" 
d="M577 210q0 -101 -77 -160.5t-181 -59.5q-229 0 -280 206l119 23q29 -109 161 -109q51 0 91.5 26t40.5 74q0 33 -29 55t-72 31t-93.5 24t-93.5 32.5t-72 58t-29 99.5q0 93 70.5 144.5t166.5 51.5q94 0 155.5 -37t101.5 -118l-109 -50q-25 47 -59.5 67.5t-88.5 20.5
q-41 0 -76 -19.5t-35 -59.5q0 -28 29 -47t72 -28t93.5 -24.5t93.5 -35.5t72 -62.5t29 -102.5zM369 -137v-55l-80 -128h-46v183q0 26 18.5 44t44.5 18t44.5 -18t18.5 -44z" />
    <glyph glyph-name="scommaaccent" unicode="&#x219;" horiz-adv-x="466" 
d="M434 148q0 -74 -58 -116t-135 -42q-172 0 -203 134l104 27q20 -54 97 -54q29 0 53 10.5t24 35.5q0 23 -28 37.5t-68 24.5t-80 24t-68 45.5t-28 79.5q0 72 51 109.5t127 37.5q69 0 110.5 -21t76.5 -75l-91 -51q-32 43 -85 43q-26 0 -47.5 -9.5t-21.5 -33.5q0 -20 28 -32
t67.5 -21.5t79 -23.5t67.5 -46.5t28 -82.5zM297 -137v-55l-80 -128h-46v183q0 26 18.5 44t44.5 18t44.5 -18t18.5 -44z" />
    <glyph glyph-name="circumflex" unicode="&#x2c6;" horiz-adv-x="526" 
d="M313 691l123 -152h-113l-61 90l-59 -90h-114l123 152h101z" />
    <glyph glyph-name="caron" unicode="&#x2c7;" horiz-adv-x="521" 
d="M436 690l-123 -152h-101l-123 152h114l59 -90l61 90h113z" />
    <glyph glyph-name="breve" unicode="&#x2d8;" horiz-adv-x="541" 
d="M378 694h82q-62 -145 -190 -145q-127 0 -189 145h81q41 -71 108 -71q69 0 108 71z" />
    <glyph glyph-name="dotaccent" unicode="&#x2d9;" horiz-adv-x="551" 
d="M337 588q0 -25 -18 -43t-44 -18q-25 0 -43 18t-18 43t18 43t43 18q26 0 44 -18t18 -43z" />
    <glyph glyph-name="ring" unicode="&#x2da;" horiz-adv-x="537" 
d="M389 655q0 -50 -35 -85.5t-85 -35.5t-85.5 35.5t-35.5 85.5t35.5 85t85.5 35t85 -35t35 -85zM313 655q0 18 -13 31t-31 13t-31.5 -13t-13.5 -31t13.5 -31t31.5 -13t31 12.5t13 31.5z" />
    <glyph glyph-name="ogonek" unicode="&#x2db;" horiz-adv-x="563" 
d="M266 3l140 -202h-111l-120 202h91z" />
    <glyph glyph-name="tilde" unicode="&#x2dc;" horiz-adv-x="527" 
d="M379 658l61 -51q-27 -35 -52 -52.5t-61 -17.5q-30 0 -66 23.5t-62 23.5q-28 0 -55 -38l-60 51q23 36 49 52.5t66 16.5q31 0 66 -23.5t60 -23.5q33 0 54 39z" />
    <glyph glyph-name="hungarumlaut" unicode="&#x2dd;" horiz-adv-x="489" 
d="M331 715h109l-119 -152h-62zM185 715h110l-120 -152h-62z" />
    <glyph glyph-name="gravecomb" unicode="&#x300;" horiz-adv-x="336" 
d="M187 741l85 -161h-83l-125 161h123z" />
    <glyph glyph-name="acutecomb" unicode="&#x301;" horiz-adv-x="333" 
d="M148 741h122l-123 -161h-85z" />
    <glyph glyph-name="circumflexcomb" unicode="&#x302;" horiz-adv-x="526" 
d="M313 735l123 -152h-113l-61 90l-59 -90h-114l123 152h101z" />
    <glyph glyph-name="tildecomb" unicode="&#x303;" horiz-adv-x="527" 
d="M379 702l61 -51q-27 -35 -52 -52.5t-61 -17.5q-30 0 -66 23.5t-62 23.5q-28 0 -55 -38l-60 51q23 36 49 52.5t66 16.5q31 0 66 -23.5t60 -23.5q33 0 54 39z" />
    <glyph glyph-name="macroncomb" unicode="&#x304;" horiz-adv-x="538" 
d="M431 692v-80h-323v80h323z" />
    <glyph glyph-name="brevecomb" unicode="&#x306;" horiz-adv-x="541" 
d="M378 738h82q-62 -145 -190 -145q-127 0 -189 145h81q41 -71 108 -71q69 0 108 71z" />
    <glyph glyph-name="dotaccentcomb" unicode="&#x307;" horiz-adv-x="551" 
d="M337 632q0 -25 -18 -43t-44 -18q-25 0 -43 18t-18 43t18 43t43 18q26 0 44 -18t18 -43z" />
    <glyph glyph-name="dieresiscomb" unicode="&#x308;" horiz-adv-x="476" 
d="M407 650q0 -28 -19.5 -47.5t-47.5 -19.5t-48 19.5t-20 47.5t20 48t48 20t47.5 -20t19.5 -48zM204 650q0 -28 -19.5 -47.5t-47.5 -19.5t-47.5 19.5t-19.5 47.5t19.5 48t47.5 20t47.5 -20t19.5 -48z" />
    <glyph glyph-name="Delta" unicode="&#x394;" horiz-adv-x="615" 
d="M308 715l291 -714h-582zM156 94h303l-151 383z" />
    <glyph glyph-name="Delta" unicode="&#x2206;" horiz-adv-x="615" 
d="M308 715l291 -714h-582zM156 94h303l-151 383z" />
    <glyph glyph-name="Omega" unicode="&#x3a9;" horiz-adv-x="712" 
d="M645 358q0 -70 -25 -144.5t-73 -117.5h73l18 -96h-235v85q76 31 108 105.5t32 167.5q0 97 -48 172.5t-139 75.5q-63 0 -107 -39.5t-62 -93.5t-18 -115q0 -93 32 -167.5t107 -105.5v-85h-234l17 96h72q-47 43 -72 117.5t-25 144.5q0 69 18 130.5t52.5 110.5t91.5 77.5
t128 28.5q140 0 214.5 -100.5t74.5 -246.5z" />
    <glyph glyph-name="Omega" unicode="&#x2126;" horiz-adv-x="712" 
d="M645 358q0 -70 -25 -144.5t-73 -117.5h73l18 -96h-235v85q76 31 108 105.5t32 167.5q0 97 -48 172.5t-139 75.5q-63 0 -107 -39.5t-62 -93.5t-18 -115q0 -93 32 -167.5t107 -105.5v-85h-234l17 96h72q-47 43 -72 117.5t-25 144.5q0 69 18 130.5t52.5 110.5t91.5 77.5
t128 28.5q140 0 214.5 -100.5t74.5 -246.5z" />
    <glyph glyph-name="pi" unicode="&#x3c0;" horiz-adv-x="573" 
d="M523 97v-97h-44q-58 0 -88.5 32.5t-30.5 93.5v270h-190v-396h-101v492h392v-357q0 -23 11.5 -30.5t50.5 -7.5z" />
    <glyph glyph-name="Wgrave" unicode="&#x1e80;" horiz-adv-x="859" 
d="M717 698h129l-163 -698h-139l-114 455l-115 -455h-139l-163 698h129l108 -491l129 491h102l128 -491zM377 918l85 -161h-83l-125 161h123z" />
    <glyph glyph-name="wgrave" unicode="&#x1e81;" horiz-adv-x="766" 
d="M621 492h128l-162 -492h-101l-104 286l-104 -286h-101l-161 492h129l85 -310l107 310h89l105 -311zM335 697l85 -161h-83l-125 161h123z" />
    <glyph glyph-name="Wacute" unicode="&#x1e82;" horiz-adv-x="859" 
d="M717 698h129l-163 -698h-139l-114 455l-115 -455h-139l-163 698h129l108 -491l129 491h102l128 -491zM482 918h122l-123 -161h-85z" />
    <glyph glyph-name="wacute" unicode="&#x1e83;" horiz-adv-x="766" 
d="M621 492h128l-162 -492h-101l-104 286l-104 -286h-101l-161 492h129l85 -310l107 310h89l105 -311zM423 697h122l-124 -161h-84z" />
    <glyph glyph-name="Wdieresis" unicode="&#x1e84;" horiz-adv-x="859" 
d="M717 698h129l-163 -698h-139l-114 455l-115 -455h-139l-163 698h129l108 -491l129 491h102l128 -491zM598 827q0 -28 -19.5 -47.5t-47.5 -19.5t-48 19.5t-20 47.5t20 48t48 20t47.5 -20t19.5 -48zM396 827q0 -28 -19.5 -47.5t-47.5 -19.5t-48 19.5t-20 47.5
q0 29 19.5 48.5t48.5 19.5q28 0 47.5 -20t19.5 -48z" />
    <glyph glyph-name="wdieresis" unicode="&#x1e85;" horiz-adv-x="766" 
d="M621 492h128l-162 -492h-101l-104 286l-104 -286h-101l-161 492h129l85 -310l107 310h89l105 -311zM551 606q0 -28 -19.5 -47.5t-47.5 -19.5t-47.5 19.5t-19.5 47.5t19.5 48t47.5 20t47.5 -20t19.5 -48zM349 606q0 -28 -19.5 -47.5t-47.5 -19.5t-48 19.5t-20 47.5t20 48
t48 20t47.5 -20t19.5 -48z" />
    <glyph glyph-name="Ygrave" unicode="&#x1ef2;" horiz-adv-x="615" 
d="M462 698h140l-231 -468v-230h-126v232l-232 466h141l155 -325zM327 918l85 -161h-84l-124 161h123z" />
    <glyph glyph-name="ygrave" unicode="&#x1ef3;" horiz-adv-x="513" 
d="M368 492h128l-225 -604q-24 -67 -67.5 -88.5t-118.5 -21.5h-21v102h18q40 0 56.5 9t26.5 35l28 75l-176 493h128l109 -344zM275 697l85 -161h-83l-125 161h123z" />
    <glyph glyph-name="endash" unicode="&#x2013;" horiz-adv-x="571" 
d="M512 316v-93h-453v93h453z" />
    <glyph glyph-name="emdash" unicode="&#x2014;" horiz-adv-x="769" 
d="M710 316v-93h-651v93h651z" />
    <glyph glyph-name="quoteleft" unicode="&#x2018;" horiz-adv-x="264" 
d="M152 748h42l-5 -172q-1 -24 -17.5 -41t-40.5 -17q-25 0 -42.5 17t-16.5 41l6 53z" />
    <glyph glyph-name="quoteright" unicode="&#x2019;" horiz-adv-x="264" 
d="M192 691l-5 -54l-74 -118h-42l5 172q0 23 17 40.5t41 17.5t42 -17.5t16 -40.5z" />
    <glyph glyph-name="quotesinglbase" unicode="&#x201a;" horiz-adv-x="264" 
d="M193 54l-5 -52l-74 -119h-42l5 171q1 25 17.5 42t40.5 17q25 0 42.5 -17.5t15.5 -41.5z" />
    <glyph glyph-name="quotedblleft" unicode="&#x201c;" horiz-adv-x="441" 
d="M176 748l-5 -172q-1 -24 -17.5 -41t-40.5 -17q-25 0 -42.5 17t-15.5 41l5 53l74 119h42zM376 748l-5 -172q-1 -24 -17.5 -41t-40.5 -17q-25 0 -42.5 17t-15.5 41l5 53l74 119h42z" />
    <glyph glyph-name="quotedblright" unicode="&#x201d;" horiz-adv-x="441" 
d="M269 518l5 172q1 24 17.5 41t40.5 17q25 0 42.5 -17t15.5 -41l-5 -53l-74 -119h-42zM69 518l5 172q1 24 17.5 41t40.5 17q25 0 42.5 -17t15.5 -41l-5 -53l-74 -119h-42z" />
    <glyph glyph-name="quotedblbase" unicode="&#x201e;" horiz-adv-x="441" 
d="M269 -124l5 172q1 24 17.5 41t40.5 17q25 0 42.5 -17t15.5 -41l-5 -53l-74 -119h-42zM69 -124l5 172q1 24 17.5 41t40.5 17q25 0 42.5 -17t15.5 -41l-5 -53l-74 -119h-42z" />
    <glyph glyph-name="dagger" unicode="&#x2020;" horiz-adv-x="579" 
d="M487 496v-95h-152v-401h-91v401h-152v95h152v202h91v-202h152z" />
    <glyph glyph-name="daggerdbl" unicode="&#x2021;" horiz-adv-x="587" 
d="M487 100v-96h-152v-207h-91v207h-152v96h152v296h-152v95h152v207h91v-207h152v-95h-152v-296h152z" />
    <glyph glyph-name="bullet" unicode="&#x2022;" horiz-adv-x="529" 
d="M433 334q0 -70 -49 -119t-119 -49q-69 0 -118.5 49t-49.5 119q0 69 49.5 118t118.5 49q70 0 119 -48.5t49 -118.5z" />
    <glyph glyph-name="ellipsis" unicode="&#x2026;" horiz-adv-x="729" 
d="M664 68q0 -32 -23 -55t-55 -23q-33 0 -56 23t-23 55q0 33 23 55.5t56 22.5q32 0 55 -22.5t23 -55.5zM443 68q0 -32 -23 -55t-55 -23t-55.5 23t-23.5 55q0 33 23 55.5t56 22.5q32 0 55 -22.5t23 -55.5zM223 68q0 -32 -23 -55t-55 -23t-55 23t-23 55q0 33 23 55.5t55 22.5
t55 -22.5t23 -55.5z" />
    <glyph glyph-name="perthousand" unicode="&#x2030;" horiz-adv-x="1000" 
d="M954 189q0 -84 -36.5 -141.5t-113.5 -57.5q-68 0 -105 51q-39 -51 -105 -51q-77 0 -113 57.5t-36 141.5t36 141.5t113 57.5q68 0 105 -50q38 50 105 50q77 0 113.5 -57.5t36.5 -141.5zM497 698h99l-303 -698h-100zM346 509q0 -85 -36.5 -142t-112.5 -57q-77 0 -113.5 57
t-36.5 142q0 84 36.5 141t113.5 57q76 0 112.5 -57t36.5 -141zM865 189q0 111 -61 111q-60 0 -60 -111t60 -111q61 0 61 111zM655 189q0 111 -61 111q-60 0 -60 -111t60 -111q61 0 61 111zM257 509q0 111 -60 111q-61 0 -61 -111q0 -112 61 -112q60 0 60 112z" />
    <glyph glyph-name="guilsinglleft" unicode="&#x2039;" horiz-adv-x="346" 
d="M58 281l229 216v-126l-133 -121l133 -122v-127l-229 217v63z" />
    <glyph glyph-name="guilsinglright" unicode="&#x203a;" horiz-adv-x="346" 
d="M287 281v-63l-229 -217v127l133 122l-133 121v126z" />
    <glyph glyph-name="fraction" unicode="&#x2044;" horiz-adv-x="191" 
d="M206 701h103l-323 -704h-104z" />
    <glyph glyph-name="fraction" unicode="&#x2215;" horiz-adv-x="191" 
d="M206 701h103l-323 -704h-104z" />
    <glyph glyph-name="zerosuperior" unicode="&#x2070;" horiz-adv-x="385" 
d="M353 483q0 -57 -13.5 -105.5t-51.5 -85.5t-95 -37t-95 37t-52 85.5t-14 104.5t14 104.5t52 85.5t95 37t95 -36.5t51.5 -84.5t13.5 -105zM274 482q0 24 -3 46t-10.5 47.5t-25 41t-42.5 15.5t-42.5 -15.5t-25 -41t-10.5 -47.5t-3 -46t3 -46t10.5 -48t25 -41.5t42.5 -15.5
q81 0 81 151z" />
    <glyph glyph-name="foursuperior" unicode="&#x2074;" horiz-adv-x="353" 
d="M326 432v-73h-33v-99h-74v99h-198v65l171 279h84l-165 -271h108v124l74 -9v-115h33z" />
    <glyph glyph-name="fivesuperior" unicode="&#x2075;" horiz-adv-x="347" 
d="M321 415q0 -72 -39 -114.5t-111 -42.5q-105 0 -140 109l73 24q18 -58 67 -58q35 0 54 24t19 58q0 33 -19 56t-53 23q-35 0 -63 -29h-66v238h247v-74h-176v-82q26 19 61 19q69 0 107.5 -42t38.5 -109z" />
    <glyph glyph-name="sixsuperior" unicode="&#x2076;" horiz-adv-x="349" 
d="M322 403q0 -66 -38.5 -107t-105.5 -41q-68 0 -107 48t-39 117q0 85 35 159t101 124h95q-54 -44 -89 -84.5t-51 -93.5q24 24 62 24q62 0 99.5 -41.5t37.5 -104.5zM244 405q0 30 -19 50.5t-49 20.5q-29 0 -47 -21t-18 -50q0 -28 19 -49t47 -21q29 0 48 21t19 49z" />
    <glyph glyph-name="sevensuperior" unicode="&#x2077;" horiz-adv-x="320" 
d="M300 703v-66q-66 -86 -95.5 -174.5t-28.5 -202.5h-83q0 215 120 369h-126v-36h-67v110h280z" />
    <glyph glyph-name="eightsuperior" unicode="&#x2078;" horiz-adv-x="350" 
d="M324 396q0 -64 -42.5 -103t-107.5 -39t-106.5 39t-41.5 102q0 69 65 108q-22 12 -35 36t-13 48q0 54 38.5 88.5t92.5 34.5q55 0 93.5 -34.5t38.5 -88.5q0 -24 -13 -48t-35 -36q66 -40 66 -107zM230 585q0 23 -16.5 38t-39.5 15t-39 -15t-16 -38t16 -38.5t39 -15.5
t39.5 15.5t16.5 38.5zM244 399q0 29 -20.5 48.5t-49.5 19.5q-28 0 -48 -19.5t-20 -48.5q0 -28 20.5 -47.5t48.5 -19.5q29 0 49 19t20 48z" />
    <glyph glyph-name="ninesuperior" unicode="&#x2079;" horiz-adv-x="346" 
d="M317 543q0 -183 -130 -283h-102q36 29 58.5 50.5t46.5 55.5t35 71q-20 -22 -60 -22q-62 0 -100.5 40.5t-38.5 101.5q0 66 39.5 109t104.5 43q68 0 107.5 -48.5t39.5 -117.5zM233 563q0 29 -18 49t-47 20t-47.5 -20.5t-18.5 -49.5q0 -30 19 -50.5t48 -20.5t46.5 21.5
t17.5 50.5z" />
    <glyph glyph-name="zeroinferior" unicode="&#x2080;" horiz-adv-x="385" 
d="M353 223q0 -57 -13.5 -105.5t-51.5 -85.5t-95 -37t-95 37t-52 85.5t-14 104.5t14 104.5t52 85.5t95 37t95 -36.5t51.5 -84.5t13.5 -105zM274 222q0 24 -3 46t-10.5 47.5t-25 41t-42.5 15.5t-42.5 -15.5t-25 -41t-10.5 -47.5t-3 -46t3 -46t10.5 -48t25 -41.5t42.5 -15.5
q81 0 81 151z" />
    <glyph glyph-name="oneinferior" unicode="&#x2081;" horiz-adv-x="255" 
d="M188 443v-443h-77v344l-60 -37l-35 61l114 75h58z" />
    <glyph glyph-name="twoinferior" unicode="&#x2082;" horiz-adv-x="352" 
d="M319 76v-76h-280v51q2 44 23 82t49 62t55.5 45t46.5 41t19 39q0 24 -18.5 38.5t-43.5 14.5q-42 0 -69 -54l-67 39q48 91 136 91q62 0 102 -34.5t40 -94.5q0 -34 -16 -61.5t-40.5 -47l-50 -38.5t-47.5 -43.5t-29 -53.5h190z" />
    <glyph glyph-name="threeinferior" unicode="&#x2083;" horiz-adv-x="346" 
d="M314 134q0 -62 -40.5 -100.5t-102.5 -38.5q-110 0 -145 99l72 31q8 -24 26.5 -39t43.5 -15q29 0 48.5 17.5t19.5 45.5q0 65 -90 65v62q79 -2 79 58q0 23 -18.5 38t-42.5 15q-45 0 -63 -48l-70 31q38 93 136 93q57 0 96.5 -36t39.5 -93q0 -54 -44 -87q24 -14 39.5 -41
t15.5 -57z" />
    <glyph glyph-name="fourinferior" unicode="&#x2084;" horiz-adv-x="353" 
d="M326 172v-73h-33v-99h-74v99h-198v65l171 279h84l-165 -271h108v124l74 -9v-115h33z" />
    <glyph glyph-name="fiveinferior" unicode="&#x2085;" horiz-adv-x="347" 
d="M321 155q0 -72 -39 -114.5t-111 -42.5q-105 0 -140 109l73 24q18 -58 67 -58q35 0 54 24t19 58q0 33 -19 56t-53 23q-35 0 -63 -29h-66v238h247v-74h-176v-82q26 19 61 19q69 0 107.5 -42t38.5 -109z" />
    <glyph glyph-name="sixinferior" unicode="&#x2086;" horiz-adv-x="349" 
d="M322 143q0 -66 -38.5 -107t-105.5 -41q-68 0 -107 48t-39 117q0 85 35 159t101 124h95q-54 -44 -89 -84.5t-51 -93.5q24 24 62 24q62 0 99.5 -41.5t37.5 -104.5zM244 145q0 30 -19 50.5t-49 20.5q-29 0 -47 -21t-18 -50q0 -28 19 -49t47 -21q29 0 48 21t19 49z" />
    <glyph glyph-name="seveninferior" unicode="&#x2087;" horiz-adv-x="320" 
d="M300 443v-66q-66 -86 -95.5 -174.5t-28.5 -202.5h-83q0 215 120 369h-126v-36h-67v110h280z" />
    <glyph glyph-name="eightinferior" unicode="&#x2088;" horiz-adv-x="350" 
d="M324 136q0 -64 -42.5 -103t-107.5 -39t-106.5 39t-41.5 102q0 69 65 108q-22 12 -35 36t-13 48q0 54 38.5 88.5t92.5 34.5q55 0 93.5 -34.5t38.5 -88.5q0 -24 -13 -48t-35 -36q66 -40 66 -107zM230 325q0 23 -16.5 38t-39.5 15t-39 -15t-16 -38t16 -38.5t39 -15.5
t39.5 15.5t16.5 38.5zM244 139q0 29 -20.5 48.5t-49.5 19.5q-28 0 -48 -19.5t-20 -48.5q0 -28 20.5 -47.5t48.5 -19.5q29 0 49 19t20 48z" />
    <glyph glyph-name="nineinferior" unicode="&#x2089;" horiz-adv-x="346" 
d="M317 283q0 -183 -130 -283h-102q36 29 58.5 50.5t46.5 55.5t35 71q-20 -22 -60 -22q-62 0 -100.5 40.5t-38.5 101.5q0 66 39.5 109t104.5 43q68 0 107.5 -48.5t39.5 -117.5zM233 303q0 29 -18 49t-47 20t-47.5 -20.5t-18.5 -49.5q0 -30 19 -50.5t48 -20.5t46.5 21.5
t17.5 50.5z" />
    <glyph glyph-name="colonmonetary" unicode="&#x20a1;" horiz-adv-x="604" 
d="M436 7v-84h-71v70q-20 -2 -29 -2q-13 0 -31 2v-70h-71v87q-88 35 -133 127.5t-45 211.5q0 120 45 212.5t133 126.5v87h71v-69q9 1 30 1q20 0 30 -1v69h71v-86q63 -25 122 -99l-86 -89q-33 41 -64 61.5t-73 20.5q-43 0 -73.5 -21t-46.5 -56.5t-23 -74t-7 -82.5t7 -82.5
t23 -74t46.5 -56.5t73.5 -21t76 22.5t65 66.5l85 -88q-35 -44 -63.5 -69.5t-61.5 -39.5z" />
    <glyph glyph-name="franc" unicode="&#x20a3;" horiz-adv-x="520" 
d="M291 233v-93h-95v-140h-125v140h-71v93h71v465h409v-124h-284v-156h247v-118h-247v-67h95z" />
    <glyph glyph-name="lira" unicode="&#x20a4;" horiz-adv-x="561" 
d="M134 246h-94l15 71h70q-6 28 -10 43h-75l15 71h42q-7 37 -7 63q0 93 57.5 153t153.5 60q30 0 55.5 -6t40 -11.5t37 -25t29.5 -27l35 -38.5l-89 -74q-2 2 -5 6q-18 22 -28.5 32.5t-30.5 20.5t-44 10q-45 0 -68 -30t-23 -76q0 -32 4 -57h140l-15 -71h-110l9 -43h116
l-15 -71h-91q2 -8 2 -24q0 -59 -29 -108h294v-114h-451v87q54 66 66 115q4 19 4 44z" />
    <glyph glyph-name="peseta" unicode="&#x20a7;" horiz-adv-x="562" 
d="M521 524h58v-71h-57q-19 -173 -231 -173h-94v-280h-126v453h-60v71h60v174h216q99 0 161 -42.5t73 -131.5zM197 399h86q94 0 109 57h-195v-57zM283 578h-86v-56h194q-15 56 -108 56z" />
    <glyph glyph-name="Euro" unicode="&#x20ac;" horiz-adv-x="709" 
d="M565 197l88 -87q-57 -66 -106 -92.5t-130 -26.5q-111 0 -185 63.5t-101 173.5h-81l18 87h50q-2 44 -1 63h-67l18 86h62q26 112 99 177.5t187 65.5q76 0 129.5 -26.5t102.5 -84.5l-87 -88q-34 38 -67 56.5t-78 18.5q-113 0 -151 -119h194l-18 -86h-194q-3 -42 0 -63h212
l-18 -87h-176q41 -113 151 -113q81 0 149 82z" />
    <glyph glyph-name="trademark" unicode="&#x2122;" horiz-adv-x="474" 
d="M422 698v-210h-40v110l-44 -110h-26l-45 110v-110h-39v210h38l59 -147l59 147h38zM201 698v-39h-56v-172h-40v172h-56v39h152z" />
    <glyph glyph-name="partialdiff" unicode="&#x2202;" horiz-adv-x="584" 
d="M497 215q0 -94 -62 -159t-155 -65q-90 0 -151 67t-61 159q0 94 58 157t151 63q60 0 109 -39q-3 30 -11 61t-21.5 64.5t-38 55t-54.5 21.5q-46 0 -92 -46l-67 77q68 76 160 76q235 0 235 -492zM393 217q0 50 -31.5 84.5t-82.5 34.5q-48 0 -78 -36t-30 -83q0 -51 31.5 -89
t80.5 -38q52 0 81 37t29 90z" />
    <glyph glyph-name="product" unicode="&#x220f;" horiz-adv-x="677" 
d="M575 706v-900h-100v801h-272v-801h-101v900h473z" />
    <glyph glyph-name="summation" unicode="&#x2211;" horiz-adv-x="556" 
d="M497 -118v-96h-434v77l246 379l-246 379v77h434v-97h-304l234 -359l-234 -360h304z" />
    <glyph glyph-name="minus" unicode="&#x2212;" horiz-adv-x="528" 
d="M477 318v-89h-425v89h425z" />
    <glyph glyph-name="radical" unicode="&#x221a;" horiz-adv-x="667" 
d="M636 697v-91h-100l-213 -606h-85l-203 491h102l141 -342l186 548h172z" />
    <glyph glyph-name="infinity" unicode="&#x221e;" horiz-adv-x="794" 
d="M745 249q0 -59 -47 -96.5t-108 -37.5q-81 0 -193 84q-112 -84 -194 -84q-68 0 -111 43t-43 111q0 59 46.5 96.5t107.5 37.5q85 0 194 -84q109 84 193 84q68 0 111.5 -42.5t43.5 -111.5zM646 255q0 26 -16 41t-40 15q-43 0 -113 -52q70 -52 113 -52q24 0 40 12t16 36z
M318 259q-75 52 -114 52q-24 0 -40 -12t-16 -36q0 -25 16 -40.5t40 -15.5q39 0 114 52z" />
    <glyph glyph-name="integral" unicode="&#x222b;" horiz-adv-x="349" 
d="M314 698v-99h-62q-28 0 -28 -32v-629q0 -62 -31.5 -96.5t-93.5 -34.5h-64v99h61q29 0 29 32v629q0 58 33.5 94.5t91.5 36.5h64z" />
    <glyph glyph-name="approxequal" unicode="&#x2248;" horiz-adv-x="516" 
d="M403 420l71 -58q-31 -38 -60 -56t-74 -18q-35 0 -82 27.5t-80 27.5q-34 0 -68 -44l-68 60q27 41 58.5 59.5t78.5 18.5q37 0 82.5 -26t77.5 -26q42 0 64 35zM403 243l71 -57q-30 -39 -59.5 -56.5t-74.5 -17.5q-35 0 -82 27.5t-80 27.5q-32 0 -68 -44l-68 60q28 40 59 59
t78 19q37 0 82.5 -26.5t77.5 -26.5q42 0 64 35z" />
    <glyph glyph-name="notequal" unicode="&#x2260;" horiz-adv-x="546" 
d="M487 223v-105h-225l-35 -99l-77 28l26 71h-117v105h155l32 89h-187v104h225l35 96l77 -27l-25 -69h116v-104h-154l-32 -89h186z" />
    <glyph glyph-name="lessequal" unicode="&#x2264;" horiz-adv-x="516" 
d="M458 218v-105l-400 178v83l400 178v-105l-256 -115zM458 96v-96h-400v96h400z" />
    <glyph glyph-name="greaterequal" unicode="&#x2265;" horiz-adv-x="516" 
d="M458 374v-83l-400 -178v105l256 114l-256 115v105zM458 96v-96h-400v96h400z" />
    <glyph glyph-name="lozenge" unicode="&#x25ca;" horiz-adv-x="599" 
d="M300 711l224 -366l-224 -366l-225 366zM300 159l114 186l-114 185l-115 -185z" />
    <glyph glyph-name="CR" horiz-adv-x="296" 
 />
    <glyph glyph-name="Imacron" horiz-adv-x="274" 
d="M200 698v-698h-126v698h126zM298 869v-80h-323v80h323z" />
    <glyph glyph-name="ibreve" horiz-adv-x="248" 
d="M185 492v-492h-117v492h117zM232 694h82q-62 -145 -190 -145q-127 0 -190 145h82q41 -71 108 -71q69 0 108 71z" />
    <glyph glyph-name="zerooldstyle" horiz-adv-x="623" 
d="M558 247q0 -117 -64 -185.5t-182 -68.5q-119 0 -183 68.5t-64 185.5t64 185.5t183 68.5q118 0 182 -68.5t64 -185.5zM434 247q0 65 -29.5 105t-92.5 40q-64 0 -93.5 -40t-29.5 -105t29.5 -105t93.5 -40t93 40t29 105z" />
    <glyph glyph-name="oneoldstyle" horiz-adv-x="446" 
d="M315 492v-492h-121v329l-98 -61l-57 99l205 125h71z" />
    <glyph glyph-name="twooldstyle" horiz-adv-x="578" 
d="M513 119v-119h-438v80q3 49 36 87t77 60t88 39t74 32.5t30 32.5q0 25 -19.5 37.5t-50.5 12.5q-39 0 -73 -18t-54 -50l-106 62q67 118 206 124q97 4 159.5 -34.5t62.5 -128.5q0 -42 -27.5 -72.5t-63.5 -47l-97 -44t-102 -53.5h298z" />
    <glyph glyph-name="threeoldstyle" horiz-adv-x="535" 
d="M490 7q0 -97 -64.5 -158t-162.5 -61q-165 0 -221 143l107 61q12 -38 41.5 -61.5t69.5 -23.5q44 0 75 28t31 72q0 102 -141 102v97q124 0 124 90q0 37 -29 60.5t-67 23.5q-72 0 -100 -76l-104 62q60 133 208 133q90 0 153 -57.5t63 -145.5q0 -83 -71 -135q40 -22 64 -65
t24 -89z" />
    <glyph glyph-name="fouroldstyle" horiz-adv-x="567" 
d="M522 121v-115h-54v-201h-116v201h-312v104l270 439h132l-260 -428h170v196l116 -14v-182h54z" />
    <glyph glyph-name="fiveoldstyle" horiz-adv-x="554" 
d="M509 38q0 -113 -61.5 -181t-174.5 -68q-163 0 -221 171l115 39q31 -91 106 -91q55 0 84.5 37.5t29.5 92.5q0 53 -29.5 88.5t-83.5 35.5q-57 0 -98 -44h-106v374h391v-119h-278v-126q41 29 96 29q108 0 169 -66t61 -172z" />
    <glyph glyph-name="sixoldstyle" horiz-adv-x="552" 
d="M507 226q0 -105 -61 -169.5t-166 -64.5q-106 0 -168 76t-62 185q0 133 61 257.5t167 205.5l70 -69q-117 -106 -155 -230q38 39 99 39q97 0 156 -65.5t59 -164.5zM384 229q0 48 -29.5 80t-77.5 32q-45 0 -73.5 -33.5t-28.5 -80.5q0 -45 29.5 -77t74.5 -32t75 32.5t30 78.5
z" />
    <glyph glyph-name="sevenoldstyle" horiz-adv-x="511" 
d="M477 492v-104q-104 -135 -151 -274t-46 -319l-129 34q4 155 53.5 295.5t136.5 251.5h-200v-57h-105v173h441z" />
    <glyph glyph-name="eightoldstyle" horiz-adv-x="560" 
d="M514 214q0 -101 -66.5 -162.5t-168.5 -61.5t-167.5 61.5t-65.5 162.5q0 52 27 96t74 73q-33 18 -54 56.5t-21 76.5q0 83 61 137t146 54t146 -54t61 -137q0 -39 -20 -76.5t-55 -56.5q103 -64 103 -169zM366 512q0 35 -25.5 58.5t-61.5 23.5t-62 -23.5t-26 -58.5
q0 -36 26 -60t62 -24t61.5 24t25.5 60zM388 219q0 45 -32 76t-77 31t-76.5 -31t-31.5 -77q0 -44 32.5 -74.5t75.5 -30.5q47 0 78 30t31 76z" />
    <glyph glyph-name="nineoldstyle" horiz-adv-x="559" 
d="M511 238q0 -137 -50.5 -258t-153.5 -200l-77 76q107 101 137 215q-32 -34 -95 -34q-96 0 -157.5 64t-61.5 160q0 104 62.5 171t165.5 67q106 0 168 -76t62 -185zM380 270q0 45 -29.5 77t-74.5 32q-44 0 -73.5 -33t-29.5 -77q0 -47 29.5 -79t75.5 -32t74 33t28 79z" />
    <glyph glyph-name="zero.fitted" 
d="M467 351q0 -64 -11.5 -124.5t-35.5 -114.5t-67.5 -87t-100.5 -33q-58 0 -101.5 32.5t-68 86.5t-36 114t-11.5 124t11.5 124.5t36 114.5t68 86.5t101.5 32.5q57 0 100.5 -32.5t67.5 -86t35.5 -113.5t11.5 -124zM343 349q0 37 -3.5 72.5t-12 75.5t-28 64.5t-47.5 24.5
q-29 0 -49 -24.5t-29 -64.5t-12.5 -75.5t-3.5 -72.5t3.5 -72.5t12.5 -75.5t29 -64.5t49 -24.5q28 0 48 24.5t28.5 65t11.5 75t3 72.5z" />
    <glyph glyph-name="one.fitted" 
d="M40 0v112h150v433l-94 -60l-56 94l180 119h91v-586h151v-112h-422z" />
    <glyph glyph-name="two.fitted" 
d="M457 119v-119h-404v80q3 71 32.5 128.5t69.5 94t79 67.5t66.5 64.5t27.5 69.5q0 39 -25.5 61t-60.5 22q-30 0 -58 -24.5t-44 -59.5l-95 61q34 71 80.5 107t116.5 36q89 0 147 -54.5t58 -149.5q0 -50 -22.5 -92t-57 -73.5l-70 -61.5t-67 -70.5t-43.5 -86.5h270z" />
    <glyph glyph-name="three.fitted" 
d="M460 211q0 -97 -59.5 -158t-149.5 -61q-160 0 -210 156l108 49q11 -39 37 -62t61 -23q40 0 68 27.5t28 71.5q0 104 -130 102v98q114 -2 114 91q0 37 -25 60t-61 23q-63 0 -88 -76l-105 50q53 146 197 146q86 0 142.5 -57.5t56.5 -145.5q0 -38 -18 -74.5t-47 -61.5
q35 -23 58 -66t23 -89z" />
    <glyph glyph-name="four.fitted" 
d="M459 270v-115h-41v-155h-105v155h-271v104l227 439h120l-219 -428h143v196l105 -14v-182h41z" />
    <glyph glyph-name="five.fitted" 
d="M455 245q0 -112 -55.5 -180.5t-155.5 -68.5q-75 0 -125 46t-73 128l109 38q25 -92 89 -92q47 0 71.5 37t24.5 92q0 53 -24.5 88t-71.5 35q-45 0 -81 -45h-100v375h351v-118h-245v-123q32 24 81 24q96 0 150.5 -65.5t54.5 -170.5z" />
    <glyph glyph-name="six.fitted" 
d="M454 226q0 -105 -54 -169.5t-147 -64.5q-95 0 -151 76t-56 184q0 133 49 249t142 197h131q-145 -127 -185 -273q31 31 78 31q87 0 140 -66t53 -164zM338 229q0 48 -24.5 80t-64.5 32q-38 0 -61.5 -33.5t-23.5 -80.5q0 -45 25 -77t62 -32q38 0 62.5 32.5t24.5 78.5z" />
    <glyph glyph-name="seven.fitted" 
d="M456 698v-104q-94 -136 -137 -275t-42 -319h-127q0 154 47.5 308.5t127.5 273.5h-178v-58h-103v174h412z" />
    <glyph glyph-name="eight.fitted" 
d="M458 214q0 -101 -59 -162.5t-150 -61.5q-90 0 -148 61.5t-58 162.5q0 50 24.5 95t65.5 74q-29 19 -48.5 58t-19.5 75q0 83 54.5 137t129.5 54q76 0 130.5 -54t54.5 -137q0 -36 -19 -74.5t-48 -58.5q91 -66 91 -169zM323 512q0 36 -21.5 59t-52.5 23q-29 0 -51 -23.5
t-22 -58.5q0 -36 21.5 -60t51.5 -24q31 0 52.5 24t21.5 60zM343 219q0 45 -27.5 76t-66.5 31q-38 0 -65 -31.5t-27 -76.5q0 -43 28 -74t65 -31q40 0 66.5 30t26.5 76z" />
    <glyph glyph-name="nine.fitted" 
d="M455 446q0 -132 -48.5 -248t-142.5 -198h-132q71 63 117.5 126t68.5 148q-30 -30 -78 -30q-87 0 -140 65t-53 163q0 104 54.5 169t147.5 65q95 0 150.5 -76t55.5 -184zM337 471q0 45 -24.5 77t-61.5 32q-39 0 -63.5 -32.5t-24.5 -77.5q0 -47 25 -79t64 -32t62 33t23 79z
" />
    <glyph glyph-name="zero.taboldstyle" 
d="M466 247q0 -117 -56 -185.5t-159 -68.5t-159.5 68.5t-56.5 185.5t56.5 185.5t159.5 68.5t159 -68.5t56 -185.5zM344 247q0 65 -22.5 105t-70.5 40q-49 0 -71.5 -40t-22.5 -105t22.5 -105t71.5 -40q48 0 70.5 40t22.5 105z" />
    <glyph glyph-name="one.taboldstyle" 
d="M40 0v112h150l-1 234l-97 -62l-52 89l180 119h91v-380h151v-112h-422z" />
    <glyph glyph-name="two.taboldstyle" 
d="M455 119v-119h-409v80q3 49 32.5 86t69.5 58.5t80 38t68 33t28 35.5q0 25 -16.5 37.5t-42.5 12.5q-77 0 -117 -67l-101 61q70 117 194 124q89 3 147.5 -36t58.5 -127q0 -46 -34.5 -80.5t-77.5 -51t-90 -39.5t-65 -46h275z" />
    <glyph glyph-name="three.taboldstyle" 
d="M460 7q0 -97 -59.5 -158t-149.5 -61q-160 0 -210 156l108 49q11 -39 37 -62.5t61 -23.5q40 0 68 27.5t28 72.5q0 103 -130 101v98q114 -2 114 90q0 38 -25 60.5t-61 22.5q-63 0 -88 -76l-105 50q53 146 197 146q86 0 142.5 -57.5t56.5 -145.5q0 -38 -18 -74t-47 -61
q35 -23 58 -66t23 -88z" />
    <glyph glyph-name="four.taboldstyle" 
d="M459 121v-115h-41v-201h-105v201h-271v104l227 439h120l-219 -428h143v196l105 -14v-182h41z" />
    <glyph glyph-name="five.taboldstyle" 
d="M455 40q0 -113 -55 -181t-156 -68q-75 0 -125 46t-73 128l109 39q25 -93 89 -93q47 0 71.5 37t24.5 92q0 52 -24.5 87t-71.5 35q-45 0 -81 -45h-100v375h351v-119h-245v-122q32 24 81 24q96 0 150.5 -65t54.5 -170z" />
    <glyph glyph-name="six.taboldstyle" 
d="M462 226q0 -105 -57 -169.5t-153 -64.5q-97 0 -155 76t-58 185q0 131 57 256.5t154 208.5l71 -75q-103 -97 -140 -218q31 31 81 31q90 0 145 -66t55 -164zM339 229q0 48 -24.5 80t-65.5 32q-39 0 -62 -33.5t-23 -80.5q0 -45 24 -77t63 -32t63.5 32.5t24.5 78.5z" />
    <glyph glyph-name="seven.taboldstyle" 
d="M456 492v-105q-94 -135 -137 -274t-42 -319l-127 34q0 132 48 281.5t127 266.5h-178v-58h-103v174h412z" />
    <glyph glyph-name="eight.taboldstyle" 
d="M458 214q0 -101 -59 -162.5t-150 -61.5q-90 0 -148 61.5t-58 162.5q0 50 24.5 95t65.5 74q-29 19 -48.5 58t-19.5 75q0 83 54.5 137t129.5 54q76 0 130.5 -54t54.5 -137q0 -36 -19 -74.5t-48 -58.5q91 -66 91 -169zM323 512q0 36 -21.5 59t-52.5 23q-29 0 -51 -23.5
t-22 -58.5q0 -36 21.5 -60t51.5 -24q31 0 52.5 24t21.5 60zM343 219q0 45 -27.5 76t-66.5 31q-38 0 -65 -31.5t-27 -76.5q0 -43 28 -74t65 -31q40 0 66.5 30t26.5 76z" />
    <glyph glyph-name="nine.taboldstyle" 
d="M40 265q0 105 56.5 169.5t152.5 64.5q97 0 155 -76t58 -184q0 -132 -56.5 -258t-153.5 -208l-71 75q103 97 139 218q-32 -29 -81 -29q-90 0 -144.5 65t-54.5 163zM163 263q0 -48 24 -79.5t65 -31.5q39 0 62.5 32.5t23.5 79.5q0 45 -24.5 77t-63.5 32t-63 -32t-24 -78z
" />
    <glyph glyph-name="rupiah" horiz-adv-x="1051" 
d="M1014 243q0 -54 -11 -98.5t-34.5 -80t-64 -55.5t-96.5 -20q-47 0 -80 30v-239h-119v220h-165l-142 237q-18 30 -32.5 41t-45.5 11h-27v-289h-126v698h229q107 0 172.5 -52t65.5 -156q0 -68 -37.5 -117.5t-104.5 -70.5q3 -1 17.5 -23t16.5 -26l87 -139h92v378h98l4 -30
q40 40 98 40q56 0 97 -21t64 -58t33.5 -81.5t10.5 -98.5zM895 243q0 22 -1 38t-6 36t-14 33t-25.5 22t-40.5 9q-35 0 -57.5 -21t-22.5 -54v-126q0 -33 22.5 -54t57.5 -21q29 0 48 12t26.5 35t10 42.5t2.5 48.5zM413 490q0 87 -112 87h-106v-177h106q53 0 82.5 19.5
t29.5 70.5z" />
    <glyph glyph-name="Euro.fitted" 
d="M414 179l80 -79q-42 -59 -85.5 -84t-105.5 -25q-87 0 -151.5 68t-80.5 169h-64l15 87h39q-2 30 0 63h-54l15 86h48q16 105 80 174t153 69q64 0 109.5 -23t82.5 -78l-84 -86q-30 38 -52.5 50.5t-55.5 12.5q-40 0 -69 -34.5t-39 -84.5h147l-13 -86h-148q-2 -45 0 -63h161
l-13 -87h-133q6 -46 37 -79.5t70 -33.5q62 0 111 64z" />
    <glyph glyph-name="dollar.fitted" 
d="M455 229q0 -72 -44 -121t-108 -61v-47h-92v47q-61 10 -104 52t-61 110l96 29q16 -67 69 -84l1 165q-72 20 -113.5 56t-41.5 107q0 69 45 110.5t109 50.5v55h92v-54q84 -16 134 -97l-73 -61q-25 37 -61 51v-135q152 -47 152 -173zM211 428v109q-51 -11 -51 -55
q0 -34 51 -54zM353 226q0 40 -50 62v-133q50 19 50 71z" />
    <glyph glyph-name="cent.fitted" 
d="M374 165l86 -79q-45 -45 -85 -67.5t-90 -26.5q-9 -1 -35 1l-14 -69l-68 13l14 70q-68 28 -104.5 91.5t-36.5 146.5q0 111 62.5 182.5t175.5 70.5l13 67l68 -14l-12 -65q53 -20 112 -82l-86 -79q-24 28 -50 42l-51 -260q14 0 21 1q38 9 80 57zM205 125l52 260
q-95 -11 -95 -140q0 -85 43 -120z" />
    <glyph glyph-name="sterling.fitted" 
d="M464 114v-114h-405v87q61 82 61 149q0 30 -4 53h-82l24 113h37q-14 48 -14 92q0 93 52 153t138 60q67 0 104.5 -26t73.5 -80l-87 -73q-26 37 -44.5 51.5t-46.5 14.5q-39 0 -58 -29.5t-19 -76.5q0 -35 11 -86h122l-26 -113h-77q7 -38 7 -67q0 -47 -26 -108h259z" />
    <glyph glyph-name="florin.fitted" 
d="M352 447v-103h-85l-95 -546l-101 17l92 529h-52v103h70q2 20 9 49q20 103 77.5 151t161.5 48v-103q-69 -1 -97.5 -27.5t-40.5 -81.5q-3 -24 -6 -36h67z" />
    <glyph glyph-name="yen.fitted" 
d="M385 698h113l-128 -304h66l-20 -89h-83q-1 -3 -4 -11t-6.5 -16.5t-4.5 -9.5h118l-20 -91h-113v-177h-103v177h-135l20 91h101q-9 19 -16 37h-105l20 89h47l-128 304h114l134 -341z" />
    <glyph glyph-name="lira.fitted" 
d="M120 246h-86l16 71h62l-9 43h-69l16 71h37q-6 30 -6 63q0 93 52 153t138 60q63 0 100 -24.5t78 -81.5l-86 -73q-25 37 -44.5 51.5t-47.5 14.5q-39 0 -58 -29.5t-19 -76.5q0 -27 5 -57h126l-17 -71h-98q1 -6 4 -21.5t5 -21.5h106l-17 -71h-79q2 -14 2 -24q0 -47 -26 -108
h259v-114h-405v87q46 65 57 115q4 22 4 44z" />
    <glyph glyph-name="peseta.fitted" 
d="M511 524v-71h-55q-21 -173 -220 -173h-63v-280h-124v453h-57v71h57v174h183q91 0 151 -44t72 -130h56zM173 399h55q85 0 100 57h-155v-57zM228 578h-55v-56h154q-17 56 -99 56z" />
    <glyph glyph-name="colonmonetary.fitted" 
d="M398 209l78 -93q-58 -83 -109 -109v-84h-70v70q-14 -2 -22 -2q-12 0 -24 2v-70h-70l1 87q-77 35 -116 127.5t-39 211.5q0 120 38.5 212.5t115.5 126.5v87h70v-69q9 1 23 1q15 0 23 -1v69h70l-1 -86q55 -27 107 -99l-80 -94q-30 43 -57.5 65t-61.5 22q-36 0 -62 -21
t-40 -56t-20 -74t-6 -83t6 -83t20 -74t40 -56t62 -21t64 23.5t60 70.5z" />
    <glyph glyph-name="franc.fitted" 
d="M297 233v-93h-91v-140h-125v140h-68v93h68v465h380v-124h-255v-156h219v-118h-219v-67h91z" />
    <glyph glyph-name="A.sc" horiz-adv-x="528" 
d="M314 527l203 -527h-127l-41 110h-171l-40 -110h-126l202 527h100zM213 210h101l-50 156z" />
    <glyph glyph-name="B.sc" horiz-adv-x="518" 
d="M468 157q0 -82 -53 -119.5t-137 -37.5h-206v527h194q185 0 185 -149q0 -29 -15 -57t-39 -43q32 -13 51.5 -47t19.5 -74zM334 368q0 27 -16 37.5t-51 10.5h-77v-98h79q33 0 49 11t16 39zM350 163q0 30 -17.5 41.5t-54.5 11.5h-88v-106h88q37 0 54.5 11.5t17.5 41.5z" />
    <glyph glyph-name="C.sc" horiz-adv-x="505" 
d="M378 180l84 -81q-50 -60 -89 -82.5t-103 -22.5q-113 0 -170.5 78.5t-57.5 191.5q0 72 22.5 131t75.5 98.5t129 39.5q61 0 103 -22.5t87 -76.5l-82 -81q-32 35 -54.5 49.5t-53.5 14.5q-56 0 -82 -44t-26 -109q0 -66 26 -110t82 -44q32 0 55 15.5t54 54.5z" />
    <glyph glyph-name="D.sc" horiz-adv-x="525" 
d="M474 264q0 -76 -10 -123t-37.5 -80.5t-75.5 -47t-124 -13.5h-155v527h155q76 0 123.5 -13t75.5 -46t38 -80t10 -124zM357 264q0 101 -17.5 124t-92.5 23h-57v-295h57q75 0 92.5 24.5t17.5 123.5z" />
    <glyph glyph-name="E.sc" horiz-adv-x="487" 
d="M437 116v-116h-365v527h365v-116h-248v-87h217v-106h-217v-102h248z" />
    <glyph glyph-name="F.sc" horiz-adv-x="469" 
d="M430 527v-116h-241v-87h215v-106h-215v-218h-117v527h358z" />
    <glyph glyph-name="G.sc" horiz-adv-x="525" 
d="M263 292h201l-1 -292h-99v35q-35 -41 -101 -41q-73 0 -122.5 41t-70 99.5t-20.5 129.5q0 53 12 99t37 85t68.5 62t101.5 23q61 0 103.5 -22.5t86.5 -76.5l-82 -81q-32 35 -54.5 49.5t-53.5 14.5q-101 0 -101 -153t102 -153q38 0 60 27t22 64h-89v90z" />
    <glyph glyph-name="H.sc" horiz-adv-x="549" 
d="M478 527v-527h-118v218h-170v-218h-118v527h118v-203h170v203h118z" />
    <glyph glyph-name="I.sc" horiz-adv-x="260" 
d="M189 527v-527h-117v527h117z" />
    <glyph glyph-name="J.sc" horiz-adv-x="468" 
d="M278 526h118v-354q0 -86 -48 -132t-135 -46q-76 0 -120 40t-64 120l108 30q20 -75 76 -75q65 0 65 73v344z" />
    <glyph glyph-name="K.sc" horiz-adv-x="523" 
d="M189 527v-527h-117v527h117zM368 0l-172 267l150 260h127l-155 -260l182 -267h-132z" />
    <glyph glyph-name="L.sc" horiz-adv-x="448" 
d="M408 114v-114h-336v527h117v-413h219z" />
    <glyph glyph-name="M.sc" horiz-adv-x="623" 
d="M551 527v-527h-118v225l-87 -225h-69l-88 224v-224h-117v527h108l131 -332l132 332h108z" />
    <glyph glyph-name="N.sc" horiz-adv-x="533" 
d="M462 527v-527h-96l-177 286v-286h-117v527h95l177 -286v286h118z" />
    <glyph glyph-name="O.sc" horiz-adv-x="522" 
d="M482 264q0 -53 -12 -100t-37.5 -86t-69.5 -61.5t-103 -22.5q-58 0 -102 22.5t-69 62t-37 86t-12 99.5t12 99.5t37 85.5t69 61.5t102 22.5q59 0 103 -22.5t69.5 -61.5t37.5 -85.5t12 -99.5zM364 264q0 152 -104 152q-102 0 -102 -152q0 -153 102 -153q104 0 104 153z" />
    <glyph glyph-name="P.sc" horiz-adv-x="506" 
d="M460 364q0 -163 -180 -163h-92v-201h-118v527h207q83 0 133 -40t50 -123zM342 363q0 30 -16.5 41.5t-51.5 11.5h-86v-105h86q36 0 52 11t16 41z" />
    <glyph glyph-name="Q.sc" horiz-adv-x="522" 
d="M482 264q0 -101 -38 -165q33 -31 71 -99h-131q-8 12 -16 20q-46 -26 -108 -26q-111 0 -165.5 77t-54.5 193q0 115 54.5 192t165.5 77q112 0 167 -76.5t55 -192.5zM364 264q0 152 -103 152t-103 -152q0 -153 102 -153q13 0 23 6q-19 21 -45 25v76q67 -8 113 -42
q13 31 13 88z" />
    <glyph glyph-name="R.sc" horiz-adv-x="523" 
d="M451 364q0 -48 -26 -85.5t-72 -55.5q9 -7 21 -24l125 -199h-136l-107 176q-10 17 -18.5 24t-24.5 7h-22v-207h-118v527h195q80 0 131.5 -41t51.5 -122zM334 364q0 51 -66 51h-77v-104h77q66 0 66 53z" />
    <glyph glyph-name="S.sc" horiz-adv-x="493" 
d="M447 164q0 -80 -59.5 -125.5t-138.5 -45.5q-166 0 -212 155l111 25q24 -67 101 -67q32 0 56.5 16t24.5 42q0 19 -20.5 32t-51.5 19t-67.5 17.5t-67.5 26t-51.5 45.5t-20.5 75q0 74 55.5 114t128.5 40q67 0 113.5 -27.5t81.5 -90.5l-104 -46q-32 52 -91 52
q-27 0 -46.5 -11.5t-19.5 -30.5q0 -15 20.5 -26t51.5 -17t67 -18.5t67 -28t51.5 -48t20.5 -77.5z" />
    <glyph glyph-name="T.sc" horiz-adv-x="466" 
d="M436 527v-116h-144v-411h-118v411h-144v116h406z" />
    <glyph glyph-name="U.sc" horiz-adv-x="543" 
d="M475 527v-305q0 -106 -49 -167t-154 -61t-154 61t-49 166v306h118v-301q0 -58 17.5 -87.5t67.5 -29.5q51 0 68 28.5t17 88.5v301h118z" />
    <glyph glyph-name="V.sc" horiz-adv-x="513" 
d="M363 527h124l-178 -527h-105l-178 527h124l106 -348z" />
    <glyph glyph-name="W.sc" horiz-adv-x="692" 
d="M540 527h121l-123 -527h-121l-71 292l-71 -292h-121l-122 527h120l68 -315l79 315h95l79 -315z" />
    <glyph glyph-name="X.sc" horiz-adv-x="537" 
d="M337 271l178 -271h-140l-107 177l-106 -177h-140l178 271l-169 256h141l96 -163l97 163h141z" />
    <glyph glyph-name="Y.sc" horiz-adv-x="509" 
d="M356 527h131l-174 -352v-175h-118v176l-173 351h131l102 -222z" />
    <glyph glyph-name="Z.sc" horiz-adv-x="500" 
d="M440 116v-116h-390v85l222 326h-204v116h367v-86l-220 -325h225z" />
    <glyph glyph-name="commaaccentcomb" horiz-adv-x="283" 
d="M198 -137v-55l-81 -128h-46v183q0 26 18.5 44t44.5 18q27 0 45.5 -18t18.5 -44z" />
    <glyph glyph-name="commaaccentcomb.alt" horiz-adv-x="283" 
d="M71 611v55l80 128h47v-183q0 -25 -18.5 -43.5t-44.5 -18.5q-27 0 -45.5 18t-18.5 44z" />
    <glyph glyph-name="grave.cap" horiz-adv-x="336" 
d="M187 918l85 -161h-83l-125 161h123z" />
    <glyph glyph-name="acute.cap" horiz-adv-x="333" 
d="M148 918h122l-123 -161h-85z" />
    <glyph glyph-name="circumflex.cap" horiz-adv-x="526" 
d="M313 912l123 -152h-113l-61 90l-59 -90h-114l123 152h101z" />
    <glyph glyph-name="caron.cap" horiz-adv-x="521" 
d="M436 911l-123 -152h-101l-123 152h114l59 -90l61 90h113z" />
    <glyph glyph-name="tilde.cap" horiz-adv-x="527" 
d="M379 879l61 -51q-27 -35 -52 -52.5t-61 -17.5q-30 0 -66 23.5t-62 23.5q-28 0 -55 -38l-60 51q23 36 49 52.5t66 16.5q31 0 66 -23.5t60 -23.5q33 0 54 39z" />
    <glyph glyph-name="dieresis.cap" horiz-adv-x="476" 
d="M407 827q0 -28 -19.5 -47.5t-47.5 -19.5t-48 19.5t-20 47.5q0 29 20 48.5t48 19.5t47.5 -20t19.5 -48zM204 827q0 -28 -19.5 -47.5t-47.5 -19.5t-47.5 19.5t-19.5 47.5t19.5 48t47.5 20t47.5 -20t19.5 -48z" />
    <glyph glyph-name="macron.cap" horiz-adv-x="538" 
d="M431 869v-80h-323v80h323z" />
    <glyph glyph-name="breve.cap" horiz-adv-x="541" 
d="M378 915h82q-62 -145 -190 -145q-127 0 -189 145h81q41 -71 108 -71q69 0 108 71z" />
    <glyph glyph-name="ring.cap" horiz-adv-x="537" 
d="M389 876q0 -50 -35 -85.5t-85 -35.5t-85.5 35.5t-35.5 85.5t35.5 85t85.5 35t85 -35t35 -85zM313 876q0 18 -13 31t-31 13t-31.5 -13t-13.5 -31t13.5 -31t31.5 -13t31 12.5t13 31.5z" />
    <glyph glyph-name="hungarumlaut.cap" horiz-adv-x="489" 
d="M331 936h109l-119 -152h-62zM185 936h110l-120 -152h-62z" />
    <glyph glyph-name="dotaccent.cap" horiz-adv-x="551" 
d="M337 809q0 -25 -18 -43t-44 -18q-25 0 -43 18t-18 43t18 43t43 18q26 0 44 -18t18 -43z" />
    <glyph glyph-name="caroncomb" horiz-adv-x="521" 
d="M436 734l-123 -152h-101l-123 152h114l59 -90l61 90h113z" />
    <glyph glyph-name="ringcomb" horiz-adv-x="537" 
d="M389 699q0 -50 -35 -85.5t-85 -35.5t-85.5 35.5t-35.5 85.5t35.5 85t85.5 35t85 -35t35 -85zM313 699q0 18 -13 31t-31 13t-31.5 -13t-13.5 -31t13.5 -31t31.5 -13t31 12.5t13 31.5z" />
    <glyph glyph-name="hungarumlautcomb" horiz-adv-x="489" 
d="M331 759h109l-119 -152h-62zM185 759h110l-120 -152h-62z" />
    <glyph glyph-name="ringacute" horiz-adv-x="537" 
d="M248 834h111l-94 -83h4q45 0 76.5 -31.5t31.5 -76.5t-31.5 -77t-76.5 -32t-77 32t-32 77q0 32 20 62zM309 643q0 17 -11.5 28.5t-28.5 11.5t-28.5 -11.5t-11.5 -28.5t11.5 -28.5t28.5 -11.5t28.5 11.5t11.5 28.5z" />
    <glyph glyph-name="ringacute.cap" horiz-adv-x="537" 
d="M248 1055h111l-94 -83h4q45 0 76.5 -31.5t31.5 -76.5t-31.5 -77t-76.5 -32t-77 32t-32 77q0 32 20 62zM309 864q0 16 -11.5 28t-28.5 12t-28.5 -12t-11.5 -28t11.5 -28t28.5 -12t28.5 12t11.5 28z" />
    <glyph glyph-name="ringacutecomb" horiz-adv-x="537" 
d="M248 878h111l-94 -83h4q45 0 76.5 -31.5t31.5 -76.5t-31.5 -77t-76.5 -32t-77 32t-32 77q0 32 20 62zM309 687q0 17 -11.5 28.5t-28.5 11.5t-28.5 -11.5t-11.5 -28.5t11.5 -28.5t28.5 -11.5t28.5 11.5t11.5 28.5z" />
    <glyph glyph-name="Aacute.sc" horiz-adv-x="528" 
d="M314 527l203 -527h-127l-41 110h-171l-40 -110h-126l202 527h100zM213 210h101l-50 156zM315 741h123l-124 -161h-84z" />
    <glyph glyph-name="Agrave.sc" horiz-adv-x="528" 
d="M314 527l203 -527h-127l-41 110h-171l-40 -110h-126l202 527h100zM213 210h101l-50 156zM213 741l85 -161h-84l-124 161h123z" />
    <glyph glyph-name="Acircumflex.sc" horiz-adv-x="528" 
d="M314 527l203 -527h-127l-41 110h-171l-40 -110h-126l202 527h100zM213 210h101l-50 156zM314 735l123 -152h-113l-61 90l-59 -90h-114l123 152h101z" />
    <glyph glyph-name="Atilde.sc" horiz-adv-x="528" 
d="M314 527l203 -527h-127l-41 110h-171l-40 -110h-126l202 527h100zM213 210h101l-50 156zM381 702l62 -51q-27 -35 -52.5 -52.5t-61.5 -17.5q-30 0 -66 23.5t-62 23.5q-28 0 -55 -38l-60 51q23 36 49 52.5t66 16.5q32 0 66.5 -23.5t59.5 -23.5q33 0 54 39z" />
    <glyph glyph-name="Adieresis.sc" horiz-adv-x="528" 
d="M314 527l203 -527h-127l-41 110h-171l-40 -110h-126l202 527h100zM213 210h101l-50 156zM433 650q0 -28 -20 -47.5t-47 -19.5q-28 0 -48 19.5t-20 47.5t20 48t48 20q27 0 47 -20t20 -48zM230 650q0 -28 -19.5 -47.5t-47.5 -19.5t-47.5 19.5t-19.5 47.5t19.5 48t47.5 20
t47.5 -20t19.5 -48z" />
    <glyph glyph-name="Amacron.sc" horiz-adv-x="528" 
d="M314 527l203 -527h-127l-41 110h-171l-40 -110h-126l202 527h100zM213 210h101l-50 156zM426 692v-80h-323v80h323z" />
    <glyph glyph-name="Abreve.sc" horiz-adv-x="528" 
d="M314 527l203 -527h-127l-41 110h-171l-40 -110h-126l202 527h100zM213 210h101l-50 156zM372 738h82q-62 -145 -190 -145q-127 0 -189 145h81q41 -71 108 -71q69 0 108 71z" />
    <glyph glyph-name="Aring.sc" horiz-adv-x="528" 
d="M314 527l203 -527h-127l-41 110h-171l-40 -110h-126l202 527h100zM213 210h101l-50 156zM385 699q0 -50 -35 -85.5t-85 -35.5t-85.5 35.5t-35.5 85.5t35.5 85t85.5 35q49 0 84.5 -35.5t35.5 -84.5zM309 699q0 18 -13 31t-31 13q-19 0 -32 -13t-13 -31q0 -19 13 -31.5
t32 -12.5q18 0 31 12.5t13 31.5z" />
    <glyph glyph-name="Aringacute.sc" horiz-adv-x="528" 
d="M314 527l203 -527h-127l-41 110h-171l-40 -110h-126l202 527h100zM213 210h101l-50 156zM244 878h111l-95 -83h5q45 0 76.5 -31.5t31.5 -76.5t-31.5 -77t-76.5 -32q-46 0 -77.5 32t-31.5 77q0 33 19 62zM305 687q0 16 -12 28t-28 12q-17 0 -29 -11.5t-12 -28.5t12 -28.5
t29 -11.5q16 0 28 12t12 28z" />
    <glyph glyph-name="Aogonek.sc" horiz-adv-x="528" 
d="M481 0l139 -199h-112l-118 199l-41 110h-171l-40 -110h-126l202 527h100l203 -527h-36zM213 210h101l-50 156z" />
    <glyph glyph-name="AE.sc" horiz-adv-x="726" 
d="M679 116v-116h-353v110h-138l-57 -110h-127l279 527h396v-116h-237v-86h206v-108h-206v-101h237zM241 210h85v155h-15z" />
    <glyph glyph-name="AEacute.sc" horiz-adv-x="726" 
d="M679 116v-116h-353v110h-138l-57 -110h-127l279 527h396v-116h-237v-86h206v-108h-206v-101h237zM241 210h85v155h-15zM372 741h122l-124 -161h-84z" />
    <glyph glyph-name="Cacute.sc" horiz-adv-x="505" 
d="M378 180l84 -81q-50 -60 -89 -82.5t-103 -22.5q-113 0 -170.5 78.5t-57.5 191.5q0 72 22.5 131t75.5 98.5t129 39.5q61 0 103 -22.5t87 -76.5l-82 -81q-32 35 -54.5 49.5t-53.5 14.5q-56 0 -82 -44t-26 -109q0 -66 26 -110t82 -44q32 0 55 15.5t54 54.5zM234 741h122
l-123 -161h-85z" />
    <glyph glyph-name="Ccircumflex.sc" horiz-adv-x="505" 
d="M378 180l84 -81q-50 -60 -89 -82.5t-103 -22.5q-113 0 -170.5 78.5t-57.5 191.5q0 72 22.5 131t75.5 98.5t129 39.5q61 0 103 -22.5t87 -76.5l-82 -81q-32 35 -54.5 49.5t-53.5 14.5q-56 0 -82 -44t-26 -109q0 -66 26 -110t82 -44q32 0 55 15.5t54 54.5zM303 735
l123 -152h-113l-61 90l-59 -90h-114l123 152h101z" />
    <glyph glyph-name="Ccaron.sc" horiz-adv-x="505" 
d="M462 99l-84 81q-31 -39 -54 -54.5t-55 -15.5q-56 0 -82 44t-26 110q0 65 26 109t82 44q31 0 53.5 -14.5t54.5 -49.5l82 81q-45 54 -87 76.5t-103 22.5q-76 0 -129 -39.5t-75.5 -98.5t-22.5 -131q0 -113 57.5 -191.5t170.5 -78.5q64 0 103 22.5t89 82.5zM426 734
l-123 -152h-101l-123 152h114l59 -90l61 90h113z" />
    <glyph glyph-name="Ccedilla.sc" horiz-adv-x="506" 
d="M378 180l84 -81q-41 -49 -73.5 -72.5t-76.5 -29.5l24 -68l-69 -131h-115l98 137l-24 62q-91 16 -137.5 91t-46.5 176q0 72 22.5 131t75.5 98.5t129 39.5q61 0 103 -22.5t87 -76.5l-82 -81q-32 35 -54.5 49.5t-53.5 14.5q-56 0 -82 -44t-26 -109q0 -66 26 -110t82 -44
q32 0 55 15.5t54 54.5z" />
    <glyph glyph-name="Cdotaccent.sc" horiz-adv-x="505" 
d="M378 180l84 -81q-50 -60 -89 -82.5t-103 -22.5q-113 0 -170.5 78.5t-57.5 191.5q0 72 22.5 131t75.5 98.5t129 39.5q61 0 103 -22.5t87 -76.5l-82 -81q-32 35 -54.5 49.5t-53.5 14.5q-56 0 -82 -44t-26 -109q0 -66 26 -110t82 -44q32 0 55 15.5t54 54.5zM314 632
q0 -25 -18 -43t-44 -18q-25 0 -43 18t-18 43t18 43t43 18q26 0 44 -18t18 -43z" />
    <glyph glyph-name="Dcaron.sc" horiz-adv-x="525" 
d="M474 264q0 77 -10 124t-38 80t-75.5 46t-123.5 13h-155v-527h155q76 0 124 13.5t75.5 47t37.5 80.5t10 123zM357 264q0 -99 -17.5 -123.5t-92.5 -24.5h-57v295h57q75 0 92.5 -23t17.5 -124zM437 734l-123 -152h-102l-123 152h114l60 -90l60 90h114z" />
    <glyph glyph-name="Eth.sc" horiz-adv-x="527" 
d="M475 264q0 -76 -10 -123t-37.5 -80.5t-75.5 -47t-124 -13.5h-155v215h-27v95h27v217h155q76 0 123.5 -13t75.5 -46t38 -80t10 -124zM358 264q0 101 -17.5 124t-92.5 23h-57v-101h92v-95h-92v-99h57q75 0 92.5 24.5t17.5 123.5z" />
    <glyph glyph-name="Dcroat.sc" horiz-adv-x="527" 
d="M475 264q0 -76 -10 -123t-37.5 -80.5t-75.5 -47t-124 -13.5h-155v215h-27v95h27v217h155q76 0 123.5 -13t75.5 -46t38 -80t10 -124zM358 264q0 101 -17.5 124t-92.5 23h-57v-101h74v-95h-74v-99h57q75 0 92.5 24.5t17.5 123.5z" />
    <glyph glyph-name="Eacute.sc" horiz-adv-x="487" 
d="M437 116v-116h-365v527h365v-116h-248v-87h217v-106h-217v-102h248zM225 741h123l-124 -161h-84z" />
    <glyph glyph-name="Egrave.sc" horiz-adv-x="487" 
d="M437 116v-116h-365v527h365v-116h-248v-87h217v-106h-217v-102h248zM263 741l85 -161h-84l-124 161h123z" />
    <glyph glyph-name="Ecircumflex.sc" horiz-adv-x="487" 
d="M437 116v-116h-365v527h365v-116h-248v-87h217v-106h-217v-102h248zM295 735l123 -152h-114l-61 90l-59 -90h-114l123 152h102z" />
    <glyph glyph-name="Ecaron.sc" horiz-adv-x="487" 
d="M437 0v116h-248v102h217v106h-217v87h248v116h-365v-527h365zM418 734l-123 -152h-102l-123 152h114l59 -90l61 90h114z" />
    <glyph glyph-name="Edieresis.sc" horiz-adv-x="487" 
d="M437 116v-116h-365v527h365v-116h-248v-87h217v-106h-217v-102h248zM412 650q0 -28 -19.5 -47.5t-47.5 -19.5t-48 19.5t-20 47.5t20 48t48 20t47.5 -20t19.5 -48zM210 650q0 -28 -19.5 -47.5t-47.5 -19.5t-48 19.5t-20 47.5t19.5 48t48.5 20q28 0 47.5 -20t19.5 -48z" />
    <glyph glyph-name="Emacron.sc" horiz-adv-x="487" 
d="M437 116v-116h-365v527h365v-116h-248v-87h217v-106h-217v-102h248zM405 692v-80h-322v80h322z" />
    <glyph glyph-name="Ebreve.sc" horiz-adv-x="487" 
d="M437 116v-116h-365v527h365v-116h-248v-87h217v-106h-217v-102h248zM352 738h81q-60 -145 -189 -145q-128 0 -190 145h82q41 -71 108 -71t108 71z" />
    <glyph glyph-name="Edotaccent.sc" horiz-adv-x="487" 
d="M437 116v-116h-365v527h365v-116h-248v-87h217v-106h-217v-102h248zM305 632q0 -26 -17.5 -43.5t-43.5 -17.5t-43.5 17.5t-17.5 43.5t17.5 43.5t43.5 17.5t43.5 -17.5t17.5 -43.5z" />
    <glyph glyph-name="Eogonek.sc" horiz-adv-x="487" 
d="M437 0l141 -199h-112l-118 199h-276v527h365v-116h-248v-87h217v-106h-217v-102h248v-116z" />
    <glyph glyph-name="Gcircumflex.sc" horiz-adv-x="525" 
d="M263 292h201l-1 -292h-99v35q-35 -41 -101 -41q-73 0 -122.5 41t-70 99.5t-20.5 129.5q0 53 12 99t37 85t68.5 62t101.5 23q61 0 103.5 -22.5t86.5 -76.5l-82 -81q-32 35 -54.5 49.5t-53.5 14.5q-101 0 -101 -153t102 -153q38 0 60 27t22 64h-89v90zM313 735l123 -152
h-114l-60 90l-60 -90h-113l123 152h101z" />
    <glyph glyph-name="Gbreve.sc" horiz-adv-x="525" 
d="M263 292h201l-1 -292h-99v35q-35 -41 -101 -41q-73 0 -122.5 41t-70 99.5t-20.5 129.5q0 53 12 99t37 85t68.5 62t101.5 23q61 0 103.5 -22.5t86.5 -76.5l-82 -81q-32 35 -54.5 49.5t-53.5 14.5q-101 0 -101 -153t102 -153q38 0 60 27t22 64h-89v90zM371 738h82
q-62 -145 -190 -145q-127 0 -190 145h82q41 -71 108 -71q69 0 108 71z" />
    <glyph glyph-name="Gdotaccent.sc" horiz-adv-x="525" 
d="M263 292h201l-1 -292h-99v35q-35 -41 -101 -41q-73 0 -122.5 41t-70 99.5t-20.5 129.5q0 53 12 99t37 85t68.5 62t101.5 23q61 0 103.5 -22.5t86.5 -76.5l-82 -81q-32 35 -54.5 49.5t-53.5 14.5q-101 0 -101 -153t102 -153q38 0 60 27t22 64h-89v90zM324 632
q0 -25 -18 -43t-44 -18q-25 0 -43 18t-18 43t18 43t43 18q26 0 44 -18t18 -43z" />
    <glyph glyph-name="Gcommaaccent.sc" horiz-adv-x="525" 
d="M263 292h201l-1 -292h-99v35q-35 -41 -101 -41q-73 0 -122.5 41t-70 99.5t-20.5 129.5q0 53 12 99t37 85t68.5 62t101.5 23q61 0 103.5 -22.5t86.5 -76.5l-82 -81q-32 35 -54.5 49.5t-53.5 14.5q-101 0 -101 -153t102 -153q38 0 60 27t22 64h-89v90zM325 -137v-55
l-80 -128h-46v183q0 26 18.5 44t44.5 18t44.5 -18t18.5 -44z" />
    <glyph glyph-name="Hcircumflex.sc" horiz-adv-x="549" 
d="M478 527v-527h-118v218h-170v-218h-118v527h118v-203h170v203h118zM325 735l123 -152h-114l-60 90l-60 -90h-113l122 152h102z" />
    <glyph glyph-name="Hbar.sc" horiz-adv-x="549" 
d="M549 469v-88h-71v-381h-118v218h-170v-218h-118v381h-70v88h70v58h118v-58h170v58h118v-58h71zM190 324h170v57h-170v-57z" />
    <glyph glyph-name="Iacute.sc" horiz-adv-x="260" 
d="M189 527v-527h-117v527h117zM156 741h123l-124 -161h-85z" />
    <glyph glyph-name="Igrave.sc" horiz-adv-x="260" 
d="M189 527v-527h-117v527h117zM105 741l85 -161h-84l-124 161h123z" />
    <glyph glyph-name="Icircumflex.sc" horiz-adv-x="260" 
d="M189 527v-527h-117v527h117zM181 735l123 -152h-114l-60 90l-60 -90h-114l123 152h102z" />
    <glyph glyph-name="Itilde.sc" horiz-adv-x="260" 
d="M189 527v-527h-117v527h117zM247 702l62 -51q-27 -35 -52 -52.5t-61 -17.5q-30 0 -66 23.5t-63 23.5q-28 0 -55 -38l-60 51q23 36 49 52.5t66 16.5q32 0 67 -23.5t60 -23.5q32 0 53 39z" />
    <glyph glyph-name="Idieresis.sc" horiz-adv-x="260" 
d="M189 527v-527h-117v527h117zM299 650q0 -28 -19.5 -47.5t-47.5 -19.5t-48 19.5t-20 47.5t20 48t48 20t47.5 -20t19.5 -48zM97 650q0 -28 -19.5 -47.5t-47.5 -19.5t-48 19.5t-20 47.5t20 48t48 20t47.5 -20t19.5 -48z" />
    <glyph glyph-name="Imacron.sc" horiz-adv-x="260" 
d="M189 527v-527h-117v527h117zM292 692v-80h-323v80h323z" />
    <glyph glyph-name="Ibreve.sc" horiz-adv-x="260" 
d="M189 527v-527h-117v527h117zM239 738h81q-60 -145 -189 -145q-128 0 -190 145h82q41 -71 108 -71t108 71z" />
    <glyph glyph-name="Idotaccent.sc" horiz-adv-x="260" 
d="M189 527v-527h-117v527h117zM192 632q0 -25 -18 -43t-44 -18t-43.5 17.5t-17.5 43.5t17.5 43.5t43.5 17.5t44 -18t18 -43z" />
    <glyph glyph-name="Iogonek.sc" horiz-adv-x="252" 
d="M160 0l133 -199h-109l-117 199v527h118v-527h-25z" />
    <glyph glyph-name="Jcircumflex.sc" horiz-adv-x="468" 
d="M278 526h118v-354q0 -86 -48 -132t-135 -46q-76 0 -120 40t-64 120l108 30q20 -75 76 -75q65 0 65 73v344zM391 735l123 -152h-113l-61 90l-59 -90h-114l123 152h101z" />
    <glyph glyph-name="Kcommaaccent.sc" horiz-adv-x="523" 
d="M189 527v-527h-117v527h117zM368 0l-172 267l150 260h127l-155 -260l182 -267h-132zM324 -137v-55l-80 -128h-46v183q0 26 18.5 44t44.5 18t44.5 -18t18.5 -44z" />
    <glyph glyph-name="Lacute.sc" horiz-adv-x="448" 
d="M408 114v-114h-336v527h117v-413h219zM157 741h123l-124 -161h-84z" />
    <glyph glyph-name="Lcaron.sc" horiz-adv-x="448" 
d="M408 114v-114h-336v527h117v-413h219zM420 503l-5 -53l-74 -118h-42l5 171q1 24 17.5 41.5t40.5 17.5t42 -17.5t16 -41.5z" />
    <glyph glyph-name="Lcommaaccent.sc" horiz-adv-x="448" 
d="M408 114v-114h-336v527h117v-413h219zM287 -137v-55l-80 -128h-47v183q0 26 18.5 44t44.5 18q27 0 45.5 -18t18.5 -44z" />
    <glyph glyph-name="Lslash.sc" horiz-adv-x="454" 
d="M416 116v-116h-341v165l-26 -11v99l26 11v263h120v-211l91 39v-99l-91 -39v-101h221z" />
    <glyph glyph-name="Nacute.sc" horiz-adv-x="533" 
d="M462 527v-527h-96l-177 286v-286h-117v527h95l177 -286v286h118zM248 741h122l-123 -161h-85z" />
    <glyph glyph-name="Ncaron.sc" horiz-adv-x="533" 
d="M462 0v527h-118v-286l-177 286h-95v-527h117v286l177 -286h96zM440 734l-123 -152h-102l-123 152h114l60 -90l60 90h114z" />
    <glyph glyph-name="Ntilde.sc" horiz-adv-x="533" 
d="M462 527v-527h-96l-177 286v-286h-117v527h95l177 -286v286h118zM383 702l62 -51q-27 -35 -52 -52.5t-62 -17.5q-29 0 -65 23.5t-63 23.5q-28 0 -55 -38l-60 51q23 36 49 52.5t66 16.5q32 0 67 -23.5t60 -23.5q32 0 53 39z" />
    <glyph glyph-name="Ncommaaccent.sc" horiz-adv-x="533" 
d="M462 527v-527h-96l-177 286v-286h-117v527h95l177 -286v286h118zM330 -137v-55l-80 -128h-47v183q0 26 18.5 44t44.5 18q27 0 45.5 -18t18.5 -44z" />
    <glyph glyph-name="Eng.sc" horiz-adv-x="533" 
d="M462 527v-558q0 -77 -41 -124.5t-118 -56.5l-36 101q78 15 78 91v55l-156 251v-286h-117v527h95l177 -286v286h118z" />
    <glyph glyph-name="Oacute.sc" horiz-adv-x="522" 
d="M482 264q0 -53 -12 -100t-37.5 -86t-69.5 -61.5t-103 -22.5q-58 0 -102 22.5t-69 62t-37 86t-12 99.5t12 99.5t37 85.5t69 61.5t102 22.5q59 0 103 -22.5t69.5 -61.5t37.5 -85.5t12 -99.5zM364 264q0 152 -104 152q-102 0 -102 -152q0 -153 102 -153q104 0 104 153z
M242 741h122l-123 -161h-85z" />
    <glyph glyph-name="Ograve.sc" horiz-adv-x="522" 
d="M482 264q0 -53 -12 -100t-37.5 -86t-69.5 -61.5t-103 -22.5q-58 0 -102 22.5t-69 62t-37 86t-12 99.5t12 99.5t37 85.5t69 61.5t102 22.5q59 0 103 -22.5t69.5 -61.5t37.5 -85.5t12 -99.5zM364 264q0 152 -104 152q-102 0 -102 -152q0 -153 102 -153q104 0 104 153z
M280 741l84 -161h-83l-125 161h124z" />
    <glyph glyph-name="Ocircumflex.sc" horiz-adv-x="522" 
d="M482 264q0 -53 -12 -100t-37.5 -86t-69.5 -61.5t-103 -22.5q-58 0 -102 22.5t-69 62t-37 86t-12 99.5t12 99.5t37 85.5t69 61.5t102 22.5q59 0 103 -22.5t69.5 -61.5t37.5 -85.5t12 -99.5zM364 264q0 152 -104 152q-102 0 -102 -152q0 -153 102 -153q104 0 104 153z
M312 735l123 -152h-114l-61 90l-59 -90h-114l123 152h102z" />
    <glyph glyph-name="Otilde.sc" horiz-adv-x="522" 
d="M482 264q0 -53 -12 -100t-37.5 -86t-69.5 -61.5t-103 -22.5q-58 0 -102 22.5t-69 62t-37 86t-12 99.5t12 99.5t37 85.5t69 61.5t102 22.5q59 0 103 -22.5t69.5 -61.5t37.5 -85.5t12 -99.5zM364 264q0 152 -104 152q-102 0 -102 -152q0 -153 102 -153q104 0 104 153z
M378 702l62 -51q-27 -35 -52 -52.5t-62 -17.5q-30 0 -65.5 23.5t-62.5 23.5q-28 0 -55 -38l-60 51q23 36 49 52.5t66 16.5q32 0 66.5 -23.5t59.5 -23.5q33 0 54 39z" />
    <glyph glyph-name="Odieresis.sc" horiz-adv-x="522" 
d="M482 264q0 -53 -12 -100t-37.5 -86t-69.5 -61.5t-103 -22.5q-58 0 -102 22.5t-69 62t-37 86t-12 99.5t12 99.5t37 85.5t69 61.5t102 22.5q59 0 103 -22.5t69.5 -61.5t37.5 -85.5t12 -99.5zM364 264q0 152 -104 152q-102 0 -102 -152q0 -153 102 -153q104 0 104 153z
M429 650q0 -28 -19.5 -47.5t-47.5 -19.5t-48 19.5t-20 47.5t20 48t48 20t47.5 -20t19.5 -48zM227 650q0 -28 -20 -47.5t-47 -19.5q-28 0 -48 19.5t-20 47.5t20 48t48 20q27 0 47 -20t20 -48z" />
    <glyph glyph-name="Omacron.sc" horiz-adv-x="522" 
d="M482 264q0 -53 -12 -100t-37.5 -86t-69.5 -61.5t-103 -22.5q-58 0 -102 22.5t-69 62t-37 86t-12 99.5t12 99.5t37 85.5t69 61.5t102 22.5q59 0 103 -22.5t69.5 -61.5t37.5 -85.5t12 -99.5zM364 264q0 152 -104 152q-102 0 -102 -152q0 -153 102 -153q104 0 104 153z
M422 692v-80h-323v80h323z" />
    <glyph glyph-name="Obreve.sc" horiz-adv-x="522" 
d="M482 264q0 -53 -12 -100t-37.5 -86t-69.5 -61.5t-103 -22.5q-58 0 -102 22.5t-69 62t-37 86t-12 99.5t12 99.5t37 85.5t69 61.5t102 22.5q59 0 103 -22.5t69.5 -61.5t37.5 -85.5t12 -99.5zM364 264q0 152 -104 152q-102 0 -102 -152q0 -153 102 -153q104 0 104 153z
M369 738h82q-62 -145 -190 -145q-127 0 -189 145h81q41 -71 108 -71q69 0 108 71z" />
    <glyph glyph-name="Ohungarumlaut.sc" horiz-adv-x="522" 
d="M482 264q0 -53 -12 -100t-37.5 -86t-69.5 -61.5t-103 -22.5q-58 0 -102 22.5t-69 62t-37 86t-12 99.5t12 99.5t37 85.5t69 61.5t102 22.5q59 0 103 -22.5t69.5 -61.5t37.5 -85.5t12 -99.5zM364 264q0 152 -104 152q-102 0 -102 -152q0 -153 102 -153q104 0 104 153z
M345 759h109l-119 -152h-62zM198 759h110l-120 -152h-62z" />
    <glyph glyph-name="Oslash.sc" horiz-adv-x="532" 
d="M482 264q0 -53 -12 -100t-37.5 -86t-69.5 -61.5t-103 -22.5q-46 0 -82 16l-5 -10h-91l27 54q-69 72 -69 210q0 53 12 99.5t37 85.5t69 61.5t102 22.5q42 0 79 -14l7 13h94l-28 -58q70 -74 70 -210zM364 264q0 49 -14 85l-119 -231q13 -7 29 -7q104 0 104 153zM171 182
l116 229q-10 5 -27 5q-102 0 -102 -152q0 -51 13 -82z" />
    <glyph glyph-name="Oslashacute.sc" horiz-adv-x="532" 
d="M482 264q0 -53 -12 -100t-37.5 -86t-69.5 -61.5t-103 -22.5q-46 0 -82 16l-5 -10h-91l27 54q-69 72 -69 210q0 53 12 99.5t37 85.5t69 61.5t102 22.5q42 0 79 -14l7 13h94l-28 -58q70 -74 70 -210zM364 264q0 49 -14 85l-119 -231q13 -7 29 -7q104 0 104 153zM171 182
l116 229q-10 5 -27 5q-102 0 -102 -152q0 -51 13 -82zM247 741h122l-123 -161h-85z" />
    <glyph glyph-name="OE.sc" horiz-adv-x="772" 
d="M724 116v-116h-361v27q-37 -32 -103 -32q-112 0 -166 77.5t-54 191.5q0 113 54 191t166 78q66 0 103 -32v26h361v-116h-244v-86h213v-108h-213v-101h244zM362 264q0 153 -102 153t-102 -153t102 -153t102 153z" />
    <glyph glyph-name="Racute.sc" horiz-adv-x="523" 
d="M451 364q0 -48 -26 -85.5t-72 -55.5q9 -7 21 -24l125 -199h-136l-107 176q-10 17 -18.5 24t-24.5 7h-22v-207h-118v527h195q80 0 131.5 -41t51.5 -122zM334 364q0 51 -66 51h-77v-104h77q66 0 66 53zM243 741h122l-123 -161h-85z" />
    <glyph glyph-name="Rcaron.sc" horiz-adv-x="523" 
d="M451 364q0 81 -51.5 122t-131.5 41h-195v-527h118v207h22q16 0 24.5 -7t18.5 -24l107 -176h136l-125 199q-12 17 -21 24q46 18 72 55.5t26 85.5zM334 364q0 -53 -66 -53h-77v104h77q66 0 66 -51zM436 734l-123 -152h-102l-123 152h114l59 -90l61 90h114z" />
    <glyph glyph-name="Rcommaaccent.sc" horiz-adv-x="523" 
d="M451 364q0 -48 -26 -85.5t-72 -55.5q9 -7 21 -24l125 -199h-136l-107 176q-10 17 -18.5 24t-24.5 7h-22v-207h-118v527h195q80 0 131.5 -41t51.5 -122zM334 364q0 51 -66 51h-77v-104h77q66 0 66 53zM324 -137v-55l-80 -128h-46v183q0 26 18.5 44t44.5 18t44.5 -18
t18.5 -44z" />
    <glyph glyph-name="Sacute.sc" horiz-adv-x="493" 
d="M447 164q0 -80 -59.5 -125.5t-138.5 -45.5q-166 0 -212 155l111 25q24 -67 101 -67q32 0 56.5 16t24.5 42q0 19 -20.5 32t-51.5 19t-67.5 17.5t-67.5 26t-51.5 45.5t-20.5 75q0 74 55.5 114t128.5 40q67 0 113.5 -27.5t81.5 -90.5l-104 -46q-32 52 -91 52
q-27 0 -46.5 -11.5t-19.5 -30.5q0 -15 20.5 -26t51.5 -17t67 -18.5t67 -28t51.5 -48t20.5 -77.5zM228 741h123l-124 -161h-84z" />
    <glyph glyph-name="Scedilla.sc" horiz-adv-x="493" 
d="M291 -3l24 -66l-69 -130h-107l97 135l-24 60q-135 14 -175 152l111 25q24 -67 101 -67q32 0 56.5 16t24.5 42q0 19 -20.5 32t-51.5 19t-67.5 17.5t-67.5 26t-51.5 45.5t-20.5 75q0 74 55.5 114t128.5 40q67 0 113.5 -27.5t81.5 -90.5l-104 -46q-32 52 -91 52
q-27 0 -46.5 -11.5t-19.5 -30.5q0 -15 20.5 -26t51.5 -17t67 -18.5t67 -28t51.5 -48t20.5 -77.5q0 -68 -45 -112t-111 -55z" />
    <glyph glyph-name="Scircumflex.sc" horiz-adv-x="493" 
d="M447 164q0 -80 -59.5 -125.5t-138.5 -45.5q-166 0 -212 155l111 25q24 -67 101 -67q32 0 56.5 16t24.5 42q0 19 -20.5 32t-51.5 19t-67.5 17.5t-67.5 26t-51.5 45.5t-20.5 75q0 74 55.5 114t128.5 40q67 0 113.5 -27.5t81.5 -90.5l-104 -46q-32 52 -91 52
q-27 0 -46.5 -11.5t-19.5 -30.5q0 -15 20.5 -26t51.5 -17t67 -18.5t67 -28t51.5 -48t20.5 -77.5zM298 735l123 -152h-114l-60 90l-60 -90h-114l123 152h102z" />
    <glyph glyph-name="Scaron.sc" horiz-adv-x="493" 
d="M447 164q0 45 -20.5 77.5t-51.5 48t-67 28t-67 18.5t-51.5 17t-20.5 26q0 19 19.5 30.5t46.5 11.5q59 0 91 -52l104 46q-35 63 -81.5 90.5t-113.5 27.5q-73 0 -128.5 -40t-55.5 -114q0 -44 20.5 -75t51.5 -45.5t67.5 -26t67.5 -17.5t51.5 -19t20.5 -32q0 -26 -24.5 -42
t-56.5 -16q-77 0 -101 67l-111 -25q46 -155 212 -155q79 0 138.5 45.5t59.5 125.5zM421 734l-123 -152h-102l-123 152h114l60 -90l60 90h114z" />
    <glyph glyph-name="Scommaaccent.sc" horiz-adv-x="493" 
d="M447 164q0 -80 -59.5 -125.5t-138.5 -45.5q-166 0 -212 155l111 25q24 -67 101 -67q32 0 56.5 16t24.5 42q0 19 -20.5 32t-51.5 19t-67.5 17.5t-67.5 26t-51.5 45.5t-20.5 75q0 74 55.5 114t128.5 40q67 0 113.5 -27.5t81.5 -90.5l-104 -46q-32 52 -91 52
q-27 0 -46.5 -11.5t-19.5 -30.5q0 -15 20.5 -26t51.5 -17t67 -18.5t67 -28t51.5 -48t20.5 -77.5zM310 -137v-55l-80 -128h-46v183q0 26 18.5 44t44.5 18t44.5 -18t18.5 -44z" />
    <glyph glyph-name="germandbls.sc" horiz-adv-x="985" 
d="M447 164q0 -80 -59.5 -125.5t-138.5 -45.5q-166 0 -212 155l111 25q24 -67 101 -67q32 0 56.5 16t24.5 42q0 19 -20.5 32t-51.5 19t-67.5 17.5t-67.5 26t-51.5 45.5t-20.5 75q0 74 55.5 114t128.5 40q67 0 113.5 -27.5t81.5 -90.5l-104 -46q-32 52 -91 52
q-27 0 -46.5 -11.5t-19.5 -30.5q0 -15 20.5 -26t51.5 -17t67 -18.5t67 -28t51.5 -48t20.5 -77.5zM939 164q0 -80 -59.5 -125.5t-138.5 -45.5q-167 0 -213 155l111 25q25 -67 102 -67q32 0 56.5 16t24.5 42q0 19 -20.5 32t-51.5 19t-67.5 17.5t-67.5 26t-51.5 45.5t-20.5 75
q0 74 55 114t128 40q68 0 114.5 -27.5t80.5 -90.5l-103 -46q-19 29 -39.5 40.5t-52.5 11.5q-27 0 -46.5 -11.5t-19.5 -30.5q0 -15 20.5 -26t51.5 -17t67.5 -18.5t67.5 -28t51.5 -48t20.5 -77.5z" />
    <glyph glyph-name="Tcaron.sc" horiz-adv-x="466" 
d="M436 411v116h-406v-116h144v-411h118v411h144zM407 734l-123 -152h-101l-123 152h114l59 -90l60 90h114z" />
    <glyph glyph-name="Tcommaaccent.sc" horiz-adv-x="466" 
d="M436 527v-116h-144v-411h-118v411h-144v116h406zM296 -137v-55l-80 -128h-46v183q0 26 18.5 44t44.5 18t44.5 -18t18.5 -44z" />
    <glyph glyph-name="Tbar.sc" horiz-adv-x="466" 
d="M383 281v-88h-91v-193h-118v193h-91v88h91v130h-144v116h406v-116h-144v-130h91z" />
    <glyph glyph-name="Uacute.sc" horiz-adv-x="543" 
d="M475 527v-305q0 -106 -49 -167t-154 -61t-154 61t-49 166v306h118v-301q0 -58 17.5 -87.5t67.5 -29.5q51 0 68 28.5t17 88.5v301h118zM253 741h123l-124 -161h-84z" />
    <glyph glyph-name="Ugrave.sc" horiz-adv-x="543" 
d="M475 527v-305q0 -106 -49 -167t-154 -61t-154 61t-49 166v306h118v-301q0 -58 17.5 -87.5t67.5 -29.5q51 0 68 28.5t17 88.5v301h118zM291 741l85 -161h-84l-124 161h123z" />
    <glyph glyph-name="Ucircumflex.sc" horiz-adv-x="543" 
d="M475 527v-305q0 -106 -49 -167t-154 -61t-154 61t-49 166v306h118v-301q0 -58 17.5 -87.5t67.5 -29.5q51 0 68 28.5t17 88.5v301h118zM322 735l123 -152h-114l-60 90l-60 -90h-113l122 152h102z" />
    <glyph glyph-name="Utilde.sc" horiz-adv-x="543" 
d="M475 527v-305q0 -106 -49 -167t-154 -61t-154 61t-49 166v306h118v-301q0 -58 17.5 -87.5t67.5 -29.5q51 0 68 28.5t17 88.5v301h118zM388 702l62 -51q-27 -35 -52 -52.5t-61 -17.5q-30 0 -66 23.5t-62 23.5q-29 0 -56 -38l-60 51q24 36 49.5 52.5t65.5 16.5
q32 0 67 -23.5t60 -23.5q32 0 53 39z" />
    <glyph glyph-name="Udieresis.sc" horiz-adv-x="543" 
d="M475 527v-305q0 -106 -49 -167t-154 -61t-154 61t-49 166v306h118v-301q0 -58 17.5 -87.5t67.5 -29.5q51 0 68 28.5t17 88.5v301h118zM440 650q0 -28 -19.5 -47.5t-47.5 -19.5t-48 19.5t-20 47.5t20 48t48 20t47.5 -20t19.5 -48zM238 650q0 -28 -19.5 -47.5t-47.5 -19.5
t-48 19.5t-20 47.5t19.5 48t48.5 20q28 0 47.5 -20t19.5 -48z" />
    <glyph glyph-name="Umacron.sc" horiz-adv-x="543" 
d="M475 527v-305q0 -106 -49 -167t-154 -61t-154 61t-49 166v306h118v-301q0 -58 17.5 -87.5t67.5 -29.5q51 0 68 28.5t17 88.5v301h118zM433 692v-80h-323v80h323z" />
    <glyph glyph-name="Ubreve.sc" horiz-adv-x="543" 
d="M475 527v-305q0 -106 -49 -167t-154 -61t-154 61t-49 166v306h118v-301q0 -58 17.5 -87.5t67.5 -29.5q51 0 68 28.5t17 88.5v301h118zM380 738h81q-60 -145 -189 -145q-128 0 -190 145h82q41 -71 108 -71t108 71z" />
    <glyph glyph-name="Uring.sc" horiz-adv-x="543" 
d="M475 527v-305q0 -106 -49 -167t-154 -61t-154 61t-49 166v306h118v-301q0 -58 17.5 -87.5t67.5 -29.5q51 0 68 28.5t17 88.5v301h118zM392 699q0 -50 -35 -85.5t-85 -35.5q-51 0 -86.5 35.5t-35.5 85.5t35.5 85t86.5 35q50 0 85 -35.5t35 -84.5zM316 699q0 18 -13.5 31
t-30.5 13q-19 0 -32 -13t-13 -31q0 -19 13 -31.5t32 -12.5q18 0 31 13t13 31z" />
    <glyph glyph-name="Uhungarumlaut.sc" horiz-adv-x="543" 
d="M475 527v-305q0 -106 -49 -167t-154 -61t-154 61t-49 166v306h118v-301q0 -58 17.5 -87.5t67.5 -29.5q51 0 68 28.5t17 88.5v301h118zM326 759h109l-119 -152h-62zM180 759h110l-120 -152h-62z" />
    <glyph glyph-name="Uogonek.sc" horiz-adv-x="543" 
d="M366 11l147 -210h-111l-115 193h-15q-105 0 -154 61t-49 166v306h118v-301q0 -58 17.5 -87.5t67.5 -29.5q51 0 68 28.5t17 88.5v301h118v-305q0 -164 -109 -211z" />
    <glyph glyph-name="Wacute.sc" horiz-adv-x="692" 
d="M540 527h121l-123 -527h-121l-71 292l-71 -292h-121l-122 527h120l68 -315l79 315h95l79 -315zM396 741h122l-124 -161h-84z" />
    <glyph glyph-name="Wgrave.sc" horiz-adv-x="692" 
d="M540 527h121l-123 -527h-121l-71 292l-71 -292h-121l-122 527h120l68 -315l79 315h95l79 -315zM297 741l85 -161h-83l-125 161h123z" />
    <glyph glyph-name="Wcircumflex.sc" horiz-adv-x="692" 
d="M540 527h121l-123 -527h-121l-71 292l-71 -292h-121l-122 527h120l68 -315l79 315h95l79 -315zM397 735l122 -152h-113l-61 90l-59 -90h-114l123 152h102z" />
    <glyph glyph-name="Wdieresis.sc" horiz-adv-x="692" 
d="M540 527h121l-123 -527h-121l-71 292l-71 -292h-121l-122 527h120l68 -315l79 315h95l79 -315zM515 650q0 -28 -19.5 -47.5t-47.5 -19.5t-48 19.5t-20 47.5t20 48t48 20t47.5 -20t19.5 -48zM312 650q0 -28 -19.5 -47.5t-47.5 -19.5t-47.5 19.5t-19.5 47.5t19.5 48
t47.5 20t47.5 -20t19.5 -48z" />
    <glyph glyph-name="Yacute.sc" horiz-adv-x="509" 
d="M356 527h131l-174 -352v-175h-118v176l-173 351h131l102 -222zM236 741h122l-123 -161h-85z" />
    <glyph glyph-name="Ygrave.sc" horiz-adv-x="509" 
d="M356 527h131l-174 -352v-175h-118v176l-173 351h131l102 -222zM274 741l84 -161h-83l-125 161h124z" />
    <glyph glyph-name="Ycircumflex.sc" horiz-adv-x="509" 
d="M356 527h131l-174 -352v-175h-118v176l-173 351h131l102 -222zM306 735l123 -152h-114l-61 90l-59 -90h-114l123 152h102z" />
    <glyph glyph-name="Ydieresis.sc" horiz-adv-x="509" 
d="M356 527h131l-174 -352v-175h-118v176l-173 351h131l102 -222zM423 650q0 -28 -19.5 -47.5t-47.5 -19.5t-48 19.5t-20 47.5t20 48t48 20t47.5 -20t19.5 -48zM221 650q0 -28 -20 -47.5t-47 -19.5q-28 0 -48 19.5t-20 47.5t20 48t48 20q27 0 47 -20t20 -48z" />
    <glyph glyph-name="Zacute.sc" horiz-adv-x="500" 
d="M440 116v-116h-390v85l222 326h-204v116h367v-86l-220 -325h225zM232 741h122l-124 -161h-84z" />
    <glyph glyph-name="Zcaron.sc" horiz-adv-x="500" 
d="M440 0v116h-225l220 325v86h-367v-116h204l-222 -326v-85h390zM424 734l-123 -152h-101l-123 152h114l59 -90l60 90h114z" />
    <glyph glyph-name="Zdotaccent.sc" horiz-adv-x="500" 
d="M440 116v-116h-390v85l222 326h-204v116h367v-86l-220 -325h225zM312 632q0 -25 -18 -43t-44 -18q-25 0 -43 18t-18 43t18 43t43 18q26 0 44 -18t18 -43z" />
    <glyph glyph-name="Thorn.sc" horiz-adv-x="513" 
d="M468 271q0 -82 -54 -122.5t-136 -40.5h-88v-108h-118v527h118v-93h88q85 0 137.5 -40t52.5 -123zM350 271q0 49 -72 49h-88v-98h88q35 0 53.5 10t18.5 39z" />
    </font>
</defs>
</svg>
