<?xml version="1.0" encoding="utf-8"?>
<!-- Generator: Adobe Illustrator 23.0.1, SVG Export Plug-In . SVG Version: 6.00 Build 0)  -->
<svg version="1.1" id="Capa_1" xmlns="http://www.w3.org/2000/svg" xmlns:xlink="http://www.w3.org/1999/xlink" x="0px" y="0px"
	 viewBox="0 0 512 503.984" style="enable-background:new 0 0 512 503.984;" xml:space="preserve">
<style type="text/css">
	.st0{fill:#EA098B;}
</style>
<path class="st0" d="M88.485,62.547h104.697v20.939H88.485V62.547z"/>
<path class="st0" d="M88.485,104.426h20.939v20.939H88.485V104.426z"/>
<path class="st0" d="M130.364,104.426h20.939v20.939h-20.939V104.426z"/>
<path class="st0" d="M46.606,282.409H25.668V31.138c0-17.347,14.062-31.409,31.409-31.409h272.21
	c2.777,0.001,5.439,1.104,7.402,3.067l83.757,83.757c1.964,1.963,3.067,4.626,3.067,7.402v104.698h-20.938V98.29l-77.622-77.622
	H57.076c-5.782,0-10.47,4.688-10.47,10.47V282.409z"/>
<path class="st0" d="M98.955,502.271H57.076c-17.347,0-31.409-14.062-31.409-31.409v-83.757h20.939v83.757
	c0,5.782,4.688,10.47,10.47,10.47h41.879V502.271z"/>
<path class="st0" d="M371.165,104.426h-20.939c-17.347,0-31.409-14.062-31.409-31.409V10.199h20.939v62.818
	c0,5.782,4.688,10.47,10.47,10.47h20.939V104.426z"/>
<path class="st0" d="M465.392,502.271H318.817c-11.564,0-20.939-9.375-20.939-20.939v-31.409c0-5.782,4.688-10.47,10.47-10.47
	h167.514c5.782,0,10.47,4.688,10.47,10.47v31.409C486.331,492.896,476.956,502.271,465.392,502.271z M318.817,460.393v20.939
	h146.574v-20.939H318.817z"/>
<path class="st0" d="M475.862,460.393H308.347c-5.782,0-10.47-4.688-10.47-10.47v-31.409c0-11.564,9.375-20.939,20.939-20.939
	h146.575c11.564,0,20.939,9.375,20.939,20.939v31.409C486.331,455.705,481.644,460.393,475.862,460.393z M318.817,439.453h146.574
	v-20.939H318.817V439.453z"/>
<path class="st0" d="M465.392,418.514H318.817c-11.564,0-20.939-9.375-20.939-20.939v-31.409c0-5.782,4.688-10.47,10.47-10.47
	h167.514c5.782,0,10.47,4.688,10.47,10.47v31.409C486.331,409.14,476.956,418.514,465.392,418.514z M318.817,376.635v20.939h146.574
	v-20.939H318.817z"/>
<path class="st0" d="M297.877,502.271H151.303c-11.564,0-20.939-9.375-20.939-20.939v-31.409c0-5.782,4.688-10.47,10.47-10.47
	h167.513c5.782,0,10.47,4.688,10.47,10.47v31.409C318.817,492.896,309.442,502.271,297.877,502.271z M151.303,460.393v20.939
	h146.574v-20.939H151.303z"/>
<path class="st0" d="M308.347,460.393H140.833c-5.782,0-10.47-4.688-10.47-10.47v-31.409c0-11.564,9.375-20.939,20.939-20.939
	h146.574c11.564,0,20.939,9.375,20.939,20.939v31.409C318.817,455.705,314.129,460.393,308.347,460.393z M151.303,439.453h146.574
	v-20.939H151.303V439.453z"/>
<path class="st0" d="M297.877,418.514H151.303c-11.564,0-20.939-9.375-20.939-20.939v-31.409c0-5.782,4.688-10.47,10.47-10.47
	h167.513c5.782,0,10.47,4.688,10.47,10.47v31.409C318.817,409.14,309.442,418.514,297.877,418.514z M151.303,376.635v20.939h146.574
	v-20.939H151.303z"/>
<path class="st0" d="M465.392,376.635H318.817c-11.564,0-20.939-9.375-20.939-20.939v-31.409c0-5.782,4.688-10.47,10.47-10.47
	h167.514c5.782,0,10.47,4.688,10.47,10.47v31.409C486.331,367.261,476.956,376.635,465.392,376.635z M318.817,334.758v20.939
	h146.574v-20.939H318.817z"/>
<path class="st0" d="M475.862,334.758H308.347c-5.782,0-10.47-4.688-10.47-10.47v-31.409c0-11.564,9.375-20.939,20.939-20.939
	h146.575c11.564,0,20.939,9.375,20.939,20.939v31.409C486.331,330.07,481.644,334.758,475.862,334.758z M318.817,313.818h146.574
	v-20.939H318.817V313.818z"/>
<path class="st0" d="M339.756,219.591h-20.939v-62.818H245.53v-20.939h83.757c5.782,0,10.47,4.688,10.47,10.47V219.591z"/>
<path class="st0" d="M43.539,352.629l-14.804-14.804l115.166-115.165c1.963-1.964,4.626-3.067,7.402-3.067h89.892l80.689-80.689
	l14.804,14.804l-83.757,83.757c-1.963,1.964-4.626,3.067-7.402,3.067h-89.893L43.539,352.629z"/>
</svg>
