<svg id="Layer_1" data-name="Layer 1" xmlns="http://www.w3.org/2000/svg" viewBox="0 0 131.907 131.907"><defs><style>.cls-1{fill:#fff;}</style></defs><title>arrow</title><path class="cls-1" d="M90.599,61.912a6.3383,6.3383,0,0,0,.551-.5951,3.654,3.654,0,0,0-2.2371-5.916,3.9465,3.9465,0,0,0-3.59,1.4524q-8.8785,8.9193-17.7855,17.81c-.4847.4861-.8922,1.0491-1.64,1.939A16.3024,16.3024,0,0,1,64.7283,75.28c-6.1132-6.1345-12.0268-12.398-18.1652-18.5074-1.8218-1.8132-3.9669-1.8982-5.5272-.3-1.4977,1.5339-1.3673,3.7137.3641,5.4454q10.8662,10.8684,21.7589,21.71a5.0521,5.0521,0,0,0,1.7105,1.1309c1.676.6337,2.9828-.1293,4.1445-1.29Q79.8036,72.6877,90.599,61.912Z" transform="translate(-0.0291 0)"/><path class="cls-1" d="M131.9361,65.9535A65.9535,65.9535,0,1,0,65.9826,131.907,65.9535,65.9535,0,0,0,131.9361,65.9535Zm-125.3531,0a59.4,59.4,0,1,1,59.4,59.4A59.4,59.4,0,0,1,6.583,65.9535Z" transform="translate(-0.0291 0)"/></svg>