<svg id="Layer_1" data-name="Layer 1" xmlns="http://www.w3.org/2000/svg" viewBox="0 0 349.6798 38.5529"><defs><style>.cls-1{fill:#8ce600;}</style></defs><title>chairman-b</title><path class="cls-1" d="M349.68,19.6514A19.2615,19.2615,0,0,0,331.1268.4116V.375H22.7534l.087.06C22.55.3958,22.387.3828,22.387.3828c-1.2667-.0778.0912.4516.0912.4516a18.5633,18.5633,0,0,1,6.7668,4.6433C20.1378,1.2337,14.3041.9586,12.81,1.6091c-.7283.3887.3171.6684,1.5164.9645,15.074,4.22,20.0493,15.7992,20.0493,15.7992C18.7172,3.7759,6.9645,4.899,5.8041,6.2105c-.311.4441.6446.7537,2.1819,1.286C24.2548,14.0211,28.765,25.57,28.765,25.57,13.0435,10.5143,1.6768,10.6968,1.6318,12.3029c0,.7448,1.7348,1.1769,2.77,1.6749C17.5822,19.9759,21.892,29.955,21.892,29.955a37.1575,37.1575,0,0,0-19-11.0348c-1.639-.3948-3.0641-.2961-2.8757.3963.2258.7193.975.8673,2.8174,2.1878a30.1651,30.1651,0,0,1,9.1879,9.3809A18.1651,18.1651,0,0,0,4.566,26.988c-2.8145-.5876-3.4276.2109-2.9341,1.5612A20.6614,20.6614,0,0,0,7.0244,35.7c.643.5623.9914.8135,1.47,1.1784,1.174.8509,2.4586,1.5118.6236-.2722a9.8,9.8,0,0,1-.9346-1.0483C7.3205,34.61,4.9951,31.28,5.517,30.7311c.483-.5234,4.28,1.2472,9.5065,6.375,1.0183.9945,1.7615,1.7167,2.7067,1.802,2.4779.2243,1.7272-3.272,1.7272-3.272-1.0647-4.5028-2.29-5.5825-2.29-5.5825a35.4278,35.4278,0,0,1,7.0316,6.4169c.7782.8643,1.8469,2.4,3.11,2.4363l-.0013.0211h303.819v-.0366A19.2615,19.2615,0,0,0,349.68,19.6514Z" transform="translate(0 -0.375)"/></svg>