<svg id="Layer_1" data-name="Layer 1" xmlns="http://www.w3.org/2000/svg" viewBox="0 0 299.6798 38.5529"><defs><style>.cls-1{fill:#8ce600;}</style></defs><title>ceo-b</title><path class="cls-1" d="M299.68,19.2764A19.2615,19.2615,0,0,0,281.1268.0366V0H22.7534l.087.06C22.55.0208,22.387.0078,22.387.0078c-1.2667-.0778.0912.4516.0912.4516a18.5633,18.5633,0,0,1,6.7668,4.6433C20.1378.8587,14.3041.5836,12.81,1.2341c-.7283.3887.3171.6684,1.5164.9645,15.074,4.22,20.0493,15.7992,20.0493,15.7992C18.7172,3.4009,6.9645,4.524,5.8041,5.8355c-.311.4441.6446.7537,2.1819,1.286,16.2688,6.5246,20.779,18.0738,20.779,18.0738C13.0435,10.1393,1.6768,10.3218,1.6318,11.9279c0,.7448,1.7348,1.1769,2.77,1.6749C17.5822,19.6009,21.892,29.58,21.892,29.58a37.1575,37.1575,0,0,0-19-11.0348c-1.639-.3948-3.0641-.2961-2.8757.3963.2258.7193.975.8673,2.8174,2.1878A30.1651,30.1651,0,0,1,12.0221,30.51,18.1651,18.1651,0,0,0,4.566,26.613c-2.8145-.5876-3.4276.2109-2.9341,1.5612a20.6614,20.6614,0,0,0,5.3926,7.1512c.643.5623.9914.8135,1.47,1.1784,1.174.8509,2.4586,1.5118.6236-.2722a9.8,9.8,0,0,1-.9346-1.0483c-.8629-.9481-3.1882-4.2784-2.6663-4.8273.483-.5234,4.28,1.2472,9.5065,6.375,1.0183.9945,1.7615,1.7167,2.7067,1.802,2.4779.2243,1.7272-3.272,1.7272-3.272-1.0647-4.5028-2.29-5.5825-2.29-5.5825a35.4278,35.4278,0,0,1,7.0316,6.4169c.7782.8643,1.8469,2.4,3.11,2.4363l-.0013.0211h253.819v-.0366A19.2615,19.2615,0,0,0,299.68,19.2764Z"/></svg>