<?xml version="1.0" encoding="utf-8"?>
<!-- Generator: Adobe Illustrator 23.0.1, SVG Export Plug-In . SVG Version: 6.00 Build 0)  -->
<svg version="1.1" id="Layer_1" xmlns="http://www.w3.org/2000/svg" xmlns:xlink="http://www.w3.org/1999/xlink" x="0px" y="0px"
	 viewBox="0 0 338.68 38.553" style="enable-background:new 0 0 338.68 38.553;" xml:space="preserve">
<style type="text/css">
	.st0{fill:#8CE600;}
</style>
<title>manage-b</title>
<path class="st0" d="M338.68,19.276c-0.005-10.359-8.201-18.859-18.553-19.24V0H22.753l0.087,0.06
	c-0.29-0.039-0.453-0.052-0.453-0.052c-1.267-0.078,0.091,0.452,0.091,0.452c2.574,1.024,4.886,2.61,6.767,4.643
	C20.138,0.859,14.304,0.584,12.81,1.234c-0.728,0.389,0.317,0.668,1.516,0.965C29.4,6.419,34.376,17.998,34.376,17.998
	C18.717,3.401,6.964,4.524,5.804,5.835C5.493,6.28,6.449,6.589,7.986,7.122c16.269,6.525,20.779,18.074,20.779,18.074
	C13.043,10.139,1.677,10.322,1.632,11.928c0,0.745,1.735,1.177,2.77,1.675c13.18,5.998,17.49,15.977,17.49,15.977
	c-5.076-5.509-11.699-9.356-19-11.035c-1.639-0.395-3.064-0.296-2.876,0.396c0.226,0.719,0.975,0.867,2.817,2.188
	c3.714,2.414,6.852,5.617,9.188,9.381c-2.146-1.865-4.7-3.199-7.456-3.897c-2.815-0.588-3.428,0.211-2.934,1.561
	c1.253,2.749,3.094,5.19,5.393,7.151c0.643,0.562,0.991,0.813,1.47,1.178c1.174,0.851,2.459,1.512,0.624-0.272
	c-0.336-0.327-0.649-0.677-0.935-1.048c-0.863-0.948-3.188-4.278-2.666-4.827c0.483-0.523,4.28,1.247,9.507,6.375
	c1.018,0.994,1.761,1.717,2.707,1.802c2.478,0.224,1.727-3.272,1.727-3.272c-1.065-4.503-2.29-5.583-2.29-5.583
	c2.622,1.813,4.987,3.971,7.032,6.417c0.778,0.864,1.847,2.4,3.11,2.436l-0.001,0.021h292.819v-0.037
	C330.479,38.135,338.675,29.635,338.68,19.276z"/>
</svg>
