<svg id="Layer_1" data-name="Layer 1" xmlns="http://www.w3.org/2000/svg" viewBox="0 0 131.907 131.907"><defs><style>.cls-1{fill:#8fe42c;}</style></defs><title>slide</title><path class="cls-1" d="M61.9411,41.3371a6.3383,6.3383,0,0,0-.5951-.551,3.654,3.654,0,0,0-5.916,2.2371,3.9465,3.9465,0,0,0,1.4524,3.59q8.9193,8.8785,17.81,17.7855c.4861.4847,1.0491.8922,1.939,1.64a16.3025,16.3025,0,0,1-1.3221,1.1682C69.1748,73.321,62.9114,79.2346,56.802,85.3729c-1.8132,1.8218-1.8982,3.9669-.3,5.5272,1.5339,1.4977,3.7137,1.3673,5.4454-.3641Q72.8157,79.67,83.6575,68.7771a5.0521,5.0521,0,0,0,1.1309-1.7105c.6337-1.676-.1293-2.9828-1.29-4.1445Q72.7168,52.1325,61.9411,41.3371Z" transform="translate(-0.0291 0)"/><path class="cls-1" d="M65.9826,0a65.9535,65.9535,0,1,0,65.9535,65.9536A65.9535,65.9535,0,0,0,65.9826,0Zm0,125.3531a59.4,59.4,0,1,1,59.4-59.4A59.4,59.4,0,0,1,65.9826,125.3531Z" transform="translate(-0.0291 0)"/></svg>