<svg id="Layer_1" data-name="Layer 1" xmlns="http://www.w3.org/2000/svg" viewBox="0 0 457.8059 223.2383"><defs><style>.cls-1{fill:#595a5c;}.cls-2{fill:#2b3f92;}.cls-3{fill:#a6cc46;}</style></defs><title>watermark</title><path class="cls-1" d="M156.1516,223.1875h-2.2944l-.9321-2.59h-3.36l-.9326,2.59h-2.2793l3.9668-10.3311h1.8354Zm-3.9077-4.44-1.0063-2.7676-.9917,2.7676Z" transform="translate(0 -0.0977)"/><path class="cls-1" d="M165.6672,223.1875H163.965l-3.7739-5.8906v5.8906h-2.1167V212.8564h1.7168l3.76,5.8906v-5.8906h2.1162Z" transform="translate(0 -0.0977)"/><path class="cls-1" d="M176.2043,223.1875h-1.7021l-3.7739-5.8906v5.8906h-2.1167V212.8564h1.7168l3.76,5.8906v-5.8906h2.1162Z" transform="translate(0 -0.0977)"/><path class="cls-1" d="M186.9343,218.9248c0,2.6494-1.14,4.3809-3.9517,4.3809-2.8271,0-3.9668-1.7314-3.9668-4.3809v-6.0684h2.1162v5.95c0,1.332.2666,2.4424,1.8354,2.4424,1.6431,0,1.85-1.0664,1.85-2.4424v-5.95h2.1167Z" transform="translate(0 -0.0977)"/><path class="cls-1" d="M198.0485,223.1875h-2.2944l-.9321-2.59h-3.36l-.9326,2.59H188.25l3.9668-10.3311h1.835Zm-3.9077-4.44-1.0063-2.7676-.9917,2.7676Z" transform="translate(0 -0.0977)"/><path class="cls-1" d="M206.4543,223.1875h-6.4829V212.8564h2.1016v8.2881h4.3813Z" transform="translate(0 -0.0977)"/><path class="cls-1" d="M219.7141,218.792a3.311,3.311,0,0,1,.4146.5469l2.457,3.8486h-2.457l-2.0723-3.4639c-.3105-.5322-.4438-.6953-1.0806-.6953h-.5176v4.1592h-2.1167V212.8564h3.7891c2.0127,0,3.5815.9619,3.5815,3.1377A2.9155,2.9155,0,0,1,219.7141,218.792Zm-1.5688-3.8936h-1.687v2.2646h1.687c.814,0,1.4507-.207,1.4507-1.1543C219.5959,215.0762,218.93,214.8984,218.1452,214.8984Z" transform="translate(0 -0.0977)"/><path class="cls-1" d="M231.6281,223.1875h-7.09V212.8564h7.09v2.0869H226.655v1.9385h4.3364v1.999H226.655v2.22h4.9731Z" transform="translate(0 -0.0977)"/><path class="cls-1" d="M238.4065,219.1621h-1.998v4.0254h-2.1172V212.8564h4.041c2.042,0,3.5225.9473,3.5225,3.1523C241.8547,218.2881,240.552,219.1621,238.4065,219.1621Zm-.1484-4.293h-1.85v2.2939h1.85c.8291,0,1.4795-.1621,1.4795-1.1543C239.7375,215.0615,239.0715,214.8691,238.258,214.8691Z" transform="translate(0 -0.0977)"/><path class="cls-1" d="M248.1,223.3057c-3.123,0-4.3223-2.53-4.3223-5.2842s1.1992-5.2832,4.3223-5.2832,4.3223,2.53,4.3223,5.2832S251.2229,223.3057,248.1,223.3057Zm0-8.48c-1.8652,0-2.19,1.7021-2.19,3.1963s.3252,3.1973,2.19,3.1973,2.19-1.7021,2.19-3.1973S249.98,214.8252,248.1,214.8252Z" transform="translate(0 -0.0977)"/><path class="cls-1" d="M260.3088,218.792a3.3368,3.3368,0,0,1,.4141.5469l2.457,3.8486h-2.457l-2.0723-3.4639c-.3105-.5322-.4443-.6953-1.08-.6953h-.5186v4.1592h-2.1162V212.8564h3.7891c2.0127,0,3.582.9619,3.582,3.1377A2.9167,2.9167,0,0,1,260.3088,218.792Zm-1.5693-3.8936H257.052v2.2646h1.6875c.8145,0,1.45-.207,1.45-1.1543C260.19,215.0762,259.5236,214.8984,258.7395,214.8984Z" transform="translate(0 -0.0977)"/><path class="cls-1" d="M272.1486,214.9434h-2.9v8.2441h-2.1172v-8.2441h-2.9v-2.0869h7.918Z" transform="translate(0 -0.0977)"/><path class="cls-1" d="M286.2668,223.1875h-6.542V221.87c0-3.5518,4.3066-4.6768,4.3066-6.0684a1.1261,1.1261,0,0,0-1.2285-1.0508c-.71,0-1.2139.666-1.4795,1.2285l-1.7764-1.0508a3.42,3.42,0,0,1,3.2412-2.2051,3.0408,3.0408,0,0,1,3.3447,3.0781c0,2.7529-3.5078,3.2559-4.0254,5.3877h4.1592Z" transform="translate(0 -0.0977)"/><path class="cls-1" d="M292.467,223.3057c-2.8564,0-3.833-2.9-3.833-5.2842,0-2.3975.9766-5.3135,3.833-5.3135,2.8418,0,3.8037,2.8867,3.8037,5.2842C296.2707,220.375,295.3088,223.3057,292.467,223.3057Zm0-8.5547c-1.51,0-1.7168,2.1611-1.7168,3.2705,0,1.0957.207,3.2568,1.7168,3.2568s1.6729-2.1611,1.6729-3.2568S293.9475,214.751,292.467,214.751Z" transform="translate(0 -0.0977)"/><path class="cls-1" d="M302.4719,223.1875h-2.0273v-7.6816l-1.3027.7256-.9473-1.5986,2.7676-1.7764h1.51Z" transform="translate(0 -0.0977)"/><path class="cls-1" d="M308.9094,223.3359a3.28,3.28,0,0,1-3.4932-3.375,3.1058,3.1058,0,0,1,1.4063-2.4863,2.4409,2.4409,0,0,1-1.0068-1.8945,3.11,3.11,0,0,1,6.2021,0,2.3963,2.3963,0,0,1-1.0068,1.8945,3.0519,3.0519,0,0,1,1.4355,2.4717A3.3109,3.3109,0,0,1,308.9094,223.3359Zm0-4.8994a1.4415,1.4415,0,0,0-1.3916,1.45,1.42,1.42,0,0,0,1.4063,1.377,1.3576,1.3576,0,0,0,1.4063-1.3916A1.4342,1.4342,0,0,0,308.9094,218.4365Zm0-3.8184a1.0481,1.0481,0,0,0-1.08,1.0352,1.0807,1.0807,0,0,0,2.1611,0A1.04,1.04,0,0,0,308.9094,214.6182Z" transform="translate(0 -0.0977)"/><path class="cls-2" d="M64.9089,25.1543c-4.8667,0-8.0894-2.3018-9.2729-6.9707l4.439-.8882c.6577,2.3677,2.3677,3.3872,4.834,3.3872,1.71,0,3.9131-.8882,3.9131-2.894,0-4.1431-12.4624-1.2822-12.4624-9.5688,0-4.439,3.9785-6.6094,7.9243-6.6094,4.1763,0,6.7739,1.5786,8.5825,5.2612L68.822,8.7461a4.5549,4.5549,0,0,0-4.5381-2.7622c-1.2822,0-3.2222.5918-3.2222,2.2358,0,3.4858,12.4624,1.1841,12.4624,9.5688C73.5241,22.5239,69.2492,25.1543,64.9089,25.1543Z" transform="translate(0 -0.0977)"/><path class="cls-2" d="M95.5583,24.8257H90.8562V15.2568h-8.188v9.5688H77.966V1.8735h4.7021v8.9443h8.188V1.8735h4.7021Z" transform="translate(0 -0.0977)"/><path class="cls-2" d="M120.6184,24.8257h-5.0972L113.45,19.0713h-7.4644l-2.0718,5.7544H98.85l8.8125-22.9521H111.74Zm-8.6812-9.8647L109.7009,8.812l-2.2031,6.1489Z" transform="translate(0 -0.0977)"/><path class="cls-2" d="M133.051,15.8818h-4.4395v8.9438h-4.7021V1.8735h8.9771c4.5376,0,7.8262,2.1045,7.8262,7.0039C140.7126,13.9414,137.8186,15.8818,133.051,15.8818Zm-.3291-9.5361h-4.11v5.0967h4.11c1.8413,0,3.2886-.3618,3.2886-2.5649C136.01,6.7729,134.53,6.3457,132.7219,6.3457Z" transform="translate(0 -0.0977)"/><path class="cls-2" d="M150.0212,24.8257h-4.7021V1.8735h4.7021Z" transform="translate(0 -0.0977)"/><path class="cls-2" d="M172.4812,24.8257H168.7l-8.3853-13.0874V24.8257h-4.7021V1.8735h3.8145l8.3521,13.0874V1.8735h4.7021Z" transform="translate(0 -0.0977)"/><path class="cls-2" d="M194.9768,11.9688V24.8257H191.03V23.1484a5.2558,5.2558,0,0,1-4.5049,1.94c-6.8066,0-9.437-5.7217-9.437-11.7393,0-6.1162,2.6963-11.7393,9.5688-11.7393,3.7158,0,5.7871,1.48,7.9575,4.3735l-3.2881,2.9922c-1.25-1.6768-2.4663-2.729-4.6694-2.729-4.11,0-4.8667,3.7812-4.8667,7.1025s.7891,7.1025,4.8994,7.1025c2.6309,0,3.65-2.1372,3.65-4.4717h-4.0771V11.9688Z" transform="translate(0 -0.0977)"/><path class="cls-2" d="M236.94,1.8735l-5.36,22.9521h-5.1626l-3.5513-13.8437-3.5518,13.8438h-5.1626l-5.36-22.9521h4.8013l3.3208,15.2246,4.0776-15.2246h3.7485l4.0771,15.2246,3.3213-15.2246Z" transform="translate(0 -0.0977)"/><path class="cls-2" d="M258.1525,24.8257H253.45V15.2568h-8.1875v9.5688h-4.7021V1.8735h4.7021v8.9443H253.45V1.8735h4.7021Z" transform="translate(0 -0.0977)"/><path class="cls-2" d="M283.2131,24.8257h-5.0967l-2.0723-5.7544H268.58l-2.0723,5.7544h-5.0635L270.257,1.8735h4.0771Zm-8.6816-9.8647L272.2961,8.812l-2.2031,6.1489Z" transform="translate(0 -0.0977)"/><path class="cls-2" d="M300.1828,6.51h-6.4453V24.8257h-4.7021V6.51H282.59V1.8735h17.5928Z" transform="translate(0 -0.0977)"/><path class="cls-2" d="M308.6037,3.978l-2.5322,3.979H304.46l.1641-5.7876A2.1065,2.1065,0,0,1,306.6965.0977a2.0223,2.0223,0,0,1,2.0713,2.0718Z" transform="translate(0 -0.0977)"/><path class="cls-2" d="M322.58,25.1543c-4.8662,0-8.0889-2.3018-9.2725-6.9707l4.4385-.8882c.6582,2.3677,2.3682,3.3872,4.834,3.3872,1.71,0,3.9131-.8882,3.9131-2.894,0-4.1431-12.4629-1.2822-12.4629-9.5688,0-4.439,3.9795-6.6094,7.9248-6.6094,4.1768,0,6.7744,1.5786,8.583,5.2612l-4.0449,1.8745a4.5558,4.5558,0,0,0-4.5381-2.7622c-1.2822,0-3.2227.5918-3.2227,2.2358,0,3.4858,12.4629,1.1841,12.4629,9.5688C331.1955,22.5239,326.9211,25.1543,322.58,25.1543Z" transform="translate(0 -0.0977)"/><path class="cls-3" d="M159.6148,91.4322c-3.3381,0-7.9819,4.2918-11.0091,16.337-2.61,10.3794-2.0012,25.18-1.2662,34.1934a122.2492,122.2492,0,0,0,15.2961-27.0371c4.8082-11.5387,4.05-17.2332,2.5669-19.9776a6.9026,6.9026,0,0,0-4.9792-3.4615,3.3223,3.3223,0,0,0-.6084-.0542m116.4227,16.2564c2.8382,5.2949,10.5948,19.7245,17.2414,31.7236,1.0277,1.8581,1.9947,3.6719,2.9237,5.4215,6.1648,11.5962,9.7644,17.6476,17.9765,17.6476a21.5247,21.5247,0,0,0,3.8265-.3749c12.3592-2.2561,23.3421-19.6735,25.9534-24.0985-5.466-32.1856.939-63.0919,4.328-76.0759-42.4466,14.418-66.3626,39.0986-72.2494,45.7567M151.1545,160.3173c1.406,4.2425,5.6764,14.3752,14.7239,15.7927a18.792,18.792,0,0,0,2.9007.23c10.33,0,18.3843-9.2924,26.4056-19.6455,1.9617-2.5307,4.7243-6.2092,7.9227-10.4682,13.2357-17.6245,25.6459-33.92,32.3056-40.2628C232.53,100.0357,224.15,84.24,214.0047,77.968c-4.81-2.9747-9.401-4.4826-13.6435-4.4826A15.8864,15.8864,0,0,0,189.9439,77.22c-.5278.4473-1.0113.906-1.4783,1.35-1.4125,1.3451-2.8711,2.7346-4.9595,2.8365a24.64,24.64,0,0,1,2.8843,6.4723c2.12,7.35,5.7406,34.0931-35.236,72.4386M23.5467,198.0017c-5.8738,0-10.8711-5.1617-16.71-17.2578C.4019,167.4145-1.2655,160.5146.8936,156.1389a7.71,7.71,0,0,1,5.4889-4.0962,17.325,17.325,0,0,1,5.2917-.8058,17.0844,17.0844,0,0,1,9.0161,2.5291,148.1532,148.1532,0,0,1,10.6951-23.96C42.5936,109.91,56.5759,98.064,71.821,95.5449a52.6817,52.6817,0,0,1,8.5048-.7515c8.2992,0,14.7123,2.5028,19.0634,7.4359,8.5887,9.7381,6.5151,26.1934,5.4,35.0337l-.03.2318c-.2812,2.23-.638,4.7572-1.0163,7.431-1.0919,7.7352-3.31,23.4391-2.021,27.4136.1793.0115.4.0181.6693.0181,5.65,0,17.4831-2.9566,20.5384-5.3706-.2877-.5394-.6725-1.2069-1.07-1.896-4.3609-7.5543-13.4363-23.2714-5.8787-52.2225,6.8226-26.1408,23.4408-41.1327,45.5923-41.1327a49.4537,49.4537,0,0,1,8.8665.8156,19.3335,19.3335,0,0,1,7.8733,3.3183c.2253-2.6639,2.3548-5.5744,6.5891-9.0441,9.988-8.189,21.1353-12.341,33.1311-12.341a53.89,53.89,0,0,1,9.6559.8912c16.8319,3.0684,28.8788,19.999,33.5488,27.6635,10.5569-8.4308,45.5281-33.6244,93.7646-40.2513,2.5192-5.0022,10.1952-19.5073,17.12-24.9338,5.5712-4.3675,10.8331-8.4933,16.8368-8.4933a14.716,14.716,0,0,1,5.2571,1.0031,8.1069,8.1069,0,0,1,5.2735,5.4972c1.2547,4.4842-1.0984,10.5734-6.9952,18.0981-1.9371,2.4716-3.4894,4.6027-4.6947,6.3408.9619-.0148,2.0127-.0247,3.1457-.0247a201.0855,201.0855,0,0,1,25.8218,1.6461c11.9646,1.5852,32.5589,5.51,36.0565,13.9773,1.3123,3.1819,1.4141,5.9164.301,8.1249a7.4918,7.4918,0,0,1-5.16,3.8445,11.4161,11.4161,0,0,1-2.7462.3552c-2.1361,0-7.163-.7975-8.6758-8.0179-2.85-2.0868-17.8843-5.0467-35.78-5.0467-8.0559,0-14.8094.65-19.3084,1.8417-2.7051,8.411-14.3144,47.7957-8.6889,87.6755,2.233,15.8387,6.1286,24.9224,10.6852,24.9224,4.2179-.0017,10.0719-6.3424,13.5711-10.1311.6824-.74,1.3237-1.4339,1.9141-2.0489,6.8111-7.1087,12.1964-10.4188,16.9471-10.4188a9.0665,9.0665,0,0,1,5.8935,2.113,6.9374,6.9374,0,0,1,2.3235,5.8294c-.1315,6.9047-6.4887,17.2677-14.1746,23.1-5.3163,4.0353-15.911,8.3781-26.6095,8.3781-20.01,0-29.64-14.1532-34.2033-26.154-5.4314,7.7484-16.064,19.7212-31.0279,21.9312a60.6925,60.6925,0,0,1-8.9422.6939c-14.2832,0-35.6585-5.06-58.2541-47.7777-7.5494,7.699-26.274,26.0553-42.9021,36.3656l-2.1739,1.3517c-12.2162,7.61-24.85,15.48-40.3615,15.48-10.9549,0-22.0447-3.9367-33.8415-12.02-5.8409,3.4861-23.3619,12.92-42.9087,13.6188-.5229.0181-1.031.0263-1.5276.0263-7.5083,0-13.0844-2.12-16.5755-6.3029-5.88-7.0462-3.9925-17.4207-2.8645-23.62l.1053-.58c4.1455-22.9458,1.8779-30.4409.1578-32.8664a2.6438,2.6438,0,0,0-1.83-1.2481,3.4009,3.4009,0,0,0-.5344-.0394c-2.4386,0-7.1449,2.1328-13.0367,8.1183-8.2959,8.4275-16.5787,22.5446-16.3814,35.0847.3371,21.4511.1151,24.3271-6.77,27.8527l-.1151.0576a12.6349,12.6349,0,0,1-5.7817,1.61" transform="translate(0 -0.0977)"/><path class="cls-3" d="M448.0055,151.4078a9.9171,9.9171,0,1,0-9.8006-9.9173,9.8588,9.8588,0,0,0,9.8006,9.9173" transform="translate(0 -0.0977)"/></svg>