<?xml version="1.0" encoding="utf-8"?>
<!-- Generator: Adobe Illustrator 23.0.1, SVG Export Plug-In . SVG Version: 6.00 Build 0)  -->
<svg version="1.1" xmlns="http://www.w3.org/2000/svg" xmlns:xlink="http://www.w3.org/1999/xlink" x="0px" y="0px"
	 viewBox="0 0 503 501.499" style="enable-background:new 0 0 503 501.499;" xml:space="preserve">
<style type="text/css">
	.st0{fill:#EA098B;stroke:#EA098B;stroke-width:3;stroke-miterlimit:10;}
	.st1{display:none;}
	.st2{display:inline;fill:#EA098B;}
</style>
<g id="Capa_1">
	<path class="st0" d="M93.513,235.488v-8.086c0-4.078-3.306-7.383-7.383-7.383c-4.077,0-7.383,3.305-7.383,7.383v8.44
		c-11.65,2.259-20.475,12.532-20.475,24.831c0,13.949,11.349,25.297,25.297,25.297h5.118c5.808,0,10.533,4.724,10.533,10.533
		c0,5.808-4.724,10.533-10.533,10.533H81.01c-4.396,0-7.973-3.577-7.973-7.974c0-4.078-3.306-7.383-7.383-7.383
		c-4.077,0-7.383,3.305-7.383,7.383c0,11.773,8.995,21.486,20.475,22.625v8.086c0,4.078,3.306,7.383,7.383,7.383
		c4.077,0,7.383-3.305,7.383-7.383v-8.44c11.65-2.26,20.475-12.532,20.475-24.831c0-13.949-11.349-25.297-25.297-25.297h-5.118
		c-5.808,0-10.533-4.724-10.533-10.533c0-5.808,4.724-10.533,10.533-10.533h7.678c4.396,0,7.973,3.577,7.973,7.974v5.118
		c0,4.078,3.306,7.383,7.383,7.383c4.077,0,7.383-3.305,7.383-7.383v-5.118C113.987,246.34,104.991,236.629,93.513,235.488z"/>
	<path class="st0" d="M258.883,43.495v-8.086c0-4.078-3.305-7.383-7.383-7.383c-4.077,0-7.383,3.305-7.383,7.383v8.44
		c-11.65,2.259-20.475,12.532-20.475,24.831c0,13.949,11.349,25.297,25.297,25.297h5.118c5.808,0,10.533,4.724,10.533,10.533
		s-4.724,10.533-10.533,10.533h-7.678c-4.396,0-7.973-3.577-7.973-7.974c0-4.078-3.306-7.383-7.383-7.383s-7.383,3.305-7.383,7.383
		c0,11.773,8.995,21.486,20.475,22.625v8.086c0,4.078,3.306,7.383,7.383,7.383c4.078,0,7.383-3.305,7.383-7.383v-8.44
		c11.649-2.259,20.475-12.532,20.475-24.831c0-13.949-11.349-25.297-25.297-25.297h-5.118c-5.808,0-10.533-4.724-10.533-10.533
		c0-5.808,4.724-10.533,10.533-10.533h7.678c4.396,0,7.973,3.577,7.973,7.974v5.118c0,4.078,3.305,7.383,7.383,7.383
		s7.383-3.305,7.383-7.383V66.12C279.356,54.346,270.361,44.635,258.883,43.495z"/>
	<path class="st0" d="M416.87,145.21c-21.34,0-40.89,7.805-55.953,20.706l-36.547-33.456c8.395-13.289,13.26-29.019,13.26-45.865
		c0-47.492-38.638-86.13-86.13-86.13s-86.13,38.638-86.13,86.13c0,24.919,10.641,47.395,27.613,63.137l-60.185,56.498
		c-13.456-8.708-29.481-13.771-46.668-13.771c-47.492,0-86.13,38.638-86.13,86.13s38.638,86.13,86.13,86.13
		s86.13-38.638,86.13-86.13c0-24.919-10.641-47.395-27.613-63.137l60.185-56.498c13.456,8.708,29.481,13.771,46.668,13.771
		c25.344,0,48.165-11.006,63.94-28.486l35.085,32.237c-12.352,14.91-19.785,34.035-19.785,54.864c0,47.492,38.638,86.13,86.13,86.13
		S503,278.832,503,231.34S464.362,145.21,416.87,145.21z M157.495,278.588c0,39.351-32.014,71.365-71.365,71.365
		s-71.365-32.014-71.365-71.365s32.014-71.365,71.365-71.365S157.495,239.237,157.495,278.588z M251.5,157.959
		c-39.351,0-71.365-32.014-71.365-71.365s32.014-71.365,71.365-71.365s71.365,32.014,71.365,71.365S290.851,157.959,251.5,157.959z
		 M368.667,178.768c12.708-11.66,29.636-18.793,48.202-18.793c39.351,0,71.365,32.014,71.365,71.365s-32.014,71.365-71.365,71.365
		s-71.365-32.014-71.365-71.365c0-18.568,7.132-35.498,18.796-48.205C364.3,183.134,367.021,180.231,368.667,178.768z"/>
	<path class="st0" d="M424.252,188.24v-8.086c0-4.078-3.305-7.383-7.383-7.383s-7.383,3.305-7.383,7.383v8.44
		c-11.649,2.259-20.475,12.532-20.475,24.831c0,13.949,11.349,25.297,25.297,25.297h5.117c5.808,0,10.533,4.724,10.533,10.533
		c0,5.807-4.724,10.533-10.533,10.533h-7.678c-4.396,0-7.973-3.577-7.973-7.974c0-4.078-3.305-7.383-7.383-7.383
		s-7.383,3.305-7.383,7.383c0,11.773,8.995,21.486,20.475,22.625v8.086c0,4.078,3.305,7.383,7.383,7.383s7.383-3.305,7.383-7.383
		v-8.44c11.649-2.26,20.475-12.532,20.475-24.831c0-13.949-11.349-25.297-25.297-25.297h-5.117c-5.808,0-10.533-4.724-10.533-10.533
		c0-5.808,4.724-10.533,10.533-10.533h7.678c4.396,0,7.973,3.577,7.973,7.974v5.118c0,4.078,3.305,7.383,7.383,7.383
		c4.078,0,7.383-3.305,7.383-7.383v-5.118C444.726,199.092,435.73,189.38,424.252,188.24z"/>
	<path class="st0" d="M159.812,389.767H95.687c-4.15,0-7.515,3.364-7.515,7.515v96.188c0,4.151,3.365,7.515,7.515,7.515h64.125
		c4.15,0,7.515-3.364,7.515-7.515v-96.188C167.327,393.131,163.962,389.767,159.812,389.767z M152.297,485.955h-49.095v-81.159
		h49.096v81.159H152.297z"/>
	<path class="st0" d="M472.423,389.767h-64.125c-4.151,0-7.515,3.364-7.515,7.515v96.188c0,4.151,3.364,7.515,7.515,7.515h64.125
		c4.151,0,7.515-3.364,7.515-7.515v-96.188C479.937,393.131,476.574,389.767,472.423,389.767z M464.908,485.955h-49.096v-81.159
		h49.096V485.955z"/>
	<path class="st0" d="M264.016,293.579H199.89c-4.15,0-7.515,3.364-7.515,7.515V493.47c0,4.151,3.365,7.515,7.515,7.515h64.125
		c4.151,0,7.515-3.364,7.515-7.515v-44.585c0-4.151-3.364-7.515-7.515-7.515s-7.515,3.364-7.515,7.515v37.07h-49.096V308.609H256.5
		v105.208c0,4.151,3.364,7.515,7.515,7.515s7.515-3.364,7.515-7.515V301.094C271.53,296.943,268.167,293.579,264.016,293.579z"/>
	<path class="st0" d="M368.219,341.673h-64.125c-4.151,0-7.515,3.364-7.515,7.515V493.47c0,4.151,3.364,7.515,7.515,7.515h64.125
		c4.151,0,7.515-3.364,7.515-7.515V349.188C375.734,345.037,372.37,341.673,368.219,341.673z M360.704,485.955h-49.096V356.703
		h49.096V485.955z"/>
</g>
<g id="Layer_2" class="st1">
	<path class="st2" d="M496.195,204.172h-62.75c-5.415,0-9.805,4.391-9.805,9.805v49.514c0,5.414,4.39,9.805,9.805,9.805
		s9.805-4.391,9.805-9.805v-39.709h43.141v258.109h-21.57h-21.57V337.025c0-5.414-4.39-9.805-9.805-9.805s-9.805,4.391-9.805,9.805
		V481.89h-19.609V278.934c0-5.414-4.39-9.805-9.805-9.805h-62.75c-5.415,0-9.805,4.391-9.805,9.805v202.957h-19.609V347.566
		c0-5.414-4.39-9.805-9.805-9.805h-62.75c-5.415,0-9.805,4.391-9.805,9.805V481.89h-19.609v-78.07c0-5.414-4.39-9.805-9.805-9.805
		h-62.75c-5.415,0-9.805,4.391-9.805,9.805v78.07h-84.32c-5.406,0-9.805-4.398-9.805-9.805V28.914c0-5.406,4.398-9.805,9.805-9.805
		H286.35v64.714c0,16.219,13.195,29.414,29.414,29.414h64.711v120.595c0,5.414,4.39,9.805,9.805,9.805s9.805-4.391,9.805-9.805
		V103.433c0-2.6-1.033-5.094-2.872-6.933L303.088,2.372c-1.839-1.838-4.333-2.872-6.933-2.872H33.414C17.195-0.5,4,12.695,4,28.914
		v443.172C4,488.305,17.195,501.5,33.414,501.5h462.781c5.415,0,9.805-4.391,9.805-9.805V213.977
		C506,208.562,501.61,204.172,496.195,204.172z M305.96,83.823V32.976l60.651,60.652h-50.846
		C310.357,93.628,305.96,89.23,305.96,83.823z M137.344,481.891v-68.265h43.141v68.265H137.344z M239.312,481.891v-124.52h43.141
		v124.52H239.312z M341.281,481.891V288.738h43.141V481.89L341.281,481.891L341.281,481.891z"/>
	<path class="st2" d="M433.445,308.24c2.579,0,5.108-1.049,6.932-2.873c1.824-1.824,2.873-4.353,2.873-6.932
		s-1.049-5.108-2.873-6.932c-1.824-1.832-4.353-2.873-6.932-2.873s-5.108,1.04-6.932,2.873c-1.824,1.824-2.873,4.353-2.873,6.932
		s1.049,5.108,2.873,6.932C428.337,307.19,430.867,308.24,433.445,308.24z"/>
	<path class="st2" d="M146.734,53.16c-5.415,0-9.805,4.391-9.805,9.805v17.638c-45.132,4.899-80.374,43.236-80.374,89.649
		c0,49.724,40.454,90.179,90.179,90.179c46.413,0,84.75-35.241,89.649-80.374h17.637c5.415,0,9.805-4.391,9.805-9.805
		C263.824,105.687,211.298,53.16,146.734,53.16z M146.734,240.82c-38.912,0-70.569-31.657-70.569-70.569
		c0-35.584,26.478-65.102,60.765-69.89v69.89c0,5.414,4.39,9.805,9.805,9.805h69.89C211.836,214.342,182.318,240.82,146.734,240.82z
		 M156.538,160.446V73.259c45.937,4.61,82.577,41.251,87.187,87.188L156.538,160.446L156.538,160.446z"/>
	<path class="st2" d="M263.824,297.808c0-5.414-4.39-9.805-9.805-9.805H66.75c-5.415,0-9.805,4.391-9.805,9.805
		s4.39,9.805,9.805,9.805h187.27C259.435,307.612,263.824,303.222,263.824,297.808z"/>
	<path class="st2" d="M66.75,335.311c-5.415,0-9.805,4.391-9.805,9.805s4.39,9.805,9.805,9.805h62.75
		c5.415,0,9.805-4.391,9.805-9.805s-4.39-9.805-9.805-9.805H66.75z"/>
	<path class="st2" d="M171.67,338.183c-1.833,1.824-2.873,4.353-2.873,6.932s1.039,5.108,2.873,6.931
		c1.824,1.824,4.343,2.874,6.932,2.874c2.579,0,5.108-1.049,6.932-2.874c1.824-1.823,2.873-4.352,2.873-6.931
		s-1.049-5.108-2.873-6.932s-4.353-2.873-6.932-2.873C176.013,335.311,173.494,336.359,171.67,338.183z"/>
</g>
</svg>
