<?xml version="1.0" encoding="utf-8"?>
<!-- Generator: Adobe Illustrator 23.0.1, SVG Export Plug-In . SVG Version: 6.00 Build 0)  -->
<svg version="1.1" id="Capa_1" xmlns="http://www.w3.org/2000/svg" xmlns:xlink="http://www.w3.org/1999/xlink" x="0px" y="0px"
	 viewBox="0 0 512 503.984" style="enable-background:new 0 0 512 503.984;" xml:space="preserve">
<style type="text/css">
	.st0{fill:#EA098B;}
</style>
<path class="st0" d="M497.195,205.172h-62.75c-5.415,0-9.805,4.391-9.805,9.805v49.514c0,5.414,4.39,9.805,9.805,9.805
	s9.805-4.391,9.805-9.805v-39.709h43.141v258.109h-21.57h-21.57V338.025c0-5.414-4.39-9.805-9.805-9.805s-9.805,4.391-9.805,9.805
	v144.865h-19.609V279.934c0-5.414-4.39-9.805-9.805-9.805h-62.75c-5.415,0-9.805,4.391-9.805,9.805v202.957h-19.609V348.566
	c0-5.414-4.39-9.805-9.805-9.805h-62.75c-5.415,0-9.805,4.391-9.805,9.805v134.324h-19.609v-78.07c0-5.414-4.39-9.805-9.805-9.805
	h-62.75c-5.415,0-9.805,4.391-9.805,9.805v78.07h-84.32c-5.406,0-9.805-4.398-9.805-9.805V29.914c0-5.406,4.398-9.805,9.805-9.805
	H287.35v64.714c0,16.219,13.195,29.414,29.414,29.414h64.711v120.595c0,5.414,4.39,9.805,9.805,9.805s9.805-4.391,9.805-9.805
	V104.433c0-2.6-1.033-5.094-2.872-6.933L304.088,3.372c-1.839-1.838-4.333-2.872-6.933-2.872H34.414C18.195,0.5,5,13.695,5,29.914
	v443.172C5,489.305,18.195,502.5,34.414,502.5h462.781c5.415,0,9.805-4.391,9.805-9.805V214.977
	C507,209.562,502.61,205.172,497.195,205.172z M306.96,84.823V33.976l60.651,60.652h-50.846
	C311.357,94.628,306.96,90.23,306.96,84.823z M138.344,482.891v-68.265h43.141v68.265H138.344z M240.312,482.891v-124.52h43.141
	v124.52H240.312z M342.281,482.891V289.738h43.141v193.152H342.281z"/>
<path class="st0" d="M434.445,309.24c2.579,0,5.108-1.049,6.932-2.873c1.824-1.824,2.873-4.353,2.873-6.932
	c0-2.579-1.049-5.108-2.873-6.932c-1.824-1.832-4.353-2.873-6.932-2.873s-5.108,1.04-6.932,2.873
	c-1.824,1.824-2.873,4.353-2.873,6.932c0,2.579,1.049,5.108,2.873,6.932C429.337,308.19,431.867,309.24,434.445,309.24z"/>
<path class="st0" d="M147.734,54.16c-5.415,0-9.805,4.391-9.805,9.805v17.638c-45.132,4.899-80.374,43.236-80.374,89.649
	c0,49.724,40.454,90.179,90.179,90.179c46.413,0,84.75-35.241,89.649-80.374h17.637c5.415,0,9.805-4.391,9.805-9.805
	C264.824,106.687,212.298,54.16,147.734,54.16z M147.734,241.82c-38.912,0-70.569-31.657-70.569-70.569
	c0-35.584,26.478-65.102,60.765-69.89v69.89c0,5.414,4.39,9.805,9.805,9.805h69.89C212.836,215.342,183.318,241.82,147.734,241.82z
	 M157.538,161.446V74.259c45.937,4.61,82.577,41.251,87.187,87.188L157.538,161.446L157.538,161.446z"/>
<path class="st0" d="M264.824,298.808c0-5.414-4.39-9.805-9.805-9.805H67.75c-5.415,0-9.805,4.391-9.805,9.805
	s4.39,9.805,9.805,9.805h187.27C260.435,308.612,264.824,304.222,264.824,298.808z"/>
<path class="st0" d="M67.75,336.311c-5.415,0-9.805,4.391-9.805,9.805s4.39,9.805,9.805,9.805h62.75
	c5.415,0,9.805-4.391,9.805-9.805s-4.39-9.805-9.805-9.805H67.75z"/>
<path class="st0" d="M172.67,339.183c-1.833,1.824-2.873,4.353-2.873,6.932s1.039,5.108,2.873,6.931
	c1.824,1.824,4.343,2.874,6.932,2.874c2.579,0,5.108-1.049,6.932-2.874c1.824-1.823,2.873-4.352,2.873-6.931
	s-1.049-5.108-2.873-6.932c-1.824-1.824-4.353-2.873-6.932-2.873C177.013,336.311,174.494,337.359,172.67,339.183z"/>
</svg>
