<svg id="Layer_1" data-name="Layer 1" xmlns="http://www.w3.org/2000/svg" viewBox="0 0 54.5915 54.5805"><defs><style>.cls-1{fill:#fff;}</style></defs><title>customer</title><path class="cls-1" d="M19.148,39.018a11.0094,11.0094,0,0,1,5.976,2.6183,9.2807,9.2807,0,0,1,3.1748,6.4785c.0885,1.6586.042,3.3242.064,4.9866.0131.99-.3941,1.4719-1.4548,1.4693q-12.7151-.0315-25.43-.0023C.4415,54.57-.0137,54.14.0262,53.111a48.908,48.908,0,0,1,.2345-5.9367,9.5379,9.5379,0,0,1,8.3177-7.9985,3.0918,3.0918,0,0,0,.3976-.1255A9.5547,9.5547,0,0,1,7.6737,36.154,43.8434,43.8434,0,0,1,7.58,28.0576c.2912-2.6864,2.5991-4.3549,5.3114-4.3915,2.1492-.0289,4.2992-.0146,6.4487-.0029,1.4208.0077,1.6625.2628,1.6673,1.731.0077,2.3524-.0347,4.7055.0127,7.057C21.0669,34.7817,21.0451,37.0725,19.148,39.018ZM2.2634,48.2c1.3265,0,2.579.002,3.8316-.0008.7375-.0017,1.4552.094,1.4778,1.0287.023.9523-.7037,1.0635-1.4383,1.0684-1.2811.0084-2.5624.0023-3.8493.0023v2.0179H26.2405c0-1.3706.1073-2.67-.0207-3.9459a7.714,7.714,0,0,0-5.4869-6.8843,1.6634,1.6634,0,0,0-2.0358.4977c-1.08,1.2072-2.3126,2.2766-3.4166,3.464-.774.8324-1.4052.7386-2.1391-.0221C11.9589,44.2,10.7667,42.98,9.51,41.8321a1.7941,1.7941,0,0,0-1.3453-.4049A7.573,7.573,0,0,0,2.2634,48.2ZM9.6516,32.4913C9.2283,35.14,9.78,37.09,11.846,38.4025a4.7373,4.7373,0,0,0,5.25-.3481c1.9306-1.53,1.9537-3.6242,1.763-5.5631Zm9.08-6.6725c-1.7119,0-3.4553.1073-5.1807-.0235C10.4521,25.56,9,27.9817,9.676,30.5711h5.1352c3.7042,0,4.3858-.7489,4.0617-4.4639A1.8079,1.8079,0,0,0,18.7316,25.8187ZM13.9622,43.2121l2.3225-1.9476H11.9924Z" transform="translate(0 0.0098)"/><path class="cls-1" d="M52.5459,28.7488A35.9084,35.9084,0,0,0,52.11,23.25a7.33,7.33,0,0,0-5.4842-5.4674,1.4047,1.4047,0,0,0-1.609.4363c-1.1054,1.1866-2.2809,2.3083-3.4362,3.4479-1.0242,1.01-1.3573,1.0111-2.4053-.0162-1.13-1.1076-2.2968-2.1847-3.3432-3.3674a1.59,1.59,0,0,0-1.9453-.4231,7.5707,7.5707,0,0,0-5.492,6.8563,40.0657,40.0657,0,0,0-.0217,4.0324h2.6814c1.2983,0,2.5966-.0027,3.8949.001.8516.0024,1.9024-.1272,1.8931,1.11-.0086,1.1564-1.0169,1.0458-1.83,1.0472q-3.0429.0051-6.0858.0006a4.94,4.94,0,0,1-1.5689-.0482c-.4166-.1469-1.0218-.6088-1.0261-.9384a32.9817,32.9817,0,0,1,.2062-6.7817c.8284-4.1717,3.6123-6.6442,7.7565-7.5769.3135-.0705.6237-.1557,1.0872-.2722-1.788-1.9112-1.871-4.198-1.7871-6.5372.0421-1.1752-.0148-2.3538.0231-3.5292A5.3494,5.3494,0,0,1,38.8384.017c2.2713-.0406,4.544.0073,6.8159-.0151C46.78-.0092,47.2776.5,47.27,1.622c-.02,3.0428.1329,6.0951-.0683,9.1247a23.3793,23.3793,0,0,1-1.276,4.639c.5344.1588,1.3914.36,2.21.6657A9.7642,9.7642,0,0,1,54.58,25.307c.0061,1.3388-.0289,2.6786.01,4.0163.0334,1.1517-.5,1.6035-1.6171,1.5921-2.5963-.0265-5.1931-.0063-7.79-.0094-.76-.0009-1.5669-.0279-1.5727-1.06-.0061-1.1053.825-1.1056,1.6392-1.1015C47.5934,28.7564,49.9373,28.7488,52.5459,28.7488ZM35.7682,8.8441c-.2286,2.5757.1065,4.5846,2.189,5.8643a4.4253,4.4253,0,0,0,4.9388-.0819c2.2821-1.4229,2.3844-3.6648,2.1576-5.7824ZM45.009,2.259a2.3827,2.3827,0,0,0-.405-.0816c-1.7832-.0064-3.5667-.0258-5.35-.0046-2.595.0308-4.0925,2.1061-3.3347,4.6813,1.68,0,3.383-.0685,5.0789.0137,4.0424.1959,4.2327-.9411,4.0829-4.2848A2.4139,2.4139,0,0,0,45.009,2.259Zm-6.45,15.34,1.8773,2.003,1.8966-2.003Z" transform="translate(0 0.0098)"/><path class="cls-1" d="M11.8447,20.0067c-2.2311,0-4.4624.0171-6.6934-.0044A5.1457,5.1457,0,0,1,.0471,15.0114c-.06-3.3253-.0673-6.6537.0044-9.9786A5.2526,5.2526,0,0,1,5.1906.0193q6.7538-.0573,13.5083.0018A5.3517,5.3517,0,0,1,24.084,5.2143a1.8892,1.8892,0,0,1,.0078.4857c-.6832,3.606.6826,6.331,3.5861,8.4094a2.0184,2.0184,0,0,1,.67.6947,2.1085,2.1085,0,0,1,.3192,1.2928,1.3787,1.3787,0,0,1-1.0375.6437c-1.006.0918-2.0337-.0377-3.0358.0735a2.0641,2.0641,0,0,0-1.3181.7206,5.41,5.41,0,0,1-4.6161,2.47c-.0811,0-.1622.0024-.2434.0024Q15.1305,20.0069,11.8447,20.0067Zm13.0419-5.3847.1741-.363c-.7183-.6546-1.41-1.342-2.1624-1.9547a2.5688,2.5688,0,0,1-.9736-2.3271c.0756-1.5364.0542-3.0806.0066-4.6193a3.0309,3.0309,0,0,0-2.8974-3.1556q-6.8691-.0793-13.7395-.0034A3.04,3.04,0,0,0,2.2014,5.41Q2.1585,10.03,2.2,14.6511A2.9006,2.9006,0,0,0,5.0371,17.82c4.6577.0846,9.318.0424,13.9771.018A2.625,2.625,0,0,0,21.56,16.0706a1.9536,1.9536,0,0,1,2.3991-1.454A7.8851,7.8851,0,0,0,24.8866,14.6221Z" transform="translate(0 0.0098)"/><path class="cls-1" d="M42.6179,34.569c2.2311,0,4.4631-.0392,6.6932.01a5.2474,5.2474,0,0,1,5.2659,5.374c.0173,3.083.022,6.1663-.0015,9.2491a5.3188,5.3188,0,0,1-5.4309,5.3545c-4.3406.0116-8.6812.0041-13.0219.0026a5.319,5.319,0,0,1-5.6-5.4211c-.04-1.2969-.069-2.6.0119-3.8929a2.4442,2.4442,0,0,0-.9015-2.1115c-1.1311-1.0455-2.23-2.1324-3.2622-3.2743a1.6431,1.6431,0,0,1-.4227-1.3524c.1447-.3509.7938-.5289,1.2526-.7013a2.1293,2.1293,0,0,1,.8455-.016c1.6256.108,3.0663.1063,4.1073-1.6366a3.9866,3.9866,0,0,1,3.5281-1.581c.1217-.0006.2433-.01.3649-.01q3.2859-.0009,6.5718,0ZM29.7147,39.9835l-.1239.29c.7063.6682,1.3806,1.3751,2.1279,1.9938A2.5933,2.5933,0,0,1,32.6855,44.6c-.0744,1.5378-.0578,3.0833-.006,4.623a3.0749,3.0749,0,0,0,3.1574,3.1606q6.7536.0437,13.5076-.0033a2.9653,2.9653,0,0,0,3.0612-3.0866q.0511-4.7454-.0024-9.4917a2.8718,2.8718,0,0,0-2.8257-3.0543c-4.6614-.0817-9.3254-.04-13.9881-.0174a2.5385,2.5385,0,0,0-2.4769,1.6717,2.1057,2.1057,0,0,1-2.5928,1.55A4.7707,4.7707,0,0,0,29.7147,39.9835Z" transform="translate(0 0.0098)"/><path class="cls-1" d="M17.1357,7.4741A18.01,18.01,0,0,1,15.679,9.9883c-.5206.6484-1.534.8382-1.7419,1.8585-.0333.1633-.6663.3688-.928.2793a1.3086,1.3086,0,0,1-.7742-.79,1.8677,1.8677,0,0,1,1.0818-2.4025c.261-.1051.6239-.1812.7373-.384.2733-.4886.694-1.1308.5582-1.55a1.95,1.95,0,0,0-1.3165-1.1108c-.4433-.07-1,.4442-1.4683.7567-.1225.0817-.1079.3729-.1511.5691-.1516.6871-.4106,1.2853-1.2771,1.0939-.8873-.1959-.9557-.8864-.8338-1.6174a3.7315,3.7315,0,0,1,3.95-3.0238A4.1275,4.1275,0,0,1,17.1357,7.4741Z" transform="translate(0 0.0098)"/><path class="cls-1" d="M43.18,44.6664c.8862-.9816,1.692-1.8865,2.5124-2.7779.4693-.51,1.031-.7143,1.5837-.1723.58.5689.4168,1.1623-.1149,1.6939q-1.6316,1.6315-3.2648,3.2613a1.1022,1.1022,0,0,1-1.71.05,11.97,11.97,0,0,1-1.8491-1.9143c-.2531-.3811-.0678-1.0533-.0805-1.594a4.5781,4.5781,0,0,1,1.502.1463C42.2082,43.5647,42.531,44.0469,43.18,44.6664Z" transform="translate(0 0.0098)"/><circle class="cls-1" cx="40.2033" cy="29.8931" r="1.0642"/><circle class="cls-1" cx="11.0158" cy="49.3605" r="1.0642"/><circle class="cls-1" cx="13.3274" cy="14.4193" r="1.0642"/></svg>