<svg id="Layer_1" data-name="Layer 1" xmlns="http://www.w3.org/2000/svg" viewBox="0 0 123.103 150.0684"><defs><style>.cls-1{fill:#fff;}</style></defs><title>data</title><path class="cls-1" d="M61.2692,19.6834a2.82,2.82,0,1,0-2.538-2.8056A2.8147,2.8147,0,0,0,61.2692,19.6834Z"/><path class="cls-1" d="M120.172,17.5861A14.6718,14.6718,0,0,1,105.5169,2.931,2.9313,2.9313,0,0,0,102.5859,0H20.5172a2.9313,2.9313,0,0,0-2.931,2.931A14.6718,14.6718,0,0,1,2.931,17.5861,2.9313,2.9313,0,0,0,0,20.5172V68.3486a85.1365,85.1365,0,0,0,60.71,81.5965,2.9307,2.9307,0,0,0,1.6839,0A85.1459,85.1459,0,0,0,123.103,68.3486V20.5172A2.9313,2.9313,0,0,0,120.172,17.5861Zm-2.931,50.7624a78.8242,78.8242,0,0,1-55.6895,75.7239A79.2527,79.2527,0,0,1,5.862,68.3486V23.24A20.5654,20.5654,0,0,0,23.24,5.862h76.624A20.5653,20.5653,0,0,0,117.241,23.24Z"/><path class="cls-1" d="M94.7261,15.7451a2.8231,2.8231,0,0,0-2.586-1.69H72.8384a2.8231,2.8231,0,1,0,0,5.6463H90.3551a31.0355,31.0355,0,0,0,13.5434,13.5434v35.35a64.3106,64.3106,0,0,1-42.3469,61.009,64.3108,64.3108,0,0,1-42.3469-61.009v-35.35A31.037,31.037,0,0,0,32.748,19.7009H50.2646a2.8231,2.8231,0,1,0,0-5.6463H30.9629a2.8236,2.8236,0,0,0-2.586,1.69A25.43,25.43,0,0,1,15.2488,28.8732a2.8239,2.8239,0,0,0-1.69,2.586V68.5947A70.2786,70.2786,0,0,0,60.61,135.2674a2.8225,2.8225,0,0,0,1.8836,0,70.2791,70.2791,0,0,0,47.0514-66.6727V31.4592a2.8236,2.8236,0,0,0-1.69-2.586A25.43,25.43,0,0,1,94.7261,15.7451Z"/><path class="cls-1" d="M36.1433,69.388A25.4082,25.4082,0,1,0,61.5515,43.98,25.437,25.437,0,0,0,36.1433,69.388Zm45.17,0A19.7619,19.7619,0,1,1,61.5515,49.6261,19.7843,19.7843,0,0,1,81.3134,69.388Z"/><path class="cls-1" d="M55.0784,70.2149a2.8233,2.8233,0,1,0-3.9928,3.9928l5.6463,5.6463a2.8237,2.8237,0,0,0,3.9928,0L74.84,65.7379a2.8233,2.8233,0,0,0-3.9928-3.9928L58.7284,73.8646Z"/></svg>