<svg id="Layer_1" data-name="Layer 1" xmlns="http://www.w3.org/2000/svg" viewBox="0 0 59.2908 58.3342"><defs><style>.cls-1{fill:#fff;}</style></defs><title>empowering</title><path class="cls-1" d="M23.399,11.7029h1.7531v3.7724H23.399Z"/><path class="cls-1" d="M45.7817,10.5368V8.8441h1.7618v1.6927Z"/><path class="cls-1" d="M53.6334,41.629a3.7784,3.7784,0,0,0-4.0419-2.7336c-2.5492-.0046-5.0984-.0011-8.0184-.0011a7.1011,7.1011,0,0,1,.83-2.1277c1.6376-1.7869,3.391-3.4672,5.0944-5.1941,1.04-1.0545,2.3422-.4424,3.5164-.491.3546-.0146.813.619,1.0947,1.0418a3.8733,3.8733,0,1,0,4.428-5.7227,3.5542,3.5542,0,0,0-4.2523,1.5281,1.9777,1.9777,0,0,1-2.4012,1.2024,4.5568,4.5568,0,0,0-4.58,1.8837,47.7132,47.7132,0,0,1-3.3913,3.4376c-.2339-2.8939-.23-2.89,1.5279-4.6464,3.0581-3.0546,6.1385-6.0878,9.1388-9.1984a3.3489,3.3489,0,0,0,.8517-2.0513c.0891-3.2173.07-6.439.0186-9.6579a1.6617,1.6617,0,0,1,.99-1.7383,3.6378,3.6378,0,0,0,1.798-4.275A3.7606,3.7606,0,0,0,52.4529,0a3.86,3.86,0,0,0-3.7054,2.84A3.7228,3.7228,0,0,0,50.666,7.2028a1.4624,1.4624,0,0,1,.9,1.536c-.0354,3.087.027,6.1757-.0481,9.2613a8.6975,8.6975,0,0,1-.81,2.2721c-1.2364-1.3685-2.51-2.2352-2.9479-3.4128-.455-1.2243-.1014-2.749-.1014-4.1732h-1.712c-1,3.6824.0565,6.5515,3.2468,8.4744L43.55,26.75a9.25,9.25,0,0,1-1.6615-2.3367,10.11,10.11,0,0,1-.0649-2.9916H40.0411c-.5471,2.7512-.2712,5.1523,2.5884,6.8138-2.816,1.4286-2.9318,3.7014-2.7706,6.1325.0979,1.4763.0181,2.9644.0181,4.452H35.9943V37.3267c0-3.7049.1677-7.42-.0577-11.1112-.1559-2.5527.424-4.54,2.5374-6.0209a7.5684,7.5684,0,0,0,3.3519-8.0659A1.8542,1.8542,0,0,1,42.9534,9.943a3.7282,3.7282,0,0,0,.89-5.6334,3.95,3.95,0,0,0-5.6552-.39C36.5391,5.447,36.43,8.4318,38.35,9.586c1.6279.9784,1.5667,2.1823,1.5291,3.6139a12.2965,12.2965,0,0,0,.0076,1.5867,2.4572,2.4572,0,0,1-.8794,2.21c-1.3232,1.2307-2.5193,2.6-3.8641,3.8049a3.3437,3.3437,0,0,0-1.1265,2.7926c.0466,4.5425.0192,9.0857.0192,13.6287V38.79h-3.81c-.0243-.3207-.0552-.539-.0552-.7574-.0027-9.7916.0095-19.5832-.0258-29.3746a1.5083,1.5083,0,0,1,.9667-1.4846,3.66,3.66,0,0,0,1.7529-4.4043A3.7147,3.7147,0,0,0,29.1336,0a3.8185,3.8185,0,0,0-3.7024,2.8315,3.7083,3.7083,0,0,0,1.9,4.3624A1.4738,1.4738,0,0,1,28.2,8.7515c-.0179,5.8661-.0081,11.7322-.0149,17.5984,0,.3551-.0707.71-.1174,1.1494-1.8893-1.4379-3.2352-2.8843-2.84-5.38a29.1783,29.1783,0,0,0,.0431-4.536H23.315c0,1.978.1059,3.8757-.032,5.7554a3.9392,3.9392,0,0,0,1.6451,3.887,7.4521,7.4521,0,0,1,3.2925,7.8338,24.9235,24.9235,0,0,0-.03,3.7371H24.34c0-1.1068-.0793-2.1245.0189-3.1247a3.9249,3.9249,0,0,0-1.4053-3.4723c-2.676-2.5487-5.2355-5.22-8.1085-8.11.558-.4269,1.0665-.8441,1.6028-1.2218a8.9155,8.9155,0,0,0,3.959-9.54,2.01,2.01,0,0,1,1.1853-2.411A3.5231,3.5231,0,0,0,23.11,6.5532a3.7909,3.7909,0,0,0-3.8328-2.65,3.8438,3.8438,0,0,0-1.6806,7.2305c.2664.15.76.3049.76.4572-.0023,2.2168-.07,4.4335-.1275,6.65-.0008.0311-.0607.06-.092.0912-1.5,1.485-2.999,2.97-4.7449,4.7a11.2581,11.2581,0,0,1-1.6663-2.899,3.0161,3.0161,0,0,1,1.4667-3.6973c1.8932-1.124,1.8411-3.9537.27-5.5689A3.9218,3.9218,0,0,0,7.8,11c-1.4487,1.7009-1.3218,4.5563.5745,5.5714,1.4483.7753,1.47,1.76,1.3861,2.9993a4.0188,4.0188,0,0,0,1.2318,3.5339c3.5732,3.4087,7.016,6.9543,10.4957,10.46.3289.3314.7741.74.8042,1.14.1009,1.3436.0383,2.6994.0383,4.1178H18.5855a6.343,6.343,0,0,1-.0627-1.2184,3.9016,3.9016,0,0,0-1.4918-3.5684C13.23,30.3544,9.5377,26.56,5.76,22.8535a2.8923,2.8923,0,0,1-.9385-2.3152q.0725-5.6226.0029-11.2466A2.0419,2.0419,0,0,1,5.95,7.0839a3.6571,3.6571,0,0,0,1.617-4.47A3.8384,3.8384,0,0,0,3.6995.0036,3.828,3.828,0,0,0,.11,2.9851,3.7186,3.7186,0,0,0,2.0688,7.198,1.4263,1.4263,0,0,1,2.9406,8.74c-.0259,4.2781-.047,8.5571.0234,12.8342a3.2457,3.2457,0,0,0,.8,1.9419c1.384,1.5349,2.8923,2.9578,4.308,4.38a5.945,5.945,0,0,0-1.1906.8337,1.6319,1.6319,0,0,1-2.146.5209A3.7106,3.7106,0,0,0,.7095,30.8391,3.8331,3.8331,0,0,0,.8278,35.397a3.8955,3.8955,0,0,0,4.8715,1.0762,3.7784,3.7784,0,0,0,1.8628-4.6083c-.2795-.834-.0693-1.4426.5775-1.5861.982-.2177,2.0458-.4149,2.9305.5529a45.7023,45.7023,0,0,0,4.126,4.1014A3.5733,3.5733,0,0,1,16.36,38.8944c-2.4971,0-4.9575-.01-7.4176.0029-2.3583.0123-3.4784.7691-4.3243,2.9384C3.2448,45.3571,2.0087,48.9376.4959,52.3974c-1.4084,3.2211.8689,5.9592,4.1049,5.9366q4.4168-.0307,8.8337-.04V56.3612q-4.249,0-8.4979,0c-.3087,0-.62.0179-.9255-.0118a1.956,1.956,0,0,1-1.842-2.7878C3.6057,49.7375,5.0746,45.9226,6.67,42.163A2.6214,2.6214,0,0,1,8.545,40.8447c2.5848-.1525,5.184-.0621,7.87-.0621v1.9825c-1.3229,0-2.669.0367-4.012-.0118a1.6787,1.6787,0,0,0-1.9032,1.39C9.74,46.62,8.855,49.0591,8.0393,51.52c-.4818,1.4531-.1314,1.9286,1.4276,1.9292q19.7092.0077,39.4184-.0005c1.5714-.0007,1.8927-.4563,1.4013-1.94-.8287-2.5024-1.7084-4.9888-2.4921-7.5051a1.5471,1.5471,0,0,0-1.7316-1.2452c-1.3582.0308-2.7177.0079-4.2006.0079V40.812c2.803,0,5.6075-.0685,8.4026.0621.5137.024,1.2145.764,1.4465,1.33,1.5488,3.78,3.011,7.5956,4.4627,11.4144a1.9065,1.9065,0,0,1-1.5081,2.6768A6.3309,6.3309,0,0,1,53.35,56.36q-15.4992.0027-30.9985.0013v1.9117c10.5787-.0115,21.1576.01,31.7364.0056,3.2148-.0013,4.9789-2.5569,3.8339-5.5843C56.5219,48.9942,55.0834,45.3092,53.6334,41.629Zm1.8221-13.49a2.062,2.062,0,0,1,1.8983,2.0074,1.9637,1.9637,0,0,1-1.9692,1.8955,1.9959,1.9959,0,0,1-1.91-1.9658A2.1287,2.1287,0,0,1,55.4554,28.1391Zm-4.89-24.1847a1.9986,1.9986,0,0,1,1.8193-2.0323A2.0839,2.0839,0,0,1,54.43,3.7716a1.9343,1.9343,0,1,1-3.8642.1828ZM38.9136,6.8665a1.974,1.974,0,0,1,1.8231-2.033,2.0482,2.0482,0,0,1,2.0149,1.8806,2.0424,2.0424,0,0,1-1.9951,2.03A1.9628,1.9628,0,0,1,38.9136,6.8665Zm-21.4145.947A2.0217,2.0217,0,0,1,19.3962,5.83a1.9643,1.9643,0,0,1,2.0083,1.8376,1.985,1.985,0,0,1-1.8718,1.99A2.0388,2.0388,0,0,1,17.499,7.8135Zm-6.7819,7.6654a1.9984,1.9984,0,0,1-1.9589-1.8943,1.9847,1.9847,0,0,1,1.93-1.9166,2.0152,2.0152,0,0,1,1.9663,1.9055A1.9625,1.9625,0,0,1,10.7171,15.4789ZM1.9592,3.9337A2.035,2.035,0,0,1,3.8123,1.92a2.0317,2.0317,0,0,1,2.02,1.86A2,2,0,0,1,3.9942,5.7965,2.0835,2.0835,0,0,1,1.9592,3.9337Zm1.98,31.023a1.9942,1.9942,0,0,1-1.9816-1.9055A2.1631,2.1631,0,0,1,3.89,31.0532a1.9521,1.9521,0,0,1,.0487,3.9034ZM36.07,40.8732h3.593c.4968,1.6956.3674,1.8855-1.3259,1.8907-.7313.0023-1.4626,0-2.2671,0Zm-5.831-.011h3.63c.36,1.8509.322,1.8989-1.4834,1.9019-.6926.0011-1.3853,0-2.1462,0ZM27.264,3.7448a1.9411,1.9411,0,0,1,1.9031-1.8184A2,2,0,0,1,31.0718,3.91a1.9068,1.9068,0,1,1-3.8078-.1653ZM24.4306,40.84h3.6536v1.8415H24.4306Zm-5.8433.0283h3.7069V42.652H18.5873Zm26.9243,3.8849c.2365.0125.4748.3866.67.628a1.5925,1.5925,0,0,1,.1672.4948c.5952,1.7869,1.1911,3.5735,1.8339,5.5013H10.1639c.7157-2.1611,1.3992-4.2629,2.1277-6.3491.0556-.1592.4279-.2873.6566-.2933,1.1346-.03,2.2706-.0135,3.5292-.0135v3.7506h1.99v-3.65h3.8423v3.6465h1.986V44.8228H28.14V48.464h1.98V44.825h3.9376v3.6816h1.8945V44.823H39.85v3.6823h1.9285V44.7236C43.0891,44.7236,44.3029,44.6895,45.5116,44.7531Z"/><circle class="cls-1" cx="17.9605" cy="57.4748" r="0.8594"/></svg>