<svg id="Layer_1" data-name="Layer 1" xmlns="http://www.w3.org/2000/svg" viewBox="0 0 74.3373 74.3549"><defs><style>.cls-1{fill:#fff;}</style></defs><title>ethical</title><path class="cls-1" d="M71.304,16.1366c-2.695,0-5.2309.0135-7.7666-.0032-3.8606-.0254-5.3287-1.4832-5.3551-5.3193-.0174-2.5335-.0033-5.0673-.0033-7.74-.6638-.0316-1.1981-.0791-1.7324-.0792q-19.4015-.0062-38.8031-.002c-2.4075,0-2.8225.5453-2.3219,3.1131,1.0719-.0665,2.16-.1223,3.2457-.2044,1.3881-.105,2.0409.4843,2.0345,1.9147q-.0374,8.374,0,16.7482a1.7257,1.7257,0,0,1-1.9175,1.9647q-8.3739.0439-16.7481,0A1.7594,1.7594,0,0,1,.0069,24.4061,18.8153,18.8153,0,0,1,10.85,7.8173c1.0388-.5329,1.5214-1.06,1.3992-2.2275C11.8145,1.4348,14.5771-.0283,17.8046,0,31.3459.1208,44.889.07,58.4312.0223a4.0345,4.0345,0,0,1,3.1738,1.341q5.6809,5.8086,11.4932,11.488a3.7139,3.7139,0,0,1,1.2391,2.8929q-.0549,26.7806-.0268,53.5614c-.0007,3.4432-1.6183,5.0462-5.09,5.0468q-25.9516.0048-51.9032,0c-3.5281-.0006-5.0634-1.5152-5.0766-5.0228-.0139-3.7034.0017-7.4069-.0054-11.11-.0019-.9957.0723-2.0238,1.3417-2.06,1.3755-.0395,1.5085,1.0621,1.5136,2.1013.0176,3.5928-.0036,7.1858.0148,10.7786.0108,2.1008.2966,2.3719,2.4085,2.3723q25.7858.0046,51.5716-.0008c2.0129-.0005,2.2808-.243,2.2815-2.1364q.01-25.9516.0012-51.9032C71.3684,17.0464,71.3355,16.7215,71.304,16.1366Zm-68.25,7.3785h14.489V9.0074C10.4871,9.0406,3.24,16.32,3.0538,23.5151ZM61.08,5.3329c0,2.2232-.1138,4.2577.07,6.2648A2.2457,2.2457,0,0,0,62.6183,13.18c2.0954.1882,4.2179.0756,6.2594.0756Z"/><path class="cls-1" d="M22.906,28.7418c0-.7579,0-1.35,0-1.9426,0-4.4743-.0072-8.9487.0038-13.423.0046-1.87.558-2.3924,2.3572-2.3016A19.3836,19.3836,0,0,1,43.4181,27.83a19.4234,19.4234,0,0,1-12.96,20.5985C18.52,52.4784,5.5369,43.5467,5.2831,31.11c-.0424-2.0757.2217-2.3565,2.3919-2.3632,4.419-.0138,8.8382-.0045,13.2573-.0047Zm-14.54,2.8629C8.1842,37.55,13.4771,44.0366,19.722,45.8028a16.2774,16.2774,0,0,0,18.7635-7.5122c3.3533-5.944,2.5949-14.2582-1.8027-18.4075-3.3336,3.3529-6.725,6.66-9.982,10.0952a4.8985,4.8985,0,0,1-4.0366,1.6646C17.9292,31.5333,13.19,31.6047,8.3664,31.6047ZM34.6713,17.6271a15.3889,15.3889,0,0,0-8.7088-3.58v12.14Z"/><path class="cls-1" d="M41.8154,53.7983a15.6557,15.6557,0,0,0,1.1317,1.92,21.1311,21.1311,0,0,0,1.74,1.772c2.6615,2.6622,2.6619,2.675,6.1678,2.5883a1.6252,1.6252,0,0,0,.9728-.484c2.3584-2.3284,4.728-4.6481,6.9976-7.0613a2.9236,2.9236,0,0,0,.4612-1.9129,4.4167,4.4167,0,0,1,3.6712-4.7577,4.5339,4.5339,0,0,1,4.8968,3.55,4.2957,4.2957,0,0,1-5.2589,4.9818,1.99,1.99,0,0,0-2.1018.6976c-2.0792,2.1387-4.2478,4.192-6.2825,6.371a2.857,2.857,0,0,0-.5789,1.9745,4.4667,4.4667,0,0,1-1.7234,4.2277,4.1453,4.1453,0,0,1-4.8261.1865,3.6888,3.6888,0,0,1-1.9919-4.0385,2.917,2.917,0,0,0-1.1954-3.1017,25.306,25.306,0,0,1-2.3449-2.34c-.8469-.9528-1.8115-.9329-3.0333-1.1188-3.1893-.4854-4.4269,1.75-6.1888,3.38-.9772.9044-1.6958,1.7174-1.39,3.3753.4462,2.42-1.7474,4.5286-4.1766,4.49a4.4331,4.4331,0,0,1-4.4141-4.5864A4.3064,4.3064,0,0,1,27.43,59.9472a1.9614,1.9614,0,0,0,2.15-.6949c.7421-.8166,1.5265-1.6,2.3431-2.3425,1.1482-1.0438,1.9479-2.0088,1.6811-3.8643-.3411-2.3721,1.8565-4.3142,4.2358-4.2516C40.4975,48.8638,42.2619,50.8335,41.8154,53.7983Zm-15.17,8.3926c-.6352.8838-1.3838,1.4822-1.2981,1.9155.1139.5759.8783,1.0231,1.3632,1.5257.4761-.5282,1.22-1.0047,1.3358-1.6026C28.1258,63.62,27.33,63.0414,26.6458,62.1909Zm22.7378-.04c-.695.9342-1.4172,1.4828-1.417,2.0311,0,.4864.8028.9724,1.2512,1.4586.51-.4915,1.2834-.913,1.439-1.4986C50.7653,63.734,50.0262,63.1007,49.3836,62.151ZM63.5509,48.1765c-.6478.9957-1.3149,1.5762-1.2934,2.13.017.4375.975,1.25,1.3461,1.1646a2.1124,2.1124,0,0,0,1.3154-1.4187C64.9928,49.636,64.2423,49.0736,63.5509,48.1765ZM37.8437,51.0321c-.6558,1.06-1.3049,1.65-1.2711,2.1988a1.7792,1.7792,0,0,0,1.3653,1.1436c.4424-.0207,1.1346-.8212,1.1844-1.3308C39.1687,52.5689,38.5138,52.0256,37.8437,51.0321Z"/><path class="cls-1" d="M57.7346,20.2581c2.7,0,5.4.0157,8.1-.008,1.0594-.0093,1.928.2223,1.927,1.4724-.001,1.1848-.9165,1.4088-1.8468,1.4117q-8.43.0265-16.86,0c-.9813-.0025-1.8158-.3918-1.7767-1.499.0386-1.0924.8476-1.3959,1.8617-1.3864C52.0041,20.2756,54.8695,20.2582,57.7346,20.2581Z"/><path class="cls-1" d="M57.5,27.225c2.81,0,5.62.0127,8.43-.0063,1.0029-.0068,1.79.2554,1.8291,1.4021.0409,1.19-.8344,1.4734-1.7757,1.4772-5.62.0227-11.24.0161-16.86.0085-.9728-.0013-1.8521-.3389-1.85-1.4366.0028-1.1921.89-1.4684,1.9615-1.4559C51.99,27.246,54.7451,27.2247,57.5,27.225Z"/><path class="cls-1" d="M52.59,34.1994a20.8867,20.8867,0,0,1,3.6314.0656c.5658.1019,1.0094.8825,1.5083,1.3557-.4524.4683-.885,1.3169-1.36,1.3416a74.9233,74.9233,0,0,1-7.7693.0015c-.4741-.0247-.9045-.8883-1.3551-1.3647.5122-.4671.9729-1.2419,1.5472-1.3379A23.0949,23.0949,0,0,1,52.59,34.1994Z"/><path class="cls-1" d="M63.0356,33.5222c.6279,1.0332,1.274,1.6269,1.2281,2.1612-.0408.4754-.9313,1.3-1.2979,1.227a2.0452,2.0452,0,0,1-1.3773-1.3571C61.5342,35.0715,62.298,34.4976,63.0356,33.5222Z"/><path class="cls-1" d="M15.5619,52.3122c-.8295.6576-1.4133,1.4464-1.8192,1.3636-.5648-.1153-.9964-.8834-1.4849-1.3721.4943-.48.9359-1.2395,1.5-1.3454C14.1709,50.8808,14.7451,51.6632,15.5619,52.3122Z"/></svg>