<svg id="Layer_1" data-name="Layer 1" xmlns="http://www.w3.org/2000/svg" viewBox="0 0 64.0443 80.096"><defs><style>.cls-1{fill:#fff;}</style></defs><title>innovation</title><path class="cls-1" d="M37.4377,74.69a4.8806,4.8806,0,0,0-.1761.6878c-.3055,4.5424-.4956,4.7186-5.1253,4.7186-4.911,0-4.911,0-5.4922-5.404-.6709,0-1.3684.0016-2.0658,0-3.6095-.0095-4.68-1.1885-4.4719-4.761.0908-1.5562.0184-3.1227.0012-4.6843-.0143-1.3008.1621-2.4978,1.402-3.268a1.3086,1.3086,0,0,0,.5184-.6562A9.033,9.033,0,0,0,18.5555,51.33C10.79,45.9484,6.855,35.9576,8.991,27.0431c2.3653-9.8715,9.9735-17.0666,19.5469-18.3764a2.0865,2.0865,0,0,1,1.7752.8482c.35,1.083-.6386,1.3372-1.4933,1.4864C19.8364,12.57,14.067,17.8082,11.5526,26.4952a20.5224,20.5224,0,0,0,7.9242,22.4371c3.7534,2.54,5.4508,5.6217,5.0248,10.0281-.0735.76-.01,1.5336-.01,2.4223H39.54c0-1.484.0005-2.9546,0-4.4251a7.8077,7.8077,0,0,1,3.6273-6.972A21.6469,21.6469,0,0,0,53.0176,35.308c.1213-.6279.9171-1.1256,1.4-1.6837.2863.6744.9051,1.4016.8078,2.0152A22.8761,22.8761,0,0,1,45.6566,51.15,9.0364,9.0364,0,0,0,41.99,61.2726a.9824.9824,0,0,0,.3407.5733c1.604.8627,1.6166,2.3451,1.5922,3.8754-.0288,1.7992.0157,3.6-.012,5.3988-.0363,2.3566-1.1314,3.4679-3.5026,3.5628C39.41,74.7229,38.41,74.69,37.4377,74.69ZM32.0192,66.87c2.6781,0,5.3568-.0345,8.0339.0164,1.1268.0214,1.6047-.35,1.6225-1.5309.0185-1.2245-.5568-1.5383-1.6305-1.5349q-8.0342.0256-16.0684,0c-1.0822-.0036-1.6393.3285-1.6228,1.5439.0162,1.19.5128,1.5428,1.6313,1.5219C26.6624,66.8365,29.3411,66.87,32.0192,66.87Zm-.0314,2.4568c-2.7379,0-5.4766.0406-8.2131-.02-1.1306-.0248-1.4269.4424-1.4162,1.4848s.339,1.5037,1.4477,1.4967q8.2132-.0516,16.4269,0c1.1172.007,1.4285-.4729,1.4363-1.5061.0081-1.0718-.3841-1.4891-1.4683-1.4708C37.464,69.3583,34.7256,69.3274,31.9878,69.327Zm-3.0013,5.4568c.22,1.0534.2942,2.7022.6215,2.7541a15.1674,15.1674,0,0,0,4.9148-.0579c.2889-.05.2946-1.73.4369-2.6962Z"/><path class="cls-1" d="M21.4369,26.4994c-.84-.6777-1.1431-.8788-1.3944-1.1312-2.7494-2.7608-2.7472-2.763-.0534-5.4546,2.581-2.5789,2.584-2.582,5.1678-.0485.5959.5843,1.2025,1.407,2.06.5653a4.44,4.44,0,0,0,1.0082-1.9381c.1709-.6107-.0326-1.32.1-1.9494.1021-.4833.4558-1.2912.7228-1.3015a48.6987,48.6987,0,0,1,5.9457.1141c.2937.0247.623.932.7349,1.4726.13.6294-.0961,1.3443.0815,1.9489a2.9332,2.9332,0,0,0,1.063,1.7125,2.031,2.031,0,0,0,1.7588-.466c2.87-2.6066,2.8458-2.6329,5.5834.0691.2544.2511.51.5011.7591.7574,1.4639,1.5059,1.46,2.0432-.0265,3.5574-1.0433,1.0628-2.6216,1.9875-.8839,3.746,5.0942.3907,5.0942.3907,5.096,3.42.0022,3.8493.0022,3.8493-5.1332,4.253-1.0973,1.3288-.7648,2.31.4761,3.4277,2.1623,1.9469,2.0884,2.4131.046,4.4489-.0844.0841-.1684.1686-.253.2525-2.7913,2.7688-2.7627,2.7376-5.6019.1253a2.19,2.19,0,0,0-1.8978-.46,2.2594,2.2594,0,0,0-.9815,1.707c-.1721,3.8319-.1308,3.8338-3.9279,3.8314-3.44-.0022-3.54-.1529-3.6717-3.6331a3.0855,3.0855,0,0,0-.9583-1.9457c-.9629-.8724-1.57.0985-2.1879.7083-2.4968,2.4661-2.5359,2.4663-5.067-.0645q-.6318-.6317-1.26-1.2669a1.8533,1.8533,0,0,1-.0155-2.9579c.7175-.71,1.4725-1.3815,2.2393-2.0968l-.8865-2.1649c-1.0209,0-2.0315-.0308-3.04.0072-1.5235.0574-2.1762-.71-2.1684-2.1641.0016-.2979,0-.5958-.0009-.8937-.0066-4.2812-.0016-4.2126,4.1634-4.5154C19.7666,28.1184,20.4385,27.2222,21.4369,26.4994ZM22.7575,20.94l-2.1924,1.5684c1.4152,1.8514,3.5446,2.7026,2.2869,5.83-1.2657,3.147-3.5519,1.99-5.4534,2.4535v2.5134c2.0632.3733,4.1994-.5167,5.4965,2.5552,1.3363,3.1646-1.2461,3.8855-2.0719,5.543l1.6718,2.012c1.8171-1.3594,2.65-3.4933,5.79-2.1913,3.164,1.3116,1.8818,3.5711,2.438,5.47h2.6148c.401-2.0338-.5906-4.165,2.4944-5.5066,3.2038-1.3933,3.8916,1.0342,5.2369,1.8867l2.31-1.5191c-1.3586-1.8448-3.4472-2.6828-2.2319-5.73,1.2433-3.1178,3.4873-2.0918,5.52-2.544.0229-.5029.068-.91.0523-1.3143-.0153-.3949-.0928-.7873-.1741-1.4258-3.4276,1.1075-4.9686-.6524-5.8137-3.598-.6913-2.41,1.9737-2.6869,2.5013-4.3349l-1.769-1.8636c-1.7117,1.1778-2.5569,3.33-5.6689,2.1187-3.2875-1.28-1.8869-3.7228-2.4773-5.5488H30.4233c1.1877,3.6306-.7293,5.2969-3.7516,6.0608C24.6006,23.8982,24.1488,21.5331,22.7575,20.94Z"/><path class="cls-1" d="M55.36,29.3668l-1.0636,1.0288c-.4022-.4765-1.0594-.9011-1.1684-1.4372-1.74-8.5544-6.43-14.5461-14.8752-17.3093-.95-.3109-2.0186-.2957-2.93-.676-.6381-.2662-1.5419-.9359-1.5566-1.4475-.0346-1.2007,1.0766-1.0308,1.8815-.8913A23.1142,23.1142,0,0,1,51.7493,19.0889,21.6341,21.6341,0,0,1,55.36,29.3668Z"/><path class="cls-1" d="M10.48,55.36c-.6157-.4464-1.0973-.6161-1.2088-.9212a1.5856,1.5856,0,0,1,.0666-1.3206,26.8937,26.8937,0,0,1,2.89-2.9045,1.501,1.501,0,0,1,1.3124-.0373c.2805.1274.6178.8616.5126.994C12.9329,52.5786,11.73,53.92,10.48,55.36Z"/><path class="cls-1" d="M60.98,33.205a6.5915,6.5915,0,0,1-1.9481-.0462c-.4693-.1518-.8049-.7167-1.2-1.0982.43-.412.8172-1.1066,1.2987-1.18a12.3971,12.3971,0,0,1,3.553-.0133c.4965.07.91.73,1.361,1.1223a6.89,6.89,0,0,1-1.4756,1.1907,4.2717,4.2717,0,0,1-1.5891.04Z"/><path class="cls-1" d="M2.9669,33.22A4.5441,4.5441,0,0,1,1.3759,33.18,5.9575,5.9575,0,0,1,0,32.0823c.4149-.42.7856-1.13,1.2536-1.2014a12.4392,12.4392,0,0,1,3.5533-.0134c.5058.0706.9315.7154,1.3936,1.0995a6.13,6.13,0,0,1-1.466,1.21A5.0274,5.0274,0,0,1,2.9669,33.22Z"/><path class="cls-1" d="M54.2932,55.3987a10.0989,10.0989,0,0,1-1.5061-.92A28.0723,28.0723,0,0,1,50.26,51.7748a1.4209,1.4209,0,0,1-.0008-1.3635,1.6762,1.6762,0,0,1,1.5289-.19,16.8748,16.8748,0,0,1,2.9263,3.0329C54.9717,53.6129,54.4913,54.5018,54.2932,55.3987Z"/><path class="cls-1" d="M51.45,14.3908c-.6682-.4319-1.1653-.5779-1.286-.8761a1.47,1.47,0,0,1,.0855-1.2644,29.1256,29.1256,0,0,1,2.883-2.8921,1.4348,1.4348,0,0,1,1.2562-.09c.2771.1195.6208.8347.5207.9637C53.819,11.6359,52.6469,12.977,51.45,14.3908Z"/><path class="cls-1" d="M10.48,8.7455c1.2317,1.3964,2.4376,2.7239,3.566,4.1143.0957.118-.25.8389-.5271.9549a1.52,1.52,0,0,1-1.3037-.0552,26.4659,26.4659,0,0,1-2.8961-2.8362,1.5448,1.5448,0,0,1-.0484-1.3111C9.391,9.3088,9.8818,9.1522,10.48,8.7455Z"/><path class="cls-1" d="M33.1149,3.156a6.3045,6.3045,0,0,1-.049,1.9279,1.7174,1.7174,0,0,1-1.1442.9652c-.2733.0468-.9226-.5747-.9578-.9392a18.21,18.21,0,0,1-.0057-3.8784C31.0116.7821,31.6989.4083,32.0968,0c.3432.4036.8543.759.9876,1.2229a7.23,7.23,0,0,1,.0419,1.9331Z"/><path class="cls-1" d="M32.0027,38.2772a6.2723,6.2723,0,1,1,6.2886-6.1694A6.1882,6.1882,0,0,1,32.0027,38.2772Zm-.0186-2.4139a3.8765,3.8765,0,1,0-3.9031-3.8221A3.8861,3.8861,0,0,0,31.9841,35.8632Z"/></svg>