<svg id="Layer_1" data-name="Layer 1" xmlns="http://www.w3.org/2000/svg" viewBox="0 0 185.1021 160.2145"><defs><style>.cls-1{fill:#fff;}</style></defs><title>network</title><path class="cls-1" d="M132.494,42.4187A42.4187,42.4187,0,1,0,86.4318,84.6795v6.976H12.2a3.6435,3.6435,0,0,0-3.6435,3.6438v11.2551a12.1978,12.1978,0,1,0,7.2869-.0014v-7.61h41.03v27.5549a17.0567,17.0567,0,1,0,7.2873,0V98.9428h51.39v7.6018a12.2,12.2,0,1,0,7.2869,0V98.9428h6.0119a3.6437,3.6437,0,0,0,0-7.2873H93.7188v-6.976A42.4749,42.4749,0,0,0,132.494,42.4187ZM70.2874,143.1577a9.77,9.77,0,1,1-9.77-9.77,9.78,9.78,0,0,1,9.77,9.77Zm48.9064-20.0561a4.9132,4.9132,0,1,1,4.9132-4.9132,4.9194,4.9194,0,0,1-4.9132,4.9132ZM12.2,123.11a4.91,4.91,0,0,1-.7017-9.77,3.5945,3.5945,0,0,0,.7017.0691,3.7134,3.7134,0,0,0,.7021-.0691,4.91,4.91,0,0,1-.7021,9.77ZM54.9439,42.4187A35.1316,35.1316,0,1,1,90.0753,77.5505,35.1718,35.1718,0,0,1,54.9439,42.4187Zm0,0"/><path class="cls-1" d="M90.1234,42.4639c5.8311,0,10.2287,1.8713,12,3.727a3.6433,3.6433,0,1,0,5.27-5.0317c-3.5759-3.7469-10.0324-5.9822-17.27-5.9822s-13.6943,2.2368-17.2713,5.9822a3.6433,3.6433,0,1,0,5.27,5.0317c1.7708-1.8557,6.17-3.727,12.0009-3.727Zm0,0"/><path class="cls-1" d="M96.34,55.8856a3.6434,3.6434,0,0,0,5.2707-5.0317C99.18,48.3091,94.8854,46.79,90.1234,46.79c-4.7649,0-9.0581,1.5195-11.4883,4.0643a3.6438,3.6438,0,1,0,5.2718,5.0317c.8319-.8713,3.1323-1.8091,6.2165-1.8091s5.3835.9378,6.2165,1.8091Zm0,0"/><path class="cls-1" d="M111.54,37.2883a3.6434,3.6434,0,0,0,5.2707-5.0317c-5.3636-5.6178-15.59-9.1061-26.6869-9.1061s-21.3258,3.49-26.688,9.1061a3.6433,3.6433,0,1,0,5.27,5.0317c3.9739-4.1619,12.3809-6.852,21.4176-6.852s17.4423,2.69,21.4162,6.852Zm0,0"/><path class="cls-1" d="M91.7745,66.0775a3.6423,3.6423,0,0,0,2.0137-4.7422l-.0228-.0549A3.643,3.643,0,1,0,87.01,64.0088l.0224.055a3.6366,3.6366,0,0,0,4.7425,2.0137Zm0,0"/><path class="cls-1" d="M146.9692,93.9024a3.6434,3.6434,0,0,0-6.7544,2.7342l.0224.0578A3.6436,3.6436,0,1,0,146.992,93.96Zm0,0"/><path class="cls-1" d="M171.6887,126.4966v-30.97c0-.038-.0054-.0759-.0054-.1142s.0054-.0748.0054-.1128a3.6433,3.6433,0,0,0-3.6435-3.6438h-9.5407a3.6437,3.6437,0,0,0,0,7.2873h5.8972v27.5538a17.0569,17.0569,0,1,0,7.2869,0Zm-3.6435,26.4309a9.769,9.769,0,1,1,9.77-9.77,9.78,9.78,0,0,1-9.77,9.77Zm0,0"/></svg>