<svg id="Layer_1" data-name="Layer 1" xmlns="http://www.w3.org/2000/svg" viewBox="0 0 59.4024 59.3919"><defs><style>.cls-1{fill:#fff;}</style></defs><title>sustain</title><path class="cls-1" d="M49.8556,49.6856c2.556.2358,2.6154.3,2.6168,2.4407.0012,1.8557-.0062,3.7115.0018,5.5672.0049,1.1357-.49,1.697-1.68,1.6919q-7.6879-.0328-15.3759-.0022c-1.0653.0034-1.523-.4691-1.51-1.5226.0238-1.9.0053-3.8.0058-5.7.0006-2.1742.0012-2.1742,2.2858-2.5089,0-1.713.0954-3.47-.022-5.2125a7.7087,7.7087,0,0,1,2.751-6.6827c2.1054-1.881,4.0225-3.9728,6.0223-5.9721,1.8266-1.8262,2.4226-2.0754,5.1739-2.1034,0-2.7247-.0327-5.4542.0115-8.1823A4.6259,4.6259,0,0,1,57.32,17.7425a4.2876,4.2876,0,0,1,2.0561,3.6555q.0488,7.9528.0027,15.906a5.7243,5.7243,0,0,1-1.9164,4.0828c-2.1984,2.1754-4.3937,4.3547-6.55,6.5719A9.8165,9.8165,0,0,0,49.8556,49.6856Zm-2.1026.0639a5.04,5.04,0,0,1,1.9636-3.9288c2.0654-1.9926,4.139-3.9857,6.0618-6.1119a4.7194,4.7194,0,0,0,1.2092-2.781c.1177-5.0314.0652-10.067.05-15.101-.005-1.6163-.8253-2.4953-2.2479-2.5085-1.4814-.0138-2.3049.8847-2.3128,2.5777-.0132,2.8261-.0224,5.6526.0139,8.4783a3.326,3.326,0,0,0,.3893,1.4767,4.5753,4.5753,0,0,1-.731,5.8183c-1.7552,1.8038-3.5564,3.5629-5.3336,5.3454-.568.57-1.2018,1.0676-1.9241.3437-.7556-.7573-.28-1.4331.3333-2.0426q2.5373-2.5209,5.06-5.0569c1.1393-1.1488,1.2674-2.55.346-3.5114-.9824-1.0255-2.4019-.9421-3.6014.2488-2.4443,2.4267-4.8933,4.8495-7.2924,7.32a3.2271,3.2271,0,0,0-1.0285,1.7787c-.1155,2.529-.0484,5.0663-.0484,7.6541ZM36.3,52.172v4.7906H50.0428V52.172Z"/><path class="cls-1" d="M23.21,49.6419c2.2855.3588,2.2861.3588,2.2867,2.5028.0005,1.8546-.0276,3.71.0094,5.5635.023,1.1532-.4038,1.6907-1.6258,1.6824q-7.6166-.0516-15.2337.0012c-1.2857.01-1.7333-.5737-1.7151-1.7669.027-1.7658.0062-3.5324.0065-5.2986,0-2.3405.0007-2.3405,2.576-2.6778a9.3706,9.3706,0,0,0-1.0519-1.7479c-2.0892-2.1561-4.2032-4.29-6.366-6.372A6.5541,6.5541,0,0,1,.0005,36.4537c.0517-4.7683.0124-9.5376.0181-14.3064.0036-3.0292,1.929-5.1764,4.6268-5.1792,2.7006-.0029,4.634,2.1438,4.6413,5.1654.006,2.5073.0012,5.0147.0012,7.6093,2.3585-.2784,3.9842.7606,5.4559,2.3141,2.0642,2.1789,4.2013,4.292,6.37,6.3672a6.51,6.51,0,0,1,2.1039,5.0779C23.182,45.5608,23.21,47.6208,23.21,49.6419Zm-2.2881.1142c0-2.1844-.0116-4.2488.0043-6.3131a4.3051,4.3051,0,0,0-1.2956-3.2169c-2.4033-2.4063-4.7888-4.8306-7.2034-7.2254-1.1922-1.1824-2.6929-1.2732-3.6316-.2828-.9462.9984-.8034,2.4235.3884,3.6236,1.5872,1.5983,3.1895,3.1817,4.7835,4.7732.627.626,1.46,1.2916.6125,2.2167-.906.9885-1.5663.0855-2.1812-.526q-2.5366-2.5228-5.0479-5.0711a4.57,4.57,0,0,1-.805-5.9063,2.9942,2.9942,0,0,0,.375-1.3471c.0329-2.8706.0287-5.7418.0106-8.6127-.01-1.6193-.8206-2.5128-2.2326-2.5377-1.4644-.0258-2.3214.8938-2.326,2.5772-.0134,4.9469-.0763,9.8956.0534,14.8391a5.1907,5.1907,0,0,0,1.27,3.0214C5.4732,41.7862,7.4446,43.6361,9.38,45.51c1.219,1.1808,2.4064,2.3468,2.2979,4.2457ZM9.3578,56.9122H23.107V52.1648H9.3578Z"/><path class="cls-1" d="M29.67,34.75A17.3751,17.3751,0,1,1,29.78,0,17.54,17.54,0,0,1,47.1168,17.5238,17.3578,17.3578,0,0,1,29.67,34.75Zm.022-2.299A15.0479,15.0479,0,1,0,14.6075,17.12,15.1444,15.1444,0,0,0,29.6923,32.4507Z"/><path class="cls-1" d="M29.457,4.6578a12.7492,12.7492,0,1,1-11.3055,7.3754c.3815-.8039.8035-1.6345,1.85-1.1137.9515.4737.6037,1.2763.27,2.0569-2.5606,5.9814.2821,12.51,6.2679,14.3443a9.9326,9.9326,0,0,0,10.6776-2.71,9.81,9.81,0,0,0,2.2828-10.6584,9.8048,9.8048,0,0,0-8.5915-6.86,18.0809,18.0809,0,0,0-3.1528.0635c-.7974.0436-1.5977.0528-1.7334-.9478-.1385-1.0212.6982-1.2283,1.4448-1.36C28.2019,4.7181,28.9581,4.702,29.457,4.6578Z"/><path class="cls-1" d="M29.6268,13.8283c-.32.3271-.8782.6406-.9287,1.0214-.0524.3957.3733.8643.6226,1.2815.0443.0742.2474.057.378.0758a3.6077,3.6077,0,0,1,3.3993,2.8564,3.5117,3.5117,0,0,1-1.8254,3.796c-.2956.2-.23.8713-.4595,1.2469-.3005.4918-.6629,1.1843-1.1167,1.2918-.8111.192-1.1572-.5126-1.1019-1.2594a1.4858,1.4858,0,0,0-.9692-1.6546,2.1629,2.1629,0,0,1-1.0706-.9346,1.7431,1.7431,0,0,1,.0043-1.4915c.2417-.2722,1.0016-.2294,1.4769-.1063.4371.1131.791.7255,1.1958.7407a1.8442,1.8442,0,0,0,1.4655-.5855c.3494-.64.0016-1.29-.7831-1.52-.2488-.0727-.53-.0254-.7888-.0744a3.325,3.325,0,0,1-2.8011-2.6548,3.1744,3.1744,0,0,1,1.2946-3.5085,2.094,2.094,0,0,0,1.028-1.8048c.0269-.4363.6677-.8347,1.0311-1.25.382.4072,1.0439.7879,1.0856,1.2274a1.836,1.836,0,0,0,1.0487,1.7654c.7855.388,1.4737,1.0415.8839,2.0042-.5845.9539-1.3353.5134-2.0314.0115A6.8285,6.8285,0,0,0,29.6268,13.8283Z"/><path class="cls-1" d="M22.8494,6.5c.4631.78.98,1.2671.9441,1.7086-.0307.3774-.6959.7032-1.0805,1.0518-.3637-.4158-.9558-.801-1.017-1.2573C21.6489,7.6528,22.2712,7.2127,22.8494,6.5Z"/></svg>